<svg xmlns="http://www.w3.org/2000/svg" width="540" height="300"><g class="visx-group" transform="translate(80.95, 0)"><polygon class="visx-polygon" points="0,15.600000000000001 91.81,100.05499999999998 91.81,172.44499999999996 0,256.9" fill="#509ee3" opacity="1"></polygon><line class="visx-line" x1="0" y1="0" x2="0" y2="300" fill="transparent" shape-rendering="auto" stroke="#f0f0f0"></line><g class="visx-group" transform="translate(-8, 0)"><svg x="0" y="0" font-size="12" style="overflow:visible"><text transform="" font-family="Lato" font-size="12" fill="#949aab" y="10" text-anchor="end"><tspan x="0" dy="0em">Visitors</tspan></text></svg><svg x="0" y="0" font-size="24" style="overflow:visible"><text transform="" font-family="Lato" font-size="24" fill="black" y="136.25" style="font-weight:700" text-anchor="end"><tspan x="0" dy="0em">1,000</tspan></text></svg><svg x="0" y="0" font-size="16" style="overflow:visible"><text transform="" font-family="Lato" font-size="16" fill="#949aab" y="157.05" text-anchor="end"><tspan x="0" dy="0em">Step</tspan></text></svg></g><polygon class="visx-polygon" points="91.81,100.05499999999998 183.62,112.12 183.62,160.38 91.81,172.44499999999996" fill="#509ee3" opacity="0.8714285714285714"></polygon><line class="visx-line" x1="91.81" y1="0" x2="91.81" y2="300" fill="transparent" shape-rendering="auto" stroke="#f0f0f0"></line><g class="visx-group" transform="translate(83.81, 0)"><svg x="0" y="0" font-size="12" style="overflow:visible"><text transform="" font-family="Lato" font-size="12" fill="#949aab" y="10" text-anchor="end"><tspan x="0" dy="0em">Started sign …</tspan></text></svg><svg x="0" y="0" font-size="16" style="overflow:visible"><text transform="" font-family="Lato" font-size="16" fill="#949aab" y="276" text-anchor="end"><tspan x="0" dy="0em">30.00 %</tspan></text></svg><svg x="0" y="0" font-size="11" style="overflow:visible"><text transform="" font-family="Lato" font-size="11" fill="#949aab" y="292" text-anchor="end"><tspan x="0" dy="0em">300</tspan></text></svg></g><polygon class="visx-polygon" points="183.62,112.12 275.43,112.72324999999998 275.43,159.77674999999996 183.62,160.38" fill="#509ee3" opacity="0.7428571428571429"></polygon><line class="visx-line" x1="183.62" y1="0" x2="183.62" y2="300" fill="transparent" shape-rendering="auto" stroke="#f0f0f0"></line><g class="visx-group" transform="translate(175.62, 0)"><svg x="0" y="0" font-size="12" style="overflow:visible"><text transform="" font-family="Lato" font-size="12" fill="#949aab" y="10" text-anchor="end"><tspan x="0" dy="0em">Finished sig…</tspan></text></svg><svg x="0" y="0" font-size="16" style="overflow:visible"><text transform="" font-family="Lato" font-size="16" fill="#949aab" y="276" text-anchor="end"><tspan x="0" dy="0em">20.00 %</tspan></text></svg><svg x="0" y="0" font-size="11" style="overflow:visible"><text transform="" font-family="Lato" font-size="11" fill="#949aab" y="292" text-anchor="end"><tspan x="0" dy="0em">200</tspan></text></svg></g><polygon class="visx-polygon" points="275.43,112.72324999999998 367.24,118.1525 367.24,154.3475 275.43,159.77674999999996" fill="#509ee3" opacity="0.6142857142857142"></polygon><line class="visx-line" x1="275.43" y1="0" x2="275.43" y2="300" fill="transparent" shape-rendering="auto" stroke="#f0f0f0"></line><g class="visx-group" transform="translate(267.43, 0)"><svg x="0" y="0" font-size="12" style="overflow:visible"><text transform="" font-family="Lato" font-size="12" fill="#949aab" y="10" text-anchor="end"><tspan x="0" dy="0em">Opened app</tspan></text></svg><svg x="0" y="0" font-size="16" style="overflow:visible"><text transform="" font-family="Lato" font-size="16" fill="#949aab" y="276" text-anchor="end"><tspan x="0" dy="0em">19.50 %</tspan></text></svg><svg x="0" y="0" font-size="11" style="overflow:visible"><text transform="" font-family="Lato" font-size="11" fill="#949aab" y="292" text-anchor="end"><tspan x="0" dy="0em">195</tspan></text></svg></g><polygon class="visx-polygon" points="367.24,118.1525 459.05,133.23375 459.05,139.26624999999999 367.24,154.3475" fill="#509ee3" opacity="0.48571428571428565"></polygon><line class="visx-line" x1="367.24" y1="0" x2="367.24" y2="300" fill="transparent" shape-rendering="auto" stroke="#f0f0f0"></line><g class="visx-group" transform="translate(359.24, 0)"><svg x="0" y="0" font-size="12" style="overflow:visible"><text transform="" font-family="Lato" font-size="12" fill="#949aab" y="10" text-anchor="end"><tspan x="0" dy="0em">Finished onb…</tspan></text></svg><svg x="0" y="0" font-size="16" style="overflow:visible"><text transform="" font-family="Lato" font-size="16" fill="#949aab" y="276" text-anchor="end"><tspan x="0" dy="0em">15.00 %</tspan></text></svg><svg x="0" y="0" font-size="11" style="overflow:visible"><text transform="" font-family="Lato" font-size="11" fill="#949aab" y="292" text-anchor="end"><tspan x="0" dy="0em">150</tspan></text></svg></g><line class="visx-line" x1="459.05" y1="0" x2="459.05" y2="300" fill="transparent" shape-rendering="auto" stroke="#f0f0f0"></line><g class="visx-group" transform="translate(451.05, 0)"><svg x="0" y="0" font-size="12" style="overflow:visible"><text transform="" font-family="Lato" font-size="12" fill="#949aab" y="10" text-anchor="end"><tspan x="0" dy="0em">Activated</tspan></text></svg><svg x="0" y="0" font-size="16" style="overflow:visible"><text transform="" font-family="Lato" font-size="16" fill="#949aab" y="276" text-anchor="end"><tspan x="0" dy="0em">2.50 %</tspan></text></svg><svg x="0" y="0" font-size="11" style="overflow:visible"><text transform="" font-family="Lato" font-size="11" fill="#949aab" y="292" text-anchor="end"><tspan x="0" dy="0em">25</tspan></text></svg></g></g></svg>