<svg xmlns="http://www.w3.org/2000/svg" width="550" height="606"><g class="visx-group" transform="translate(0, 0)"><svg width="550" height="550" xmlns="http://www.w3.org/2000/svg" xmlns:xlink="http://www.w3.org/1999/xlink" version="1.1" baseProfile="full" viewBox="0 0 550 550">
<rect width="550" height="550" x="0" y="0" fill="none"></rect>
<path d="M275 12A263 263 0 0 1 467.1 95.4L390.3 167.2A157.8 157.8 0 0 0 275 117.2Z" fill="#999AC4" stroke="#FFFFFF" stroke-width="4.590215932745087" stroke-linejoin="bevel" ecmeta_series_index="0" ecmeta_data_index="1" ecmeta_ssr_type="chart" class="zr0-cls-0"></path>
<path d="M467.1 95.4A263 263 0 0 1 537.7 262.1L432.6 267.3A157.8 157.8 0 0 0 390.3 167.2Z" fill="#F9D45C" stroke="#FFFFFF" stroke-width="4.590215932745087" stroke-linejoin="bevel" ecmeta_series_index="0" ecmeta_data_index="2" ecmeta_ssr_type="chart" class="zr0-cls-1"></path>
<path d="M537.7 262.1A263 263 0 0 1 504.9 402.8L412.9 351.7A157.8 157.8 0 0 0 432.6 267.3Z" fill="#EF8C8C" stroke="#FFFFFF" stroke-width="4.590215932745087" stroke-linejoin="bevel" ecmeta_series_index="0" ecmeta_data_index="3" ecmeta_ssr_type="chart" class="zr0-cls-2"></path>
<path d="M504.9 402.8A263 263 0 0 1 416.6 496.6L359.9 408A157.8 157.8 0 0 0 412.9 351.7Z" fill="#509EE3" stroke="#FFFFFF" stroke-width="4.590215932745087" stroke-linejoin="bevel" ecmeta_series_index="0" ecmeta_data_index="4" ecmeta_ssr_type="chart" class="zr0-cls-3"></path>
<path d="M416.6 496.6A263 263 0 0 1 302.3 536.6L291.4 431.9A157.8 157.8 0 0 0 359.9 408Z" fill="#999AC4" stroke="#FFFFFF" stroke-width="4.590215932745087" stroke-linejoin="bevel" ecmeta_series_index="0" ecmeta_data_index="5" ecmeta_ssr_type="chart" class="zr0-cls-0"></path>
<path d="M302.3 536.6A263 263 0 0 1 198.9 526.8L229.4 426.1A157.8 157.8 0 0 0 291.4 431.9Z" fill="#E75454" stroke="#FFFFFF" stroke-width="4.590215932745087" stroke-linejoin="bevel" ecmeta_series_index="0" ecmeta_data_index="6" ecmeta_ssr_type="chart" class="zr0-cls-4"></path>
<path d="M198.9 526.8A263 263 0 0 1 112.5 481.8L177.5 399.1A157.8 157.8 0 0 0 229.4 426.1Z" fill="#E75454" stroke="#FFFFFF" stroke-width="4.590215932745087" stroke-linejoin="bevel" ecmeta_series_index="0" ecmeta_data_index="7" ecmeta_ssr_type="chart" class="zr0-cls-4"></path>
<path d="M112.5 481.8A263 263 0 0 1 49.1 409.7L139.5 355.8A157.8 157.8 0 0 0 177.5 399.1Z" fill="#F2A86F" stroke="#FFFFFF" stroke-width="4.590215932745087" stroke-linejoin="bevel" ecmeta_series_index="0" ecmeta_data_index="8" ecmeta_ssr_type="chart" class="zr0-cls-5"></path>
<path d="M49.1 409.7A263 263 0 0 1 275 12L275 117.2A157.8 157.8 0 0 0 139.5 355.8Z" fill="#939A9F" stroke="#FFFFFF" stroke-width="4.590215932745087" stroke-linejoin="bevel" ecmeta_series_index="0" ecmeta_data_index="9" ecmeta_ssr_type="chart" class="zr0-cls-6"></path>
<text dominant-baseline="central" text-anchor="middle" style="font-size:19.12727272727273px;font-family:Lato, 'Helvetica Neue', Helvetica, Arial, sans-serif;font-weight:700;" transform="translate(358.7723 81.9965)" fill="hsla(0, 0%, 100%, 0.95)" dy="0.5em">13.04%</text>
<text dominant-baseline="central" text-anchor="middle" style="font-size:19.12727272727273px;font-family:Lato, 'Helvetica Neue', Helvetica, Arial, sans-serif;font-weight:700;" transform="translate(468.7634 193.0007)" fill="hsla(204, 66%, 8%, 0.84)" dy="0.5em">11.19%</text>
<text dominant-baseline="central" text-anchor="middle" style="font-size:19.12727272727273px;font-family:Lato, 'Helvetica Neue', Helvetica, Arial, sans-serif;font-weight:700;" transform="translate(479.8976 322.8029)" fill="hsla(204, 66%, 8%, 0.84)" dy="0.5em">8.85%</text>
<text dominant-baseline="central" text-anchor="middle" style="font-size:19.12727272727273px;font-family:Lato, 'Helvetica Neue', Helvetica, Arial, sans-serif;font-weight:700;" transform="translate(428.2517 419.1599)" fill="hsla(0, 0%, 100%, 0.95)" dy="0.5em">7.88%</text>
<text dominant-baseline="central" text-anchor="middle" style="font-size:19.12727272727273px;font-family:Lato, 'Helvetica Neue', Helvetica, Arial, sans-serif;font-weight:700;" transform="translate(344.404 473.6234)" fill="hsla(0, 0%, 100%, 0.95)" dy="0.5em">7.39%</text>
<text dominant-baseline="central" text-anchor="middle" style="font-size:19.12727272727273px;font-family:Lato, 'Helvetica Neue', Helvetica, Arial, sans-serif;font-weight:700;" transform="translate(255.0972 484.4565)" fill="hsla(0, 0%, 100%, 0.95)" dy="0.5em">6.32%</text>
<text dominant-baseline="central" text-anchor="middle" style="font-size:19.12727272727273px;font-family:Lato, 'Helvetica Neue', Helvetica, Arial, sans-serif;font-weight:700;" transform="translate(177.8798 461.6436)" fill="hsla(0, 0%, 100%, 0.95)" dy="0.5em">5.93%</text>
<text dominant-baseline="central" text-anchor="middle" style="font-size:19.12727272727273px;font-family:Lato, 'Helvetica Neue', Helvetica, Arial, sans-serif;font-weight:700;" transform="translate(116.9897 413.9277)" fill="hsla(204, 66%, 8%, 0.84)" dy="0.5em">5.84%</text>
<text dominant-baseline="central" text-anchor="middle" style="font-size:19.12727272727273px;font-family:Lato, 'Helvetica Neue', Helvetica, Arial, sans-serif;font-weight:700;" transform="translate(92.0427 171.102)" fill="hsla(0, 0%, 100%, 0.95)" dy="0.5em">33.56%</text>
<style ><![CDATA[
.zr0-cls-0:hover {
cursor:pointer;
fill:#999AC4;
stroke:#FFFFFF;
}
.zr0-cls-1:hover {
cursor:pointer;
fill:#F9D45C;
stroke:#FFFFFF;
}
.zr0-cls-2:hover {
cursor:pointer;
fill:#EF8C8C;
stroke:#FFFFFF;
}
.zr0-cls-3:hover {
cursor:pointer;
fill:#509EE3;
stroke:#FFFFFF;
}
.zr0-cls-4:hover {
cursor:pointer;
fill:#E75454;
stroke:#FFFFFF;
}
.zr0-cls-5:hover {
cursor:pointer;
fill:#F2A86F;
stroke:#FFFFFF;
}
.zr0-cls-6:hover {
cursor:pointer;
fill:#939A9F;
stroke:#FFFFFF;
}

]]>

</style>
</svg></g><g class="visx-group" transform="translate(26.918669921874994, 566)"><g class="visx-group" transform="translate(12, 0)"><circle fill="#999AC4" r="5" cx="5" cy="5"></circle><svg x="0" y="0" font-size="14" style="overflow:visible"><text transform="" font-family="Lato" font-size="14" fill="#4C5773" x="14" font-weight="700" text-anchor="start"><tspan x="14" dy="0.71em">Water</tspan></text></svg></g><g class="visx-group" transform="translate(117, 0)"><circle fill="#EF8C8C" r="5" cx="5" cy="5"></circle><svg x="0" y="0" font-size="14" style="overflow:visible"><text transform="" font-family="Lato" font-size="14" fill="#4C5773" x="14" font-weight="700" text-anchor="start"><tspan x="14" dy="0.71em">Grass</tspan></text></svg></g><g class="visx-group" transform="translate(222, 0)"><circle fill="#999AC4" r="5" cx="5" cy="5"></circle><svg x="0" y="0" font-size="14" style="overflow:visible"><text transform="" font-family="Lato" font-size="14" fill="#4C5773" x="14" font-weight="700" text-anchor="start"><tspan x="14" dy="0.71em">Psychic</tspan></text></svg></g><g class="visx-group" transform="translate(327, 0)"><circle fill="#E75454" r="5" cx="5" cy="5"></circle><svg x="0" y="0" font-size="14" style="overflow:visible"><text transform="" font-family="Lato" font-size="14" fill="#4C5773" x="14" font-weight="700" text-anchor="start"><tspan x="14" dy="0.71em">Electric</tspan></text></svg></g><g class="visx-group" transform="translate(432, 0)"><circle fill="#939A9F" r="5" cx="5" cy="5"></circle><svg x="0" y="0" font-size="14" style="overflow:visible"><text transform="" font-family="Lato" font-size="14" fill="#4C5773" x="14" font-weight="700" text-anchor="start"><tspan x="14" dy="0.71em">Other</tspan></text></svg></g><g class="visx-group" transform="translate(12, 20)"><circle fill="#F9D45C" r="5" cx="5" cy="5"></circle><svg x="0" y="0" font-size="14" style="overflow:visible"><text transform="" font-family="Lato" font-size="14" fill="#4C5773" x="14" font-weight="700" text-anchor="start"><tspan x="14" dy="0.71em">Normal</tspan></text></svg></g><g class="visx-group" transform="translate(117, 20)"><circle fill="#509EE3" r="5" cx="5" cy="5"></circle><svg x="0" y="0" font-size="14" style="overflow:visible"><text transform="" font-family="Lato" font-size="14" fill="#4C5773" x="14" font-weight="700" text-anchor="start"><tspan x="14" dy="0.71em">Bug</tspan></text></svg></g><g class="visx-group" transform="translate(222, 20)"><circle fill="#E75454" r="5" cx="5" cy="5"></circle><svg x="0" y="0" font-size="14" style="overflow:visible"><text transform="" font-family="Lato" font-size="14" fill="#4C5773" x="14" font-weight="700" text-anchor="start"><tspan x="14" dy="0.71em">Fire</tspan></text></svg></g><g class="visx-group" transform="translate(327, 20)"><circle fill="#F2A86F" r="5" cx="5" cy="5"></circle><svg x="0" y="0" font-size="14" style="overflow:visible"><text transform="" font-family="Lato" font-size="14" fill="#4C5773" x="14" font-weight="700" text-anchor="start"><tspan x="14" dy="0.71em">Rock</tspan></text></svg></g></g></svg>