<svg xmlns="http://www.w3.org/2000/svg" width="540" height="360"><g><svg width="540" height="360" xmlns="http://www.w3.org/2000/svg" xmlns:xlink="http://www.w3.org/1999/xlink" version="1.1" baseProfile="full" viewBox="0 0 540 360">
<rect width="540" height="360" x="0" y="0" fill="none"></rect>
<path d="M83.4 311.5L528.2 311.5" fill="none" pointer-events="visible" stroke="#DCDFE0" class="zr0-cls-0"></path>
<path d="M83.4 264.5L528.2 264.5" fill="none" pointer-events="visible" stroke="#DCDFE0" class="zr0-cls-0"></path>
<path d="M83.4 217.5L528.2 217.5" fill="none" pointer-events="visible" stroke="#DCDFE0" class="zr0-cls-0"></path>
<path d="M83.4 170.5L528.2 170.5" fill="none" pointer-events="visible" stroke="#DCDFE0" class="zr0-cls-0"></path>
<path d="M83.4 123.5L528.2 123.5" fill="none" pointer-events="visible" stroke="#DCDFE0" class="zr0-cls-0"></path>
<path d="M83.4 76.5L528.2 76.5" fill="none" pointer-events="visible" stroke="#DCDFE0" class="zr0-cls-0"></path>
<path d="M83.4 29.5L528.2 29.5" fill="none" pointer-events="visible" stroke="#DCDFE0" class="zr0-cls-0"></path>
<text dominant-baseline="central" text-anchor="middle" style="font-size:13px;font-family:Lato, 'Helvetica Neue', Helvetica, Arial, sans-serif;font-weight:400;" xml:space="preserve" y="-6.5" transform="matrix(0,-1,1,0,21,170.25)" fill="#303D46" dy="0.5em">Total Accident</text>
<text dominant-baseline="central" text-anchor="middle" style="font-size:13px;font-family:Lato, 'Helvetica Neue', Helvetica, Arial, sans-serif;font-weight:400;" y="6.5" transform="translate(305.8166 341.5)" fill="#303D46" dy="0.5em">Date</text>
<path d="M83.4 311.5L528.2 311.5" fill="none" pointer-events="visible" stroke="#DCDFE0" stroke-linecap="round" class="zr0-cls-0"></path>
<text dominant-baseline="central" text-anchor="end" style="font-size:13px;font-family:Lato, 'Helvetica Neue', Helvetica, Arial, sans-serif;font-weight:400;" transform="translate(73.4219 311.5)" fill="#303D46" dy="0.5em">0</text>
<text dominant-baseline="central" text-anchor="end" style="font-size:13px;font-family:Lato, 'Helvetica Neue', Helvetica, Arial, sans-serif;font-weight:400;" transform="translate(73.4219 264.4167)" fill="#303D46" dy="0.5em">2,000</text>
<text dominant-baseline="central" text-anchor="end" style="font-size:13px;font-family:Lato, 'Helvetica Neue', Helvetica, Arial, sans-serif;font-weight:400;" transform="translate(73.4219 217.3333)" fill="#303D46" dy="0.5em">4,000</text>
<text dominant-baseline="central" text-anchor="end" style="font-size:13px;font-family:Lato, 'Helvetica Neue', Helvetica, Arial, sans-serif;font-weight:400;" transform="translate(73.4219 170.25)" fill="#303D46" dy="0.5em">6,000</text>
<text dominant-baseline="central" text-anchor="end" style="font-size:13px;font-family:Lato, 'Helvetica Neue', Helvetica, Arial, sans-serif;font-weight:400;" transform="translate(73.4219 123.1667)" fill="#303D46" dy="0.5em">8,000</text>
<text dominant-baseline="central" text-anchor="end" style="font-size:13px;font-family:Lato, 'Helvetica Neue', Helvetica, Arial, sans-serif;font-weight:400;" transform="translate(73.4219 76.0833)" fill="#303D46" dy="0.5em">10,000</text>
<text dominant-baseline="central" text-anchor="end" style="font-size:13px;font-family:Lato, 'Helvetica Neue', Helvetica, Arial, sans-serif;font-weight:400;" transform="translate(73.4219 29)" fill="#303D46" dy="0.5em">12,000</text>
<text dominant-baseline="central" text-anchor="middle" style="font: normal 400 13px Lato, 'Helvetica Neue', Helvetica, Arial, sans-serif" xml:space="preserve" y="6.5" transform="translate(189.5648 316.5)" fill="#303D46" dy="0.5em"> December 8, 2016 </text>
<text dominant-baseline="central" text-anchor="middle" style="font: normal 400 13px Lato, 'Helvetica Neue', Helvetica, Arial, sans-serif" xml:space="preserve" y="6.5" transform="translate(378.2634 316.5)" fill="#303D46" dy="0.5em"> December 22, 2016 </text>
<g clip-path="url(#zr0-c0)">
<path d="M92.1 298.9l9.6 0l0 12.6l-9.6 0Z" fill="#88BF4D" ecmeta_series_index="0" ecmeta_data_index="0" ecmeta_ssr_type="chart" class="zr0-cls-2"></path>
<path d="M105.6 287.4l9.6 0l0 11.5l-9.6 0Z" fill="#88BF4D" ecmeta_series_index="0" ecmeta_data_index="1" ecmeta_ssr_type="chart" class="zr0-cls-2"></path>
<path d="M119.1 279.6l9.6 0l0 7.8l-9.6 0Z" fill="#88BF4D" ecmeta_series_index="0" ecmeta_data_index="2" ecmeta_ssr_type="chart" class="zr0-cls-2"></path>
<path d="M132.6 271.8l9.6 0l0 7.8l-9.6 0Z" fill="#88BF4D" ecmeta_series_index="0" ecmeta_data_index="3" ecmeta_ssr_type="chart" class="zr0-cls-2"></path>
<path d="M146 262.5l9.6 0l0 9.3l-9.6 0Z" fill="#88BF4D" ecmeta_series_index="0" ecmeta_data_index="4" ecmeta_ssr_type="chart" class="zr0-cls-2"></path>
<path d="M159.5 253l9.6 0l0 9.5l-9.6 0Z" fill="#88BF4D" ecmeta_series_index="0" ecmeta_data_index="5" ecmeta_ssr_type="chart" class="zr0-cls-2"></path>
<path d="M173 241.6l9.6 0l0 11.5l-9.6 0Z" fill="#88BF4D" ecmeta_series_index="0" ecmeta_data_index="6" ecmeta_ssr_type="chart" class="zr0-cls-2"></path>
<path d="M186.5 230.4l9.6 0l0 11.1l-9.6 0Z" fill="#88BF4D" ecmeta_series_index="0" ecmeta_data_index="7" ecmeta_ssr_type="chart" class="zr0-cls-2"></path>
<path d="M199.9 218.2l9.6 0l0 12.2l-9.6 0Z" fill="#88BF4D" ecmeta_series_index="0" ecmeta_data_index="8" ecmeta_ssr_type="chart" class="zr0-cls-2"></path>
<path d="M213.4 210.6l9.6 0l0 7.6l-9.6 0Z" fill="#88BF4D" ecmeta_series_index="0" ecmeta_data_index="9" ecmeta_ssr_type="chart" class="zr0-cls-2"></path>
<path d="M226.9 203.1l9.6 0l0 7.6l-9.6 0Z" fill="#88BF4D" ecmeta_series_index="0" ecmeta_data_index="10" ecmeta_ssr_type="chart" class="zr0-cls-2"></path>
<path d="M240.4 194.2l9.6 0l0 8.9l-9.6 0Z" fill="#88BF4D" ecmeta_series_index="0" ecmeta_data_index="11" ecmeta_ssr_type="chart" class="zr0-cls-2"></path>
<path d="M253.9 183.9l9.6 0l0 10.3l-9.6 0Z" fill="#88BF4D" ecmeta_series_index="0" ecmeta_data_index="12" ecmeta_ssr_type="chart" class="zr0-cls-2"></path>
<path d="M267.3 173.6l9.6 0l0 10.3l-9.6 0Z" fill="#88BF4D" ecmeta_series_index="0" ecmeta_data_index="13" ecmeta_ssr_type="chart" class="zr0-cls-2"></path>
<path d="M280.8 163.9l9.6 0l0 9.7l-9.6 0Z" fill="#88BF4D" ecmeta_series_index="0" ecmeta_data_index="14" ecmeta_ssr_type="chart" class="zr0-cls-2"></path>
<path d="M294.3 152.5l9.6 0l0 11.4l-9.6 0Z" fill="#88BF4D" ecmeta_series_index="0" ecmeta_data_index="15" ecmeta_ssr_type="chart" class="zr0-cls-2"></path>
<path d="M307.8 145.6l9.6 0l0 6.9l-9.6 0Z" fill="#88BF4D" ecmeta_series_index="0" ecmeta_data_index="16" ecmeta_ssr_type="chart" class="zr0-cls-2"></path>
<path d="M321.3 139.3l9.6 0l0 6.2l-9.6 0Z" fill="#88BF4D" ecmeta_series_index="0" ecmeta_data_index="17" ecmeta_ssr_type="chart" class="zr0-cls-2"></path>
<path d="M334.7 130.6l9.6 0l0 8.8l-9.6 0Z" fill="#88BF4D" ecmeta_series_index="0" ecmeta_data_index="18" ecmeta_ssr_type="chart" class="zr0-cls-2"></path>
<path d="M348.2 121.5l9.6 0l0 9l-9.6 0Z" fill="#88BF4D" ecmeta_series_index="0" ecmeta_data_index="19" ecmeta_ssr_type="chart" class="zr0-cls-2"></path>
<path d="M361.7 111.9l9.6 0l0 9.7l-9.6 0Z" fill="#88BF4D" ecmeta_series_index="0" ecmeta_data_index="20" ecmeta_ssr_type="chart" class="zr0-cls-2"></path>
<path d="M375.2 102l9.6 0l0 9.9l-9.6 0Z" fill="#88BF4D" ecmeta_series_index="0" ecmeta_data_index="21" ecmeta_ssr_type="chart" class="zr0-cls-2"></path>
<path d="M388.6 93.6l9.6 0l0 8.4l-9.6 0Z" fill="#88BF4D" ecmeta_series_index="0" ecmeta_data_index="22" ecmeta_ssr_type="chart" class="zr0-cls-2"></path>
<path d="M402.1 87.2l9.6 0l0 6.5l-9.6 0Z" fill="#88BF4D" ecmeta_series_index="0" ecmeta_data_index="23" ecmeta_ssr_type="chart" class="zr0-cls-2"></path>
<path d="M415.6 83.9l9.6 0l0 3.2l-9.6 0Z" fill="#88BF4D" ecmeta_series_index="0" ecmeta_data_index="24" ecmeta_ssr_type="chart" class="zr0-cls-2"></path>
<path d="M429.1 79.5l9.6 0l0 4.4l-9.6 0Z" fill="#88BF4D" ecmeta_series_index="0" ecmeta_data_index="25" ecmeta_ssr_type="chart" class="zr0-cls-2"></path>
<path d="M442.6 73.4l9.6 0l0 6.1l-9.6 0Z" fill="#88BF4D" ecmeta_series_index="0" ecmeta_data_index="26" ecmeta_ssr_type="chart" class="zr0-cls-2"></path>
<path d="M456 66.6l9.6 0l0 6.7l-9.6 0Z" fill="#88BF4D" ecmeta_series_index="0" ecmeta_data_index="27" ecmeta_ssr_type="chart" class="zr0-cls-2"></path>
<path d="M469.5 59.7l9.6 0l0 6.9l-9.6 0Z" fill="#88BF4D" ecmeta_series_index="0" ecmeta_data_index="28" ecmeta_ssr_type="chart" class="zr0-cls-2"></path>
<path d="M483 53.8l9.6 0l0 5.9l-9.6 0Z" fill="#88BF4D" ecmeta_series_index="0" ecmeta_data_index="29" ecmeta_ssr_type="chart" class="zr0-cls-2"></path>
<path d="M496.5 49.1l9.6 0l0 4.7l-9.6 0Z" fill="#88BF4D" ecmeta_series_index="0" ecmeta_data_index="30" ecmeta_ssr_type="chart" class="zr0-cls-2"></path>
<path d="M510 49.1l9.6 0l0 262.4l-9.6 0Z" fill="#88BF4D" ecmeta_series_index="0" ecmeta_data_index="31" ecmeta_ssr_type="chart" class="zr0-cls-2"></path>
</g>
<path d="M510 311.5l9.6 0l0 -262.4l-9.6 0Z" fill="#303D46" ecmeta_series_index="2" ecmeta_data_index="31" ecmeta_ssr_type="chart" class="zr0-cls-3"></path>
<path d="M1 0A1 1 0 1 1 1 -0.1A1 1 0 0 1 1 0" transform="matrix(0,0,0,0,96.9003,298.8581)" fill="#b6d634" fill-opacity="0.8" ecmeta_series_index="1" ecmeta_data_index="0" ecmeta_ssr_type="chart" ecmeta_silent="true" class="zr0-cls-0"></path>
<path d="M1 0A1 1 0 1 1 1 -0.1A1 1 0 0 1 1 0" transform="matrix(0,0,0,0,110.3788,287.3933)" fill="#b6d634" fill-opacity="0.8" ecmeta_series_index="1" ecmeta_data_index="1" ecmeta_ssr_type="chart" ecmeta_silent="true" class="zr0-cls-0"></path>
<path d="M1 0A1 1 0 1 1 1 -0.1A1 1 0 0 1 1 0" transform="matrix(0,0,0,0,123.8573,279.601)" fill="#b6d634" fill-opacity="0.8" ecmeta_series_index="1" ecmeta_data_index="2" ecmeta_ssr_type="chart" ecmeta_silent="true" class="zr0-cls-0"></path>
<path d="M1 0A1 1 0 1 1 1 -0.1A1 1 0 0 1 1 0" transform="matrix(0,0,0,0,137.3358,271.7617)" fill="#b6d634" fill-opacity="0.8" ecmeta_series_index="1" ecmeta_data_index="3" ecmeta_ssr_type="chart" ecmeta_silent="true" class="zr0-cls-0"></path>
<path d="M1 0A1 1 0 1 1 1 -0.1A1 1 0 0 1 1 0" transform="matrix(0,0,0,0,150.8142,262.4863)" fill="#b6d634" fill-opacity="0.8" ecmeta_series_index="1" ecmeta_data_index="4" ecmeta_ssr_type="chart" ecmeta_silent="true" class="zr0-cls-0"></path>
<path d="M1 0A1 1 0 1 1 1 -0.1A1 1 0 0 1 1 0" transform="matrix(0,0,0,0,164.2927,253.0225)" fill="#b6d634" fill-opacity="0.8" ecmeta_series_index="1" ecmeta_data_index="5" ecmeta_ssr_type="chart" ecmeta_silent="true" class="zr0-cls-0"></path>
<path d="M1 0A1 1 0 1 1 1 -0.1A1 1 0 0 1 1 0" transform="matrix(0,0,0,0,177.7712,241.5577)" fill="#b6d634" fill-opacity="0.8" ecmeta_series_index="1" ecmeta_data_index="6" ecmeta_ssr_type="chart" ecmeta_silent="true" class="zr0-cls-0"></path>
<path d="M1 0A1 1 0 1 1 1 -0.1A1 1 0 0 1 1 0" transform="matrix(0,0,0,0,191.2496,230.446)" fill="#b6d634" fill-opacity="0.8" ecmeta_series_index="1" ecmeta_data_index="7" ecmeta_ssr_type="chart" ecmeta_silent="true" class="zr0-cls-0"></path>
<path d="M1 0A1 1 0 1 1 1 -0.1A1 1 0 0 1 1 0" transform="matrix(0,0,0,0,204.7281,218.2279)" fill="#b6d634" fill-opacity="0.8" ecmeta_series_index="1" ecmeta_data_index="8" ecmeta_ssr_type="chart" ecmeta_silent="true" class="zr0-cls-0"></path>
<path d="M1 0A1 1 0 1 1 1 -0.1A1 1 0 0 1 1 0" transform="matrix(0,0,0,0,218.2066,210.6475)" fill="#b6d634" fill-opacity="0.8" ecmeta_series_index="1" ecmeta_data_index="9" ecmeta_ssr_type="chart" ecmeta_silent="true" class="zr0-cls-0"></path>
<path d="M1 0A1 1 0 1 1 1 -0.1A1 1 0 0 1 1 0" transform="matrix(0,0,0,0,231.685,203.0671)" fill="#b6d634" fill-opacity="0.8" ecmeta_series_index="1" ecmeta_data_index="10" ecmeta_ssr_type="chart" ecmeta_silent="true" class="zr0-cls-0"></path>
<path d="M1 0A1 1 0 1 1 1 -0.1A1 1 0 0 1 1 0" transform="matrix(0,0,0,0,245.1635,194.1919)" fill="#b6d634" fill-opacity="0.8" ecmeta_series_index="1" ecmeta_data_index="11" ecmeta_ssr_type="chart" ecmeta_silent="true" class="zr0-cls-0"></path>
<path d="M1 0A1 1 0 1 1 1 -0.1A1 1 0 0 1 1 0" transform="matrix(0,0,0,0,258.642,183.8571)" fill="#b6d634" fill-opacity="0.8" ecmeta_series_index="1" ecmeta_data_index="12" ecmeta_ssr_type="chart" ecmeta_silent="true" class="zr0-cls-0"></path>
<path d="M1 0A1 1 0 1 1 1 -0.1A1 1 0 0 1 1 0" transform="matrix(0,0,0,0,272.1205,173.5694)" fill="#b6d634" fill-opacity="0.8" ecmeta_series_index="1" ecmeta_data_index="13" ecmeta_ssr_type="chart" ecmeta_silent="true" class="zr0-cls-0"></path>
<path d="M1 0A1 1 0 1 1 1 -0.1A1 1 0 0 1 1 0" transform="matrix(0,0,0,0,285.5989,163.9173)" fill="#b6d634" fill-opacity="0.8" ecmeta_series_index="1" ecmeta_data_index="14" ecmeta_ssr_type="chart" ecmeta_silent="true" class="zr0-cls-0"></path>
<path d="M1 0A1 1 0 1 1 1 -0.1A1 1 0 0 1 1 0" transform="matrix(0,0,0,0,299.0774,152.476)" fill="#b6d634" fill-opacity="0.8" ecmeta_series_index="1" ecmeta_data_index="15" ecmeta_ssr_type="chart" ecmeta_silent="true" class="zr0-cls-0"></path>
<path d="M1 0A1 1 0 1 1 1 -0.1A1 1 0 0 1 1 0" transform="matrix(0,0,0,0,312.5559,145.5548)" fill="#b6d634" fill-opacity="0.8" ecmeta_series_index="1" ecmeta_data_index="16" ecmeta_ssr_type="chart" ecmeta_silent="true" class="zr0-cls-0"></path>
<path d="M1 0A1 1 0 1 1 1 -0.1A1 1 0 0 1 1 0" transform="matrix(0,0,0,0,326.0343,139.3163)" fill="#b6d634" fill-opacity="0.8" ecmeta_series_index="1" ecmeta_data_index="17" ecmeta_ssr_type="chart" ecmeta_silent="true" class="zr0-cls-0"></path>
<path d="M1 0A1 1 0 1 1 1 -0.1A1 1 0 0 1 1 0" transform="matrix(0,0,0,0,339.5128,130.5588)" fill="#b6d634" fill-opacity="0.8" ecmeta_series_index="1" ecmeta_data_index="18" ecmeta_ssr_type="chart" ecmeta_silent="true" class="zr0-cls-0"></path>
<path d="M1 0A1 1 0 1 1 1 -0.1A1 1 0 0 1 1 0" transform="matrix(0,0,0,0,352.9913,121.5423)" fill="#b6d634" fill-opacity="0.8" ecmeta_series_index="1" ecmeta_data_index="19" ecmeta_ssr_type="chart" ecmeta_silent="true" class="zr0-cls-0"></path>
<path d="M1 0A1 1 0 1 1 1 -0.1A1 1 0 0 1 1 0" transform="matrix(0,0,0,0,366.4697,111.8667)" fill="#b6d634" fill-opacity="0.8" ecmeta_series_index="1" ecmeta_data_index="20" ecmeta_ssr_type="chart" ecmeta_silent="true" class="zr0-cls-0"></path>
<path d="M1 0A1 1 0 1 1 1 -0.1A1 1 0 0 1 1 0" transform="matrix(0,0,0,0,379.9482,102.0027)" fill="#b6d634" fill-opacity="0.8" ecmeta_series_index="1" ecmeta_data_index="21" ecmeta_ssr_type="chart" ecmeta_silent="true" class="zr0-cls-0"></path>
<path d="M1 0A1 1 0 1 1 1 -0.1A1 1 0 0 1 1 0" transform="matrix(0,0,0,0,393.4267,93.6219)" fill="#b6d634" fill-opacity="0.8" ecmeta_series_index="1" ecmeta_data_index="22" ecmeta_ssr_type="chart" ecmeta_silent="true" class="zr0-cls-0"></path>
<path d="M1 0A1 1 0 1 1 1 -0.1A1 1 0 0 1 1 0" transform="matrix(0,0,0,0,406.9051,87.1715)" fill="#b6d634" fill-opacity="0.8" ecmeta_series_index="1" ecmeta_data_index="23" ecmeta_ssr_type="chart" ecmeta_silent="true" class="zr0-cls-0"></path>
<path d="M1 0A1 1 0 1 1 1 -0.1A1 1 0 0 1 1 0" transform="matrix(0,0,0,0,420.3836,83.9227)" fill="#b6d634" fill-opacity="0.8" ecmeta_series_index="1" ecmeta_data_index="24" ecmeta_ssr_type="chart" ecmeta_silent="true" class="zr0-cls-0"></path>
<path d="M1 0A1 1 0 1 1 1 -0.1A1 1 0 0 1 1 0" transform="matrix(0,0,0,0,433.8621,79.5204)" fill="#b6d634" fill-opacity="0.8" ecmeta_series_index="1" ecmeta_data_index="25" ecmeta_ssr_type="chart" ecmeta_silent="true" class="zr0-cls-0"></path>
<path d="M1 0A1 1 0 1 1 1 -0.1A1 1 0 0 1 1 0" transform="matrix(0,0,0,0,447.3406,73.376)" fill="#b6d634" fill-opacity="0.8" ecmeta_series_index="1" ecmeta_data_index="26" ecmeta_ssr_type="chart" ecmeta_silent="true" class="zr0-cls-0"></path>
<path d="M1 0A1 1 0 1 1 1 -0.1A1 1 0 0 1 1 0" transform="matrix(0,0,0,0,460.819,66.6431)" fill="#b6d634" fill-opacity="0.8" ecmeta_series_index="1" ecmeta_data_index="27" ecmeta_ssr_type="chart" ecmeta_silent="true" class="zr0-cls-0"></path>
<path d="M1 0A1 1 0 1 1 1 -0.1A1 1 0 0 1 1 0" transform="matrix(0,0,0,0,474.2975,59.6983)" fill="#b6d634" fill-opacity="0.8" ecmeta_series_index="1" ecmeta_data_index="28" ecmeta_ssr_type="chart" ecmeta_silent="true" class="zr0-cls-0"></path>
<path d="M1 0A1 1 0 1 1 1 -0.1A1 1 0 0 1 1 0" transform="matrix(0,0,0,0,487.776,53.8365)" fill="#b6d634" fill-opacity="0.8" ecmeta_series_index="1" ecmeta_data_index="29" ecmeta_ssr_type="chart" ecmeta_silent="true" class="zr0-cls-0"></path>
<path d="M1 0A1 1 0 1 1 1 -0.1A1 1 0 0 1 1 0" transform="matrix(0,0,0,0,501.2544,49.1046)" fill="#b6d634" fill-opacity="0.8" ecmeta_series_index="1" ecmeta_data_index="30" ecmeta_ssr_type="chart" ecmeta_silent="true" class="zr0-cls-0"></path>
<path d="M1 0A1 1 0 1 1 1 -0.1A1 1 0 0 1 1 0" transform="matrix(0,0,0,0,514.7329,49.1046)" fill="#b6d634" fill-opacity="0.8" ecmeta_series_index="1" ecmeta_data_index="31" ecmeta_ssr_type="chart" ecmeta_silent="true" class="zr0-cls-0"></path>
<text dominant-baseline="central" text-anchor="middle" style="font-size:13px;font-family:Lato, 'Helvetica Neue', Helvetica, Arial, sans-serif;font-weight:700;" transform="translate(96.9003 288.3581)" fill="none" stroke="#FFFFFF" stroke-width="3" paint-order="stroke" stroke-miterlimit="2" dy="0.5em">537</text><text dominant-baseline="central" text-anchor="middle" style="font-size:13px;font-family:Lato, 'Helvetica Neue', Helvetica, Arial, sans-serif;font-weight:700;" transform="translate(96.9003 288.3581)" fill="#303D46" stroke="none" stroke-width="3" paint-order="stroke" stroke-miterlimit="2" dy="0.5em">537</text>
<text dominant-baseline="central" text-anchor="middle" style="font-size:13px;font-family:Lato, 'Helvetica Neue', Helvetica, Arial, sans-serif;font-weight:700;" transform="translate(150.8142 251.9863)" fill="none" stroke="#FFFFFF" stroke-width="3" paint-order="stroke" stroke-miterlimit="2" dy="0.5em">394</text><text dominant-baseline="central" text-anchor="middle" style="font-size:13px;font-family:Lato, 'Helvetica Neue', Helvetica, Arial, sans-serif;font-weight:700;" transform="translate(150.8142 251.9863)" fill="#303D46" stroke="none" stroke-width="3" paint-order="stroke" stroke-miterlimit="2" dy="0.5em">394</text>
<text dominant-baseline="central" text-anchor="middle" style="font-size:13px;font-family:Lato, 'Helvetica Neue', Helvetica, Arial, sans-serif;font-weight:700;" transform="translate(204.7281 207.7279)" fill="none" stroke="#FFFFFF" stroke-width="3" paint-order="stroke" stroke-miterlimit="2" dy="0.5em">519</text><text dominant-baseline="central" text-anchor="middle" style="font-size:13px;font-family:Lato, 'Helvetica Neue', Helvetica, Arial, sans-serif;font-weight:700;" transform="translate(204.7281 207.7279)" fill="#303D46" stroke="none" stroke-width="3" paint-order="stroke" stroke-miterlimit="2" dy="0.5em">519</text>
<text dominant-baseline="central" text-anchor="middle" style="font-size:13px;font-family:Lato, 'Helvetica Neue', Helvetica, Arial, sans-serif;font-weight:700;" transform="translate(258.642 173.3571)" fill="none" stroke="#FFFFFF" stroke-width="3" paint-order="stroke" stroke-miterlimit="2" dy="0.5em">439</text><text dominant-baseline="central" text-anchor="middle" style="font-size:13px;font-family:Lato, 'Helvetica Neue', Helvetica, Arial, sans-serif;font-weight:700;" transform="translate(258.642 173.3571)" fill="#303D46" stroke="none" stroke-width="3" paint-order="stroke" stroke-miterlimit="2" dy="0.5em">439</text>
<text dominant-baseline="central" text-anchor="middle" style="font-size:13px;font-family:Lato, 'Helvetica Neue', Helvetica, Arial, sans-serif;font-weight:700;" transform="translate(312.5559 135.0548)" fill="none" stroke="#FFFFFF" stroke-width="3" paint-order="stroke" stroke-miterlimit="2" dy="0.5em">294</text><text dominant-baseline="central" text-anchor="middle" style="font-size:13px;font-family:Lato, 'Helvetica Neue', Helvetica, Arial, sans-serif;font-weight:700;" transform="translate(312.5559 135.0548)" fill="#303D46" stroke="none" stroke-width="3" paint-order="stroke" stroke-miterlimit="2" dy="0.5em">294</text>
<text dominant-baseline="central" text-anchor="middle" style="font-size:13px;font-family:Lato, 'Helvetica Neue', Helvetica, Arial, sans-serif;font-weight:700;" transform="translate(366.4697 101.3667)" fill="none" stroke="#FFFFFF" stroke-width="3" paint-order="stroke" stroke-miterlimit="2" dy="0.5em">411</text><text dominant-baseline="central" text-anchor="middle" style="font-size:13px;font-family:Lato, 'Helvetica Neue', Helvetica, Arial, sans-serif;font-weight:700;" transform="translate(366.4697 101.3667)" fill="#303D46" stroke="none" stroke-width="3" paint-order="stroke" stroke-miterlimit="2" dy="0.5em">411</text>
<text dominant-baseline="central" text-anchor="middle" style="font-size:13px;font-family:Lato, 'Helvetica Neue', Helvetica, Arial, sans-serif;font-weight:700;" transform="translate(420.3836 73.4227)" fill="none" stroke="#FFFFFF" stroke-width="3" paint-order="stroke" stroke-miterlimit="2" dy="0.5em">138</text><text dominant-baseline="central" text-anchor="middle" style="font-size:13px;font-family:Lato, 'Helvetica Neue', Helvetica, Arial, sans-serif;font-weight:700;" transform="translate(420.3836 73.4227)" fill="#303D46" stroke="none" stroke-width="3" paint-order="stroke" stroke-miterlimit="2" dy="0.5em">138</text>
<text dominant-baseline="central" text-anchor="middle" style="font-size:13px;font-family:Lato, 'Helvetica Neue', Helvetica, Arial, sans-serif;font-weight:700;" transform="translate(474.2975 49.1983)" fill="none" stroke="#FFFFFF" stroke-width="3" paint-order="stroke" stroke-miterlimit="2" dy="0.5em">295</text><text dominant-baseline="central" text-anchor="middle" style="font-size:13px;font-family:Lato, 'Helvetica Neue', Helvetica, Arial, sans-serif;font-weight:700;" transform="translate(474.2975 49.1983)" fill="#303D46" stroke="none" stroke-width="3" paint-order="stroke" stroke-miterlimit="2" dy="0.5em">295</text>
<defs >
<clipPath id="zr0-c0">
<path d="M83 29l446 0l0 282.5l-446 0Z" fill="#000" class="zr0-cls-1"></path>
</clipPath>
</defs>
<style ><![CDATA[
.zr0-cls-0:hover {
pointer-events:none;
}
.zr0-cls-1:hover {
cursor:pointer;
fill:rgba(0,0,0,1);
}
.zr0-cls-2:hover {
cursor:pointer;
fill:rgba(149,210,84,1);
}
.zr0-cls-3:hover {
cursor:pointer;
fill:rgba(52,67,77,1);
}

]]>

</style>
</svg></g></svg>