<svg xmlns="http://www.w3.org/2000/svg" width="1376" height="764" data-testid="treemap-root"><g class="visx-group" transform="translate(0, 0)"><svg width="965" height="764" xmlns="http://www.w3.org/2000/svg" xmlns:xlink="http://www.w3.org/1999/xlink" version="1.1" baseProfile="full" viewBox="0 0 965 764">
<rect width="965" height="764" x="0" y="0" fill="none"></rect>
<path d="M0 0l965 0l0 764l-965 0Z" fill="none" pointer-events="visible" ecmeta_series_index="0" ecmeta_data_index="0" ecmeta_ssr_type="chart" class="zr0-cls-25"></path>
<path d="M0 0l868.9 0l0 451.3l-868.9 0Z" fill="rgb(250, 220, 197)" ecmeta_series_index="0" ecmeta_data_index="1" ecmeta_ssr_type="chart" class="zr0-cls-26"></path>
<path d="M0 0l868.9 0l0 310.7l-868.9 0Z" transform="translate(0 453.3355)" fill="rgb(249, 209, 209)" ecmeta_series_index="0" ecmeta_data_index="8" ecmeta_ssr_type="chart" class="zr0-cls-27"></path>
<path d="M0 0l94.1 0l0 348.3l-94.1 0Z" transform="translate(870.8541 0)" fill="rgb(221, 208, 232)" ecmeta_series_index="0" ecmeta_data_index="14" ecmeta_ssr_type="chart" class="zr0-cls-28"></path>
<path d="M0 0l94.1 0l0 342.8l-94.1 0Z" transform="translate(870.8541 350.3253)" fill="rgb(185, 216, 244)" ecmeta_series_index="0" ecmeta_data_index="18" ecmeta_ssr_type="chart" class="zr0-cls-29"></path>
<path d="M0 0l94.1 0l0 68.8l-94.1 0Z" transform="translate(870.8541 695.1669)" fill="rgb(253, 238, 190)" ecmeta_series_index="0" ecmeta_data_index="21" ecmeta_ssr_type="chart" class="zr0-cls-30"></path>
<path d="M0 -16l868.9 0l0 32l-868.9 0Z" transform="translate(0 16)" fill="rgb(250, 220, 197)" class="zr0-cls-26"></path>
<text dominant-baseline="central" text-anchor="start" style="font-size:12px;font-family:Lato, 'Helvetica Neue', Helvetica, Arial, sans-serif;font-weight:700;" xml:space="preserve" x="12" transform="translate(0 16)" fill="#303D46" dy="0.5em">Plant Milks</text>
<text dominant-baseline="central" text-anchor="start" style="font-size:12px;font-family:Lato, 'Helvetica Neue', Helvetica, Arial, sans-serif;font-weight:700;" x="746.5782178305208" transform="translate(0 16)" fill="#303D46" dy="0.5em">11,743,420</text>
<text dominant-baseline="central" text-anchor="start" style="font-size:12px;font-family:Lato, 'Helvetica Neue', Helvetica, Arial, sans-serif;font-weight:400;" x="817.0665584555207" transform="translate(0 16)" fill="#656F76" dy="0.5em">53.30%</text>
<path d="M0 0l524.1 0l0 419.3l-524.1 0Z" transform="translate(0 32)" fill="#fff" ecmeta_series_index="0" ecmeta_data_index="2" ecmeta_ssr_type="chart" class="zr0-cls-31"></path>
<path d="M0 0l343.7 0l0 282.5l-343.7 0Z" transform="translate(525.1042 32)" fill="#fff" ecmeta_series_index="0" ecmeta_data_index="3" ecmeta_ssr_type="chart" class="zr0-cls-31"></path>
<path d="M0 0l151 0l0 135.8l-151 0Z" transform="translate(525.1042 315.5254)" fill="#fff" ecmeta_series_index="0" ecmeta_data_index="4" ecmeta_ssr_type="chart" class="zr0-cls-31"></path>
<path d="M0 0l107.5 0l0 135.8l-107.5 0Z" transform="translate(677.1114 315.5254)" fill="#fff" ecmeta_series_index="0" ecmeta_data_index="5" ecmeta_ssr_type="chart" class="zr0-cls-31"></path>
<path d="M0 0l83.2 0l0 91.4l-83.2 0Z" transform="translate(785.6503 315.5254)" fill="#fff" ecmeta_series_index="0" ecmeta_data_index="6" ecmeta_ssr_type="chart" class="zr0-cls-31"></path>
<path d="M0 0l83.2 0l0 43.4l-83.2 0Z" transform="translate(785.6503 407.9647)" fill="#fff" ecmeta_series_index="0" ecmeta_data_index="7" ecmeta_ssr_type="chart" class="zr0-cls-31"></path>
<path d="M0 0l573.5 0l0 278.7l-573.5 0Z" transform="translate(0 485.3355)" fill="#fff" ecmeta_series_index="0" ecmeta_data_index="9" ecmeta_ssr_type="chart" class="zr0-cls-31"></path>
<path d="M0 0l246 0l0 181.4l-246 0Z" transform="translate(574.5118 485.3355)" fill="#fff" ecmeta_series_index="0" ecmeta_data_index="10" ecmeta_ssr_type="chart" class="zr0-cls-31"></path>
<path d="M0 0l246 0l0 96.3l-246 0Z" transform="translate(574.5118 667.7254)" fill="#fff" ecmeta_series_index="0" ecmeta_data_index="11" ecmeta_ssr_type="chart" class="zr0-cls-31"></path>
<path d="M0 0l47.3 0l0 185.4l-47.3 0Z" transform="translate(821.5253 485.3355)" fill="#fff" ecmeta_series_index="0" ecmeta_data_index="12" ecmeta_ssr_type="chart" class="zr0-cls-31"></path>
<path d="M0 0l47.3 0l0 92.2l-47.3 0Z" transform="translate(821.5253 671.7785)" fill="#fff" ecmeta_series_index="0" ecmeta_data_index="13" ecmeta_ssr_type="chart" class="zr0-cls-31"></path>
<path d="M0 0l94.1 0l0 126.3l-94.1 0Z" transform="translate(870.8541 32)" fill="#fff" ecmeta_series_index="0" ecmeta_data_index="15" ecmeta_ssr_type="chart" class="zr0-cls-31"></path>
<path d="M0 0l94.1 0l0 109.9l-94.1 0Z" transform="translate(870.8541 159.2945)" fill="#fff" ecmeta_series_index="0" ecmeta_data_index="16" ecmeta_ssr_type="chart" class="zr0-cls-31"></path>
<path d="M0 0l94.1 0l0 78.2l-94.1 0Z" transform="translate(870.8541 270.1458)" fill="#fff" ecmeta_series_index="0" ecmeta_data_index="17" ecmeta_ssr_type="chart" class="zr0-cls-31"></path>
<path d="M0 0l94.1 0l0 247.6l-94.1 0Z" transform="translate(870.8541 382.3253)" fill="#fff" ecmeta_series_index="0" ecmeta_data_index="19" ecmeta_ssr_type="chart" class="zr0-cls-31"></path>
<path d="M0 0l94.1 0l0 62.2l-94.1 0Z" transform="translate(870.8541 630.9281)" fill="#fff" ecmeta_series_index="0" ecmeta_data_index="20" ecmeta_ssr_type="chart" class="zr0-cls-31"></path>
<path d="M0 0l69.5 0l0 36.8l-69.5 0Z" transform="translate(870.8541 727.1669)" fill="#fff" ecmeta_series_index="0" ecmeta_data_index="22" ecmeta_ssr_type="chart" class="zr0-cls-31"></path>
<path d="M0 0l23.7 0l0 36.8l-23.7 0Z" transform="translate(941.3047 727.1669)" fill="#fff" ecmeta_series_index="0" ecmeta_data_index="23" ecmeta_ssr_type="chart" class="zr0-cls-31"></path>
<path d="M0 0l524.1 0l0 419.3l-524.1 0Z" transform="translate(0 32)" fill="rgb(234, 114, 21)" ecmeta_series_index="0" ecmeta_data_index="2" ecmeta_ssr_type="chart" class="zr0-cls-32"></path>
<path d="M0 0l343.7 0l0 282.5l-343.7 0Z" transform="translate(525.1042 32)" fill="rgb(181, 88, 16)" ecmeta_series_index="0" ecmeta_data_index="3" ecmeta_ssr_type="chart" class="zr0-cls-33"></path>
<path d="M0 0l151 0l0 135.8l-151 0Z" transform="translate(525.1042 315.5254)" fill="rgb(148, 72, 13)" ecmeta_series_index="0" ecmeta_data_index="4" ecmeta_ssr_type="chart" class="zr0-cls-34"></path>
<path d="M0 0l107.5 0l0 135.8l-107.5 0Z" transform="translate(677.1114 315.5254)" fill="rgb(145, 71, 13)" ecmeta_series_index="0" ecmeta_data_index="5" ecmeta_ssr_type="chart" class="zr0-cls-35"></path>
<path d="M0 0l83.2 0l0 91.4l-83.2 0Z" transform="translate(785.6503 315.5254)" fill="rgb(142, 69, 13)" ecmeta_series_index="0" ecmeta_data_index="6" ecmeta_ssr_type="chart" class="zr0-cls-36"></path>
<path d="M0 0l83.2 0l0 43.4l-83.2 0Z" transform="translate(785.6503 407.9647)" fill="rgb(140, 68, 13)" ecmeta_series_index="0" ecmeta_data_index="7" ecmeta_ssr_type="chart" class="zr0-cls-37"></path>
<path d="M0 0l573.5 0l0 278.7l-573.5 0Z" transform="translate(0 485.3355)" fill="rgb(224, 31, 31)" ecmeta_series_index="0" ecmeta_data_index="9" ecmeta_ssr_type="chart" class="zr0-cls-38"></path>
<path d="M0 0l246 0l0 181.4l-246 0Z" transform="translate(574.5118 485.3355)" fill="rgb(158, 22, 22)" ecmeta_series_index="0" ecmeta_data_index="10" ecmeta_ssr_type="chart" class="zr0-cls-39"></path>
<path d="M0 0l246 0l0 96.3l-246 0Z" transform="translate(574.5118 667.7254)" fill="rgb(146, 20, 20)" ecmeta_series_index="0" ecmeta_data_index="11" ecmeta_ssr_type="chart" class="zr0-cls-40"></path>
<path d="M0 0l47.3 0l0 185.4l-47.3 0Z" transform="translate(821.5253 485.3355)" fill="rgb(137, 19, 19)" ecmeta_series_index="0" ecmeta_data_index="12" ecmeta_ssr_type="chart" class="zr0-cls-41"></path>
<path d="M0 0l47.3 0l0 92.2l-47.3 0Z" transform="translate(821.5253 671.7785)" fill="rgb(134, 19, 19)" ecmeta_series_index="0" ecmeta_data_index="13" ecmeta_ssr_type="chart" class="zr0-cls-42"></path>
<path d="M0 0l94.1 0l0 126.3l-94.1 0Z" transform="translate(870.8541 32)" fill="rgb(130, 84, 171)" ecmeta_series_index="0" ecmeta_data_index="15" ecmeta_ssr_type="chart" class="zr0-cls-43"></path>
<path d="M0 0l94.1 0l0 109.9l-94.1 0Z" transform="translate(870.8541 159.2945)" fill="rgb(113, 73, 148)" ecmeta_series_index="0" ecmeta_data_index="16" ecmeta_ssr_type="chart" class="zr0-cls-44"></path>
<path d="M0 0l94.1 0l0 78.2l-94.1 0Z" transform="translate(870.8541 270.1458)" fill="rgb(78, 50, 103)" ecmeta_series_index="0" ecmeta_data_index="17" ecmeta_ssr_type="chart" class="zr0-cls-45"></path>
<path d="M0 0l94.1 0l0 247.6l-94.1 0Z" transform="translate(870.8541 382.3253)" fill="rgb(35, 133, 220)" ecmeta_series_index="0" ecmeta_data_index="19" ecmeta_ssr_type="chart" class="zr0-cls-46"></path>
<path d="M0 0l94.1 0l0 62.2l-94.1 0Z" transform="translate(870.8541 630.9281)" fill="rgb(21, 80, 132)" ecmeta_series_index="0" ecmeta_data_index="20" ecmeta_ssr_type="chart" class="zr0-cls-47"></path>
<path d="M0 0l69.5 0l0 36.8l-69.5 0Z" transform="translate(870.8541 727.1669)" fill="rgb(246, 190, 9)" ecmeta_series_index="0" ecmeta_data_index="22" ecmeta_ssr_type="chart" class="zr0-cls-48"></path>
<path d="M0 0l23.7 0l0 36.8l-23.7 0Z" transform="translate(941.3047 727.1669)" fill="rgb(148, 114, 5)" ecmeta_series_index="0" ecmeta_data_index="23" ecmeta_ssr_type="chart" class="zr0-cls-49"></path>
<text dominant-baseline="central" text-anchor="start" style="font-size:12px;font-family:Lato, 'Helvetica Neue', Helvetica, Arial, sans-serif;font-weight:700;" xml:space="preserve" x="5" y="13" transform="translate(12 44)" fill="hsla(0, 0%, 100%, 0.95)" dy="0.5em">Oat Milk</text>
<text dominant-baseline="central" text-anchor="start" style="font-size:20px;font-family:Lato, 'Helvetica Neue', Helvetica, Arial, sans-serif;font-weight:700;" x="5" y="49" transform="translate(12 44)" fill="hsla(0, 0%, 100%, 0.95)" dy="0.5em">7,089,142.4</text>
<path d="M5 57l39.8 0l0 24l-39.8 0Z" transform="translate(12 44)" fill="none" pointer-events="visible" class="zr0-cls-50"></path>
<text dominant-baseline="central" text-anchor="start" style="font-size:12px;font-family:Lato, 'Helvetica Neue', Helvetica, Arial, sans-serif;font-weight:400;" x="5" y="73" transform="translate(12 44)" fill="hsla(0, 0%, 100%, 0.95)" dy="0.5em">32.17%</text>
<text dominant-baseline="central" text-anchor="start" style="font-size:12px;font-family:Lato, 'Helvetica Neue', Helvetica, Arial, sans-serif;font-weight:700;" xml:space="preserve" x="5" y="13" transform="translate(537.1042 44)" fill="hsla(0, 0%, 100%, 0.95)" dy="0.5em">Soy Milk</text>
<text dominant-baseline="central" text-anchor="start" style="font-size:20px;font-family:Lato, 'Helvetica Neue', Helvetica, Arial, sans-serif;font-weight:700;" x="5" y="49" transform="translate(537.1042 44)" fill="hsla(0, 0%, 100%, 0.95)" dy="0.5em">3,139,411.2</text>
<path d="M5 57l39.8 0l0 24l-39.8 0Z" transform="translate(537.1042 44)" fill="none" pointer-events="visible" class="zr0-cls-50"></path>
<text dominant-baseline="central" text-anchor="start" style="font-size:12px;font-family:Lato, 'Helvetica Neue', Helvetica, Arial, sans-serif;font-weight:400;" x="5" y="73" transform="translate(537.1042 44)" fill="hsla(0, 0%, 100%, 0.95)" dy="0.5em">14.25%</text>
<text dominant-baseline="central" text-anchor="start" style="font-size:12px;font-family:Lato, 'Helvetica Neue', Helvetica, Arial, sans-serif;font-weight:700;" xml:space="preserve" x="5" y="13" transform="translate(537.1042 327.5254)" fill="hsla(0, 0%, 100%, 0.95)" dy="0.5em">Almond Milk</text>
<text dominant-baseline="central" text-anchor="start" style="font-size:20px;font-family:Lato, 'Helvetica Neue', Helvetica, Arial, sans-serif;font-weight:700;" x="5" y="49" transform="translate(537.1042 327.5254)" fill="hsla(0, 0%, 100%, 0.95)" dy="0.5em">667,935.2</text>
<path d="M5 57l32.8 0l0 24l-32.8 0Z" transform="translate(537.1042 327.5254)" fill="none" pointer-events="visible" class="zr0-cls-50"></path>
<text dominant-baseline="central" text-anchor="start" style="font-size:12px;font-family:Lato, 'Helvetica Neue', Helvetica, Arial, sans-serif;font-weight:400;" x="5" y="73" transform="translate(537.1042 327.5254)" fill="hsla(0, 0%, 100%, 0.95)" dy="0.5em">3.03%</text>
<text dominant-baseline="central" text-anchor="start" style="font: normal 700 12px Lato, 'Helvetica Neue', Helvetica, Arial, sans-serif" xml:space="preserve" x="5" y="11.1755" transform="translate(689.1114 327.5254)" fill="hsla(0, 0%, 100%, 0.95)" dy="0.5em">Organic Uns…</text>
<path d="M0 -16l868.9 0l0 32l-868.9 0Z" transform="translate(0 469.3355)" fill="rgb(249, 209, 209)" class="zr0-cls-27"></path>
<text dominant-baseline="central" text-anchor="start" style="font-size:12px;font-family:Lato, 'Helvetica Neue', Helvetica, Arial, sans-serif;font-weight:700;" xml:space="preserve" x="12" transform="translate(0 469.3355)" fill="#303D46" dy="0.5em">Meat Alternatives</text>
<text dominant-baseline="central" text-anchor="start" style="font-size:12px;font-family:Lato, 'Helvetica Neue', Helvetica, Arial, sans-serif;font-weight:700;" x="743.9729287680208" transform="translate(0 469.3355)" fill="#303D46" dy="0.5em">8,099,411.1</text>
<text dominant-baseline="central" text-anchor="start" style="font-size:12px;font-family:Lato, 'Helvetica Neue', Helvetica, Arial, sans-serif;font-weight:400;" x="817.0665584555207" transform="translate(0 469.3355)" fill="#656F76" dy="0.5em">36.76%</text>
<text dominant-baseline="central" text-anchor="start" style="font-size:12px;font-family:Lato, 'Helvetica Neue', Helvetica, Arial, sans-serif;font-weight:700;" x="5" y="13" transform="translate(12 497.3355)" fill="hsla(0, 0%, 100%, 0.95)" dy="0.5em">Seitan</text>
<text dominant-baseline="central" text-anchor="start" style="font-size:20px;font-family:Lato, 'Helvetica Neue', Helvetica, Arial, sans-serif;font-weight:700;" x="5" y="49" transform="translate(12 497.3355)" fill="hsla(0, 0%, 100%, 0.95)" dy="0.5em">5,349,411.1</text>
<path d="M5 57l39.8 0l0 24l-39.8 0Z" transform="translate(12 497.3355)" fill="none" pointer-events="visible" class="zr0-cls-50"></path>
<text dominant-baseline="central" text-anchor="start" style="font-size:12px;font-family:Lato, 'Helvetica Neue', Helvetica, Arial, sans-serif;font-weight:400;" x="5" y="73" transform="translate(12 497.3355)" fill="hsla(0, 0%, 100%, 0.95)" dy="0.5em">24.28%</text>
<text dominant-baseline="central" text-anchor="start" style="font-size:12px;font-family:Lato, 'Helvetica Neue', Helvetica, Arial, sans-serif;font-weight:700;" x="5" y="13" transform="translate(586.5118 497.3355)" fill="hsla(0, 0%, 100%, 0.95)" dy="0.5em">Tempeh</text>
<text dominant-baseline="central" text-anchor="start" style="font-size:20px;font-family:Lato, 'Helvetica Neue', Helvetica, Arial, sans-serif;font-weight:700;" x="5" y="49" transform="translate(586.5118 497.3355)" fill="hsla(0, 0%, 100%, 0.95)" dy="0.5em">1,500,000</text>
<path d="M5 57l32.8 0l0 24l-32.8 0Z" transform="translate(586.5118 497.3355)" fill="none" pointer-events="visible" class="zr0-cls-50"></path>
<text dominant-baseline="central" text-anchor="start" style="font-size:12px;font-family:Lato, 'Helvetica Neue', Helvetica, Arial, sans-serif;font-weight:400;" x="5" y="73" transform="translate(586.5118 497.3355)" fill="hsla(0, 0%, 100%, 0.95)" dy="0.5em">6.81%</text>
<text dominant-baseline="central" text-anchor="start" style="font: normal 700 12px Lato, 'Helvetica Neue', Helvetica, Arial, sans-serif" x="5" y="11.1755" transform="translate(586.5118 679.7254)" fill="hsla(0, 0%, 100%, 0.95)" dy="0.5em">Tofu</text>
<path d="M0 -16l94.1 0l0 32l-94.1 0Z" transform="translate(870.8541 16)" fill="rgb(221, 208, 232)" class="zr0-cls-28"></path>
<text dominant-baseline="central" text-anchor="start" style="font-size:12px;font-family:Lato, 'Helvetica Neue', Helvetica, Arial, sans-serif;font-weight:700;" xml:space="preserve" x="12" transform="translate(870.8541 16)" fill="#303D46" dy="0.5em">Fresh Prod...</text>
<path d="M0 -16l94.1 0l0 32l-94.1 0Z" transform="translate(870.8541 366.3253)" fill="rgb(185, 216, 244)" class="zr0-cls-29"></path>
<text dominant-baseline="central" text-anchor="start" style="font-size:12px;font-family:Lato, 'Helvetica Neue', Helvetica, Arial, sans-serif;font-weight:700;" xml:space="preserve" x="12" transform="translate(870.8541 366.3253)" fill="#303D46" dy="0.5em">Pantry Sta...</text>
<path d="M0 -16l94.1 0l0 32l-94.1 0Z" transform="translate(870.8541 711.1669)" fill="rgb(253, 238, 190)" class="zr0-cls-30"></path>
<text dominant-baseline="central" text-anchor="start" style="font-size:12px;font-family:Lato, 'Helvetica Neue', Helvetica, Arial, sans-serif;font-weight:700;" x="12" transform="translate(870.8541 711.1669)" fill="#303D46" dy="0.5em">Snacks</text>
<style ><![CDATA[
.zr0-cls-25:hover {
cursor:pointer;
fill:rgba(0,0,0,0);
}
.zr0-cls-26:hover {
cursor:pointer;
fill:rgba(255,242,216,1);
}
.zr0-cls-27:hover {
cursor:pointer;
fill:rgba(255,229,229,1);
}
.zr0-cls-28:hover {
cursor:pointer;
fill:rgba(243,228,255,1);
}
.zr0-cls-29:hover {
cursor:pointer;
fill:rgba(203,237,255,1);
}
.zr0-cls-30:hover {
cursor:pointer;
fill:rgba(255,255,209,1);
}
.zr0-cls-31:hover {
cursor:pointer;
fill:rgba(255,255,255,1);
}
.zr0-cls-32:hover {
cursor:pointer;
fill:rgba(255,125,23,1);
}
.zr0-cls-33:hover {
cursor:pointer;
fill:rgba(199,96,17,1);
}
.zr0-cls-34:hover {
cursor:pointer;
fill:rgba(162,79,14,1);
}
.zr0-cls-35:hover {
cursor:pointer;
fill:rgba(159,78,14,1);
}
.zr0-cls-36:hover {
cursor:pointer;
fill:rgba(156,75,14,1);
}
.zr0-cls-37:hover {
cursor:pointer;
fill:rgba(154,74,14,1);
}
.zr0-cls-38:hover {
cursor:pointer;
fill:rgba(246,34,34,1);
}
.zr0-cls-39:hover {
cursor:pointer;
fill:rgba(173,24,24,1);
}
.zr0-cls-40:hover {
cursor:pointer;
fill:rgba(160,22,22,1);
}
.zr0-cls-41:hover {
cursor:pointer;
fill:rgba(150,20,20,1);
}
.zr0-cls-42:hover {
cursor:pointer;
fill:rgba(147,20,20,1);
}
.zr0-cls-43:hover {
cursor:pointer;
fill:rgba(143,92,188,1);
}
.zr0-cls-44:hover {
cursor:pointer;
fill:rgba(124,80,162,1);
}
.zr0-cls-45:hover {
cursor:pointer;
fill:rgba(85,55,113,1);
}
.zr0-cls-46:hover {
cursor:pointer;
fill:rgba(38,146,242,1);
}
.zr0-cls-47:hover {
cursor:pointer;
fill:rgba(23,88,145,1);
}
.zr0-cls-48:hover {
cursor:pointer;
fill:rgba(255,209,9,1);
}
.zr0-cls-49:hover {
cursor:pointer;
fill:rgba(162,125,5,1);
}
.zr0-cls-50:hover {
cursor:pointer;
}

]]>

</style>
</svg></g><g class="visx-group" transform="translate(1013, 0)"><g class="visx-group" transform="translate(0, 0)"><circle data-testid="legend-dot" cx="6" cy="8" r="6" fill="#F2A86F"></circle><svg x="0" y="0" font-size="14" style="overflow:visible"><text transform="" font-family="Lato" font-size="14" fill="#303D46" data-testid="legend-name" x="18" y="8" font-weight="700" text-anchor="start"><tspan x="18" dy="0.355em">Plant Milks</tspan></text></svg><svg x="0" y="0" font-size="14" style="overflow:visible"><text transform="" font-family="Lato" font-size="14" fill="#303D46" x="303" y="8" font-weight="700" text-anchor="end"><tspan x="303" dy="0.355em">11,743,420</tspan></text></svg><svg x="0" y="0" font-size="14" style="overflow:visible"><text transform="" font-family="Lato" font-size="14" fill="#656F76" x="363" y="8" font-weight="700" text-anchor="end"><tspan x="363" dy="0.355em">53.30%</tspan></text></svg></g><g class="visx-group" transform="translate(0, 40)"><circle data-testid="legend-dot" cx="6" cy="8" r="6" fill="#EF8C8C"></circle><svg x="0" y="0" font-size="14" style="overflow:visible"><text transform="" font-family="Lato" font-size="14" fill="#303D46" data-testid="legend-name" x="18" y="8" font-weight="700" text-anchor="start"><tspan x="18" dy="0.355em">Meat Alternatives</tspan></text></svg><svg x="0" y="0" font-size="14" style="overflow:visible"><text transform="" font-family="Lato" font-size="14" fill="#303D46" x="303" y="8" font-weight="700" text-anchor="end"><tspan x="303" dy="0.355em">8,099,411.1</tspan></text></svg><svg x="0" y="0" font-size="14" style="overflow:visible"><text transform="" font-family="Lato" font-size="14" fill="#656F76" x="363" y="8" font-weight="700" text-anchor="end"><tspan x="363" dy="0.355em">36.76%</tspan></text></svg></g><g class="visx-group" transform="translate(0, 80)"><circle data-testid="legend-dot" cx="6" cy="8" r="6" fill="#A989C5"></circle><svg x="0" y="0" font-size="14" style="overflow:visible"><text transform="" font-family="Lato" font-size="14" fill="#303D46" data-testid="legend-name" x="18" y="8" font-weight="700" text-anchor="start"><tspan x="18" dy="0.355em">Fresh Produce</tspan></text></svg><svg x="0" y="0" font-size="14" style="overflow:visible"><text transform="" font-family="Lato" font-size="14" fill="#303D46" x="303" y="8" font-weight="700" text-anchor="end"><tspan x="303" dy="0.355em">1,001,917.6</tspan></text></svg><svg x="0" y="0" font-size="14" style="overflow:visible"><text transform="" font-family="Lato" font-size="14" fill="#656F76" x="363" y="8" font-weight="700" text-anchor="end"><tspan x="363" dy="0.355em">4.55%</tspan></text></svg></g><g class="visx-group" transform="translate(0, 120)"><circle data-testid="legend-dot" cx="6" cy="8" r="6" fill="#509EE3"></circle><svg x="0" y="0" font-size="14" style="overflow:visible"><text transform="" font-family="Lato" font-size="14" fill="#303D46" data-testid="legend-name" x="18" y="8" font-weight="700" text-anchor="start"><tspan x="18" dy="0.355em">Pantry Staples</tspan></text></svg><svg x="0" y="0" font-size="14" style="overflow:visible"><text transform="" font-family="Lato" font-size="14" fill="#303D46" x="303" y="8" font-weight="700" text-anchor="end"><tspan x="303" dy="0.355em">986,234.2</tspan></text></svg><svg x="0" y="0" font-size="14" style="overflow:visible"><text transform="" font-family="Lato" font-size="14" fill="#656F76" x="363" y="8" font-weight="700" text-anchor="end"><tspan x="363" dy="0.355em">4.48%</tspan></text></svg></g><g class="visx-group" transform="translate(0, 160)"><circle data-testid="legend-dot" cx="6" cy="8" r="6" fill="#F9D45C"></circle><svg x="0" y="0" font-size="14" style="overflow:visible"><text transform="" font-family="Lato" font-size="14" fill="#303D46" data-testid="legend-name" x="18" y="8" font-weight="700" text-anchor="start"><tspan x="18" dy="0.355em">Snacks</tspan></text></svg><svg x="0" y="0" font-size="14" style="overflow:visible"><text transform="" font-family="Lato" font-size="14" fill="#303D46" x="303" y="8" font-weight="700" text-anchor="end"><tspan x="303" dy="0.355em">202,580</tspan></text></svg><svg x="0" y="0" font-size="14" style="overflow:visible"><text transform="" font-family="Lato" font-size="14" fill="#656F76" x="363" y="8" font-weight="700" text-anchor="end"><tspan x="363" dy="0.355em">0.92%</tspan></text></svg></g><g class="visx-group" transform="translate(0, 216)"><line data-testid="legend-separator" x1="0" x2="363" y1="-16" y2="-16" stroke="#DCDFE0"></line><svg x="0" y="0" font-size="14" style="overflow:visible"><text transform="" font-family="Lato" font-size="14" fill="#303D46" data-testid="legend-name" x="18" y="8" font-weight="700" text-anchor="start"><tspan x="18" dy="0.355em">Total</tspan></text></svg><svg x="0" y="0" font-size="14" style="overflow:visible"><text transform="" font-family="Lato" font-size="14" fill="#303D46" x="303" y="8" font-weight="700" text-anchor="end"><tspan x="303" dy="0.355em">22,033,562.9</tspan></text></svg><svg x="0" y="0" font-size="14" style="overflow:visible"><text transform="" font-family="Lato" font-size="14" fill="#656F76" x="363" y="8" font-weight="700" text-anchor="end"><tspan x="363" dy="0.355em">100%</tspan></text></svg></g></g></svg>