<svg xmlns="http://www.w3.org/2000/svg" width="540" height="360"><g class="visx-group" transform="translate(0, 0)"></g><g class="visx-group" transform="translate(0, 0)"><g><svg width="540" height="360" xmlns="http://www.w3.org/2000/svg" xmlns:xlink="http://www.w3.org/1999/xlink" version="1.1" baseProfile="full" viewBox="0 0 540 360">
<rect width="540" height="360" x="0" y="0" fill="none"></rect>
<path d="M65.6 311.5L532 311.5" fill="none" pointer-events="visible" stroke="#DCDFE0" class="zr0-cls-0"></path>
<path d="M65.6 268.5L532 268.5" fill="none" pointer-events="visible" stroke="#DCDFE0" class="zr0-cls-0"></path>
<path d="M65.6 226.5L532 226.5" fill="none" pointer-events="visible" stroke="#DCDFE0" class="zr0-cls-0"></path>
<path d="M65.6 183.5L532 183.5" fill="none" pointer-events="visible" stroke="#DCDFE0" class="zr0-cls-0"></path>
<path d="M65.6 140.5L532 140.5" fill="none" pointer-events="visible" stroke="#DCDFE0" class="zr0-cls-0"></path>
<path d="M65.6 97.5L532 97.5" fill="none" pointer-events="visible" stroke="#DCDFE0" class="zr0-cls-0"></path>
<path d="M65.6 55.5L532 55.5" fill="none" pointer-events="visible" stroke="#DCDFE0" class="zr0-cls-0"></path>
<path d="M65.6 12.5L532 12.5" fill="none" pointer-events="visible" stroke="#DCDFE0" class="zr0-cls-0"></path>
<text dominant-baseline="central" text-anchor="middle" style="font-size:13px;font-family:Lato, 'Helvetica Neue', Helvetica, Arial, sans-serif;font-weight:400;" y="-6.5" transform="matrix(0,-1,1,0,21,161.75)" fill="#303D46" dy="0.5em">Y</text>
<text dominant-baseline="central" text-anchor="middle" style="font-size:13px;font-family:Lato, 'Helvetica Neue', Helvetica, Arial, sans-serif;font-weight:400;" y="6.5" transform="translate(298.8039 341.5)" fill="#303D46" dy="0.5em">X</text>
<path d="M65.6 311.5L532 311.5" fill="none" pointer-events="visible" stroke="#DCDFE0" stroke-linecap="round" class="zr0-cls-0"></path>
<text dominant-baseline="central" text-anchor="end" style="font-size:13px;font-family:Lato, 'Helvetica Neue', Helvetica, Arial, sans-serif;font-weight:400;" transform="translate(55.6078 311.5)" fill="#303D46" dy="0.5em">0</text>
<text dominant-baseline="central" text-anchor="end" style="font-size:13px;font-family:Lato, 'Helvetica Neue', Helvetica, Arial, sans-serif;font-weight:400;" transform="translate(55.6078 268.7143)" fill="#303D46" dy="0.5em">50</text>
<text dominant-baseline="central" text-anchor="end" style="font-size:13px;font-family:Lato, 'Helvetica Neue', Helvetica, Arial, sans-serif;font-weight:400;" transform="translate(55.6078 225.9286)" fill="#303D46" dy="0.5em">100</text>
<text dominant-baseline="central" text-anchor="end" style="font-size:13px;font-family:Lato, 'Helvetica Neue', Helvetica, Arial, sans-serif;font-weight:400;" transform="translate(55.6078 183.1429)" fill="#303D46" dy="0.5em">150</text>
<text dominant-baseline="central" text-anchor="end" style="font-size:13px;font-family:Lato, 'Helvetica Neue', Helvetica, Arial, sans-serif;font-weight:400;" transform="translate(55.6078 140.3571)" fill="#303D46" dy="0.5em">200</text>
<text dominant-baseline="central" text-anchor="end" style="font-size:13px;font-family:Lato, 'Helvetica Neue', Helvetica, Arial, sans-serif;font-weight:400;" transform="translate(55.6078 97.5714)" fill="#303D46" dy="0.5em">250</text>
<text dominant-baseline="central" text-anchor="end" style="font-size:13px;font-family:Lato, 'Helvetica Neue', Helvetica, Arial, sans-serif;font-weight:400;" transform="translate(55.6078 54.7857)" fill="#303D46" dy="0.5em">300</text>
<text dominant-baseline="central" text-anchor="end" style="font-size:13px;font-family:Lato, 'Helvetica Neue', Helvetica, Arial, sans-serif;font-weight:400;" transform="translate(55.6078 12)" fill="#303D46" dy="0.5em">350</text>
<text dominant-baseline="central" text-anchor="middle" style="font-size:13px;font-family:Lato, 'Helvetica Neue', Helvetica, Arial, sans-serif;font-weight:400;" xml:space="preserve" y="6.5" transform="translate(73.381 316.5)" fill="#303D46" dy="0.5em"> 0 </text>
<text dominant-baseline="central" text-anchor="middle" style="font-size:13px;font-family:Lato, 'Helvetica Neue', Helvetica, Arial, sans-serif;font-weight:400;" xml:space="preserve" y="6.5" transform="translate(151.113 316.5)" fill="#303D46" dy="0.5em"> 5 </text>
<text dominant-baseline="central" text-anchor="middle" style="font-size:13px;font-family:Lato, 'Helvetica Neue', Helvetica, Arial, sans-serif;font-weight:400;" xml:space="preserve" y="6.5" transform="translate(228.8451 316.5)" fill="#303D46" dy="0.5em"> 10 </text>
<text dominant-baseline="central" text-anchor="middle" style="font-size:13px;font-family:Lato, 'Helvetica Neue', Helvetica, Arial, sans-serif;font-weight:400;" xml:space="preserve" y="6.5" transform="translate(306.5771 316.5)" fill="#303D46" dy="0.5em"> 15 </text>
<text dominant-baseline="central" text-anchor="middle" style="font-size:13px;font-family:Lato, 'Helvetica Neue', Helvetica, Arial, sans-serif;font-weight:400;" xml:space="preserve" y="6.5" transform="translate(384.3091 316.5)" fill="#303D46" dy="0.5em"> 20 </text>
<text dominant-baseline="central" text-anchor="middle" style="font-size:13px;font-family:Lato, 'Helvetica Neue', Helvetica, Arial, sans-serif;font-weight:400;" xml:space="preserve" y="6.5" transform="translate(462.0412 316.5)" fill="#303D46" dy="0.5em"> 25 </text>
<g clip-path="url(#zr0-c0)">
<path d="M73.4 307.2L88.9 289.3L120 288.4L166.7 269.6L197.8 249.9L228.8 226.8L275.5 230.2L291 217.4L415.4 119L477.6 77.9L524.2 53.9" fill="none" pointer-events="visible" stroke="#88BF4D" stroke-width="2" stroke-linejoin="bevel" class="zr0-cls-2"></path>
</g>
<path d="M1 0A1 1 0 1 1 1 -0.1A1 1 0 0 1 1 0" transform="matrix(3,0,0,3,73.381,307.2214)" fill="#FFFFFF" stroke="#88BF4D" stroke-width="0.6666666666666666" ecmeta_series_index="0" ecmeta_data_index="0" ecmeta_ssr_type="chart" class="zr0-cls-3"></path>
<path d="M1 0A1 1 0 1 1 1 -0.1A1 1 0 0 1 1 0" transform="matrix(3,0,0,3,88.9274,289.2514)" fill="#FFFFFF" stroke="#88BF4D" stroke-width="0.6666666666666666" ecmeta_series_index="0" ecmeta_data_index="1" ecmeta_ssr_type="chart" class="zr0-cls-3"></path>
<path d="M1 0A1 1 0 1 1 1 -0.1A1 1 0 0 1 1 0" transform="matrix(3,0,0,3,120.0202,288.3957)" fill="#FFFFFF" stroke="#88BF4D" stroke-width="0.6666666666666666" ecmeta_series_index="0" ecmeta_data_index="2" ecmeta_ssr_type="chart" class="zr0-cls-3"></path>
<path d="M1 0A1 1 0 1 1 1 -0.1A1 1 0 0 1 1 0" transform="matrix(3,0,0,3,166.6595,269.57)" fill="#FFFFFF" stroke="#88BF4D" stroke-width="0.6666666666666666" ecmeta_series_index="0" ecmeta_data_index="3" ecmeta_ssr_type="chart" class="zr0-cls-3"></path>
<path d="M1 0A1 1 0 1 1 1 -0.1A1 1 0 0 1 1 0" transform="matrix(3,0,0,3,197.7523,249.8886)" fill="#FFFFFF" stroke="#88BF4D" stroke-width="0.6666666666666666" ecmeta_series_index="0" ecmeta_data_index="4" ecmeta_ssr_type="chart" class="zr0-cls-3"></path>
<path d="M1 0A1 1 0 1 1 1 -0.1A1 1 0 0 1 1 0" transform="matrix(3,0,0,3,228.8451,226.7843)" fill="#FFFFFF" stroke="#88BF4D" stroke-width="0.6666666666666666" ecmeta_series_index="0" ecmeta_data_index="5" ecmeta_ssr_type="chart" class="zr0-cls-3"></path>
<path d="M1 0A1 1 0 1 1 1 -0.1A1 1 0 0 1 1 0" transform="matrix(3,0,0,3,275.4843,230.2071)" fill="#FFFFFF" stroke="#88BF4D" stroke-width="0.6666666666666666" ecmeta_series_index="0" ecmeta_data_index="6" ecmeta_ssr_type="chart" class="zr0-cls-3"></path>
<path d="M1 0A1 1 0 1 1 1 -0.1A1 1 0 0 1 1 0" transform="matrix(3,0,0,3,291.0307,217.3714)" fill="#FFFFFF" stroke="#88BF4D" stroke-width="0.6666666666666666" ecmeta_series_index="0" ecmeta_data_index="7" ecmeta_ssr_type="chart" class="zr0-cls-3"></path>
<path d="M1 0A1 1 0 1 1 1 -0.1A1 1 0 0 1 1 0" transform="matrix(3,0,0,3,415.4019,118.9643)" fill="#FFFFFF" stroke="#88BF4D" stroke-width="0.6666666666666666" ecmeta_series_index="0" ecmeta_data_index="8" ecmeta_ssr_type="chart" class="zr0-cls-3"></path>
<path d="M1 0A1 1 0 1 1 1 -0.1A1 1 0 0 1 1 0" transform="matrix(3,0,0,3,477.5876,77.89)" fill="#FFFFFF" stroke="#88BF4D" stroke-width="0.6666666666666666" ecmeta_series_index="0" ecmeta_data_index="9" ecmeta_ssr_type="chart" class="zr0-cls-3"></path>
<path d="M1 0A1 1 0 1 1 1 -0.1A1 1 0 0 1 1 0" transform="matrix(3,0,0,3,524.2268,53.93)" fill="#FFFFFF" stroke="#88BF4D" stroke-width="0.6666666666666666" ecmeta_series_index="0" ecmeta_data_index="10" ecmeta_ssr_type="chart" class="zr0-cls-3"></path>
<defs >
<clipPath id="zr0-c0">
<path d="M64 11l470 0l0 301.5l-470 0Z" fill="#000" class="zr0-cls-1"></path>
</clipPath>
</defs>
<style ><![CDATA[
.zr0-cls-0:hover {
pointer-events:none;
}
.zr0-cls-1:hover {
cursor:pointer;
fill:rgba(0,0,0,1);
}
.zr0-cls-2:hover {
cursor:pointer;
}
.zr0-cls-3:hover {
cursor:pointer;
fill:#88BF4D;
}

]]>

</style>
</svg></g></g></svg>