<svg width="16" height="16" viewBox="0 0 16 16" fill="none" xmlns="http://www.w3.org/2000/svg">
<path fill-rule="evenodd" clip-rule="evenodd" d="M14 9.25301L8 8.50586L2 9.25301L8 13.9995L14 9.25301Z" fill="#FCBF92"/>
<path fill-rule="evenodd" clip-rule="evenodd" d="M2 9.25391L8 11.0673V14.0004L2 10.9603V9.25391Z" fill="#9D5025"/>
<path fill-rule="evenodd" clip-rule="evenodd" d="M14 9.25391L8 11.0673V14.0004L14 10.9603V9.25391Z" fill="#F58534"/>
<path fill-rule="evenodd" clip-rule="evenodd" d="M2.77475 6.67578H2V8.40003L2.77475 8.54268L3.6359 7.61913L2.77475 6.67593V6.67578Z" fill="#9D5025"/>
<path fill-rule="evenodd" clip-rule="evenodd" d="M3.63605 8.47128L2.7749 8.54253V6.67578H3.63605V8.47128Z" fill="#F58534"/>
<path fill-rule="evenodd" clip-rule="evenodd" d="M4.21678 4.52554L3.19678 4.71994V8.63194L4.21678 8.84584L5.15038 6.67579L4.21678 4.52539V4.52554Z" fill="#9D5025"/>
<path fill-rule="evenodd" clip-rule="evenodd" d="M5.14976 8.73874L4.21631 8.84569V4.52539L5.14976 4.63234V8.73874Z" fill="#F58534"/>
<path fill-rule="evenodd" clip-rule="evenodd" d="M6.20508 5.39453L4.79688 5.53718V8.96783L6.20508 9.25313L7.69982 7.31483L6.20508 5.39453Z" fill="#9D5025"/>
<path fill-rule="evenodd" clip-rule="evenodd" d="M7.15443 9.09263L6.20508 9.25313V5.39453L7.15443 5.46578V9.09263Z" fill="#F58534"/>
<path fill-rule="evenodd" clip-rule="evenodd" d="M8.00013 2.2832L7.05078 2.58635V9.41375L8.00013 9.608L8.94948 5.9456L8.00013 2.2832Z" fill="#9D5025"/>
<path fill-rule="evenodd" clip-rule="evenodd" d="M8.87891 9.09358L9.79481 9.25408L11.203 6.67573L9.79481 4.11523L8.87891 4.25788V9.09358Z" fill="#9D5025"/>
<path fill-rule="evenodd" clip-rule="evenodd" d="M11.203 6.67573L9.79481 4.11523L8.87891 4.25788" fill="#9D5025"/>
<path fill-rule="evenodd" clip-rule="evenodd" d="M10.8325 8.73887L11.7837 8.84582L12.8037 5.59172L11.7837 2.35547L10.8325 2.58722V8.73887Z" fill="#9D5025"/>
<path fill-rule="evenodd" clip-rule="evenodd" d="M12.3643 8.4707L13.2254 8.54195L14.0002 5.3237L13.2254 2L12.3643 2.2139V8.4707Z" fill="#9D5025"/>
<path fill-rule="evenodd" clip-rule="evenodd" d="M8 2.2835L8.94935 2.58665V9.41405L8 9.6083V2.2835ZM11.203 4.4L9.79475 4.1147V9.25355L11.203 8.96825V4.4ZM12.8036 2.765L11.7836 2.3549V8.84525L12.8036 8.6312V2.765ZM14 2.39045L13.2253 2V8.5421L14 8.39945V2.39045Z" fill="#F58534"/>
</svg>
