<svg width="80" height="80" fill="none" xmlns="http://www.w3.org/2000/svg"><path fill-rule="evenodd" clip-rule="evenodd" d="M37.295 27.227c4.492 0 6.953 1.006 7.401 1.51-.448.506-2.909 1.512-7.4 1.512-4.493 0-6.954-1.006-7.402-1.511.448-.505 2.909-1.511 7.401-1.511Zm-.511 8.055a.507.507 0 0 1 .222-.961.48.48 0 0 1 .222.059l-.444.902Zm5.784 8.309c-.075.06-.246.177-.597.318a7.826 7.826 0 0 1-1.103.337c-1.115.262-2.487.406-3.863.406-3.008 0-5.104-.65-5.556-1.053L30.116 31.15c2.044.836 5.054 1.113 7.18 1.113 2.088 0 5.033-.269 7.076-1.073l-.797 5.475c-1.502-.567-3.376-1.389-5.151-2.253a1.484 1.484 0 0 0-1.418-1.088c-.818 0-1.483.676-1.483 1.505 0 .831.665 1.506 1.483 1.506.194 0 .378-.04.547-.109 2.482 1.225 4.33 2.011 5.722 2.496l-.707 4.868ZM27.872 28.847l1.607 15.003c.113 2.784 7.22 2.817 7.526 2.817 1.522 0 3.052-.164 4.31-.458.515-.12.982-.264 1.386-.426 1.173-.471 1.788-1.114 1.83-1.909l.67-4.598c.455.094.828.135 1.124.135.934 0 1.18-.383 1.35-.647.179-.278.23-.62.147-.963-.19-.79-1.305-1.83-2.05-2.447l.941-6.469-.009-.001c.004-.05.02-.096.02-.146 0-2.784-5.927-3.526-9.429-3.526-3.502 0-9.43.742-9.43 3.526 0 .037.014.07.016.108h-.01Zm8.964-8.787c8.65 0 15.689 7.144 15.689 15.925 0 8.78-7.038 15.925-15.69 15.925s-15.69-7.144-15.69-15.925 7.038-15.925 15.69-15.925Zm-24.85 21.775v2.015h8.932v-.12c2.856 6.02 8.908 10.194 15.918 10.194 9.744 0 17.674-8.047 17.674-17.94 0-9.892-7.93-17.94-17.674-17.94-7.583 0-14.045 4.88-16.55 11.701h-8.3v2.015h7.69a18.153 18.153 0 0 0-.506 4.03H10v2.015h9.252c.14 1.4.454 2.743.893 4.03h-8.16Zm54.094 24.2c-1.201 1.221-3.283 1.228-4.483.011L50.933 55.221a23.992 23.992 0 0 0 4.56-4.545l10.599 10.81c.596.606.925 1.414.923 2.273a3.213 3.213 0 0 1-.935 2.276Zm1.417-5.972L56.662 49.01a24.094 24.094 0 0 0 3.803-13.025c0-13.226-10.6-23.985-23.63-23.985-9.362 0-17.852 5.62-21.631 14.317l1.816.812c3.461-7.966 11.239-13.114 19.816-13.114 11.935 0 21.644 9.855 21.644 21.97 0 12.113-9.71 21.97-21.644 21.97-7.974 0-15.279-4.43-19.067-11.561l-1.747.957c4.134 7.783 12.11 12.618 20.814 12.618a23.22 23.22 0 0 0 12.424-3.596l10.934 11.099A5.069 5.069 0 0 0 63.828 69c1.38 0 2.679-.547 3.653-1.537a5.231 5.231 0 0 0 1.519-3.7 5.224 5.224 0 0 0-1.503-3.7Z" fill="#8C4FFF"/></svg>