<svg width="32" height="32" fill="none" xmlns="http://www.w3.org/2000/svg"><path d="m9.931 24.525-4.4-7.62a1.927 1.927 0 0 1 0-1.927l4.4-7.62a1.927 1.927 0 0 1 1.67-.964h8.798a1.928 1.928 0 0 1 1.67.963l4.399 7.62a1.928 1.928 0 0 1 0 1.928l-4.4 7.62a1.928 1.928 0 0 1-1.669.964H11.6a1.927 1.927 0 0 1-1.669-.964Z" fill="url(#a)"/><path opacity=".07" d="m25.256 19.71-6.47-6.471L16 12.493l-2.503.93-.966 2.519.777 2.803 6.861 6.862 1.456-.065 3.631-5.833Z" fill="#000"/><path d="M16 12.054a3.888 3.888 0 1 0 0 7.775 3.888 3.888 0 0 0 0-7.775Zm0 6.837a2.95 2.95 0 1 1 0-5.9 2.95 2.95 0 0 1 0 5.9" fill="#fff"/><path d="M14.155 15.791V17c.18.307.431.564.734.75V15.79h-.734Zm1.456-1.018v3.253c.125.023.252.037.384.037.12 0 .236-.013.35-.032v-3.258h-.734Zm1.523 1.52v1.435c.308-.195.561-.466.735-.787v-.647h-.735Zm1.664 2.043-.403.403a.182.182 0 0 0 0 .258l1.528 1.527a.182.182 0 0 0 .258 0l.402-.403a.183.183 0 0 0 0-.257l-1.528-1.528a.183.183 0 0 0-.257 0Z" fill="#fff"/><defs><linearGradient id="a" x1="16" y1="6.394" x2="16" y2="25.459" gradientUnits="userSpaceOnUse"><stop stop-color="#4387FD"/><stop offset="1" stop-color="#4683EA"/></linearGradient></defs></svg>
