<svg width="16" height="16" viewBox="0 0 16 16" fill="none" xmlns="http://www.w3.org/2000/svg">
<path d="M4.35016 13.3485L1.44975 8.32479C1.29475 8.05646 1.29475 7.72562 1.44975 7.45729L4.35016 2.43375C4.50495 2.16562 4.79079 2.00042 5.10016 2H10.9037C11.212 2.00146 11.4964 2.16667 11.6506 2.43375L14.5506 7.45729C14.7056 7.72562 14.7056 8.05646 14.5506 8.32479L11.6502 13.3485C11.4954 13.6167 11.2095 13.7819 10.9002 13.7823H5.09808C4.78912 13.7812 4.50433 13.616 4.34954 13.3485H4.35016Z" fill="#4386FA"/>
<path opacity="0.1" d="M9.812 6.27344C9.812 6.27344 10.6182 8.2074 9.51908 9.30365C8.41991 10.3999 6.41846 9.69823 6.41846 9.69823L10.4897 13.7807H10.903C11.2126 13.7803 11.4985 13.6149 11.653 13.347L13.573 10.0224L9.812 6.27344Z" fill="black"/>
<path d="M10.764 10.231L9.87506 9.33999C9.86539 9.33007 9.8543 9.32165 9.84215 9.31499C10.2203 8.82794 10.3985 8.21504 10.3405 7.60117C10.2824 6.9873 9.99254 6.41864 9.52986 6.01106C9.06717 5.60348 8.46649 5.38764 7.85021 5.40751C7.23392 5.42738 6.64839 5.68147 6.21292 6.11801C5.77745 6.55456 5.5248 7.1407 5.50645 7.75704C5.48809 8.37337 5.70541 8.97351 6.11413 9.4352C6.52284 9.89688 7.09221 10.1854 7.70622 10.2419C8.32023 10.2984 8.93269 10.1187 9.41881 9.73937C9.42515 9.75084 9.43308 9.76136 9.44235 9.77062L10.3334 10.6617C10.3596 10.6878 10.395 10.7025 10.432 10.7025C10.469 10.7025 10.5045 10.6878 10.5307 10.6617L10.764 10.4283C10.7902 10.4022 10.8048 10.3667 10.8048 10.3297C10.8048 10.2927 10.7902 10.2572 10.764 10.231ZM7.92506 9.65478C7.56451 9.65482 7.21203 9.54794 6.91223 9.34765C6.61242 9.14737 6.37874 8.86267 6.24074 8.52956C6.10274 8.19646 6.06662 7.82992 6.13695 7.47628C6.20729 7.12265 6.38091 6.79782 6.63586 6.54287C6.89081 6.28792 7.21564 6.1143 7.56927 6.04397C7.9229 5.97364 8.28945 6.00975 8.62255 6.14775C8.95565 6.28575 9.24035 6.51943 9.44064 6.81924C9.64093 7.11905 9.74781 7.47152 9.74777 7.83208C9.74772 8.31547 9.55566 8.77905 9.21385 9.12086C8.87204 9.46268 8.40846 9.65473 7.92506 9.65478ZM6.75985 7.73478V8.48812C6.8759 8.69291 7.04381 8.86374 7.24694 8.98291V7.7302L6.75985 7.73478ZM7.67131 7.1102V9.14603C7.83232 9.17571 7.99739 9.17571 8.1584 9.14603V7.1102H7.67131ZM9.08048 8.48645V8.0402H8.59381V8.9777C8.79665 8.85885 8.96464 8.6887 9.0809 8.48437L9.08048 8.48645Z" fill="white"/>
</svg>
