<svg width="16" height="16" viewBox="0 0 16 16" fill="none" xmlns="http://www.w3.org/2000/svg">
<path d="M13.4571 10.8857V8.77143L13.2286 8.62857L7.74286 11.6286L2.54286 8.77143V7.54286L7.74286 10.3714L13.4857 7.25714V5.17143L13.2571 5.02857L7.74286 8.05714L2.74286 5.31429L7.74286 2.57143L11.7714 4.77143L12.0857 4.6V4.37143L7.74286 2L2 5.11429V5.42857L7.74286 8.57143L12.9429 5.71429V6.97143L7.74286 9.82857L2.22857 6.8L2 6.94286V9.05714L7.74286 12.1714L12.9429 9.34286V10.5714L7.74286 13.4286L2.22857 10.4286L2 10.5714V10.8857L7.74286 14L13.4571 10.8857Z" fill="#FF3621"/>
</svg>
