<svg width="16" height="16" viewBox="0 0 16 16" fill="none" xmlns="http://www.w3.org/2000/svg">
<path d="M8.14284 3.33588C8.9093 3.33588 9.67576 3.33197 10.4419 3.33588C11.9096 3.34502 13.2563 4.28173 13.7687 5.64896C13.9895 6.2393 14.0374 6.85018 13.9745 7.47738C13.8822 8.39843 13.6072 9.25328 13.0863 10.0194C12.2827 11.202 11.15 11.8592 9.74719 12.0781C9.27166 12.1521 8.79449 12.1433 8.31668 12.1433C8.11838 12.1433 8.01238 12.0527 8.00064 11.8886C7.98792 11.7128 8.09848 11.5778 8.29417 11.566C8.51074 11.5527 8.72894 11.5638 8.94648 11.5579C10.2671 11.522 11.4106 11.067 12.3163 10.0902C12.951 9.40527 13.2726 8.57097 13.3815 7.65154C13.4572 7.01359 13.449 6.37954 13.1969 5.77518C12.8101 4.85054 12.117 4.28368 11.1627 4.0208C10.7922 3.91872 10.4125 3.89948 10.0326 3.89719C8.61413 3.88871 7.19504 3.89393 5.77692 3.89361C5.71724 3.89361 5.6569 3.89589 5.59754 3.89067C5.52946 3.88437 5.46591 3.85384 5.41844 3.80464C5.37098 3.75544 5.34275 3.69083 5.3389 3.62257C5.3379 3.55669 5.36029 3.49258 5.40209 3.44164C5.44389 3.39071 5.50239 3.35624 5.56721 3.34436C5.63203 3.33539 5.69752 3.33223 5.7629 3.3349C6.55632 3.3349 7.34996 3.3349 8.14382 3.3349L8.14284 3.33588Z" fill="#00D1FF"/>
<path d="M6.69004 10.1201H4.14604C4.09167 10.1225 4.03719 10.1213 3.98297 10.1165C3.83587 10.0966 3.74325 10.0122 3.72889 9.86343C3.71454 9.71471 3.78434 9.61295 3.92459 9.56076C4.01363 9.52815 4.10691 9.535 4.19888 9.535C5.87237 9.535 7.54619 9.53761 9.21968 9.53206C9.80676 9.5301 10.3136 9.31256 10.7164 8.88204C11.0618 8.51283 11.2428 8.06666 11.2966 7.56438C11.339 7.17039 11.2829 6.80803 11.0383 6.48644C10.7663 6.12767 10.3987 5.94764 9.95679 5.94568C8.3756 5.93883 6.7931 5.94307 5.21322 5.94079C5.04525 5.94079 4.87695 5.92709 4.70964 5.91144C4.56515 5.89806 4.48524 5.81098 4.47546 5.66552C4.4647 5.50701 4.54591 5.39285 4.68974 5.36513C4.73791 5.35828 4.78661 5.35599 4.83521 5.35828C6.5312 5.35828 8.2272 5.35828 9.9232 5.35828C10.778 5.35991 11.5171 5.87686 11.7865 6.68507C11.9776 7.25877 11.9095 7.83704 11.6952 8.39313C11.2836 9.46063 10.3146 10.1172 9.16783 10.1201C8.34201 10.1224 7.51586 10.1201 6.69004 10.1201Z" fill="#00D1FF"/>
<path d="M2.89635 5.91325C2.70066 5.91325 2.50497 5.91586 2.30928 5.91325C2.1462 5.91032 2.02096 5.80301 2.00237 5.65689C1.98378 5.51078 2.07543 5.38521 2.25187 5.34933C2.34824 5.3337 2.44587 5.32726 2.54345 5.33009C2.8096 5.32781 3.07606 5.32715 3.3422 5.33009C3.42348 5.32997 3.50448 5.33938 3.58356 5.35814C3.72739 5.39467 3.80599 5.5173 3.78903 5.66635C3.77207 5.81541 3.68206 5.9051 3.53137 5.90999C3.3197 5.91717 3.10737 5.91195 2.8957 5.91195L2.89635 5.91325Z" fill="#00D1FF"/>
<path d="M6.46619 12.1426C6.28159 12.1426 6.09699 12.1459 5.91173 12.1426C5.73626 12.1387 5.6182 12.0392 5.60026 11.8925C5.59345 11.8153 5.61744 11.7385 5.66699 11.679C5.71654 11.6194 5.78763 11.5818 5.86477 11.5745C6.25965 11.5434 6.65634 11.5429 7.05131 11.5728C7.08858 11.5744 7.12512 11.5836 7.15871 11.5998C7.1923 11.616 7.22223 11.6389 7.24666 11.6671C7.27109 11.6953 7.28951 11.7282 7.30078 11.7637C7.31206 11.7993 7.31595 11.8368 7.31224 11.8739C7.30017 12.037 7.18536 12.1368 7.00402 12.1439H6.46619V12.1426Z" fill="#00D1FF"/>
</svg>
