<svg width="32" height="32" fill="none" xmlns="http://www.w3.org/2000/svg"><g clip-path="url(#a)" fill="#29F1FB"><path d="M16.238 8.662c1.278 0 2.555-.007 3.832 0 2.446.015 4.69 1.576 5.545 3.855.368.984.448 2.002.343 3.047-.154 1.535-.612 2.96-1.48 4.237-1.34 1.971-3.228 3.066-5.566 3.431-.792.123-1.588.109-2.384.109-.33 0-.507-.151-.527-.425-.021-.293.163-.518.49-.537.36-.023.724-.004 1.087-.014 2.2-.06 4.106-.818 5.616-2.446 1.058-1.142 1.594-2.532 1.775-4.064.127-1.064.113-2.12-.307-3.128-.645-1.54-1.8-2.486-3.39-2.924-.618-.17-1.25-.202-1.884-.206-2.364-.014-4.73-.005-7.093-.006-.1 0-.2.004-.299-.005a.476.476 0 0 1-.431-.446.464.464 0 0 1 .38-.464c.108-.015.218-.02.327-.016h3.968l-.002.002Z"/><path d="M13.817 19.968h-4.24c-.09.005-.181.003-.272-.006-.245-.033-.4-.174-.423-.421-.024-.248.092-.418.326-.505.148-.054.304-.043.457-.043 2.79 0 5.579.005 8.368-.005a3.317 3.317 0 0 0 2.494-1.083c.576-.615.878-1.359.968-2.196.07-.657-.023-1.26-.43-1.797a2.18 2.18 0 0 0-1.803-.9c-2.636-.012-5.273-.005-7.906-.01-.28 0-.56-.022-.84-.048-.24-.022-.374-.167-.39-.41-.018-.264.117-.454.357-.5.08-.012.162-.016.243-.012h8.48c1.424.003 2.656.864 3.105 2.211.319.957.205 1.92-.152 2.847-.686 1.78-2.301 2.874-4.212 2.878-1.377.004-2.754 0-4.13 0Zm-6.323-7.012c-.326 0-.652.005-.979 0-.271-.005-.48-.184-.511-.427-.031-.244.122-.453.416-.513.16-.026.323-.037.486-.032.443-.004.887-.005 1.331 0 .135 0 .27.016.402.047.24.06.371.265.343.514-.029.248-.179.398-.43.406-.352.012-.706.003-1.06.003l.002.002Zm5.95 10.383c-.308 0-.616.005-.925 0-.292-.007-.489-.173-.519-.417a.489.489 0 0 1 .441-.53c.658-.052 1.32-.053 1.978-.003a.458.458 0 0 1 .435.502c-.02.272-.212.438-.514.45h-.896v-.002Z"/></g><defs><clipPath id="a"><path fill="#fff" transform="translate(6 6)" d="M0 0h20v20H0z"/></clipPath></defs></svg>
