<svg width="16" height="16" viewBox="0 0 16 16" fill="none" xmlns="http://www.w3.org/2000/svg">
<g clip-path="url(#clip0_4832_12704)">
<path d="M2.28125 7.4375L4.25 7.44045L2.09375 2.09375C2.09375 2.09375 5.96904 2.09375 8 2.09375C11.2619 2.09375 13.9062 4.73807 13.9062 8C13.9062 11.2619 11.2619 13.9062 8 13.9062C7.37059 13.9062 4.82927 13.9062 4.82927 13.9062L2.28125 7.4375Z" fill="#F72A30"/>
<path d="M8.096 6.10029V7.36807C8.096 7.40644 8.12971 7.4375 8.17092 7.4375H9.89262C9.93383 7.4375 9.96754 7.46856 9.96754 7.50693V8.7766C9.96754 8.81497 9.93383 8.84604 9.89262 8.84604H8.16999C8.12878 8.84604 8.09506 8.8771 8.09506 8.91547V11.5868C8.09506 11.6252 8.06134 11.6562 8.02014 11.6562H6.66867C6.62746 11.6562 6.59375 11.6252 6.59375 11.5868V4.69443C6.59375 4.65606 6.62746 4.625 6.66867 4.625H10.2688C10.31 4.625 10.3438 4.65606 10.3438 4.69443V5.96142C10.3438 5.99979 10.31 6.03085 10.2688 6.03085H8.17092C8.12877 6.03085 8.096 6.06192 8.096 6.10029Z" fill="white"/>
<path d="M8.096 6.10029V7.36807C8.096 7.40644 8.12971 7.4375 8.17092 7.4375H9.89262C9.93383 7.4375 9.96754 7.46856 9.96754 7.50693V8.7766C9.96754 8.81497 9.93383 8.84604 9.89262 8.84604H8.16999C8.12878 8.84604 8.09506 8.8771 8.09506 8.91547V11.5868C8.09506 11.6252 8.06134 11.6562 8.02014 11.6562H6.66867C6.62746 11.6562 6.59375 11.6252 6.59375 11.5868V4.69443C6.59375 4.65606 6.62746 4.625 6.66867 4.625H10.2688C10.31 4.625 10.3438 4.65606 10.3438 4.69443V5.96142C10.3438 5.99979 10.31 6.03085 10.2688 6.03085H8.17092C8.12877 6.03085 8.096 6.06192 8.096 6.10029Z" fill="url(#paint0_linear_4832_12704)"/>
</g>
<defs>
<linearGradient id="paint0_linear_4832_12704" x1="8.46875" y1="4.625" x2="8.46875" y2="11.6562" gradientUnits="userSpaceOnUse">
<stop stop-color="white"/>
<stop offset="1" stop-color="white" stop-opacity="0"/>
</linearGradient>
<clipPath id="clip0_4832_12704">
<rect width="12" height="12" fill="white" transform="translate(2 2)"/>
</clipPath>
</defs>
</svg>
