<svg width="16" height="16" viewBox="0 0 16 16" fill="none" xmlns="http://www.w3.org/2000/svg">
<path d="M10.25 3.43182V12.4318C10.25 13.4389 10.9455 14 11.6818 14C12.3636 14 13.1136 13.5227 13.1136 12.4318V3.5C13.1136 2.57682 12.4318 2 11.6818 2C10.9318 2 10.25 2.63614 10.25 3.43182Z" fill="#F9AB00"/>
<path d="M6.5 8.00018V12.432C6.5 13.439 7.19546 14.0002 7.93182 14.0002C8.61365 14.0002 9.36365 13.5229 9.36365 12.432V8.06836C9.36365 7.14518 8.68183 6.56836 7.93182 6.56836C7.18182 6.56836 6.5 7.2045 6.5 8.00018Z" fill="#E37400"/>
<path d="M4.18182 14.0004C4.9726 14.0004 5.61365 13.3593 5.61365 12.5685C5.61365 11.7778 4.9726 11.1367 4.18182 11.1367C3.39105 11.1367 2.75 11.7778 2.75 12.5685C2.75 13.3593 3.39105 14.0004 4.18182 14.0004Z" fill="#E37400"/>
</svg>
