<svg width="32" height="32" fill="none" xmlns="http://www.w3.org/2000/svg"><g clip-path="url(#a)"><path d="M19.375 9.148v13.5c0 1.51 1.043 2.352 2.148 2.352 1.023 0 2.148-.716 2.148-2.352V9.25c0-1.385-1.023-2.25-2.148-2.25-1.125 0-2.148.954-2.148 2.148Z" fill="#F9AB00"/><path d="M13.75 16v6.648c0 1.51 1.043 2.352 2.148 2.352 1.023 0 2.148-.716 2.148-2.352v-6.546c0-1.385-1.023-2.25-2.148-2.25-1.125 0-2.148.954-2.148 2.148ZM10.273 25a2.148 2.148 0 1 0 0-4.296 2.148 2.148 0 0 0 0 4.296Z" fill="#E37400"/></g><defs><clipPath id="a"><path fill="#fff" transform="translate(7 7)" d="M0 0h18v18H0z"/></clipPath></defs></svg>
