<svg width="16" height="16" viewBox="0 0 16 16" fill="none" xmlns="http://www.w3.org/2000/svg">
<path d="M8 2C11.3137 2 14 4.68629 14 8H13.6797C13.6797 4.86302 11.137 2.32031 8 2.32031C4.86302 2.32031 2.32031 4.86302 2.32031 8C2.32031 11.137 4.86302 13.6797 8 13.6797V14C4.68629 14 2 11.3137 2 8C2 4.68629 4.68629 2 8 2ZM6.3877 7.43262H8.97559V4.95996H10.5596V7.43262C10.7665 7.38448 10.9884 7.36038 11.2256 7.36035C11.6917 7.36035 12.0973 7.44216 12.4414 7.60645C12.7855 7.77074 13.0522 8.00005 13.2402 8.29492C13.4303 8.58774 13.5254 8.92879 13.5254 9.31641C13.5253 9.56267 13.4777 9.80677 13.3838 10.0488C13.2898 10.291 13.121 10.5588 12.877 10.8516C12.6349 11.1444 12.2909 11.4957 11.8447 11.9043L11.1094 12.6182V12.6592H13.5996V13.9199H8.96973V12.7949L11.292 10.7285C11.46 10.5685 11.6027 10.4217 11.7207 10.2891C11.8387 10.1542 11.9292 10.0196 11.9912 9.88477C12.0532 9.7479 12.084 9.59947 12.084 9.43945C12.084 9.2606 12.0475 9.10776 11.9736 8.98145C11.8996 8.85294 11.797 8.75311 11.667 8.68359C11.537 8.61419 11.3877 8.58008 11.2197 8.58008C11.0498 8.58011 10.9005 8.61673 10.7725 8.69043C10.6892 8.73707 10.6192 8.79874 10.5596 8.87305V10.1602L8.97559 11.5195V8.72363H6.3877V11.5195H4.7998V4.95996H6.3877V7.43262Z" fill="#09476B"/>
</svg>
