<svg width="16" height="16" viewBox="0 0 16 16" fill="none" xmlns="http://www.w3.org/2000/svg">
<g clip-path="url(#clip0_4832_12693)">
<mask id="mask0_4832_12693" style="mask-type:luminance" maskUnits="userSpaceOnUse" x="2" y="3" width="12" height="10">
<path d="M13.3332 3.33398H2.6665V12.2494H13.3332V3.33398Z" fill="white"/>
</mask>
<g mask="url(#mask0_4832_12693)">
<path opacity="0.7" d="M13.376 3.27167V4.57764L13.3741 12.3095H11.2764V4.03209L11.9338 3.36262C11.9616 3.33261 11.9955 3.30896 12.0332 3.29326C12.071 3.27756 12.1117 3.27019 12.1525 3.27167H13.376Z" fill="#472F85"/>
<path opacity="0.7" fill-rule="evenodd" clip-rule="evenodd" d="M10.1675 9.36766C10.0195 9.17789 9.8719 8.98861 9.72703 8.84372C9.45901 8.57665 9.1929 8.30769 8.92698 8.03894C8.79428 7.90481 8.66162 7.77075 8.52881 7.63698V6.70677L8.52925 6.70484C8.52806 6.66399 8.5357 6.62338 8.55164 6.58576C8.56226 6.56073 8.57638 6.53743 8.59353 6.51652L10.6271 4.56836V4.67237V9.65152C10.627 9.65854 10.6272 9.68277 10.6276 9.71386C10.6283 9.78601 10.6295 9.89507 10.6271 9.91118C10.4753 9.76221 10.3212 9.56467 10.1675 9.36766Z" fill="#472F85"/>
<path d="M2.61182 5.68555V8.62004L6.31436 12.3098H9.25879L2.61182 5.68555Z" fill="#472F85"/>
<path d="M2.61182 12.3093H5.33336L2.61182 9.59766V12.3093Z" fill="#472F85"/>
<path d="M10.2509 12.3093H13.1665L4.37325 3.36253C4.34549 3.33255 4.31159 3.30891 4.27386 3.29323C4.23613 3.27755 4.19546 3.27019 4.15462 3.27167H2.61426V4.57628L10.2509 12.3093Z" fill="#472F85"/>
</g>
</g>
<defs>
<clipPath id="clip0_4832_12693">
<rect width="10.6667" height="8.91542" fill="white" transform="translate(2.6665 3.33398)"/>
</clipPath>
</defs>
</svg>
