<svg width="16" height="16" viewBox="0 0 16 16" fill="none" xmlns="http://www.w3.org/2000/svg">
<path d="M8.01 1L8.3604 1.69497C8.43917 1.82322 8.52452 1.93674 8.62504 2.04246C8.9184 2.35225 9.197 2.67678 9.44728 3.02426C10.041 3.84749 10.4414 4.7617 10.7274 5.75043C10.8989 6.35442 10.9921 6.974 10.999 7.60052C11.0277 9.47357 10.4197 11.0819 9.19371 12.4185C8.99349 12.63 8.77931 12.8258 8.54954 13C8.4281 13 8.37065 12.9016 8.3206 12.8111C8.22746 12.6451 8.17043 12.4558 8.14171 12.2673C8.09863 12.0407 8.07031 11.8141 8.08426 11.5802V11.4744C8.07442 11.4519 7.96733 1.05329 8.01 1Z" fill="#599636"/>
<path d="M7.92007 1.0147C7.90565 0.984788 7.89123 1.00744 7.8768 1.02197C7.88381 1.17154 7.83354 1.30487 7.75484 1.43222C7.66832 1.55871 7.55378 1.65572 7.43882 1.75999C6.80018 2.33349 6.2975 3.02621 5.89495 3.80099C5.35932 4.84371 5.08326 5.96121 5.00498 7.13769C4.96913 7.56204 5.13435 9.05946 5.26332 9.4915C5.61519 10.6385 6.24724 11.5996 7.06593 12.4338C7.267 12.6346 7.48208 12.8209 7.70458 13C7.76926 13 7.77627 12.9402 7.7911 12.8957C7.81946 12.8006 7.84108 12.7035 7.85579 12.6051L8 11.4881L7.92007 1.0147Z" fill="#6CAC48"/>
<path d="M8.75951 13.8085C8.77882 13.6576 8.88472 13.5323 9 13.4073C8.88417 13.3745 8.79812 13.3092 8.73083 13.2364C8.67292 13.1707 8.62493 13.0918 8.58742 13.0194C8.45284 12.7431 8.42416 12.4533 8.38555 12.171V12C8.33756 12.0264 8.32763 12.2498 8.32763 12.2831C8.29957 12.5814 8.2417 12.8781 8.15444 13.1711C8.12576 13.2896 8.10645 13.4077 8 13.513C8 13.5262 8 13.5394 8.00938 13.5591C8.18257 13.9078 8.23001 14.2629 8.25924 14.6249V14.757C8.25924 14.9147 8.24986 14.8815 8.44126 14.9343C8.51848 14.954 8.60452 14.9607 8.68174 15C8.73966 15 8.74903 14.9672 8.74903 14.9407L8.72035 14.7237V14.1184C8.71098 14.0127 8.73966 13.9078 8.75896 13.8089L8.75951 13.8085Z" fill="#C2BFBF"/>
</svg>
