<svg width="32" height="32" fill="none" xmlns="http://www.w3.org/2000/svg"><g clip-path="url(#a)"><path d="m15.938 6.054.533 1.003c.12.185.25.349.404.501.446.447.87.915 1.252 1.416.904 1.188 1.514 2.507 1.95 3.933.261.871.403 1.765.414 2.669.044 2.702-.883 5.022-2.75 6.95a7.932 7.932 0 0 1-.982.838c-.184 0-.272-.141-.348-.272a2.243 2.243 0 0 1-.273-.784 3.794 3.794 0 0 1-.087-.992v-.152c-.015-.033-.178-15.033-.113-15.11Z" fill="#599636"/><path d="M15.938 6.021c-.022-.043-.044-.01-.066.01.01.22-.066.415-.185.6-.131.186-.305.328-.48.48-.968.84-1.73 1.852-2.341 2.985-.813 1.525-1.231 3.16-1.35 4.88-.055.62.196 2.81.392 3.443.534 1.677 1.492 3.083 2.734 4.303.305.294.631.566.969.828.098 0 .109-.087.131-.152.043-.14.076-.282.098-.425l.219-1.634-.121-15.318Z" fill="#6CAC48"/><path d="M16.471 24.028c.022-.25.142-.457.273-.664a.687.687 0 0 1-.305-.283 2.018 2.018 0 0 1-.163-.36c-.152-.457-.184-.937-.228-1.405v-.283c-.055.044-.066.414-.066.469a10.85 10.85 0 0 1-.196 1.47c-.033.197-.054.392-.175.567 0 .022 0 .043.01.076.197.578.25 1.166.284 1.765v.219c0 .261-.011.206.206.293.087.033.185.044.272.11.066 0 .077-.055.077-.099l-.033-.36v-1.002c-.01-.175.022-.349.044-.512Z" fill="#C2BFBF"/></g><defs><clipPath id="a"><path fill="#fff" transform="translate(6 6)" d="M0 0h20v20H0z"/></clipPath></defs></svg>
