<svg width="16" height="16" viewBox="0 0 16 16" fill="none" xmlns="http://www.w3.org/2000/svg">
<path fill-rule="evenodd" clip-rule="evenodd" d="M13.0532 11.0576C12.4005 11.0394 11.8941 11.1063 11.4696 11.2849C11.3474 11.334 11.1513 11.334 11.1352 11.4878C11.2005 11.5523 11.2084 11.658 11.2656 11.7474C11.3635 11.9098 11.5351 12.1285 11.6901 12.2419L12.2124 12.6152C12.5307 12.8098 12.8899 12.9234 13.2 13.1181C13.3796 13.2318 13.5591 13.3778 13.7387 13.4996C13.8302 13.5645 13.8857 13.6701 14 13.7105V13.6859C13.9429 13.6132 13.9265 13.5078 13.8696 13.4263L13.6244 13.1912C13.3878 12.8748 13.0938 12.5989 12.7755 12.3719C12.5143 12.1934 11.9431 11.9501 11.837 11.6501L11.8209 11.632C12.0002 11.6138 12.2124 11.5507 12.384 11.502C12.6617 11.4292 12.9146 11.4452 13.2 11.3723L13.592 11.2587V11.186C13.4451 11.04 13.339 10.8452 13.184 10.7074C12.7678 10.3505 12.3105 10.0016 11.837 9.70961C11.584 9.54743 11.2574 9.44179 10.9881 9.30416C10.8898 9.25543 10.7268 9.23107 10.6698 9.14998C10.5225 8.9718 10.4411 8.73635 10.335 8.52526L9.66572 7.11382C9.51882 6.79746 9.4288 6.4811 9.24951 6.18911C8.40867 4.81003 7.49429 3.97458 6.09033 3.15514C5.78846 2.98478 5.42933 2.9115 5.04751 2.82241L4.43536 2.78969C4.30455 2.73296 4.17411 2.57878 4.05976 2.50569C3.59452 2.21369 2.39455 1.58097 2.05152 2.41478C1.83106 2.94205 2.37808 3.46113 2.56378 3.72895C2.70282 3.91549 2.88211 4.1264 2.98036 4.33731C3.03524 4.47512 3.05354 4.6213 3.1108 4.7673C3.24124 5.12421 3.36382 5.52184 3.53524 5.85456C3.62672 6.02492 3.72277 6.20365 3.83711 6.35765C3.90243 6.44856 4.01677 6.48747 4.0411 6.63346C3.92676 6.79583 3.91889 7.03891 3.85358 7.242C3.55958 8.15872 3.67392 9.29434 4.09013 9.96924C4.22094 10.172 4.52921 10.6183 4.94744 10.4478C5.3148 10.3018 5.23284 9.83943 5.33895 9.4338C5.36365 9.33652 5.34718 9.27162 5.39603 9.20653V9.22471L5.73083 9.89797C5.98385 10.2954 6.42476 10.7092 6.79194 10.9852C6.9877 11.1312 7.14284 11.3829 7.38763 11.472V11.4474H7.37153C7.3225 11.3747 7.24895 11.342 7.18364 11.2852C7.03673 11.1392 6.87354 10.9607 6.75919 10.7985C6.41653 10.3443 6.11466 9.84125 5.84517 9.32216C5.71437 9.07071 5.60002 8.79489 5.49428 8.54344C5.44488 8.44599 5.44488 8.29981 5.36347 8.25145C5.24089 8.42963 5.0616 8.58417 4.9714 8.80308C4.81626 9.1518 4.80016 9.58179 4.74308 10.028C4.71015 10.0362 4.72479 10.028 4.71015 10.0462C4.44927 9.98143 4.35925 9.71343 4.26137 9.48652C4.01659 8.91053 3.9756 7.98581 4.18783 7.32055C4.24491 7.15019 4.49006 6.61474 4.39218 6.45256C4.34279 6.29838 4.17996 6.20929 4.08995 6.08747C3.98384 5.93329 3.86986 5.73875 3.79631 5.56838C3.60056 5.11384 3.50268 4.61112 3.29027 4.15676C3.19203 3.94586 3.02079 3.72677 2.88193 3.53222C2.72679 3.31314 2.55573 3.15896 2.43315 2.8995C2.39235 2.8086 2.33527 2.66423 2.40059 2.56678C2.41669 2.50187 2.44962 2.47587 2.51456 2.46133C2.62068 2.37042 2.92291 2.48569 3.02902 2.53405C3.33089 2.65587 3.58391 2.76932 3.83693 2.9395C3.95127 3.02059 4.07385 3.17477 4.22076 3.2155H4.39236C4.65362 3.27223 4.94725 3.23368 5.19186 3.30641C5.62454 3.44459 6.01623 3.64713 6.3675 3.8664C7.43666 4.53967 8.31848 5.49693 8.91416 6.64092C9.01204 6.82746 9.05284 6.99782 9.14285 7.19255C9.31446 7.59018 9.52668 7.99563 9.69774 8.38526C9.86935 8.76653 10.0325 9.15616 10.2773 9.47252C10.3999 9.64288 10.8895 9.73197 11.1098 9.82125C11.2731 9.89397 11.526 9.95943 11.6732 10.0485C11.9506 10.2189 12.2281 10.4136 12.4892 10.6001C12.6196 10.6972 13.028 10.9001 13.0523 11.062L13.0532 11.0576ZM4.729 4.00822C4.61622 4.00723 4.50379 4.02086 4.39456 4.04876V4.06695H4.41066C4.47597 4.19676 4.59032 4.28603 4.67192 4.39967L4.8598 4.78912L4.8759 4.77094C4.99025 4.68985 5.04751 4.56003 5.04751 4.36549C4.99848 4.30876 4.99043 4.25185 4.94963 4.19513C4.9006 4.11404 4.79449 4.07331 4.729 4.00858V4.00822Z" fill="#00678C"/>
</svg>
