<svg width="32" height="32" fill="none" xmlns="http://www.w3.org/2000/svg"><g clip-path="url(#a)"><path fill-rule="evenodd" clip-rule="evenodd" d="M26.107 22.695c-1.306-.037-2.318.097-3.167.454-.244.098-.637.098-.669.406.13.129.147.34.261.52.196.324.539.761.849.988l1.044.746c.637.39 1.355.617 1.975 1.006.36.227.718.52 1.078.763.182.13.293.34.522.422v-.05c-.114-.145-.147-.356-.26-.519l-.491-.47a7.703 7.703 0 0 0-1.698-1.638c-.522-.357-1.664-.843-1.876-1.443l-.033-.037c.359-.036.783-.162 1.127-.26.555-.145 1.06-.113 1.631-.259l.784-.227v-.146c-.294-.292-.506-.681-.816-.957A21.751 21.751 0 0 0 23.675 20c-.506-.324-1.16-.535-1.698-.81-.196-.098-.522-.147-.637-.309-.294-.356-.457-.827-.669-1.25l-1.338-2.822c-.294-.632-.474-1.265-.832-1.849-1.682-2.757-3.51-4.428-6.318-6.067-.603-.34-1.322-.487-2.085-.665l-1.224-.065c-.262-.114-.523-.422-.751-.568-.93-.584-3.33-1.85-4.016-.182-.44 1.054.653 2.092 1.024 2.628.278.373.637.795.833 1.216.11.276.147.568.261.86.261.714.506 1.509.849 2.174.183.341.375.698.604 1.006.13.182.359.26.407.552-.228.325-.244.81-.375 1.217-.587 1.833-.359 4.104.473 5.453.262.406.878 1.298 1.715.957.734-.292.57-1.216.783-2.027.05-.195.016-.325.114-.455v.037l.67 1.346c.505.795 1.387 1.622 2.121 2.174.392.292.702.795 1.191.973v-.049h-.032c-.098-.145-.245-.21-.375-.324a7.921 7.921 0 0 1-.85-.973c-.684-.909-1.288-1.915-1.827-2.953-.262-.502-.49-1.054-.702-1.557-.098-.195-.098-.487-.261-.584-.245.357-.604.666-.784 1.103-.31.698-.343 1.558-.457 2.45-.066.016-.036 0-.066.036-.521-.13-.701-.665-.897-1.119-.49-1.152-.572-3-.147-4.331.114-.34.604-1.412.408-1.736-.098-.308-.424-.486-.604-.73a6.544 6.544 0 0 1-.587-1.038c-.392-.909-.587-1.914-1.012-2.823-.196-.421-.539-.86-.817-1.249-.31-.438-.652-.746-.897-1.265-.082-.182-.196-.47-.065-.665.032-.13.098-.182.228-.211.212-.182.816.049 1.029.145.603.244 1.11.47 1.615.811.229.162.474.47.768.552h.343c.522.114 1.11.036 1.599.182.865.276 1.648.681 2.35 1.12a14.42 14.42 0 0 1 5.093 5.548c.196.373.277.713.457 1.103.343.795.768 1.606 1.11 2.385.343.762.67 1.541 1.159 2.174.245.34 1.224.519 1.664.697.327.146.833.277 1.127.455.555.34 1.11.73 1.632 1.103.26.194 1.077.6 1.126.923l.002-.008ZM9.46 8.598a2.609 2.609 0 0 0-.669.081v.037h.032c.131.26.36.438.523.665l.376.779.032-.037c.228-.162.343-.421.343-.81-.098-.114-.114-.228-.196-.341-.098-.162-.31-.244-.441-.373Z" fill="#00678C"/></g><defs><clipPath id="a"><path fill="#fff" transform="translate(4 4)" d="M0 0h24v24H0z"/></clipPath></defs></svg>
