<?xml version="1.0" encoding="UTF-8"?>
<svg id="_图层_1" data-name=" 图层 1" xmlns="http://www.w3.org/2000/svg" viewBox="0 0 32.21 21.7">
  <defs>
    <style>
      .cls-1 {
        fill: #0181fd;
      }

      .cls-2 {
        fill: #ffa005;
      }

      .cls-3 {
        fill: #07c846;
      }
    </style>
  </defs>
  <path class="cls-3" d="M17.49,21.7c.61-.26,1.22-.49,1.85-.71,.3-.1,.59-.2,.88-.28,.24-.07,.47-.14,.71-.21,3.58-1,7.2-1.26,10.71-.87v-3.65c-3.88-.38-7.88-.05-11.83,1.07-.24,.07-.47,.13-.71,.21-.31,.09-.63,.2-.93,.3-.61,.21-1.21,.44-1.8,.67l1.13,3.47h0Z"/>
  <path class="cls-1" d="M31.63,3.43V14.38c-4.02-.38-8.17-.03-12.26,1.16-.5,.15-1,.3-1.5,.48-.6,.21-1.2,.4-1.81,.58-5.16,1.53-10.39,2.05-15.48,1.69V7.32c3.98,.38,8.07,.04,12.11-1.12,.55-.15,1.1-.33,1.65-.52,.55-.19,1.1-.37,1.66-.53,5.21-1.56,10.49-2.1,15.63-1.73Z"/>
  <path class="cls-2" d="M14.71,0c-.61,.26-1.22,.49-1.85,.71-.3,.1-.59,.2-.88,.28-.24,.07-.47,.14-.71,.21-3.58,1-7.2,1.26-10.71,.87v3.65c3.88,.38,7.88,.05,11.83-1.07,.24-.07,.47-.13,.71-.21,.31-.09,.63-.2,.93-.3,.61-.21,1.21-.44,1.8-.67L14.71,0h0Z"/>
</svg>