<svg width="16" height="16" viewBox="0 0 16 16" fill="none" xmlns="http://www.w3.org/2000/svg">
<path fill-rule="evenodd" clip-rule="evenodd" d="M3.83767 13.736C1.38744 10.2077 1.38744 5.52833 3.83767 2L4.4194 2.40398C2.13786 5.6894 2.13786 10.0466 4.4194 13.332L3.83767 13.736Z" fill="#C9E51E"/>
<path d="M8.00049 4.28711C9.97778 4.28736 11.5806 5.89081 11.5806 7.86816C11.5803 9.84531 9.97763 11.448 8.00049 11.4482C6.02313 11.4482 4.41968 9.84546 4.41943 7.86816C4.41943 5.89066 6.02298 4.28711 8.00049 4.28711ZM8.00439 5.82227C6.87444 5.82227 5.95858 6.73823 5.9585 7.86816C5.9585 8.99817 6.87439 9.91406 8.00439 9.91406C9.13425 9.91388 10.0503 8.99806 10.0503 7.86816C10.0502 6.73834 9.13419 5.82245 8.00439 5.82227Z" fill="black"/>
<path fill-rule="evenodd" clip-rule="evenodd" d="M12.1623 13.736C14.6126 10.2077 14.6126 5.52833 12.1623 2L11.5806 2.40398C13.8621 5.6894 13.8621 10.0466 11.5806 13.332L12.1623 13.736Z" fill="#37EDFD"/>
</svg>
