<svg width="32" height="32" fill="none" xmlns="http://www.w3.org/2000/svg"><g clip-path="url(#a)"><path d="M13.814 16.705h2.114l-1.118-1.798-2.05 3.251h-.934l2.494-3.905a.59.59 0 0 1 .49-.253c.194 0 .375.092.48.246l2.505 3.912h-.934l-.44-.726h-2.14l-.467-.727Zm9.697.727v-3.393h-.792v3.725c0 .102.04.2.115.276a.405.405 0 0 0 .289.118h3.612l.467-.726h-3.691Zm-13.105-.608a1.392 1.392 0 1 0 0-2.785H6.94v4.12h.792v-3.393h2.621c.368 0 .664.3.664.667a.665.665 0 0 1-.664.667l-2.233-.003 2.365 2.061h1.15l-1.59-1.334h.36Zm-8.34 1.334a2.058 2.058 0 1 1 0-4.119h2.393A2.06 2.06 0 0 1 6.52 16.1a2.058 2.058 0 0 1-2.06 2.058H2.066Zm2.34-.726a1.334 1.334 0 0 0 0-2.666H2.12a1.332 1.332 0 1 0 0 2.666h2.287Zm15.042.726a2.06 2.06 0 1 1 0-4.119h2.843l-.463.727h-2.327a1.333 1.333 0 1 0 0 2.666h2.856l-.467.726h-2.442Zm9.687-.726a1.33 1.33 0 0 1-1.282-.97h3.386l.466-.726h-3.852c.158-.56.674-.97 1.282-.97h2.324l.47-.727h-2.847a2.06 2.06 0 1 0 0 4.119h2.443l.466-.726h-2.856Z" fill="#EA1B22"/></g><defs><clipPath id="a"><path fill="#fff" transform="translate(0 14)" d="M0 0h32v4.186H0z"/></clipPath></defs></svg>
