<?xml version="1.0" standalone="no"?>
<!DOCTYPE svg PUBLIC "-//W3C//DTD SVG 20010904//EN"
 "http://www.w3.org/TR/2001/REC-SVG-20010904/DTD/svg10.dtd">
<svg version="1.0" xmlns="http://www.w3.org/2000/svg"
 width="858.000000pt" height="831.000000pt" viewBox="0 0 858.000000 831.000000"
 preserveAspectRatio="xMidYMid meet">

<g transform="translate(0.000000,831.000000) scale(0.100000,-0.100000)"
fill="#000000" stroke="none">
<path d="M4405 7105 c-30 -30 -32 -64 -4 -99 41 -53 109 -23 109 47 0 70 -59
99 -105 52z"/>
<path d="M3896 6924 c-39 -39 -28 -106 21 -125 59 -22 112 73 67 122 -21 23
-67 25 -88 3z"/>
<path d="M4402 6834 c-22 -15 -22 -17 -22 -307 0 -324 -2 -337 -60 -337 -55 0
-60 16 -60 186 0 153 0 155 -26 180 -19 20 -31 24 -52 19 -53 -13 -52 -5 -52
-340 l0 -312 56 29 c47 23 70 28 130 28 141 0 246 -83 280 -222 15 -59 15 -70
0 -128 -27 -104 -103 -185 -200 -211 -64 -17 -156 -7 -215 23 l-51 27 0 -145
c0 -141 -1 -146 -25 -169 -13 -14 -31 -25 -40 -25 -9 0 -27 11 -40 25 l-25 24
0 739 0 739 -25 11 c-27 12 -50 8 -77 -16 -14 -11 -18 -31 -18 -79 l0 -63
-115 0 -116 0 -18 -42 c-18 -44 -173 -593 -213 -753 -17 -71 -21 -119 -21
-230 0 -163 19 -250 82 -380 90 -187 217 -308 447 -423 125 -63 153 -86 188
-157 37 -76 53 -158 67 -348 10 -133 9 -161 -2 -171 -8 -7 -104 -41 -214 -75
-110 -35 -202 -65 -204 -67 -2 -2 209 -4 470 -3 280 0 464 4 449 9 -14 5 -112
37 -219 70 l-194 62 6 142 c7 166 19 248 49 334 34 97 70 131 214 204 270 136
424 298 494 523 32 100 38 284 15 430 -32 207 -209 839 -242 862 -11 9 -60 13
-155 13 l-138 0 0 150 c0 137 -2 152 -20 170 -24 24 -57 26 -88 4z"/>
<path d="M4147 6822 c-23 -25 -22 -85 1 -105 19 -18 59 -22 78 -9 20 13 36 54
30 77 -13 53 -76 74 -109 37z"/>
<path d="M4240 5828 c-55 -38 -75 -73 -75 -133 0 -85 56 -145 142 -152 91 -7
163 62 163 157 0 116 -137 191 -230 128z"/>
<path d="M3188 3600 c-54 -29 -81 -74 -86 -139 -4 -65 19 -109 77 -148 48 -33
133 -32 182 1 95 64 93 208 -3 279 -39 29 -123 33 -170 7z"/>
<path d="M6370 3200 l0 -200 -50 0 -50 0 0 -120 0 -120 50 0 50 0 2 -427 3
-428 128 -3 127 -3 0 431 0 430 65 0 65 0 0 120 0 120 -65 0 -65 0 0 200 0
200 -130 0 -130 0 0 -200z"/>
<path d="M4141 3014 c-49 -18 -114 -56 -148 -87 l-23 -20 0 46 0 47 -130 0
-130 0 0 -550 0 -550 129 0 129 0 4 353 c5 394 10 428 73 491 40 40 114 61
187 53 96 -12 140 -59 158 -173 6 -33 10 -209 10 -392 l0 -333 128 3 127 3 3
350 c2 214 -2 383 -8 435 -20 155 -84 251 -205 307 -51 23 -76 28 -160 30 -73
2 -112 -1 -144 -13z"/>
<path d="M5353 3016 c-98 -24 -183 -74 -263 -155 -120 -121 -170 -239 -170
-406 0 -345 277 -604 620 -581 101 7 175 27 250 68 125 70 221 181 268 311 23
63 27 87 27 197 0 105 -4 136 -23 192 -63 181 -220 325 -407 373 -71 18 -229
18 -302 1z m247 -232 c68 -20 128 -61 163 -111 96 -138 81 -363 -31 -479 -57
-59 -132 -88 -227 -88 -85 1 -131 15 -197 61 -107 74 -156 273 -103 423 57
161 227 244 395 194z"/>
<path d="M3140 2450 l0 -551 128 3 127 3 3 548 2 547 -130 0 -130 0 0 -550z"/>
<path d="M2183 2979 c-56 -9 -144 -41 -177 -64 -30 -21 -36 -19 -36 15 l0 30
-130 0 -130 0 0 -755 0 -755 130 0 130 0 0 234 0 235 58 -30 c81 -41 162 -59
267 -59 174 0 309 54 424 170 115 115 162 232 162 407 1 173 -47 291 -166 410
-140 140 -325 197 -532 162z m217 -240 c141 -35 228 -178 218 -358 -7 -113
-34 -176 -103 -240 -69 -62 -139 -85 -240 -79 -123 8 -213 69 -264 177 -23 50
-26 68 -26 166 0 98 3 116 26 165 35 74 67 111 129 144 79 43 158 51 260 25z"/>
</g>
</svg>
