<svg width="16" height="16" viewBox="0 0 16 16" fill="none" xmlns="http://www.w3.org/2000/svg">
<g clip-path="url(#clip0_4832_12544)">
<path d="M13.7731 9.18478C13.7033 8.97347 13.5205 8.82628 13.2842 8.79097C13.1727 8.77433 13.0451 8.78142 12.894 8.81256C12.6308 8.86688 12.4354 8.88756 12.2929 8.89156C12.8309 7.98315 13.2684 6.94724 13.5203 5.9721C13.9276 4.39533 13.7099 3.67701 13.4556 3.3521C12.7826 2.4921 11.8006 2.0301 10.616 2.01597C9.98403 2.00824 9.42925 2.13301 9.13985 2.22274C8.87039 2.17519 8.58066 2.14865 8.27666 2.14374C7.7068 2.13465 7.2033 2.25888 6.77307 2.51419C6.53489 2.43365 6.15262 2.3201 5.71116 2.24765C4.67289 2.07719 3.83607 2.21001 3.22398 2.64242C2.4828 3.16597 2.13921 4.0756 2.20276 5.34606C2.22294 5.74942 2.44857 6.97669 2.80385 8.1406C3.00803 8.8096 3.22576 9.36515 3.45098 9.79197C3.77039 10.3972 4.11216 10.7536 4.49585 10.8816C4.71089 10.9532 5.10162 11.0034 5.51257 10.6611C5.56466 10.7242 5.63416 10.7869 5.72639 10.8451C5.84353 10.919 5.98676 10.9794 6.1298 11.0151C6.6453 11.144 7.12816 11.1118 7.54012 10.9311C7.54266 11.0044 7.54462 11.0744 7.54626 11.1349C7.54898 11.2329 7.55171 11.3291 7.5553 11.419C7.57971 12.0269 7.62107 12.4996 7.74362 12.8303C7.75035 12.8485 7.75939 12.8762 7.76894 12.9056C7.83007 13.0928 7.9323 13.4061 8.19239 13.6516C8.46171 13.9058 8.78748 13.9837 9.08585 13.9837C9.23548 13.9837 9.37825 13.9641 9.50348 13.9373C9.94984 13.8416 10.4568 13.6959 10.8235 13.1737C11.1703 12.6801 11.3388 11.9366 11.3693 10.7651C11.3733 10.7319 11.3769 10.7003 11.3804 10.6701L11.3877 10.6082L11.4693 10.6154L11.4904 10.6168C11.945 10.6376 12.5009 10.5411 12.8423 10.3826C13.1121 10.2574 13.9766 9.80097 13.7731 9.18478Z" fill="black"/>
<path d="M12.9958 9.30605C11.644 9.58491 11.551 9.12723 11.551 9.12723C12.9783 7.00937 13.575 4.32105 13.0601 3.66309C11.6554 1.86832 9.22381 2.71714 9.18322 2.73914L9.17017 2.7415C8.90308 2.68605 8.60422 2.65305 8.26826 2.64755C7.65663 2.63755 7.19263 2.80791 6.84054 3.07491C6.84054 3.07491 2.50281 1.28791 2.70458 5.32237C2.74749 6.18064 3.93476 11.8166 5.35085 10.1143C5.86844 9.49178 6.36858 8.96546 6.36858 8.96546C6.61695 9.13046 6.91431 9.21464 7.22604 9.18441L7.25026 9.16387C7.24272 9.24114 7.24617 9.31673 7.25994 9.40623C6.89513 9.81382 7.00235 9.88537 6.27308 10.0355C5.53513 10.1876 5.96863 10.4583 6.25167 10.5291C6.59481 10.6149 7.38863 10.7365 7.92499 9.98559L7.90363 10.0713C8.04654 10.1858 8.1469 10.816 8.13008 11.3873C8.11326 11.9585 8.10204 12.3508 8.21463 12.6571C8.32731 12.9635 8.43954 13.6528 9.39826 13.4474C10.1993 13.2757 10.6144 12.8309 10.6722 12.0888C10.7132 11.5612 10.8059 11.6392 10.8118 11.1675L10.8862 10.9443C10.9719 10.2291 10.8998 9.99841 11.3933 10.1057L11.5133 10.1163C11.8765 10.1328 12.3519 10.0578 12.631 9.92814C13.2318 9.64932 13.5882 9.18373 12.9957 9.30605H12.9958Z" fill="#336791"/>
<path d="M7.09431 5.70573C6.97249 5.68877 6.86217 5.70445 6.80635 5.74673C6.77499 5.7705 6.76526 5.79804 6.76262 5.817C6.75562 5.86722 6.79081 5.92277 6.81244 5.95141C6.87362 6.0325 6.96299 6.08822 7.05144 6.1005C7.06426 6.10232 7.07703 6.10313 7.08972 6.10313C7.23722 6.10313 7.37135 5.98827 7.38317 5.9035C7.39794 5.79732 7.24381 5.7265 7.09431 5.70573ZM11.1299 5.70909C11.1183 5.62586 10.9702 5.60213 10.8297 5.62168C10.6893 5.64123 10.5532 5.70459 10.5646 5.788C10.5737 5.85286 10.6908 5.96359 10.8294 5.96359C10.8412 5.96359 10.853 5.96282 10.8649 5.96113C10.9574 5.94832 11.0254 5.88954 11.0576 5.85568C11.1067 5.80404 11.1352 5.7465 11.1299 5.70909Z" fill="white"/>
<path d="M13.4455 9.27298C13.3939 9.11711 13.228 9.06698 12.9524 9.12389C12.134 9.2928 11.8409 9.1758 11.7446 9.10493C12.3808 8.13584 12.9041 6.96439 13.1864 5.87143C13.3201 5.35371 13.394 4.87289 13.4 4.48098C13.4067 4.05084 13.3335 3.73475 13.1824 3.54166C12.5732 2.76325 11.6791 2.34571 10.5968 2.33425C9.85277 2.32589 9.22414 2.5163 9.10227 2.56984C8.84564 2.50602 8.56586 2.46684 8.26127 2.46184C7.70273 2.4528 7.21991 2.58652 6.82018 2.85912C6.64654 2.79448 6.19782 2.64043 5.64904 2.55202C4.70032 2.3993 3.94641 2.51502 3.40841 2.89616C2.76645 3.35098 2.47009 4.16398 2.5275 5.31252C2.54682 5.69893 2.767 6.88766 3.11445 8.02607C3.57182 9.52443 4.069 10.3727 4.59209 10.5472C4.65332 10.5676 4.72391 10.5818 4.80177 10.5818C4.99259 10.5818 5.22654 10.4958 5.46995 10.2032C5.76684 9.84705 6.07396 9.49954 6.39091 9.16111C6.59654 9.27148 6.82245 9.33311 7.0535 9.3393C7.05395 9.34534 7.05454 9.35139 7.05509 9.35739C7.01532 9.40481 6.97637 9.45293 6.93827 9.50171C6.77818 9.70493 6.74486 9.74725 6.22954 9.85334C6.08295 9.88361 5.69364 9.96384 5.68791 10.2368C5.68173 10.5349 6.14814 10.6602 6.20127 10.6734C6.38645 10.7198 6.56486 10.7427 6.735 10.7427C7.14877 10.7427 7.51291 10.6067 7.80391 10.3435C7.79495 11.4065 7.83927 12.454 7.96691 12.7731C8.07145 13.0344 8.32682 13.6729 9.13345 13.6728C9.25182 13.6728 9.38209 13.6591 9.52541 13.6283C10.3673 13.4479 10.7329 13.0758 10.8743 12.2555C10.95 11.8171 11.0798 10.7702 11.1409 10.2087C11.2698 10.2489 11.4358 10.2673 11.6152 10.2673C11.9894 10.2673 12.4211 10.1878 12.6919 10.0621C12.9961 9.9208 13.545 9.57416 13.4455 9.27298ZM11.4406 5.47843C11.4379 5.64421 11.415 5.79471 11.3909 5.9518C11.3648 6.12075 11.3379 6.29543 11.3311 6.50748C11.3245 6.71384 11.3502 6.92839 11.3751 7.13589C11.4255 7.55498 11.4772 7.98643 11.2771 8.41216C11.2439 8.35328 11.2143 8.29242 11.1885 8.22993C11.1636 8.16966 11.1096 8.07284 11.0349 7.93884C10.744 7.41721 10.0629 6.19566 10.4115 5.69721C10.5154 5.54884 10.779 5.3963 11.4406 5.47843ZM10.6386 2.66993C11.6084 2.69134 12.3755 3.05412 12.9185 3.74812C13.3351 4.28043 12.8764 6.70257 11.5485 8.79216C11.5352 8.77518 11.5218 8.75826 11.5083 8.74139L11.4915 8.72039C11.8346 8.15371 11.7675 7.59302 11.7078 7.09593C11.6832 6.89193 11.66 6.69925 11.666 6.51825C11.672 6.32643 11.6974 6.16189 11.722 6.0028C11.7521 5.80675 11.7828 5.60389 11.7743 5.36475C11.7806 5.33966 11.7832 5.31002 11.7799 5.27484C11.7583 5.04552 11.4965 4.35921 10.9628 3.73802C10.6709 3.39825 10.2452 3.01802 9.664 2.76157C9.914 2.70975 10.2559 2.66143 10.6386 2.66993ZM5.21236 9.98902C4.94418 10.3115 4.759 10.2497 4.69809 10.2294C4.30127 10.097 3.84082 9.2583 3.43486 7.9283C3.08359 6.77748 2.87832 5.62025 2.86204 5.29575C2.81077 4.26948 3.05954 3.55425 3.6015 3.16989C4.4835 2.54443 5.93359 2.9188 6.51627 3.10866C6.50791 3.11693 6.49918 3.12466 6.49091 3.13307C5.53473 4.09871 5.55741 5.74852 5.55977 5.84939C5.55968 5.8883 5.56295 5.94339 5.56741 6.01916C5.58386 6.29666 5.6145 6.81311 5.53268 7.39798C5.45668 7.94148 5.62423 8.47343 5.99227 8.85748C6.03004 8.89682 6.06974 8.93426 6.11123 8.96966C5.94741 9.14511 5.59136 9.53311 5.21236 9.98902ZM6.23414 8.62571C5.9375 8.31616 5.80277 7.88561 5.86445 7.44434C5.95082 6.82652 5.91895 6.28843 5.90182 5.99934C5.89941 5.95889 5.89727 5.92343 5.89604 5.89548C6.03573 5.77161 6.68304 5.4248 7.14468 5.53057C7.35532 5.5788 7.48368 5.72225 7.53704 5.96898C7.81323 7.24639 7.57359 7.7788 7.38104 8.20666C7.34136 8.2948 7.30386 8.37811 7.27186 8.4643L7.24704 8.53093C7.18423 8.69939 7.12577 8.85602 7.08954 9.00475C6.77418 9.00384 6.46741 8.86911 6.23414 8.62566V8.62571ZM6.28254 10.3484C6.19045 10.3254 6.10764 10.2855 6.05904 10.2523C6.09964 10.2333 6.17186 10.2073 6.29714 10.1814C6.90336 10.0567 6.997 9.96857 7.20145 9.70898C7.24832 9.64943 7.30145 9.58198 7.37504 9.4998L7.37514 9.49971C7.48473 9.37698 7.53486 9.3978 7.62577 9.43552C7.69945 9.46598 7.77123 9.55834 7.80032 9.65998C7.81409 9.70798 7.82954 9.79907 7.77895 9.86998C7.35186 10.468 6.7295 10.4603 6.28254 10.3484ZM9.45523 13.3008C8.71359 13.4597 8.451 13.0813 8.27795 12.6487C8.16627 12.3694 8.11136 11.1101 8.15032 9.7193C8.15082 9.7008 8.14818 9.68293 8.14309 9.66611C8.13854 9.6329 8.13161 9.60006 8.12236 9.56784C8.06445 9.36548 7.92332 9.19621 7.754 9.12602C7.68673 9.09816 7.56327 9.04702 7.41491 9.08498C7.44654 8.95462 7.50141 8.80739 7.56091 8.64798L7.58586 8.58093C7.61395 8.50534 7.64923 8.42702 7.6865 8.34411C7.888 7.89648 8.16395 7.28334 7.86445 5.89821C7.75227 5.37939 7.37764 5.12602 6.80973 5.18489C6.46927 5.22011 6.15777 5.35748 6.00241 5.43625C5.969 5.45316 5.93845 5.46952 5.90991 5.48543C5.95327 4.96271 6.11709 3.9858 6.72991 3.36771C7.11577 2.97862 7.62964 2.78643 8.25573 2.7968C9.48936 2.81698 10.2805 3.45007 10.7269 3.97766C11.1116 4.43225 11.32 4.89021 11.4031 5.13721C10.7779 5.07362 10.3526 5.19702 10.1371 5.50521C9.66814 6.17557 10.3936 7.47666 10.7423 8.10198C10.8063 8.21657 10.8615 8.31562 10.8788 8.35771C10.9924 8.63289 11.1394 8.81661 11.2467 8.95071C11.2796 8.9918 11.3115 9.03166 11.3358 9.06648C11.1464 9.12107 10.8063 9.24721 10.8373 9.87771C10.8123 10.1941 10.6345 11.6753 10.5442 12.1986C10.425 12.8899 10.1705 13.1474 9.45523 13.3008V13.3008ZM12.5509 9.75825C12.3572 9.84811 12.0332 9.91552 11.7254 9.93002C11.3854 9.94593 11.2123 9.89193 11.1715 9.85871C11.1525 9.4658 11.2987 9.42475 11.4535 9.3813C11.4778 9.37448 11.5015 9.3678 11.5244 9.3598C11.5386 9.37139 11.5542 9.38289 11.5713 9.39416C11.8446 9.57452 12.332 9.59398 13.0201 9.45193L13.0277 9.45043C12.9349 9.53721 12.776 9.65366 12.5509 9.75825Z" fill="white"/>
</g>
<defs>
<clipPath id="clip0_4832_12544">
<rect width="12" height="12" fill="white" transform="translate(2 2)"/>
</clipPath>
</defs>
</svg>
