<svg width="32" height="32" fill="none" xmlns="http://www.w3.org/2000/svg"><g clip-path="url(#a)"><path d="M25.923 18.074c-.12-.37-.434-.628-.84-.69a1.89 1.89 0 0 0-.671.038 5.92 5.92 0 0 1-1.033.139c.924-1.59 1.676-3.403 2.11-5.109.7-2.759.325-4.016-.112-4.584-1.157-1.505-2.844-2.314-4.88-2.338a8.507 8.507 0 0 0-2.538.361 9.285 9.285 0 0 0-1.483-.138c-.98-.016-1.845.202-2.584.648-.41-.14-1.067-.34-1.826-.466-1.784-.298-3.223-.066-4.275.69-1.273.917-1.864 2.509-1.755 4.732.035.706.423 2.853 1.033 4.89.351 1.17.726 2.142 1.113 2.89.549 1.058 1.136 1.682 1.795 1.906.37.125 1.042.213 1.748-.386.09.11.209.22.367.322.202.13.448.235.694.298.886.225 1.716.169 2.424-.147l.01.356.016.497c.042 1.064.113 1.891.324 2.47l.043.131c.105.328.28.876.728 1.306.463.445 1.023.581 1.535.581.258 0 .503-.034.718-.081.768-.168 1.639-.423 2.27-1.336.595-.864.885-2.165.937-4.215l.02-.166.012-.108.14.012.036.003c.782.036 1.737-.133 2.324-.41.464-.22 1.95-1.018 1.6-2.096Z" fill="#000"/><path d="M24.587 18.283c-2.324.488-2.484-.313-2.484-.313 2.453-3.705 3.479-8.41 2.594-9.56-2.414-3.141-6.594-1.656-6.663-1.618l-.023.005a8.145 8.145 0 0 0-1.55-.165c-1.051-.017-1.849.28-2.454.748 0 0-7.455-3.127-7.109 3.933.074 1.502 2.115 11.363 4.549 8.385.89-1.09 1.749-2.01 1.749-2.01.427.288.938.436 1.474.383l.041-.036c-.013.135-.007.267.017.424-.627.713-.443.838-1.696 1.1-1.268.267-.524.74-.037.865.59.15 1.954.362 2.876-.951l-.037.15c.246.2.418 1.302.39 2.302-.03 1-.049 1.686.145 2.222s.386 1.743 2.034 1.383c1.377-.3 2.09-1.079 2.19-2.377.07-.923.23-.787.24-1.612l.128-.391c.147-1.251.023-1.655.871-1.467l.206.018c.625.029 1.442-.102 1.921-.329 1.033-.488 1.646-1.303.627-1.089Z" fill="#336791"/><path d="M14.443 11.984c-.21-.03-.399-.002-.495.072a.186.186 0 0 0-.075.123c-.012.088.049.185.086.235.105.142.258.24.41.261a.458.458 0 0 0 .066.005c.254 0 .484-.201.505-.35.025-.185-.24-.31-.497-.346Zm6.937.006c-.02-.145-.275-.187-.517-.153-.24.034-.475.145-.455.291.015.114.217.307.455.307a.42.42 0 0 0 .06-.004.584.584 0 0 0 .332-.184c.085-.09.133-.191.125-.257Z" fill="#fff"/><path d="M25.36 18.228c-.09-.273-.375-.36-.848-.26-1.407.295-1.91.09-2.076-.034 1.093-1.696 1.993-3.746 2.478-5.658.23-.906.357-1.747.367-2.433.012-.753-.114-1.306-.374-1.644-1.047-1.362-2.584-2.093-4.444-2.113-1.279-.014-2.36.319-2.569.413a6.296 6.296 0 0 0-1.445-.19c-.96-.015-1.79.219-2.477.696a10.9 10.9 0 0 0-2.013-.537c-1.63-.268-2.926-.065-3.85.602-1.104.796-1.614 2.218-1.515 4.228.033.676.412 2.756 1.009 4.748.786 2.622 1.64 4.106 2.54 4.412.105.035.226.06.36.06.328 0 .73-.15 1.148-.662a41.857 41.857 0 0 1 1.583-1.824c.354.193.742.301 1.14.312 0 .01 0 .021.002.032a9.572 9.572 0 0 0-.2.252c-.276.356-.333.43-1.22.616-.251.053-.92.193-.93.67-.01.522.791.741.882.764.319.082.625.122.918.122.71 0 1.337-.238 1.837-.699-.015 1.86.06 3.693.28 4.252.18.457.619 1.574 2.005 1.574.203 0 .427-.024.674-.078 1.447-.316 2.075-.967 2.318-2.402.13-.767.353-2.6.458-3.582.222.07.507.103.816.103.643 0 1.385-.14 1.85-.36.523-.246 1.466-.853 1.295-1.38Zm-3.447-6.64c-.004.29-.044.554-.085.829a7.768 7.768 0 0 0-.103.972c-.011.361.033.736.076 1.1.087.733.175 1.488-.168 2.233a2.931 2.931 0 0 1-.153-.32 6.282 6.282 0 0 0-.264-.509c-.5-.912-1.67-3.05-1.071-3.922.178-.26.631-.527 1.768-.383Zm-1.378-4.914c1.667.037 2.985.672 3.919 1.886.716.932-.073 5.17-2.355 8.827l-.07-.09-.028-.036c.59-.991.474-1.973.372-2.842-.043-.357-.082-.695-.072-1.011a7.27 7.27 0 0 1 .096-.902c.052-.343.105-.698.09-1.117a.47.47 0 0 0 .01-.157c-.038-.401-.488-1.602-1.405-2.69a6.34 6.34 0 0 0-2.232-1.708 7.399 7.399 0 0 1 1.675-.16ZM11.21 19.48c-.461.564-.78.456-.884.42-.682-.231-1.474-1.699-2.171-4.026-.604-2.014-.957-4.039-.985-4.607-.088-1.795.34-3.047 1.271-3.72 1.516-1.094 4.008-.439 5.01-.106l-.044.042c-1.643 1.69-1.604 4.577-1.6 4.753 0 .068.005.165.013.297.028.486.08 1.39-.06 2.413-.13.951.157 1.882.79 2.554.065.069.133.134.205.196-.282.307-.894.986-1.545 1.784Zm1.756-2.386c-.51-.541-.742-1.295-.636-2.067.149-1.08.094-2.022.065-2.528-.005-.071-.008-.133-.01-.182.24-.217 1.352-.824 2.146-.639.362.085.583.336.674.768.475 2.235.063 3.166-.268 3.915-.068.154-.133.3-.188.45l-.042.117c-.108.295-.209.57-.27.83-.543-.002-1.07-.238-1.471-.664Zm.083 3.015c-.158-.04-.3-.11-.384-.168.07-.034.194-.08.41-.124 1.041-.219 1.202-.373 1.553-.827.081-.104.172-.222.299-.366.188-.215.274-.179.43-.113.127.054.25.215.3.393.024.084.05.244-.036.368-.734 1.046-1.804 1.033-2.572.837Zm5.453 5.166c-1.275.278-1.726-.384-2.023-1.141-.192-.489-.287-2.692-.22-5.126a.298.298 0 0 0-.012-.093 1.24 1.24 0 0 0-.036-.172c-.1-.354-.342-.65-.633-.773-.116-.049-.328-.138-.583-.072.055-.228.149-.486.251-.765l.043-.117c.048-.132.109-.27.173-.414.346-.784.82-1.857.306-4.28-.193-.908-.837-1.351-1.813-1.248-.585.061-1.12.302-1.388.44-.057.029-.11.058-.158.085.074-.914.356-2.624 1.409-3.705.663-.681 1.546-1.017 2.622-1 2.12.036 3.48 1.144 4.248 2.067.661.796 1.02 1.597 1.162 2.03-1.075-.112-1.805.104-2.176.643-.806 1.173.441 3.45 1.04 4.544.11.2.205.374.235.447.195.482.448.803.632 1.038.057.072.112.142.153.203-.325.095-.91.316-.857 1.42-.043.553-.348 3.145-.503 4.06-.205 1.21-.643 1.66-1.872 1.93v-.001Zm5.32-6.199c-.332.157-.89.275-1.418.3-.584.029-.882-.066-.952-.124-.033-.688.218-.76.485-.835.041-.012.082-.024.122-.038.024.02.05.04.08.06.47.316 1.307.35 2.49.101l.013-.003a3.18 3.18 0 0 1-.82.54Z" fill="#fff"/></g><defs><clipPath id="a"><path fill="#fff" transform="translate(6 5.5)" d="M0 0h20v21H0z"/></clipPath></defs></svg>
