<svg width="32" height="32" fill="none" xmlns="http://www.w3.org/2000/svg"><g clip-path="url(#a)"><path d="M18.146 9.875a.886.886 0 1 0-1.253-1.253.886.886 0 0 0 1.253 1.253ZM20.65 12.38a.984.984 0 1 0-1.392-1.392.984.984 0 0 0 1.391 1.391ZM23.153 14.883a1.082 1.082 0 1 0-1.53-1.53 1.082 1.082 0 0 0 1.53 1.53ZM25.655 17.385a1.18 1.18 0 1 0-1.669-1.67 1.18 1.18 0 0 0 1.67 1.67Z" fill="#5B87DA"/><path d="M13.21 9.805a.787.787 0 1 0-1.114-1.113.787.787 0 0 0 1.113 1.113ZM15.713 12.31a.886.886 0 1 0-1.253-1.253.886.886 0 0 0 1.253 1.253ZM18.214 14.811a.984.984 0 1 0-1.391-1.391.984.984 0 0 0 1.391 1.391ZM20.718 17.314a1.082 1.082 0 1 0-1.53-1.53 1.082 1.082 0 0 0 1.53 1.53ZM23.222 19.82a1.18 1.18 0 1 0-1.67-1.67 1.18 1.18 0 0 0 1.67 1.67Z" fill="#1EDCFF"/><path d="M8.277 9.739a.69.69 0 1 0-.975-.975.69.69 0 0 0 .975.975ZM10.776 12.238a.787.787 0 1 0-1.113-1.113.787.787 0 0 0 1.113 1.113ZM13.281 14.744a.886.886 0 1 0-1.252-1.252.886.886 0 0 0 1.252 1.252ZM15.784 17.247a.984.984 0 1 0-1.39-1.391.984.984 0 0 0 1.39 1.39ZM18.287 19.75a1.082 1.082 0 1 0-1.531-1.53 1.082 1.082 0 0 0 1.53 1.53ZM20.787 22.25a1.18 1.18 0 1 0-1.669-1.67 1.18 1.18 0 0 0 1.67 1.67Z" fill="#000"/><path d="M13.21 19.538a.787.787 0 1 0-1.114-1.113.787.787 0 0 0 1.114 1.113ZM10.777 21.971a.787.787 0 1 0-1.113-1.113.787.787 0 0 0 1.113 1.113ZM8.345 24.406a.787.787 0 1 0-1.114-1.113.787.787 0 0 0 1.114 1.113ZM13.21 24.405a.787.787 0 1 0-1.113-1.114.787.787 0 0 0 1.113 1.114ZM18.077 24.406a.787.787 0 1 0-1.114-1.113.787.787 0 0 0 1.114 1.113ZM15.643 21.97a.787.787 0 1 0-1.114-1.112.787.787 0 0 0 1.114 1.113Z" fill="#5B87DA"/></g><defs><clipPath id="a"><path fill="#fff" transform="translate(7 7)" d="M0 0h19v19H0z"/></clipPath></defs></svg>
