<svg width="16" height="16" viewBox="0 0 16 16" fill="none" xmlns="http://www.w3.org/2000/svg">
<path d="M8.66226 4.26012C8.86957 4.0528 8.86956 3.71668 8.66225 3.50937C8.45493 3.30206 8.11881 3.30207 7.9115 3.50938C7.70419 3.7167 7.7042 4.05282 7.91151 4.26013C8.11883 4.46744 8.45495 4.46744 8.66226 4.26012Z" fill="#5B87DA"/>
<path d="M10.1628 5.76061C10.393 5.53037 10.393 5.15708 10.1628 4.92684C9.93251 4.69661 9.55922 4.69662 9.32898 4.92686C9.09875 5.1571 9.09876 5.53039 9.329 5.76063C9.55924 5.99086 9.93253 5.99085 10.1628 5.76061Z" fill="#5B87DA"/>
<path d="M11.6635 7.26136C11.9168 7.00805 11.9168 6.59736 11.6635 6.34406C11.4102 6.09076 10.9995 6.09077 10.7462 6.34408C10.4929 6.59739 10.4929 7.00807 10.7463 7.26137C10.9996 7.51467 11.4103 7.51467 11.6635 7.26136Z" fill="#5B87DA"/>
<path d="M13.1626 8.76185C13.4388 8.48562 13.4388 8.03776 13.1626 7.76154C12.8863 7.48531 12.4385 7.48532 12.1623 7.76155C11.886 8.03779 11.886 8.48564 12.1623 8.76187C12.4385 9.03809 12.8864 9.03808 13.1626 8.76185Z" fill="#5B87DA"/>
<path d="M5.70396 4.22031C5.8882 4.03606 5.88819 3.73733 5.70394 3.55309C5.51969 3.36885 5.22097 3.36885 5.03673 3.5531C4.85248 3.73735 4.85249 4.03608 5.03674 4.22032C5.22099 4.40456 5.51971 4.40456 5.70396 4.22031Z" fill="#1EDCFF"/>
<path d="M7.20474 5.72106C7.41205 5.51374 7.41205 5.17762 7.20473 4.97031C6.99741 4.763 6.66129 4.76301 6.45398 4.97032C6.24667 5.17764 6.24668 5.51376 6.45399 5.72107C6.66131 5.92838 6.99743 5.92837 7.20474 5.72106Z" fill="#1EDCFF"/>
<path d="M8.70378 7.2196C8.93401 6.98935 8.93401 6.61606 8.70377 6.38583C8.47352 6.1556 8.10023 6.1556 7.87 6.38584C7.63977 6.61609 7.63977 6.98938 7.87002 7.21961C8.10026 7.44984 8.47355 7.44984 8.70378 7.2196Z" fill="#1EDCFF"/>
<path d="M10.2041 8.72034C10.4574 8.46703 10.4574 8.05635 10.2041 7.80305C9.95075 7.54975 9.54007 7.54975 9.28677 7.80306C9.03347 8.05637 9.03347 8.46706 9.28678 8.72036C9.54009 8.97366 9.95078 8.97365 10.2041 8.72034Z" fill="#1EDCFF"/>
<path d="M11.7046 10.2208C11.9808 9.9446 11.9808 9.49675 11.7046 9.22052C11.4283 8.9443 10.9805 8.9443 10.7042 9.22054C10.428 9.49677 10.428 9.94463 10.7043 10.2209C10.9805 10.4971 11.4284 10.4971 11.7046 10.2208Z" fill="#1EDCFF"/>
<path d="M2.74789 4.1788C2.90921 4.01748 2.9092 3.75592 2.74788 3.5946C2.58655 3.43328 2.325 3.43329 2.16368 3.59461C2.00236 3.75594 2.00236 4.01749 2.16369 4.17881C2.32501 4.34013 2.58657 4.34013 2.74789 4.1788Z" fill="black"/>
<path d="M4.24595 5.67734C4.43019 5.49309 4.43019 5.19437 4.24594 5.01012C4.06169 4.82588 3.76296 4.82589 3.57872 5.01014C3.39448 5.19439 3.39448 5.49311 3.57873 5.67735C3.76298 5.8616 4.0617 5.86159 4.24595 5.67734Z" fill="black"/>
<path d="M5.74722 7.18004C5.95453 6.97272 5.95453 6.6366 5.74721 6.42929C5.53989 6.22198 5.20377 6.22199 4.99646 6.42931C4.78915 6.63662 4.78916 6.97275 4.99648 7.18006C5.20379 7.38737 5.53991 7.38736 5.74722 7.18004Z" fill="black"/>
<path d="M7.24724 8.67858C7.47747 8.44834 7.47747 8.07505 7.24722 7.84481C7.01698 7.61458 6.64369 7.61459 6.41346 7.84483C6.18322 8.07507 6.18323 8.44836 6.41347 8.67859C6.64371 8.90883 7.01701 8.90882 7.24724 8.67858Z" fill="black"/>
<path d="M8.74656 10.1793C8.99986 9.92602 8.99985 9.51533 8.74654 9.26203C8.49323 9.00873 8.08255 9.00874 7.82925 9.26205C7.57595 9.51536 7.57595 9.92604 7.82926 10.1793C8.08257 10.4326 8.49326 10.4326 8.74656 10.1793Z" fill="black"/>
<path d="M10.2456 11.6779C10.5218 11.4016 10.5218 10.9538 10.2456 10.6776C9.96935 10.4013 9.52149 10.4013 9.24527 10.6776C8.96904 10.9538 8.96905 11.4017 9.24528 11.6779C9.52152 11.9541 9.96937 11.9541 10.2456 11.6779Z" fill="black"/>
<path d="M5.70457 10.0524C5.88884 9.86811 5.88883 9.56935 5.70456 9.38508C5.52029 9.20082 5.22152 9.20082 5.03726 9.38509C4.85299 9.56937 4.853 9.86813 5.03727 10.0524C5.22154 10.2367 5.5203 10.2367 5.70457 10.0524Z" fill="#5B87DA"/>
<path d="M4.24608 11.5114C4.43034 11.3271 4.43034 11.0283 4.24606 10.8441C4.06179 10.6598 3.76303 10.6598 3.57876 10.8441C3.3945 11.0284 3.3945 11.3271 3.57877 11.5114C3.76305 11.6956 4.06181 11.6956 4.24608 11.5114Z" fill="#5B87DA"/>
<path d="M2.78856 12.9704C2.97282 12.7861 2.97282 12.4873 2.78854 12.3031C2.60427 12.1188 2.30551 12.1188 2.12124 12.3031C1.93697 12.4873 1.93698 12.7861 2.12125 12.9704C2.30553 13.1546 2.60429 13.1546 2.78856 12.9704Z" fill="#5B87DA"/>
<path d="M5.70457 12.9704C5.88884 12.7861 5.88883 12.4873 5.70456 12.3031C5.52029 12.1188 5.22152 12.1188 5.03726 12.3031C4.85299 12.4873 4.853 12.7861 5.03727 12.9704C5.22154 13.1546 5.5203 13.1546 5.70457 12.9704Z" fill="#5B87DA"/>
<path d="M8.62107 12.9704C8.80534 12.7861 8.80534 12.4873 8.62106 12.3031C8.43679 12.1188 8.13803 12.1188 7.95376 12.3031C7.76949 12.4873 7.7695 12.7861 7.95377 12.9704C8.13805 13.1546 8.43681 13.1546 8.62107 12.9704Z" fill="#5B87DA"/>
<path d="M7.16258 11.5114C7.34685 11.3271 7.34684 11.0283 7.16257 10.8441C6.97829 10.6598 6.67953 10.6598 6.49527 10.8441C6.311 11.0284 6.311 11.3271 6.49528 11.5114C6.67955 11.6956 6.97831 11.6956 7.16258 11.5114Z" fill="#5B87DA"/>
</svg>
