<svg width="32" height="32" fill="none" xmlns="http://www.w3.org/2000/svg"><g clip-path="url(#a)"><path d="m16 11.237-6.72-1.63V22.43l6.72-1.63v-9.562Z" fill="#205B97"/><path d="M9.28 22.429 8 21.777V10.259l1.28-.651v12.82ZM16 11.237l6.72-1.63V22.43L16 20.799v-9.562Z" fill="#5193CE"/><path d="m22.72 22.429 1.28-.652V10.259l-1.28-.651v12.82Z" fill="#205B97"/><path d="m14.293 7-2.56 1.304v15.392L14.293 25l.783-8.547L14.293 7Z" fill="#5193CE"/><path d="m17.707 7 2.56 1.304v15.392L17.707 25l-.783-8.547L17.707 7Z" fill="#205B97"/><path d="M17.707 25h-3.449V7.036h3.449V25Z" fill="#2E73B7"/></g><defs><clipPath id="a"><path fill="#fff" transform="rotate(-180 12 12.5)" d="M0 0h16v18H0z"/></clipPath></defs></svg>
