<svg width="16" height="16" viewBox="0 0 16 16" fill="none" xmlns="http://www.w3.org/2000/svg">
<path d="M6.71777 9.59473C7.07229 9.65079 7.34364 9.95737 7.34375 10.3271V13.2588C7.34351 13.6672 7.01103 13.9989 6.60156 13.999C6.19091 13.999 5.85766 13.6673 5.85742 13.2588V11.6035L4.41504 12.4336C4.05836 12.6392 3.60288 12.517 3.39648 12.1602C3.19011 11.8043 3.31322 11.3494 3.66992 11.1445L6.20898 9.68164C6.36885 9.59005 6.54924 9.56249 6.71777 9.59473ZM8.75391 9.9541C8.96045 9.59841 9.41677 9.47679 9.77344 9.68164L12.3125 11.1445C12.6702 11.3494 12.7922 11.8043 12.5859 12.1602C12.3805 12.516 11.9232 12.6396 11.5664 12.4336L10.1436 11.6143V13.2588C10.1433 13.6673 9.81089 13.999 9.40137 13.999C8.99071 13.999 8.65745 13.6673 8.65723 13.2588V10.3984C8.64213 10.2486 8.67394 10.0942 8.75391 9.9541ZM12.8799 5.88965C13.2366 5.68369 13.694 5.8052 13.8994 6.16211C14.1059 6.51797 13.9838 6.97285 13.626 7.17773L12.1885 8.00586L13.626 8.83398C13.9827 9.03995 14.1059 9.4957 13.8994 9.85156C13.6928 10.2071 13.2365 10.3288 12.8799 10.124L10.3408 8.66016C10.0999 8.5221 9.96561 8.2686 9.96777 8.00879C9.96362 7.74801 10.0978 7.49167 10.3408 7.35156L12.8799 5.88965ZM2.73047 5.80859C2.85688 5.80863 2.98354 5.84168 3.09375 5.90527L5.63281 7.36816C5.86195 7.50081 6.00139 7.74657 5.99707 8.01074C5.99918 8.27267 5.8597 8.5159 5.63281 8.64746L3.09375 10.1104C2.98357 10.1739 2.85695 10.207 2.72949 10.207C2.47004 10.207 2.22738 10.068 2.09766 9.84375C2.00048 9.67564 1.9747 9.47949 2.02539 9.29199C2.07512 9.10436 2.19659 8.94764 2.36523 8.85059L3.82813 8.00781L2.36523 7.16504C2.01714 6.96446 1.89658 6.51911 2.09766 6.17188C2.22738 5.94758 2.46994 5.80859 2.73047 5.80859ZM8.12598 6.62109C8.18216 6.62125 8.26088 6.65356 8.30078 6.69336L9.30762 7.69824C9.34753 7.73819 9.37987 7.81598 9.37988 7.87305V8.12891C9.37978 8.18494 9.34753 8.26278 9.30762 8.30371L8.30078 9.30762C8.26085 9.34736 8.18211 9.37972 8.12598 9.37988H7.86914C7.81304 9.3798 7.73435 9.34737 7.69434 9.30762L6.68652 8.30371C6.64659 8.2628 6.61436 8.18496 6.61426 8.12891V7.87305C6.61427 7.8159 6.64654 7.73814 6.68652 7.69824L7.69434 6.69336C7.7343 6.65353 7.81296 6.62117 7.86914 6.62109H8.12598ZM7.99121 7.51758C7.95021 7.51769 7.89351 7.54123 7.86328 7.57129L7.56641 7.86621C7.53722 7.89533 7.51367 7.95306 7.51367 7.99512V8.00586C7.51373 8.04778 7.53737 8.10463 7.56641 8.13379L7.86328 8.43066C7.89354 8.4596 7.95027 8.48328 7.99121 8.4834H8.00195C8.04407 8.4834 8.10164 8.45974 8.13086 8.43066L8.42871 8.13379C8.4577 8.1046 8.48139 8.04773 8.48145 8.00586V7.99512C8.48145 7.95415 8.45789 7.89641 8.42871 7.86621L8.13086 7.57129C8.10167 7.54109 8.04411 7.51758 8.00195 7.51758H7.99121ZM6.60156 2C7.01125 2.00004 7.34375 2.33243 7.34375 2.74219V5.67285C7.34375 5.88849 7.25255 6.08288 7.10449 6.21875C6.87101 6.44626 6.50518 6.50245 6.20898 6.33105L3.66992 4.86816C3.31318 4.6622 3.19001 4.20742 3.39648 3.85156C3.60299 3.49579 4.05931 3.37413 4.41602 3.58008L5.85742 4.41016V2.74219C5.85742 2.33241 6.19077 2 6.60156 2ZM9.40137 2C9.81108 2 10.1445 2.33241 10.1445 2.74219V4.39941L11.5664 3.58008C11.9231 3.37412 12.3794 3.49576 12.5859 3.85156C12.7924 4.20741 12.6692 4.66327 12.3125 4.86816L9.77344 6.33105C9.4167 6.53701 8.96038 6.41445 8.75391 6.05859C8.67293 5.91847 8.64318 5.76299 8.65723 5.61426V2.74219C8.65723 2.33241 8.99057 2 9.40137 2Z" fill="#29B5E8"/>
</svg>
