<svg width="32" height="32" fill="none" xmlns="http://www.w3.org/2000/svg"><path d="m22.469 20.718-3.81-2.195a1.122 1.122 0 0 0-1.528.41c-.12.21-.167.441-.145.666v4.29a1.114 1.114 0 0 0 2.23 0v-2.467l2.134 1.23a1.12 1.12 0 0 0 1.53-.41 1.111 1.111 0 0 0-.411-1.524Zm-9.473-4.703a1.092 1.092 0 0 0-.547-.965L8.64 12.857a1.095 1.095 0 0 0-1.493.4 1.09 1.09 0 0 0 .4 1.49l2.196 1.263-2.196 1.265c-.253.145-.434.38-.509.661a1.08 1.08 0 0 0 .109.828 1.097 1.097 0 0 0 1.493.4l3.81-2.194a1.098 1.098 0 0 0 .546-.955Zm-3.491-4.712 3.809 2.193c.444.257.992.173 1.342-.168.222-.204.36-.495.36-.819V8.113a1.114 1.114 0 0 0-2.23 0v2.502L10.624 9.37a1.12 1.12 0 0 0-1.529.407 1.115 1.115 0 0 0 .41 1.526Zm8.565 4.89a.43.43 0 0 1-.109.261l-1.51 1.506a.428.428 0 0 1-.262.109h-.385a.429.429 0 0 1-.262-.109l-1.512-1.506a.43.43 0 0 1-.108-.262v-.383c0-.086.048-.202.108-.262l1.512-1.508a.43.43 0 0 1 .262-.108h.385c.084 0 .202.049.262.109l1.51 1.507c.06.06.109.176.109.262v.383Zm-1.348-.185v-.016a.319.319 0 0 0-.08-.193l-.445-.443a.305.305 0 0 0-.193-.08h-.016a.313.313 0 0 0-.193.08l-.445.443a.31.31 0 0 0-.08.193v.016a.31.31 0 0 0 .08.193l.445.444a.32.32 0 0 0 .193.08h.016c.063 0 .149-.036.193-.08l.446-.444a.31.31 0 0 0 .08-.193Zm1.938-2.512 3.809-2.193c.535-.308.72-.992.41-1.526a1.12 1.12 0 0 0-1.529-.407l-2.134 1.229V8.113a1.114 1.114 0 0 0-2.23 0v4.309a1.12 1.12 0 0 0 1.674 1.074Zm-4.583 4.898a1.113 1.113 0 0 0-.763.13l-3.81 2.194c-.535.308-.72.99-.41 1.524.31.535.994.718 1.53.41l2.163-1.246v2.483a1.114 1.114 0 0 0 2.23 0v-4.397c0-.555-.408-1.014-.94-1.098Zm10.772-5.15a1.12 1.12 0 0 0-1.529-.41l-3.809 2.194c-.365.21-.566.595-.56.987-.002.39.199.77.56.976l3.81 2.195c.534.308 1.219.125 1.528-.409a1.115 1.115 0 0 0-.41-1.525l-2.157-1.242 2.157-1.243c.537-.307.72-.99.41-1.523Z" fill="#29B5E8"/></svg>
