<svg width="16" height="16" viewBox="0 0 16 16" fill="none" xmlns="http://www.w3.org/2000/svg">
<path fill-rule="evenodd" clip-rule="evenodd" d="M11.0847 11.6515C11.055 11.5881 11.0417 11.5562 11.0257 11.5258C10.5967 10.7097 10.1688 9.89359 9.73538 9.07749C9.69193 8.99566 9.69744 8.94736 9.75688 8.87677C10.4395 8.07942 11.1134 7.27766 11.7971 6.48362C11.8213 6.45561 11.8428 6.42594 11.8518 6.37598C11.6533 6.42771 11.4548 6.47888 11.2552 6.53148C10.4314 6.74985 9.60094 6.9671 8.78485 7.18877C8.7082 7.2094 8.67346 7.18701 8.63486 7.12327C8.16726 6.34135 7.69635 5.55724 7.22323 4.78525C7.19908 4.74478 7.17272 4.70552 7.12111 4.67166C7.08317 4.8801 7.04479 5.08743 7.00752 5.29587C6.87628 6.03146 6.74504 6.76264 6.61491 7.50154C6.60068 7.58083 6.58127 7.66035 6.57443 7.73975C6.56792 7.81563 6.52877 7.84364 6.45974 7.86547C5.48814 8.17096 4.51874 8.47865 3.54825 8.78634C3.50568 8.79969 3.46388 8.81733 3.41812 8.85869C4.21216 9.1741 5.0062 9.48951 5.81127 9.81044C5.78193 9.83371 5.76252 9.85179 5.74102 9.86558C5.24474 10.1865 4.74736 10.5074 4.25219 10.8295C4.19275 10.8683 4.14577 10.8738 4.07904 10.8437C3.48572 10.5768 2.88798 10.3143 2.29245 10.0496C2.02556 9.93053 1.78625 9.77283 1.59987 9.54344C1.17748 9.02731 1.2613 8.4406 1.82375 8.07667C2.00792 7.95866 2.21746 7.87154 2.42589 7.80316C3.37764 7.49327 4.3338 7.1944 5.28224 6.89443C5.36231 6.86895 5.39914 6.83322 5.41458 6.74665C5.54251 6.00995 5.67375 5.26885 5.80719 4.54098C5.87821 4.14726 5.91571 3.74473 6.10716 3.383C6.1805 3.24404 6.26817 3.10839 6.37405 2.99259C6.75342 2.57131 7.28168 2.55587 7.68642 2.95642C7.82207 3.09207 7.93787 3.25088 8.03823 3.4152C8.47936 4.13535 8.91388 4.85992 9.3506 5.58779C9.40188 5.67348 9.44798 5.69068 9.54249 5.66576C10.6067 5.38012 11.671 5.0989 12.7407 4.81768C12.9613 4.75956 13.183 4.73849 13.409 4.78073C13.8998 4.87249 14.1149 5.24613 13.9483 5.72145C13.873 5.93761 13.7421 6.11957 13.5954 6.29272C12.8521 7.16727 12.1066 8.04623 11.3677 8.91747C11.3069 8.98893 11.3057 9.03988 11.3478 9.12039C11.7934 9.95965 12.2345 10.7967 12.6823 11.6459C12.7882 11.8466 12.8698 12.0561 12.872 12.2866C12.8771 12.8116 12.4926 13.2417 11.9709 13.3189C11.6787 13.3616 11.4074 13.2991 11.1328 13.2147C10.4656 13.0084 9.79835 12.8055 9.12562 12.6037C9.06353 12.5852 9.03982 12.5606 9.02868 12.4939C8.95192 12.0229 8.86767 11.5531 8.78606 11.0822C8.78397 11.0693 8.78782 11.0555 8.79003 11.0266C9.55209 11.2373 10.3119 11.4446 11.095 11.6619" fill="#E25A1C"/>
</svg>
