<svg width="32" height="32" fill="none" xmlns="http://www.w3.org/2000/svg"><path fill-rule="evenodd" clip-rule="evenodd" d="m21.265 19.856-.091-.193-1.99-3.772c-.067-.127-.059-.202.03-.31l3.148-3.696a.333.333 0 0 0 .084-.167l-.92.24-3.816 1.015c-.119.032-.172-.003-.232-.1L15.311 9.26a.522.522 0 0 0-.158-.176l-.175.964-.605 3.405-.063.368c-.01.12-.07.16-.176.194l-4.494 1.42a.497.497 0 0 0-.2.112l3.697 1.468-.108.085-2.3 1.487a.244.244 0 0 1-.267.021l-2.75-1.225c-.41-.18-.78-.427-1.069-.78-.65-.796-.523-1.703.346-2.254.284-.181.606-.317.928-.422l4.414-1.402c.12-.038.18-.094.203-.227l.601-3.406c.11-.606.168-1.232.463-1.785.114-.21.25-.423.411-.602.585-.65 1.4-.674 2.019-.056.208.209.39.455.543.707l2.014 3.347c.079.133.15.16.296.12l4.934-1.31c.34-.09.682-.122 1.03-.06.758.142 1.09.721.833 1.45-.117.33-.318.616-.541.882l-3.444 4.047c-.094.11-.096.19-.03.313l2.05 3.887c.163.31.288.633.291.989.008.81-.584 1.473-1.39 1.59-.45.067-.87-.03-1.292-.16l-3.096-.941c-.095-.029-.132-.066-.149-.17l-.373-2.176c-.004-.02.002-.041.005-.086l3.553.98" fill="#E25A1C"/><path d="m13.134 17.016.655.285-.728 5.801 3.98-4.412.672.188.826 2.513-1.074-.378-2.78 3s-1.243 1.287-1.917 1.07c-.673-.217-1.242-.817-1.305-1.89-.063-1.074-.348-4.14-.348-4.14l-1.358-.979 3.377-1.058Z" fill="#E25A1C"/><path d="M11.115 19.054s-.6 6.634.569 6.855c1.168.221-.127-.031-.127-.031s.664.758 3.285-2.054l2.623-2.811-5.245 3.095c.127-.158.664-5.528.664-5.528l-1.77.474Z" fill="#E25A1C"/></svg>
