<svg width="16" height="16" viewBox="0 0 16 16" fill="none" xmlns="http://www.w3.org/2000/svg">
<path d="M11.0811 2.53076H3.55156C3.0463 2.53076 2.63623 2.94449 2.63623 3.44609V11.75C2.63623 12.2552 3.04996 12.6653 3.55156 12.6653H8.51266C8.45774 10.1976 9.29985 5.40856 11.0829 2.52344L11.0811 2.53076Z" fill="#0F80CC"/>
<path d="M10.8062 2.80078H3.55125C3.19244 2.80078 2.90137 3.09369 2.90137 3.45067V11.1486C4.5453 10.517 7.01121 9.97332 8.71739 9.99895C9.24338 7.5532 9.94017 5.14778 10.8062 2.80078Z" fill="url(#paint0_linear_4832_12637)"/>
<path d="M12.8385 2.25961C12.3222 1.80194 11.698 1.98501 11.081 2.53055L10.8064 2.79782C9.75197 3.91453 8.79271 5.98684 8.47051 7.57036C8.5853 7.82116 8.67602 8.08228 8.74145 8.35023L8.78172 8.53329L8.822 8.72002C8.822 8.72002 8.81284 8.68341 8.7744 8.57357L8.74877 8.50034C8.74363 8.48678 8.73813 8.47335 8.73229 8.46007C8.66273 8.3008 8.476 7.96213 8.38996 7.81567C8.32336 8.01033 8.26049 8.20625 8.2014 8.40332C8.44305 8.84634 8.5895 9.60423 8.5895 9.60423C8.5895 9.60423 8.57669 9.5548 8.51628 9.38455C8.46136 9.23261 8.19408 8.76213 8.13184 8.65229C8.022 9.05503 7.97989 9.32597 8.01834 9.39188C8.09156 9.52002 8.16479 9.75801 8.22886 9.98501C8.32773 10.3876 8.40836 10.7944 8.47051 11.2042L8.47966 11.3177C8.46069 11.7755 8.46986 12.2341 8.50712 12.6907C8.55472 13.2637 8.64442 13.7562 8.75792 14.0198L8.83481 13.9777C8.67005 13.4578 8.60049 12.7786 8.62978 11.9932C8.67554 10.7942 8.95014 9.34794 9.4609 7.8413C10.3268 5.54748 11.5204 3.72048 12.6151 2.84908C11.6174 3.74977 10.2682 6.66419 9.86547 7.74245C9.4133 8.95069 9.09293 10.0857 8.89888 11.1713C9.23206 10.1534 10.3085 9.71407 10.3085 9.71407C10.3085 9.71407 10.8394 9.06236 11.4545 8.13055L10.2737 8.44542L9.89293 8.61384C9.89293 8.61384 10.8632 8.02254 11.6998 7.75343C12.8476 5.94657 14.098 3.37814 12.8385 2.25778" fill="#003B57"/>
<defs>
<linearGradient id="paint0_linear_4832_12637" x1="7.46155" y1="2.97103" x2="7.46155" y2="10.6854" gradientUnits="userSpaceOnUse">
<stop stop-color="#97D9F6"/>
<stop offset="0.92024" stop-color="#0F80CC"/>
<stop offset="1" stop-color="#0F80CC"/>
</linearGradient>
</defs>
</svg>
