<svg width="32" height="32" fill="none" xmlns="http://www.w3.org/2000/svg"><path d="M20.959 5.943H7.625A1.63 1.63 0 0 0 6 7.568v14.705a1.63 1.63 0 0 0 1.625 1.624h8.782c-.1-4.37 1.392-12.85 4.552-17.954Z" fill="#0F80CC"/><path d="M20.474 6.417H7.625c-.635 0-1.15.516-1.15 1.15V21.2c2.91-1.117 7.277-2.081 10.297-2.037.607-3.174 2.39-9.392 3.702-12.746Z" fill="url(#a)"/><path d="M24.069 5.462c-.914-.815-2.02-.488-3.11.48a7.703 7.703 0 0 0-.485.475c-1.867 1.98-3.6 5.648-4.138 8.45.21.425.374.968.482 1.382a12.867 12.867 0 0 1 .145.623s-.017-.064-.085-.263l-.045-.129a1.584 1.584 0 0 0-.03-.07c-.12-.284-.458-.881-.606-1.142-.127.374-.239.724-.333 1.041.428.783.69 2.125.69 2.125s-.023-.087-.131-.39c-.095-.269-.571-1.102-.684-1.297-.192.711-.269 1.192-.2 1.308.134.227.262.618.374 1.05.253.974.43 2.16.43 2.16l.015.2a19.84 19.84 0 0 0 .049 2.432c.084 1.015.242 1.886.443 2.353l.137-.075c-.296-.919-.416-2.123-.363-3.512.079-2.123.568-4.684 1.47-7.353 1.526-4.029 3.642-7.26 5.579-8.805-1.766 1.595-4.155 6.755-4.87 8.666-.8 2.14-1.368 4.148-1.71 6.072.59-1.803 2.498-2.579 2.498-2.579s.935-1.154 2.03-2.803c-.656.15-1.732.405-2.092.557-.531.223-.675.299-.675.299s1.722-1.048 3.199-1.523c2.031-3.2 4.244-7.744 2.016-9.732Z" fill="#003B57"/><defs><linearGradient id="a" x1="14.547" y1="6.72" x2="14.547" y2="20.378" gradientUnits="userSpaceOnUse"><stop stop-color="#97D9F6"/><stop offset=".92" stop-color="#0F80CC"/><stop offset="1" stop-color="#0F80CC"/></linearGradient></defs></svg>
