<svg width="16" height="16" viewBox="0 0 16 16" fill="none" xmlns="http://www.w3.org/2000/svg">
<path d="M9.5764 7.46484L6.94608 8.32374L4.65774 9.3337L4.01754 9.50271C3.8545 9.6578 3.68354 9.81488 3.49864 9.97393C3.29585 10.1489 3.10698 10.3079 2.96182 10.4232C2.80079 10.5505 2.56221 10.7891 2.44094 10.9401C2.26001 11.1668 2.11687 11.4073 2.05523 11.5923C1.94588 11.9263 1.99958 12.2642 2.21032 12.5764C2.48071 12.974 3.0195 13.3796 3.64774 13.6559C3.96785 13.7971 4.50663 13.978 4.9122 14.0794C5.58616 14.2504 6.89041 14.4353 7.60811 14.4632C7.75322 14.4691 7.94808 14.4691 7.95601 14.4632C7.97194 14.4532 8.08327 14.2405 8.21253 13.9761C8.65389 13.0754 8.97199 12.2305 9.14495 11.5088C9.24833 11.0714 9.32983 10.4889 9.38349 9.799C9.39743 9.60614 9.40338 8.95999 9.39145 8.74128C9.37354 8.38342 9.34173 8.09317 9.29207 7.80886C9.28411 7.7671 9.28209 7.72932 9.28609 7.72733C9.29402 7.72138 9.31787 7.71343 9.64195 7.61996L9.57637 7.46491V7.46486H9.5764V7.46484ZM8.97599 7.81677C8.99984 7.81677 9.06344 8.42712 9.07934 8.81284C9.08334 8.89435 9.08132 8.94803 9.07736 8.94803C9.06147 8.94803 8.74136 8.75917 8.51276 8.61603C8.31393 8.49077 7.9362 8.24025 7.87656 8.19254C7.85664 8.17863 7.85862 8.17665 8.02167 8.12097C8.298 8.02751 8.95412 7.81677 8.97599 7.81677ZM7.63597 8.25815C7.65388 8.25815 7.69957 8.28397 7.80893 8.35158C8.21848 8.60805 8.77518 8.91821 9.01375 9.02161C9.0873 9.05341 9.09523 9.04147 8.92627 9.1568C8.56442 9.40332 8.11309 9.64586 7.56038 9.89041C7.46298 9.93416 7.38147 9.96794 7.37949 9.96794C7.37553 9.96794 7.38743 9.91827 7.40331 9.85861C7.53653 9.36352 7.61209 8.86253 7.61609 8.46092C7.61807 8.26209 7.61807 8.26209 7.63597 8.25616C7.63197 8.25815 7.63395 8.25815 7.63597 8.25815ZM7.35963 8.36351C7.37152 8.37542 7.36359 8.82078 7.34767 8.94205C7.31189 9.23233 7.25622 9.50271 7.1648 9.80692C7.14292 9.88043 7.12301 9.9421 7.11908 9.94607C7.11108 9.95599 6.83871 9.68959 6.74924 9.58621C6.59416 9.40727 6.47291 9.22833 6.38344 9.05339C6.33771 8.96392 6.26615 8.78898 6.2721 8.783C6.30391 8.76114 7.35167 8.35557 7.35963 8.36351ZM6.05936 8.87445C6.06134 8.87445 6.06332 8.87445 6.06533 8.87643C6.06929 8.88041 6.08324 8.91224 6.09517 8.94801C6.15877 9.12098 6.30189 9.37546 6.42519 9.5385C6.56038 9.71744 6.73734 9.90828 6.88443 10.0335C6.93217 10.0733 6.97588 10.1111 6.98183 10.117C6.99378 10.129 6.99775 10.127 6.67367 10.2503C6.29796 10.3934 5.88837 10.5365 5.41916 10.6876C5.30707 10.7238 5.19509 10.7602 5.08321 10.797C5.06529 10.803 5.07127 10.793 5.12296 10.7115C5.35556 10.3477 5.70944 9.63393 5.90827 9.12893C5.94207 9.04145 5.97586 8.95399 5.98184 8.9341C5.9898 8.90625 5.99972 8.89632 6.02555 8.88239C6.03947 8.87845 6.05341 8.87445 6.05936 8.87445ZM5.66176 9.03947C5.66771 9.04347 5.56631 9.25618 5.46691 9.45102C5.27405 9.82677 5.06331 10.1966 4.781 10.6459C4.73328 10.7234 4.68757 10.795 4.68159 10.803C4.67167 10.8169 4.66767 10.8129 4.63586 10.7513C4.56827 10.6181 4.51258 10.4471 4.48277 10.29C4.45293 10.1349 4.45891 9.86455 4.49272 9.69755C4.51854 9.5743 4.51658 9.57629 4.57622 9.54646C4.8307 9.41723 5.65381 9.03152 5.66176 9.03947ZM9.09129 9.17866V9.26215C9.09129 9.70551 9.04358 10.3139 8.97397 10.7573C8.96204 10.8348 8.95207 10.8984 8.95012 10.9004C8.95012 10.9004 8.89247 10.8845 8.82487 10.8646C8.52666 10.7711 8.20259 10.634 7.91032 10.473C7.71744 10.3676 7.43713 10.1946 7.4451 10.1866C7.44705 10.1847 7.53058 10.1409 7.62798 10.0892C8.0177 9.88644 8.39144 9.66774 8.71551 9.45103C8.8368 9.36951 9.01967 9.23832 9.05948 9.20252L9.09129 9.17866ZM4.16068 9.76711C4.16863 9.76711 4.16664 9.78302 4.15471 9.85459C4.14676 9.9063 4.13683 10.0017 4.13288 10.0673C4.11693 10.3576 4.16468 10.5723 4.30782 10.8666C4.34758 10.9481 4.37942 11.0157 4.3774 11.0176C4.36347 11.0296 3.04735 11.4153 2.63379 11.5286C2.51053 11.5624 2.40319 11.5922 2.3952 11.5942C2.38131 11.5982 2.37931 11.5962 2.38527 11.5624C2.43099 11.2702 2.65367 10.8884 2.96381 10.5663C3.17059 10.3516 3.33561 10.2264 3.61792 10.0653C3.82071 9.95003 4.13285 9.77708 4.1567 9.7691C4.15672 9.76711 4.1587 9.76711 4.16068 9.76711ZM7.2622 10.3218C7.26418 10.3198 7.31189 10.3457 7.36954 10.3795C7.79501 10.626 8.38747 10.8547 8.89243 10.9719L8.93819 10.9819L8.87455 11.0176C8.61014 11.1648 7.74132 11.5266 6.85264 11.8587C6.72339 11.9063 6.59616 11.9541 6.57227 11.964C6.54842 11.9739 6.52654 11.9799 6.52654 11.9779C6.52654 11.9759 6.56235 11.9063 6.60805 11.8209C6.85657 11.3556 7.10709 10.789 7.23433 10.3954C7.25027 10.3576 7.26018 10.3238 7.2622 10.3218ZM6.94608 10.4252C6.9481 10.4272 6.93218 10.4689 6.91228 10.5167C6.73933 10.9362 6.51264 11.3935 6.22239 11.9064C6.14885 12.0376 6.0872 12.143 6.08518 12.143C6.08323 12.143 6.02356 12.1072 5.952 12.0635C5.53049 11.805 5.15673 11.4869 4.91221 11.1787L4.87641 11.135L5.05731 11.0853C5.70546 10.9083 6.25615 10.7175 6.80291 10.4829C6.88047 10.4511 6.9441 10.4252 6.94608 10.4252ZM8.91037 11.1111C8.91235 11.1568 8.81095 11.5664 8.72744 11.8626C8.65786 12.1111 8.59819 12.306 8.48887 12.6499C8.44116 12.801 8.39943 12.9263 8.39742 12.9263C8.39544 12.9263 8.38351 12.9243 8.37158 12.9203C7.78111 12.8129 7.25226 12.6638 6.75522 12.465C6.61603 12.4094 6.41723 12.3199 6.4053 12.31C6.40134 12.3059 6.52064 12.2503 6.67173 12.1847C7.57633 11.7891 8.51473 11.3397 8.8368 11.1469C8.87456 11.123 8.90439 11.1111 8.91037 11.1111ZM4.37542 11.2662C4.3794 11.2702 4.1269 11.634 3.77299 12.129C3.64974 12.302 3.5066 12.5048 3.45293 12.5803C3.39924 12.6559 3.31773 12.7752 3.272 12.8468L3.18846 12.976L3.09899 12.9005C2.99361 12.813 2.81073 12.6261 2.72922 12.5227C2.55822 12.31 2.44293 12.0853 2.3972 11.8806C2.37533 11.7851 2.37533 11.7374 2.39519 11.7314C2.425 11.7235 2.95584 11.5982 3.45291 11.4829C3.72926 11.4193 4.04933 11.3438 4.16464 11.3159C4.27997 11.288 4.37344 11.2662 4.37542 11.2662ZM4.62989 11.3636L4.69349 11.4352C4.97981 11.7553 5.27207 11.9919 5.62595 12.1986C5.68959 12.2344 5.73729 12.2662 5.73329 12.2683C5.71941 12.2782 4.50462 12.7096 3.94199 12.9044C3.62589 13.0157 3.36543 13.1052 3.36346 13.1052C3.36148 13.1052 3.34358 13.0933 3.32366 13.0794L3.2879 13.0535L3.34555 12.97C3.53242 12.6996 3.76706 12.4034 4.27801 11.7871L4.62989 11.3636ZM6.21645 12.4988C6.2184 12.4969 6.30589 12.5286 6.41323 12.5685C6.67173 12.6659 6.87647 12.7275 7.15086 12.7971C7.48885 12.8826 7.97792 12.9661 8.26622 12.9899C8.30996 12.9939 8.33382 12.9979 8.32586 13.0038C8.31192 13.0118 8.01969 13.1092 7.80497 13.1768C7.46298 13.2842 6.41922 13.5923 5.5683 13.8369C5.41124 13.8826 5.27603 13.9204 5.26809 13.9224C5.24823 13.9263 5.18259 13.9084 5.18259 13.9005C5.18259 13.8965 5.2303 13.8349 5.28797 13.7673C5.57424 13.4253 5.85858 13.0436 6.09517 12.6818C6.16076 12.5823 6.21645 12.5008 6.21645 12.4988ZM5.86651 12.5088C5.86849 12.5108 5.72734 12.7374 5.48084 13.1271C5.37544 13.2921 5.25814 13.479 5.21638 13.5446C5.17662 13.6082 5.11698 13.7076 5.08319 13.7633L5.02553 13.8647L4.99571 13.8567C4.92412 13.8369 4.42113 13.6599 4.28792 13.6062C4.12289 13.5406 3.95192 13.4611 3.82466 13.3935C3.66563 13.308 3.46683 13.1808 3.48272 13.1768C3.48669 13.1748 3.75908 13.1012 4.0871 13.0118C4.95792 12.7752 5.44102 12.638 5.75717 12.5386C5.81483 12.5207 5.86453 12.5068 5.86651 12.5088ZM8.34175 13.0893H8.34373C8.35169 13.1092 8.02963 14.0039 7.91228 14.2862C7.88647 14.3498 7.87656 14.3657 7.86262 14.3637C7.82881 14.3617 7.36162 14.2961 7.07728 14.2544C6.58226 14.1788 5.7512 14.0337 5.54246 13.986L5.49475 13.976L5.79094 13.9084C6.42717 13.7653 6.73334 13.6877 7.04348 13.5923C7.43515 13.473 7.82286 13.3239 8.21451 13.141C8.27613 13.1132 8.32783 13.0913 8.34175 13.0893Z" fill="url(#paint0_linear_4832_12574)"/>
<path d="M6.86454 1.33409C6.82079 1.32815 6.11498 1.58263 5.65971 1.76751C5.04536 2.01804 4.56823 2.25663 4.27398 2.46336C4.16465 2.54093 4.02744 2.67809 4.0056 2.73176C3.99765 2.75165 3.99365 2.7755 3.99365 2.79936L4.26008 3.05185L4.89428 3.25464L6.40329 3.52504L8.12898 3.82128L8.14688 3.67217C8.14093 3.67217 8.13694 3.67019 8.13102 3.67019L7.90431 3.63438L7.85862 3.55288C7.62401 3.13934 7.36555 2.62639 7.21446 2.28045C7.09718 2.01205 6.98583 1.70193 6.92418 1.47924C6.89038 1.34405 6.88642 1.3361 6.86458 1.33412V1.33408H6.86454V1.33409ZM6.83269 1.43551H6.83473C6.83668 1.43747 6.84464 1.49318 6.85261 1.55875C6.88637 1.83713 6.94806 2.10549 7.04546 2.39577C7.119 2.61447 7.119 2.60255 7.03353 2.57669C6.83074 2.52104 5.92217 2.36397 5.26409 2.27252C5.15871 2.2586 5.06924 2.24469 5.06924 2.24271C5.06129 2.23476 5.5444 1.98224 5.75713 1.88286C6.02951 1.75758 6.77704 1.44544 6.83269 1.43551ZM4.91613 2.32619L4.9937 2.35201C5.41515 2.49518 6.47481 2.69798 7.05936 2.74569C7.12495 2.75165 7.18064 2.75763 7.18259 2.75763C7.18457 2.75961 7.12894 2.78944 7.05735 2.82322C6.77506 2.96438 6.4649 3.13736 6.25017 3.27057C6.18657 3.31031 6.12889 3.34214 6.12096 3.34214C6.113 3.34214 6.07127 3.33419 6.02753 3.32822L5.948 3.31627L5.74921 3.12142C5.39929 2.78147 5.12492 2.51904 5.01954 2.41961L4.91613 2.32619ZM4.83663 2.38781L5.11695 2.73774C5.27002 2.93059 5.4251 3.11945 5.45893 3.16118C5.4927 3.20296 5.52055 3.23677 5.51857 3.23875C5.51061 3.24471 5.11301 3.16716 4.90224 3.11947C4.68553 3.06975 4.59607 3.04589 4.46287 3.00416L4.35351 2.96836V2.94051C4.35549 2.8073 4.5245 2.6085 4.81078 2.40572L4.83663 2.38781ZM7.21841 2.86497C7.22638 2.86497 7.23629 2.88286 7.26015 2.93654C7.32774 3.08564 7.53853 3.48726 7.59017 3.56479C7.60612 3.59066 7.63391 3.59264 7.35362 3.54691C6.67965 3.43754 6.46292 3.40179 6.46292 3.39781C6.46292 3.39583 6.4828 3.38191 6.50865 3.36798C6.71742 3.25269 6.92814 3.10555 7.11504 2.94848C7.16077 2.9107 7.20253 2.87492 7.21046 2.86894C7.21244 2.86497 7.21643 2.86299 7.21841 2.86497Z" fill="url(#paint1_linear_4832_12574)"/>
<path d="M4.01944 2.70312C4.01944 2.70312 3.97572 2.77274 4.01746 2.87613C4.04334 2.93973 4.11887 3.01725 4.20435 3.09679C4.20435 3.09679 5.08907 3.95964 5.19643 4.08292C5.6855 4.64754 5.89824 5.20422 5.91813 5.97166C5.93005 6.46471 5.83659 6.89813 5.60399 7.40113C5.19046 8.30376 4.31765 9.29982 2.97168 10.4052L3.16854 10.3396C3.29577 10.2442 3.46875 10.1428 3.87431 9.92013C4.81071 9.40715 5.86444 8.93597 7.15674 8.45087C9.0176 7.75102 12.0774 6.93189 13.819 6.66551L13.9999 6.63766L13.9721 6.59392C13.813 6.34738 13.7037 6.19431 13.5724 6.03128C13.1907 5.5581 12.7275 5.17441 12.1609 4.85629C11.3815 4.42091 10.3735 4.08094 9.09715 3.82844C8.85659 3.7807 8.32774 3.68926 7.8983 3.62366C6.98772 3.48253 6.39923 3.38509 5.75111 3.27376C5.51852 3.23398 5.17056 3.17435 4.93994 3.12465C4.82065 3.09878 4.59204 3.04511 4.4131 2.98348C4.26996 2.92779 4.06318 2.87212 4.01944 2.70312ZM4.53241 3.20018C4.53437 3.19822 4.56617 3.21011 4.60795 3.22404C4.6835 3.24985 4.78091 3.27969 4.89625 3.31152C4.98351 3.33552 5.07099 3.35871 5.15868 3.3811C5.27797 3.4109 5.37736 3.43874 5.37934 3.43874C5.39328 3.45267 5.59409 4.09479 5.66169 4.34133C5.68749 4.4348 5.70742 4.51431 5.70543 4.51431C5.70338 4.51632 5.68154 4.4825 5.65571 4.43678C5.42309 4.02722 5.05528 3.6117 4.62981 3.27768C4.57417 3.23795 4.53241 3.20216 4.53241 3.20018ZM5.51057 3.47057C5.52052 3.47057 5.56426 3.47653 5.61791 3.48845C5.9559 3.564 6.56229 3.67931 6.94997 3.74493C7.01558 3.75486 7.06729 3.76681 7.06729 3.77077C7.06729 3.77476 7.04341 3.78865 7.01357 3.80458C6.948 3.83836 6.68355 3.99541 6.5961 4.05507C6.37539 4.20219 6.1766 4.36124 6.03344 4.50438C5.97579 4.56204 5.92607 4.60976 5.92607 4.60976C5.92607 4.60976 5.91417 4.57597 5.90419 4.53419C5.83266 4.25784 5.68352 3.84827 5.54833 3.56001C5.52646 3.5143 5.50855 3.47254 5.50855 3.46858C5.50855 3.47255 5.50855 3.47057 5.51057 3.47057ZM7.23229 3.79861C7.24422 3.80257 7.2641 3.87018 7.30385 4.01928C7.37743 4.30758 7.41123 4.62965 7.3993 4.92986C7.39531 5.01336 7.39134 5.09089 7.38735 5.10085L7.3814 5.12071L7.27802 5.08693C7.06528 5.01933 6.71936 4.91791 6.42314 4.83443C6.25412 4.7887 6.11697 4.74695 6.11697 4.74298C6.11697 4.73103 6.36351 4.48451 6.46887 4.39108C6.66963 4.21411 7.21438 3.79263 7.23229 3.79861ZM7.36947 3.81847C7.37545 3.81254 8.19257 3.95366 8.56435 4.02524C8.84073 4.07891 9.24232 4.16243 9.26616 4.17238C9.27809 4.17634 9.23633 4.2002 9.10312 4.25984C8.57826 4.49645 8.18856 4.70915 7.80092 4.96763C7.69952 5.03523 7.61402 5.09089 7.61204 5.09089C7.61006 5.09089 7.60807 5.03325 7.60807 4.96365C7.60807 4.58592 7.53252 4.20419 7.39332 3.88211C7.37941 3.8503 7.36748 3.82048 7.36947 3.81847ZM9.48286 4.236C9.48884 4.24196 9.46297 4.40301 9.43912 4.49843C9.36755 4.79467 9.17471 5.23407 8.93815 5.64758C8.89636 5.72115 8.8586 5.78079 8.85459 5.78277C8.85066 5.78475 8.79697 5.75492 8.73532 5.71914C8.50471 5.58395 8.24228 5.45671 7.95597 5.33741C7.87647 5.30362 7.80687 5.27577 7.80488 5.27183C7.79094 5.25988 8.43113 4.83641 8.76912 4.63362C9.03753 4.4706 9.4749 4.22803 9.48286 4.236ZM9.63395 4.25985C9.65185 4.25985 10.0137 4.35926 10.2025 4.41493C10.6698 4.55411 11.2066 4.75093 11.5565 4.90997L11.7016 4.97561L11.6002 4.99944C10.7453 5.19626 10.0137 5.42294 9.3079 5.70922C9.25024 5.73307 9.19854 5.75296 9.19461 5.75296C9.19061 5.75296 9.21049 5.70724 9.23634 5.65155C9.44907 5.20025 9.58626 4.72906 9.62002 4.32743C9.62205 4.28965 9.62797 4.25985 9.63395 4.25985ZM6.03146 5.08693C6.03741 5.08095 6.31377 5.14657 6.46288 5.18829C6.68953 5.25193 7.17064 5.41295 7.17064 5.4249C7.17064 5.42688 7.11698 5.47261 7.05338 5.5283C6.79293 5.745 6.54241 5.97361 6.24218 6.26389C6.15271 6.34941 6.07718 6.41898 6.07322 6.41898C6.06923 6.41898 6.06727 6.40703 6.06923 6.39113C6.11495 6.05711 6.10504 5.62769 6.04141 5.19229C6.03542 5.1366 6.02947 5.08891 6.03146 5.08693ZM11.8388 5.0929C11.8428 5.09686 11.7116 5.30362 11.6281 5.42091C11.5088 5.59189 11.3338 5.81858 10.9382 6.3156C10.7294 6.57801 10.4948 6.87427 10.4173 6.97367C10.3377 7.07307 10.2722 7.15656 10.2701 7.15656C10.2682 7.15656 10.2424 7.12079 10.2145 7.07706C9.99182 6.74304 9.72539 6.45078 9.40928 6.18835C9.34964 6.13863 9.28406 6.08495 9.26218 6.06905C9.24031 6.05315 9.2224 6.03724 9.2224 6.03526C9.2224 6.02931 9.56036 5.88415 9.81687 5.78078C10.2662 5.59786 10.8785 5.37918 11.3378 5.23801C11.5784 5.16247 11.8348 5.08891 11.8388 5.0929ZM11.9919 5.13264C11.9998 5.13067 12.0476 5.15452 12.1052 5.18829C12.5884 5.46464 13.0615 5.82054 13.4353 6.18636C13.5407 6.28976 13.8011 6.56014 13.7971 6.56212C13.7971 6.56212 13.7057 6.57007 13.5983 6.57801C12.7613 6.64166 11.6897 6.81857 10.6598 7.06708C10.5903 7.08297 10.5287 7.0969 10.5247 7.0969C10.5207 7.0969 10.5982 7.01937 10.6957 6.92594C11.3 6.34342 11.5764 5.97562 11.9024 5.31951C11.9482 5.22212 11.9879 5.13862 11.9919 5.13264C11.9899 5.13264 11.9899 5.13264 11.9919 5.13264ZM7.5643 5.58596C7.59215 5.59189 7.85061 5.71322 8.04544 5.81061C8.22437 5.90004 8.49279 6.04322 8.5067 6.05513C8.50868 6.05711 8.41323 6.10682 8.29598 6.16449C7.92218 6.35137 7.6021 6.52829 7.26807 6.73109C7.17265 6.78876 7.09313 6.8365 7.09115 6.8365C7.08319 6.8365 7.08517 6.8285 7.13886 6.73109C7.3178 6.40507 7.46092 6.01539 7.54246 5.63564C7.55038 5.60582 7.55835 5.58596 7.5643 5.58596ZM7.30583 5.63366C7.31181 5.63963 7.24422 5.88415 7.20248 6.01737C7.12094 6.26986 6.98377 6.58597 6.85058 6.82455C6.81873 6.88019 6.77103 6.96172 6.74519 7.00744L6.6955 7.08696L6.58416 6.97963C6.45495 6.85437 6.34955 6.77683 6.21438 6.70723C6.16067 6.67942 6.11893 6.65554 6.11893 6.65159C6.11893 6.63568 6.45891 6.32752 6.71935 6.10485C6.90623 5.9438 7.29988 5.6277 7.30583 5.63366ZM8.88645 6.28379L8.98388 6.34739C9.2065 6.49255 9.46892 6.68538 9.66977 6.85437C9.78306 6.94779 10.0017 7.14465 10.0455 7.19236L10.0693 7.21823L9.90834 7.26394C8.99776 7.51641 8.29396 7.74108 7.47285 8.04329C7.3814 8.07708 7.30385 8.10491 7.29788 8.10491C7.28599 8.10491 7.27601 8.11484 7.48082 7.92596C8.0057 7.44288 8.4709 6.91003 8.81684 6.39112L8.88645 6.28379ZM8.47091 6.38717C8.47487 6.39113 8.20251 6.77483 8.03946 6.99155C7.84463 7.25001 7.49869 7.68342 7.26011 7.96571C7.16073 8.08304 7.07526 8.18045 7.07126 8.18245C7.06528 8.18443 7.0633 8.15461 7.0633 8.10888C7.0633 7.86829 7.00168 7.61182 6.89431 7.39315C6.84858 7.3017 6.84062 7.27982 6.85059 7.26989C6.88836 7.23608 7.4669 6.90605 7.83271 6.70924C8.07924 6.57802 8.4649 6.38319 8.47091 6.38717ZM5.95788 7.00349C5.96386 7.00349 6.00959 7.02733 6.06129 7.05518C6.18852 7.12476 6.30185 7.2023 6.40324 7.28582C6.4072 7.28978 6.35553 7.33155 6.28793 7.38122C6.09905 7.51641 5.81277 7.73314 5.64579 7.86635C5.47079 8.00552 5.46487 8.00949 5.48472 7.97967C5.61596 7.77887 5.68153 7.66554 5.75115 7.52042C5.81277 7.3912 5.87439 7.23811 5.91813 7.10489C5.93402 7.04724 5.95392 7.00349 5.95788 7.00349ZM6.62791 7.52835C6.63782 7.52639 6.64979 7.54426 6.70344 7.6238C6.81676 7.79276 6.90425 8.01944 6.92615 8.20234L6.93008 8.24212L6.65774 8.3475C6.17062 8.53635 5.72132 8.72325 5.4171 8.8624C5.33164 8.90218 5.18252 8.97373 5.08511 9.02148C4.98769 9.07115 4.90816 9.10893 4.90816 9.10695C4.90816 9.10497 4.96978 9.05924 5.04532 9.00356C5.63982 8.57215 6.15473 8.09895 6.54042 7.62579C6.58218 7.57607 6.61997 7.53034 6.62391 7.52836L6.62791 7.52835ZM6.31975 7.60391C6.32771 7.61186 6.10107 7.86832 5.94599 8.02538C5.56228 8.41707 5.18253 8.72325 4.71133 9.02148C4.65169 9.05924 4.59802 9.09303 4.59205 9.09703C4.57812 9.10497 4.59601 9.08508 4.80278 8.86042C4.93402 8.71925 5.03341 8.59997 5.14673 8.45287C5.22228 8.35547 5.2362 8.34154 5.34557 8.26397C5.63783 8.05322 6.31179 7.59594 6.31975 7.60391Z" fill="url(#paint2_radial_4832_12574)"/>
<defs>
<linearGradient id="paint0_linear_4832_12574" x1="3.97889" y1="13.1684" x2="4.93001" y2="12.6064" gradientUnits="userSpaceOnUse">
<stop stop-color="#909CA9"/>
<stop offset="1" stop-color="#EDEDEE"/>
</linearGradient>
<linearGradient id="paint1_linear_4832_12574" x1="4.00063" y1="2.57379" x2="4.76592" y2="2.57379" gradientUnits="userSpaceOnUse">
<stop stop-color="#939FAB"/>
<stop offset="1" stop-color="#DCDEE1"/>
</linearGradient>
<radialGradient id="paint2_radial_4832_12574" cx="0" cy="0" r="1" gradientTransform="matrix(-0.975733 -0.146566 -0.296425 1.95147 7.86228 6.08288)" gradientUnits="userSpaceOnUse">
<stop stop-color="#EE352C"/>
<stop offset="1" stop-color="#A91D22"/>
</radialGradient>
</defs>
</svg>
