<svg width="32" height="32" fill="none" xmlns="http://www.w3.org/2000/svg"><path d="m18.496 15.708-4.165 1.36-3.623 1.6-1.014.267c-.258.246-.528.494-.821.746-.321.277-.62.529-.85.711-.255.202-.633.58-.825.819-.286.359-.513.74-.61 1.033-.174.528-.089 1.064.245 1.558.428.63 1.281 1.271 2.276 1.709.507.224 1.36.51 2.002.67 1.067.271 3.132.564 4.268.608.23.01.539.01.551 0 .026-.016.202-.353.407-.771.698-1.426 1.202-2.764 1.476-3.907.164-.692.293-1.615.378-2.707.022-.305.031-1.328.012-1.675a11.757 11.757 0 0 0-.157-1.476c-.013-.066-.016-.126-.01-.129.013-.01.05-.022.564-.17l-.104-.245Zm-.95.558c.037 0 .138.966.163 1.577a.842.842 0 0 1-.003.214c-.025 0-.532-.3-.894-.526a23.932 23.932 0 0 1-1.007-.67c-.032-.022-.029-.026.23-.114a43.147 43.147 0 0 1 1.51-.481Zm-2.122.699c.028 0 .1.04.274.147.648.407 1.53.898 1.907 1.061.117.05.13.032-.138.214-.573.39-1.288.775-2.163 1.162-.154.07-.283.123-.287.123a.823.823 0 0 1 .038-.174c.211-.783.33-1.577.337-2.213.003-.314.003-.314.032-.324-.007.004-.004.004 0 .004Zm-.438.166c.019.02.006.724-.019.916a8.013 8.013 0 0 1-.362 1.59c-.012.016-.444-.406-.585-.57a4.262 4.262 0 0 1-.58-.843c-.072-.142-.185-.42-.176-.428.05-.035 1.71-.677 1.722-.665Zm-2.059.81c.004 0 .007 0 .01.002a.589.589 0 0 1 .047.114c.1.274.327.677.523.935a5.324 5.324 0 0 0 .88.916c.02.019.026.015-.487.21-.595.227-1.243.454-1.986.693l-.532.173c-.029.01-.02-.006.063-.135.368-.576.928-1.706 1.243-2.506.054-.138.107-.277.117-.308.012-.044.028-.06.069-.082a.3.3 0 0 1 .053-.013Zm-.63.26c.01.007-.15.344-.308.652-.305.595-.639 1.18-1.086 1.892a8.623 8.623 0 0 1-.157.249c-.016.022-.022.015-.072-.082a2.883 2.883 0 0 1-.243-.73 2.939 2.939 0 0 1 .016-.938c.04-.196.038-.192.132-.24.403-.204 1.706-.815 1.719-.802Zm5.43.22v.133a17.129 17.129 0 0 1-.223 2.594l-.198-.057a8.114 8.114 0 0 1-1.448-.62c-.305-.167-.75-.44-.737-.453.003-.003.136-.073.29-.154a18.564 18.564 0 0 0 1.722-1.01c.192-.13.482-.338.544-.394l.05-.038Zm-7.806.933c.013 0 .01.025-.01.138a4.448 4.448 0 0 0-.034.337c-.025.46.05.8.277 1.265.063.13.113.237.11.24-.022.019-2.106.63-2.76.809l-.378.104c-.022.006-.025.003-.016-.05.072-.463.425-1.068.916-1.578a4.07 4.07 0 0 1 1.036-.793c.32-.183.815-.457.853-.47 0-.002.003-.002.006-.002Zm4.91.878a1.27 1.27 0 0 1 .17.091c.674.39 1.612.753 2.412.938l.072.016-.1.057c-.419.233-1.795.806-3.202 1.331-.204.076-.406.151-.444.167a.224.224 0 0 1-.072.022c0-.003.057-.113.13-.249.393-.736.79-1.633.99-2.257.026-.06.042-.113.045-.116Zm-.5.164a.899.899 0 0 1-.053.144 19.953 19.953 0 0 1-1.093 2.2 8.346 8.346 0 0 1-.217.376c-.003 0-.097-.057-.21-.127-.668-.409-1.26-.912-1.647-1.4l-.057-.07.287-.078a20.552 20.552 0 0 0 2.764-.954c.122-.05.223-.091.226-.091Zm3.11 1.086s.004.003 0 0c.004.072-.157.72-.29 1.19a34.36 34.36 0 0 1-.522 1.684.213.213 0 0 1-.04-.01 13.159 13.159 0 0 1-2.56-.72 7.404 7.404 0 0 1-.554-.246c-.006-.006.183-.095.422-.198 1.432-.627 2.918-1.338 3.428-1.644a.41.41 0 0 1 .116-.056Zm-7.18.245c.006.006-.393.583-.954 1.366l-.507.715c-.085.12-.214.308-.286.422l-.132.204-.142-.12a5.24 5.24 0 0 1-.585-.597c-.271-.337-.454-.693-.526-1.017-.035-.151-.035-.227-.003-.236.047-.013.887-.211 1.674-.394a138.324 138.324 0 0 0 1.461-.343Zm.403.154.1.114a5.91 5.91 0 0 0 1.477 1.209c.1.056.176.107.17.11-.022.015-1.945.699-2.836 1.007-.5.176-.913.318-.916.318a.548.548 0 0 1-.063-.04l-.057-.042.091-.132c.296-.428.668-.897 1.477-1.873l.557-.67Zm2.512 1.798c.003-.003.142.047.312.11.409.154.733.252 1.168.362.535.136 1.31.268 1.766.305.069.007.107.013.094.023a22.01 22.01 0 0 1-.825.273 225.614 225.614 0 0 1-4.017 1.18c-.031.007-.135-.021-.135-.034 0-.006.076-.104.167-.21.453-.542.903-1.146 1.278-1.72.104-.157.192-.286.192-.29Zm-.554.016c.003.003-.22.362-.61.979-.168.26-.353.557-.42.66l-.21.347-.092.16-.047-.012a26.42 26.42 0 0 1-1.12-.397 7.81 7.81 0 0 1-.734-.336c-.252-.136-.567-.337-.541-.344.006-.003.437-.12.957-.26a78.224 78.224 0 0 0 2.644-.75c.091-.029.17-.05.173-.047Zm3.92.919h.002c.013.031-.497 1.448-.683 1.895-.04.1-.056.126-.079.123a64.28 64.28 0 0 1-1.243-.174c-.784-.12-2.1-.349-2.43-.424l-.076-.016.47-.107c1.007-.227 1.492-.35 1.982-.5a14.03 14.03 0 0 0 1.855-.715 1.53 1.53 0 0 1 .201-.082Z" fill="url(#a)"/><path d="M14.202 6c-.069-.01-1.187.394-1.907.686-.973.397-1.729.775-2.194 1.102-.174.123-.39.34-.425.425a.294.294 0 0 0-.02.107l.423.4 1.004.321 2.389.428 2.732.47.029-.237c-.01 0-.016-.003-.025-.003l-.36-.057-.072-.129a24.336 24.336 0 0 1-1.02-2.014 10.43 10.43 0 0 1-.46-1.269c-.053-.214-.059-.227-.094-.23Zm-.05.16h.003c.003.004.016.092.028.196.054.44.152.866.306 1.325.116.346.116.328-.02.287-.32-.088-1.759-.337-2.8-.482a4.15 4.15 0 0 1-.31-.047c-.012-.013.753-.413 1.09-.57.431-.198 1.615-.693 1.703-.708Zm-3.035 1.411.123.04c.668.228 2.345.549 3.27.624l.196.02c.003.002-.085.05-.198.103-.447.223-.938.497-1.278.708-.101.063-.193.114-.205.114-.013 0-.079-.013-.148-.022l-.126-.02-.315-.308c-.554-.538-.988-.954-1.155-1.111l-.164-.148Zm-.126.098.444.554c.243.305.488.604.542.67.053.066.097.12.094.123-.012.01-.642-.113-.976-.189a7.934 7.934 0 0 1-.695-.183l-.174-.056v-.044c.004-.211.271-.526.724-.847l.042-.028Zm3.772.755c.012 0 .028.028.066.113.107.236.44.872.522.995.025.041.07.044-.374-.028-1.067-.173-1.41-.23-1.41-.236 0-.003.03-.025.072-.048.33-.182.664-.415.96-.664l.151-.126c.003-.006.01-.01.013-.006Z" fill="url(#b)"/><path d="M9.698 8.169s-.07.11-.004.274c.041.1.161.223.296.35 0 0 1.401 1.365 1.571 1.56.774.895 1.111 1.776 1.143 2.991.019.78-.13 1.467-.498 2.263-.654 1.43-2.036 3.007-4.167 4.757l.311-.104c.202-.151.476-.312 1.118-.664 1.482-.812 3.15-1.558 5.197-2.326 2.946-1.109 7.791-2.405 10.549-2.827l.286-.044-.044-.07a9.696 9.696 0 0 0-.633-.89c-.604-.75-1.338-1.357-2.235-1.86-1.234-.69-2.83-1.229-4.85-1.628a54.28 54.28 0 0 0-1.899-.325 193.28 193.28 0 0 1-3.4-.554c-.368-.063-.919-.157-1.284-.236a8.155 8.155 0 0 1-.834-.223c-.227-.088-.554-.176-.623-.444Zm.812.787c.003-.003.053.016.12.038.119.04.273.088.456.138.138.038.277.075.415.11.19.048.347.092.35.092.022.022.34 1.038.447 1.429.04.148.072.274.069.274a.637.637 0 0 1-.079-.123c-.368-.649-.95-1.306-1.624-1.835a1.34 1.34 0 0 1-.154-.123Zm1.549.428c.015 0 .085.01.17.028.535.12 1.495.303 2.109.406a.77.77 0 0 1 .185.041.317.317 0 0 1-.085.054c-.104.053-.522.302-.66.396-.35.233-.665.485-.892.712-.09.091-.17.167-.17.167s-.018-.054-.034-.12a10.203 10.203 0 0 0-.564-1.542 1.338 1.338 0 0 1-.063-.145c0 .006 0 .003.004.003Zm2.726.52c.018.006.05.113.113.349a5.157 5.157 0 0 1 .132 1.712l-.01.032-.163-.054a49.736 49.736 0 0 0-1.354-.4 5.372 5.372 0 0 1-.484-.144c0-.02.39-.41.557-.557.318-.28 1.18-.948 1.208-.939Zm.217.03c.01-.009 1.303.215 1.892.328.437.085 1.073.217 1.11.233.02.007-.046.044-.257.139-.831.374-1.448.711-2.062 1.12-.16.107-.296.196-.3.196-.002 0-.005-.092-.005-.202 0-.598-.12-1.202-.34-1.712a.484.484 0 0 1-.038-.101Zm3.346.662c.01.01-.031.264-.07.415-.113.47-.418 1.165-.793 1.82-.066.117-.125.21-.132.214a1.344 1.344 0 0 1-.189-.1c-.365-.215-.78-.416-1.234-.605-.125-.054-.236-.098-.239-.104-.022-.019.992-.69 1.527-1.01.425-.259 1.117-.643 1.13-.63Zm.24.038c.027 0 .6.157.9.245.74.22 1.59.532 2.143.784l.23.104-.16.038c-1.354.311-2.513.67-3.63 1.124-.091.037-.173.069-.18.069a.814.814 0 0 1 .067-.16c.337-.715.554-1.461.607-2.097.003-.06.013-.107.022-.107Zm-5.705 1.31c.01-.01.447.094.683.16.36.1 1.12.356 1.12.374 0 .004-.084.076-.185.164-.412.343-.809.705-1.284 1.165a4.582 4.582 0 0 1-.268.245c-.006 0-.01-.019-.006-.044.072-.529.057-1.208-.044-1.898-.01-.088-.019-.164-.016-.167Zm9.195.009c.006.006-.201.333-.334.52-.188.27-.465.629-1.092 1.416-.33.415-.702.884-.825 1.042-.126.157-.23.29-.233.29-.003 0-.044-.057-.088-.127a6.505 6.505 0 0 0-1.275-1.407 7.296 7.296 0 0 0-.233-.189.348.348 0 0 1-.062-.053c0-.01.535-.24.94-.403.712-.29 1.682-.636 2.409-.86.38-.12.787-.236.793-.23Zm.243.063a.722.722 0 0 1 .179.088 10.672 10.672 0 0 1 2.679 2.175s-.145.013-.315.025c-1.325.1-3.022.381-4.652.774a6.16 6.16 0 0 1-.215.048c-.006 0 .117-.123.271-.27.957-.923 1.395-1.506 1.911-2.544a10.4 10.4 0 0 1 .142-.296c-.004 0-.004 0 0 0Zm-7.01.717c.043.01.453.202.761.356.283.142.708.368.73.387.003.003-.148.082-.333.173-.592.296-1.099.576-1.628.898-.15.09-.277.166-.28.166-.012 0-.01-.012.076-.166.283-.517.51-1.134.639-1.735.012-.047.025-.079.034-.079Zm-.41.076c.01.01-.098.397-.164.607-.129.4-.346.9-.557 1.278-.05.089-.126.218-.167.29l-.078.126-.177-.17a2.31 2.31 0 0 0-.585-.431.854.854 0 0 1-.151-.088c0-.025.538-.513.95-.866.296-.255.92-.755.929-.746Zm2.503 1.03.154.1c.352.23.768.535 1.086.803.18.148.526.46.595.535l.037.04-.254.073c-1.442.4-2.556.756-3.857 1.234a4.511 4.511 0 0 1-.277.098c-.018 0-.034.015.29-.284.831-.764 1.568-1.608 2.115-2.43l.11-.17Zm-.658.163c.006.006-.425.614-.683.957a42.64 42.64 0 0 1-1.234 1.542c-.158.186-.293.34-.3.343-.009.004-.012-.044-.012-.116 0-.38-.098-.787-.268-1.133-.072-.145-.085-.18-.069-.195.06-.054.976-.576 1.555-.888.39-.208 1.001-.516 1.01-.51Zm-3.98.976a3.461 3.461 0 0 1 .705.447c.007.006-.075.072-.182.15-.299.215-.752.558-1.016.769-.277.22-.287.227-.255.18.207-.319.311-.498.421-.728.098-.204.195-.447.265-.658a.537.537 0 0 1 .063-.16Zm1.062.83c.015-.002.034.026.12.152.179.267.317.626.352.916l.006.063-.431.167a38.96 38.96 0 0 0-1.964.815 35.9 35.9 0 0 0-.526.252c-.154.079-.28.139-.28.135 0-.003.097-.075.217-.163.941-.683 1.756-1.433 2.367-2.182.066-.079.126-.151.132-.154h.007Zm-.488.12c.012.013-.347.42-.592.668a10.438 10.438 0 0 1-1.955 1.577c-.094.06-.18.113-.189.12-.022.012.006-.02.334-.375.208-.223.365-.412.544-.645.12-.154.142-.177.315-.3.463-.333 1.53-1.057 1.543-1.044Z" fill="url(#c)"/><defs><linearGradient id="a" x1="9.633" y1="24.739" x2="11.139" y2="23.849" gradientUnits="userSpaceOnUse"><stop stop-color="#909CA9"/><stop offset="1" stop-color="#EDEDEE"/></linearGradient><linearGradient id="b" x1="9.668" y1="7.963" x2="10.88" y2="7.963" gradientUnits="userSpaceOnUse"><stop stop-color="#939FAB"/><stop offset="1" stop-color="#DCDEE1"/></linearGradient><radialGradient id="c" cx="0" cy="0" r="1" gradientUnits="userSpaceOnUse" gradientTransform="rotate(-171.457 8.396 6.17) scale(1.56224 3.12526)"><stop stop-color="#EE352C"/><stop offset="1" stop-color="#A91D22"/></radialGradient></defs></svg>
