<?xml version="1.0" encoding="utf-8"?>
<!-- Generator: Adobe Illustrator 26.2.1, SVG Export Plug-In . SVG Version: 6.00 Build 0)  -->
<svg version="1.1" id="Layer_1" xmlns="http://www.w3.org/2000/svg" xmlns:xlink="http://www.w3.org/1999/xlink" x="0px" y="0px"
	 viewBox="0 0 400 400" style="enable-background:new 0 0 400 400;" xml:space="preserve">
<style type="text/css">
	.st0{fill:#00A7B5;}
	.st1{fill:#253746;}
</style>
<path class="st0" d="M261.8,183.5L200.9,8.6h-0.2c-9.1,0-18.5,0.8-27.6,2.2l84.4,174.5C258.9,184.5,260.4,184.1,261.8,183.5"/>
<path class="st0" d="M248.4,191.6L107.2,33.1c-8.7,4.9-17,10.6-24.8,16.6l162.8,145.1C246.2,193.7,247.2,192.6,248.4,191.6"/>
<path class="st0" d="M238.9,204L34.5,105.2c-5.1,8.9-9.5,18.3-13,28l215.7,75.1C237.6,206.8,238.2,205.4,238.9,204"/>
<path class="st0" d="M234.8,221.5c0-0.8,0.2-1.6,0.2-2.2l-225.7-13c0.2,10.1,1.4,20.5,3.2,30.4L235,223.9
	C235,223.1,234.8,222.3,234.8,221.5"/>
<path class="st0" d="M237,234.6L39.4,303.4c5.3,8.1,11.2,16,17.7,23.3l181.8-87.9C238.2,237.7,237.6,236.3,237,234.6"/>
<path class="st0" d="M245.1,248.2L109.8,368.8c7.9,4.3,16,7.7,24.4,10.8l114.2-128.3C247.2,250.5,246,249.5,245.1,248.2"/>
<path class="st0" d="M257.5,257.8l-64.7,133.7c2.6,0.2,5.1,0.4,7.7,0.4c5.3,0,10.1-0.4,15.4-0.8l45.9-131.7
	C260.4,259,258.9,258.4,257.5,257.8"/>
<path class="st1" d="M275,261.8c-0.8,0-1.6-0.2-2.2-0.2l-6.9,118.5c6.1-2.2,12-4.7,17.9-7.5l-6.5-111
	C276.6,261.6,275.8,261.8,275,261.8"/>
<path class="st1" d="M301.8,251.5l54.2,60.7c2.6-3.9,5.3-7.7,7.9-11.8L305.2,248C304,249.5,303,250.5,301.8,251.5"/>
<path class="st1" d="M315.2,219.2c0,0.8,0.2,1.6,0.2,2.2s-0.2,1.6-0.2,2.2L390,228c0.6-4.5,1.2-8.9,1.6-13.4L315.2,219.2z"/>
<path class="st1" d="M305,194.9l73.7-65.5c-2.2-5.5-4.5-10.8-7.3-15.8l-69.6,78.1C303,192.6,304,193.7,305,194.9"/>
<path class="st1" d="M272.7,181.5c0.8,0,1.4-0.2,2.2-0.2s1.6,0.2,2.2,0.2l8.7-152.6c-7.3-3.7-15-6.9-22.7-9.5L272.7,181.5z"/>
<path class="st1" d="M288.4,259.4l31.5,90.7c4.3-3.4,8.3-6.9,12.2-10.8l-39.6-81.8C291,258.4,289.6,259,288.4,259.4"/>
<path class="st1" d="M311.3,239.1l67.2,32.5c1.6-4.1,3.2-8.1,4.5-12.4l-70-24.4C312.5,236.3,311.9,237.7,311.3,239.1"/>
<path class="st1" d="M312.9,208.3l78.3-27.2c-0.4-4.9-1.2-9.7-2.2-14.6l-77.9,37.7C311.9,205.4,312.5,206.8,312.9,208.3"/>
<path class="st1" d="M345.8,75.1c-4.7-5.3-9.3-10.3-14.6-15l-43,123.4c1.4,0.4,2.8,1,4.3,1.8L345.8,75.1z"/>
</svg>
