<svg width="16" height="16" viewBox="0 0 16 16" fill="none" xmlns="http://www.w3.org/2000/svg">
<path d="M9.92609 7.48864L8.00848 2H7.99996C7.71018 2 7.42041 2.02557 7.13916 2.06818L9.78973 7.5483C9.83234 7.52273 9.87496 7.50568 9.92609 7.48864Z" fill="#00A7B5"/>
<path d="M9.50009 7.73633L5.06827 2.76758C4.79554 2.92099 4.53134 3.09996 4.28418 3.28746L9.38929 7.8386C9.43191 7.80451 9.466 7.77042 9.50009 7.73633Z" fill="#00A7B5"/>
<path d="M9.20171 8.13619L2.78409 5.02539C2.62216 5.30664 2.4858 5.59641 2.375 5.90323L9.14205 8.26403C9.15909 8.22141 9.18466 8.1788 9.20171 8.13619Z" fill="#00A7B5"/>
<path d="M9.07386 8.68235C9.07386 8.65678 9.08239 8.63121 9.08239 8.61417L2 8.20508C2.00852 8.52894 2.04261 8.84428 2.10227 9.15962L9.07386 8.75053C9.07386 8.72496 9.07386 8.70792 9.07386 8.68235Z" fill="#00A7B5"/>
<path d="M9.14205 9.09961L2.9375 11.2559C3.09943 11.5115 3.28693 11.7587 3.49148 11.9888L9.19318 9.23597C9.18466 9.18484 9.15909 9.14222 9.14205 9.09961Z" fill="#00A7B5"/>
<path d="M9.39764 9.51758L5.15332 13.3017C5.40048 13.4295 5.65616 13.5488 5.92037 13.6426L9.49991 9.61985C9.46582 9.59428 9.43173 9.56019 9.39764 9.51758Z" fill="#00A7B5"/>
<path d="M9.78964 9.81445L7.76123 14.0162C7.84646 14.0162 7.92316 14.0247 8.00839 14.0247C8.17032 14.0247 8.33225 14.0162 8.48566 13.9991L9.926 9.87411C9.88339 9.85707 9.83225 9.84002 9.78964 9.81445Z" fill="#00A7B5"/>
<path d="M10.3354 9.94407C10.3099 9.94407 10.2843 9.93555 10.2673 9.93555L10.0542 13.66C10.2502 13.5918 10.4292 13.5151 10.6167 13.4213L10.4122 9.93555C10.3866 9.94407 10.361 9.94407 10.3354 9.94407Z" fill="#253746"/>
<path d="M11.1792 9.61914L12.8752 11.5282C12.9604 11.4089 13.0457 11.2896 13.1224 11.1618L11.2815 9.52539C11.2474 9.55948 11.2133 9.59357 11.1792 9.61914Z" fill="#253746"/>
<path d="M11.5967 8.61364C11.5967 8.6392 11.6052 8.66477 11.6052 8.68182C11.6052 8.69886 11.5967 8.73295 11.5967 8.75L13.949 8.88636C13.966 8.75 13.983 8.60511 14.0001 8.46875L11.5967 8.61364Z" fill="#253746"/>
<path d="M11.2812 7.84712L13.5909 5.79315C13.5227 5.62269 13.446 5.46076 13.3693 5.29883L11.1875 7.74485C11.2131 7.77042 11.2472 7.80451 11.2812 7.84712Z" fill="#253746"/>
<path d="M10.2673 7.4201C10.2928 7.4201 10.3184 7.41158 10.3354 7.41158C10.3525 7.41158 10.3866 7.4201 10.4036 7.4201L10.6764 2.63033C10.4462 2.51101 10.2076 2.41726 9.96045 2.33203L10.2673 7.4201Z" fill="#253746"/>
<path d="M10.7529 9.87535L11.7416 12.7219C11.8779 12.6197 11.9972 12.5004 12.1251 12.3896L10.8808 9.82422C10.8382 9.84126 10.7955 9.85831 10.7529 9.87535Z" fill="#253746"/>
<path d="M11.4771 9.22816L13.5822 10.2509C13.6333 10.123 13.6844 9.99521 13.7271 9.85884L11.5282 9.0918C11.5111 9.14293 11.4941 9.18555 11.4771 9.22816Z" fill="#253746"/>
<path d="M11.5282 8.27344L13.9827 7.42116C13.9657 7.26776 13.9401 7.11435 13.9146 6.96094L11.4771 8.13707C11.4941 8.17969 11.5111 8.2223 11.5282 8.27344Z" fill="#253746"/>
<path d="M12.5595 4.08789C12.4146 3.92596 12.2612 3.76403 12.1078 3.61914L10.7612 7.48846C10.8038 7.5055 10.855 7.52255 10.8976 7.5396L12.5595 4.08789Z" fill="#253746"/>
</svg>
