<svg width="32" height="32" fill="none" xmlns="http://www.w3.org/2000/svg"><path d="M9.876 13.197H5.75l-2.32 3.939-2.321-3.938H0L3.43 19l2.875-4.877h3.57v-.925Z" fill="#000"/><path d="M9.876 16.457v-.926h-4.1v3.222h4.1v-.926H6.743v-1.37h3.133ZM20.977 13.197h-.967v5.544h.967v-5.543ZM14.724 13.197v.013c.296.234.541.543.67.901h1.315v4.63h.967v-4.63h1.973v-.914h-4.925ZM14.492 18.753h.966L14.04 16.26c.606-.234 1.032-.802 1.032-1.469 0-.876-.735-1.58-1.65-1.58h-3.133v5.543h.966V16.37h1.896l1.34 2.383Zm-3.262-4.63h2.179c.386 0 .696.297.696.667 0 .37-.31.667-.696.667h-2.18v-1.334ZM28.403 13l-2.476 3.938c-.348.556-.98.914-1.701.914-1.096 0-1.986-.852-1.986-1.889s.89-1.889 1.986-1.889c.67 0 1.263.321 1.624.815l.516-.827c-.529-.556-1.302-.89-2.14-.89-1.625 0-2.927 1.26-2.927 2.803 0 1.544 1.315 2.803 2.927 2.803 1.07 0 1.998-.543 2.514-1.358l1.65-2.63 2.501 3.988L32 18.766 28.403 13Z" fill="#000"/></svg>
