<svg xmlns="http://www.w3.org/2000/svg" fill="none" viewBox="0 0 38 50">
  <g clip-path="url(#a)">
    <path fill="url(#b)" d="M22 1H5a4 4 0 0 0-4 4v40a4 4 0 0 0 4 4h28a4 4 0 0 0 4-4V16L22 1Z"/>
    <path stroke="#000" stroke-linejoin="round" stroke-opacity=".1" stroke-width=".5" d="M37.25 45A4.25 4.25 0 0 1 33 49.25H5A4.25 4.25 0 0 1 .75 45V5A4.25 4.25 0 0 1 5 .75h17l.049.005a.25.25 0 0 1 .128.068l15 15a.25.25 0 0 1 .073.177v29Z"/>
    <path fill="#E8B923" d="M17.276 24.93c.773-1.314 2.675-1.314 3.448 0l6.503 11.056C28.011 37.319 27.05 39 25.503 39H12.497c-1.547 0-2.508-1.68-1.724-3.014l6.503-11.055Z"/>
    <path fill="#fff" d="M18.25 33v-4a.75.75 0 0 1 1.5 0v4a.75.75 0 0 1-1.5 0Z"/>
    <circle cx="19" cy="35.75" r=".5" fill="#fff" stroke="#fff" stroke-width=".5"/>
    <g filter="url(#c)">
      <path fill="#fff" d="M36.83 15.83 22.17 1.17a.1.1 0 0 0-.17.071V12a4 4 0 0 0 4 4h10.759a.1.1 0 0 0 .07-.17Z"/>
    </g>
  </g>
  <defs>
    <linearGradient id="b" x1="19" x2="19" y1="1" y2="49" gradientUnits="userSpaceOnUse">
      <stop stop-color="#fff"/>
      <stop offset="1" stop-color="#F9FBFC"/>
    </linearGradient>
    <clipPath id="a">
      <path fill="#fff" d="M0 0h38v50H0z"/>
    </clipPath>
    <filter id="c" width="22.859" height="22.858" x="18" y="-1.858" color-interpolation-filters="sRGB" filterUnits="userSpaceOnUse">
      <feFlood flood-opacity="0" result="BackgroundImageFix"/>
      <feColorMatrix in="SourceAlpha" result="hardAlpha" values="0 0 0 0 0 0 0 0 0 0 0 0 0 0 0 0 0 0 127 0"/>
      <feOffset dy="1"/>
      <feGaussianBlur stdDeviation="2"/>
      <feComposite in2="hardAlpha" operator="out"/>
      <feColorMatrix values="0 0 0 0 0 0 0 0 0 0 0 0 0 0 0 0 0 0 0.1 0"/>
      <feBlend in2="BackgroundImageFix" result="effect1_dropShadow_10832_4920"/>
      <feColorMatrix in="SourceAlpha" result="hardAlpha" values="0 0 0 0 0 0 0 0 0 0 0 0 0 0 0 0 0 0 127 0"/>
      <feOffset dy=".5"/>
      <feComposite in2="hardAlpha" operator="out"/>
      <feColorMatrix values="0 0 0 0 0 0 0 0 0 0 0 0 0 0 0 0 0 0 0.05 0"/>
      <feBlend in2="effect1_dropShadow_10832_4920" result="effect2_dropShadow_10832_4920"/>
      <feBlend in="SourceGraphic" in2="effect2_dropShadow_10832_4920" result="shape"/>
    </filter>
  </defs>
</svg>
