<svg xmlns="http://www.w3.org/2000/svg" width="16" height="16" fill="none"><path fill="url(#a)" d="M11.636 9.94c.224 0 .448.053.648.13.323-.388.498-.829.498-1.27 0-.725-.474-1.425-1.32-1.969-.922-.57-2.167-.907-3.462-.907-1.32 0-2.54.311-3.462.907-.871.544-1.32 1.244-1.32 1.97 0 .44.175.88.498 1.27a1.92 1.92 0 0 1 .648-.13c.523 0 .996.207 1.37.596.249.259.423.596.523.933a7.71 7.71 0 0 0 1.768.207c.622 0 1.195-.078 1.768-.207.075-.363.25-.674.523-.933a1.771 1.771 0 0 1 1.32-.596ZM8 8.283c-.598 0-1.071-.492-1.071-1.114h2.142c0 .596-.473 1.114-1.071 1.114Z"/><path fill="url(#b)" d="M4.265 6.287c.1-.078.224-.13.324-.181a1.508 1.508 0 0 0-.897-.311c-.473 0-.921.207-1.22.622l-.124.155.846.674c.25-.337.623-.674 1.071-.959Z"/><path fill="url(#c)" d="M3.193 10.355c-.273-.388-.473-.803-.522-1.243-.025-.104-.025-.208-.025-.311 0-.519.149-1.011.473-1.452h-.1c-.847 0-1.519.7-1.519 1.581v.233h1.12a1.59 1.59 0 0 0-.522 1.011c-.05.415.05.83.299 1.166l.1.104c.099-.337.248-.648.497-.907.05-.052.125-.13.2-.182Z"/><path fill="url(#d)" d="m12.807 7.272.846-.674-.124-.181a1.478 1.478 0 0 0-1.22-.622c-.324 0-.648.103-.897.31.1.053.224.13.324.182.448.285.797.622 1.07.985Z"/><path fill="url(#e)" d="M14.475 8.93c0-.88-.672-1.58-1.519-1.58h-.1c.3.44.474.932.474 1.45 0 .104 0 .208-.025.312-.05.44-.224.855-.523 1.243.075.052.15.13.224.182.249.259.423.57.498.907l.1-.13c.249-.337.348-.751.298-1.166a1.717 1.717 0 0 0-.523-1.01H14.5l-.025-.208Z"/><path fill="url(#f)" d="M6.158 5.561c.847 0 1.519-.7 1.519-1.58 0-.881-.672-1.581-1.52-1.581-.846 0-1.518.7-1.518 1.58 0 .882.697 1.581 1.519 1.581Zm0-2.435c.025 0 .025 0 0 0a.638.638 0 0 0-.174.44c0 .337.273.622.597.622.15 0 .3-.078.424-.181 0 .492-.374.88-.847.88s-.847-.388-.847-.88c.025-.519.399-.881.847-.881Z"/><path fill="url(#g)" d="M9.818 5.561c.847 0 1.52-.7 1.52-1.58 0-.881-.698-1.581-1.52-1.581-.847 0-1.52.7-1.52 1.58 0 .882.673 1.581 1.52 1.581Zm0-2.435a.638.638 0 0 0-.174.44c0 .337.274.622.597.622.15 0 .3-.078.424-.181 0 .492-.374.88-.847.88a.897.897 0 0 1-.847-.906c0-.493.374-.855.847-.855Z"/><path fill="url(#h)" d="M4.339 10.382c-.847 0-1.52.7-1.52 1.58 0 .881.673 1.58 1.52 1.58.174 0 .349-.025.498-.103l-.05-.052c-.448-.466-.597-1.036-.323-1.321.273-.285.821-.104 1.27.337l.05.052c.05-.156.1-.337.1-.519-.026-.829-.698-1.554-1.545-1.554Z"/><path fill="url(#i)" d="M11.636 10.382c-.846 0-1.519.7-1.519 1.58 0 .182.025.363.1.518l.05-.051c.448-.467.996-.622 1.27-.337s.1.855-.324 1.321l-.05.052c.15.052.324.104.498.104.847 0 1.52-.7 1.52-1.58-.025-.882-.723-1.607-1.545-1.607Z"/><defs><linearGradient id="a" x1="5.285" x2="11.462" y1="12.61" y2="4.585" gradientUnits="userSpaceOnUse"><stop stop-color="#F70"/><stop offset=".742" stop-color="#FF3554"/></linearGradient><linearGradient id="b" x1="1.228" x2="7.405" y1="9.487" y2="1.461" gradientUnits="userSpaceOnUse"><stop stop-color="#F70"/><stop offset=".742" stop-color="#FF3554"/></linearGradient><linearGradient id="c" x1="1.93" x2="8.107" y1="10.028" y2="2.003" gradientUnits="userSpaceOnUse"><stop stop-color="#F70"/><stop offset=".742" stop-color="#FF3554"/></linearGradient><linearGradient id="d" x1="7.088" x2="13.265" y1="13.998" y2="5.972" gradientUnits="userSpaceOnUse"><stop stop-color="#F70"/><stop offset=".742" stop-color="#FF3554"/></linearGradient><linearGradient id="e" x1="8.918" x2="15.096" y1="15.407" y2="7.382" gradientUnits="userSpaceOnUse"><stop stop-color="#F70"/><stop offset=".742" stop-color="#FF3554"/></linearGradient><linearGradient id="f" x1="1.887" x2="8.064" y1="9.994" y2="1.969" gradientUnits="userSpaceOnUse"><stop stop-color="#F70"/><stop offset=".742" stop-color="#FF3554"/></linearGradient><linearGradient id="g" x1="4.247" x2="10.424" y1="11.811" y2="3.786" gradientUnits="userSpaceOnUse"><stop stop-color="#F70"/><stop offset=".742" stop-color="#FF3554"/></linearGradient><linearGradient id="h" x1="4.355" x2="10.533" y1="11.895" y2="3.87" gradientUnits="userSpaceOnUse"><stop stop-color="#F70"/><stop offset=".742" stop-color="#FF3554"/></linearGradient><linearGradient id="i" x1="9.092" x2="15.269" y1="15.54" y2="7.515" gradientUnits="userSpaceOnUse"><stop stop-color="#F70"/><stop offset=".742" stop-color="#FF3554"/></linearGradient></defs></svg>