<svg xmlns="http://www.w3.org/2000/svg" width="16" height="16" fill="none"><path fill="#0072C6" fill-rule="evenodd" d="M3.08 3.334v9.331c0 .97 2.156 1.755 4.815 1.755V3.334H3.08Z" clip-rule="evenodd"/><path fill="#0072C6" fill-rule="evenodd" d="M7.83 14.42h.065c2.66 0 4.815-.786 4.815-1.755v-9.33H7.83V14.42Z" clip-rule="evenodd"/><path fill="#fff" fill-rule="evenodd" d="M7.83 14.42h.065c2.66 0 4.815-.786 4.815-1.755v-9.33H7.83V14.42Z" clip-rule="evenodd" opacity=".15"/><path fill="#fff" fill-rule="evenodd" d="M12.71 3.334c0 .969-2.156 1.754-4.815 1.754-2.66 0-4.815-.785-4.815-1.754S5.236 1.58 7.895 1.58c2.659 0 4.815.785 4.815 1.754Z" clip-rule="evenodd"/><path fill="#7FBA00" fill-rule="evenodd" d="M11.726 3.233c0 .64-1.715 1.157-3.83 1.157-2.116 0-3.832-.517-3.832-1.157S5.78 2.076 7.895 2.076c2.116 0 3.83.518 3.83 1.157Z" clip-rule="evenodd"/><path fill="#B8D432" fill-rule="evenodd" d="M10.923 3.94c.501-.195.803-.44.803-.706 0-.64-1.715-1.158-3.831-1.158-2.116 0-3.83.518-3.83 1.158 0 .266.3.511.802.707.7-.274 1.795-.45 3.028-.45s2.327.176 3.028.45Z" clip-rule="evenodd"/><path fill="#fff" fill-rule="evenodd" d="M6.366 9.811c0 .29-.105.515-.314.674-.21.16-.498.239-.866.239-.314 0-.576-.057-.787-.17V9.87c.243.207.51.311.803.311.142 0 .25-.028.328-.085a.267.267 0 0 0 .115-.226.317.317 0 0 0-.11-.24c-.075-.07-.226-.157-.453-.265-.464-.219-.695-.518-.695-.895 0-.274.1-.494.303-.66.202-.166.47-.248.805-.248.297 0 .542.04.738.117v.637a1.197 1.197 0 0 0-.7-.213.516.516 0 0 0-.311.084.265.265 0 0 0-.114.225c0 .097.03.176.092.238s.187.138.378.229c.284.135.486.272.607.411.121.14.18.313.18.52Zm3.269-.69c0 .36-.081.672-.244.936-.162.264-.391.45-.686.556l.881.82h-.89l-.629-.71a1.469 1.469 0 0 1-.73-.215 1.345 1.345 0 0 1-.502-.548 1.694 1.694 0 0 1-.177-.777c0-.317.064-.6.191-.848.128-.248.308-.438.54-.572.231-.133.497-.2.796-.2.28 0 .53.064.752.194.22.13.392.313.514.552.123.239.184.51.184.812Zm-.72.038c0-.31-.067-.554-.202-.734a.65.65 0 0 0-.55-.27.69.69 0 0 0-.57.27c-.144.18-.215.421-.215.721 0 .299.07.537.21.715.14.178.325.268.557.268a.682.682 0 0 0 .562-.26c.138-.172.208-.408.208-.71Zm3.032 1.511h-1.81V7.614h.685v2.498h1.125v.558Z" clip-rule="evenodd"/></svg>