<svg xmlns="http://www.w3.org/2000/svg" width="16" height="16" fill="none"><path fill="#060606" d="M8.332 13.997c-2.826-.017-5.31-1.846-6.085-4.469-.95-3.236.92-6.507 4.215-7.312 2.483-.608 4.625.075 6.316 1.957 1.957 2.182 2.05 5.24.382 7.445-1.013 1.337-2.368 2.107-4.03 2.322-.202.029-.41.04-.613.057-.064.006-.122 0-.185 0ZM7.88 2.303c-.168 0-.342-.006-.51 0-.057 0-.162.017-.121.104.075.145.156.295.278.4.093.075.237 0 .353-.035l.834-.093h1.18c-.387-.203-.804-.272-1.22-.301-.267.017-.522-.116-.794-.075Zm-2.796.781c-.672.342-1.204.857-1.65 1.448-.753.995-1.112 2.148-1.089 3.398a5.492 5.492 0 0 0 1.13 3.283c.196.26.399.52.665.73.046-.07.029-.134.029-.186-.029-.336.087-.625.284-.886.075-.093.144-.185.225-.278.093-.11.105-.162-.063-.214-.672-.214-1.21-.614-1.552-1.25A.115.115 0 0 0 3 9.065c-.307-.133-.383-.388-.354-.695.058-.596.238-1.158.394-1.731a.543.543 0 0 1 .203-.29.949.949 0 0 0 .335-.48c.093-.266.278-.388.562-.388.139 0 .278-.006.417 0 .22.006.417-.035.573-.208.139-.018.197-.145.301-.209.295-.168.417-.422.423-.764.006-.318.133-.585.451-.735.174-.087.33-.197.475-.324.104-.093.168-.197.15-.348a.71.71 0 0 1 .099-.498c-.73.105-1.366.319-1.945.69Zm2.547 3.7c.33.006.573.15.793.341.406.348.51 1.309-.087 1.633-.532.29-1.082.469-1.696.417-.284-.023-.567-.052-.85-.081-.701-.07-1.396-.197-2.103-.093-.162.023-.208.064-.098.197.434.538.99.84 1.696.799.695-.035 1.39-.139 2.085-.012.787.145 1.395-.098 1.823-.781.052-.087.122-.174.238-.104.115.069.075.162.011.254-.365.573-.81 1.02-1.557 1.002-.116 0-.238.023-.36.035-.11.011-.208.046-.271.144-.14.209-.295.411-.388.649l-.73 1.876c-.052.133-.029.214.122.266a6.28 6.28 0 0 0 2.015.353 5.712 5.712 0 0 0 3.531-1.164c.064-.046.099-.092.07-.162-.174-.451-.052-.886.07-1.326.098-.358.167-.723.104-1.1-.064-.376-.058-.376-.365-.179-.26.174-.556.278-.845.388-.11.04-.267.058-.307-.04-.058-.14.121-.14.202-.18.238-.116.51-.174.718-.342.544-.44.805-1.042.898-1.72.046-.306.057-.619.086-.931.006-.058.012-.122.099-.122.087 0 .08.07.087.128.005.046-.006.092 0 .138.023.73-.133 1.442-.25 2.154-.115.747-.034 1.482.128 2.212.023.092.058.202.133.226.104.034.145-.093.197-.163a5.441 5.441 0 0 0 1.025-2.263c.133-.643.116-1.257-.22-1.853-.238-.423-.446-.857-.678-1.285-.474-.886-1.152-1.621-1.783-2.385-.19-.232-.405-.458-.683-.603-.04-.017-.081-.063-.127-.04-.064.035-.023.098-.018.145.087.347-.225.74-.561.862-.075.03-.168.064-.214-.023-.047-.087.057-.116.11-.162.225-.197.353-.521.295-.77-.168.081-.307.18-.388.347-.035.076-.087.215-.18.163-.11-.064-.052-.192.012-.284a.669.669 0 0 1 .208-.214c.087-.058.197-.064.284-.157a.578.578 0 0 0-.312-.07c-.626.007-1.251-.005-1.87.122-.197.035-.394.081-.55.22-.22.203-.47.377-.73.51-.11.058-.22.121-.18.272.035.139.151.208.29.226.058.006.133-.012.15.07.018.069-.057.098-.098.132-.41.301-.799.62-1.187.95-.249.214-.573.33-.897.318-.133-.005-.266 0-.4 0-.312 0-.382.093-.295.394.03.11.04.226-.058.313-.098.086-.202.08-.307-.006-.052-.04-.092-.023-.133.029-.092.11-.075.197.07.231.255.07.446-.063.625-.225.035-.035.081-.093.133-.053.058.041.023.099-.006.145-.11.214-.544.446-.787.417-.064-.006-.098 0-.116.07-.104.416-.237.827-.272 1.262-.035.44.07.526.504.428.718-.168 1.424-.214 2.142.012.388.121.799.133 1.21.086.475-.052.95-.133 1.343-.434a.633.633 0 0 0 .266-.469c.03-.283-.104-.486-.295-.665-.162-.163-.33-.307-.52-.475Zm-1.453 3.439v.005a2.24 2.24 0 0 0-.197-.011c-.307-.006-.62-.029-.857.226-.29.312-.515.66-.59 1.082-.128.666-.035.851.55 1.193l.185.11c.475.272.475.272.643-.237.08-.238.023-.406-.191-.545-.053-.034-.105-.052-.157-.08-.052-.03-.092-.064-.087-.122a.136.136 0 0 1 .105-.11c.185-.023.37-.087.55-.018.092.035.133.006.168-.07.19-.422.387-.839.584-1.261.04-.087.018-.116-.075-.122-.208-.011-.417-.029-.631-.04Zm5.014-6.896a14.465 14.465 0 0 1 2.5 3.463c.064-.927-1.586-3.214-2.5-3.463Z"/><path fill="#fff" d="M7.631 6.784c.191.168.359.312.527.469.19.18.318.382.295.665a.625.625 0 0 1-.266.47c-.4.3-.869.387-1.343.434-.406.04-.822.034-1.21-.087-.718-.226-1.43-.18-2.142-.012-.44.104-.539.018-.504-.428.035-.434.168-.845.272-1.262.017-.07.052-.076.116-.07.243.03.671-.197.787-.417.023-.046.058-.104.006-.144-.052-.04-.099.017-.133.052-.174.162-.365.295-.626.226-.144-.035-.162-.122-.069-.232.04-.052.081-.07.133-.029.104.081.209.093.307.006s.093-.203.058-.313c-.081-.3-.017-.393.295-.393.133 0 .266-.006.4 0 .33.011.654-.099.897-.319.382-.33.776-.648 1.17-.961.046-.035.115-.064.098-.133-.017-.075-.093-.058-.15-.07-.14-.017-.25-.086-.29-.225-.04-.15.07-.215.18-.272a3.58 3.58 0 0 0 .729-.51c.156-.139.353-.18.55-.22.614-.122 1.245-.11 1.87-.122a.59.59 0 0 1 .312.07c-.086.087-.196.098-.283.156a.816.816 0 0 0-.209.214c-.058.093-.121.22-.011.284.092.052.144-.087.18-.162.08-.174.225-.272.387-.347.058.249-.07.573-.295.77-.052.046-.156.075-.11.162.046.087.139.046.214.023.336-.116.649-.51.562-.863-.012-.046-.053-.11.017-.144.046-.024.087.023.127.04.278.145.487.37.684.602.63.77 1.308 1.505 1.783 2.385.231.429.44.863.677 1.286.336.596.353 1.21.22 1.852a5.441 5.441 0 0 1-1.025 2.264c-.052.07-.092.197-.197.162-.075-.023-.115-.133-.133-.226-.162-.73-.243-1.464-.127-2.211.11-.712.272-1.424.249-2.154 0-.046.006-.093 0-.139-.006-.058 0-.127-.087-.127s-.093.063-.098.121c-.03.313-.04.626-.087.932-.099.678-.353 1.28-.898 1.72-.208.168-.48.22-.717.341-.087.041-.261.041-.203.18.04.104.203.081.307.04.29-.11.585-.214.845-.387.307-.203.301-.203.365.18.063.381 0 .74-.105 1.1-.121.44-.243.873-.069 1.325.029.075-.006.116-.07.162a5.685 5.685 0 0 1-3.525 1.164 6.149 6.149 0 0 1-2.015-.354c-.15-.052-.174-.127-.121-.266.243-.625.48-1.25.729-1.876.093-.237.249-.44.388-.648.064-.093.162-.133.272-.145.122-.011.237-.034.359-.034.747.017 1.193-.429 1.557-1.002.058-.093.099-.185-.011-.255s-.186.018-.238.104c-.428.684-1.042.927-1.823.782-.695-.127-1.39-.023-2.085.012-.7.034-1.256-.267-1.696-.8-.11-.133-.064-.173.099-.196.706-.11 1.406.023 2.101.092.284.03.568.052.851.081.614.058 1.164-.127 1.697-.416.596-.325.492-1.286.086-1.633-.214-.174-.457-.324-.787-.324Zm.845-2.45c-.278-.005-.637.175-.805.389-.04.052-.057.11-.023.162.035.064.093.029.14 0 .069-.052.086.017.12.046.232.209.533.15.66-.121.047-.099.018-.232.175-.278.04-.012.023-.093-.035-.122a.52.52 0 0 0-.232-.075Zm-3.04 2.982c.174-.029.33-.08.43-.231.046-.07.046-.133-.007-.197-.057-.064-.104-.058-.173-.023a1.141 1.141 0 0 1-.296.11c-.254.029-.515.07-.706-.174-.04-.052-.075-.15-.162-.098-.081.052.006.133.017.197.006.04.053.075.081.11.209.26.539.231.817.306Zm-.312-1.14c-.127.017-.26.023-.278.19-.011.128.203.424.307.43.11.005.237-.151.232-.302-.006-.18-.116-.312-.26-.318Z"/><path fill="#fff" d="M6.178 10.217c.214.017.423.035.637.046.093.006.116.035.075.122-.197.422-.393.84-.584 1.262-.035.075-.076.104-.168.07-.18-.064-.365-.006-.55.017a.13.13 0 0 0-.105.11c-.011.058.035.098.087.121.047.03.11.047.157.081.214.14.272.307.19.545-.173.509-.173.509-.642.231l-.185-.11c-.585-.347-.678-.532-.55-1.192.08-.423.307-.776.59-1.083.232-.255.55-.232.857-.226.058 0 .127.006.191.006Z"/><path fill="#0F64F8" d="M7.017 2.39a.717.717 0 0 0-.098.497c.017.151-.04.255-.15.348a2.185 2.185 0 0 1-.47.324c-.318.15-.44.423-.451.735-.006.342-.128.597-.423.765-.11.057-.168.19-.3.208-.157.168-.354.214-.574.208-.139-.005-.278 0-.417 0-.284 0-.469.128-.561.388a1 1 0 0 1-.336.48.543.543 0 0 0-.203.29c-.15.573-.336 1.14-.394 1.731-.028.307.047.562.354.695a.115.115 0 0 1 .063.064c.336.637.875 1.036 1.552 1.25.168.052.156.104.064.215l-.226.277c-.203.26-.313.55-.284.886.006.058.017.116-.029.185-.266-.214-.469-.474-.666-.735A5.57 5.57 0 0 1 2.34 7.92c-.023-1.24.336-2.392 1.095-3.387.445-.59.978-1.106 1.65-1.448.579-.37 1.215-.584 1.933-.694Zm4.174.937a14.465 14.465 0 0 1 2.502 3.463c.063-.927-1.587-3.214-2.502-3.463ZM7.88 2.303c-.168 0-.342-.006-.51 0-.057 0-.162.017-.121.104.075.145.156.295.278.4.092.075.237 0 .353-.035l.834-.093h1.18c-.387-.203-.804-.272-1.22-.301-.267.017-.522-.116-.794-.075Z"/><path fill="#060606" d="M8.476 4.335a.515.515 0 0 1 .226.07c.064.034.075.11.035.12-.15.041-.128.18-.174.279-.127.272-.428.33-.66.121-.035-.029-.052-.098-.122-.046-.04.029-.098.07-.139 0-.034-.052-.017-.11.024-.162.173-.208.532-.382.81-.382Zm-3.04 2.981c-.277-.08-.607-.052-.821-.312-.03-.035-.076-.07-.081-.11-.012-.064-.099-.145-.018-.197.087-.052.122.052.162.098.191.244.452.203.707.174.104-.012.202-.064.295-.11.07-.035.121-.04.174.023a.15.15 0 0 1 .005.197c-.092.156-.249.208-.422.237Z"/><path fill="#060606" d="M5.124 6.176c.145 0 .255.139.26.318 0 .145-.121.307-.231.301-.104-.005-.318-.3-.307-.428.018-.168.15-.174.278-.191Z"/></svg>