<svg xmlns="http://www.w3.org/2000/svg" width="16" height="16" fill="none"><g clip-path="url(#a)"><mask id="b" width="167" height="217" x="-31" y="-21" maskUnits="userSpaceOnUse" style="mask-type:luminance"><path fill="#fff" d="M-30.771-20.602h166.764v215.82H-30.771v-215.82Z"/></mask><g fill="#0069FF" mask="url(#b)"><path d="M8 14v-2.323c2.466 0 4.373-2.441 3.431-5.034a3.48 3.48 0 0 0-2.075-2.075C6.764 3.628 4.324 5.534 4.324 8V8H2c0-3.929 3.796-6.988 7.912-5.702a5.8 5.8 0 0 1 3.79 3.79C14.988 10.205 11.928 14 8 14Z"/><path fill-rule="evenodd" d="M8.006 11.682H5.689V9.366h2.316v2.316ZM5.688 13.462h-1.78v-1.78h1.78v1.78ZM3.91 11.682H2.416v-1.493H3.91v1.493Z" clip-rule="evenodd"/></g></g><defs><clipPath id="a"><path fill="#fff" d="M0 0h16v16H0z"/></clipPath></defs></svg>