<svg xmlns="http://www.w3.org/2000/svg" width="16" height="16" fill="none"><path fill="url(#a)" fill-rule="evenodd" d="M10.391 4.081h1.382c1.23 0 2.227.998 2.227 2.227v4.859a2.228 2.228 0 0 1-2.227 2.226h-.109c-.632-.098-.907-.288-1.119-.448L8.79 11.5a.249.249 0 0 0-.311 0l-.571.47-1.608-1.322a.247.247 0 0 0-.31 0l-2.234 1.964c-.449.366-.746.298-.94.277A2.223 2.223 0 0 1 2 11.167V6.308c0-1.229.998-2.227 2.227-2.227h1.379l-.003.006-.046.135-.015.047-.062.277-.009.049-.027.278-.004.076v.027l.002.127.006.075.016.117.02.105.023.097.03.105.08.222.025.067.138.29.048.09.159.272.06.098.223.327.032.043.288.376.093.115.33.385.067.075.272.292.108.111.177.177-.035.03-.023.02a2.183 2.183 0 0 0-.244.272 1.233 1.233 0 0 0-.134.242.801.801 0 0 0-.051.235l-.001.07a.824.824 0 0 0 .217.534.809.809 0 0 0 .334.215c.127.043.26.058.394.045a.887.887 0 0 0 .449-.177.793.793 0 0 0 .25-.332.826.826 0 0 0 .059-.322l-.003-.057a.811.811 0 0 0-.096-.312 1.238 1.238 0 0 0-.15-.22 2.122 2.122 0 0 0-.19-.201l-.049-.041.082-.08.35-.366.12-.133.189-.211.122-.143.175-.213.118-.148.173-.232.088-.12.124-.186.103-.158.195-.34.112-.223.003-.006.085-.207a.078.078 0 0 0 .003-.008l.092-.287.01-.042.04-.228.008-.062.002-.038.003-.143-.001-.026-.007-.128-.01-.1-.045-.286a.11.11 0 0 0-.002-.012l-.058-.212-.02-.059-.027-.065Zm.657 6.06a.538.538 0 0 0-.527.527c.004.288.24.523.527.527a.538.538 0 0 0 .528-.527.538.538 0 0 0-.528-.528Z" clip-rule="evenodd"/><path fill="#24175B" fill-rule="evenodd" d="M6.81 13.393H4.228a2.217 2.217 0 0 1-1.411-.504c.193.021.49.089.94-.277l2.233-1.964a.247.247 0 0 1 .31 0l1.608 1.322.57-.47a.249.249 0 0 1 .312 0l1.756 1.445c.212.16.487.35 1.12.448h-1.17a.496.496 0 0 1-.286-.095l-.02-.016-1.547-1.284-1.526 1.284a.489.489 0 0 1-.305.111Zm4.238-3.253a.538.538 0 0 0-.527.528c.004.288.24.523.527.527a.538.538 0 0 0 .528-.527.538.538 0 0 0-.528-.528Zm-3.41-1.598-.178-.177-.108-.111-.272-.293-.067-.074-.33-.385-.093-.115-.288-.376-.032-.043-.222-.327-.06-.098-.16-.273-.048-.089-.138-.29-.026-.067-.079-.222-.03-.105-.023-.097-.02-.105-.016-.117-.006-.075-.003-.127.001-.027.004-.076.027-.278.009-.049.062-.277.015-.047.046-.135.015-.035.074-.163.051-.097.072-.118.071-.104.05-.067.06-.07.064-.071.055-.056.134-.118.098-.08.007-.006.116-.078.093-.059.175-.092.008-.004.248-.103.023-.009.221-.065.093-.02.126-.026.084-.012.128-.016.087-.008.174-.01h.068l.129.003.033.002.187.015.246.035.029.006.244.06.071.022.08.027.097.037.076.032.113.053.07.037.128.075.048.029.173.127.05.043.121.11.006.006.103.11.036.04.12.16.025.039.095.162.03.055.053.12.056.141.02.06.059.211a.074.074 0 0 1 .002.012l.046.286.009.1.007.128v.026l-.002.143-.002.038-.008.062-.04.228-.01.042-.092.287a.078.078 0 0 1-.003.008l-.085.207-.003.006-.112.223-.195.34-.103.158-.124.186-.088.12-.173.232-.118.148-.175.213-.122.143-.188.211-.121.133-.35.366-.082.08.048.041a2.138 2.138 0 0 1 .243.266 1.238 1.238 0 0 1 .14.246c.028.07.047.145.054.22l.003.058a.828.828 0 0 1-.06.322.793.793 0 0 1-.373.412.933.933 0 0 1-.719.052.85.85 0 0 1-.334-.215.795.795 0 0 1-.217-.534v-.07a.801.801 0 0 1 .09-.321 1.21 1.21 0 0 1 .17-.25c.053-.062.11-.122.17-.179l.023-.02.035-.03Z" clip-rule="evenodd"/><path fill="#fff" fill-rule="evenodd" d="m8.642 11.998 1.546 1.284a.497.497 0 0 0 .313.111H6.806c.113 0 .223-.039.31-.11l1.526-1.285Zm-.634-3.03.014.004.012.009.012.01a1.687 1.687 0 0 1 .14.146.908.908 0 0 1 .086.126.363.363 0 0 1 .017.037.24.24 0 0 1 .017.069v.044a.252.252 0 0 1-.12.196.34.34 0 0 1-.145.048l-.054.002-.046-.005a.352.352 0 0 1-.124-.043l-.035-.026a.246.246 0 0 1-.087-.168v-.042c0-.012.001-.023.004-.034a.355.355 0 0 1 .027-.071.657.657 0 0 1 .05-.082 1.273 1.273 0 0 1 .173-.191l.018-.016c.012-.009.012-.009.026-.013h.015ZM7.918 3.1h.005v4.92l-.012-.022a13.8 13.8 0 0 1-.452-.916 9.83 9.83 0 0 1-.307-.768 6.055 6.055 0 0 1-.185-.633 3.374 3.374 0 0 1-.08-.517 4.168 4.168 0 0 1 .035-.722 3.082 3.082 0 0 1 .094-.42 2.183 2.183 0 0 1 .144-.347c.095-.176.224-.338.392-.447a.821.821 0 0 1 .365-.128Zm.638.012.33.095c.155.056.301.13.437.222a1.75 1.75 0 0 1 .651.819 2.051 2.051 0 0 1 .135.72 1.377 1.377 0 0 1-.063.455 2.45 2.45 0 0 1-.085.246c-.041.1-.087.199-.137.295-.11.213-.237.417-.373.614a9.585 9.585 0 0 1-.538.702c-.207.246-.422.485-.646.716.152-.285.294-.575.425-.87.073-.164.142-.33.207-.498a7.78 7.78 0 0 0 .192-.56c.043-.141.08-.284.111-.429a3.54 3.54 0 0 0 .06-.376c.01-.105.015-.21.012-.316a4.505 4.505 0 0 0-.007-.194 3.315 3.315 0 0 0-.13-.767 2.228 2.228 0 0 0-.105-.277 1.478 1.478 0 0 0-.415-.552l-.061-.045Z" clip-rule="evenodd"/><path fill="url(#b)" fill-rule="evenodd" d="M10.39 4.081h1.382c1.23 0 2.227.998 2.227 2.227v4.858a2.228 2.228 0 0 1-2.227 2.226h-.109c-.632-.098-.907-.288-1.119-.448l-1.756-1.445a.248.248 0 0 0-.311 0l-.57.47-1.608-1.322a.248.248 0 0 0-.31 0L3.754 12.61c-.45.366-.746.298-.94.277A2.223 2.223 0 0 1 2 11.166V6.308c0-1.23.998-2.227 2.227-2.227h1.378l-.002.006-.047.135-.014.047-.063.277-.008.049-.028.278-.003.076v.027l.002.127.006.075.015.117.02.105.024.097.03.105.079.222.026.067.137.29.049.089.159.273.06.098.222.326.032.044.289.375.093.116.33.385.067.074.271.292.108.111.178.177-.036.03-.022.02a2.163 2.163 0 0 0-.245.273 1.21 1.21 0 0 0-.133.242.798.798 0 0 0-.052.234v.07a.806.806 0 0 0 .552.75c.125.042.26.057.392.044a.888.888 0 0 0 .45-.177.796.796 0 0 0 .249-.332.83.83 0 0 0 .06-.321l-.004-.058a.809.809 0 0 0-.095-.311 1.238 1.238 0 0 0-.15-.221 2.14 2.14 0 0 0-.191-.2l-.048-.042.081-.08.35-.365.12-.133.189-.212.122-.143.175-.212.118-.149.173-.232.088-.12.124-.185.104-.159.195-.34.111-.222.003-.007.086-.206a.06.06 0 0 0 .002-.009l.093-.286.01-.042.039-.228.008-.062.002-.038.003-.143v-.027l-.008-.128-.01-.1-.044-.286-.003-.011-.058-.212-.02-.059-.027-.065Zm.657 6.058a.537.537 0 0 0-.527.528.538.538 0 0 0 .527.527.538.538 0 0 0 .528-.527.538.538 0 0 0-.528-.528Z" clip-rule="evenodd"/><path fill="#24175B" fill-rule="evenodd" d="m7.209 13.203-.093.078a.488.488 0 0 1-.306.111H4.226a2.219 2.219 0 0 1-1.41-.504c.192.021.49.089.939-.277l2.233-1.964a.248.248 0 0 1 .31 0l1.608 1.322.57-.47a.249.249 0 0 1 .312 0l1.756 1.445c.212.16.486.35 1.119.448h-1.169a.497.497 0 0 1-.287-.095l-.02-.016-.087-.072a.169.169 0 0 0-.023-.023l-1.342-1.114a.147.147 0 0 0-.188 0s.003.005-1.32 1.114a.166.166 0 0 0-.018.017Zm3.838-3.064a.537.537 0 0 0-.528.528.538.538 0 0 0 .528.527.538.538 0 0 0 .528-.527.538.538 0 0 0-.528-.528Zm-3.41-1.598-.178-.177-.108-.11-.271-.293-.068-.074-.33-.385-.093-.116-.288-.375-.032-.044-.222-.326-.06-.098-.16-.273-.048-.09-.137-.29-.026-.066-.08-.222-.03-.105-.023-.097-.02-.105-.015-.117-.007-.075-.002-.127v-.027l.004-.076.027-.278.009-.049.063-.278.014-.046.046-.135.015-.035.074-.163.052-.097.071-.118.071-.104.051-.067.059-.07.064-.071.055-.056.134-.118.098-.08a.101.101 0 0 1 .007-.006l.116-.078.093-.059.175-.092.008-.004.248-.103.023-.009.221-.065.093-.02.126-.026.084-.012.128-.016.087-.008.174-.01h.068l.129.003.033.002.187.015.246.035.029.006.244.06.071.022.08.027.097.037.076.032.113.053.07.037.128.075.048.029.173.127.05.043.121.11.006.006.103.11.035.04.12.16.025.039.096.162.029.055.054.12.056.141.02.059.059.212a.093.093 0 0 1 .002.011l.045.287.01.1.007.127v.027l-.002.143-.003.038-.007.062-.04.228-.01.042-.092.286a.077.077 0 0 1-.003.009l-.085.206-.003.007-.112.223-.195.34-.103.158-.124.185-.088.12-.173.232-.119.149-.174.212-.122.143-.188.212-.121.133-.35.365-.082.08.048.041a2.142 2.142 0 0 1 .243.267 1.237 1.237 0 0 1 .14.245c.028.07.047.146.054.221l.003.058a.829.829 0 0 1-.06.321.795.795 0 0 1-.373.412.935.935 0 0 1-.719.052.856.856 0 0 1-.334-.215.796.796 0 0 1-.217-.534v-.07a.798.798 0 0 1 .09-.32 1.225 1.225 0 0 1 .17-.25c.053-.063.11-.123.17-.18l.023-.02.035-.029Z" clip-rule="evenodd"/><path fill="#fff" fill-rule="evenodd" d="m7.116 13.281 1.432-1.208a.146.146 0 0 1 .187 0l1.453 1.208a.496.496 0 0 0 .312.111H6.805a.49.49 0 0 0 .311-.11Zm.891-4.313.014.004.013.008.011.01a1.632 1.632 0 0 1 .14.146.879.879 0 0 1 .086.127.362.362 0 0 1 .017.036.238.238 0 0 1 .018.069v.044a.252.252 0 0 1-.12.196.343.343 0 0 1-.145.048l-.055.002-.046-.004a.35.35 0 0 1-.123-.044l-.036-.026a.247.247 0 0 1-.086-.168l-.002-.042a.238.238 0 0 1 .032-.105.645.645 0 0 1 .05-.082c.052-.068.11-.133.173-.191l.018-.016c.012-.008.012-.008.026-.012h.015ZM7.917 3.1h.005v4.92l-.012-.023c-.162-.3-.313-.605-.452-.916a9.8 9.8 0 0 1-.307-.768 6.055 6.055 0 0 1-.184-.632 3.371 3.371 0 0 1-.081-.517 4.169 4.169 0 0 1 .035-.722 3.065 3.065 0 0 1 .094-.42 2.163 2.163 0 0 1 .144-.347c.095-.176.224-.338.393-.447a.82.82 0 0 1 .365-.128Zm.638.012.33.095c.155.056.301.13.437.222a1.749 1.749 0 0 1 .652.819 2.056 2.056 0 0 1 .134.72 1.323 1.323 0 0 1-.062.455 2.541 2.541 0 0 1-.086.246c-.041.1-.087.198-.136.294-.11.213-.238.417-.374.614a9.547 9.547 0 0 1-.538.703c-.206.246-.422.485-.646.715.152-.284.294-.574.425-.87.073-.163.142-.33.207-.497.071-.184.135-.371.193-.56.042-.141.08-.285.11-.43a3.53 3.53 0 0 0 .06-.375c.011-.105.015-.21.012-.316a4.516 4.516 0 0 0-.007-.194 3.315 3.315 0 0 0-.13-.767 2.255 2.255 0 0 0-.105-.277 1.48 1.48 0 0 0-.415-.552l-.061-.045Z" clip-rule="evenodd"/><defs><radialGradient id="a" cx="0" cy="0" r="1" gradientTransform="matrix(8.69295 0 0 8.69294 8.372 8.697)" gradientUnits="userSpaceOnUse"><stop stop-color="#BA7BF0"/><stop offset=".45" stop-color="#996BEC"/><stop offset="1" stop-color="#5046E4"/></radialGradient><radialGradient id="b" cx="0" cy="0" r="1" gradientTransform="translate(8.37 8.696) scale(8.69206)" gradientUnits="userSpaceOnUse"><stop stop-color="#BA7BF0"/><stop offset=".45" stop-color="#996BEC"/><stop offset="1" stop-color="#5046E4"/></radialGradient></defs></svg>