<svg xmlns="http://www.w3.org/2000/svg" width="16" height="16" fill="none"><path fill="#32C0ED" fill-rule="evenodd" d="M1.92 4.069C1.92 2.926 2.858 2 4.016 2h7.966c1.158 0 2.097.926 2.097 2.069v6.687c0 1.182-1.516 1.695-2.251.761L9.53 8.6v3.538C9.53 13.166 8.685 14 7.643 14H4.016c-1.158 0-2.096-.926-2.096-2.069V4.069Zm2.096-.414a.417.417 0 0 0-.419.414v7.862c0 .229.188.414.42.414h3.689c.116 0 .146-.093.146-.207V7.393c0-1.182 1.516-1.695 2.251-.762l2.299 2.918V4.07c0-.229.021-.414-.21-.414H4.016Z" clip-rule="evenodd"/><path fill="url(#a)" fill-rule="evenodd" d="M1.92 4.069C1.92 2.926 2.858 2 4.016 2h7.966c1.158 0 2.097.926 2.097 2.069v6.687c0 1.182-1.516 1.695-2.251.761L9.53 8.6v3.538C9.53 13.166 8.685 14 7.643 14H4.016c-1.158 0-2.096-.926-2.096-2.069V4.069Zm2.096-.414a.417.417 0 0 0-.419.414v7.862c0 .229.188.414.42.414h3.689c.116 0 .146-.093.146-.207V7.393c0-1.182 1.516-1.695 2.251-.762l2.299 2.918V4.07c0-.229.021-.414-.21-.414H4.016Z" clip-rule="evenodd"/><path fill="url(#b)" fill-opacity=".35" fill-rule="evenodd" d="M1.92 4.069C1.92 2.926 2.858 2 4.016 2h7.966c1.158 0 2.097.926 2.097 2.069v6.687c0 1.182-1.516 1.695-2.251.761L9.53 8.6v3.538C9.53 13.166 8.685 14 7.643 14H4.016c-1.158 0-2.096-.926-2.096-2.069V4.069Zm2.096-.414a.417.417 0 0 0-.419.414v7.862c0 .229.188.414.42.414h3.689c.116 0 .146-.093.146-.207V7.393c0-1.182 1.516-1.695 2.251-.762l2.299 2.918V4.07c0-.229.021-.414-.21-.414H4.016Z" clip-rule="evenodd"/><path fill="#63F655" d="M11.982 2c1.158 0 2.097.926 2.097 2.069v6.687c0 1.182-1.516 1.695-2.251.761L9.53 8.6v3.538C9.53 13.166 8.685 14 7.643 14c.116 0 .21-.093.21-.207v-6.4c0-1.182 1.515-1.695 2.25-.762l2.299 2.918V2.414a.417.417 0 0 0-.42-.414Z"/><defs><linearGradient id="a" x1="14.079" x2="3.545" y1="14" y2="1.863" gradientUnits="userSpaceOnUse"><stop stop-color="#2EF51C"/><stop offset="1" stop-color="#2EF51C" stop-opacity="0"/></linearGradient><linearGradient id="b" x1="14.079" x2="6.882" y1="14" y2="11.164" gradientUnits="userSpaceOnUse"><stop stop-opacity=".9"/><stop offset="1" stop-color="#1A1A1A" stop-opacity="0"/></linearGradient></defs></svg>