<svg xmlns="http://www.w3.org/2000/svg" width="16" height="16" fill="none"><path fill="#100F13" d="M2.056 7.135c-.029.2-.047.402-.056.604h9.115a1.088 1.088 0 0 0-.118-.173C9.44 5.553 8.601 5.727 7.402 5.676c-.4-.016-.671-.023-2.263-.023-.851 0-1.777.002-2.679.005-.117.315-.23.62-.284.869h4.67v.608h-4.79Zm9.13 1.213H2.006c.01.162.024.323.046.48h8.477c.378 0 .59-.214.659-.48Zm-8.658 2.14S3.933 13.938 7.994 14a6.002 6.002 0 0 0 5.46-3.512H2.527Z"/><path fill="#100F13" d="M7.994 2a6.002 6.002 0 0 0-5.228 3.054l2.375-.003c1.856 0 1.925.008 2.287.023l.224.008c.782.027 1.743.11 2.499.682.41.31 1.002.995 1.356 1.483.326.451.42.97.198 1.467-.204.456-.644.729-1.176.729H2.196s.05.21.124.442h11.374A5.982 5.982 0 0 0 14 8.003 6.005 6.005 0 0 0 7.994 2Z"/></svg>