<svg xmlns="http://www.w3.org/2000/svg" width="16" height="16" fill="none"><path fill="#8D40EE" d="M7.572 11.303A.731.731 0 0 1 6.89 10.3a.73.73 0 0 1 .673-.453h.901a.473.473 0 0 0 .475-.472V7.563c0-.4.326-.724.728-.724.402 0 .727.324.727.724v2.851a.947.947 0 0 1-.83.886h-1.99v.003Z"/><path fill="#8D40EE" d="M7.572 11.264H9.56a.9.9 0 0 0 .79-.848V7.563a.687.687 0 0 0-.688-.685.687.687 0 0 0-.688.685v1.81a.516.516 0 0 1-.514.512h-.898a.69.69 0 0 0-.688.686v.01a.691.691 0 0 0 .698.683ZM6.38 9.171a.726.726 0 0 1-.728-.724V5.596a.946.946 0 0 1 .829-.888h1.992a.737.737 0 0 1 .738.722.725.725 0 0 1-.728.735H7.58a.473.473 0 0 0-.475.472v1.811c0 .4-.325.723-.726.724Z"/><path fill="#8D40EE" d="M8.474 4.749H6.486a.899.899 0 0 0-.791.848V8.45a.684.684 0 0 0 .687.717.684.684 0 0 0 .688-.717V6.637a.506.506 0 0 1 .317-.472.513.513 0 0 1 .197-.038h.9a.69.69 0 0 0 .688-.684v-.01a.7.7 0 0 0-.698-.684Z"/><path fill="#8D40EE" d="M8.787 3.462c.762-.001 1.493.3 2.033.837a2.841 2.841 0 0 1 .836 2.023v5.488a.895.895 0 0 1-.76.728H7.229c-.76.001-1.49-.299-2.03-.835a2.843 2.843 0 0 1-.839-2.018V4.35a.893.893 0 0 1 .883-.893l3.545.006ZM8.8 2H5.187A2.285 2.285 0 0 0 2.9 4.277v5.435a4.274 4.274 0 0 0 1.264 3.034A4.324 4.324 0 0 0 7.217 14h3.82a2.268 2.268 0 0 0 2.079-2.012V6.28a4.27 4.27 0 0 0-1.266-3.03A4.32 4.32 0 0 0 8.8 2Z"/></svg>