<svg xmlns="http://www.w3.org/2000/svg" width="16" height="16" fill="none"><mask id="a" width="12" height="12" x="2" y="2" maskUnits="userSpaceOnUse" style="mask-type:luminance"><path fill="#fff" d="M14 2H2v12h12V2Z"/></mask><g mask="url(#a)"><mask id="b" width="12" height="12" x="2" y="2" maskUnits="userSpaceOnUse" style="mask-type:luminance"><path fill="#fff" d="M13.957 7.992C13.957 4.682 11.28 2 7.98 2 4.677 2 2 4.683 2 7.992v.015C2 11.317 4.677 14 7.979 14c3.301 0 5.978-2.683 5.978-5.993v-.015Z"/></mask><g mask="url(#b)"><path fill="url(#c)" d="M7.207 7.4v-.988a.222.222 0 0 0-.065-.157l-.853-.858-.595.659 1.39 1.395a.072.072 0 0 0 .123-.05Z"/><path fill="url(#d)" d="M5.323 9.785 3.647 8.106l-.6.653 2.218 2.223a.072.072 0 0 0 .123-.05v-.99a.223.223 0 0 0-.065-.157Z"/><path fill="#000" d="M7.556 2.036c-3.009.209-5.413 2.708-5.526 5.732a5.975 5.975 0 0 0 4.644 6.064l-3.642-3.655a.28.28 0 0 1-.081-.198l.003-1.18c0-.05.06-.075.094-.04l.599-.653a.097.097 0 0 1 0-.136l.576-.577a.096.096 0 0 1 .136 0l1.947 1.954c.083.083.13.195.13.313v2.038c0 .294.115.575.322.783l1.485 1.49a5.907 5.907 0 0 0 1.1-.152l-1.88-1.888a.499.499 0 0 1-.146-.352V9.61a1.22 1.22 0 0 0-.356-.86L4.986 6.764a.097.097 0 0 1 0-.136l.572-.573a.096.096 0 0 1 .136 0l.595-.659a.593.593 0 0 1-.032-.04c-.17-.23-.273-.61-.153-1.038.072-.274.222-.481.498-.732a.066.066 0 0 1 .087-.002l.716.622.14.123c.055.047.12.08.189.097l2.23.532c.026.006.05.02.069.038l2.29 2.293c.04.038.063.092.063.148v.487a.446.446 0 0 1-.055.215l-1.133 2.072a.199.199 0 0 1-.255.088l-.522-.229H8.51c-.123 0-.222.1-.222.223v.855c0 .117.046.23.129.314l1.978 2a5.98 5.98 0 0 0 3.535-5.464c0-3.442-2.897-6.204-6.376-5.963Z"/></g></g><defs><linearGradient id="c" x1="7.221" x2="6.257" y1="6.443" y2="6.428" gradientUnits="userSpaceOnUse"><stop stop-opacity="0"/><stop offset="1"/></linearGradient><linearGradient id="d" x1="5.368" x2="4.166" y1="9.555" y2="9.555" gradientUnits="userSpaceOnUse"><stop stop-opacity="0"/><stop offset=".96"/></linearGradient></defs></svg>