<svg width="64" height="56" viewBox="0 0 64 56" fill="none" xmlns="http://www.w3.org/2000/svg">
<g clip-path="url(#clip0_2621_842)">
<rect x="0.5" y="0.5" width="63" height="47" rx="7.5" fill="#EEF6FC"/>
<rect x="0.5" y="0.5" width="63" height="47" rx="7.5" stroke="#8FC1ED"/>
<path opacity="0.5" d="M7.01377 11.0626C7.01419 10.2859 7.42073 9.65603 7.9218 9.65576L24.0259 9.64712C24.527 9.64685 24.9329 10.2763 24.9324 11.0529L24.9317 12.4827C24.9313 13.2594 24.5247 13.8893 24.0236 13.8895L7.91953 13.8982C7.41845 13.8984 7.01259 13.269 7.01301 12.4924L7.01377 11.0626Z" fill="#8FC1ED"/>
<path opacity="0.5" d="M7.00939 18.8221C7.00981 18.0454 7.41635 17.4156 7.91742 17.4153L16.0829 17.4109C16.584 17.4106 16.9898 18.04 16.9894 18.8167L16.9887 20.223C16.9882 20.9997 16.5817 21.6295 16.0806 21.6298L7.91516 21.6342C7.41409 21.6345 7.00822 21.0051 7.00864 20.2284L7.00939 18.8221Z" fill="#8FC1ED"/>
<path opacity="0.5" d="M7.00547 26.5546C7.00589 25.7779 7.41243 25.1481 7.9135 25.1478L21.5226 25.1405C22.0237 25.1403 22.4296 25.7697 22.4291 26.5463L22.4284 27.9526C22.428 28.7293 22.0214 29.3592 21.5204 29.3594L7.91124 29.3667C7.41017 29.367 7.0043 28.7376 7.00472 27.9609L7.00547 26.5546Z" fill="#8FC1ED"/>
<path opacity="0.5" d="M7.00151 34.2916C7.00192 33.5149 7.40846 32.8851 7.90953 32.8848L15.1677 32.8809C15.6688 32.8806 16.0747 33.51 16.0742 34.2867L16.0735 35.693C16.0731 36.4697 15.6665 37.0995 15.1655 37.0998L7.90727 37.1037C7.4062 37.104 7.00034 36.4746 7.00075 35.6979L7.00151 34.2916Z" fill="#8FC1ED"/>
<path opacity="0.5" d="M57.6035 24.1784C57.6053 20.8371 56.5162 17.5898 54.5051 14.9401C52.494 12.2904 49.6734 10.3864 46.4807 9.52334C43.2879 8.66027 39.9015 8.88642 36.8466 10.1667C33.7917 11.447 31.239 13.7098 29.5846 16.6043C27.9301 19.4988 27.2662 22.8631 27.696 26.1756C28.1257 29.488 29.625 32.5634 31.9613 34.9247C34.2976 37.2861 37.3404 38.8014 40.6178 39.2358C43.8951 39.6702 47.2238 38.9992 50.0877 37.3271L45.5867 29.4427C44.4411 30.1115 43.1096 30.3799 41.7987 30.2062C40.4878 30.0324 39.2707 29.4263 38.3361 28.4817C37.4016 27.5372 36.8019 26.307 36.63 24.9821C36.4581 23.6571 36.7236 22.3114 37.3854 21.1536C38.0472 19.9958 39.0683 19.0906 40.2902 18.5785C41.5122 18.0664 42.8668 17.976 44.1439 18.3212C45.421 18.6664 46.5492 19.428 47.3536 20.4879C48.1581 21.5478 48.5937 22.8467 48.593 24.1832L57.6035 24.1784Z" fill="#8FC1ED"/>
<path opacity="0.5" d="M51.994 36.0067C54.7574 33.759 56.6458 30.5965 57.3252 27.079L48.4817 25.3434C48.2099 26.7504 47.4545 28.0154 46.3492 28.9145L51.994 36.0067Z" fill="#8FC1ED"/>
<path d="M20.2911 53.7822C20.3489 54.2162 19.7965 55.6534 18.8437 55.7656C17.8909 55.8778 16.8828 55.2402 16.8828 55.2402L15.9588 50.7049L11.5829 53.2376L15.7665 37.6243L23.4962 51.0458L19.5591 49.9909C19.6528 50.4139 20.2178 53.2308 20.2911 53.7822Z" fill="white"/>
<path fill-rule="evenodd" clip-rule="evenodd" d="M16.0913 40.1135L13.1081 51.247L16.6313 49.2078L17.7028 54.467C17.7028 54.467 18.2753 54.835 18.6286 54.715C18.9819 54.5951 19.3881 54.2718 19.3401 53.9113C19.1138 52.2095 18.2686 48.6522 18.2686 48.6522L21.5089 49.5204L16.0913 40.1135Z" fill="#1C6BB0"/>
</g>
<defs>
<clipPath id="clip0_2621_842">
<rect width="64" height="56" fill="white"/>
</clipPath>
</defs>
</svg>
