<svg xmlns="http://www.w3.org/2000/svg" width="96" height="96" viewBox="0 0 96 96" fill="none">
  <circle cx="48" cy="48" r="48" fill="currentColor" fill-opacity="0.05"/>
  <g filter="url(#filter0_d_9_27)">
    <path d="M64.7334 28.6039C65.5256 27.7986 66.8098 27.7988 67.6021 28.6039C68.3943 29.4093 68.3943 30.7147 67.6021 31.52L65.4307 33.7273L69.4062 37.7686L69.5462 37.927C70.195 38.7367 70.148 39.93 69.4062 40.6847L63.0957 47.1024C62.3529 47.8575 61.177 47.9029 60.3802 47.242L60.2244 47.1024L56.2489 43.0611L51.5893 47.7952C52.1044 48.5278 52.5415 49.3161 52.8863 50.1501C53.4966 51.6268 53.8135 53.2127 53.8188 54.8144C53.824 56.416 53.5185 58.0033 52.918 59.484C52.3176 60.9644 51.4352 62.3097 50.3214 63.442C49.2073 64.5746 47.8819 65.4711 46.4252 66.0816C44.9691 66.6917 43.4093 67.0051 41.8343 66.9999C40.2589 66.9946 38.6986 66.6723 37.2461 66.0521C35.7935 65.4317 34.4749 64.5257 33.3684 63.3856L33.3551 63.3695C31.179 61.0791 29.9732 58.0093 30.0005 54.8251C30.028 51.6414 31.2857 48.5965 33.5004 46.3452C35.7152 44.0939 38.7103 42.8152 41.8422 42.7873C44.3002 42.7655 46.6862 43.5188 48.689 44.9113L64.7334 28.6039ZM41.8792 46.9118C39.8108 46.93 37.8318 47.7745 36.3691 49.2613C34.9064 50.7483 34.0758 52.7599 34.0578 54.8627C34.04 56.9583 34.8302 58.9774 36.2581 60.4883L36.8313 61.0226C37.4293 61.5277 38.0984 61.9426 38.8177 62.2498C39.7768 62.6593 40.8073 62.8719 41.8475 62.8754C42.8877 62.8788 43.9183 62.6716 44.88 62.2686C45.8418 61.8654 46.7171 61.2737 47.4528 60.5259C48.1882 59.7781 48.7706 58.8881 49.1671 57.9104C49.5634 56.9329 49.7649 55.8851 49.7614 54.8278C49.7579 53.7702 49.5489 52.7229 49.146 51.7479C48.746 50.7804 48.1616 49.9039 47.429 49.1647L46.8479 48.6464C45.4415 47.5132 43.6892 46.896 41.8792 46.9118ZM59.1176 40.1423L61.6587 42.7255L65.1032 39.2266L62.5621 36.6435L59.1176 40.1423Z" fill="white" shape-rendering="crispEdges"/>
    <path d="M64.7334 28.6039C65.5256 27.7986 66.8098 27.7988 67.6021 28.6039C68.3943 29.4093 68.3943 30.7147 67.6021 31.52L65.4307 33.7273L69.4062 37.7686L69.5462 37.927C70.195 38.7367 70.148 39.93 69.4062 40.6847L63.0957 47.1024C62.3529 47.8575 61.177 47.9029 60.3802 47.242L60.2244 47.1024L56.2489 43.0611L51.5893 47.7952C52.1044 48.5278 52.5415 49.3161 52.8863 50.1501C53.4966 51.6268 53.8135 53.2127 53.8188 54.8144C53.824 56.416 53.5185 58.0033 52.918 59.484C52.3176 60.9644 51.4352 62.3097 50.3214 63.442C49.2073 64.5746 47.8819 65.4711 46.4252 66.0816C44.9691 66.6917 43.4093 67.0051 41.8343 66.9999C40.2589 66.9946 38.6986 66.6723 37.2461 66.0521C35.7935 65.4317 34.4749 64.5257 33.3684 63.3856L33.3551 63.3695C31.179 61.0791 29.9732 58.0093 30.0005 54.8251C30.028 51.6414 31.2857 48.5965 33.5004 46.3452C35.7152 44.0939 38.7103 42.8152 41.8422 42.7873C44.3002 42.7655 46.6862 43.5188 48.689 44.9113L64.7334 28.6039ZM41.8792 46.9118C39.8108 46.93 37.8318 47.7745 36.3691 49.2613C34.9064 50.7483 34.0758 52.7599 34.0578 54.8627C34.04 56.9583 34.8302 58.9774 36.2581 60.4883L36.8313 61.0226C37.4293 61.5277 38.0984 61.9426 38.8177 62.2498C39.7768 62.6593 40.8073 62.8719 41.8475 62.8754C42.8877 62.8788 43.9183 62.6716 44.88 62.2686C45.8418 61.8654 46.7171 61.2737 47.4528 60.5259C48.1882 59.7781 48.7706 58.8881 49.1671 57.9104C49.5634 56.9329 49.7649 55.8851 49.7614 54.8278C49.7579 53.7702 49.5489 52.7229 49.146 51.7479C48.746 50.7804 48.1616 49.9039 47.429 49.1647L46.8479 48.6464C45.4415 47.5132 43.6892 46.896 41.8792 46.9118ZM59.1176 40.1423L61.6587 42.7255L65.1032 39.2266L62.5621 36.6435L59.1176 40.1423Z" stroke="currentColor" stroke-opacity="0.14" stroke-width="1.5" stroke-linecap="round" stroke-linejoin="round" shape-rendering="crispEdges"/>
  </g>
  <defs>
    <filter id="filter0_d_9_27" x="29.25" y="27.25" width="42.5" height="41.5" filterUnits="userSpaceOnUse" color-interpolation-filters="sRGB">
      <feFlood flood-opacity="0" result="BackgroundImageFix"/>
      <feColorMatrix in="SourceAlpha" type="matrix" values="0 0 0 0 0 0 0 0 0 0 0 0 0 0 0 0 0 0 127 0" result="hardAlpha"/>
      <feOffset dx="1" dy="1"/>
      <feComposite in2="hardAlpha" operator="out"/>
      <feColorMatrix type="matrix" values="0 0 0 0 0.892879 0 0 0 0 0.892879 0 0 0 0 0.892879 0 0 0 1 0"/>
      <feBlend mode="normal" in2="BackgroundImageFix" result="effect1_dropShadow_9_27"/>
      <feBlend mode="normal" in="SourceGraphic" in2="effect1_dropShadow_9_27" result="shape"/>
    </filter>
  </defs>
</svg>
