<svg width="120" height="148" viewBox="0 0 120 148" fill="none" xmlns="http://www.w3.org/2000/svg">
<g opacity="0.6">
<path d="M27.1006 6C27.4142 14.3298 30.0085 21.8461 33.6826 25.6582C33.6295 26.5162 33.6025 27.383 33.6025 28.2568C33.6026 30.4692 33.7777 32.6341 34.1094 34.7344L20.5293 38.9141C18.4315 39.5597 17 41.4984 17 43.6934V61.0508C8.18071 56.3302 1.6679 46.693 0 35.1172C0.113641 35.1196 0.227578 35.1211 0.341797 35.1211C9.07036 35.1211 16.1464 28.0358 16.1465 19.2959C16.1465 18.6161 16.1036 17.9462 16.0205 17.2891C21.1542 15.0681 24.7287 11.1158 27.1006 6Z" fill="#F3F3F4"/>
<path d="M25.4043 17C25.6404 23.2715 27.5931 28.9307 30.3594 31.8008C30.3194 32.4467 30.2998 33.099 30.2998 33.7568C30.2998 34.4731 30.3237 35.1827 30.3711 35.8848L20.5293 38.9141C18.4315 39.5597 17 41.4984 17 43.6934V57.9971C10.7675 54.3024 6.20482 47.2837 5 38.9219C5.08557 38.9237 5.17181 38.9248 5.25781 38.9248C11.8292 38.9246 17.156 33.5907 17.1562 27.0107C17.1562 26.4991 17.124 25.9947 17.0615 25.5C20.9267 23.8278 23.6185 20.8517 25.4043 17Z" fill="#DCDFE0"/>
<path d="M23.0869 29C23.1979 31.9466 24.1153 34.6056 25.415 35.9541C25.3962 36.2575 25.3867 36.564 25.3867 36.873C25.3867 36.9523 25.3884 37.0314 25.3896 37.1104L19.5293 38.9141C17.4315 39.5597 16 41.4984 16 43.6934V45.418C14.7243 43.7278 13.835 41.6249 13.5 39.2998C13.5402 39.3007 13.5807 39.3008 13.6211 39.3008C16.7086 39.3007 19.2119 36.7947 19.2119 33.7031C19.2119 33.4627 19.1964 33.2256 19.167 32.9932C20.983 32.2075 22.2479 30.8096 23.0869 29Z" fill="#81898E"/>
<path fill-rule="evenodd" clip-rule="evenodd" d="M88 93.972C88 92.8647 88.8529 91.6828 89.892 91.3364L114.608 83.0977C115.653 82.7494 116.5 83.361 116.5 84.472V85.4622C116.5 86.5695 115.647 87.7514 114.608 88.0977L89.892 96.3364C88.8471 96.6847 88 96.0732 88 94.9622V93.972Z" stroke="#B7BCBF" stroke-width="2.5"/>
<path d="M106 60.5V59.8591C106 56.4689 102.698 54.0615 99.47 55.0989L67.47 65.3847C65.4022 66.0493 64 67.9728 64 70.1448V139.208C64 142.579 67.2669 144.984 70.4853 143.982L86.5 139" stroke="#B7BCBF" stroke-width="2.5"/>
<path opacity="0.5" d="M27 45L60 66" stroke="#B7BCBF" stroke-width="2.5" stroke-linecap="round"/>
<path opacity="0.5" d="M73 116L98 108" stroke="#B7BCBF" stroke-width="2.5" stroke-linecap="round"/>
<path opacity="0.5" d="M73 123L98 115" stroke="#B7BCBF" stroke-width="2.5" stroke-linecap="round"/>
<path opacity="0.5" d="M73 129L98 121" stroke="#B7BCBF" stroke-width="2.5" stroke-linecap="round"/>
<path d="M88 96L69.7168 83.9409C67.6158 82.5551 68.0523 79.3541 70.4476 78.5814L94.1721 70.9283C95.0141 70.6567 95.933 70.7706 96.6832 71.2395L115.5 83" stroke="#B7BCBF" stroke-width="2.5" stroke-linecap="round"/>
<path d="M106 76.5V58.331C106 56.5746 105.079 54.9471 103.572 54.0435L60.4249 28.155C59.2005 27.4203 57.7204 27.2442 56.3578 27.671L20.5054 38.9019C18.4196 39.5553 17 41.4877 17 43.6733V110.332C17 111.999 17.8313 113.557 19.2166 114.485L63.5198 144.173C64.7724 145.012 66.3369 145.242 67.7777 144.797L102.475 134.088C104.57 133.441 106 131.504 106 129.31V91" stroke="#B7BCBF" stroke-width="2.5"/>
</g>
</svg>
