<svg height="148" viewBox="0 0 120 148" width="120" xmlns="http://www.w3.org/2000/svg"><g fill="none" fill-rule="evenodd"><g transform="translate(1 10)"><path d="m52.6096525 55.9994765c-4.4762604 3.1742542-9.7223001 5.0005235-15.3312222 5.0005235-3.5667447 0-6.9867485-.7384992-10.15538-2.0925093-13.7242951-1.1694345-24.86455681-13.2928254-27.1230503-28.9675382.1136569.002415.22760902.0036285.34184422.0036285 8.72859909 0 15.80452678-7.0851557 15.80452678-15.8251382 0-.6797514-.0428019-1.3494928-.1258542-2.0066695 5.133692-2.22100428 8.7080588-6.17333029 11.0799954-11.28910777.3136078 8.32991042 2.9082948 15.84616507 6.5825125 19.65820437-.0531597.8579874-.0802014 1.7244272-.0802014 2.5982409 0 14.8994045 7.8620303 27.6549565 19.0068292 32.9203657z" fill="#f8f8f8" stroke="#e9e9e9" stroke-width="3"/><path d="m45.1096525 52.8001224c-3.3701633 2.3898866-7.3198911 3.7648794-11.5428321 3.7648794-2.6853916 0-5.2603024-.5560139-7.6459557-1.5754441-10.3329814-.8804638-18.7204516-10.0081292-20.4208647-21.8095743.08557194.0018183.17136616.0027319.25737351.0027319 6.57173659 0 11.89918169-5.3343929 11.89918169-11.9147 0-.5117828-.0322254-1.0160291-.0947552-1.5108155 3.8651415-1.6721876 6.5562718-4.6478822 8.3420958-8.499536.2361144 6.271565 2.1896467 11.930531 4.9559544 14.8006042-.0400238.6459762-.0603835 1.2983162-.0603835 1.9562079 0 11.2177178 5.9192995 20.8213353 14.3101858 24.7856465z" fill="#fff"/><path d="m31.1100006 43.7757643c-1.5834206 1.1228523-3.4391409 1.7688721-5.4232264 1.7688721-1.2616909 0-2.4714741-.2612348-3.5923375-.7401988-4.8547962-.4136727-8.7955231-4.7021692-9.5944367-10.246901.0402047.0008542.0805138.0012835.1209231.0012835 3.0876317 0 5.5906518-2.5062844 5.5906518-5.5979429 0-.2404535-.0151406-.4773661-.0445193-.709834 1.8159788-.7856523 3.0803659-2.1837377 3.9194085-3.9933794.1109349 2.9466007 1.0287726 5.6053809 2.3284808 6.9538417-.0188046.3035022-.0283703.6099943-.0283703.9190949 0 5.2704763 2.7810941 9.7825918 6.723426 11.6451639z" fill="#e9e9e9"/><path d="m19.2841248 31.9149982c.0391659-.0150595.0788477-.0289746.1190146-.0416964l36.330814-11.5068494c.822596-.2605361 1.5962882-.2873178 2.2713772-.1168542l-.000001-.0000038-.0053296-.4165951 43.799388 26.8505388c.939222.5757757 1.700612 1.9316166 1.700612 3.0390766v75.1739133c0 1.10266-.753709 1.507172-1.67665.907922l-38.32335-24.882681v34.976314c0 1.101801-.7382578 1.498326-1.6589496.878933l-43.6821008-29.387034c-.9162126-.61638-1.6705259-2.009362-1.6849279-3.12072l-.9480434-73.157666c-.0143474-1.1071465.689806-1.4735073 1.584793-.8093683z" fill="#fff" stroke="#e3e3e3" stroke-width="2"/><path d="m61 52.1041951c0-2.7599134 2.1370811-4.3357831 4.771535-3.5203512l34.45693 10.6653143c2.635246.8156771 4.771535 3.7187041 4.771535 6.4741791v69.1724677c0 2.759913-2.137081 4.335783-4.771535 3.520351l-34.45693-10.665314c-2.635246-.815677-4.771535-3.718704-4.771535-6.474179z" fill="#fff" stroke="#e3e3e3" stroke-width="2" transform="matrix(-1 0 0 1 166 0)"/><g fill="#f0f0f0"><path d="m69 124.251043c0-1.105145.8529484-2.285359 1.8920362-2.631722l24.7159276-8.238642c1.0449427-.348315 1.8920362.26942 1.8920362 1.370364v-1.002086c0 1.105145-.8529484 2.285359-1.8920362 2.631722l-24.7159276 8.238642c-1.0449427.348315-1.8920362-.26942-1.8920362-1.370364z"/><path d="m70 117.534493c0-1.105146.8529484-2.28536 1.8920362-2.631722l24.7159276-8.238643c1.0449427-.348314 1.8920362.26942 1.8920362 1.370365v-1.002087c0 1.105146-.8529484 2.285359-1.8920362 2.631722l-24.7159276 8.238643c-1.0449427.348314-1.8920362-.269421-1.8920362-1.370365z"/><path d="m70 110.534493c0-1.105146.8529484-2.28536 1.8920362-2.631722l24.7159276-8.238643c1.0449427-.3483142 1.8920362.2694202 1.8920362 1.370365v-1.002087c0 1.105146-.8529484 2.285359-1.8920362 2.631722l-24.7159276 8.238643c-1.0449427.348314-1.8920362-.269421-1.8920362-1.370365z"/></g><path d="m68.75 74.2144638c0-1.1034169.8425489-2.2787628 1.8995281-2.6310891l27.7009438-9.233648c1.0490804-.3496935 1.8995281.2650846 1.8995281 1.3647371v2.0041738c0 1.1034169-.8425489 2.2787627-1.8995281 2.6310891l-27.7009438 9.233648c-1.0490804.3496934-1.8995281-.2650846-1.8995281-1.3647371z" fill="#e5e5e5"/><path d="m70.0358587 75.5248252c-1.8147297-1.2563512-1.5806919-2.8338963.5153187-3.5211129l25.7525731-8.4434665c.5225991-.171344 1.3088337-.0526202 1.7626558.2698323l18.1835937 12.9199219-30 10z" fill="#f9f9f9" stroke="#e3e3e3" stroke-width="2"/><path d="m87 87.0048815c0-1.1072655.8529484-2.2891976 1.8920362-2.6355602l24.7159278-8.2386426c1.044943-.3483142 1.892036.2632211 1.892036 1.3742028v.990237c0 1.1072655-.852948 2.2891976-1.892036 2.6355602l-24.7159278 8.2386426c-1.0449427.3483142-1.8920362-.2632211-1.8920362-1.3742028z" fill="#fff" stroke="#e3e3e3" stroke-width="2"/></g><path d="m22 60.6361939c0-1.2215353.9823189-2.2459332 2.214074-2.2887522l38.7217239-1.3460662c1.2227992-.0425077 2.2140739.9053453 2.2140739 2.1348184v-1.4235706c0 1.2215353-.9823188 2.2459332-2.2140739 2.2887522l-38.7217239 1.3460662c-1.2227993.0425076-2.214074-.9053453-2.214074-2.1348184z" fill="#f5f5f5" transform="matrix(-.82903757 -.5591929 .5591929 -.82903757 46.589151 132.668141)"/></g></svg>