<svg fill="none" xmlns="http://www.w3.org/2000/svg" viewBox="58 89 204.25 203.25">    <circle cx="166" cy="194" r="95" fill="#0572D2" fill-opacity="0.07"></circle>    <path d="M212.625 101.625C212.625 97.2067 216.207 93.625 220.625 93.625H252.625C257.043 93.625 260.625 97.2067 260.625 101.625V121.625C260.625 126.043 257.043 129.625 252.625 129.625H220.625C216.207 129.625 212.625 126.043 212.625 121.625V101.625Z"          fill="#FAFAFB"></path>    <path d="M260 101.625C260 97.5519 256.698 94.25 252.625 94.25H220.625C216.552 94.25 213.25 97.5519 213.25 101.625V121.625C213.25 125.698 216.552 129 220.625 129H252.625C256.698 129 260 125.698 260 121.625V101.625ZM261.25 121.625C261.25 126.388 257.388 130.25 252.625 130.25H220.625C215.862 130.25 212 126.388 212 121.625V101.625C212 96.8615 215.862 93 220.625 93H252.625C257.388 93 261.25 96.8615 261.25 101.625V121.625Z"          fill="#669535"></path>    <path d="M212.625 101.625C212.625 97.2067 216.207 93.625 220.625 93.625H228.625V129.625H220.625C216.207 129.625 212.625 126.043 212.625 121.625V101.625Z"          fill="#F7FDF2"></path>    <path d="M229.25 93V130.25H220.625C215.862 130.25 212 126.388 212 121.625V101.625C212 96.8615 215.862 93 220.625 93H229.25ZM213.25 121.625C213.25 125.698 216.552 129 220.625 129H228V94.25H220.625C216.552 94.25 213.25 97.5519 213.25 101.625V121.625Z"          fill="#669535"></path>    <path opacity="0.25" d="M260.625 105V106.25H212.625V105H260.625Z" fill="#669535"></path>    <path opacity="0.25" d="M260.625 117V118.25H212.625V117H260.625Z" fill="#669535"></path>    <path d="M63.625 263.625C63.625 259.207 67.2067 255.625 71.625 255.625H103.625C108.043 255.625 111.625 259.207 111.625 263.625V283.625C111.625 288.043 108.043 291.625 103.625 291.625H71.625C67.2067 291.625 63.625 288.043 63.625 283.625V263.625Z"          fill="white"></path>    <path d="M111 263.625C111 259.552 107.698 256.25 103.625 256.25H71.625C67.5519 256.25 64.25 259.552 64.25 263.625V283.625C64.25 287.698 67.5519 291 71.625 291H103.625C107.698 291 111 287.698 111 283.625V263.625ZM112.25 283.625C112.25 288.388 108.388 292.25 103.625 292.25H71.625C66.8615 292.25 63 288.388 63 283.625V263.625C63 258.862 66.8615 255 71.625 255H103.625C108.388 255 112.25 258.862 112.25 263.625V283.625Z"          fill="#669535"></path>    <path d="M63.625 263.625C63.625 259.207 67.2067 255.625 71.625 255.625H79.625V291.625H71.625C67.2067 291.625 63.625 288.043 63.625 283.625V263.625Z"          fill="#F7FDF2"></path>    <path d="M80.25 255V292.25H71.625C66.8615 292.25 63 288.388 63 283.625V263.625C63 258.862 66.8615 255 71.625 255H80.25ZM64.25 283.625C64.25 287.698 67.5519 291 71.625 291H79V256.25H71.625C67.5519 256.25 64.25 259.552 64.25 263.625V283.625Z"          fill="#669535"></path>    <path opacity="0.25" d="M111.625 267V268.25H63.625V267H111.625Z" fill="#669535"></path>    <path opacity="0.25" d="M111.625 279V280.25H63.625V279H111.625Z" fill="#669535"></path>    <path d="M123.078 173.886C123.078 166.261 129.26 160.079 136.885 160.079H192.114C199.739 160.079 205.921 166.261 205.921 173.886V208.404C205.921 216.029 199.739 222.211 192.114 222.211H136.885C129.26 222.211 123.078 216.029 123.078 208.404V173.886Z"          fill="white"></path>    <path d="M204.843 173.761C204.843 166.79 199.144 161.139 192.114 161.139H136.886C129.856 161.139 124.157 166.79 124.157 173.761V207.989C124.157 214.96 129.856 220.611 136.886 220.611H192.114C199.144 220.611 204.843 214.96 204.843 207.989V173.761ZM207 207.989C207 216.141 200.335 222.75 192.114 222.75H136.886C128.665 222.75 122 216.141 122 207.989V173.761C122 165.609 128.665 159 136.886 159H192.114C200.335 159 207 165.609 207 173.761V207.989Z"          fill="#509EE3"></path>    <path opacity="0.3" d="M175.921 172.711V174.868H133.078V172.711H175.921Z" fill="#E3595C"></path>    <path opacity="0.3" d="M155.921 179.711V181.868H133.078V179.711H155.921Z" fill="#669535"></path>    <path opacity="0.3" d="M165.921 186.711V188.868H133.078V186.711H165.921Z" fill="#669535"></path>    <path opacity="0.3" d="M165.921 193.711V195.868H133.078V193.711H165.921Z" fill="#E3595C"></path>    <path opacity="0.25" d="M185.921 201V203.157H133.078V201H185.921Z" fill="#071722" fill-opacity="0.44"></path>    <path opacity="0.25" d="M175.921 208.289V210.446H133.078V208.289H175.921Z" fill="#071722"          fill-opacity="0.44"></path>    <path d="M63.625 102.625C63.625 98.2067 67.2067 94.625 71.625 94.625H103.625C108.043 94.625 111.625 98.2067 111.625 102.625V122.625C111.625 127.043 108.043 130.625 103.625 130.625H71.625C67.2067 130.625 63.625 127.043 63.625 122.625V102.625Z"          fill="white"></path>    <path d="M71.625 94.625V95.25H103.625V94.625V94H71.625V94.625ZM111.625 102.625H111V122.625H111.625H112.25V102.625H111.625ZM103.625 130.625V130H71.625V130.625V131.25H103.625V130.625ZM63.625 122.625H64.25V102.625H63.625H63V122.625H63.625ZM71.625 130.625V130C67.5519 130 64.25 126.698 64.25 122.625H63.625H63C63 127.388 66.8615 131.25 71.625 131.25V130.625ZM111.625 122.625H111C111 126.698 107.698 130 103.625 130V130.625V131.25C108.388 131.25 112.25 127.388 112.25 122.625H111.625ZM103.625 94.625V95.25C107.698 95.25 111 98.5519 111 102.625H111.625H112.25C112.25 97.8615 108.388 94 103.625 94V94.625ZM71.625 94.625V94C66.8615 94 63 97.8615 63 102.625H63.625H64.25C64.25 98.5519 67.5519 95.25 71.625 95.25V94.625Z"          fill="#509EE3"></path>    <rect x="91.625" y="104.625" width="4" height="16" fill="#0572D2" fill-opacity="0.21"></rect>    <rect x="79.625" y="109.625" width="4" height="11" fill="#0572D2" fill-opacity="0.21"></rect>    <rect x="97.625" y="110.625" width="4" height="10" fill="#0572D2" fill-opacity="0.21"></rect>    <rect x="73.625" y="113.625" width="4" height="7" fill="#0572D2" fill-opacity="0.21"></rect>    <rect x="85.625" y="116.625" width="4" height="4" fill="#0572D2" fill-opacity="0.21"></rect>    <path d="M63.625 102.625C63.625 98.2067 67.2067 94.625 71.625 94.625H103.625C108.043 94.625 111.625 98.2067 111.625 102.625V122.625C111.625 127.043 108.043 130.625 103.625 130.625H71.625C67.2067 130.625 63.625 127.043 63.625 122.625V102.625Z"          fill="white"></path>    <path d="M111 102.625C111 98.5519 107.698 95.25 103.625 95.25H71.625C67.5519 95.25 64.25 98.5519 64.25 102.625V122.625C64.25 126.698 67.5519 130 71.625 130H103.625C107.698 130 111 126.698 111 122.625V102.625ZM112.25 122.625C112.25 127.388 108.388 131.25 103.625 131.25H71.625C66.8615 131.25 63 127.388 63 122.625V102.625C63 97.8615 66.8615 94 71.625 94H103.625C108.388 94 112.25 97.8615 112.25 102.625V122.625Z"          fill="#669535"></path>    <rect opacity="0.3" x="91.625" y="104.625" width="4" height="16" fill="#669535"></rect>    <rect opacity="0.3" x="79.625" y="109.625" width="4" height="11" fill="#669535"></rect>    <rect opacity="0.3" x="97.625" y="110.625" width="4" height="10" fill="#669535"></rect>    <rect opacity="0.3" x="73.625" y="113.625" width="4" height="7" fill="#669535"></rect>    <rect opacity="0.3" x="85.625" y="116.625" width="4" height="4" fill="#669535"></rect>    <path d="M213.625 263.625C213.625 259.207 217.207 255.625 221.625 255.625H253.625C258.043 255.625 261.625 259.207 261.625 263.625V283.625C261.625 288.043 258.043 291.625 253.625 291.625H221.625C217.207 291.625 213.625 288.043 213.625 283.625V263.625Z"          fill="white"></path>    <path d="M221.625 255.625V256.25H253.625V255.625V255H221.625V255.625ZM261.625 263.625H261V283.625H261.625H262.25V263.625H261.625ZM253.625 291.625V291H221.625V291.625V292.25H253.625V291.625ZM213.625 283.625H214.25V263.625H213.625H213V283.625H213.625ZM221.625 291.625V291C217.552 291 214.25 287.698 214.25 283.625H213.625H213C213 288.388 216.862 292.25 221.625 292.25V291.625ZM261.625 283.625H261C261 287.698 257.698 291 253.625 291V291.625V292.25C258.388 292.25 262.25 288.388 262.25 283.625H261.625ZM253.625 255.625V256.25C257.698 256.25 261 259.552 261 263.625H261.625H262.25C262.25 258.862 258.388 255 253.625 255V255.625ZM221.625 255.625V255C216.862 255 213 258.862 213 263.625H213.625H214.25C214.25 259.552 217.552 256.25 221.625 256.25V255.625Z"          fill="#509EE3"></path>    <rect x="241.625" y="265.625" width="4" height="16" fill="#0572D2" fill-opacity="0.21"></rect>    <rect x="229.625" y="270.625" width="4" height="11" fill="#0572D2" fill-opacity="0.21"></rect>    <rect x="247.625" y="271.625" width="4" height="10" fill="#0572D2" fill-opacity="0.21"></rect>    <rect x="223.625" y="274.625" width="4" height="7" fill="#0572D2" fill-opacity="0.21"></rect>    <rect x="235.625" y="277.625" width="4" height="4" fill="#0572D2" fill-opacity="0.21"></rect>    <path d="M213.625 263.625C213.625 259.207 217.207 255.625 221.625 255.625H253.625C258.043 255.625 261.625 259.207 261.625 263.625V283.625C261.625 288.043 258.043 291.625 253.625 291.625H221.625C217.207 291.625 213.625 288.043 213.625 283.625V263.625Z"          fill="white"></path>    <path d="M261 263.625C261 259.552 257.698 256.25 253.625 256.25H221.625C217.552 256.25 214.25 259.552 214.25 263.625V283.625C214.25 287.698 217.552 291 221.625 291H253.625C257.698 291 261 287.698 261 283.625V263.625ZM262.25 283.625C262.25 288.388 258.388 292.25 253.625 292.25H221.625C216.862 292.25 213 288.388 213 283.625V263.625C213 258.862 216.862 255 221.625 255H253.625C258.388 255 262.25 258.862 262.25 263.625V283.625Z"          fill="#ED6E6E"></path>    <rect x="241.625" y="265.625" width="4" height="16" fill="#FDF0F0"></rect>    <rect x="229.625" y="270.625" width="4" height="11" fill="#FDF0F0"></rect>    <rect x="247.625" y="271.625" width="4" height="10" fill="#FDF0F0"></rect>    <rect x="223.625" y="274.625" width="4" height="7" fill="#FDF0F0"></rect>    <rect x="235.625" y="277.625" width="4" height="4" fill="#FDF0F0"></rect>    <circle cx="64.5" cy="95.5" r="6.5" fill="#FAFAFB"></circle>    <path d="M64.3341 89.25C65.9475 89.25 67.4949 89.8909 68.6358 91.0316C69.7768 92.1724 70.4179 93.7196 70.4181 95.333C70.4181 96.743 69.9371 98.039 69.1321 99.07L71.5321 101.47C71.6573 101.614 71.7233 101.799 71.7168 101.99C71.7103 102.18 71.6317 102.361 71.497 102.496C71.3623 102.631 71.1814 102.709 70.991 102.716C70.8006 102.722 70.6148 102.656 70.4711 102.531L68.0711 100.131C67.0042 100.965 65.6885 101.418 64.3341 101.417C62.7342 101.396 61.2067 100.747 60.0826 99.6079C58.9585 98.4692 58.3281 96.9336 58.3281 95.3335C58.3281 93.7334 58.9585 92.1978 60.0826 91.0591C61.2067 89.9205 62.7342 89.2705 64.3341 89.25ZM64.3341 90.75C63.1185 90.75 61.9527 91.2329 61.0931 92.0925C60.2335 92.952 59.7506 94.1179 59.7506 95.3335C59.7506 96.5491 60.2335 97.715 61.0931 98.5745C61.9527 99.4341 63.1185 99.917 64.3341 99.917C65.5497 99.917 66.7156 99.4341 67.5752 98.5745C68.4347 97.715 68.9176 96.5491 68.9176 95.3335C68.9176 94.1179 68.4347 92.952 67.5752 92.0925C66.7156 91.2329 65.5497 90.75 64.3341 90.75ZM65.8041 93.47C65.9463 93.3375 66.1343 93.2654 66.3286 93.2688C66.5229 93.2723 66.7083 93.351 66.8457 93.4884C66.9832 93.6258 67.0619 93.8112 67.0653 94.0055C67.0687 94.1998 66.9966 94.3878 66.8641 94.53L64.1971 97.197C64.0565 97.3375 63.8659 97.4163 63.6671 97.4163C63.4684 97.4163 63.2778 97.3375 63.1371 97.197L61.8041 95.863C61.6716 95.7208 61.5995 95.5328 61.603 95.3385C61.6064 95.1442 61.6851 94.9588 61.8225 94.8214C61.9599 94.684 62.1453 94.6053 62.3396 94.6018C62.5339 94.5984 62.722 94.6705 62.8641 94.803L63.6671 95.605L65.8041 93.47Z"          fill="#669535"></path>    <circle cx="213.5" cy="95.5" r="6.5" fill="#FAFAFB"></circle>    <path d="M213.334 89.25C214.948 89.25 216.495 89.8909 217.636 91.0316C218.777 92.1724 219.418 93.7196 219.418 95.333C219.418 96.743 218.937 98.039 218.132 99.07L220.532 101.47C220.657 101.614 220.723 101.799 220.717 101.99C220.71 102.18 220.632 102.361 220.497 102.496C220.362 102.631 220.181 102.709 219.991 102.716C219.801 102.722 219.615 102.656 219.471 102.531L217.071 100.131C216.004 100.965 214.689 101.418 213.334 101.417C211.734 101.396 210.207 100.747 209.083 99.6079C207.958 98.4692 207.328 96.9336 207.328 95.3335C207.328 93.7334 207.958 92.1978 209.083 91.0591C210.207 89.9205 211.734 89.2705 213.334 89.25ZM213.334 90.75C212.119 90.75 210.953 91.2329 210.093 92.0925C209.234 92.952 208.751 94.1179 208.751 95.3335C208.751 96.5491 209.234 97.715 210.093 98.5745C210.953 99.4341 212.119 99.917 213.334 99.917C214.55 99.917 215.716 99.4341 216.575 98.5745C217.435 97.715 217.918 96.5491 217.918 95.3335C217.918 94.1179 217.435 92.952 216.575 92.0925C215.716 91.2329 214.55 90.75 213.334 90.75ZM214.804 93.47C214.946 93.3375 215.134 93.2654 215.329 93.2688C215.523 93.2723 215.708 93.351 215.846 93.4884C215.983 93.6258 216.062 93.8112 216.065 94.0055C216.069 94.1998 215.997 94.3878 215.864 94.53L213.197 97.197C213.057 97.3375 212.866 97.4163 212.667 97.4163C212.468 97.4163 212.278 97.3375 212.137 97.197L210.804 95.863C210.672 95.7208 210.6 95.5328 210.603 95.3385C210.606 95.1442 210.685 94.9588 210.823 94.8214C210.96 94.684 211.145 94.6053 211.34 94.6018C211.534 94.5984 211.722 94.6705 211.864 94.803L212.667 95.605L214.804 93.47Z"          fill="#669535"></path>    <circle cx="213.5" cy="256.5" r="6.5" fill="#FAFAFB"></circle>    <path d="M213.334 250.25C214.948 250.25 216.495 250.891 217.636 252.032C218.777 253.172 219.418 254.72 219.418 256.333C219.418 257.743 218.937 259.039 218.132 260.07L220.532 262.47C220.657 262.614 220.723 262.799 220.717 262.99C220.71 263.18 220.632 263.361 220.497 263.496C220.362 263.631 220.181 263.709 219.991 263.716C219.801 263.722 219.615 263.656 219.471 263.531L217.071 261.131C216.004 261.965 214.689 262.418 213.334 262.417C211.734 262.396 210.207 261.747 209.083 260.608C207.958 259.469 207.328 257.934 207.328 256.333C207.328 254.733 207.958 253.198 209.083 252.059C210.207 250.92 211.734 250.271 213.334 250.25ZM213.334 251.75C212.119 251.75 210.953 252.233 210.093 253.092C209.234 253.952 208.751 255.118 208.751 256.333C208.751 257.549 209.234 258.715 210.093 259.575C210.953 260.434 212.119 260.917 213.334 260.917C214.55 260.917 215.716 260.434 216.575 259.575C217.435 258.715 217.918 257.549 217.918 256.333C217.918 255.118 217.435 253.952 216.575 253.092C215.716 252.233 214.55 251.75 213.334 251.75Z"          fill="#E3595C"></path>    <path d="M211.732 258.268C211.537 258.072 211.537 257.756 211.732 257.561L214.561 254.732C214.756 254.537 215.073 254.537 215.268 254.732C215.463 254.927 215.463 255.244 215.268 255.439L212.44 258.268C212.244 258.463 211.928 258.463 211.732 258.268Z"          fill="#E3595C"></path>    <path d="M211.732 254.732C211.928 254.537 212.244 254.537 212.439 254.732L215.268 257.561C215.463 257.756 215.463 258.073 215.268 258.268C215.073 258.463 214.756 258.463 214.561 258.268L211.732 255.44C211.537 255.244 211.537 254.928 211.732 254.732Z"          fill="#E3595C"></path>    <circle cx="64.5" cy="257.5" r="6.5" fill="#FAFAFB"></circle>    <path d="M64.3341 251.25C65.9475 251.25 67.4949 251.891 68.6358 253.032C69.7768 254.172 70.4179 255.72 70.4181 257.333C70.4181 258.743 69.9371 260.039 69.1321 261.07L71.5321 263.47C71.6573 263.614 71.7233 263.799 71.7168 263.99C71.7103 264.18 71.6317 264.361 71.497 264.496C71.3623 264.631 71.1814 264.709 70.991 264.716C70.8006 264.722 70.6148 264.656 70.4711 264.531L68.0711 262.131C67.0042 262.965 65.6885 263.418 64.3341 263.417C62.7342 263.396 61.2067 262.747 60.0826 261.608C58.9585 260.469 58.3281 258.934 58.3281 257.333C58.3281 255.733 58.9585 254.198 60.0826 253.059C61.2067 251.92 62.7342 251.271 64.3341 251.25ZM64.3341 252.75C63.1185 252.75 61.9527 253.233 61.0931 254.092C60.2335 254.952 59.7506 256.118 59.7506 257.333C59.7506 258.549 60.2335 259.715 61.0931 260.575C61.9527 261.434 63.1185 261.917 64.3341 261.917C65.5497 261.917 66.7156 261.434 67.5752 260.575C68.4347 259.715 68.9176 258.549 68.9176 257.333C68.9176 256.118 68.4347 254.952 67.5752 254.092C66.7156 253.233 65.5497 252.75 64.3341 252.75ZM65.8041 255.47C65.9463 255.338 66.1343 255.265 66.3286 255.269C66.5229 255.272 66.7083 255.351 66.8457 255.488C66.9832 255.626 67.0619 255.811 67.0653 256.005C67.0687 256.2 66.9966 256.388 66.8641 256.53L64.1971 259.197C64.0565 259.337 63.8659 259.416 63.6671 259.416C63.4684 259.416 63.2778 259.337 63.1371 259.197L61.8041 257.863C61.6716 257.721 61.5995 257.533 61.603 257.338C61.6064 257.144 61.6851 256.959 61.8225 256.821C61.9599 256.684 62.1453 256.605 62.3396 256.602C62.5339 256.598 62.722 256.671 62.8641 256.803L63.6671 257.605L65.8041 255.47Z"          fill="#669535"></path>    <path d="M164 156.496V157H163.046V156.496H164ZM164 153.472V154.48H163.046V153.472H164ZM164 150.448V151.456H163.046V150.448H164ZM164 147.424V148.432H163.046V147.424H164ZM164 144.399V145.408H163.046V144.399H164ZM164 141.375V142.383H163.046V141.375H164ZM164 138.351V139.359H163.046V138.351H164ZM164 135.327V136.335H163.046V135.327H164ZM164 132.303V133.311H163.046V132.303H164ZM164 129.279V130.287H163.046V129.279H164ZM163.046 126.759C163.046 126.589 163.044 126.419 163.04 126.25L163.516 126.23L163.993 126.209C163.998 126.392 164 126.575 164 126.759V127.263H163.046V126.759ZM163.671 122.952C163.734 123.306 163.787 123.665 163.832 124.028L163.362 124.13L162.891 124.232C162.849 123.897 162.799 123.565 162.742 123.237L163.671 122.952ZM162.871 119.84C162.986 120.172 163.092 120.51 163.19 120.853L162.297 121.298C162.206 120.981 162.108 120.668 162.002 120.361L162.437 120.1L162.871 119.84ZM161.626 116.996C161.787 117.293 161.941 117.597 162.087 117.908L161.683 118.241L161.278 118.574C161.142 118.287 161 118.005 160.851 117.731L161.626 116.996ZM159.985 114.527C160.187 114.777 160.383 115.036 160.572 115.302L159.876 116.164C159.701 115.918 159.519 115.678 159.332 115.447L159.985 114.527ZM158.012 112.526C158.247 112.72 158.478 112.922 158.702 113.135L158.146 114.159C157.938 113.962 157.725 113.774 157.507 113.595L157.76 113.061L158.012 112.526ZM155.782 111.07C156.042 111.199 156.297 111.34 156.549 111.49L156.352 112.064L156.155 112.638C155.922 112.499 155.685 112.369 155.445 112.249L155.782 111.07ZM153.378 110.221C153.652 110.281 153.924 110.352 154.193 110.434L153.976 111.662C153.728 111.586 153.477 111.52 153.224 111.465L153.3 110.843L153.378 110.221ZM151.31 110C151.449 110 151.588 110.003 151.726 110.009L151.71 110.639L151.695 111.268C151.568 111.262 151.439 111.26 151.31 111.26H150.925V110H151.31ZM112.385 110V111.26H112V110H112.385ZM114.698 110V111.26H113.927V110H114.698ZM117.01 110V111.26H116.239V110H117.01ZM119.322 110V111.26H118.551V110H119.322ZM121.634 110V111.26H120.864V110H121.634ZM123.947 110V111.26H123.177V110H123.947ZM126.26 110V111.26H125.489V110H126.26ZM128.572 110V111.26H127.801V110H128.572ZM130.884 110V111.26H130.114V110H130.884ZM133.197 110V111.26H132.426V110H133.197ZM135.509 110V111.26H134.738V110H135.509ZM137.821 110V111.26H137.05V110H137.821ZM140.133 110V111.26H139.363V110H140.133ZM142.446 110V111.26H141.676V110H142.446ZM144.759 110V111.26H143.988V110H144.759ZM147.071 110V111.26H146.3V110H147.071ZM149.383 110V111.26H148.612V110H149.383Z"          fill="#509EE3"></path>    <path d="M164 223.558V223H163.046V223.558H164ZM164 226.903V225.788H163.046V226.903H164ZM164 230.249V229.134H163.046V230.249H164ZM164 233.595V232.48H163.046V233.595H164ZM164 236.941V235.826H163.046V236.941H164ZM164 240.287V239.172H163.046V240.287H164ZM164 243.633V242.517H163.046V243.633H164ZM164 246.979V245.863H163.046V246.979H164ZM164 250.324V249.209H163.046V250.324H164ZM164 253.67V252.555H163.046V253.67H164ZM163.046 256.458C163.046 256.647 163.044 256.835 163.04 257.022L163.516 257.043L163.993 257.066C163.998 256.864 164 256.662 164 256.458V255.901H163.046V256.458ZM163.671 260.67C163.734 260.278 163.787 259.881 163.832 259.48L163.362 259.366L162.891 259.254C162.849 259.625 162.799 259.992 162.742 260.354L163.671 260.67ZM162.871 264.113C162.986 263.746 163.092 263.372 163.19 262.992L162.297 262.5C162.206 262.851 162.108 263.197 162.002 263.537L162.437 263.825L162.871 264.113ZM161.626 267.259C161.787 266.931 161.941 266.595 162.087 266.251L161.683 265.883L161.278 265.514C161.142 265.832 161 266.143 160.851 266.447L161.626 267.259ZM159.985 269.991C160.187 269.715 160.383 269.429 160.572 269.134L159.876 268.18C159.701 268.453 159.519 268.718 159.332 268.974L159.985 269.991ZM158.012 272.205C158.247 271.991 158.478 271.767 158.702 271.531L158.146 270.398C157.938 270.616 157.725 270.824 157.507 271.022L157.76 271.614L158.012 272.205ZM155.782 273.816C156.042 273.673 156.297 273.518 156.549 273.351L156.352 272.716L156.155 272.081C155.922 272.235 155.685 272.379 155.445 272.511L155.782 273.816ZM153.378 274.755C153.652 274.689 153.924 274.611 154.193 274.52L153.976 273.162C153.728 273.246 153.477 273.319 153.224 273.379L153.3 274.068L153.378 274.755ZM151.31 275C151.449 275 151.588 274.997 151.726 274.99L151.71 274.293L151.695 273.597C151.568 273.603 151.439 273.606 151.31 273.606H150.925V275H151.31ZM112.385 275V273.606H112V275H112.385ZM114.698 275V273.606H113.927V275H114.698ZM117.01 275V273.606H116.239V275H117.01ZM119.322 275V273.606H118.551V275H119.322ZM121.634 275V273.606H120.864V275H121.634ZM123.947 275V273.606H123.177V275H123.947ZM126.26 275V273.606H125.489V275H126.26ZM128.572 275V273.606H127.801V275H128.572ZM130.884 275V273.606H130.114V275H130.884ZM133.197 275V273.606H132.426V275H133.197ZM135.509 275V273.606H134.738V275H135.509ZM137.821 275V273.606H137.05V275H137.821ZM140.133 275V273.606H139.363V275H140.133ZM142.446 275V273.606H141.676V275H142.446ZM144.759 275V273.606H143.988V275H144.759ZM147.071 275V273.606H146.3V275H147.071ZM149.383 275V273.606H148.612V275H149.383Z"          fill="#509EE3"></path>    <path d="M164 156.496V157H164.936V156.496H164ZM164 153.472V154.48H164.936V153.472H164ZM164 150.448V151.456H164.936V150.448H164ZM164 147.424V148.432H164.936V147.424H164ZM164 144.399V145.408H164.936V144.399H164ZM164 141.375V142.383H164.936V141.375H164ZM164 138.351V139.359H164.936V138.351H164ZM164 135.327V136.335H164.936V135.327H164ZM164 132.303V133.311H164.936V132.303H164ZM164 129.279V130.287H164.936V129.279H164ZM164.936 126.759C164.936 126.589 164.938 126.419 164.942 126.25L164.474 126.23L164.007 126.209C164.002 126.392 164 126.575 164 126.759V127.263H164.936V126.759ZM164.322 122.952C164.261 123.306 164.209 123.665 164.164 124.028L164.626 124.13L165.088 124.232C165.129 123.897 165.178 123.565 165.234 123.237L164.322 122.952ZM165.107 119.84C164.995 120.172 164.891 120.51 164.795 120.853L165.671 121.298C165.759 120.981 165.856 120.668 165.959 120.361L165.533 120.1L165.107 119.84ZM166.328 116.996C166.17 117.293 166.02 117.597 165.876 117.908L166.273 118.241L166.67 118.574C166.803 118.287 166.943 118.005 167.089 117.731L166.328 116.996ZM167.938 114.527C167.74 114.777 167.548 115.036 167.362 115.302L168.045 116.164C168.217 115.918 168.395 115.678 168.578 115.447L167.938 114.527ZM169.873 112.526C169.642 112.72 169.416 112.922 169.196 113.135L169.741 114.159C169.945 113.962 170.154 113.774 170.368 113.595L170.12 113.061L169.873 112.526ZM172.06 111.07C171.805 111.199 171.554 111.34 171.308 111.49L171.501 112.064L171.695 112.638C171.923 112.499 172.155 112.369 172.391 112.249L172.06 111.07ZM174.418 110.221C174.149 110.281 173.882 110.352 173.619 110.434L173.831 111.662C174.074 111.586 174.32 111.52 174.569 111.465L174.494 110.843L174.418 110.221ZM176.446 110C176.309 110 176.173 110.003 176.038 110.009L176.053 110.639L176.068 111.268C176.193 111.262 176.319 111.26 176.446 111.26H176.824V110H176.446ZM214.622 110V111.26H215V110H214.622ZM212.354 110V111.26H213.11V110H212.354ZM210.086 110V111.26H210.842V110H210.086ZM207.819 110V111.26H208.575V110H207.819ZM205.551 110V111.26H206.307V110H205.551ZM203.282 110V111.26H204.038V110H203.282ZM201.014 110V111.26H201.77V110H201.014ZM198.747 110V111.26H199.503V110H198.747ZM196.479 110V111.26H197.235V110H196.479ZM194.211 110V111.26H194.967V110H194.211ZM191.943 110V111.26H192.699V110H191.943ZM189.675 110V111.26H190.431V110H189.675ZM187.408 110V111.26H188.164V110H187.408ZM185.139 110V111.26H185.895V110H185.139ZM182.871 110V111.26H183.627V110H182.871ZM180.604 110V111.26H181.359V110H180.604ZM178.336 110V111.26H179.092V110H178.336Z"          fill="#509EE3"></path>    <path d="M164 223.558V223H164.936V223.558H164ZM164 226.903V225.788H164.936V226.903H164ZM164 230.249V229.134H164.936V230.249H164ZM164 233.595V232.48H164.936V233.595H164ZM164 236.941V235.826H164.936V236.941H164ZM164 240.287V239.172H164.936V240.287H164ZM164 243.633V242.517H164.936V243.633H164ZM164 246.979V245.863H164.936V246.979H164ZM164 250.324V249.209H164.936V250.324H164ZM164 253.67V252.555H164.936V253.67H164ZM164.936 256.458C164.936 256.647 164.938 256.835 164.942 257.022L164.474 257.043L164.007 257.066C164.002 256.864 164 256.662 164 256.458V255.901H164.936V256.458ZM164.322 260.67C164.261 260.278 164.209 259.881 164.164 259.48L164.626 259.366L165.088 259.254C165.129 259.625 165.178 259.992 165.234 260.354L164.322 260.67ZM165.107 264.113C164.995 263.746 164.891 263.372 164.795 262.992L165.671 262.5C165.759 262.851 165.856 263.197 165.959 263.537L165.533 263.825L165.107 264.113ZM166.328 267.259C166.17 266.931 166.02 266.595 165.876 266.251L166.273 265.883L166.67 265.514C166.803 265.832 166.943 266.143 167.089 266.447L166.328 267.259ZM167.938 269.991C167.74 269.715 167.548 269.429 167.362 269.134L168.045 268.18C168.217 268.453 168.395 268.718 168.578 268.974L167.938 269.991ZM169.873 272.205C169.642 271.991 169.416 271.767 169.196 271.531L169.741 270.398C169.945 270.616 170.154 270.824 170.368 271.022L170.12 271.614L169.873 272.205ZM172.06 273.816C171.805 273.673 171.554 273.518 171.308 273.351L171.501 272.716L171.695 272.081C171.923 272.235 172.155 272.379 172.391 272.511L172.06 273.816ZM174.418 274.755C174.149 274.689 173.882 274.611 173.619 274.52L173.831 273.162C174.074 273.246 174.32 273.319 174.569 273.379L174.494 274.068L174.418 274.755ZM176.446 275C176.309 275 176.173 274.997 176.038 274.99L176.053 274.293L176.068 273.597C176.193 273.603 176.319 273.606 176.446 273.606H176.824V275H176.446ZM214.622 275V273.606H215V275H214.622ZM212.354 275V273.606H213.11V275H212.354ZM210.086 275V273.606H210.842V275H210.086ZM207.819 275V273.606H208.575V275H207.819ZM205.551 275V273.606H206.307V275H205.551ZM203.282 275V273.606H204.038V275H203.282ZM201.014 275V273.606H201.77V275H201.014ZM198.747 275V273.606H199.503V275H198.747ZM196.479 275V273.606H197.235V275H196.479ZM194.211 275V273.606H194.967V275H194.211ZM191.943 275V273.606H192.699V275H191.943ZM189.675 275V273.606H190.431V275H189.675ZM187.408 275V273.606H188.164V275H187.408ZM185.139 275V273.606H185.895V275H185.139ZM182.871 275V273.606H183.627V275H182.871ZM180.604 275V273.606H181.359V275H180.604ZM178.336 275V273.606H179.092V275H178.336Z"          fill="#509EE3"></path></svg>