<svg width="32" height="32" viewBox="0 0 32 32" fill="none" xmlns="http://www.w3.org/2000/svg">
  <path d="M9.954 19.712a2.121 2.121 0 1 1 0 4.242 2.121 2.121 0 0 1 0-4.242zm11.879 0a2.121 2.121 0 1 1 0 4.243 2.121 2.121 0 0 1 0-4.243zm-5.94-5.94a2.122 2.122 0 1 1-.001 4.244 2.122 2.122 0 0 1 .002-4.244zM9.955 7.833a2.121 2.121 0 1 1 0 4.242 2.121 2.121 0 0 1 0-4.242zm11.879 0a2.121 2.121 0 1 1 0 4.243 2.121 2.121 0 0 1 0-4.243z" fill="#509EE3"/>
  <path d="M16 25.758A2.121 2.121 0 1 1 16 30a2.121 2.121 0 0 1 0-4.242zm0-5.94a2.121 2.121 0 1 1 0 4.243 2.121 2.121 0 0 1 0-4.243zm-11.879-5.94a2.121 2.121 0 1 1 0 4.243 2.121 2.121 0 0 1 0-4.242zm5.94 0a2.121 2.121 0 1 1 0 4.243 2.121 2.121 0 0 1 0-4.242zm11.878 0a2.121 2.121 0 1 1 0 4.243 2.121 2.121 0 0 1 0-4.242zm5.94 0a2.121 2.121 0 1 1 0 4.243 2.121 2.121 0 0 1 0-4.242zM16 7.94a2.121 2.121 0 1 1 0 4.243 2.121 2.121 0 0 1 0-4.243zM16 2a2.121 2.121 0 1 1 0 4.243A2.121 2.121 0 0 1 16 2z" fill="#BCDAF4"/>
</svg>
