<svg width="170" height="148" viewBox="0 0 170 148" fill="none" xmlns="http://www.w3.org/2000/svg">
<g clip-path="url(#clip0_2220_192)">
<rect x="33" y="1" width="104" height="78" rx="7" fill="white" stroke="#509EE3"/>
<rect opacity="0.25" x="33" y="11" width="104" height="1" fill="#509EE3"/>
<rect x="58" y="1" width="1" height="78" fill="#509EE3"/>
<path d="M61 119C61 115.134 64.134 112 68 112H77V147H68C64.134 147 61 143.866 61 140V119Z" fill="#0572D2" fill-opacity="0.07"/>
<rect x="61" y="112" width="48" height="35" rx="7" fill="white" stroke="#509EE3"/>
<rect opacity="0.25" x="61" y="123" width="48" height="1" fill="#509EE3"/>
<rect opacity="0.25" x="61" y="135" width="48" height="1" fill="#509EE3"/>
<rect x="77" y="112" width="1" height="35" fill="#509EE3"/>
<path d="M121 119C121 115.134 124.134 112 128 112H137V147H128C124.134 147 121 143.866 121 140V119Z" fill="#0572D2" fill-opacity="0.07"/>
<rect x="121" y="112" width="48" height="35" rx="7" fill="white" stroke="#509EE3"/>
<rect opacity="0.25" x="121" y="123" width="48" height="1" fill="#509EE3"/>
<rect opacity="0.25" x="121" y="135" width="48" height="1" fill="#509EE3"/>
<rect x="137" y="112" width="1" height="35" fill="#509EE3"/>
<path d="M1 119C1 115.134 4.13401 112 8 112H17V147H8C4.13401 147 1 143.866 1 140V119Z" fill="#0572D2" fill-opacity="0.07"/>
<rect x="1" y="112" width="48" height="35" rx="7" fill="white" stroke="#509EE3"/>
<rect opacity="0.25" x="1" y="123" width="48" height="1" fill="#509EE3"/>
<rect opacity="0.25" x="1" y="135" width="48" height="1" fill="#509EE3"/>
<rect x="17" y="112" width="1" height="35" fill="#509EE3"/>
<path d="M85 79V112" stroke="#509EE3" stroke-width="0.75" stroke-dasharray="0.75 1"/>
<path d="M25 112L25 106C25 104.687 25.2587 103.386 25.7612 102.173C26.2638 100.96 27.0003 99.8575 27.9289 98.9289C28.8575 98.0003 29.9599 97.2638 31.1732 96.7612C32.3864 96.2587 33.6868 96 35 96L75 96C76.3132 96 77.6136 95.7413 78.8268 95.2388C80.0401 94.7362 81.1425 93.9997 82.0711 93.0711C82.9997 92.1425 83.7362 91.0401 84.2388 89.8268C84.7413 88.6136 85 87.3132 85 86L85 79" stroke="#509EE3" stroke-width="0.75" stroke-dasharray="0.75 1"/>
<path d="M145 112V106C145 104.687 144.741 103.386 144.239 102.173C143.736 100.96 143 99.8575 142.071 98.9289C141.142 98.0003 140.04 97.2638 138.827 96.7612C137.614 96.2587 136.313 96 135 96L95 96C93.6868 96 92.3864 95.7413 91.1732 95.2388C89.9599 94.7362 88.8575 93.9997 87.9289 93.0711C87.0003 92.1425 86.2638 91.0401 85.7612 89.8268C85.2587 88.6136 85 87.3132 85 86L85 79" stroke="#509EE3" stroke-width="0.75" stroke-dasharray="0.75 1"/>
<circle cx="85" cy="112" r="1.5" fill="white" stroke="#509EE3" stroke-width="0.75"/>
<circle cx="85" cy="79" r="1.5" fill="white" stroke="#509EE3" stroke-width="0.75"/>
<circle cx="58.5" cy="11.5" r="1.5" fill="white" stroke="#509EE3" stroke-width="0.75"/>
<circle cx="145" cy="112" r="1.5" fill="white" stroke="#509EE3" stroke-width="0.75"/>
<circle cx="25" cy="112" r="1.5" fill="white" stroke="#509EE3" stroke-width="0.75"/>
<circle cx="137" cy="53" r="13" fill="#509EE3"/>
<path d="M132.061 52.3566L135.243 55.5386L141.592 49.1746L142.653 50.2353L136.303 56.5992L135.243 57.6599L134.182 56.5992L131 53.4173L132.061 52.3566Z" fill="white"/>
<path d="M68 22.5V31.5C68 32.0523 68.4477 32.5 69 32.5H80C80.5523 32.5 81 32.0523 81 31.5V24.5C81 23.9477 80.5523 23.5 80 23.5H74.4128C74.219 23.5 74.0309 23.4437 73.8706 23.3403C73.752 23.2637 73.667 23.1473 73.5904 23.0288L72.8779 21.9266C72.8204 21.8377 72.7562 21.7517 72.6704 21.6897C72.5009 21.5672 72.2961 21.5 72.0843 21.5H69C68.4477 21.5 68 21.9477 68 22.5Z" stroke="#0572D2" stroke-opacity="0.21" stroke-width="0.75"/>
<path d="M91.5 22.5V31.5C91.5 32.0523 91.9477 32.5 92.5 32.5H103.5C104.052 32.5 104.5 32.0523 104.5 31.5V24.5C104.5 23.9477 104.052 23.5 103.5 23.5H97.9128C97.719 23.5 97.5309 23.4437 97.3706 23.3403C97.252 23.2637 97.167 23.1473 97.0904 23.0288L96.3779 21.9266C96.3204 21.8377 96.2562 21.7517 96.1704 21.6897C96.0009 21.5672 95.7961 21.5 95.5843 21.5H92.5C91.9477 21.5 91.5 21.9477 91.5 22.5Z" stroke="#0572D2" stroke-opacity="0.21" stroke-width="0.75"/>
<path d="M115 22.5V31.5C115 32.0523 115.448 32.5 116 32.5H127C127.552 32.5 128 32.0523 128 31.5V24.5C128 23.9477 127.552 23.5 127 23.5H121.413C121.219 23.5 121.031 23.4437 120.871 23.3403C120.752 23.2637 120.667 23.1473 120.59 23.0288L119.878 21.9266C119.82 21.8377 119.756 21.7517 119.67 21.6897C119.501 21.5672 119.296 21.5 119.084 21.5H116C115.448 21.5 115 21.9477 115 22.5Z" stroke="#0572D2" stroke-opacity="0.21" stroke-width="0.75"/>
</g>
<defs>
<clipPath id="clip0_2220_192">
<rect width="170" height="148" fill="white"/>
</clipPath>
</defs>
</svg>
