<svg width="260" height="260" viewBox="0 0 260 260" fill="none" xmlns="http://www.w3.org/2000/svg">
<circle cx="130.125" cy="129.625" r="60" fill="#0572D2" fill-opacity="0.07"/>
<path d="M129.5 92.6211L130.75 92.6211L130.75 93.125L129.5 93.125L129.5 92.6211ZM129.5 89.5947L130.75 89.5947L130.75 90.6035L129.5 90.6035L129.5 89.5947ZM129.5 86.5684L130.75 86.5684L130.75 87.5771L129.5 87.5771L129.5 86.5684ZM129.5 83.542L130.75 83.542L130.75 84.5508L129.5 84.5508L129.5 83.542ZM129.5 80.5156L130.75 80.5156L130.75 81.5244L129.5 81.5244L129.5 80.5156ZM129.5 77.4893L130.75 77.4893L130.75 78.498L129.5 78.498L129.5 77.4893ZM129.5 74.4629L130.75 74.4629L130.75 75.4717L129.5 75.4717L129.5 74.4629ZM129.5 71.4365L130.75 71.4365L130.75 72.4453L129.5 72.4453L129.5 71.4365ZM129.5 68.4102L130.75 68.4102L130.75 69.4189L129.5 69.4189L129.5 68.4102ZM129.5 65.3838L130.75 65.3838L130.75 66.3926L129.5 66.3926L129.5 65.3838ZM129.5 62.3574L130.75 62.3574L130.75 63.3662L129.5 63.3662L129.5 62.3574ZM129.5 59.3311L130.75 59.3311L130.75 60.3398L129.5 60.3398L129.5 59.3311ZM129.5 56.3047L130.75 56.3047L130.75 57.3135L129.5 57.3135L129.5 56.3047ZM129.5 53.2783L130.75 53.2783L130.75 54.2871L129.5 54.2871L129.5 53.2783ZM129.5 50.2519L130.75 50.2519L130.75 51.2607L129.5 51.2607L129.5 50.2519ZM129.5 47.2256L130.75 47.2256L130.75 48.2344L129.5 48.2344L129.5 47.2256ZM129.5 44.1992L130.75 44.1992L130.75 45.208L129.5 45.208L129.5 44.1992ZM129.5 41.1728L130.75 41.1728L130.75 42.1816L129.5 42.1816L129.5 41.1728ZM129.5 38.1465L130.75 38.1465L130.75 39.1553L129.5 39.1553L129.5 38.1465ZM130.116 35.1006L130.741 35.0801C130.747 35.261 130.75 35.4427 130.75 35.625L130.75 36.1299L129.5 36.1299L129.5 35.625C129.5 35.4562 129.498 35.2876 129.492 35.1201L130.116 35.1006ZM130.319 31.8486C130.401 32.2003 130.471 32.5563 130.53 32.916L129.914 33.0176L129.297 33.1182C129.242 32.7856 129.177 32.4568 129.102 32.1318L130.319 31.8486ZM128.702 29.0195L129.271 28.7617C129.421 29.0911 129.56 29.4261 129.688 29.7666L128.519 30.208C128.4 29.8932 128.271 29.5829 128.133 29.2783L128.702 29.0195ZM127.64 25.9404C127.851 26.2347 128.052 26.5365 128.244 26.8447L127.714 27.1748L127.184 27.5059C127.006 27.2208 126.819 26.9412 126.624 26.6689L127.64 25.9404ZM125.49 23.4912C125.755 23.739 126.011 23.9953 126.259 24.2598L125.347 25.1152C125.117 24.8704 124.88 24.6328 124.635 24.4033L125.49 23.4912ZM122.575 22.0361L122.905 21.5059C123.213 21.6979 123.515 21.8991 123.81 22.1103L123.081 23.126C122.809 22.9305 122.529 22.7441 122.244 22.5664L122.575 22.0361ZM119.983 20.0615C120.324 20.1897 120.659 20.329 120.988 20.4785L120.73 21.0478L120.472 21.6172C120.167 21.4789 119.857 21.35 119.542 21.2314L119.983 20.0615ZM116.732 19.8359L116.834 19.2197C117.194 19.2787 117.55 19.349 117.901 19.4307L117.618 20.6484C117.293 20.573 116.964 20.5076 116.632 20.4531L116.732 19.8359ZM114.125 20.25L113.617 20.25L113.617 19L114.125 19C114.307 19 114.489 19.003 114.67 19.0088L114.649 19.6338L114.63 20.2578C114.462 20.2524 114.294 20.25 114.125 20.25ZM110.569 19L111.585 19L111.585 20.25L110.569 20.25L110.569 19ZM107.521 19L108.538 19L108.538 20.25L107.521 20.25L107.521 19ZM104.475 19L105.49 19L105.49 20.25L104.475 20.25L104.475 19ZM101.427 19L102.442 19L102.442 20.25L101.427 20.25L101.427 19ZM98.3789 19L99.3945 19L99.3945 20.25L98.3789 20.25L98.3789 19ZM95.3311 19L96.3477 19L96.3477 20.25L95.3311 20.25L95.3311 19ZM92.2842 19L93.2998 19L93.2998 20.25L92.2842 20.25L92.2842 19ZM89.2363 19L90.2519 19L90.2519 20.25L89.2363 20.25L89.2363 19ZM86.1885 19L87.2041 19L87.2041 20.25L86.1885 20.25L86.1885 19ZM83.1406 19L84.1572 19L84.1572 20.25L83.1406 20.25L83.1406 19ZM80.0928 19L81.1094 19L81.1094 20.25L80.0928 20.25L80.0928 19ZM77.0459 19L78.0615 19L78.0615 20.25L77.0459 20.25L77.0459 19ZM73.998 19L75.0137 19L75.0137 20.25L73.998 20.25L73.998 19ZM70.9502 19L71.9658 19L71.9658 20.25L70.9502 20.25L70.9502 19ZM67.9023 19L68.9189 19L68.9189 20.25L67.9023 20.25L67.9023 19ZM64.8555 19L65.8711 19L65.8711 20.25L64.8555 20.25L64.8555 19ZM61.8076 19L62.8232 19L62.8232 20.25L61.8076 20.25L61.8076 19ZM58.7598 19L59.7754 19L59.7754 20.25L58.7598 20.25L58.7598 19ZM55.7119 19L56.7285 19L56.7285 20.25L55.7119 20.25L55.7119 19ZM52.665 19L53.6807 19L53.6807 20.25L52.665 20.25L52.665 19ZM50.125 19L50.6328 19L50.6328 20.25L50.125 20.25L50.125 19Z" fill="#509EE3"/>
<path d="M166.125 129.625C166.125 149.507 150.007 165.625 130.125 165.625C110.243 165.625 94.125 149.507 94.125 129.625C94.125 109.743 110.243 93.625 130.125 93.625C150.007 93.625 166.125 109.743 166.125 129.625Z" fill="white"/>
<path d="M165.5 129.625C165.5 110.088 149.662 94.25 130.125 94.25C110.588 94.25 94.75 110.088 94.75 129.625C94.75 149.162 110.588 165 130.125 165C149.662 165 165.5 149.162 165.5 129.625ZM166.75 129.625C166.75 149.852 150.352 166.25 130.125 166.25C109.898 166.25 93.5 149.852 93.5 129.625C93.5 109.398 109.898 93 130.125 93C150.352 93 166.75 109.398 166.75 129.625Z" fill="#509EE3"/>
<path d="M114.368 125.382L125.882 113.868C128.226 111.524 132.024 111.524 134.368 113.868L145.882 125.382C148.226 127.726 148.226 131.524 145.882 133.868L134.368 145.382C132.024 147.726 128.226 147.726 125.882 145.382L114.368 133.868C112.024 131.524 112.024 127.726 114.368 125.382Z" fill="#509EE3"/>
<path d="M138.125 129.625L124.125 115.625" stroke="white" stroke-width="1.25" stroke-linejoin="round"/>
<path d="M130.75 121.625V137.625H129.5V121.625H130.75Z" fill="white"/>
<path d="M133.125 121.625C133.125 123.282 131.782 124.625 130.125 124.625C128.468 124.625 127.125 123.282 127.125 121.625C127.125 119.968 128.468 118.625 130.125 118.625C131.782 118.625 133.125 119.968 133.125 121.625Z" fill="#509EE3"/>
<path d="M131.875 121.625C131.875 120.659 131.091 119.875 130.125 119.875C129.159 119.875 128.375 120.659 128.375 121.625C128.375 122.591 129.159 123.375 130.125 123.375V124.625C128.468 124.625 127.125 123.282 127.125 121.625C127.125 119.968 128.468 118.625 130.125 118.625C131.782 118.625 133.125 119.968 133.125 121.625C133.125 123.282 131.782 124.625 130.125 124.625V123.375C131.091 123.375 131.875 122.591 131.875 121.625Z" fill="white"/>
<path d="M141.125 129.625C141.125 131.282 139.782 132.625 138.125 132.625C136.468 132.625 135.125 131.282 135.125 129.625C135.125 127.968 136.468 126.625 138.125 126.625C139.782 126.625 141.125 127.968 141.125 129.625Z" fill="#509EE3"/>
<path d="M139.875 129.625C139.875 128.659 139.091 127.875 138.125 127.875C137.159 127.875 136.375 128.659 136.375 129.625C136.375 130.591 137.159 131.375 138.125 131.375V132.625C136.468 132.625 135.125 131.282 135.125 129.625C135.125 127.968 136.468 126.625 138.125 126.625C139.782 126.625 141.125 127.968 141.125 129.625C141.125 131.282 139.782 132.625 138.125 132.625V131.375C139.091 131.375 139.875 130.591 139.875 129.625Z" fill="white"/>
<path d="M133.125 137.625C133.125 139.282 131.782 140.625 130.125 140.625C128.468 140.625 127.125 139.282 127.125 137.625C127.125 135.968 128.468 134.625 130.125 134.625C131.782 134.625 133.125 135.968 133.125 137.625Z" fill="#509EE3"/>
<path d="M131.875 137.625C131.875 136.659 131.091 135.875 130.125 135.875C129.159 135.875 128.375 136.659 128.375 137.625C128.375 138.591 129.159 139.375 130.125 139.375V140.625C128.468 140.625 127.125 139.282 127.125 137.625C127.125 135.968 128.468 134.625 130.125 134.625C131.782 134.625 133.125 135.968 133.125 137.625C133.125 139.282 131.782 140.625 130.125 140.625V139.375C131.091 139.375 131.875 138.591 131.875 137.625Z" fill="white"/>
<path d="M2.125 9.625C2.125 5.20672 5.70672 1.625 10.125 1.625H42.125C46.5433 1.625 50.125 5.20672 50.125 9.625V29.625C50.125 34.0433 46.5433 37.625 42.125 37.625H10.125C5.70672 37.625 2.125 34.0433 2.125 29.625V9.625Z" fill="white"/>
<path d="M10.125 1.625V2.25H42.125V1.625V1H10.125V1.625ZM50.125 9.625H49.5V29.625H50.125H50.75V9.625H50.125ZM42.125 37.625V37H10.125V37.625V38.25H42.125V37.625ZM2.125 29.625H2.75V9.625H2.125H1.5V29.625H2.125ZM10.125 37.625V37C6.0519 37 2.75 33.6981 2.75 29.625H2.125H1.5C1.5 34.3885 5.36155 38.25 10.125 38.25V37.625ZM50.125 29.625H49.5C49.5 33.6981 46.1981 37 42.125 37V37.625V38.25C46.8885 38.25 50.75 34.3885 50.75 29.625H50.125ZM42.125 1.625V2.25C46.1981 2.25 49.5 5.5519 49.5 9.625H50.125H50.75C50.75 4.86154 46.8885 1 42.125 1V1.625ZM10.125 1.625V1C5.36154 1 1.5 4.86154 1.5 9.625H2.125H2.75C2.75 5.5519 6.0519 2.25 10.125 2.25V1.625Z" fill="#509EE3"/>
<path d="M2.125 9.625C2.125 5.20672 5.70672 1.625 10.125 1.625H18.125V37.625H10.125C5.70672 37.625 2.125 34.0433 2.125 29.625V9.625Z" fill="#0572D2" fill-opacity="0.07"/>
<path d="M18.125 1.625H18.75V1H18.125V1.625ZM18.125 37.625V38.25H18.75V37.625H18.125ZM10.125 1.625V2.25H18.125V1.625V1H10.125V1.625ZM18.125 1.625H17.5V37.625H18.125H18.75V1.625H18.125ZM18.125 37.625V37H10.125V37.625V38.25H18.125V37.625ZM2.125 29.625H2.75V9.625H2.125H1.5V29.625H2.125ZM10.125 37.625V37C6.0519 37 2.75 33.6981 2.75 29.625H2.125H1.5C1.5 34.3885 5.36154 38.25 10.125 38.25V37.625ZM10.125 1.625V1C5.36154 1 1.5 4.86154 1.5 9.625H2.125H2.75C2.75 5.5519 6.0519 2.25 10.125 2.25V1.625Z" fill="#509EE3"/>
<path opacity="0.25" d="M2.125 13.625H50.125" stroke="#509EE3" stroke-width="1.25" stroke-linejoin="round"/>
<path opacity="0.25" d="M2.125 25.625H50.125" stroke="#509EE3" stroke-width="1.25" stroke-linejoin="round"/>
<path d="M2.125 9.625C2.125 5.20672 5.70672 1.625 10.125 1.625H42.125C46.5433 1.625 50.125 5.20672 50.125 9.625V29.625C50.125 34.0433 46.5433 37.625 42.125 37.625H10.125C5.70672 37.625 2.125 34.0433 2.125 29.625V9.625Z" fill="white"/>
<path d="M49.6978 9.625C49.6978 5.5519 46.368 2.25 42.2604 2.25H9.98972C5.88216 2.25 2.55232 5.5519 2.55232 9.625V29.625C2.55232 33.6981 5.88216 37 9.98972 37H42.2604C46.368 37 49.6978 33.6981 49.6978 29.625V9.625ZM50.9584 29.625C50.9584 34.3885 47.0642 38.25 42.2604 38.25H9.98972C5.18596 38.25 1.29175 34.3885 1.29175 29.625V9.625C1.29175 4.86154 5.18596 1 9.98972 1H42.2604C47.0642 1 50.9584 4.86154 50.9584 9.625V29.625Z" fill="#509EE3"/>
<path d="M2.125 9.625C2.125 5.20672 5.70672 1.625 10.125 1.625H18.125V37.625H10.125C5.70672 37.625 2.125 34.0433 2.125 29.625V9.625Z" fill="#0572D2" fill-opacity="0.07"/>
<path d="M18.75 1V38.25H10.125C5.36154 38.25 1.5 34.3885 1.5 29.625V9.625C1.5 4.86154 5.36154 1 10.125 1H18.75ZM2.75 29.625C2.75 33.6981 6.0519 37 10.125 37H17.5V2.25H10.125C6.0519 2.25 2.75 5.5519 2.75 9.625V29.625Z" fill="#509EE3"/>
<path opacity="0.25" d="M50.125 13V14.25H2.125V13H50.125Z" fill="#509EE3"/>
<path opacity="0.25" d="M50.125 25V26.25H2.125V25H50.125Z" fill="#509EE3"/>
<path d="M106.125 229.625C106.125 225.207 109.707 221.625 114.125 221.625H146.125C150.543 221.625 154.125 225.207 154.125 229.625V249.625C154.125 254.043 150.543 257.625 146.125 257.625H114.125C109.707 257.625 106.125 254.043 106.125 249.625V229.625Z" fill="white"/>
<path d="M114.125 221.625V222.25H146.125V221.625V221H114.125V221.625ZM154.125 229.625H153.5V249.625H154.125H154.75V229.625H154.125ZM146.125 257.625V257H114.125V257.625V258.25H146.125V257.625ZM106.125 249.625H106.75V229.625H106.125H105.5V249.625H106.125ZM114.125 257.625V257C110.052 257 106.75 253.698 106.75 249.625H106.125H105.5C105.5 254.388 109.362 258.25 114.125 258.25V257.625ZM154.125 249.625H153.5C153.5 253.698 150.198 257 146.125 257V257.625V258.25C150.888 258.25 154.75 254.388 154.75 249.625H154.125ZM146.125 221.625V222.25C150.198 222.25 153.5 225.552 153.5 229.625H154.125H154.75C154.75 224.862 150.888 221 146.125 221V221.625ZM114.125 221.625V221C109.362 221 105.5 224.862 105.5 229.625H106.125H106.75C106.75 225.552 110.052 222.25 114.125 222.25V221.625Z" fill="#509EE3"/>
<path d="M106.125 229.625C106.125 225.207 109.707 221.625 114.125 221.625H122.125V257.625H114.125C109.707 257.625 106.125 254.043 106.125 249.625V229.625Z" fill="#0572D2" fill-opacity="0.07"/>
<path d="M122.125 221.625H122.75V221H122.125V221.625ZM122.125 257.625V258.25H122.75V257.625H122.125ZM114.125 221.625V222.25H122.125V221.625V221H114.125V221.625ZM122.125 221.625H121.5V257.625H122.125H122.75V221.625H122.125ZM122.125 257.625V257H114.125V257.625V258.25H122.125V257.625ZM106.125 249.625H106.75V229.625H106.125H105.5V249.625H106.125ZM114.125 257.625V257C110.052 257 106.75 253.698 106.75 249.625H106.125H105.5C105.5 254.388 109.362 258.25 114.125 258.25V257.625ZM114.125 221.625V221C109.362 221 105.5 224.862 105.5 229.625H106.125H106.75C106.75 225.552 110.052 222.25 114.125 222.25V221.625Z" fill="#509EE3"/>
<path opacity="0.25" d="M106.125 233.625H154.125" stroke="#509EE3" stroke-width="1.25" stroke-linejoin="round"/>
<path opacity="0.25" d="M106.125 245.625H154.125" stroke="#509EE3" stroke-width="1.25" stroke-linejoin="round"/>
<path d="M106.125 229.625C106.125 225.207 109.707 221.625 114.125 221.625H146.125C150.543 221.625 154.125 225.207 154.125 229.625V249.625C154.125 254.043 150.543 257.625 146.125 257.625H114.125C109.707 257.625 106.125 254.043 106.125 249.625V229.625Z" fill="white"/>
<path d="M153.698 229.625C153.698 225.552 150.368 222.25 146.26 222.25H113.99C109.882 222.25 106.552 225.552 106.552 229.625V249.625C106.552 253.698 109.882 257 113.99 257H146.26C150.368 257 153.698 253.698 153.698 249.625V229.625ZM154.958 249.625C154.958 254.388 151.064 258.25 146.26 258.25H113.99C109.186 258.25 105.292 254.388 105.292 249.625V229.625C105.292 224.862 109.186 221 113.99 221H146.26C151.064 221 154.958 224.862 154.958 229.625V249.625Z" fill="#509EE3"/>
<path d="M106.125 229.625C106.125 225.207 109.707 221.625 114.125 221.625H122.125V257.625H114.125C109.707 257.625 106.125 254.043 106.125 249.625V229.625Z" fill="#0572D2" fill-opacity="0.07"/>
<path d="M122.75 221V258.25H114.125C109.362 258.25 105.5 254.388 105.5 249.625V229.625C105.5 224.862 109.362 221 114.125 221H122.75ZM106.75 249.625C106.75 253.698 110.052 257 114.125 257H121.5V222.25H114.125C110.052 222.25 106.75 225.552 106.75 229.625V249.625Z" fill="#509EE3"/>
<path opacity="0.25" d="M154.125 233V234.25H106.125V233H154.125Z" fill="#509EE3"/>
<path opacity="0.25" d="M154.125 245V246.25H106.125V245H154.125Z" fill="#509EE3"/>
<path d="M210.125 55.625C210.125 51.2067 213.707 47.625 218.125 47.625H250.125C254.543 47.625 258.125 51.2067 258.125 55.625V75.625C258.125 80.0433 254.543 83.625 250.125 83.625H218.125C213.707 83.625 210.125 80.0433 210.125 75.625V55.625Z" fill="white"/>
<path d="M218.125 47.625V48.25H250.125V47.625V47H218.125V47.625ZM258.125 55.625H257.5V75.625H258.125H258.75V55.625H258.125ZM250.125 83.625V83H218.125V83.625V84.25H250.125V83.625ZM210.125 75.625H210.75V55.625H210.125H209.5V75.625H210.125ZM218.125 83.625V83C214.052 83 210.75 79.6981 210.75 75.625H210.125H209.5C209.5 80.3885 213.362 84.25 218.125 84.25V83.625ZM258.125 75.625H257.5C257.5 79.6981 254.198 83 250.125 83V83.625V84.25C254.888 84.25 258.75 80.3885 258.75 75.625H258.125ZM250.125 47.625V48.25C254.198 48.25 257.5 51.5519 257.5 55.625H258.125H258.75C258.75 50.8615 254.888 47 250.125 47V47.625ZM218.125 47.625V47C213.362 47 209.5 50.8615 209.5 55.625H210.125H210.75C210.75 51.5519 214.052 48.25 218.125 48.25V47.625Z" fill="#509EE3"/>
<rect x="238.125" y="57.625" width="4" height="16" fill="#0572D2" fill-opacity="0.21"/>
<rect x="226.125" y="62.625" width="4" height="11" fill="#0572D2" fill-opacity="0.21"/>
<rect x="244.125" y="63.625" width="4" height="10" fill="#0572D2" fill-opacity="0.21"/>
<rect x="220.125" y="66.625" width="4" height="7" fill="#0572D2" fill-opacity="0.21"/>
<rect x="232.125" y="69.625" width="4" height="4" fill="#0572D2" fill-opacity="0.21"/>
<path d="M210.125 55.625C210.125 51.2067 213.707 47.625 218.125 47.625H250.125C254.543 47.625 258.125 51.2067 258.125 55.625V75.625C258.125 80.0433 254.543 83.625 250.125 83.625H218.125C213.707 83.625 210.125 80.0433 210.125 75.625V55.625Z" fill="white"/>
<path d="M257.698 55.625C257.698 51.5519 254.368 48.25 250.26 48.25H217.99C213.882 48.25 210.552 51.5519 210.552 55.625V75.625C210.552 79.6981 213.882 83 217.99 83H250.26C254.368 83 257.698 79.6981 257.698 75.625V55.625ZM258.958 75.625C258.958 80.3885 255.064 84.25 250.26 84.25H217.99C213.186 84.25 209.292 80.3885 209.292 75.625V55.625C209.292 50.8615 213.186 47 217.99 47H250.26C255.064 47 258.958 50.8615 258.958 55.625V75.625Z" fill="#509EE3"/>
<rect x="238.125" y="57.625" width="4" height="16" fill="#0572D2" fill-opacity="0.21"/>
<rect x="226.125" y="62.625" width="4" height="11" fill="#0572D2" fill-opacity="0.21"/>
<rect x="244.125" y="63.625" width="4" height="10" fill="#0572D2" fill-opacity="0.21"/>
<rect x="220.125" y="66.625" width="4" height="7" fill="#0572D2" fill-opacity="0.21"/>
<rect x="232.125" y="69.625" width="4" height="4" fill="#0572D2" fill-opacity="0.21"/>
<path d="M2.125 119.625C2.125 115.207 5.70672 111.625 10.125 111.625H42.125C46.5433 111.625 50.125 115.207 50.125 119.625V139.625C50.125 144.043 46.5433 147.625 42.125 147.625H10.125C5.70672 147.625 2.125 144.043 2.125 139.625V119.625Z" fill="white"/>
<path d="M10.125 111.625V112.25H42.125V111.625V111H10.125V111.625ZM50.125 119.625H49.5V139.625H50.125H50.75V119.625H50.125ZM42.125 147.625V147H10.125V147.625V148.25H42.125V147.625ZM2.125 139.625H2.75V119.625H2.125H1.5V139.625H2.125ZM10.125 147.625V147C6.0519 147 2.75 143.698 2.75 139.625H2.125H1.5C1.5 144.388 5.36155 148.25 10.125 148.25V147.625ZM50.125 139.625H49.5C49.5 143.698 46.1981 147 42.125 147V147.625V148.25C46.8885 148.25 50.75 144.388 50.75 139.625H50.125ZM42.125 111.625V112.25C46.1981 112.25 49.5 115.552 49.5 119.625H50.125H50.75C50.75 114.862 46.8885 111 42.125 111V111.625ZM10.125 111.625V111C5.36154 111 1.5 114.862 1.5 119.625H2.125H2.75C2.75 115.552 6.0519 112.25 10.125 112.25V111.625Z" fill="#509EE3"/>
<rect x="30.125" y="121.625" width="4" height="16" fill="#0572D2" fill-opacity="0.21"/>
<rect x="18.125" y="126.625" width="4" height="11" fill="#0572D2" fill-opacity="0.21"/>
<rect x="36.125" y="127.625" width="4" height="10" fill="#0572D2" fill-opacity="0.21"/>
<rect x="12.125" y="130.625" width="4" height="7" fill="#0572D2" fill-opacity="0.21"/>
<rect x="24.125" y="133.625" width="4" height="4" fill="#0572D2" fill-opacity="0.21"/>
<path d="M2.125 119.625C2.125 115.207 5.70672 111.625 10.125 111.625H42.125C46.5433 111.625 50.125 115.207 50.125 119.625V139.625C50.125 144.043 46.5433 147.625 42.125 147.625H10.125C5.70672 147.625 2.125 144.043 2.125 139.625V119.625Z" fill="white"/>
<path d="M49.6978 119.625C49.6978 115.552 46.368 112.25 42.2604 112.25H9.98972C5.88216 112.25 2.55232 115.552 2.55232 119.625V139.625C2.55232 143.698 5.88216 147 9.98972 147H42.2604C46.368 147 49.6978 143.698 49.6978 139.625V119.625ZM50.9584 139.625C50.9584 144.388 47.0642 148.25 42.2604 148.25H9.98972C5.18596 148.25 1.29175 144.388 1.29175 139.625V119.625C1.29175 114.862 5.18596 111 9.98972 111H42.2604C47.0642 111 50.9584 114.862 50.9584 119.625V139.625Z" fill="#509EE3"/>
<path d="M17.125 127.625L11.125 131.625V137.625H41.125V127.625L35.125 131.625L29.125 121.625L23.125 129.625L17.125 127.625Z" fill="#0572D2" fill-opacity="0.07"/>
<path d="M29.1572 121.001C29.365 121.012 29.5541 121.125 29.6611 121.304L35.3232 130.74L40.7783 127.104L41.4717 128.146L35.4717 132.146C35.3296 132.24 35.1549 132.272 34.9883 132.234C34.8215 132.197 34.6768 132.093 34.5889 131.946L29.0664 122.743L23.625 130C23.4637 130.215 23.1829 130.303 22.9277 130.218L17.2178 128.314L11.4717 132.146L10.7783 131.104L16.7783 127.104L16.8398 127.068C16.9883 126.992 17.1622 126.979 17.3223 127.032L22.8945 128.89L28.625 121.25C28.7499 121.084 28.9494 120.99 29.1572 121.001Z" fill="#509EE3"/>
<path d="M210.125 183.625C210.125 179.207 213.707 175.625 218.125 175.625H250.125C254.543 175.625 258.125 179.207 258.125 183.625V203.625C258.125 208.043 254.543 211.625 250.125 211.625H218.125C213.707 211.625 210.125 208.043 210.125 203.625V183.625Z" fill="white"/>
<path d="M218.125 175.625V176.25H250.125V175.625V175H218.125V175.625ZM258.125 183.625H257.5V203.625H258.125H258.75V183.625H258.125ZM250.125 211.625V211H218.125V211.625V212.25H250.125V211.625ZM210.125 203.625H210.75V183.625H210.125H209.5V203.625H210.125ZM218.125 211.625V211C214.052 211 210.75 207.698 210.75 203.625H210.125H209.5C209.5 208.388 213.362 212.25 218.125 212.25V211.625ZM258.125 203.625H257.5C257.5 207.698 254.198 211 250.125 211V211.625V212.25C254.888 212.25 258.75 208.388 258.75 203.625H258.125ZM250.125 175.625V176.25C254.198 176.25 257.5 179.552 257.5 183.625H258.125H258.75C258.75 178.862 254.888 175 250.125 175V175.625ZM218.125 175.625V175C213.362 175 209.5 178.862 209.5 183.625H210.125H210.75C210.75 179.552 214.052 176.25 218.125 176.25V175.625Z" fill="#509EE3"/>
<rect x="238.125" y="185.625" width="4" height="16" fill="#0572D2" fill-opacity="0.21"/>
<rect x="226.125" y="190.625" width="4" height="11" fill="#0572D2" fill-opacity="0.21"/>
<rect x="244.125" y="191.625" width="4" height="10" fill="#0572D2" fill-opacity="0.21"/>
<rect x="220.125" y="194.625" width="4" height="7" fill="#0572D2" fill-opacity="0.21"/>
<rect x="232.125" y="197.625" width="4" height="4" fill="#0572D2" fill-opacity="0.21"/>
<path d="M210.125 183.625C210.125 179.207 213.707 175.625 218.125 175.625H250.125C254.543 175.625 258.125 179.207 258.125 183.625V203.625C258.125 208.043 254.543 211.625 250.125 211.625H218.125C213.707 211.625 210.125 208.043 210.125 203.625V183.625Z" fill="white"/>
<path d="M257.698 183.625C257.698 179.552 254.368 176.25 250.26 176.25H217.99C213.882 176.25 210.552 179.552 210.552 183.625V203.625C210.552 207.698 213.882 211 217.99 211H250.26C254.368 211 257.698 207.698 257.698 203.625V183.625ZM258.958 203.625C258.958 208.388 255.064 212.25 250.26 212.25H217.99C213.186 212.25 209.292 208.388 209.292 203.625V183.625C209.292 178.862 213.186 175 217.99 175H250.26C255.064 175 258.958 178.862 258.958 183.625V203.625Z" fill="#509EE3"/>
<path d="M167.13 129V130.25H166.625V129H167.13ZM170.159 129V130.25H169.149V129H170.159ZM173.188 129V130.25H172.179V129H173.188ZM176.218 129V130.25H175.208V129H176.218ZM179.247 129V130.25H178.237V129H179.247ZM182.277 129V130.25H181.268V129H182.277ZM185.307 129V130.25H184.297V129H185.307ZM188.336 129V130.25H187.326V129H188.336ZM191.365 129V130.25H190.355V129H191.365ZM194.395 129V130.25H193.385V129H194.395ZM197.424 129V130.25H196.414V129H197.424ZM200.453 129V130.25H199.443V129H200.453ZM203.482 129V130.25H202.473V129H203.482ZM206.513 129V130.25H205.503V129H206.513ZM209.542 129V130.25H208.532V129H209.542ZM212.571 129V130.25H211.562V129H212.571ZM215.601 129V130.25H214.591V129H215.601ZM218.649 129.616L218.67 130.241C218.489 130.247 218.307 130.25 218.125 130.25H217.62V129H218.125C218.294 129 218.462 128.998 218.63 128.992L218.649 129.616ZM221.901 129.819C221.55 129.901 221.194 129.971 220.834 130.03L220.732 129.414L220.632 128.797C220.964 128.742 221.293 128.677 221.618 128.602L221.901 129.819ZM224.73 128.202L224.988 128.771C224.659 128.921 224.324 129.06 223.983 129.188L223.542 128.019C223.857 127.9 224.167 127.771 224.472 127.633L224.73 128.202ZM227.81 127.14C227.515 127.351 227.213 127.552 226.905 127.744L226.575 127.214L226.244 126.684C226.529 126.506 226.809 126.319 227.081 126.124L227.81 127.14ZM230.259 124.99C230.011 125.255 229.755 125.511 229.49 125.759L228.635 124.847C228.88 124.617 229.117 124.38 229.347 124.135L230.259 124.99ZM231.714 122.075L232.244 122.405C232.052 122.713 231.851 123.015 231.64 123.31L230.624 122.581C230.819 122.309 231.006 122.029 231.184 121.744L231.714 122.075ZM233.688 119.483C233.56 119.824 233.421 120.159 233.271 120.488L232.702 120.23L232.133 119.972C232.271 119.667 232.4 119.357 232.519 119.042L233.688 119.483ZM233.914 116.232L234.53 116.334C234.471 116.694 234.401 117.05 234.319 117.401L233.102 117.118C233.177 116.793 233.242 116.464 233.297 116.132L233.914 116.232ZM233.5 113.625V113.125H234.75V113.625C234.75 113.807 234.747 113.989 234.741 114.17L234.116 114.149L233.492 114.13C233.498 113.962 233.5 113.794 233.5 113.625ZM234.75 110.125V111.125H233.5V110.125H234.75ZM234.75 107.125V108.125H233.5V107.125H234.75ZM234.75 104.125V105.125H233.5V104.125H234.75ZM234.75 101.125V102.125H233.5V101.125H234.75ZM234.75 98.125V99.125H233.5V98.125H234.75ZM234.75 95.125V96.125H233.5V95.125H234.75ZM234.75 92.125V93.125H233.5V92.125H234.75ZM234.75 89.125V90.125H233.5V89.125H234.75ZM234.75 86.125V87.125H233.5V86.125H234.75ZM234.75 83.625V84.125H233.5V83.625H234.75Z" fill="#509EE3"/>
<path d="M234.75 175.125V175.625H233.5V175.125H234.75ZM234.75 172.125V173.125H233.5V172.125H234.75ZM234.75 169.125V170.125H233.5V169.125H234.75ZM234.75 166.125V167.125H233.5V166.125H234.75ZM234.75 163.125V164.125H233.5V163.125H234.75ZM234.75 160.125V161.125H233.5V160.125H234.75ZM234.75 157.125V158.125H233.5V157.125H234.75ZM234.75 154.125V155.125H233.5V154.125H234.75ZM234.75 151.125V152.125H233.5V151.125H234.75ZM234.75 148.125V149.125H233.5V148.125H234.75ZM233.5 145.625C233.5 145.456 233.498 145.288 233.492 145.12L234.116 145.101L234.741 145.08C234.747 145.261 234.75 145.443 234.75 145.625V146.125H233.5V145.625ZM234.319 141.849C234.401 142.2 234.471 142.556 234.53 142.916L233.914 143.018L233.297 143.118C233.242 142.786 233.177 142.457 233.102 142.132L234.319 141.849ZM233.271 138.762C233.421 139.091 233.56 139.426 233.688 139.767L232.519 140.208C232.4 139.893 232.271 139.583 232.133 139.278L232.702 139.02L233.271 138.762ZM231.64 135.94C231.851 136.235 232.052 136.537 232.244 136.845L231.714 137.175L231.184 137.506C231.006 137.221 230.819 136.941 230.624 136.669L231.64 135.94ZM229.49 133.491C229.755 133.739 230.011 133.995 230.259 134.26L229.347 135.115C229.117 134.87 228.88 134.633 228.635 134.403L229.49 133.491ZM226.905 131.506C227.213 131.698 227.515 131.899 227.81 132.11L227.081 133.126C226.809 132.931 226.529 132.744 226.244 132.566L226.575 132.036L226.905 131.506ZM223.983 130.062C224.324 130.19 224.659 130.329 224.988 130.479L224.73 131.048L224.472 131.617C224.167 131.479 223.857 131.35 223.542 131.231L223.983 130.062ZM220.834 129.22C221.194 129.279 221.55 129.349 221.901 129.431L221.618 130.648C221.293 130.573 220.964 130.508 220.632 130.453L220.732 129.836L220.834 129.22ZM218.125 129C218.307 129 218.489 129.003 218.67 129.009L218.649 129.634L218.63 130.258C218.462 130.252 218.294 130.25 218.125 130.25H217.62V129H218.125ZM167.13 129V130.25H166.625V129H167.13ZM170.159 129V130.25H169.149V129H170.159ZM173.188 129V130.25H172.179V129H173.188ZM176.218 129V130.25H175.208V129H176.218ZM179.247 129V130.25H178.237V129H179.247ZM182.277 129V130.25H181.268V129H182.277ZM185.307 129V130.25H184.297V129H185.307ZM188.336 129V130.25H187.326V129H188.336ZM191.365 129V130.25H190.355V129H191.365ZM194.395 129V130.25H193.385V129H194.395ZM197.424 129V130.25H196.414V129H197.424ZM200.453 129V130.25H199.443V129H200.453ZM203.482 129V130.25H202.473V129H203.482ZM206.513 129V130.25H205.503V129H206.513ZM209.542 129V130.25H208.532V129H209.542ZM212.571 129V130.25H211.562V129H212.571ZM215.601 129V130.25H214.591V129H215.601Z" fill="#509EE3"/>
<path d="M130.75 221.134V221.625H129.5V221.134H130.75ZM130.75 218.187V219.169H129.5V218.187H130.75ZM130.75 215.239V216.222H129.5V215.239H130.75ZM130.75 212.292V213.274H129.5V212.292H130.75ZM130.75 209.345V210.327H129.5V209.345H130.75ZM130.75 206.396V207.379H129.5V206.396H130.75ZM130.75 203.449V204.432H129.5V203.449H130.75ZM130.75 200.502V201.484H129.5V200.502H130.75ZM130.75 197.555V198.537H129.5V197.555H130.75ZM130.75 194.607V195.59H129.5V194.607H130.75ZM130.75 191.66V192.643H129.5V191.66H130.75ZM130.75 188.713V189.695H129.5V188.713H130.75ZM130.75 185.766V186.748H129.5V185.766H130.75ZM130.75 182.818V183.801H129.5V182.818H130.75ZM130.75 179.871V180.854H129.5V179.871H130.75ZM130.75 176.923V177.905H129.5V176.923H130.75ZM130.75 173.976V174.958H129.5V173.976H130.75ZM130.75 171.028V172.011H129.5V171.028H130.75ZM130.75 168.081V169.063H129.5V168.081H130.75ZM130.75 165.625V166.116H129.5V165.625H130.75Z" fill="#509EE3"/>
<path d="M93.6357 129L94.125 129L94.125 130.25L93.6357 130.25L93.6357 129ZM90.7031 129L91.6807 129L91.6807 130.25L90.7031 130.25L90.7031 129ZM87.7695 129L88.7471 129L88.7471 130.25L87.7695 130.25L87.7695 129ZM84.8359 129L85.8135 129L85.8135 130.25L84.8359 130.25L84.8359 129ZM81.9023 129L82.8809 129L82.8809 130.25L81.9023 130.25L81.9023 129ZM78.9697 129L79.9473 129L79.9473 130.25L78.9697 130.25L78.9697 129ZM76.0361 129L77.0137 129L77.0137 130.25L76.0361 130.25L76.0361 129ZM73.1025 129L74.0801 129L74.0801 130.25L73.1025 130.25L73.1025 129ZM70.1699 129L71.1475 129L71.1475 130.25L70.1699 130.25L70.1699 129ZM67.2363 129L68.2139 129L68.2139 130.25L67.2363 130.25L67.2363 129ZM64.3027 129L65.2803 129L65.2803 130.25L64.3027 130.25L64.3027 129ZM61.3691 129L62.3477 129L62.3477 130.25L61.3691 130.25L61.3691 129ZM58.4365 129L59.4141 129L59.4141 130.25L58.4365 130.25L58.4365 129ZM55.5029 129L56.4805 129L56.4805 130.25L55.5029 130.25L55.5029 129ZM52.5693 129L53.5469 129L53.5469 130.25L52.5693 130.25L52.5693 129ZM50.125 129L50.6143 129L50.6143 130.25L50.125 130.25L50.125 129Z" fill="#509EE3"/>
<circle cx="130.125" cy="221.625" r="1.875" fill="white" stroke="#509EE3" stroke-width="1.25"/>
<path d="M132.625 165.625C132.625 167.006 131.506 168.125 130.125 168.125C128.744 168.125 127.625 167.006 127.625 165.625C127.625 164.244 128.744 163.125 130.125 163.125C131.506 163.125 132.625 164.244 132.625 165.625Z" fill="white"/>
<path d="M131.375 165.625C131.375 164.935 130.815 164.375 130.125 164.375C129.435 164.375 128.875 164.935 128.875 165.625C128.875 166.315 129.435 166.875 130.125 166.875V168.125C128.744 168.125 127.625 167.006 127.625 165.625C127.625 164.244 128.744 163.125 130.125 163.125C131.506 163.125 132.625 164.244 132.625 165.625C132.625 167.006 131.506 168.125 130.125 168.125V166.875C130.815 166.875 131.375 166.315 131.375 165.625Z" fill="#509EE3"/>
<path d="M132.625 93.125C132.625 94.5057 131.506 95.625 130.125 95.625C128.744 95.625 127.625 94.5057 127.625 93.125C127.625 91.7443 128.744 90.625 130.125 90.625C131.506 90.625 132.625 91.7443 132.625 93.125Z" fill="white"/>
<path d="M131.375 93.125C131.375 92.4346 130.815 91.875 130.125 91.875C129.435 91.875 128.875 92.4346 128.875 93.125C128.875 93.8154 129.435 94.375 130.125 94.375V95.625C128.744 95.625 127.625 94.5057 127.625 93.125C127.625 91.7443 128.744 90.625 130.125 90.625C131.506 90.625 132.625 91.7443 132.625 93.125C132.625 94.5057 131.506 95.625 130.125 95.625V94.375C130.815 94.375 131.375 93.8154 131.375 93.125Z" fill="#509EE3"/>
<path d="M236.625 83.625C236.625 85.0057 235.506 86.125 234.125 86.125C232.744 86.125 231.625 85.0057 231.625 83.625C231.625 82.2443 232.744 81.125 234.125 81.125C235.506 81.125 236.625 82.2443 236.625 83.625Z" fill="white"/>
<path d="M235.375 83.625C235.375 82.9346 234.815 82.375 234.125 82.375C233.435 82.375 232.875 82.9346 232.875 83.625C232.875 84.3154 233.435 84.875 234.125 84.875V86.125C232.744 86.125 231.625 85.0057 231.625 83.625C231.625 82.2443 232.744 81.125 234.125 81.125C235.506 81.125 236.625 82.2443 236.625 83.625C236.625 85.0057 235.506 86.125 234.125 86.125V84.875C234.815 84.875 235.375 84.3154 235.375 83.625Z" fill="#509EE3"/>
<path d="M236.625 175.625C236.625 177.006 235.506 178.125 234.125 178.125C232.744 178.125 231.625 177.006 231.625 175.625C231.625 174.244 232.744 173.125 234.125 173.125C235.506 173.125 236.625 174.244 236.625 175.625Z" fill="white"/>
<path d="M235.375 175.625C235.375 174.935 234.815 174.375 234.125 174.375C233.435 174.375 232.875 174.935 232.875 175.625C232.875 176.315 233.435 176.875 234.125 176.875V178.125C232.744 178.125 231.625 177.006 231.625 175.625C231.625 174.244 232.744 173.125 234.125 173.125C235.506 173.125 236.625 174.244 236.625 175.625C236.625 177.006 235.506 178.125 234.125 178.125V176.875C234.815 176.875 235.375 176.315 235.375 175.625Z" fill="#509EE3"/>
<path d="M96.625 129.625C96.625 131.006 95.5057 132.125 94.125 132.125C92.7443 132.125 91.625 131.006 91.625 129.625C91.625 128.244 92.7443 127.125 94.125 127.125C95.5057 127.125 96.625 128.244 96.625 129.625Z" fill="white"/>
<path d="M95.375 129.625C95.375 128.935 94.8154 128.375 94.125 128.375C93.4346 128.375 92.875 128.935 92.875 129.625C92.875 130.315 93.4346 130.875 94.125 130.875V132.125C92.7443 132.125 91.625 131.006 91.625 129.625C91.625 128.244 92.7443 127.125 94.125 127.125C95.5057 127.125 96.625 128.244 96.625 129.625C96.625 131.006 95.5057 132.125 94.125 132.125V130.875C94.8154 130.875 95.375 130.315 95.375 129.625Z" fill="#509EE3"/>
<path d="M168.625 129.625C168.625 131.006 167.506 132.125 166.125 132.125C164.744 132.125 163.625 131.006 163.625 129.625C163.625 128.244 164.744 127.125 166.125 127.125C167.506 127.125 168.625 128.244 168.625 129.625Z" fill="white"/>
<path d="M167.375 129.625C167.375 128.935 166.815 128.375 166.125 128.375C165.435 128.375 164.875 128.935 164.875 129.625C164.875 130.315 165.435 130.875 166.125 130.875V132.125C164.744 132.125 163.625 131.006 163.625 129.625C163.625 128.244 164.744 127.125 166.125 127.125C167.506 127.125 168.625 128.244 168.625 129.625C168.625 131.006 167.506 132.125 166.125 132.125V130.875C166.815 130.875 167.375 130.315 167.375 129.625Z" fill="#509EE3"/>
<path d="M52.625 129.625C52.625 131.006 51.5057 132.125 50.125 132.125C48.7443 132.125 47.625 131.006 47.625 129.625C47.625 128.244 48.7443 127.125 50.125 127.125C51.5057 127.125 52.625 128.244 52.625 129.625Z" fill="white"/>
<path d="M51.375 129.625C51.375 128.935 50.8154 128.375 50.125 128.375C49.4346 128.375 48.875 128.935 48.875 129.625C48.875 130.315 49.4346 130.875 50.125 130.875V132.125C48.7443 132.125 47.625 131.006 47.625 129.625C47.625 128.244 48.7443 127.125 50.125 127.125C51.5057 127.125 52.625 128.244 52.625 129.625C52.625 131.006 51.5057 132.125 50.125 132.125V130.875C50.8154 130.875 51.375 130.315 51.375 129.625Z" fill="#509EE3"/>
<circle cx="234.125" cy="193.625" r="10" fill="#0572D2" fill-opacity="0.21"/>
<path d="M227.496 186.112L234.567 193.183C234.811 193.427 234.811 193.823 234.567 194.067L227.496 201.138L226.612 200.254L233.241 193.625L226.612 186.996L227.496 186.112Z" fill="white"/>
</svg>
