<svg height="120" viewBox="0 0 120 120" width="120" xmlns="http://www.w3.org/2000/svg"><g fill="none" fill-rule="evenodd"><g transform="translate(28 1)"><rect fill="#fff" height="104" rx="10" stroke="#e3e3e3" stroke-width="2" width="68"/><g fill="#d9d9d9"><path d="m34 48c9.3888407 0 17-7.6111593 17-17s-7.6111593-17-17-17-17 7.6111593-17 17 7.6111593 17 17 17zm0-2c-8.2842712 0-15-6.7157288-15-15s6.7157288-15 15-15 15 6.7157288 15 15-6.7157288 15-15 15zm-5-22.0046024c0-.5497429.4438648-.9953976 1-.9953976.5522847 0 1 .4556644 1 .9953976v8.0092048c0 .5497429-.4438648.9953976-1 .9953976-.5522847 0-1-.4556644-1-.9953976zm8 0c0-.5497429.4438648-.9953976 1-.9953976.5522847 0 1 .4556644 1 .9953976v8.0092048c0 .5497429-.4438648.9953976-1 .9953976-.5522847 0-1-.4556644-1-.9953976zm0 15.0046024c0-1.6568542-1.3431458-3-3-3s-3 1.3431458-3 3z"/><path d="m34 88c9.3888407 0 17-7.6111593 17-17s-7.6111593-17-17-17-17 7.6111593-17 17 7.6111593 17 17 17zm0-2c-8.2842712 0-15-6.7157288-15-15s6.7157288-15 15-15 15 6.7157288 15 15-6.7157288 15-15 15zm-5-22.0046024c0-.5497429.4438648-.9953976 1-.9953976.5522847 0 1 .4556644 1 .9953976v8.0092048c0 .5497429-.4438648.9953976-1 .9953976-.5522847 0-1-.4556644-1-.9953976zm8 0c0-.5497429.4438648-.9953976 1-.9953976.5522847 0 1 .4556644 1 .9953976v8.0092048c0 .5497429-.4438648.9953976-1 .9953976-.5522847 0-1-.4556644-1-.9953976zm0 15.0046024c0-1.6568542-1.3431458-3-3-3s-3 1.3431458-3 3z"/></g></g><circle cx="101.5" cy="102.5" fill="#fff" r="17.5" stroke="#e3e3e3" stroke-width="2"/><path d="m108.5 118.5c7.5-3 10.5-11 10.5-15s-.835017-16.5-10.5-16.5c-9.6649831 0-17.5 8.8350169-17.5 18.5 0 9.664983 10 16 17.5 13z" fill="#fff" stroke="#e3e3e3" stroke-width="2"/><g fill="#d8d8d8"><rect height="4" rx="40" transform="matrix(.92050485 .39073113 -.39073113 .92050485 50.863933 -34.004217)" width="10" x="104" y="106"/><rect height="5" rx="40" stroke="#fff" stroke-width="2" transform="matrix(.92050485 .39073113 -.39073113 .92050485 48.549177 -31.626827)" width="10" x="97" y="101"/><rect height="5" rx="40" transform="matrix(.92050485 .39073113 -.39073113 .92050485 47.582466 -34.875291)" width="11" x="104" y="97"/></g><path d="m28.0951486 78s-21.99999956 8-24.49999956 15.75 1.99999996 15.75 30.49999996 15.75 27.5-13.5 53-13.5" stroke="#efefef" stroke-width="4"/></g></svg>