<svg width="120px" height="120px" viewBox="0 0 120 120" version="1.1" xmlns="http://www.w3.org/2000/svg" xmlns:xlink="http://www.w3.org/1999/xlink">
    <g id="Page-1" stroke="none" stroke-width="1" fill="none" fill-rule="evenodd" sketch:type="MSPage">
        <g id="Artboard-21-Copy-2" sketch:type="MSArtboardGroup">
            <g id="Rectangle-429-Copy-2-+-Shape-+-Shape" sketch:type="MSLayerGroup" transform="translate(28.000000, 1.000000)">
                <rect id="Rectangle-429-Copy-2" stroke="#E3E3E3" stroke-width="2" fill="#FFFFFF" sketch:type="MSShapeGroup" x="0" y="0" width="68" height="104" rx="10"></rect>
                <path d="M34,48 C43.3888407,48 51,40.3888407 51,31 C51,21.6111593 43.3888407,14 34,14 C24.6111593,14 17,21.6111593 17,31 C17,40.3888407 24.6111593,48 34,48 Z M34,46 C25.7157288,46 19,39.2842712 19,31 C19,22.7157288 25.7157288,16 34,16 C42.2842712,16 49,22.7157288 49,31 C49,39.2842712 42.2842712,46 34,46 Z M29,23.9953976 C29,23.4456547 29.4438648,23 30,23 C30.5522847,23 31,23.4556644 31,23.9953976 L31,32.0046024 C31,32.5543453 30.5561352,33 30,33 C29.4477153,33 29,32.5443356 29,32.0046024 L29,23.9953976 Z M37,23.9953976 C37,23.4456547 37.4438648,23 38,23 C38.5522847,23 39,23.4556644 39,23.9953976 L39,32.0046024 C39,32.5543453 38.5561352,33 38,33 C37.4477153,33 37,32.5443356 37,32.0046024 L37,23.9953976 Z M37,39 C37,37.3431458 35.6568542,36 34,36 C32.3431458,36 31,37.3431458 31,39 L37,39 Z" id="Shape" fill="#D9D9D9" sketch:type="MSShapeGroup"></path>
                <path d="M34,88 C43.3888407,88 51,80.3888407 51,71 C51,61.6111593 43.3888407,54 34,54 C24.6111593,54 17,61.6111593 17,71 C17,80.3888407 24.6111593,88 34,88 Z M34,86 C25.7157288,86 19,79.2842712 19,71 C19,62.7157288 25.7157288,56 34,56 C42.2842712,56 49,62.7157288 49,71 C49,79.2842712 42.2842712,86 34,86 Z M29,63.9953976 C29,63.4456547 29.4438648,63 30,63 C30.5522847,63 31,63.4556644 31,63.9953976 L31,72.0046024 C31,72.5543453 30.5561352,73 30,73 C29.4477153,73 29,72.5443356 29,72.0046024 L29,63.9953976 Z M37,63.9953976 C37,63.4456547 37.4438648,63 38,63 C38.5522847,63 39,63.4556644 39,63.9953976 L39,72.0046024 C39,72.5543453 38.5561352,73 38,73 C37.4477153,73 37,72.5443356 37,72.0046024 L37,63.9953976 Z M37,79 C37,77.3431458 35.6568542,76 34,76 C32.3431458,76 31,77.3431458 31,79 L37,79 Z" id="Shape" fill="#D9D9D9" sketch:type="MSShapeGroup"></path>
            </g>
            <circle id="Oval-741-Copy-2" stroke="#E3E3E3" stroke-width="2" fill="#FFFFFF" sketch:type="MSShapeGroup" cx="101.5" cy="102.5" r="17.5"></circle>
            <path d="M108.5,118.5 C116,115.5 119,107.5 119,103.5 C119,99.5 118.164983,87 108.5,87 C98.8350169,87 91,95.8350169 91,105.5 C91,115.164983 101,121.5 108.5,118.5 Z" id="Oval-741-Copy-3" stroke="#E3E3E3" stroke-width="2" fill="#FFFFFF" sketch:type="MSShapeGroup"></path>
            <rect id="Rectangle-428-Copy-3" fill="#D8D8D8" sketch:type="MSShapeGroup" transform="translate(109.000000, 108.000000) rotate(23.000000) translate(-109.000000, -108.000000) " x="104" y="106" width="10" height="4" rx="40"></rect>
            <rect id="Rectangle-428-Copy-4" stroke="#FFFFFF" stroke-width="2" fill="#D8D8D8" sketch:type="MSShapeGroup" transform="translate(102.000000, 103.500000) rotate(23.000000) translate(-102.000000, -103.500000) " x="97" y="101" width="10" height="5" rx="40"></rect>
            <rect id="Rectangle-428-Copy-5" fill="#D8D8D8" sketch:type="MSShapeGroup" transform="translate(109.500000, 99.500000) rotate(23.000000) translate(-109.500000, -99.500000) " x="104" y="97" width="11" height="5" rx="40"></rect>
            <path d="M28.0951486,78 C28.0951486,78 6.09514904,86 3.59514904,93.75 C1.09514904,101.5 5.595149,109.5 34.095149,109.5 C62.595149,109.5 61.595149,96 87.095149,96" id="Path-276-Copy" stroke="#EFEFEF" stroke-width="4" sketch:type="MSShapeGroup"></path>
        </g>
    </g>
</svg>
