<svg width="81" height="20" fill="none" xmlns="http://www.w3.org/2000/svg">
  <g clip-path="url(#a)">
    <path d="M33.656 4.99v10.15h-1.853V8.908c0-.131.002-.27.007-.42.01-.15.023-.301.042-.455L28.95 13.54c-.159.303-.403.454-.734.454h-.294a.834.834 0 0 1-.434-.112.833.833 0 0 1-.3-.342l-2.916-5.527c.014.163.025.322.035.476.009.15.014.289.014.42v6.232h-1.854V4.99h1.595c.088 0 .168.002.237.007.07.005.131.019.182.042a.34.34 0 0 1 .147.098.653.653 0 0 1 .133.182l2.84 5.414c.088.164.17.332.244.504.08.172.154.35.224.532.07-.187.142-.369.217-.546a7.39 7.39 0 0 1 .251-.51l2.819-5.394a.653.653 0 0 1 .132-.182.404.404 0 0 1 .147-.098.576.576 0 0 1 .182-.042c.07-.005.151-.007.245-.007h1.594ZM39.58 10.684c0-.2-.028-.391-.084-.573a1.29 1.29 0 0 0-.252-.483 1.202 1.202 0 0 0-.44-.329 1.475 1.475 0 0 0-.637-.126c-.46 0-.822.13-1.083.392-.262.261-.432.634-.51 1.12h3.006Zm-3.035 1.148c.06.676.252 1.17.574 1.483.326.312.75.468 1.272.468.266 0 .495-.03.686-.09.196-.066.366-.136.51-.21.15-.08.282-.15.399-.21a.75.75 0 0 1 .356-.098c.15 0 .266.056.35.168l.56.7a3.122 3.122 0 0 1-.679.594 3.885 3.885 0 0 1-.77.37c-.265.09-.533.15-.803.182-.27.038-.532.056-.783.056-.504 0-.975-.081-1.413-.244a3.306 3.306 0 0 1-1.14-.735 3.506 3.506 0 0 1-.762-1.21c-.187-.48-.28-1.038-.28-1.672 0-.49.08-.952.238-1.385.163-.434.396-.812.7-1.133a3.272 3.272 0 0 1 1.104-.763 3.604 3.604 0 0 1 1.469-.287c.461 0 .885.075 1.272.224a2.75 2.75 0 0 1 1.665 1.672c.158.406.237.87.237 1.392 0 .145-.007.264-.02.357a.63.63 0 0 1-.07.224.273.273 0 0 1-.133.119.697.697 0 0 1-.217.028h-4.322ZM44.633 15.252c-.327 0-.616-.046-.868-.14a1.769 1.769 0 0 1-.636-.412 1.732 1.732 0 0 1-.392-.644 2.561 2.561 0 0 1-.132-.853v-3.89h-.679a.39.39 0 0 1-.266-.098c-.07-.065-.104-.163-.104-.294v-.755l1.154-.21.391-1.868c.051-.21.194-.314.427-.314h1.007V7.97h1.86v1.343h-1.86v3.764c0 .2.046.359.14.475a.509.509 0 0 0 .412.175c.093 0 .173-.009.238-.028.065-.023.121-.046.168-.07.046-.028.088-.05.126-.07a.259.259 0 0 1 .126-.035c.055 0 .102.014.14.043a.378.378 0 0 1 .111.125l.58.924c-.265.21-.566.368-.901.475-.336.108-.683.161-1.042.161ZM50.919 12.125c-.471.024-.863.066-1.175.126-.312.056-.562.13-.748.224a.996.996 0 0 0-.392.322.7.7 0 0 0-.112.385c0 .28.077.478.231.594.159.117.378.175.657.175.322 0 .6-.056.832-.168.238-.116.474-.296.707-.538v-1.12Zm-3.93-3.196a4.264 4.264 0 0 1 1.405-.854 4.726 4.726 0 0 1 1.665-.287c.429 0 .81.07 1.147.21a2.498 2.498 0 0 1 1.406 1.476c.125.345.188.723.188 1.133v4.533h-.881c-.182 0-.322-.025-.42-.077-.093-.05-.17-.158-.23-.321l-.154-.462a6.522 6.522 0 0 1-.532.42 3.158 3.158 0 0 1-.524.308 2.88 2.88 0 0 1-.588.181 3.473 3.473 0 0 1-.692.063 2.82 2.82 0 0 1-.867-.126 1.95 1.95 0 0 1-.679-.37 1.701 1.701 0 0 1-.433-.623 2.212 2.212 0 0 1-.154-.853c0-.266.068-.532.203-.798s.366-.506.692-.72c.331-.22.77-.4 1.315-.539.55-.145 1.238-.226 2.063-.245v-.37c0-.453-.096-.784-.287-.994-.191-.214-.466-.322-.825-.322-.266 0-.487.033-.664.098-.178.06-.334.128-.469.203-.13.07-.254.138-.37.203a.866.866 0 0 1-.406.09.582.582 0 0 1-.343-.097 1.014 1.014 0 0 1-.224-.245l-.342-.615ZM55.956 13.238c.182.21.378.356.588.44.214.084.436.126.664.126.238 0 .452-.042.644-.126.195-.088.363-.226.503-.412.14-.192.247-.439.322-.742.074-.303.112-.67.112-1.098 0-.383-.03-.707-.091-.973a1.854 1.854 0 0 0-.273-.664 1.05 1.05 0 0 0-.434-.378 1.426 1.426 0 0 0-.601-.119c-.303 0-.566.068-.79.203-.22.13-.434.324-.644.58v3.163Zm0-4.477c.285-.285.6-.513.944-.686a2.559 2.559 0 0 1 1.161-.259c.415 0 .788.084 1.12.252.335.163.62.399.852.707.238.307.42.68.546 1.119.13.434.196.92.196 1.462 0 .583-.075 1.114-.224 1.595a3.652 3.652 0 0 1-.623 1.224 2.76 2.76 0 0 1-2.224 1.07 2.368 2.368 0 0 1-1.09-.252 2.297 2.297 0 0 1-.413-.28 3.365 3.365 0 0 1-.356-.37l-.077.434c-.033.135-.087.23-.161.286a.522.522 0 0 1-.3.077h-1.28V4.71h1.93v4.05ZM65.506 12.125c-.47.024-.862.066-1.175.126-.312.056-.561.13-.748.224a.996.996 0 0 0-.392.322.7.7 0 0 0-.111.385c0 .28.077.478.23.594.159.117.378.175.658.175.321 0 .599-.056.832-.168.238-.116.473-.296.706-.538v-1.12Zm-3.93-3.196a4.263 4.263 0 0 1 1.406-.854 4.726 4.726 0 0 1 1.664-.287c.429 0 .811.07 1.147.21a2.498 2.498 0 0 1 1.406 1.476c.125.345.188.723.188 1.133v4.533h-.88c-.183 0-.323-.025-.42-.077-.094-.05-.17-.158-.231-.321l-.154-.462a6.539 6.539 0 0 1-.531.42 3.158 3.158 0 0 1-.525.308 2.88 2.88 0 0 1-.587.181 3.473 3.473 0 0 1-.693.063 2.82 2.82 0 0 1-.867-.126 1.95 1.95 0 0 1-.678-.37 1.702 1.702 0 0 1-.434-.623 2.212 2.212 0 0 1-.154-.853c0-.266.068-.532.203-.798s.366-.506.693-.72c.33-.22.769-.4 1.314-.539.55-.145 1.238-.226 2.063-.245v-.37c0-.453-.095-.784-.287-.994-.19-.214-.466-.322-.825-.322-.265 0-.487.033-.664.098-.177.06-.333.128-.469.203-.13.07-.254.138-.37.203a.866.866 0 0 1-.406.09.582.582 0 0 1-.343-.097 1.014 1.014 0 0 1-.223-.245l-.343-.615ZM73.097 9.411a.593.593 0 0 1-.161.175.403.403 0 0 1-.217.049.664.664 0 0 1-.287-.07 8.14 8.14 0 0 0-.328-.147 3.076 3.076 0 0 0-.42-.154 1.862 1.862 0 0 0-.538-.07c-.313 0-.555.066-.728.196a.593.593 0 0 0-.259.504c0 .145.05.266.147.364.098.098.226.184.385.259.163.07.347.137.552.202.206.061.415.129.63.203.219.075.431.161.636.26.205.097.387.22.546.37.163.144.293.322.391.532.098.205.147.454.147.748a2.4 2.4 0 0 1-.196.972 2.088 2.088 0 0 1-.56.763 2.653 2.653 0 0 1-.922.503 4.068 4.068 0 0 1-1.273.182c-.247 0-.492-.023-.734-.07a4.07 4.07 0 0 1-.692-.181 4.65 4.65 0 0 1-.616-.287 2.748 2.748 0 0 1-.496-.35l.447-.72a.586.586 0 0 1 .189-.197c.08-.046.18-.07.3-.07.117 0 .224.03.322.092l.329.189c.121.065.263.128.427.188.167.056.375.084.622.084.186 0 .347-.02.482-.063a.946.946 0 0 0 .33-.168.686.686 0 0 0 .181-.244.693.693 0 0 0 .063-.287.508.508 0 0 0-.154-.385 1.256 1.256 0 0 0-.392-.266 3.755 3.755 0 0 0-.552-.203c-.21-.06-.424-.128-.643-.203a5.747 5.747 0 0 1-.637-.265 2.3 2.3 0 0 1-.552-.385 1.928 1.928 0 0 1-.392-.58 2.113 2.113 0 0 1-.147-.833c0-.299.059-.58.175-.847.117-.27.291-.508.525-.713a2.6 2.6 0 0 1 .867-.49c.35-.121.753-.182 1.21-.182.512 0 .979.084 1.398.252.42.168.765.387 1.035.658l-.44.685ZM79.096 10.684c0-.2-.029-.391-.085-.573a1.288 1.288 0 0 0-.251-.483 1.2 1.2 0 0 0-.441-.329 1.474 1.474 0 0 0-.636-.126c-.462 0-.823.13-1.084.392-.261.261-.431.634-.51 1.12h3.007Zm-3.036 1.148c.061.676.252 1.17.574 1.483.326.312.75.468 1.272.468.266 0 .495-.03.686-.09.196-.066.366-.136.51-.21l.399-.21a.747.747 0 0 1 .356-.098c.15 0 .267.056.35.168l.56.7a3.119 3.119 0 0 1-.678.594 3.882 3.882 0 0 1-.77.37c-.266.09-.534.15-.804.182-.27.038-.531.056-.783.056-.504 0-.975-.081-1.413-.244a3.305 3.305 0 0 1-1.14-.735 3.504 3.504 0 0 1-.762-1.21c-.186-.48-.28-1.038-.28-1.672 0-.49.08-.952.238-1.385.163-.434.396-.812.7-1.133a3.274 3.274 0 0 1 1.104-.763 3.604 3.604 0 0 1 1.469-.287c.461 0 .886.075 1.273.224a2.752 2.752 0 0 1 1.664 1.672c.158.406.238.87.238 1.392 0 .145-.007.264-.021.357a.63.63 0 0 1-.07.224.269.269 0 0 1-.133.119.694.694 0 0 1-.217.028H76.06Z" fill="#5A6072"/>
    <path fill-rule="evenodd" clip-rule="evenodd" d="M1.215 5.944a1.215 1.215 0 1 0 0-2.43 1.215 1.215 0 0 0 0 2.43ZM1.215 9.458a1.215 1.215 0 1 0 0-2.43 1.215 1.215 0 0 0 0 2.43ZM4.73 9.458a1.215 1.215 0 1 0-.001-2.43 1.215 1.215 0 0 0 0 2.43ZM15.271 5.944a1.215 1.215 0 1 0 0-2.43 1.215 1.215 0 0 0 0 2.43ZM11.757 9.458a1.215 1.215 0 1 0 0-2.43 1.215 1.215 0 0 0 0 2.43ZM8.243 12.972a1.215 1.215 0 1 0 0-2.43 1.215 1.215 0 0 0 0 2.43ZM15.271 9.458a1.215 1.215 0 1 0 0-2.43 1.215 1.215 0 0 0 0 2.43ZM1.215 12.972a1.215 1.215 0 1 0 0-2.43 1.215 1.215 0 0 0 0 2.43ZM15.271 12.972a1.215 1.215 0 1 0 0-2.43 1.215 1.215 0 0 0 0 2.43ZM1.215 16.486a1.215 1.215 0 1 0 0-2.43 1.215 1.215 0 0 0 0 2.43ZM15.271 16.486a1.215 1.215 0 1 0 0-2.43 1.215 1.215 0 0 0 0 2.43Z" fill="#509EE3"/>
    <path fill-rule="evenodd" clip-rule="evenodd" d="M4.73 5.944a1.215 1.215 0 1 0 0-2.43 1.215 1.215 0 0 0 0 2.43ZM8.243 5.944a1.215 1.215 0 1 0 0-2.43 1.215 1.215 0 0 0 0 2.43ZM8.243 2.43a1.215 1.215 0 1 0 0-2.43 1.215 1.215 0 0 0 0 2.43ZM8.243 9.458a1.215 1.215 0 1 0 0-2.43 1.215 1.215 0 0 0 0 2.43ZM11.757 5.944a1.215 1.215 0 1 0 0-2.43 1.215 1.215 0 0 0 0 2.43ZM4.73 12.972a1.215 1.215 0 1 0 0-2.43 1.215 1.215 0 0 0 0 2.43ZM11.757 12.972a1.215 1.215 0 1 0 0-2.43 1.215 1.215 0 0 0 0 2.43ZM4.73 16.486a1.215 1.215 0 1 0-.001-2.43 1.215 1.215 0 0 0 0 2.43ZM8.243 16.486a1.215 1.215 0 1 0 0-2.43 1.215 1.215 0 0 0 0 2.43ZM8.243 20a1.215 1.215 0 1 0 0-2.43 1.215 1.215 0 0 0 0 2.43ZM11.757 16.486a1.215 1.215 0 1 0 0-2.43 1.215 1.215 0 0 0 0 2.43Z" fill="#C2DAF0"/>
  </g>
  <defs>
    <clipPath id="a">
      <path fill="#fff" d="M0 0h81v20H0z"/>
    </clipPath>
  </defs>
</svg>
