<svg width="65" height="16" fill="none" xmlns="http://www.w3.org/2000/svg">
  <g clip-path="url(#a)">
    <path d="M26.925 3.992v8.12h-1.483V7.126c0-.104.002-.216.006-.336.008-.12.019-.24.034-.364l-2.322 4.405a.623.623 0 0 1-.587.364h-.235a.667.667 0 0 1-.347-.09.666.666 0 0 1-.24-.274L19.416 6.41c.011.13.02.257.028.38.008.12.011.232.011.336v4.986h-1.482v-8.12h1.275c.071 0 .135.002.19.006a.417.417 0 0 1 .146.033.272.272 0 0 1 .118.079.525.525 0 0 1 .106.145l2.271 4.332c.071.13.136.265.196.403.063.138.123.28.18.425.055-.15.113-.295.172-.437.064-.141.131-.278.202-.408l2.254-4.315a.523.523 0 0 1 .107-.145.324.324 0 0 1 .117-.079.46.46 0 0 1 .146-.033c.056-.004.12-.006.195-.006h1.276ZM31.664 8.547c0-.16-.022-.313-.067-.458a1.033 1.033 0 0 0-.202-.387.961.961 0 0 0-.352-.263 1.18 1.18 0 0 0-.51-.1c-.368 0-.657.104-.866.313-.21.209-.345.507-.409.895h2.406Zm-2.428.918c.048.541.201.937.459 1.187.26.25.6.375 1.018.375.212 0 .395-.025.548-.073.157-.052.293-.108.409-.168.119-.063.225-.12.318-.168a.6.6 0 0 1 .286-.078.33.33 0 0 1 .28.134l.447.56c-.164.19-.345.349-.543.475a3.11 3.11 0 0 1-.615.297c-.213.07-.427.12-.643.146-.217.03-.426.044-.627.044-.403 0-.78-.065-1.13-.196a2.644 2.644 0 0 1-.912-.587 2.805 2.805 0 0 1-.61-.968c-.149-.385-.223-.83-.223-1.338A3.2 3.2 0 0 1 27.888 8c.13-.347.317-.65.56-.907.242-.257.536-.46.883-.61.347-.153.739-.229 1.175-.229.37 0 .709.06 1.018.18a2.2 2.2 0 0 1 1.332 1.337c.126.324.19.695.19 1.113 0 .116-.006.211-.017.286a.507.507 0 0 1-.056.179.219.219 0 0 1-.106.095.56.56 0 0 1-.174.022h-3.457ZM35.706 12.202a1.99 1.99 0 0 1-.694-.112 1.415 1.415 0 0 1-.509-.33 1.385 1.385 0 0 1-.313-.515 2.048 2.048 0 0 1-.106-.683V7.451h-.543a.312.312 0 0 1-.212-.079c-.056-.052-.084-.13-.084-.235v-.604l.923-.168.313-1.494c.041-.168.155-.252.341-.252h.806v1.757h1.488v1.075h-1.488v3.01c0 .16.037.288.112.381.078.093.188.14.33.14a.697.697 0 0 0 .19-.022c.052-.02.097-.038.134-.057a1.53 1.53 0 0 1 .101-.055.206.206 0 0 1 .1-.028c.045 0 .083.01.113.033.03.019.06.052.09.1l.463.74a2.268 2.268 0 0 1-.721.38 2.723 2.723 0 0 1-.834.129ZM40.735 9.7c-.377.019-.69.053-.94.101a2.25 2.25 0 0 0-.599.18.797.797 0 0 0-.313.257.56.56 0 0 0-.09.307c0 .224.062.383.185.476.127.093.302.14.526.14.258 0 .48-.045.666-.134a2.05 2.05 0 0 0 .565-.431V9.7ZM37.59 7.143a3.41 3.41 0 0 1 1.124-.683 3.78 3.78 0 0 1 1.332-.23c.343 0 .649.057.917.168a1.998 1.998 0 0 1 1.124 1.18c.102.277.152.58.152.908v3.626h-.705a.737.737 0 0 1-.336-.061c-.074-.041-.136-.127-.184-.258l-.123-.369a5.2 5.2 0 0 1-.426.336 2.52 2.52 0 0 1-.42.246 2.305 2.305 0 0 1-.47.146 2.78 2.78 0 0 1-.553.05c-.254 0-.485-.034-.694-.1a1.559 1.559 0 0 1-.542-.297 1.36 1.36 0 0 1-.347-.499 1.768 1.768 0 0 1-.123-.682c0-.213.054-.426.162-.638.108-.213.293-.405.554-.577.265-.175.615-.319 1.051-.43.44-.116.99-.182 1.65-.197v-.296c0-.362-.076-.627-.229-.795-.152-.171-.373-.257-.66-.257-.212 0-.39.026-.531.078a2.353 2.353 0 0 0-.375.162c-.104.056-.203.11-.297.163a.693.693 0 0 1-.324.072.465.465 0 0 1-.274-.078.811.811 0 0 1-.18-.196l-.273-.492ZM44.765 10.59c.146.168.302.286.47.353.172.067.349.1.532.1.19 0 .361-.033.514-.1.157-.071.291-.181.403-.33.112-.153.198-.351.258-.594.06-.242.089-.535.089-.878 0-.306-.024-.566-.073-.778a1.483 1.483 0 0 0-.218-.532.84.84 0 0 0-.347-.302 1.142 1.142 0 0 0-.48-.095c-.243 0-.454.054-.633.162-.175.105-.347.26-.515.465v2.53Zm0-3.582c.228-.227.48-.41.755-.548.276-.138.586-.207.93-.207.331 0 .63.067.894.201.269.131.496.32.683.566.19.246.335.544.436.895.105.347.157.737.157 1.17 0 .466-.06.891-.18 1.276-.115.38-.28.707-.497.979a2.208 2.208 0 0 1-1.779.856 1.893 1.893 0 0 1-.873-.201 1.84 1.84 0 0 1-.33-.224c-.1-.09-.196-.189-.285-.297l-.062.347c-.026.109-.069.185-.128.23a.417.417 0 0 1-.241.061H43.22V3.768h1.544v3.24ZM52.405 9.7c-.377.019-.69.053-.94.101a2.25 2.25 0 0 0-.598.18.796.796 0 0 0-.314.257.56.56 0 0 0-.09.307c0 .224.062.383.185.476.127.093.302.14.526.14.258 0 .48-.045.666-.134.19-.094.379-.237.565-.431V9.7Zm-3.144-2.557c.34-.306.714-.534 1.124-.683a3.78 3.78 0 0 1 1.332-.23c.343 0 .649.057.917.168a1.998 1.998 0 0 1 1.124 1.18c.102.277.152.58.152.908v3.626h-.705a.737.737 0 0 1-.336-.061c-.074-.041-.136-.127-.184-.258l-.123-.369a5.218 5.218 0 0 1-.425.336c-.135.097-.275.179-.42.246a2.306 2.306 0 0 1-.47.146 2.78 2.78 0 0 1-.554.05c-.253 0-.485-.034-.694-.1a1.56 1.56 0 0 1-.542-.297 1.36 1.36 0 0 1-.347-.499 1.768 1.768 0 0 1-.123-.682c0-.213.054-.426.162-.638.108-.213.293-.405.554-.577.265-.175.615-.319 1.052-.43.44-.116.99-.182 1.65-.197v-.296c0-.362-.076-.627-.23-.795-.152-.171-.372-.257-.66-.257-.212 0-.39.026-.53.078a2.354 2.354 0 0 0-.376.162c-.104.056-.203.11-.296.163a.693.693 0 0 1-.325.072.466.466 0 0 1-.274-.078.813.813 0 0 1-.179-.196l-.274-.492ZM58.477 7.529a.473.473 0 0 1-.128.14.323.323 0 0 1-.174.039.531.531 0 0 1-.23-.056 6.535 6.535 0 0 0-.262-.117 2.46 2.46 0 0 0-.336-.124 1.49 1.49 0 0 0-.43-.056c-.25 0-.444.053-.582.157a.474.474 0 0 0-.207.403c0 .116.039.213.117.291.079.078.181.147.308.207.13.056.278.11.442.162.164.049.332.103.503.163.176.06.345.128.51.207.163.078.309.177.436.296.13.116.235.258.313.426.078.164.118.364.118.599 0 .28-.053.539-.157.777-.1.236-.25.439-.448.61a2.122 2.122 0 0 1-.738.403 3.255 3.255 0 0 1-1.018.146c-.198 0-.394-.019-.588-.056a3.258 3.258 0 0 1-.553-.146 3.734 3.734 0 0 1-.493-.23 2.194 2.194 0 0 1-.397-.279l.358-.576a.468.468 0 0 1 .151-.157.469.469 0 0 1 .24-.056.48.48 0 0 1 .258.073l.263.15c.097.053.21.103.341.152.134.045.3.067.498.067.15 0 .278-.017.386-.05a.759.759 0 0 0 .263-.134.55.55 0 0 0 .145-.196.555.555 0 0 0 .05-.23.406.406 0 0 0-.122-.308 1.003 1.003 0 0 0-.314-.212 2.992 2.992 0 0 0-.441-.163c-.168-.048-.34-.102-.515-.162a4.583 4.583 0 0 1-.51-.213 1.84 1.84 0 0 1-.441-.307 1.543 1.543 0 0 1-.314-.465 1.69 1.69 0 0 1-.117-.666c0-.239.047-.464.14-.677.093-.216.233-.407.42-.57a2.08 2.08 0 0 1 .693-.393 2.95 2.95 0 0 1 .968-.145c.41 0 .783.067 1.119.201.335.135.611.31.828.526l-.353.549ZM63.276 8.547c0-.16-.022-.313-.067-.458a1.028 1.028 0 0 0-.202-.387.96.96 0 0 0-.352-.263 1.18 1.18 0 0 0-.509-.1c-.37 0-.658.104-.867.313-.209.209-.345.507-.409.895h2.406Zm-2.428.918c.049.541.201.937.459 1.187.26.25.6.375 1.018.375.212 0 .396-.025.548-.073.157-.052.293-.108.409-.168.12-.063.225-.12.319-.168a.598.598 0 0 1 .285-.078.33.33 0 0 1 .28.134l.447.56c-.164.19-.345.349-.542.475a3.11 3.11 0 0 1-.616.297c-.213.07-.427.12-.643.146-.216.03-.425.044-.627.044a3.21 3.21 0 0 1-1.13-.196 2.644 2.644 0 0 1-.912-.587 2.804 2.804 0 0 1-.61-.968c-.149-.385-.223-.83-.223-1.338 0-.392.063-.761.19-1.108.13-.347.317-.65.56-.907.242-.257.536-.46.883-.61.347-.153.739-.229 1.175-.229.37 0 .709.06 1.018.18a2.201 2.201 0 0 1 1.331 1.337c.127.324.191.695.191 1.113 0 .116-.006.211-.017.286a.505.505 0 0 1-.056.179.215.215 0 0 1-.106.095.557.557 0 0 1-.173.022h-3.458Z" fill="#5A6072"/>
    <path fill-rule="evenodd" clip-rule="evenodd" d="M.972 4.755a.972.972 0 1 0 0-1.944.972.972 0 0 0 0 1.944ZM.972 7.566a.972.972 0 1 0 0-1.944.972.972 0 0 0 0 1.944ZM3.783 7.566a.972.972 0 1 0 0-1.944.972.972 0 0 0 0 1.944ZM12.217 4.755a.972.972 0 1 0 0-1.944.972.972 0 0 0 0 1.944ZM9.406 7.566a.972.972 0 1 0 0-1.943.972.972 0 0 0 0 1.943ZM6.595 10.377a.972.972 0 1 0 0-1.943.972.972 0 0 0 0 1.944ZM12.217 7.566a.972.972 0 1 0 0-1.944.972.972 0 0 0 0 1.944ZM.972 10.377a.972.972 0 1 0 0-1.943.972.972 0 0 0 0 1.944ZM12.217 10.377a.972.972 0 1 0 0-1.943.972.972 0 0 0 0 1.944ZM.972 13.189a.972.972 0 1 0 0-1.944.972.972 0 0 0 0 1.944ZM12.217 13.189a.972.972 0 1 0 0-1.944.972.972 0 0 0 0 1.944Z" fill="#509EE3"/>
    <path fill-rule="evenodd" clip-rule="evenodd" d="M3.783 4.755a.972.972 0 1 0 0-1.944.972.972 0 0 0 0 1.944ZM6.595 4.755a.972.972 0 1 0 0-1.944.972.972 0 0 0 0 1.944ZM6.595 1.944a.972.972 0 1 0 0-1.944.972.972 0 0 0 0 1.944ZM6.595 7.566a.972.972 0 1 0 0-1.944.972.972 0 0 0 0 1.944ZM9.406 4.755a.972.972 0 1 0 0-1.944.972.972 0 0 0 0 1.944ZM3.783 10.377a.972.972 0 1 0 0-1.943.972.972 0 0 0 0 1.944ZM9.406 10.377a.972.972 0 1 0 0-1.943.972.972 0 0 0 0 1.944ZM3.783 13.189a.972.972 0 1 0 0-1.944.972.972 0 0 0 0 1.944ZM6.595 13.189a.972.972 0 1 0 0-1.944.972.972 0 0 0 0 1.944ZM6.595 16a.972.972 0 1 0 0-1.944.972.972 0 0 0 0 1.944ZM9.406 13.189a.972.972 0 1 0 0-1.944.972.972 0 0 0 0 1.944Z" fill="#C2DAF0"/>
  </g>
  <defs>
    <clipPath id="a">
      <path fill="#fff" d="M0 0h65v16H0z"/>
    </clipPath>
  </defs>
</svg>
