<svg xmlns="http://www.w3.org/2000/svg" viewBox="0 0 895.55 176.95"><defs><style>.cls-1{fill:#e1251b;}</style></defs><g id="图层_2" data-name="图层 2"><g id="图层_1-2" data-name="图层 1"><path class="cls-1" d="M268.16,73.84c2.86,4,5,9.43,4.76,20.81-3.22,35.73-33.55,58.29-63.75,58.29-32.68,0-55.69-23.52-69.53-49.8C136.37,96.93,134,90,131.77,84c-4.37,5.94-13.58,15.63-18.27,20.14A116,116,0,0,0,124.56,127c3.69,5.75,13,18.76,26.31,29.06,12.1,9.33,23.71,15.06,36.84,18.33a89.94,89.94,0,0,0,65.39-9.22c23.75-13.61,40.49-38.68,43.52-64.71C290.77,90.76,278.09,79.3,268.16,73.84Z"/><path class="cls-1" d="M68.35,64.37a44.06,44.06,0,0,1,23.41,6.71c5.63-6,10.61-12.2,15.78-18.45A68.32,68.32,0,0,0,0,108.6a68.79,68.79,0,0,0,.81,10.51c1.91,2.36,21.15.76,24.15-1.94a44.71,44.71,0,0,1-.84-8.57A44.23,44.23,0,0,1,68.35,64.37Z"/><path class="cls-1" d="M68.35,177A68.34,68.34,0,0,1,9.17,142.82c.92-1.22,22.42-3.61,27.55-3.32a44.08,44.08,0,0,0,31.63,13.33s27.2,2.09,52.62-18c0,0,9.56,13.62,16.9,18.74C137.87,153.57,113.9,177,68.35,177Z"/><path class="cls-1" d="M245.29,7.8C213-5.77,181.5-1.81,150.37,21.07,122.92,41.24,112,61.56,94.44,79c-21,20.86-36.75,27.88-49.24,32.6-12.9,4.88-30.9,8.21-44.39,7.47a68.48,68.48,0,0,0,8.36,23.71c34.44-.59,58.72-13.77,74.38-23.32,13.69-8.35,34.29-29.38,45.1-43,17.37-21.86,40-42.77,60.69-49.33,28.9-9.15,57,3.65,70.62,21.73,1.22,1.59,26.76,10.76,34.79,17.66C291.8,54,277.88,21.5,245.29,7.8Z"/><path class="cls-1" d="M294,63.76A91.7,91.7,0,0,0,241.85,47c-22.61,0-45.25,8.81-61.18,24.5-11.59,11.4-17.23,20.65-30.08,36.06a105.16,105.16,0,0,0,17.08,20c1.66-2.42,11-15.64,18-24.93,9-11.82,18.14-21.27,32-26.74a64.54,64.54,0,0,1,78.82,25.69A89.61,89.61,0,0,0,294,63.76Z"/><path d="M436.12,45.74h71.64V60.91H341.64V45.74h71.27V35.87h23.21Zm-74.38,83.88h24.85L357.17,173.3H341.64Zm74.38-10.42v24.13q0,18.63-10.6,26.68-9.13,6.94-27.6,6.94V161.78c5.49-.24,9.32-1.46,11.52-3.65s3.47-6.15,3.47-11.51V119.2H352.05V71.14H497.16V119.2Zm-61.59-15.35H474.86V86.31H374.53Zm112.76,25.77,20.47,43.68h-15.9l-29.43-43.68Z"/><path d="M631.84,112.62v30.89q0,33.44-38.37,33.44v-14.8q8.4-.74,11.69-4.2,3.47-3.66,3.47-12.06V112.62H542.11l20.11-51.71H535.53V45.56h32.53l3.84-9.69h23.39l-3.65,9.69h110V60.91h-116L571.35,97.64h37.28V75h23.21V97.64h63.23v15Zm-75.29,15H581.4L551.25,173.3H535.53Zm123.9,0,21.2,45.69h-15.9l-30.33-45.69Z"/><path d="M789.19,102.39l-26,59.94H863l-16.81-38.74h23.94L890.25,177H735.46L764,102.39H729.43V87H895.55v15.35Zm93.75-60.12V57.62H741.86V42.27Z"/></g></g></svg>