<?xml version="1.0" encoding="UTF-8"?>
<svg width="562px" height="511px" viewBox="0 0 562 511" version="1.1" xmlns="http://www.w3.org/2000/svg" xmlns:xlink="http://www.w3.org/1999/xlink">
    <title>zhenzhu2</title>
    <defs>
        <linearGradient x1="84.3739594%" y1="139.452666%" x2="29.2889676%" y2="83.3937947%" id="linearGradient-1">
            <stop stop-color="#FFFFFF" stop-opacity="0" offset="0%"></stop>
            <stop stop-color="#FFFFFF" offset="100%"></stop>
        </linearGradient>
        <path d="M1.2458936,55.3162055 L0,46.7193676 C2.29402631,46.2450593 4.56827654,45.7509881 6.82275067,45.2371542 L6.82275067,31.8379447 L1.36455013,31.8379447 L1.36455013,23.6561265 L6.82275067,23.6561265 L6.82275067,12.8063241 L0.652610934,12.8063241 L0.652610934,4.68379447 L21.2988478,4.68379447 L21.2988478,12.8063241 L14.7727384,12.8063241 L14.7727384,23.6561265 L19.4003432,23.6561265 L19.4003432,31.8379447 L14.7727384,31.8379447 L14.7727384,43.2806324 C16.7107951,42.7667984 18.6290758,42.2332016 20.5275803,41.6798419 C20.4089238,44.1304348 20.3891477,46.8972332 20.468252,49.9802372 C13.6652774,51.7193676 7.25782463,53.4980237 1.2458936,55.3162055 Z M59.387595,16.1264822 C58.1614775,18.1027668 56.7573752,20.5533597 55.1752881,23.4782609 C47.7394786,19.486166 41.9846368,14.4664032 37.9107624,8.41897233 C33.8368881,14.743083 28.2204789,20.1383399 21.0615347,24.6047431 C19.9145215,22.0750988 18.6092997,19.6245059 17.1458691,17.2529644 C24.5025742,12.9841897 30.1980878,7.49011858 34.2324099,0.770750988 L43.0129934,0.770750988 L42.1823976,2.07509881 C46.8891068,8.35968379 52.6241726,13.0434783 59.387595,16.1264822 Z M52.0308899,35.4545455 L57.9637166,40.4347826 C49.2226853,49.2885375 37.3372559,55.8102767 22.3074283,60 C20.6462368,57.1936759 19.1432541,54.8023715 17.79848,52.826087 C32.7096511,49.1501976 44.1204544,43.3596838 52.0308899,35.4545455 Z M45.9794067,26.2055336 L51.7935769,31.0079051 C44.2391109,37.4110672 35.6365122,42.8063241 25.9857808,47.1936759 C24.9574242,45.1383399 23.4148893,42.8458498 21.358176,40.3162055 C31.0484596,36.6798419 39.2555365,31.9762846 45.9794067,26.2055336 Z M39.2159843,17.2529644 L44.5555283,22.173913 C39.0182234,27.0750988 32.7492032,31.3043478 25.7484678,34.8616601 C24.8387677,33.3596838 23.3951132,31.2450593 21.4175043,28.5177866 C27.9831658,25.5928854 33.9159925,21.8379447 39.2159843,17.2529644 Z" id="path-2"></path>
        <filter x="-8.4%" y="-8.4%" width="125.3%" height="133.8%" filterUnits="objectBoundingBox" id="filter-3">
            <feOffset dx="5" dy="10" in="SourceAlpha" result="shadowOffsetOuter1"></feOffset>
            <feColorMatrix values="0 0 0 0 0   0 0 0 0 0   0 0 0 0 0  0 0 0 0.3 0" type="matrix" in="shadowOffsetOuter1"></feColorMatrix>
        </filter>
        <linearGradient x1="84.3739594%" y1="136.420716%" x2="29.2889676%" y2="82.2619299%" id="linearGradient-4">
            <stop stop-color="#FFFFFF" stop-opacity="0" offset="0%"></stop>
            <stop stop-color="#FFFFFF" offset="100%"></stop>
        </linearGradient>
        <path d="M104.477078,58.6956522 L96.7050748,58.6956522 L96.7050748,40.1976285 C93.4024679,46.1067194 89.3285936,51.3043478 84.4834518,55.7905138 C83.4748713,54.0316206 82.3871864,52.2332016 81.2203972,50.3952569 C75.1095857,52.0750988 68.8010133,53.9525692 62.2946801,56.027668 L60.6334886,47.6086957 L67.5748958,45.9782609 L67.5748958,31.7786561 L61.8200539,31.7786561 L61.8200539,23.5968379 L67.5748958,23.5968379 L67.5748958,12.2727273 L61.2860995,12.2727273 L61.2860995,4.15019763 L81.635695,4.15019763 L81.635695,12.2727273 L75.2875705,12.2727273 L75.2875705,23.5968379 L80.8050993,23.5968379 L80.8050993,31.7786561 L75.2875705,31.7786561 L75.2875705,44.0217391 C77.403612,43.4683794 79.4603252,42.9051383 81.4577102,42.3320158 C81.3588298,43.8932806 81.3093896,45.3853755 81.3093896,46.8083004 C86.2138596,42.9940711 90.4261665,38.3003953 93.9463104,32.7272727 L82.4662908,32.7272727 L82.4662908,25.4940711 L96.7050748,25.4940711 L96.7050748,17.6679842 L90.8019122,17.6679842 C90.2481817,19.8814229 89.6647871,22.0750988 89.0517284,24.2490119 L81.8136798,22.2924901 C84.068154,16.0474308 85.6502411,9.92094862 86.5599412,3.91304348 L93.5606766,4.86166008 C93.204707,6.73913043 92.8289613,8.59683794 92.4334396,10.4347826 L96.7050748,10.4347826 L96.7050748,0.711462451 L104.477078,0.711462451 L104.477078,10.4347826 L117.41064,10.4347826 L117.41064,17.6679842 L104.477078,17.6679842 L104.477078,25.4940711 L118.834518,25.4940711 L118.834518,32.7272727 L107.028193,32.7272727 C109.935278,38.4782609 114.187137,43.1818182 119.783771,46.8379447 C118.122579,50.1976285 116.817357,52.944664 115.868105,55.0790514 C110.943859,50.8695652 107.14685,45.8399209 104.477078,39.9901186 L104.477078,58.6956522 Z" id="path-5"></path>
        <filter x="-8.5%" y="-8.6%" width="125.4%" height="134.5%" filterUnits="objectBoundingBox" id="filter-6">
            <feOffset dx="5" dy="10" in="SourceAlpha" result="shadowOffsetOuter1"></feOffset>
            <feColorMatrix values="0 0 0 0 0   0 0 0 0 0   0 0 0 0 0  0 0 0 0.3 0" type="matrix" in="shadowOffsetOuter1"></feColorMatrix>
        </filter>
        <linearGradient x1="84.3739594%" y1="138.723681%" x2="29.2889676%" y2="83.1216556%" id="linearGradient-7">
            <stop stop-color="#FFFFFF" stop-opacity="0" offset="0%"></stop>
            <stop stop-color="#FFFFFF" offset="100%"></stop>
        </linearGradient>
        <path d="M121.326305,35.2173913 C124.58936,29.7628458 127.091035,24.3280632 128.831331,18.9130435 L122.275558,18.9130435 L122.275558,11.5019763 L129.572935,11.5019763 L129.572935,1.06719368 L137.522922,1.06719368 L137.522922,11.5019763 L143.396421,11.5019763 L143.396421,18.9130435 L137.522922,18.9130435 L137.522922,23.5968379 C140.192694,24.9802372 142.664705,26.3537549 144.938956,27.7173913 L144.938956,4.38735178 L179.112037,4.38735178 L179.112037,11.7391304 L153.0076,11.7391304 L153.0076,18.4980237 L177.094876,18.4980237 L177.094876,42.56917 L153.0076,42.56917 L153.0076,49.3280632 L179.942633,49.3280632 L179.942633,56.6798419 L144.938956,56.6798419 L144.938956,28.6956522 L141.735229,35.4545455 C140.410231,34.2490119 139.006129,33.0434783 137.522922,31.8379447 L137.522922,59.2885375 L129.572935,59.2885375 L129.572935,33.7648221 C127.891967,37.8557312 125.795702,41.9367589 123.284138,46.0079051 C122.888616,43.3201581 122.236006,39.7233202 121.326305,35.2173913 Z M169.026232,35.3359684 L169.026232,25.7312253 L153.0076,25.7312253 L153.0076,35.3359684 L169.026232,35.3359684 Z" id="path-8"></path>
        <filter x="-8.5%" y="-8.6%" width="125.6%" height="134.4%" filterUnits="objectBoundingBox" id="filter-9">
            <feOffset dx="5" dy="10" in="SourceAlpha" result="shadowOffsetOuter1"></feOffset>
            <feColorMatrix values="0 0 0 0 0   0 0 0 0 0   0 0 0 0 0  0 0 0 0.3 0" type="matrix" in="shadowOffsetOuter1"></feColorMatrix>
        </filter>
        <linearGradient x1="83.8698811%" y1="139.931598%" x2="29.5926854%" y2="83.5725861%" id="linearGradient-10">
            <stop stop-color="#FFFFFF" stop-opacity="0" offset="0%"></stop>
            <stop stop-color="#FFFFFF" offset="100%"></stop>
        </linearGradient>
        <path d="M225.091444,7.76679842 C231.182479,13.6956522 236.818665,19.5256917 242,25.256917 L235.414562,30.8300395 L230.786958,25.3754941 C213.779521,25.6521739 199.006783,26.3636364 186.468742,27.5098814 L183.324344,20.513834 C191.116123,15.6916996 198.828798,8.85375494 206.462368,0 L214.234371,4.20948617 C208.617962,9.50592885 202.685135,14.6837945 196.435891,19.743083 L224.972787,18.7351779 L218.921304,12.0948617 L225.091444,7.76679842 Z M188.901201,59.1106719 L188.901201,31.3043478 L234.583967,31.3043478 L234.583967,59.1106719 L226.515322,59.1106719 L226.515322,55.6126482 L196.969846,55.6126482 L196.969846,59.1106719 L188.901201,59.1106719 Z M226.515322,38.6561265 L196.969846,38.6561265 L196.969846,48.2608696 L226.515322,48.2608696 L226.515322,38.6561265 Z" id="path-11"></path>
        <filter x="-8.5%" y="-8.5%" width="125.6%" height="133.8%" filterUnits="objectBoundingBox" id="filter-12">
            <feOffset dx="5" dy="10" in="SourceAlpha" result="shadowOffsetOuter1"></feOffset>
            <feColorMatrix values="0 0 0 0 0   0 0 0 0 0   0 0 0 0 0  0 0 0 0.3 0" type="matrix" in="shadowOffsetOuter1"></feColorMatrix>
        </filter>
        <filter x="-14.2%" y="-40.9%" width="128.4%" height="181.9%" filterUnits="objectBoundingBox" id="filter-13">
            <feGaussianBlur stdDeviation="20.6871263" in="SourceGraphic"></feGaussianBlur>
        </filter>
        <linearGradient x1="0%" y1="50%" x2="100%" y2="50%" id="linearGradient-14">
            <stop stop-color="#3881FC" offset="0%"></stop>
            <stop stop-color="#0F376B" offset="100%"></stop>
        </linearGradient>
        <linearGradient x1="0%" y1="50%" x2="100%" y2="50%" id="linearGradient-15">
            <stop stop-color="#3881FC" offset="0%"></stop>
            <stop stop-color="#0F376B" offset="100%"></stop>
        </linearGradient>
        <linearGradient x1="100%" y1="50%" x2="0%" y2="50%" id="linearGradient-16">
            <stop stop-color="#FFFFFF" offset="0%"></stop>
            <stop stop-color="#FFFFFF" stop-opacity="0" offset="100%"></stop>
        </linearGradient>
        <linearGradient x1="100%" y1="50%" x2="0%" y2="50%" id="linearGradient-17">
            <stop stop-color="#FFFFFF" stop-opacity="0" offset="0%"></stop>
            <stop stop-color="#FFFFFF" offset="100%"></stop>
        </linearGradient>
        <linearGradient x1="100%" y1="50%" x2="0%" y2="50%" id="linearGradient-18">
            <stop stop-color="#FFFFFF" offset="0%"></stop>
            <stop stop-color="#FFFFFF" stop-opacity="0" offset="100%"></stop>
        </linearGradient>
        <linearGradient x1="100%" y1="50%" x2="0%" y2="50%" id="linearGradient-19">
            <stop stop-color="#FFFFFF" stop-opacity="0" offset="0%"></stop>
            <stop stop-color="#FFFFFF" offset="100%"></stop>
        </linearGradient>
        <linearGradient x1="100%" y1="50%" x2="0%" y2="50%" id="linearGradient-20">
            <stop stop-color="#FFFFFF" offset="0%"></stop>
            <stop stop-color="#FFFFFF" stop-opacity="0" offset="100%"></stop>
        </linearGradient>
        <linearGradient x1="100%" y1="50%" x2="0%" y2="50%" id="linearGradient-21">
            <stop stop-color="#FFFFFF" stop-opacity="0" offset="0%"></stop>
            <stop stop-color="#FFFFFF" offset="100%"></stop>
        </linearGradient>
    </defs>
    <g id="Page-1" stroke="none" stroke-width="1" fill="none" fill-rule="evenodd">
        <g id="home" transform="translate(-680.000000, -154.000000)">
            <g id="zhenzhu2" transform="translate(740.000000, 154.000000)">
                <g id="珍珠柜台" transform="translate(100.000000, 441.000000)" fill-rule="nonzero">
                    <g id="Shape">
                        <use fill="black" fill-opacity="1" filter="url(#filter-3)" xlink:href="#path-2"></use>
                        <use fill="url(#linearGradient-1)" xlink:href="#path-2"></use>
                    </g>
                    <g id="Path">
                        <use fill="black" fill-opacity="1" filter="url(#filter-6)" xlink:href="#path-5"></use>
                        <use fill="url(#linearGradient-4)" xlink:href="#path-5"></use>
                    </g>
                    <g id="Shape">
                        <use fill="black" fill-opacity="1" filter="url(#filter-9)" xlink:href="#path-8"></use>
                        <use fill="url(#linearGradient-7)" xlink:href="#path-8"></use>
                    </g>
                    <g id="Shape">
                        <use fill="black" fill-opacity="1" filter="url(#filter-12)" xlink:href="#path-11"></use>
                        <use fill="url(#linearGradient-10)" xlink:href="#path-11"></use>
                    </g>
                </g>
                <g id="Group-3">
                    <g id="Group" transform="translate(0.000000, 15.000000)">
                        <g>
                            <g transform="translate(0.000000, 171.000000)" fill-rule="nonzero" id="base">
                                <g>
                                    <polygon id="shadow" fill="#000000" opacity="0.5" filter="url(#filter-13)" points="439.407785 143.025576 233.543078 220.683447 2.18111677 146.726653 208.045823 69.0579924"></polygon>
                                    <polygon id="Path" fill="url(#linearGradient-14)" points="439.462313 73.967584 233.597606 151.625455 2.23564469 77.6686608 208.100351 -5.63336124e-14"></polygon>
                                    <polygon id="Path" fill="url(#linearGradient-15)" points="233.684851 152.16497 232.997799 181.126166 -1.9052794e-14 106.629856 0.687051783 77.6794511"></polygon>
                                    <polygon id="Path" fill="#0F376B" points="441 73.9567937 440.302043 102.917989 232.997799 181.126166 233.684851 152.16497"></polygon>
                                </g>
                            </g>
                            <g transform="translate(68.000000, 0.000000)">
                                <g transform="translate(32.000000, 0.000000)">
                                    <polygon id="Fill-4" fill="#3560AB" points="215.272727 195.142739 119.853412 230.753846 24.7272727 195.252132 120.146588 159.641026"></polygon>
                                    <polygon id="Fill-5" fill="#73A4F8" points="0 238.141272 120.727273 283 120.727273 230.208041 24.5505686 194.471795"></polygon>
                                    <polygon id="Fill-6" fill="#4471C0" points="119.272727 283 240 238.197 215.74915 194.471795 119.272727 230.276069"></polygon>
                                    <polygon id="Fill-7" fill="#8467EF" points="53.5116419 136.420513 26.1818182 186.126329 120.727273 222.046154 120.727273 161.955957"></polygon>
                                    <polygon id="Fill-8" fill="#5C42BD" points="188.636364 137.090013 120.852085 162.54359 53.3636364 137.202294 121.144665 111.748718"></polygon>
                                    <polygon id="Fill-9" fill="#6149B8" points="120.727273 162.034517 120.727273 222.046154 215.272727 186.061769 188.027808 136.420513"></polygon>
                                    <polygon id="Fill-10" fill="#853AB1" points="161 80.0394234 120.852804 95.3333333 81 80.1503202 121.147196 64.8564103"></polygon>
                                    <polygon id="Fill-11" fill="#B36DDB" points="120.727273 95.0189351 80.1602382 79.8205128 52.3636364 129.676074 120.727273 155.287179"></polygon>
                                    <polygon id="Fill-12" fill="#9249BC" points="161.41562 79.8205128 120.727273 95.1074578 120.727273 155.287179 189.090909 130.248218"></polygon>
                                    <polygon id="Fill-13" fill="#71D4EC" points="120.727273 0 80 72.0309021 120.727273 87.0769231"></polygon>
                                    <polygon id="Fill-14" fill="#42A6BF" points="119.272727 0 119.272727 87.0769231 160 71.9210059"></polygon>
                                </g>
                                <g transform="translate(0.000000, 81.000000)" opacity="0.300000012">
                                    <g>
                                        <polygon id="Fill-5-Copy" fill="url(#linearGradient-16)" points="0 161.754436 150.909091 218 150.909091 151.807452 30.6882107 107"></polygon>
                                        <polygon id="Fill-6-Copy" fill="url(#linearGradient-17)" points="149.090909 218 300 161.824311 269.686437 107 149.090909 151.892748"></polygon>
                                        <polygon id="Fill-5-Copy" fill="url(#linearGradient-18)" points="36 95.4223561 153 139 153 87.7156836 59.7926067 53"></polygon>
                                        <polygon id="Fill-6-Copy" fill="url(#linearGradient-19)" points="152 139 269 95.4764928 245.497858 53 152 87.7817685"></polygon>
                                        <polygon id="Fill-5-Copy" fill="url(#linearGradient-20)" points="66 30.5835591 150 62 150 25.0275858 83.0818715 0"></polygon>
                                        <polygon id="Fill-6-Copy" fill="url(#linearGradient-21)" points="150 62 234 30.6225879 217.126668 0 150 25.0752284"></polygon>
                                    </g>
                                </g>
                            </g>
                        </g>
                        <g transform="translate(72.000000, 42.000000)" fill="#3EF5E4" fill-rule="nonzero">
                            <g>
                                <path id="Path-4-Copy" d="M97.3889317,-0.737005125 L96.9716628,16.0033274 L91.351,13.037 L90.1189587,15.3725896 C32.6997672,124.19909 2.87001585,181.115229 1.05765016,185.292954 L1.01092182,185.404369 L-1.01092182,184.595631 C0.299259501,181.320178 30.2939189,124.086937 89.4236524,12.0240287 L83.8046584,9.05484683 L97.3889317,-0.737005125 Z"></path>
                                <path id="Path-4-Copy-2" d="M295.388932,-0.737005125 L294.971663,16.0033274 L289.351,13.037 L288.118959,15.3725896 C230.699767,124.19909 200.870016,181.115229 199.05765,185.292954 L199.010922,185.404369 L196.989078,184.595631 C198.29926,181.320178 228.293919,124.086937 287.423652,12.0240287 L281.804658,9.05484683 L295.388932,-0.737005125 Z" transform="translate(246.500000, 92.500000) scale(-1, 1) translate(-246.500000, -92.500000) "></path>
                            </g>
                        </g>
                    </g>
                    <rect id="Rectangle" stroke="#979797" fill="#D8D8D8" opacity="0" x="0.5" y="0.5" width="440" height="440"></rect>
                </g>
            </g>
        </g>
    </g>
</svg>