<svg width="60" height="61" viewBox="0 0 60 61" fill="none" xmlns="http://www.w3.org/2000/svg">
<path fill-rule="evenodd" clip-rule="evenodd" d="M21.3648 7.05473C22.0953 4.6251 20.0376 2.08865 17.724 3.12972C16.8038 3.5438 15.8956 4.00807 15.003 4.52344C0.656138 12.8063 -4.25944 31.151 4.0237 45.4975C12.3068 59.8439 30.6521 64.7593 44.9989 56.4764C46.6275 55.5361 48.1346 54.4662 49.5147 53.2872C51.2876 51.7725 50.0229 49.0488 47.7175 48.6983V48.6983C46.8677 48.5691 46.0066 48.8103 45.3339 49.3454C44.4097 50.0807 43.4196 50.7568 42.366 51.3651C30.8841 57.994 16.2023 54.0601 9.57324 42.5786C2.94419 31.097 6.87816 16.4157 18.36 9.7868C18.7778 9.5456 19.1998 9.31838 19.6255 9.10501C20.4607 8.68638 21.0958 7.94942 21.3648 7.05473V7.05473Z" fill="#1B1E20"/>
<path fill-rule="evenodd" clip-rule="evenodd" d="M53.8623 45.2823C55.146 45.4632 56.4006 44.8029 56.9673 43.6369C61.1741 34.9825 61.1497 24.4617 55.976 15.5008C50.4809 5.98324 40.5573 0.616375 30.3106 0.50019C29.0418 0.485803 27.9143 1.29139 27.5067 2.49302C26.7759 4.64732 28.6975 6.64203 30.9701 6.7447C31.0411 6.74791 31.1121 6.75144 31.1831 6.75528C32.7476 6.84005 33.0178 9.0376 31.8066 10.0316V10.0316C25.1881 15.4631 24.2289 25.2331 29.6642 31.8534C35.0995 38.4738 44.8709 39.4375 51.4894 34.006V34.006C52.2222 33.4046 53.4213 33.9381 53.2448 34.8695C52.8994 36.6918 52.3422 38.4709 51.5837 40.1673C50.6358 42.2874 51.5625 44.9582 53.8623 45.2823ZM47.9906 29.7456C43.7239 33.2471 37.4246 32.6258 33.9207 28.3579C30.4168 24.09 31.0352 17.7917 35.3018 14.2902C39.5685 10.7887 45.8678 11.41 49.3717 15.6779C52.8756 19.9458 52.2573 26.2441 47.9906 29.7456Z" fill="#87A263"/>
</svg>
