<svg width="96" height="96" viewBox="0 0 96 96" fill="none" xmlns="http://www.w3.org/2000/svg">
<g clip-path="url(#clip0_14001_5821)">
<circle cx="48" cy="48" r="48" fill="#EEF6FD" fill-opacity="0.5"/>
<rect x="24" y="31.0004" width="48" height="34" rx="4" fill="#EEF6FD" stroke="#509EE3" stroke-width="1.25" stroke-linejoin="round"/>
<rect x="29.5" y="36.5004" width="37" height="20" rx="1.5" fill="white" stroke="#509EE3" stroke-width="1.25" stroke-linejoin="round"/>
<path d="M62.161 60.7147C62.161 61.3163 61.6733 61.804 61.0717 61.804C60.4701 61.804 59.9824 61.3163 59.9824 60.7147C59.9824 60.1131 60.4701 59.6254 61.0717 59.6254C61.6733 59.6254 62.161 60.1131 62.161 60.7147Z" stroke="#509EE3" stroke-width="1.25"/>
<path d="M66.661 60.7147C66.661 61.3163 66.1733 61.804 65.5717 61.804C64.9701 61.804 64.4824 61.3163 64.4824 60.7147C64.4824 60.1131 64.9701 59.6254 65.5717 59.6254C66.1733 59.6254 66.661 60.1131 66.661 60.7147Z" stroke="#509EE3" stroke-width="1.25"/>
<circle cx="41" cy="43.5" r="1.5" fill="#509EE3"/>
<circle cx="55" cy="43.5" r="1.5" fill="#509EE3"/>
<path d="M50.25 47.5C50.25 48.9912 49.2426 49.75 48 49.75C46.7574 49.75 45.75 48.9912 45.75 47.5" stroke="#509EE3" stroke-width="1.25"/>
<path opacity="0.25" fill-rule="evenodd" clip-rule="evenodd" d="M19.1612 54.0104C18.5755 54.5962 18.5755 55.5459 19.1612 56.1317L26.7977 63.7682C27.2378 64.2083 27.904 64.3309 28.472 64.0763L33.5268 61.8104L41.6364 69.92C42.027 70.3105 42.6601 70.3105 43.0507 69.92C43.4412 69.5295 43.4412 68.8963 43.0507 68.5058L34.8642 60.3193L37.0053 55.543C37.2599 54.975 37.1373 54.3088 36.6972 53.8687L29.0607 46.2322C28.475 45.6465 27.5252 45.6465 26.9394 46.2322L19.1612 54.0104Z" fill="#509EE3"/>
<rect x="32.4443" y="57.7276" width="2" height="14" rx="1" transform="rotate(-45 32.4443 57.7276)" fill="white" stroke="#509EE3" stroke-width="1.25" stroke-linejoin="round"/>
<path d="M19.1612 53.1317C18.5755 52.5459 18.5755 51.5962 19.1612 51.0104L26.9394 43.2322C27.5252 42.6465 28.475 42.6465 29.0607 43.2322L36.6972 50.8687C37.1373 51.3088 37.2599 51.975 37.0053 52.543L34.5978 57.9136C34.4472 58.2495 34.1785 58.5182 33.8426 58.6688L28.472 61.0763C27.904 61.3309 27.2378 61.2083 26.7977 60.7682L19.1612 53.1317Z" fill="white" stroke="#509EE3" stroke-width="1.25" stroke-linejoin="round"/>
<path d="M22.5449 53.485L29.616 46.4139" stroke="#509EE3" stroke-width="1.25"/>
<path d="M26.7871 57.7276L33.8582 50.6566" stroke="#509EE3" stroke-width="1.25"/>
<path d="M24.5654 55.5058L31.6365 48.4347" stroke="#509EE3" stroke-width="1.25"/>
<path d="M29.616 57.7276L22.5449 50.6566" stroke="#509EE3" stroke-width="1.25"/>
<path d="M33.8582 53.485L26.7871 46.4139" stroke="#509EE3" stroke-width="1.25"/>
<path d="M31.7371 55.6063L24.666 48.5352" stroke="#509EE3" stroke-width="1.25"/>
</g>
<defs>
<clipPath id="clip0_14001_5821">
<rect width="96" height="96" fill="white"/>
</clipPath>
</defs>
</svg>
