<svg width="96" height="96" viewBox="0 0 96 96" fill="none" xmlns="http://www.w3.org/2000/svg">
<g clip-path="url(#clip0_2220_3731)">
<mask id="mask0_2220_3731" style="mask-type:luminance" maskUnits="userSpaceOnUse" x="0" y="0" width="96" height="96">
<path d="M96 0H0V96H96V0Z" fill="white"/>
</mask>
<g mask="url(#mask0_2220_3731)">
<path d="M48 96C74.5097 96 96 74.5097 96 48C96 21.4903 74.5097 0 48 0C21.4903 0 0 21.4903 0 48C0 74.5097 21.4903 96 48 96Z" fill="#DCDFE0" fill-opacity="0.3"/>
<path d="M24 35C24 32.7909 25.7909 31 28 31H68C70.2091 31 72 32.7909 72 35V61C72 63.2091 70.2091 65 68 65H28C25.7909 65 24 63.2091 24 61V35Z" fill="white"/>
<path fill-rule="evenodd" clip-rule="evenodd" d="M23.375 35C23.375 32.4457 25.4457 30.375 28 30.375H68C70.5543 30.375 72.625 32.4457 72.625 35V61C72.625 63.5543 70.5543 65.625 68 65.625H28C25.4457 65.625 23.375 63.5543 23.375 61V35ZM28 31.625C26.136 31.625 24.625 33.136 24.625 35V61C24.625 62.864 26.136 64.375 28 64.375H68C69.864 64.375 71.375 62.864 71.375 61V35C71.375 33.136 69.864 31.625 68 31.625H28Z" fill="#92999E"/>
<path d="M29.5 38C29.5 37.1716 30.1716 36.5 31 36.5H65C65.8284 36.5 66.5 37.1716 66.5 38V55C66.5 55.8284 65.8284 56.5 65 56.5H31C30.1716 56.5 29.5 55.8284 29.5 55V38Z" fill="white"/>
<path fill-rule="evenodd" clip-rule="evenodd" d="M28.875 38C28.875 36.8264 29.8264 35.875 31 35.875H65C66.1736 35.875 67.125 36.8264 67.125 38V55C67.125 56.1736 66.1736 57.125 65 57.125H31C29.8264 57.125 28.875 56.1736 28.875 55V38ZM31 37.125C30.5168 37.125 30.125 37.5168 30.125 38V55C30.125 55.4832 30.5168 55.875 31 55.875H65C65.4832 55.875 65.875 55.4832 65.875 55V38C65.875 37.5168 65.4832 37.125 65 37.125H31Z" fill="#92999E"/>
<path fill-rule="evenodd" clip-rule="evenodd" d="M61.0707 61.1786C61.3271 61.1786 61.535 60.9707 61.535 60.7143C61.535 60.4579 61.3271 60.25 61.0707 60.25C60.8143 60.25 60.6064 60.4579 60.6064 60.7143C60.6064 60.9707 60.8143 61.1786 61.0707 61.1786ZM61.0707 62.4286C62.0175 62.4286 62.785 61.6611 62.785 60.7143C62.785 59.7675 62.0175 59 61.0707 59C60.1239 59 59.3564 59.7675 59.3564 60.7143C59.3564 61.6611 60.1239 62.4286 61.0707 62.4286Z" fill="#92999E"/>
<path fill-rule="evenodd" clip-rule="evenodd" d="M65.5707 61.1786C65.8271 61.1786 66.035 60.9707 66.035 60.7143C66.035 60.4579 65.8271 60.25 65.5707 60.25C65.3143 60.25 65.1064 60.4579 65.1064 60.7143C65.1064 60.9707 65.3143 61.1786 65.5707 61.1786ZM65.5707 62.4286C66.5175 62.4286 67.285 61.6611 67.285 60.7143C67.285 59.7675 66.5175 59 65.5707 59C64.6239 59 63.8564 59.7675 63.8564 60.7143C63.8564 61.6611 64.6239 62.4286 65.5707 62.4286Z" fill="#92999E"/>
<path d="M41 44.9995C41.8284 44.9995 42.5 44.3279 42.5 43.4995C42.5 42.6711 41.8284 41.9995 41 41.9995C40.1716 41.9995 39.5 42.6711 39.5 43.4995C39.5 44.3279 40.1716 44.9995 41 44.9995Z" fill="#92999E"/>
<path d="M55 44.9995C55.8284 44.9995 56.5 44.3279 56.5 43.4995C56.5 42.6711 55.8284 41.9995 55 41.9995C54.1716 41.9995 53.5 42.6711 53.5 43.4995C53.5 44.3279 54.1716 44.9995 55 44.9995Z" fill="#92999E"/>
<path fill-rule="evenodd" clip-rule="evenodd" d="M46.8331 48.7246C47.1025 48.9734 47.5027 49.1245 48 49.1245C48.4973 49.1245 48.8974 48.9734 49.1669 48.7246C49.4283 48.4831 49.625 48.0963 49.625 47.4995H50.875C50.875 48.3938 50.568 49.132 50.015 49.6428C49.4702 50.1461 48.7453 50.3745 48 50.3745C47.2546 50.3745 46.5298 50.1461 45.9849 49.6428C45.432 49.132 45.125 48.3938 45.125 47.4995H46.375C46.375 48.0963 46.5717 48.4831 46.8331 48.7246Z" fill="#92999E"/>
<path d="M81.6617 32.8786L58.4795 26.667L54.3384 42.1218L77.5206 48.3335L81.6617 32.8786Z" fill="black" fill-opacity="0.1"/>
<path d="M58.48 22.667L81.6622 28.8786L77.5211 44.3335L54.3389 38.1218L58.48 22.667Z" fill="white"/>
<path fill-rule="evenodd" clip-rule="evenodd" d="M57.8754 22.5051C57.9648 22.1717 58.3075 21.9738 58.6409 22.0632L81.8231 28.2748C82.1565 28.3642 82.3544 28.7069 82.2651 29.0403L78.124 44.4951C78.0346 44.8285 77.6919 45.0264 77.3585 44.9371L54.1763 38.7254C53.8429 38.6361 53.645 38.2934 53.7343 37.9599L57.8754 22.5051ZM58.9211 23.4324L55.1035 37.6798L77.0783 43.5679L80.8959 29.3205L58.9211 23.4324Z" fill="#92999E"/>
<g opacity="0.5">
<path fill-rule="evenodd" clip-rule="evenodd" d="M59.4619 36.3887L62.0501 26.7295L63.2575 27.053L60.6693 36.7122L59.4619 36.3887Z" fill="#92999E"/>
<path fill-rule="evenodd" clip-rule="evenodd" d="M63.8086 37.5534L65.3615 31.7578L66.5689 32.0814L65.016 37.8769L63.8086 37.5534Z" fill="#92999E"/>
<path fill-rule="evenodd" clip-rule="evenodd" d="M68.1553 38.7182L69.1906 34.8545L70.398 35.178L69.3627 39.0417L68.1553 38.7182Z" fill="#92999E"/>
<path fill-rule="evenodd" clip-rule="evenodd" d="M72.502 39.8828L74.055 34.0872L75.2624 34.4107L73.7094 40.2063L72.502 39.8828Z" fill="#92999E"/>
</g>
<path d="M24 65C28.4183 65 32 61.4183 32 57C32 52.5817 28.4183 49 24 49V57H16C16 61.4183 19.5817 65 24 65Z" fill="black" fill-opacity="0.1"/>
<path d="M24 61C28.4183 61 32 57.4183 32 53C32 48.5817 28.4183 45 24 45V53H16C16 57.4183 19.5817 61 24 61Z" fill="white"/>
<path fill-rule="evenodd" clip-rule="evenodd" d="M23.375 45C23.375 44.6548 23.6548 44.375 24 44.375C28.7635 44.375 32.625 48.2365 32.625 53C32.625 57.7635 28.7635 61.625 24 61.625C19.2365 61.625 15.375 57.7635 15.375 53C15.375 52.6548 15.6548 52.375 16 52.375H23.375V45ZM24.625 45.6511V53C24.625 53.3452 24.3452 53.625 24 53.625H16.6511C16.9684 57.4056 20.1374 60.375 24 60.375C28.0731 60.375 31.375 57.0731 31.375 53C31.375 49.1374 28.4056 45.9684 24.625 45.6511Z" fill="#92999E"/>
<path d="M21.5 45C18.4624 45 16 47.4624 16 50.5H21.5V45Z" fill="white"/>
<path fill-rule="evenodd" clip-rule="evenodd" d="M16.6647 49.875H20.875V45.6647C18.6824 45.9453 16.9453 47.6824 16.6647 49.875ZM15.375 50.5C15.375 47.1173 18.1173 44.375 21.5 44.375C21.8452 44.375 22.125 44.6548 22.125 45V50.5C22.125 50.8452 21.8452 51.125 21.5 51.125H16C15.6548 51.125 15.375 50.8452 15.375 50.5Z" fill="#92999E"/>
</g>
</g>
<defs>
<clipPath id="clip0_2220_3731">
<rect width="96" height="96" fill="white"/>
</clipPath>
</defs>
</svg>
