<svg width="58" height="43" viewBox="0 0 58 43" fill="none" xmlns="http://www.w3.org/2000/svg">
<path d="M54 0.75H4C2.20507 0.75 0.75 2.20507 0.75 4V39C0.75 40.7949 2.20507 42.25 4 42.25H54C55.7949 42.25 57.25 40.7949 57.25 39V4C57.25 2.20507 55.7949 0.75 54 0.75Z" fill="var(--metabot-body)"/>
<path d="M56.5 4C56.5 2.61929 55.3807 1.5 54 1.5H4C2.61929 1.5 1.5 2.61929 1.5 4V39C1.5 40.3807 2.61929 41.5 4 41.5H54C55.3807 41.5 56.5 40.3807 56.5 39V4ZM58 39C58 41.2091 56.2091 43 54 43H4C1.79086 43 0 41.2091 0 39V4C0 1.79086 1.79086 0 4 0H54C56.2091 0 58 1.79086 58 4V39Z" fill="var(--metabot-outline)"/>
<path d="M49 6H9C7.89543 6 7 6.89543 7 8V30C7 31.1046 7.89543 32 9 32H49C50.1046 32 51 31.1046 51 30V8C51 6.89543 50.1046 6 49 6Z" fill="var(--metabot-face-bg)"/>
<path d="M50.25 8C50.25 7.30964 49.6904 6.75 49 6.75H9C8.30964 6.75 7.75 7.30964 7.75 8V30C7.75 30.6904 8.30964 31.25 9 31.25H49C49.6904 31.25 50.25 30.6904 50.25 30V8ZM51.75 30C51.75 31.5188 50.5188 32.75 49 32.75H9C7.48122 32.75 6.25 31.5188 6.25 30V8C6.25 6.48122 7.48122 5.25 9 5.25H49C50.5188 5.25 51.75 6.48122 51.75 8V30Z" fill="var(--metabot-outline)"/>
<path d="M31 20.5H32C32 22.27 30.952 23.5 29 23.5C27.048 23.5 26 22.27 26 20.5H27C27 21.5 27.5 22.5 29 22.5C30.5 22.5 31 21.5 31 20.5Z" fill="var(--metabot-face)"/>
<path d="M20.75 17.5C21.7165 17.5 22.5 16.7165 22.5 15.75C22.5 14.7835 21.7165 14 20.75 14C19.7835 14 19 14.7835 19 15.75C19 16.7165 19.7835 17.5 20.75 17.5Z" fill="var(--metabot-face)"/>
<path d="M36.75 17.5C37.7165 17.5 38.5 16.7165 38.5 15.75C38.5 14.7835 37.7165 14 36.75 14C35.7835 14 35 14.7835 35 15.75C35 16.7165 35.7835 17.5 36.75 17.5Z" fill="var(--metabot-face)"/>
<path d="M43.5 38.5C44.3284 38.5 45 37.8284 45 37C45 36.1716 44.3284 35.5 43.5 35.5C42.6716 35.5 42 36.1716 42 37C42 37.8284 42.6716 38.5 43.5 38.5Z" fill="var(--metabot-buttons-bg)"/>
<path d="M44.5 37C44.5 36.4477 44.0523 36 43.5 36C42.9477 36 42.5 36.4477 42.5 37C42.5 37.5523 42.9477 38 43.5 38C44.0523 38 44.5 37.5523 44.5 37ZM45.5 37C45.5 38.1046 44.6046 39 43.5 39C42.3954 39 41.5 38.1046 41.5 37C41.5 35.8954 42.3954 35 43.5 35C44.6046 35 45.5 35.8954 45.5 37Z" fill="var(--metabot-outline)"/>
<path d="M49 38.5C49.8284 38.5 50.5 37.8284 50.5 37C50.5 36.1716 49.8284 35.5 49 35.5C48.1716 35.5 47.5 36.1716 47.5 37C47.5 37.8284 48.1716 38.5 49 38.5Z" fill="var(--metabot-buttons-bg)"/>
<path d="M50 37C50 36.4477 49.5523 36 49 36C48.4477 36 48 36.4477 48 37C48 37.5523 48.4477 38 49 38C49.5523 38 50 37.5523 50 37ZM51 37C51 38.1046 50.1046 39 49 39C47.8954 39 47 38.1046 47 37C47 35.8954 47.8954 35 49 35C50.1046 35 51 35.8954 51 37Z" fill="var(--metabot-outline)"/>
</svg>
