<svg width="96" height="96" viewBox="0 0 96 96" fill="none" xmlns="http://www.w3.org/2000/svg">
<g clip-path="url(#clip0_18354_823)">
<circle cx="48" cy="48" r="48" fill="#0572D2" fill-opacity="0.07"/>
<path d="M24 35.0004C24 32.7912 25.7909 31.0004 28 31.0004H68C70.2091 31.0004 72 32.7912 72 35.0004V61.0004C72 63.2095 70.2091 65.0004 68 65.0004H28C25.7909 65.0004 24 63.2095 24 61.0004V35.0004Z" fill="#0572D2" fill-opacity="0.07"/>
<path d="M71.375 35.0004C71.375 33.1364 69.864 31.6254 68 31.6254H28C26.136 31.6254 24.625 33.1364 24.625 35.0004V61.0004C24.625 62.8643 26.136 64.3754 28 64.3754H68C69.864 64.3754 71.375 62.8643 71.375 61.0004V35.0004ZM72.625 61.0004C72.625 63.5547 70.5543 65.6254 68 65.6254H28C25.4457 65.6254 23.375 63.5547 23.375 61.0004V35.0004C23.375 32.446 25.4457 30.3754 28 30.3754H68C70.5543 30.3754 72.625 32.446 72.625 35.0004V61.0004Z" fill="#509EE3"/>
<path d="M29.5 38.0004C29.5 37.1719 30.1716 36.5004 31 36.5004H65C65.8284 36.5004 66.5 37.1719 66.5 38.0004V55.0004C66.5 55.8288 65.8284 56.5004 65 56.5004H31C30.1716 56.5004 29.5 55.8288 29.5 55.0004V38.0004Z" fill="white"/>
<path d="M65.875 38.0004C65.875 37.5171 65.4832 37.1254 65 37.1254H31C30.5168 37.1254 30.125 37.5171 30.125 38.0004V55.0004C30.125 55.4836 30.5168 55.8754 31 55.8754H65C65.4832 55.8754 65.875 55.4836 65.875 55.0004V38.0004ZM67.125 55.0004C67.125 56.174 66.1736 57.1254 65 57.1254H31C29.8264 57.1254 28.875 56.174 28.875 55.0004V38.0004C28.875 36.8268 29.8264 35.8754 31 35.8754H65C66.1736 35.8754 67.125 36.8268 67.125 38.0004V55.0004Z" fill="#509EE3"/>
<path d="M61.536 60.7142C61.5358 60.4579 61.3275 60.2503 61.0712 60.2503C60.8151 60.2505 60.6076 60.4581 60.6074 60.7142C60.6074 60.9704 60.815 61.1788 61.0712 61.179V62.4289L60.8964 62.4201C60.032 62.3324 59.3574 61.6018 59.3574 60.7142C59.3576 59.7678 60.1248 59.0006 61.0712 59.0004C62.0178 59.0004 62.7858 59.7676 62.786 60.7142L62.7772 60.8899C62.6894 61.7543 61.9588 62.4289 61.0712 62.4289V61.179C61.3276 61.179 61.536 60.9706 61.536 60.7142Z" fill="#509EE3"/>
<path d="M66.036 60.7142C66.0358 60.4579 65.8275 60.2503 65.5712 60.2503C65.3151 60.2505 65.1076 60.4581 65.1074 60.7142C65.1074 60.9704 65.315 61.1788 65.5712 61.179V62.4289L65.3964 62.4201C64.532 62.3324 63.8574 61.6018 63.8574 60.7142C63.8576 59.7678 64.6248 59.0006 65.5712 59.0004C66.5178 59.0004 67.2858 59.7676 67.286 60.7142L67.2772 60.8899C67.1894 61.7543 66.4588 62.4289 65.5712 62.4289V61.179C65.8276 61.179 66.036 60.9706 66.036 60.7142Z" fill="#509EE3"/>
<circle cx="41" cy="43.5" r="1.5" fill="#509EE3"/>
<circle cx="55" cy="43.5" r="1.5" fill="#509EE3"/>
<path d="M46.375 47.5C46.375 48.0967 46.5718 48.4831 46.833 48.7246C47.1025 48.9735 47.5027 49.125 48 49.125C48.4973 49.125 48.8975 48.9735 49.167 48.7246C49.4282 48.4831 49.625 48.0967 49.625 47.5H50.875C50.875 48.3943 50.5676 49.1328 50.0146 49.6436C49.4698 50.1466 48.7452 50.375 48 50.375C47.2548 50.375 46.5302 50.1466 45.9854 49.6436C45.4324 49.1328 45.125 48.3943 45.125 47.5H46.375Z" fill="#509EE3"/>
<path d="M16.625 51V53H15.375V51H16.625Z" fill="#509EE3"/>
<path d="M13 53.375L15 53.375L15 54.625L13 54.625L13 53.375Z" fill="#509EE3"/>
<path d="M16.625 55V57H15.375V55H16.625Z" fill="#509EE3"/>
<path d="M17 53.375L19 53.375L19 54.625L17 54.625L17 53.375Z" fill="#509EE3"/>
<g opacity="0.5">
<path d="M43.625 75V77H42.375V75H43.625Z" fill="#509EE3"/>
<path d="M40 77.375L42 77.375L42 78.625L40 78.625L40 77.375Z" fill="#509EE3"/>
<path d="M43.625 79V81H42.375V79H43.625Z" fill="#509EE3"/>
<path d="M44 77.375L46 77.375L46 78.625L44 78.625L44 77.375Z" fill="#509EE3"/>
</g>
<path fill-rule="evenodd" clip-rule="evenodd" d="M27.7637 61.0103C24.4491 61.1925 21.8203 63.8045 21.8203 67.0001C21.8203 70.3137 24.6471 73 28.1342 73H42.8665C46.3535 73 49.1803 70.3137 49.1803 67.0001C49.1803 63.8045 46.5515 61.1925 43.2369 61.0103C42.5099 57.5818 39.3223 55 35.5003 55C31.6782 55 28.4907 57.5818 27.7637 61.0103Z" fill="#0572D2" fill-opacity="0.15"/>
<path d="M32.5 52.625C36.0423 52.625 38.9623 55.0152 39.625 58.1396L39.7246 58.6084L40.2021 58.6348C43.2153 58.8004 45.5556 61.1654 45.5557 64C45.5557 66.9388 43.0385 69.375 39.8662 69.375H25.1338C21.9617 69.3748 19.4453 66.9387 19.4453 64C19.4454 61.1655 21.7848 58.8005 24.7979 58.6348L25.2754 58.6084L25.375 58.1396C26.0377 55.0152 28.9577 52.6251 32.5 52.625Z" fill="white" stroke="#509EE3" stroke-width="1.25"/>
</g>
<defs>
<clipPath id="clip0_18354_823">
<rect width="96" height="96" fill="white"/>
</clipPath>
</defs>
</svg>
