<svg xmlns="http://www.w3.org/2000/svg" width="120" height="120" fill="none">
  <path fill="#D9D9D9" fill-opacity=".3" d="M64 31.5 41 77H29.5L64 31.5Z" />
  <g fill="#C4C4C4" opacity=".6">
    <path d="M66.45 85.46c-.55 0-1-.45-1-1V26.74c0-.55.45-1 1-1s1 .45 1 1v57.72c0 .55-.45 1-1 1Z" />
    <path
      d="M85.69 78.89H27.97c-.38 0-.73-.21-.9-.55a.997.997 0 0 1 .1-1.05l38.48-51c.22-.29.58-.44.94-.39a1.001 1.001 0 0 1 .79.64l19.24 51a.998.998 0 0 1-.93 1.35Zm-55.71-2h54.27L66.16 28.94 29.98 76.89Zm77.57 14.98c-4.47 0-8.21-2.09-9.62-3-1.41.91-5.15 3-9.62 3-4.47 0-8.21-2.09-9.62-3-1.41.91-5.15 3-9.62 3-4.47 0-8.21-2.09-9.62-3-1.41.91-5.15 3-9.62 3-4.47 0-8.21-2.09-9.62-3-1.41.91-5.15 3-9.62 3-4.47 0-8.21-2.09-9.62-3-1.41.91-5.15 3-9.62 3-5.58 0-10.03-3.27-10.22-3.41-.44-.33-.53-.95-.21-1.4.33-.44.96-.54 1.4-.21.04.03 4.12 3.01 9.02 3.01 4.9 0 8.98-2.98 9.02-3.01.35-.26.84-.26 1.19 0 .04.03 4.12 3.01 9.02 3.01 4.9 0 8.98-2.98 9.02-3.01.35-.26.84-.26 1.19 0 .04.03 4.12 3.01 9.02 3.01 4.9 0 8.98-2.98 9.02-3.01.35-.26.84-.26 1.19 0 .04.03 4.12 3.01 9.02 3.01 4.9 0 8.98-2.98 9.02-3.01.35-.26.84-.26 1.19 0 .04.03 4.12 3.01 9.02 3.01 4.9 0 8.98-2.98 9.02-3.01.35-.26.84-.26 1.19 0 .04.03 4.12 3.01 9.02 3.01 4.9 0 8.98-2.98 9.02-3.01a.988.988 0 0 1 .743-.187.988.988 0 0 1 .657.397c.33.44.24 1.07-.21 1.4-.19.14-4.64 3.41-10.22 3.41h.07Zm-22.3-6.41H31.82c-.55 0-1-.45-1-1s.45-1 1-1h53.42c.55 0 1 .45 1 1s-.45 1-1 1h.01Z" />
    <path
      d="m83.7 84.01-3 5.99Zm-3.886 5.559 2.993-5.984 1.788.895-2.992 5.984-1.788-.895ZM34.77 85.09l1.554-1.259 2.939 3.63-1.554 1.258-2.94-3.629Z" />
  </g>
</svg>
