<svg height="120" viewBox="0 0 120 120" width="120" xmlns="http://www.w3.org/2000/svg"><g fill="none" fill-rule="evenodd"><g transform="translate(9 41.639344)"><path d="m9.47899366 21.2425717h84.54001854l7.5404288 42.3967726h-101.559441z" fill="#eaeaea"/><g stroke="#dcdcdc" stroke-width="2"><path d="m101.939229 62.4365513c-.916923 1.1711876-2.3439236 1.9241044-3.9419416 1.9241044h-92.99457478c-1.63658809 0-3.08962713-.7827964-4.00234039-1.996627l-.03390315.1468576v-.1924828c-.60761605-.8274714-.96646908-1.8497638-.96646908-2.9583342v-22.4578435c0-1.1438869.38549506-2.1980672 1.03295104-3.0406148l7.70246646-27.87448986c.28273076-1.02317562.55739397-1.63237966.79304323-1.83191414.56366097-2.1370421 2.50869737-3.71258405 4.83456527-3.71258405h74.9942277c1.3637396 0 2.5999455.548013 3.5019133 1.43331503l.023386-.61108142.2486966.90000924c.7632865.87727647 1.2253938 2.02132663 1.2253938 3.26809321v1.16648967l7.4899436 27.10538902c.720281.8657046 1.153413 1.9794779 1.153413 3.1973881v22.4578435c0 1.1501506-.389728 2.2096095-1.043611 3.0544367v.0963803zm-7.0492128-30.534912h-86.85717403l2.10042443-9.0983606h82.6563252z" fill="#fff"/><rect height="5.770492" rx="40" width="36.013986" x="33.132867" y="39.114754"/></g></g><path d="m73.1048951 39.6393443c.795599 0 1.4405594-.6458843 1.4405594-1.442623 0-.7967386-.6449604-1.4426229-1.4405594-1.4426229s-1.4405594.6458843-1.4405594 1.4426229c0 .7967387.6449604 1.442623 1.4405594 1.442623zm-7.2027972 4.3278688c.795599 0 1.4405594-.6458843 1.4405594-1.4426229 0-.7967387-.6449604-1.442623-1.4405594-1.442623s-1.4405594.6458843-1.4405594 1.442623c0 .7967386.6449604 1.4426229 1.4405594 1.4426229zm-6.4825175 5.7704918c.795599 0 1.4405595-.6458843 1.4405595-1.4426229 0-.7967387-.6449605-1.442623-1.4405595-1.442623s-1.4405594.6458843-1.4405594 1.442623c0 .7967386.6449604 1.4426229 1.4405594 1.4426229zm-16.5664335 5.7704918c.795599 0 1.4405594-.6458843 1.4405594-1.4426229 0-.7967387-.6449604-1.442623-1.4405594-1.442623-.7955991 0-1.4405595.6458843-1.4405595 1.442623 0 .7967386.6449604 1.4426229 1.4405595 1.4426229zm-5.7622378-2.8852459c.795599 0 1.4405594-.6458843 1.4405594-1.4426229 0-.7967387-.6449604-1.442623-1.4405594-1.442623s-1.4405594.6458843-1.4405594 1.442623c0 .7967386.6449604 1.4426229 1.4405594 1.4426229zm0-6.4918033c.795599 0 1.4405594-.6458843 1.4405594-1.4426229 0-.7967387-.6449604-1.442623-1.4405594-1.442623s-1.4405594.6458843-1.4405594 1.442623c0 .7967386.6449604 1.4426229 1.4405594 1.4426229zm7.2027972-3.6065573c.795599 0 1.4405594-.6458843 1.4405594-1.442623 0-.7967386-.6449604-1.4426229-1.4405594-1.4426229s-1.4405594.6458843-1.4405594 1.4426229c0 .7967387.6449604 1.442623 1.4405594 1.442623zm7.2027972 4.3278688c.795599 0 1.4405594-.6458843 1.4405594-1.4426229 0-.7967387-.6449604-1.442623-1.4405594-1.442623s-1.4405594.6458843-1.4405594 1.442623c0 .7967386.6449604 1.4426229 1.4405594 1.4426229zm-.7202797 8.6557377c.795599 0 1.4405594-.6458843 1.4405594-1.4426229 0-.7967387-.6449604-1.442623-1.4405594-1.442623s-1.4405595.6458843-1.4405595 1.442623c0 .7967386.6449605 1.4426229 1.4405595 1.4426229zm-6.4825175 6.4918033c.795599 0 1.4405594-.6458843 1.4405594-1.442623 0-.7967386-.6449604-1.4426229-1.4405594-1.4426229s-1.4405594.6458843-1.4405594 1.4426229c0 .7967387.6449604 1.442623 1.4405594 1.442623zm-7.2027972 5.0491803c.795599 0 1.4405594-.6458843 1.4405594-1.4426229 0-.7967387-.6449604-1.442623-1.4405594-1.442623s-1.4405594.6458843-1.4405594 1.442623c0 .7967386.6449604 1.4426229 1.4405594 1.4426229zm-7.9230769 2.8852459c.795599 0 1.4405594-.6458843 1.4405594-1.4426229 0-.7967387-.6449604-1.442623-1.4405594-1.442623s-1.4405595.6458843-1.4405595 1.442623c0 .7967386.6449605 1.4426229 1.4405595 1.4426229zm52.5804195-35.3442623c.7955991 0 1.4405595-.6458843 1.4405595-1.4426229 0-.7967387-.6449604-1.442623-1.4405595-1.442623-.795599 0-1.4405594.6458843-1.4405594 1.442623 0 .7967386.6449604 1.4426229 1.4405594 1.4426229zm8.6433567-2.8852459c.795599 0 1.4405594-.6458843 1.4405594-1.4426229 0-.7967387-.6449604-1.442623-1.4405594-1.442623s-1.4405594.6458843-1.4405594 1.442623c0 .7967386.6449604 1.4426229 1.4405594 1.4426229z" fill="#c0c0c0"/><g stroke="#979797"><ellipse cx="99.755245" cy="22.327869" fill="#fff" rx="5.041958" ry="2.885246" transform="matrix(.98480775 -.17364818 .17364818 .98480775 -2.361687 17.661527)"/><ellipse cx="102.276224" cy="24.491803" fill="#9e9e9e" rx="5.402098" ry="2.163934" transform="matrix(.91354546 -.40673664 .40673664 .91354546 -1.11947 43.716916)"/><ellipse cx="106.237762" cy="26.655738" fill="#fff" rx="5.762238" ry="3.606557" transform="matrix(.34202014 .93969262 -.93969262 .34202014 94.950508 -82.291902)"/></g></g></svg>