<svg width="120" height="120" viewBox="0 0 120 120" fill="none" xmlns="http://www.w3.org/2000/svg">
<path d="M64 31.5L41 77H29.5L64 31.5Z" fill="#DCDFE0" fill-opacity="0.3"/>
<g opacity="0.6">
<path d="M66.4492 85.4602C65.8992 85.4602 65.4492 85.0102 65.4492 84.4602V26.7402C65.4492 26.1902 65.8992 25.7402 66.4492 25.7402C66.9992 25.7402 67.4492 26.1902 67.4492 26.7402V84.4602C67.4492 85.0102 66.9992 85.4602 66.4492 85.4602Z" fill="#B7BCBF"/>
<path d="M85.6896 78.8901H27.9696C27.5896 78.8901 27.2396 78.6801 27.0696 78.3401C26.9864 78.1733 26.9517 77.9864 26.9693 77.8008C26.987 77.6152 27.0564 77.4383 27.1696 77.2901L65.6496 26.2901C65.8696 26.0001 66.2296 25.8501 66.5896 25.9001C66.7664 25.9265 66.9329 25.9998 67.0719 26.1124C67.2108 26.2249 67.317 26.3726 67.3796 26.5401L86.6196 77.5401C86.6764 77.6908 86.6959 77.8531 86.6764 78.013C86.6569 78.1729 86.5989 78.3257 86.5076 78.4583C86.4162 78.5909 86.2941 78.6995 86.1516 78.7747C86.0092 78.8499 85.8506 78.8895 85.6896 78.8901ZM29.9796 76.8901H84.2496L66.1596 28.9401L29.9796 76.8901ZM107.55 91.8701C103.08 91.8701 99.3396 89.7801 97.9296 88.8701C96.5196 89.7801 92.7796 91.8701 88.3096 91.8701C83.8396 91.8701 80.0996 89.7801 78.6896 88.8701C77.2796 89.7801 73.5396 91.8701 69.0696 91.8701C64.5996 91.8701 60.8596 89.7801 59.4496 88.8701C58.0396 89.7801 54.2996 91.8701 49.8296 91.8701C45.3596 91.8701 41.6196 89.7801 40.2096 88.8701C38.7996 89.7801 35.0596 91.8701 30.5896 91.8701C26.1196 91.8701 22.3796 89.7801 20.9696 88.8701C19.5596 89.7801 15.8196 91.8701 11.3496 91.8701C5.76956 91.8701 1.31956 88.6001 1.12956 88.4601C0.689561 88.1301 0.599561 87.5101 0.919561 87.0601C1.24956 86.6201 1.87956 86.5201 2.31956 86.8501C2.35956 86.8801 6.43956 89.8601 11.3396 89.8601C16.2396 89.8601 20.3196 86.8801 20.3596 86.8501C20.7096 86.5901 21.1996 86.5901 21.5496 86.8501C21.5896 86.8801 25.6696 89.8601 30.5696 89.8601C35.4696 89.8601 39.5496 86.8801 39.5896 86.8501C39.9396 86.5901 40.4296 86.5901 40.7796 86.8501C40.8196 86.8801 44.8996 89.8601 49.7996 89.8601C54.6996 89.8601 58.7796 86.8801 58.8196 86.8501C59.1696 86.5901 59.6596 86.5901 60.0096 86.8501C60.0496 86.8801 64.1296 89.8601 69.0296 89.8601C73.9296 89.8601 78.0096 86.8801 78.0496 86.8501C78.3996 86.5901 78.8896 86.5901 79.2396 86.8501C79.2796 86.8801 83.3596 89.8601 88.2596 89.8601C93.1596 89.8601 97.2396 86.8801 97.2796 86.8501C97.6296 86.5901 98.1196 86.5901 98.4696 86.8501C98.5096 86.8801 102.59 89.8601 107.49 89.8601C112.39 89.8601 116.47 86.8801 116.51 86.8501C116.615 86.771 116.735 86.7138 116.862 86.6817C116.99 86.6496 117.122 86.6433 117.253 86.6631C117.383 86.6821 117.508 86.727 117.621 86.7952C117.734 86.8634 117.832 86.9535 117.91 87.0601C118.24 87.5001 118.15 88.1301 117.7 88.4601C117.51 88.6001 113.06 91.8701 107.48 91.8701H107.55ZM85.2496 85.4601H31.8196C31.2696 85.4601 30.8196 85.0101 30.8196 84.4601C30.8196 83.9101 31.2696 83.4601 31.8196 83.4601H85.2396C85.7896 83.4601 86.2396 83.9101 86.2396 84.4601C86.2396 85.0101 85.7896 85.4601 85.2396 85.4601H85.2496Z" fill="#B7BCBF"/>
<path d="M79.8136 89.5695L82.8066 83.5854L84.5946 84.4805L81.6026 90.4644L79.8136 89.5695ZM34.7696 85.0904L36.3236 83.8315L39.2626 87.4614L37.7086 88.7195L34.7696 85.0904Z" fill="#B7BCBF"/>
</g>
</svg>
