<svg width="120px" height="120px" viewBox="0 0 120 120" version="1.1" xmlns="http://www.w3.org/2000/svg" xmlns:xlink="http://www.w3.org/1999/xlink" xmlns:sketch="http://www.bohemiancoding.com/sketch/ns">
    <g id="Page-1" stroke="none" stroke-width="1" fill="none" fill-rule="evenodd" sketch:type="MSPage">
        <g id="Artboard-21" sketch:type="MSArtboardGroup">
            <g id="Group" sketch:type="MSLayerGroup" transform="translate(9.000000, 41.639344)">
                <path d="M9.47899366,21.2425717 L94.0190122,21.2425717 L101.559441,63.6393443 L0,63.6393443 L9.47899366,21.2425717 Z" id="Rectangle-153" fill="#EAEAEA" sketch:type="MSShapeGroup"></path>
                <path d="M101.939229,62.4365513 C101.022306,63.6077389 99.5953054,64.3606557 97.9972874,64.3606557 L5.00271262,64.3606557 C3.36612453,64.3606557 1.91308549,63.5778593 1.00037223,62.3640287 L0.966469078,62.5108863 L0.966469078,62.3184035 C0.358853032,61.4909321 0,60.4686397 0,59.3600693 L0,36.9022258 C0,35.7583389 0.385495064,34.7041586 1.03295104,33.861611 L1.03295104,33.861611 L8.7354175,5.98712114 C9.01814826,4.96394552 9.29281147,4.35474148 9.52846073,4.155207 C10.0921217,2.0181649 12.0371581,0.442622951 14.363026,0.442622951 L89.3572537,0.442622951 C90.7209933,0.442622951 91.9571992,0.990635947 92.859167,1.87593798 L92.882553,1.26485656 L93.1312496,2.1648658 C93.8945361,3.04214227 94.3566434,4.18619243 94.3566434,5.43295901 L94.3566434,6.59944868 L101.846587,33.7048377 C102.566868,34.5705423 103,35.6843156 103,36.9022258 L103,59.3600693 C103,60.5102199 102.610272,61.5696788 101.956389,62.414506 L101.956389,62.5108863 L101.939229,62.4365513 Z M94.8900162,31.9016393 L8.03284217,31.9016393 L10.1332666,22.8032787 L92.7895918,22.8032787 L94.8900162,31.9016393 Z" id="Path" stroke="#DCDCDC" stroke-width="2" fill="#FFFFFF" sketch:type="MSShapeGroup"></path>
                <rect id="Rectangle-152" stroke="#DCDCDC" stroke-width="2" sketch:type="MSShapeGroup" x="33.1328671" y="39.1147541" width="36.013986" height="5.7704918" rx="40"></rect>
            </g>
            <path d="M73.1048951,39.6393443 C73.9004941,39.6393443 74.5454545,38.99346 74.5454545,38.1967213 C74.5454545,37.3999827 73.9004941,36.7540984 73.1048951,36.7540984 C72.3092961,36.7540984 71.6643357,37.3999827 71.6643357,38.1967213 C71.6643357,38.99346 72.3092961,39.6393443 73.1048951,39.6393443 Z M65.9020979,43.9672131 C66.6976969,43.9672131 67.3426573,43.3213288 67.3426573,42.5245902 C67.3426573,41.7278515 66.6976969,41.0819672 65.9020979,41.0819672 C65.1064989,41.0819672 64.4615385,41.7278515 64.4615385,42.5245902 C64.4615385,43.3213288 65.1064989,43.9672131 65.9020979,43.9672131 Z M59.4195804,49.7377049 C60.2151794,49.7377049 60.8601399,49.0918206 60.8601399,48.295082 C60.8601399,47.4983433 60.2151794,46.852459 59.4195804,46.852459 C58.6239814,46.852459 57.979021,47.4983433 57.979021,48.295082 C57.979021,49.0918206 58.6239814,49.7377049 59.4195804,49.7377049 Z M42.8531469,55.5081967 C43.6487459,55.5081967 44.2937063,54.8623124 44.2937063,54.0655738 C44.2937063,53.2688351 43.6487459,52.6229508 42.8531469,52.6229508 C42.0575478,52.6229508 41.4125874,53.2688351 41.4125874,54.0655738 C41.4125874,54.8623124 42.0575478,55.5081967 42.8531469,55.5081967 Z M37.0909091,52.6229508 C37.8865081,52.6229508 38.5314685,51.9770665 38.5314685,51.1803279 C38.5314685,50.3835892 37.8865081,49.7377049 37.0909091,49.7377049 C36.2953101,49.7377049 35.6503497,50.3835892 35.6503497,51.1803279 C35.6503497,51.9770665 36.2953101,52.6229508 37.0909091,52.6229508 Z M37.0909091,46.1311475 C37.8865081,46.1311475 38.5314685,45.4852632 38.5314685,44.6885246 C38.5314685,43.8917859 37.8865081,43.2459016 37.0909091,43.2459016 C36.2953101,43.2459016 35.6503497,43.8917859 35.6503497,44.6885246 C35.6503497,45.4852632 36.2953101,46.1311475 37.0909091,46.1311475 Z M44.2937063,42.5245902 C45.0893053,42.5245902 45.7342657,41.8787059 45.7342657,41.0819672 C45.7342657,40.2852286 45.0893053,39.6393443 44.2937063,39.6393443 C43.4981073,39.6393443 42.8531469,40.2852286 42.8531469,41.0819672 C42.8531469,41.8787059 43.4981073,42.5245902 44.2937063,42.5245902 Z M51.4965035,46.852459 C52.2921025,46.852459 52.9370629,46.2065747 52.9370629,45.4098361 C52.9370629,44.6130974 52.2921025,43.9672131 51.4965035,43.9672131 C50.7009045,43.9672131 50.0559441,44.6130974 50.0559441,45.4098361 C50.0559441,46.2065747 50.7009045,46.852459 51.4965035,46.852459 Z M50.7762238,55.5081967 C51.5718228,55.5081967 52.2167832,54.8623124 52.2167832,54.0655738 C52.2167832,53.2688351 51.5718228,52.6229508 50.7762238,52.6229508 C49.9806248,52.6229508 49.3356643,53.2688351 49.3356643,54.0655738 C49.3356643,54.8623124 49.9806248,55.5081967 50.7762238,55.5081967 Z M44.2937063,62 C45.0893053,62 45.7342657,61.3541157 45.7342657,60.557377 C45.7342657,59.7606384 45.0893053,59.1147541 44.2937063,59.1147541 C43.4981073,59.1147541 42.8531469,59.7606384 42.8531469,60.557377 C42.8531469,61.3541157 43.4981073,62 44.2937063,62 Z M37.0909091,67.0491803 C37.8865081,67.0491803 38.5314685,66.403296 38.5314685,65.6065574 C38.5314685,64.8098187 37.8865081,64.1639344 37.0909091,64.1639344 C36.2953101,64.1639344 35.6503497,64.8098187 35.6503497,65.6065574 C35.6503497,66.403296 36.2953101,67.0491803 37.0909091,67.0491803 Z M29.1678322,69.9344262 C29.9634312,69.9344262 30.6083916,69.2885419 30.6083916,68.4918033 C30.6083916,67.6950646 29.9634312,67.0491803 29.1678322,67.0491803 C28.3722332,67.0491803 27.7272727,67.6950646 27.7272727,68.4918033 C27.7272727,69.2885419 28.3722332,69.9344262 29.1678322,69.9344262 Z M81.7482517,34.5901639 C82.5438508,34.5901639 83.1888112,33.9442796 83.1888112,33.147541 C83.1888112,32.3508023 82.5438508,31.704918 81.7482517,31.704918 C80.9526527,31.704918 80.3076923,32.3508023 80.3076923,33.147541 C80.3076923,33.9442796 80.9526527,34.5901639 81.7482517,34.5901639 Z M90.3916084,31.704918 C91.1872074,31.704918 91.8321678,31.0590337 91.8321678,30.2622951 C91.8321678,29.4655564 91.1872074,28.8196721 90.3916084,28.8196721 C89.5960094,28.8196721 88.951049,29.4655564 88.951049,30.2622951 C88.951049,31.0590337 89.5960094,31.704918 90.3916084,31.704918 Z" id="path" fill="#C0C0C0" sketch:type="MSShapeGroup"></path>
            <ellipse id="Oval-271-Copy" stroke="#979797" fill="#FFFFFF" sketch:type="MSShapeGroup" transform="translate(99.755245, 22.327869) rotate(-10.000000) translate(-99.755245, -22.327869) " cx="99.7552448" cy="22.3278689" rx="5.04195804" ry="2.8852459"></ellipse>
            <ellipse id="Oval-270" stroke="#979797" fill="#9E9E9E" sketch:type="MSShapeGroup" transform="translate(102.276224, 24.491803) rotate(-24.000000) translate(-102.276224, -24.491803) " cx="102.276224" cy="24.4918033" rx="5.4020979" ry="2.16393443"></ellipse>
            <ellipse id="Oval-271" stroke="#979797" fill="#FFFFFF" sketch:type="MSShapeGroup" transform="translate(106.237762, 26.655738) rotate(70.000000) translate(-106.237762, -26.655738) " cx="106.237762" cy="26.6557377" rx="5.76223776" ry="3.60655738"></ellipse>
        </g>
    </g>
</svg>
