<svg height="120" viewBox="0 0 120 120" width="120" xmlns="http://www.w3.org/2000/svg"><path fill="#fff" d="M66.45 26.74l19.24 51.31H27.97l38.48-51.31z"/><path fill="#f4f4f4" d="M66.45 26.74L40.8 78.05H27.97l38.48-51.31z"/><path d="M66.45 85.46c-.55 0-1-.45-1-1V26.74c0-.55.45-1 1-1s1 .45 1 1v57.72c0 .55-.45 1-1 1z" fill="#dcdcdc"/><path d="M85.69 78.89H27.97c-.38 0-.73-.21-.9-.55a.998.998 0 0 1 .1-1.05l38.48-51c.22-.29.58-.44.94-.39a1 1 0 0 1 .79.64l19.24 51a.997.997 0 0 1-.93 1.35zm-55.71-2h54.27L66.16 28.94 29.98 76.89zM107.55 91.87c-4.47 0-8.21-2.09-9.62-3-1.41.91-5.15 3-9.62 3s-8.21-2.09-9.62-3c-1.41.91-5.15 3-9.62 3s-8.21-2.09-9.62-3c-1.41.91-5.15 3-9.62 3s-8.21-2.09-9.62-3c-1.41.91-5.15 3-9.62 3s-8.21-2.09-9.62-3c-1.41.91-5.15 3-9.62 3-5.58 0-10.03-3.27-10.22-3.41-.44-.33-.53-.95-.21-1.4.33-.44.96-.54 1.4-.21.04.03 4.12 3.01 9.02 3.01s8.98-2.98 9.02-3.01c.35-.26.84-.26 1.19 0 .04.03 4.12 3.01 9.02 3.01s8.98-2.98 9.02-3.01c.35-.26.84-.26 1.19 0 .04.03 4.12 3.01 9.02 3.01s8.98-2.98 9.02-3.01c.35-.26.84-.26 1.19 0 .04.03 4.12 3.01 9.02 3.01s8.98-2.98 9.02-3.01c.35-.26.84-.26 1.19 0 .04.03 4.12 3.01 9.02 3.01s8.98-2.98 9.02-3.01c.35-.26.84-.26 1.19 0 .04.03 4.12 3.01 9.02 3.01s8.98-2.98 9.02-3.01a.996.996 0 0 1 1.4.21c.33.44.24 1.07-.21 1.4-.19.14-4.64 3.41-10.22 3.41zM85.25 85.46H31.82c-.55 0-1-.45-1-1s.45-1 1-1h53.42c.55 0 1 .45 1 1s-.45 1-1 1z" fill="#dcdcdc"/><g fill="#dcdcdc"><path d="M83.7 84.01l-3 5.99M79.815 89.569l2.993-5.984 1.788.895-2.992 5.984z"/></g><path fill="#dcdcdc" d="M34.77 85.09l1.555-1.259 2.938 3.63-1.554 1.258z"/></svg>