<svg width="120" height="120" viewBox="0 0 120 120" fill="none" xmlns="http://www.w3.org/2000/svg">
<g opacity="0.6">
<path fill-rule="evenodd" clip-rule="evenodd" d="M64.6984 97.8422C90.0715 95.9264 110 76.8054 110 53.5C110 28.9233 87.8381 9 60.5 9C33.1619 9 11 28.9233 11 53.5C11 74.5175 27.2077 92.1318 49 96.7928V104.001C49 106.21 50.5037 107.027 52.3587 105.827L64.6984 97.8422Z" stroke="#B7BCBF" stroke-width="3"/>
<path fill-rule="evenodd" clip-rule="evenodd" d="M63.592 44.9599C63.9546 44.6399 64.352 44.3359 64.784 44.0479C65.216 43.7599 65.6826 43.5092 66.184 43.2959C66.6853 43.0826 67.2293 42.9146 67.816 42.7919C68.4026 42.6692 69.0373 42.6079 69.72 42.6079C70.648 42.6079 71.4933 42.7359 72.256 42.9919C73.0186 43.2479 73.672 43.6132 74.216 44.0879C74.76 44.5626 75.1813 45.1359 75.48 45.8079C75.7786 46.4799 75.928 47.2319 75.928 48.0639C75.928 48.8746 75.8106 49.5759 75.576 50.1679C75.3413 50.7599 75.0453 51.2746 74.688 51.7119C74.3306 52.1492 73.944 52.5279 73.528 52.8479C73.112 53.1679 72.7173 53.4692 72.344 53.7519C71.9706 54.0346 71.648 54.3119 71.376 54.5839C71.104 54.8559 70.9413 55.1626 70.888 55.5039L70.52 57.8399H67.816L67.544 55.2319C67.5333 55.1786 67.528 55.1332 67.528 55.0959V54.9599C67.528 54.4906 67.6453 54.0826 67.88 53.7359C68.1146 53.3892 68.408 53.0639 68.76 52.7599C69.112 52.4559 69.4906 52.1599 69.896 51.8719C70.3013 51.5839 70.68 51.2719 71.032 50.9359C71.384 50.5999 71.6773 50.2186 71.912 49.7919C72.1466 49.3652 72.264 48.8639 72.264 48.2879C72.264 47.9039 72.192 47.5599 72.048 47.2559C71.904 46.9519 71.704 46.6906 71.448 46.4719C71.192 46.2532 70.8853 46.0852 70.528 45.9679C70.1706 45.8506 69.784 45.7919 69.368 45.7919C68.76 45.7919 68.2453 45.8586 67.824 45.9919C67.4026 46.1252 67.0453 46.2746 66.752 46.4399C66.4586 46.6052 66.2106 46.7546 66.008 46.8879C65.8053 47.0212 65.624 47.0879 65.464 47.0879C65.08 47.0879 64.8026 46.9279 64.632 46.6079L63.592 44.9599ZM66.616 63.8239C66.616 63.4932 66.6773 63.1786 66.8 62.8799C66.9226 62.5812 67.0933 62.3252 67.312 62.1119C67.5306 61.8986 67.7893 61.7279 68.088 61.5999C68.3866 61.4719 68.7066 61.4079 69.048 61.4079C69.3786 61.4079 69.6933 61.4719 69.992 61.5999C70.2906 61.7279 70.5466 61.8986 70.76 62.1119C70.9733 62.3252 71.144 62.5812 71.272 62.8799C71.4 63.1786 71.464 63.4932 71.464 63.8239C71.464 64.1652 71.4 64.4826 71.272 64.7759C71.144 65.0692 70.9733 65.3226 70.76 65.5359C70.5466 65.7492 70.2906 65.9172 69.992 66.0399C69.6933 66.1626 69.3786 66.2239 69.048 66.2239C68.7066 66.2239 68.3866 66.1626 68.088 66.0399C67.7893 65.9172 67.5306 65.7492 67.312 65.5359C67.0933 65.3226 66.9226 65.0692 66.8 64.7759C66.6773 64.4826 66.616 64.1652 66.616 63.8239ZM48.168 63.8239C48.168 63.4932 48.2293 63.1786 48.352 62.8799C48.4746 62.5812 48.6453 62.3252 48.864 62.1119C49.0826 61.8986 49.3413 61.7279 49.64 61.5999C49.9386 61.4719 50.2586 61.4079 50.6 61.4079C50.9306 61.4079 51.2453 61.4719 51.544 61.5999C51.8426 61.7279 52.0986 61.8986 52.312 62.1119C52.5253 62.3252 52.696 62.5812 52.824 62.8799C52.952 63.1786 53.016 63.4932 53.016 63.8239C53.016 64.1652 52.952 64.4826 52.824 64.7759C52.696 65.0692 52.5253 65.3226 52.312 65.5359C52.0986 65.7492 51.8426 65.9172 51.544 66.0399C51.2453 66.1626 50.9306 66.2239 50.6 66.2239C50.2586 66.2239 49.9386 66.1626 49.64 66.0399C49.3413 65.9172 49.0826 65.7492 48.864 65.5359C48.6453 65.3226 48.4746 65.0692 48.352 64.7759C48.2293 64.4826 48.168 64.1652 48.168 63.8239ZM57.268 63.8239C57.268 63.4932 57.3293 63.1786 57.452 62.8799C57.5746 62.5812 57.7453 62.3252 57.964 62.1119C58.1826 61.8986 58.4413 61.7279 58.74 61.5999C59.0386 61.4719 59.3586 61.4079 59.7 61.4079C60.0306 61.4079 60.3453 61.4719 60.644 61.5999C60.9426 61.7279 61.1986 61.8986 61.412 62.1119C61.6253 62.3252 61.796 62.5812 61.924 62.8799C62.052 63.1786 62.116 63.4932 62.116 63.8239C62.116 64.1652 62.052 64.4826 61.924 64.7759C61.796 65.0692 61.6253 65.3226 61.412 65.5359C61.1986 65.7492 60.9426 65.9172 60.644 66.0399C60.3453 66.1626 60.0306 66.2239 59.7 66.2239C59.3586 66.2239 59.0386 66.1626 58.74 66.0399C58.4413 65.9172 58.1826 65.7492 57.964 65.5359C57.7453 65.3226 57.5746 65.0692 57.452 64.7759C57.3293 64.4826 57.268 64.1652 57.268 63.8239Z" fill="#B7BCBF"/>
</g>
</svg>
