<svg width="120px" height="120px" viewBox="0 0 120 120" version="1.1" xmlns="http://www.w3.org/2000/svg" xmlns:xlink="http://www.w3.org/1999/xlink" xmlns:sketch="http://www.bohemiancoding.com/sketch/ns">
    <g id="Page-1" stroke="none" stroke-width="1" fill="none" fill-rule="evenodd" sketch:type="MSPage">
        <g id="Artboard-21-Copy" sketch:type="MSArtboardGroup">
            <path d="M64.6984348,97.8421893 C90.0715253,95.92641 110,76.8053993 110,53.5 C110,28.9233286 87.8380951,9 60.5,9 C33.1619049,9 11,28.9233286 11,53.5 C11,74.5174908 27.2077486,92.131835 49,96.792842 L49,104.000631 C49,106.209552 50.5037201,107.027005 52.3586529,105.826754 L64.6984348,97.8421893 Z" id="Oval-435-Copy" stroke="#DCDCDC" stroke-width="3" fill="#FFFFFF" sketch:type="MSShapeGroup"></path>
            <path d="M63.592,44.96 C63.9546685,44.6399984 64.3519978,44.3360014 64.784,44.048 C65.2160022,43.7599986 65.6826642,43.5093344 66.184,43.296 C66.6853358,43.0826656 67.2293304,42.9146673 67.816,42.792 C68.4026696,42.6693327 69.0373299,42.608 69.72,42.608 C70.6480046,42.608 71.4933295,42.7359987 72.256,42.992 C73.0186705,43.2480013 73.6719973,43.613331 74.216,44.088 C74.7600027,44.562669 75.1813318,45.1359966 75.48,45.808 C75.7786682,46.4800034 75.928,47.2319958 75.928,48.064 C75.928,48.8746707 75.8106678,49.575997 75.576,50.168 C75.3413322,50.760003 75.0453351,51.2746645 74.688,51.712 C74.3306649,52.1493355 73.9440021,52.5279984 73.528,52.848 C73.1119979,53.1680016 72.7173352,53.4693319 72.344,53.752 C71.9706648,54.0346681 71.6480014,54.3119986 71.376,54.584 C71.1039986,54.8560014 70.9413336,55.162665 70.888,55.504 L70.52,57.84 L67.816,57.84 L67.544,55.232 C67.5333333,55.1786664 67.528,55.1333335 67.528,55.096 L67.528,54.96 C67.528,54.4906643 67.6453322,54.0826684 67.88,53.736 C68.1146678,53.3893316 68.4079982,53.0640015 68.76,52.76 C69.1120018,52.4559985 69.4906646,52.1600014 69.896,51.872 C70.3013354,51.5839986 70.6799982,51.2720017 71.032,50.936 C71.3840018,50.5999983 71.6773322,50.2186688 71.912,49.792 C72.1466678,49.3653312 72.264,48.8640029 72.264,48.288 C72.264,47.9039981 72.1920007,47.5600015 72.048,47.256 C71.9039993,46.9519985 71.7040013,46.6906678 71.448,46.472 C71.1919987,46.2533322 70.8853351,46.0853339 70.528,45.968 C70.1706649,45.8506661 69.7840021,45.792 69.368,45.792 C68.759997,45.792 68.2453354,45.858666 67.824,45.992 C67.4026646,46.125334 67.0453348,46.2746658 66.752,46.44 C66.4586652,46.6053342 66.2106677,46.754666 66.008,46.888 C65.8053323,47.021334 65.6240008,47.088 65.464,47.088 C65.0799981,47.088 64.8026675,46.9280016 64.632,46.608 L63.592,44.96 Z M66.616,63.824 C66.616,63.4933317 66.6773327,63.1786682 66.8,62.88 C66.9226673,62.5813318 67.0933322,62.3253344 67.312,62.112 C67.5306678,61.8986656 67.7893318,61.7280006 68.088,61.6 C68.3866682,61.4719994 68.706665,61.408 69.048,61.408 C69.3786683,61.408 69.6933318,61.4719994 69.992,61.6 C70.2906682,61.7280006 70.5466656,61.8986656 70.76,62.112 C70.9733344,62.3253344 71.1439994,62.5813318 71.272,62.88 C71.4000006,63.1786682 71.464,63.4933317 71.464,63.824 C71.464,64.165335 71.4000006,64.4826652 71.272,64.776 C71.1439994,65.0693348 70.9733344,65.3226656 70.76,65.536 C70.5466656,65.7493344 70.2906682,65.9173327 69.992,66.04 C69.6933318,66.1626673 69.3786683,66.224 69.048,66.224 C68.706665,66.224 68.3866682,66.1626673 68.088,66.04 C67.7893318,65.9173327 67.5306678,65.7493344 67.312,65.536 C67.0933322,65.3226656 66.9226673,65.0693348 66.8,64.776 C66.6773327,64.4826652 66.616,64.165335 66.616,63.824 Z M48.168,63.824 C48.168,63.4933317 48.2293327,63.1786682 48.352,62.88 C48.4746673,62.5813318 48.6453322,62.3253344 48.864,62.112 C49.0826678,61.8986656 49.3413318,61.7280006 49.64,61.6 C49.9386682,61.4719994 50.258665,61.408 50.6,61.408 C50.9306683,61.408 51.2453318,61.4719994 51.544,61.6 C51.8426682,61.7280006 52.0986656,61.8986656 52.312,62.112 C52.5253344,62.3253344 52.6959994,62.5813318 52.824,62.88 C52.9520006,63.1786682 53.016,63.4933317 53.016,63.824 C53.016,64.165335 52.9520006,64.4826652 52.824,64.776 C52.6959994,65.0693348 52.5253344,65.3226656 52.312,65.536 C52.0986656,65.7493344 51.8426682,65.9173327 51.544,66.04 C51.2453318,66.1626673 50.9306683,66.224 50.6,66.224 C50.258665,66.224 49.9386682,66.1626673 49.64,66.04 C49.3413318,65.9173327 49.0826678,65.7493344 48.864,65.536 C48.6453322,65.3226656 48.4746673,65.0693348 48.352,64.776 C48.2293327,64.4826652 48.168,64.165335 48.168,63.824 Z M57.268,63.824 C57.268,63.4933317 57.3293327,63.1786682 57.452,62.88 C57.5746673,62.5813318 57.7453322,62.3253344 57.964,62.112 C58.1826677,61.8986656 58.4413318,61.7280006 58.74,61.6 C59.0386681,61.4719994 59.3586649,61.408 59.7,61.408 C60.0306683,61.408 60.3453318,61.4719994 60.644,61.6 C60.9426681,61.7280006 61.1986656,61.8986656 61.412,62.112 C61.6253344,62.3253344 61.7959993,62.5813318 61.924,62.88 C62.0520006,63.1786682 62.116,63.4933317 62.116,63.824 C62.116,64.165335 62.0520006,64.4826652 61.924,64.776 C61.7959993,65.0693348 61.6253344,65.3226656 61.412,65.536 C61.1986656,65.7493344 60.9426681,65.9173327 60.644,66.04 C60.3453318,66.1626673 60.0306683,66.224 59.7,66.224 C59.3586649,66.224 59.0386681,66.1626673 58.74,66.04 C58.4413318,65.9173327 58.1826677,65.7493344 57.964,65.536 C57.7453322,65.3226656 57.5746673,65.0693348 57.452,64.776 C57.3293327,64.4826652 57.268,64.165335 57.268,63.824 Z" id="Type-something-Copy" fill="#CDD0D4" sketch:type="MSShapeGroup"></path>
        </g>
    </g>
</svg>
