<svg height="120" viewBox="0 0 120 120" width="120" xmlns="http://www.w3.org/2000/svg"><g fill="none" fill-rule="evenodd"><path d="m64.6984348 97.8421893c25.3730905-1.9157793 45.3015652-21.03679 45.3015652-44.3421893 0-24.5766714-22.1619049-44.5-49.5-44.5s-49.5 19.9233286-49.5 44.5c0 21.0174908 16.2077486 38.631835 38 43.292842v7.207789c0 2.208921 1.5037201 3.026374 3.3586529 1.826123z" fill="#fff" stroke="#dcdcdc" stroke-width="3"/><path d="m63.592 44.96c.3626685-.3200016.7599978-.6239986 1.192-.912s.8986642-.5386656 1.4-.752 1.0453304-.3813327 1.632-.504 1.2213299-.184 1.904-.184c.9280046 0 1.7733295.1279987 2.536.384s1.4159973.621331 1.96 1.096.9653318 1.0479966 1.264 1.72.448 1.4239958.448 2.256c0 .8106707-.1173322 1.511997-.352 2.104s-.5306649 1.1066645-.888 1.544-.7439979.8159984-1.16 1.136-.8106648.6213319-1.184.904-.6959986.5599986-.968.832-.4346664.578665-.488.92l-.368 2.336h-2.704l-.272-2.608c-.0106667-.0533336-.016-.0986665-.016-.136v-.136c0-.4693357.1173322-.8773316.352-1.224s.5279982-.6719985.88-.976.7306646-.5999986 1.136-.888.7839982-.5999983 1.136-.936.6453322-.7173312.88-1.144.352-.9279971.352-1.504c0-.3840019-.0719993-.7279985-.216-1.032s-.3439987-.5653322-.6-.784-.5626649-.3866661-.92-.504-.7439979-.176-1.16-.176c-.608003 0-1.1226646.066666-1.544.2s-.7786652.2826658-1.072.448-.5413323.314666-.744.448-.3839992.2-.544.2c-.3840019 0-.6613325-.1599984-.832-.48zm3.024 18.864c0-.3306683.0613327-.6453318.184-.944s.2933322-.5546656.512-.768.4773318-.3839994.776-.512.618665-.192.96-.192c.3306683 0 .6453318.0639994.944.192s.5546656.2986656.768.512.3839994.4693318.512.768.192.6133317.192.944c0 .341335-.0639994.6586652-.192.952s-.2986656.5466656-.512.76-.4693318.3813327-.768.504-.6133317.184-.944.184c-.341335 0-.6613318-.0613327-.96-.184s-.5573322-.2906656-.776-.504-.3893327-.4666652-.512-.76-.184-.610665-.184-.952zm-18.448 0c0-.3306683.0613327-.6453318.184-.944s.2933322-.5546656.512-.768.4773318-.3839994.776-.512.618665-.192.96-.192c.3306683 0 .6453318.0639994.944.192s.5546656.2986656.768.512.3839994.4693318.512.768.192.6133317.192.944c0 .341335-.0639994.6586652-.192.952s-.2986656.5466656-.512.76-.4693318.3813327-.768.504-.6133317.184-.944.184c-.341335 0-.6613318-.0613327-.96-.184s-.5573322-.2906656-.776-.504-.3893327-.4666652-.512-.76-.184-.610665-.184-.952zm9.1 0c0-.3306683.0613327-.6453318.184-.944s.2933322-.5546656.512-.768c.2186677-.2133344.4773318-.3839994.776-.512.2986681-.1280006.6186649-.192.96-.192.3306683 0 .6453318.0639994.944.192.2986681.1280006.5546656.2986656.768.512s.3839993.4693318.512.768c.1280006.2986682.192.6133317.192.944 0 .341335-.0639994.6586652-.192.952-.1280007.2933348-.2986656.5466656-.512.76s-.4693319.3813327-.768.504c-.2986682.1226673-.6133317.184-.944.184-.3413351 0-.6613319-.0613327-.96-.184-.2986682-.1226673-.5573323-.2906656-.776-.504-.2186678-.2133344-.3893327-.4666652-.512-.76s-.184-.610665-.184-.952z" fill="#cdd0d4"/></g></svg>