<svg xmlns="http://www.w3.org/2000/svg" width="840" height="400" fill="none"><g clip-path="url(#a)"><mask id="b" width="1009" height="404" x="-7" y="-3" maskUnits="userSpaceOnUse" style="mask-type:luminance"><path fill="#fff" d="M1001.54-2.583H-6.35V400.75h1007.89V-2.583Z"/></mask><g mask="url(#b)"><path fill="#E6F5FF" d="m699.545 109.297 102.095 67.222-36.117.717-65.978-67.939Z"/><path fill="#5EA4E3" fill-rule="evenodd" d="m700.004 108.595 102.095 67.222a.84.84 0 0 1-.445 1.542l-36.117.716a.84.84 0 0 1-.619-.254l-65.978-67.939a.84.84 0 0 1 1.064-1.287Zm5.496 5.629 60.369 62.164 33.046-.656-93.415-61.508Z" clip-rule="evenodd"/><path fill="#E6F5FF" d="M563.304 230.173a21.16 21.16 0 0 0-13.223 4.64l-11.921 9.542a21.169 21.169 0 0 1-13.223 4.64H335.68a21.157 21.157 0 0 0-11.741 3.557l-37 24.677h690.574l-46.419-47.056h-367.79Z"/><path fill="#E6F5FF" fill-rule="evenodd" d="M563.304 229.333h367.79c.225 0 .44.09.598.25l46.419 47.056a.84.84 0 0 1-.598 1.43H286.94a.839.839 0 0 1-.467-1.539l37-24.677a22.007 22.007 0 0 1 12.207-3.698h189.257c4.615 0 9.094-1.572 12.698-4.456l11.922-9.542a22.001 22.001 0 0 1 13.747-4.824Zm0 1.681a20.32 20.32 0 0 0-12.698 4.456l-11.921 9.542a22.01 22.01 0 0 1-13.748 4.824H335.68a20.312 20.312 0 0 0-11.274 3.416l-34.692 23.137h685.79l-44.761-45.375H563.304Z" clip-rule="evenodd"/><path fill="#5EA4E3" fill-rule="evenodd" d="M215.008 277.93a.841.841 0 0 1-.932-1.399l52.856-35.253a31.078 31.078 0 0 1 17.239-5.221h201.975a29.385 29.385 0 0 0 18.364-6.445l17.032-13.631a31.06 31.06 0 0 1 19.413-6.813h349.716a.84.84 0 1 1 0 1.681H540.955a29.386 29.386 0 0 0-18.364 6.444l-17.031 13.631a31.066 31.066 0 0 1-19.414 6.813H284.171a29.39 29.39 0 0 0-16.306 4.94l-52.857 35.253Z" clip-rule="evenodd"/><path fill="#5EA4E3" fill-rule="evenodd" d="M423.399 237.521a.84.84 0 1 1-1.124-1.249l58.568-52.735a31.072 31.072 0 0 1 20.789-7.981h303.692a31.07 31.07 0 0 1 22.685 9.842l22.245 23.769h48.305a31.07 31.07 0 0 1 22.119 9.253l57.884 58.677a.84.84 0 0 1-1.196 1.18l-57.884-58.678a29.393 29.393 0 0 0-20.923-8.751h-48.67a.839.839 0 0 1-.613-.267l-22.493-24.035a29.39 29.39 0 0 0-21.459-9.309H501.632a29.39 29.39 0 0 0-19.665 7.549l-58.568 52.735Z" clip-rule="evenodd"/><path fill="#E6F5FF" d="M183.462 79.763a20.057 20.057 0 0 0-11.203 3.401c-5.803-10.066-16.664-16.845-29.113-16.845-12.449 0-23.309 6.78-29.113 16.845a20.054 20.054 0 0 0-11.202-3.4c-8.777 0-16.24 5.613-19.007 13.444h118.644c-2.767-7.831-10.23-13.445-19.006-13.445Z"/><path fill="#E6F5FF" fill-rule="evenodd" d="M183.465 78.923c9.142 0 16.916 5.847 19.799 14.005a.84.84 0 0 1-.793 1.12H83.827a.838.838 0 0 1-.792-1.12c2.883-8.158 10.657-14.005 19.799-14.005 4.002 0 7.741 1.122 10.924 3.065 6.049-9.899 16.946-16.51 29.391-16.51 12.446 0 23.343 6.611 29.392 16.51a20.892 20.892 0 0 1 10.924-3.065Zm0 1.68a19.22 19.22 0 0 0-10.736 3.26.837.837 0 0 1-1.194-.279c-5.659-9.815-16.247-16.425-28.386-16.425-12.138 0-22.726 6.61-28.385 16.425a.843.843 0 0 1-1.195.278 19.214 19.214 0 0 0-10.735-3.258c-7.986 0-14.837 4.849-17.779 11.763h116.189c-2.942-6.914-9.793-11.764-17.779-11.764Z" clip-rule="evenodd"/><path fill="#E6F5FF" d="M826.835 36.07c-10.854 0-20.198 6.44-24.441 15.705-3.077-3.442-7.536-5.622-12.515-5.622-6.887 0-12.798 4.15-15.391 10.083h78.377c-2.984-11.597-13.506-20.166-26.03-20.166Z"/><path fill="#E6F5FF" fill-rule="evenodd" d="M826.837 35.229c12.915 0 23.766 8.837 26.843 20.798a.837.837 0 0 1-.813 1.05H774.49a.84.84 0 0 1-.769-1.178c2.722-6.23 8.929-10.587 16.16-10.587 4.783 0 9.11 1.915 12.286 5.01 4.593-8.959 13.912-15.093 24.67-15.093Zm0 1.68c-10.515 0-19.568 6.24-23.678 15.216a.842.842 0 0 1-1.389.21c-2.923-3.27-7.159-5.342-11.889-5.342-6.077 0-11.354 3.401-14.049 8.403h75.928c-3.239-10.699-13.172-18.486-24.923-18.486ZM449.717 73.04c0 19.015-15.43 34.452-34.437 34.452-19.006 0-34.436-15.437-34.436-34.452 0-19.014 15.43-34.451 34.436-34.451 19.007 0 34.437 15.437 34.437 34.451Zm-1.68 0c0-18.087-14.677-32.77-32.757-32.77-18.079 0-32.756 14.683-32.756 32.77 0 18.087 14.677 32.771 32.756 32.771 18.08 0 32.757-14.684 32.757-32.77Z" clip-rule="evenodd"/><path fill="#5EA4E3" fill-rule="evenodd" d="M1001.53 276.389c.47 0 .84.377.84.84 0 .464-.37.841-.84.841H-6.36a.84.84 0 0 1 0-1.681h1007.89ZM319.944 233.535a.84.84 0 0 1 1.68 0v3.361a.84.84 0 1 1-1.68 0v-3.361Z" clip-rule="evenodd"/><path fill="#fff" d="M325.824 228.493a5.04 5.04 0 0 1-5.039 5.042 5.042 5.042 0 0 1 0-10.083 5.04 5.04 0 0 1 5.039 5.041Z"/><path fill="#5EA4E3" fill-rule="evenodd" d="M326.662 228.494a5.884 5.884 0 0 1-5.879 5.882 5.884 5.884 0 0 1-5.88-5.882 5.884 5.884 0 0 1 5.88-5.882 5.884 5.884 0 0 1 5.879 5.882Zm-1.68 0a4.201 4.201 0 0 0-4.199-4.201 4.202 4.202 0 0 0 0 8.403 4.202 4.202 0 0 0 4.199-4.202ZM360.265 233.533a.84.84 0 0 1 1.679 0v3.362a.84.84 0 0 1-1.679 0v-3.362Z" clip-rule="evenodd"/><path fill="#fff" d="M366.138 228.492a5.041 5.041 0 0 1-5.04 5.042 5.042 5.042 0 0 1-5.039-5.042 5.042 5.042 0 0 1 5.039-5.042 5.041 5.041 0 0 1 5.04 5.042Z"/><path fill="#5EA4E3" fill-rule="evenodd" d="M366.979 228.492a5.884 5.884 0 0 1-5.88 5.882 5.884 5.884 0 0 1-5.879-5.882 5.884 5.884 0 0 1 5.879-5.882 5.884 5.884 0 0 1 5.88 5.882Zm-1.68 0a4.202 4.202 0 0 0-4.2-4.201 4.201 4.201 0 0 0 0 8.402c2.318 0 4.2-1.882 4.2-4.201ZM628.114 333.695a.84.84 0 0 1 1.003 1.348s-4.737 3.527-10.581 3.527c-4.717 0-8.714-2.299-10.079-3.185-1.364.886-5.362 3.185-10.079 3.185-4.716 0-8.714-2.299-10.078-3.185-1.365.886-5.362 3.185-10.079 3.185-5.844 0-10.581-3.527-10.581-3.527a.84.84 0 0 1 1.003-1.348s4.289 3.194 9.578 3.194 9.577-3.194 9.577-3.194a.839.839 0 0 1 1.003 0s4.289 3.194 9.577 3.194c5.289 0 9.578-3.194 9.578-3.194a.839.839 0 0 1 1.003 0s4.288 3.194 9.577 3.194 9.578-3.194 9.578-3.194ZM138.444 343.777a.84.84 0 1 1 1.003 1.348s-4.737 3.528-10.581 3.528c-4.716 0-8.714-2.299-10.078-3.186-1.365.887-5.362 3.186-10.079 3.186-4.717 0-8.715-2.299-10.08-3.186-1.364.887-5.361 3.186-10.078 3.186-5.844 0-10.58-3.528-10.58-3.528a.84.84 0 0 1 1.002-1.348s4.289 3.195 9.578 3.195 9.577-3.195 9.577-3.195a.838.838 0 0 1 1.003 0s4.289 3.195 9.578 3.195c5.288 0 9.577-3.195 9.577-3.195a.839.839 0 0 1 1.003 0s4.289 3.195 9.577 3.195c5.289 0 9.578-3.195 9.578-3.195ZM296.351 320.249a.84.84 0 0 1 1.003 1.348s-4.737 3.528-10.58 3.528c-4.717 0-8.714-2.299-10.079-3.186-1.365.887-5.362 3.186-10.079 3.186-4.717 0-8.714-2.299-10.079-3.186-1.365.887-5.362 3.186-10.079 3.186-5.843 0-10.58-3.528-10.58-3.528a.839.839 0 1 1 1.002-1.348s4.289 3.195 9.578 3.195 9.577-3.195 9.577-3.195a.842.842 0 0 1 1.003 0s4.289 3.195 9.578 3.195 9.577-3.195 9.577-3.195a.842.842 0 0 1 1.003 0s4.289 3.195 9.578 3.195 9.577-3.195 9.577-3.195ZM819.615 315.209a.84.84 0 1 1 1.003 1.348s-4.737 3.527-10.581 3.527c-4.717 0-8.714-2.299-10.079-3.184-1.364.885-5.362 3.184-10.079 3.184-4.716 0-8.714-2.299-10.078-3.185-1.365.886-5.362 3.185-10.079 3.185-5.844 0-10.581-3.527-10.581-3.527a.84.84 0 0 1 1.003-1.348s4.289 3.195 9.578 3.195 9.577-3.195 9.577-3.195a.839.839 0 0 1 1.003 0s4.289 3.195 9.577 3.195c5.289 0 9.578-3.195 9.578-3.195a.839.839 0 0 1 1.003 0s4.288 3.195 9.577 3.195 9.578-3.195 9.578-3.195Z" clip-rule="evenodd"/><path fill="#fff" d="M617.696 270.507h13.439l-6.719-26.889-6.72 26.889Z"/><path fill="#E6F5FF" d="M627.772 270.507h3.359l-6.719-26.889 3.36 26.889Z"/><path fill="#E6F5FF" fill-rule="evenodd" d="m626.943 270.611-3.359-26.889a.839.839 0 0 1 1.648-.308l6.719 26.888a.836.836 0 0 1-.153.721.837.837 0 0 1-.662.324h-3.359a.841.841 0 0 1-.834-.736Zm1.575-.945h1.542l-3.085-12.345 1.543 12.345Z" clip-rule="evenodd"/><path fill="#5EA4E3" fill-rule="evenodd" d="m616.885 270.302 6.719-26.889a.84.84 0 0 1 1.629 0l6.72 26.889a.84.84 0 0 1-.815 1.045h-13.439a.841.841 0 0 1-.814-1.045Zm1.89-.636h11.287l-5.643-22.584-5.644 22.584Z" clip-rule="evenodd"/><path fill="#5EA4E3" fill-rule="evenodd" d="M623.577 263.785a.84.84 0 1 1 1.68 0v13.444a.84.84 0 1 1-1.68 0v-13.444Z" clip-rule="evenodd"/><path fill="#fff" d="M584.101 270.507h13.438l-6.719-26.889-6.719 26.889Z"/><path fill="#E6F5FF" d="M594.179 270.507h3.36l-6.72-26.889 3.36 26.889Z"/><path fill="#E6F5FF" fill-rule="evenodd" d="m593.349 270.611-3.36-26.889a.84.84 0 0 1 1.648-.308l6.719 26.888a.836.836 0 0 1-.153.721.835.835 0 0 1-.661.324h-3.36a.84.84 0 0 1-.833-.736Zm1.575-.945h1.542l-3.085-12.345 1.543 12.345Z" clip-rule="evenodd"/><path fill="#5EA4E3" fill-rule="evenodd" d="m583.284 270.302 6.719-26.889a.842.842 0 0 1 1.63 0l6.719 26.889a.84.84 0 0 1-.815 1.045h-13.438a.84.84 0 0 1-.815-1.045Zm1.891-.636h11.286l-5.643-22.584-5.643 22.584Z" clip-rule="evenodd"/><path fill="#5EA4E3" fill-rule="evenodd" d="M589.982 263.785a.84.84 0 0 1 1.68 0v13.444a.84.84 0 1 1-1.68 0v-13.444Z" clip-rule="evenodd"/><path fill="#fff" d="M550.506 270.507h13.438l-6.719-26.889-6.719 26.889Z"/><path fill="#E6F5FF" d="M560.583 270.507h3.36l-6.719-26.889 3.359 26.889Z"/><path fill="#E6F5FF" fill-rule="evenodd" d="m559.75 270.611-3.36-26.889a.84.84 0 0 1 1.648-.308l6.72 26.888a.84.84 0 0 1-.815 1.045h-3.36a.84.84 0 0 1-.833-.736Zm1.575-.945h1.542l-3.085-12.345 1.543 12.345Z" clip-rule="evenodd"/><path fill="#5EA4E3" fill-rule="evenodd" d="m549.688 270.302 6.72-26.889a.84.84 0 0 1 1.629 0l6.719 26.889a.836.836 0 0 1-.153.721.838.838 0 0 1-.661.324h-13.439a.84.84 0 0 1-.815-1.045Zm1.891-.636h11.287l-5.644-22.584-5.643 22.584Z" clip-rule="evenodd"/><path fill="#5EA4E3" fill-rule="evenodd" d="M556.384 263.785a.84.84 0 1 1 1.68 0v13.444a.84.84 0 1 1-1.68 0v-13.444Z" clip-rule="evenodd"/><path fill="#fff" d="M456.433 257.063c0 7.425 6.016 13.444 13.438 13.444 7.423 0 13.439-6.019 13.439-13.444 0-7.426-6.016-13.445-13.439-13.445-7.422 0-13.438 6.019-13.438 13.445Z"/><path fill="#E6F5FF" d="M476.591 257.062c0-6.262-4.286-11.509-10.079-13.004a13.43 13.43 0 0 1 3.359-.44c7.423 0 13.439 6.019 13.439 13.444 0 7.426-6.016 13.445-13.439 13.445a13.43 13.43 0 0 1-3.359-.44c5.793-1.495 10.079-6.742 10.079-13.005Z"/><path fill="#E6F5FF" fill-rule="evenodd" d="M475.755 257.062c0-5.871-4.018-10.789-9.449-12.191a.839.839 0 0 1 0-1.626 14.241 14.241 0 0 1 3.569-.468c7.886 0 14.279 6.396 14.279 14.285s-6.393 14.285-14.279 14.285a14.24 14.24 0 0 1-3.569-.467.84.84 0 0 1 0-1.627c5.431-1.402 9.449-6.32 9.449-12.191Zm1.68 0c0 5.468-3.075 10.207-7.586 12.604h.026c6.959 0 12.599-5.642 12.599-12.604 0-6.962-5.64-12.604-12.599-12.604h-.026c4.511 2.397 7.586 7.136 7.586 12.604Z" clip-rule="evenodd"/><path fill="#5EA4E3" fill-rule="evenodd" d="M469.031 263.785a.84.84 0 0 1 1.68 0v13.444a.84.84 0 1 1-1.68 0v-13.444Z" clip-rule="evenodd"/><path fill="#5EA4E3" fill-rule="evenodd" d="M455.593 257.062c0-7.884 6.397-14.285 14.278-14.285s14.279 6.401 14.279 14.285-6.398 14.285-14.279 14.285-14.278-6.401-14.278-14.285Zm1.68 0c0 6.957 5.645 12.604 12.598 12.604 6.954 0 12.599-5.647 12.599-12.604 0-6.957-5.645-12.604-12.599-12.604-6.953 0-12.598 5.647-12.598 12.604Z" clip-rule="evenodd"/><path fill="#E6F5FF" d="M645.788 176.519h-20.157l-20.158-40.333 40.315 40.333Z"/><path fill="#5EA4E3" fill-rule="evenodd" d="M645.792 177.36h-20.158a.838.838 0 0 1-.751-.465l-20.158-40.333a.839.839 0 0 1 1.345-.97l40.315 40.334a.84.84 0 0 1-.593 1.434Zm-2.028-1.681-35.223-35.237 17.612 35.237h17.611Z" clip-rule="evenodd"/><path fill="#5EA4E3" fill-rule="evenodd" d="m606.224 135.811 20.158 40.333c.13.26.117.57-.036.818a.842.842 0 0 1-.715.398h-60.474a.838.838 0 0 1-.593-1.434l40.315-40.334a.838.838 0 0 1 1.345.219Zm-.981 1.794-38.058 38.074h57.087l-19.029-38.074Z" clip-rule="evenodd"/><path fill="#fff" d="m699.543 109.296 67.193 67.223H632.35l67.193-67.223Z"/><path fill="#5EA4E3" fill-rule="evenodd" d="m700.14 108.705 67.192 67.222a.84.84 0 0 1-.593 1.435H632.353a.841.841 0 0 1-.594-1.435l67.193-67.222a.838.838 0 0 1 1.188 0Zm-.594 1.782-65.166 65.194h130.331l-65.165-65.194Z" clip-rule="evenodd"/><path fill="#fff" d="M592.037 173.159h6.719l-3.359-13.444-3.36 13.444Z"/><path fill="#5EA4E3" fill-rule="evenodd" d="m591.22 172.953 3.359-13.445a.839.839 0 0 1 1.63 0l3.359 13.445a.837.837 0 0 1-.814 1.044h-6.72a.84.84 0 0 1-.814-1.044Zm1.89-.636h4.568l-2.284-9.14-2.284 9.14Z" clip-rule="evenodd"/><path fill="#5EA4E3" fill-rule="evenodd" d="M594.554 173.157a.84.84 0 0 1 1.68 0v3.362a.841.841 0 0 1-1.68 0v-3.362Z" clip-rule="evenodd"/><path fill="#fff" d="M546.682 173.159h6.719l-3.36-13.444-3.359 13.444Z"/><path fill="#5EA4E3" fill-rule="evenodd" d="m545.863 172.953 3.36-13.445a.839.839 0 0 1 1.629 0l3.36 13.445a.837.837 0 0 1-.815 1.044h-6.719a.839.839 0 0 1-.815-1.044Zm1.891-.636h4.567l-2.283-9.14-2.284 9.14Z" clip-rule="evenodd"/><path fill="#5EA4E3" fill-rule="evenodd" d="M549.197 173.159a.84.84 0 0 1 1.68 0v3.361a.84.84 0 1 1-1.68 0v-3.361Z" clip-rule="evenodd"/><path fill="#fff" d="M522.32 173.158h6.72l-3.36-13.445-3.36 13.445Z"/><path fill="#5EA4E3" fill-rule="evenodd" d="m521.51 172.955 3.359-13.444a.84.84 0 0 1 1.63 0l3.359 13.444a.837.837 0 0 1-.153.721.838.838 0 0 1-.661.324h-6.72a.841.841 0 0 1-.814-1.045Zm1.89-.636h4.568l-2.284-9.14-2.284 9.14Z" clip-rule="evenodd"/><path fill="#5EA4E3" fill-rule="evenodd" d="M524.841 173.157a.84.84 0 0 1 1.68 0v3.362a.841.841 0 0 1-1.68 0v-3.362ZM710.709 121.08a.84.84 0 1 1 1.188 1.189l-5.04 5.042a.84.84 0 0 1-1.188 0l-6.125-6.128-6.125 6.128a.84.84 0 0 1-1.188 0l-5.04-5.042a.841.841 0 0 1 1.188-1.189l4.446 4.448 6.125-6.127a.838.838 0 0 1 1.188 0l6.125 6.127 4.446-4.448Z" clip-rule="evenodd"/><path fill="#fff" d="m421.627 295.851 20.158 53.778h-60.473l40.315-53.778Z"/><path fill="#E6F5FF" d="m421.627 295.851-26.877 53.778h-13.438l40.315-53.778Z"/><path fill="#E6F5FF" fill-rule="evenodd" d="m422.374 296.226-26.877 53.778a.838.838 0 0 1-.751.465h-13.438a.839.839 0 0 1-.672-1.345l40.315-53.778a.841.841 0 0 1 1.423.88Zm-5.667 7.584-33.72 44.978h11.24l22.48-44.978Z" clip-rule="evenodd"/><path fill="#5EA4E3" fill-rule="evenodd" d="M420.788 295.852a.84.84 0 0 1 1.68 0v60.5a.84.84 0 1 1-1.68 0v-60.5Z" clip-rule="evenodd"/><path fill="#5EA4E3" fill-rule="evenodd" d="m422.41 295.556 20.157 53.778a.84.84 0 0 1-.786 1.135h-60.473a.838.838 0 0 1-.751-.465.837.837 0 0 1 .079-.879l40.315-53.778a.84.84 0 0 1 1.459.209Zm-1.034 2.026-38.389 51.206h57.582l-19.193-51.206ZM481.597 359.038a.84.84 0 1 1 1.003 1.348s-4.736 3.528-10.58 3.528c-4.717 0-8.714-2.299-10.079-3.185-1.365.886-5.361 3.185-10.079 3.185-4.717 0-8.714-2.299-10.079-3.185-1.365.886-5.361 3.185-10.079 3.185-4.717 0-8.714-2.299-10.079-3.185-1.365.886-5.361 3.185-10.079 3.185-4.717 0-8.714-2.299-10.079-3.185-1.365.886-5.361 3.185-10.079 3.185-4.717 0-8.714-2.299-10.079-3.185-1.365.886-5.361 3.185-10.079 3.185-5.843 0-10.58-3.528-10.58-3.528a.84.84 0 0 1 1.003-1.348s4.288 3.195 9.577 3.195c5.29 0 9.578-3.195 9.578-3.195a.839.839 0 0 1 1.003 0s4.288 3.195 9.577 3.195c5.29 0 9.578-3.195 9.578-3.195a.839.839 0 0 1 1.003 0s4.288 3.195 9.577 3.195c5.29 0 9.578-3.195 9.578-3.195a.839.839 0 0 1 1.003 0s4.288 3.195 9.577 3.195c5.29 0 9.578-3.195 9.578-3.195a.837.837 0 0 1 1.002 0s4.289 3.195 9.578 3.195c5.29 0 9.577-3.195 9.577-3.195a.839.839 0 0 1 1.003 0s4.289 3.195 9.578 3.195c5.29 0 9.577-3.195 9.577-3.195Z" clip-rule="evenodd"/><path fill="#fff" d="M401.467 359.713s4.513 3.362 10.079 3.362c5.567 0 10.079-3.362 10.079-3.362s4.513 3.362 10.079 3.362c1.264 0 2.467-.179 3.583-.447l3.136-6.276h-50.395l6.4 6.402c4.081-.838 7.039-3.041 7.039-3.041Z"/><path fill="#5EA4E3" fill-rule="evenodd" d="M401.466 360.729c-1.041.677-3.614 2.178-6.871 2.848a.842.842 0 0 1-.763-.23l-6.399-6.402a.84.84 0 0 1 .594-1.434h50.394a.84.84 0 0 1 .751 1.216l-3.136 6.276a.84.84 0 0 1-.554.441c-1.177.283-2.447.47-3.78.47-4.717 0-8.714-2.299-10.079-3.185-1.365.886-5.361 3.185-10.079 3.185-4.717 0-8.713-2.299-10.078-3.185Zm.501-1.691s4.288 3.195 9.577 3.195c5.29 0 9.578-3.195 9.578-3.195a.837.837 0 0 1 1.002 0s4.289 3.195 9.578 3.195c1.053 0 2.063-.132 3.009-.337l2.351-4.705h-47.008l4.641 4.643c3.659-.859 6.269-2.796 6.269-2.796a.839.839 0 0 1 1.003 0Z" clip-rule="evenodd"/><path fill="#5EA4E3" fill-rule="evenodd" d="M441.785 355.511a.84.84 0 1 1 0 1.681h-57.114a.84.84 0 0 1 0-1.681h57.114Z" clip-rule="evenodd"/><path fill="#fff" d="M217.059 276.388a2.52 2.52 0 1 1-5.041 0 2.52 2.52 0 0 1 5.041 0Z"/><path fill="#5EA4E3" fill-rule="evenodd" d="M217.897 276.389a3.36 3.36 0 0 1-3.359 3.361 3.361 3.361 0 0 1 0-6.722 3.362 3.362 0 0 1 3.359 3.361Zm-1.679 0a1.681 1.681 0 1 0-3.362.002 1.681 1.681 0 0 0 3.362-.002Z" clip-rule="evenodd"/><path fill="#fff" d="M425.356 236.056a2.52 2.52 0 1 1-5.04.001 2.52 2.52 0 0 1 5.04-.001Z"/><path fill="#5EA4E3" fill-rule="evenodd" d="M426.199 236.054a3.36 3.36 0 0 1-3.359 3.361 3.361 3.361 0 0 1 0-6.722 3.362 3.362 0 0 1 3.359 3.361Zm-1.68 0a1.68 1.68 0 1 0-3.36 0 1.68 1.68 0 0 0 3.36 0Z" clip-rule="evenodd"/><path fill="#fff" d="M768.045 177.236a2.52 2.52 0 1 1-5.041 0 2.52 2.52 0 0 1 5.041 0Z"/><path fill="#5EA4E3" fill-rule="evenodd" d="M768.881 177.236a3.362 3.362 0 0 1-3.36 3.361 3.362 3.362 0 0 1 0-6.722 3.362 3.362 0 0 1 3.36 3.361Zm-1.68 0a1.68 1.68 0 1 0-3.36 0 1.68 1.68 0 0 0 3.36 0Z" clip-rule="evenodd"/><path fill="#fff" d="M773.918 241.097c0 12.994 10.529 23.528 23.517 23.528 12.989 0 23.518-10.534 23.518-23.528 0-12.994-10.529-23.528-23.518-23.528-12.988 0-23.517 10.534-23.517 23.528Z"/><path fill="#fff" d="M773.918 241.097c0 12.994 10.529 23.528 23.517 23.528 12.989 0 23.518-10.534 23.518-23.528 0-12.994-10.529-23.528-23.518-23.528-12.988 0-23.517 10.534-23.517 23.528ZM713.445 257.903c0 7.426 6.017 13.445 13.439 13.445s13.438-6.019 13.438-13.445c0-7.425-6.016-13.444-13.438-13.444-7.422 0-13.439 6.019-13.439 13.444Z"/><path fill="#E6F5FF" d="M810.876 241.097c0-11.262-7.912-20.673-18.478-22.981a23.642 23.642 0 0 1 5.04-.547c12.988 0 23.517 10.534 23.517 23.528 0 12.994-10.529 23.528-23.517 23.528-1.731 0-3.415-.193-5.04-.547 10.566-2.309 18.478-11.719 18.478-22.981Z"/><path fill="#E6F5FF" fill-rule="evenodd" d="M810.039 241.097c0-10.86-7.63-19.934-17.817-22.16a.839.839 0 0 1 0-1.642 24.443 24.443 0 0 1 5.218-.566c13.452 0 24.357 10.91 24.357 24.368 0 13.458-10.905 24.368-24.357 24.368-1.792 0-3.536-.199-5.218-.566a.842.842 0 0 1 0-1.642c10.187-2.226 17.817-11.3 17.817-22.16Zm1.679 0c0 10.291-6.379 19.088-15.395 22.66.369.018.742.027 1.117.027 12.525 0 22.678-10.157 22.678-22.687 0-12.53-10.153-22.688-22.678-22.688-.375 0-.748.01-1.117.028 9.016 3.571 15.395 12.369 15.395 22.66Z" clip-rule="evenodd"/><path fill="#5EA4E3" fill-rule="evenodd" d="M773.08 241.097c0-13.45 10.914-24.368 24.358-24.368 13.443 0 24.357 10.918 24.357 24.368 0 13.449-10.914 24.368-24.357 24.368-13.444 0-24.358-10.919-24.358-24.368Zm1.68 0c0 12.522 10.161 22.687 22.678 22.687 12.516 0 22.677-10.165 22.677-22.687 0-12.522-10.161-22.688-22.677-22.688-12.517 0-22.678 10.166-22.678 22.688Z" clip-rule="evenodd"/><path fill="#5EA4E3" fill-rule="evenodd" d="M796.599 231.014a.84.84 0 1 1 1.679 0v47.055a.84.84 0 1 1-1.679 0v-47.055Z" clip-rule="evenodd"/><path fill="#5EA4E3" fill-rule="evenodd" d="M798.029 250.587a.84.84 0 0 1-1.188 1.188l-13.439-13.445a.84.84 0 0 1 1.188-1.188l13.439 13.445Z" clip-rule="evenodd"/><path fill="#E6F5FF" d="M733.602 257.903c0-6.263-4.286-11.509-10.079-13.004a13.444 13.444 0 0 1 3.36-.441c7.422 0 13.439 6.019 13.439 13.445 0 7.425-6.017 13.444-13.439 13.444-1.162 0-2.284-.163-3.36-.44 5.793-1.495 10.079-6.741 10.079-13.004Z"/><path fill="#E6F5FF" fill-rule="evenodd" d="M732.764 257.903c0-5.871-4.018-10.789-9.449-12.191a.84.84 0 0 1 0-1.627 14.249 14.249 0 0 1 3.57-.467c7.886 0 14.279 6.396 14.279 14.285s-6.393 14.285-14.279 14.285c-1.235 0-2.427-.173-3.57-.468a.84.84 0 0 1 0-1.626c5.431-1.402 9.449-6.32 9.449-12.191Zm1.68 0c0 5.468-3.074 10.207-7.585 12.604h.026c6.959 0 12.599-5.642 12.599-12.604 0-6.962-5.64-12.604-12.599-12.604h-.026c4.511 2.397 7.585 7.136 7.585 12.604Z" clip-rule="evenodd"/><path fill="#5EA4E3" fill-rule="evenodd" d="M726.045 264.625a.84.84 0 0 1 1.68 0v13.445a.84.84 0 0 1-1.68 0v-13.445Z" clip-rule="evenodd"/><path fill="#5EA4E3" fill-rule="evenodd" d="M712.602 257.903c0-7.884 6.397-14.285 14.278-14.285s14.279 6.401 14.279 14.285-6.398 14.285-14.279 14.285-14.278-6.401-14.278-14.285Zm1.679 0c0 6.957 5.645 12.604 12.599 12.604 6.954 0 12.599-5.647 12.599-12.604 0-6.957-5.645-12.604-12.599-12.604-6.954 0-12.599 5.647-12.599 12.604Z" clip-rule="evenodd"/></g></g><defs><clipPath id="a"><path fill="#fff" d="M0 0h840v400H0z"/></clipPath></defs></svg>