<svg width="840" height="400" viewBox="0 0 840 400" fill="none" xmlns="http://www.w3.org/2000/svg">
<g clip-path="url(#clip0_2220_3838)">
<path d="M797.5 218C806.372 218 814.094 222.916 818.094 230.173H931.095L977.514 277.229H286.939L323.939 252.552C327.416 250.233 331.502 248.995 335.681 248.995H459.761C462.14 245.956 465.841 244 470 244C474.159 244 477.86 245.956 480.239 248.995H524.938C529.744 248.995 534.407 247.358 538.16 244.354L550.081 234.812C553.834 231.809 558.498 230.173 563.305 230.173H776.906C780.906 222.916 788.628 218 797.5 218Z" fill="var(--illustration-primary)" fill-opacity="0.21"/>
<mask id="mask0_2220_3838" style="mask-type:luminance" maskUnits="userSpaceOnUse" x="0" y="0" width="840" height="400">
<path d="M0 0H840V400H0V0Z" fill="white"/>
</mask>
<g mask="url(#mask0_2220_3838)">
<mask id="mask1_2220_3838" style="mask-type:luminance" maskUnits="userSpaceOnUse" x="-7" y="-3" width="1009" height="404">
<path d="M1001.54 -2.58301H-6.34961V400.75H1001.54V-2.58301Z" fill="white"/>
</mask>
<g mask="url(#mask1_2220_3838)">
<path d="M699.545 109.297L801.64 176.519L768.342 177.18L760 171L699.545 109.297Z" fill="var(--illustration-primary)" fill-opacity="0.21"/>
<path d="M805.324 175.556C809.578 175.556 813.786 176.431 817.688 178.124C821.59 179.816 825.103 182.292 828.009 185.398L850.254 209.167H898.56C902.675 209.168 906.75 209.985 910.547 211.574C914.344 213.162 917.788 215.49 920.678 218.42L978.562 277.097C978.64 277.176 978.701 277.269 978.742 277.371C978.784 277.473 978.805 277.583 978.805 277.693C978.804 277.803 978.781 277.913 978.738 278.014C978.695 278.116 978.633 278.208 978.555 278.286C978.476 278.363 978.382 278.424 978.28 278.465C978.178 278.507 978.069 278.528 977.959 278.527C977.849 278.526 977.739 278.504 977.638 278.461C977.536 278.419 977.444 278.355 977.366 278.277L919.482 219.599C916.748 216.827 913.49 214.627 909.898 213.125C906.307 211.622 902.453 210.848 898.56 210.848H849.89C849.775 210.848 849.66 210.825 849.555 210.779C849.449 210.733 849.355 210.666 849.276 210.582L826.783 186.546C824.034 183.608 820.711 181.266 817.02 179.665C813.328 178.063 809.348 177.237 805.324 177.237H768V175.556H805.324ZM763 177.237H501.632C494.369 177.237 487.364 179.927 481.967 184.787L425 236.08V234H424.798L480.843 183.538C486.548 178.4 493.954 175.557 501.632 175.556H763V177.237Z" fill="var(--illustration-primary)"/>
<path d="M183.462 79.7628C179.473 79.7571 175.572 80.9412 172.259 83.1638C166.456 73.0978 155.595 66.3188 143.146 66.3188C130.697 66.3188 119.837 73.0988 114.033 83.1638C110.72 80.9416 106.82 79.7578 102.831 79.7638C94.0542 79.7638 86.5912 85.3768 83.8242 93.2078H202.468C199.701 85.3768 192.238 79.7628 183.462 79.7628Z" fill="var(--illustration-primary)" fill-opacity="0.21"/>
<path d="M826.835 36.0698C815.981 36.0698 806.637 42.5098 802.394 51.7748C799.317 48.3328 794.858 46.1528 789.879 46.1528C782.992 46.1528 777.081 50.3028 774.488 56.2358H852.865C849.881 44.6388 839.359 36.0698 826.835 36.0698Z" fill="var(--illustration-primary)" fill-opacity="0.21"/>
<path fill-rule="evenodd" clip-rule="evenodd" d="M449.718 73.0399C449.718 92.0549 434.288 107.492 415.281 107.492C396.275 107.492 380.845 92.0549 380.845 73.0399C380.845 54.0259 396.275 38.5889 415.281 38.5889C434.288 38.5889 449.718 54.0259 449.718 73.0399ZM448.038 73.0399C448.038 54.9529 433.361 40.2699 415.281 40.2699C397.202 40.2699 382.525 54.9529 382.525 73.0399C382.525 91.1269 397.202 105.811 415.281 105.811C433.361 105.811 448.038 91.1259 448.038 73.0399Z" fill="var(--illustration-primary)" fill-opacity="0.21"/>
<path fill-rule="evenodd" clip-rule="evenodd" d="M326.662 228.494C326.662 230.053 326.042 231.548 324.94 232.651C323.838 233.754 322.343 234.374 320.783 234.376C319.224 234.375 317.729 233.755 316.626 232.652C315.523 231.549 314.904 230.053 314.903 228.494C314.904 226.934 315.523 225.439 316.626 224.336C317.729 223.233 319.224 222.613 320.783 222.612C322.343 222.613 323.838 223.233 324.94 224.336C326.042 225.439 326.662 226.934 326.662 228.494ZM324.982 228.494C324.982 227.38 324.54 226.312 323.753 225.524C322.965 224.736 321.897 224.293 320.783 224.293C319.68 224.31 318.628 224.76 317.854 225.546C317.08 226.332 316.646 227.391 316.646 228.494C316.646 229.598 317.08 230.656 317.854 231.443C318.628 232.229 319.68 232.679 320.783 232.696C321.897 232.695 322.965 232.252 323.753 231.464C324.54 230.676 324.982 229.608 324.982 228.494ZM360.265 233.533C360.273 233.315 360.365 233.109 360.521 232.958C360.678 232.806 360.887 232.722 361.105 232.722C361.323 232.722 361.532 232.806 361.688 232.958C361.845 233.109 361.937 233.315 361.944 233.533V236.895C361.937 237.112 361.845 237.319 361.688 237.47C361.532 237.621 361.323 237.706 361.105 237.706C360.887 237.706 360.678 237.621 360.521 237.47C360.365 237.319 360.273 237.112 360.265 236.895V233.533Z" fill="var(--illustration-primary)"/>
<path fill-rule="evenodd" clip-rule="evenodd" d="M366.979 228.492C366.979 230.051 366.359 231.547 365.256 232.65C364.154 233.753 362.659 234.373 361.099 234.374C359.54 234.373 358.045 233.752 356.942 232.649C355.84 231.547 355.221 230.051 355.22 228.492C355.221 226.933 355.84 225.437 356.942 224.334C358.045 223.231 359.54 222.611 361.099 222.61C362.659 222.611 364.154 223.231 365.256 224.334C366.359 225.437 366.979 226.932 366.979 228.492ZM365.299 228.492C365.299 227.378 364.856 226.31 364.069 225.522C363.281 224.734 362.213 224.291 361.099 224.291C359.985 224.291 358.916 224.733 358.129 225.521C357.341 226.309 356.898 227.378 356.898 228.492C356.898 229.606 357.341 230.675 358.129 231.462C358.916 232.25 359.985 232.693 361.099 232.693C363.417 232.693 365.299 230.811 365.299 228.492ZM628.114 333.695C628.293 333.562 628.517 333.505 628.738 333.538C628.958 333.57 629.157 333.689 629.29 333.867C629.423 334.046 629.479 334.27 629.447 334.491C629.414 334.711 629.296 334.91 629.117 335.043C629.117 335.043 624.38 338.57 618.536 338.57C613.819 338.57 609.822 336.271 608.457 335.385C607.093 336.271 603.095 338.57 598.378 338.57C593.662 338.57 589.664 336.271 588.3 335.385C586.935 336.271 582.938 338.57 578.221 338.57C572.377 338.57 567.64 335.043 567.64 335.043C567.461 334.91 567.343 334.711 567.31 334.491C567.278 334.27 567.335 334.046 567.468 333.867C567.601 333.689 567.799 333.57 568.02 333.538C568.24 333.505 568.464 333.562 568.643 333.695C568.643 333.695 572.932 336.889 578.221 336.889C583.51 336.889 587.798 333.695 587.798 333.695C587.943 333.587 588.119 333.528 588.3 333.528C588.48 333.528 588.656 333.587 588.801 333.695C588.801 333.695 593.09 336.889 598.378 336.889C603.667 336.889 607.956 333.695 607.956 333.695C608.101 333.587 608.277 333.528 608.458 333.528C608.638 333.528 608.814 333.587 608.959 333.695C608.959 333.695 613.247 336.889 618.536 336.889C623.825 336.889 628.114 333.695 628.114 333.695ZM138.444 343.777C138.623 343.644 138.847 343.587 139.068 343.62C139.288 343.652 139.487 343.771 139.62 343.949C139.753 344.128 139.809 344.352 139.777 344.573C139.744 344.793 139.626 344.992 139.447 345.125C139.447 345.125 134.71 348.653 128.866 348.653C124.15 348.653 120.152 346.354 118.788 345.467C117.423 346.354 113.426 348.653 108.709 348.653C103.992 348.653 99.9941 346.354 98.6291 345.467C97.2651 346.354 93.2681 348.653 88.5511 348.653C82.7071 348.653 77.9711 345.125 77.9711 345.125C77.7976 344.99 77.6839 344.793 77.6542 344.575C77.6245 344.357 77.6813 344.137 77.8123 343.96C77.9434 343.784 78.1383 343.666 78.3552 343.632C78.5722 343.598 78.794 343.65 78.9731 343.777C78.9731 343.777 83.2621 346.972 88.5511 346.972C93.8401 346.972 98.1281 343.777 98.1281 343.777C98.2729 343.669 98.4488 343.61 98.6296 343.61C98.8103 343.61 98.9862 343.669 99.1311 343.777C99.1311 343.777 103.42 346.972 108.709 346.972C113.997 346.972 118.286 343.777 118.286 343.777C118.431 343.669 118.607 343.61 118.788 343.61C118.968 343.61 119.144 343.669 119.289 343.777C119.289 343.777 123.578 346.972 128.866 346.972C134.155 346.972 138.444 343.777 138.444 343.777ZM296.351 320.249C296.53 320.116 296.754 320.059 296.975 320.092C297.195 320.124 297.394 320.243 297.527 320.421C297.66 320.6 297.716 320.824 297.684 321.045C297.651 321.265 297.533 321.464 297.354 321.597C297.354 321.597 292.617 325.125 286.774 325.125C282.057 325.125 278.06 322.826 276.695 321.939C275.33 322.826 271.333 325.125 266.616 325.125C261.899 325.125 257.902 322.826 256.537 321.939C255.172 322.826 251.175 325.125 246.458 325.125C240.615 325.125 235.878 321.597 235.878 321.597C235.79 321.531 235.715 321.448 235.658 321.354C235.602 321.259 235.564 321.154 235.548 321.045C235.532 320.936 235.538 320.825 235.565 320.718C235.592 320.611 235.639 320.51 235.705 320.422C235.771 320.333 235.853 320.259 235.948 320.202C236.043 320.145 236.148 320.108 236.257 320.092C236.366 320.076 236.477 320.082 236.584 320.108C236.691 320.135 236.792 320.183 236.88 320.249C236.88 320.249 241.169 323.444 246.458 323.444C251.747 323.444 256.035 320.249 256.035 320.249C256.18 320.141 256.356 320.083 256.537 320.083C256.717 320.083 256.893 320.141 257.038 320.249C257.038 320.249 261.327 323.444 266.616 323.444C271.905 323.444 276.193 320.249 276.193 320.249C276.338 320.141 276.514 320.083 276.695 320.083C276.875 320.083 277.051 320.141 277.196 320.249C277.196 320.249 281.485 323.444 286.774 323.444C292.063 323.444 296.351 320.249 296.351 320.249ZM819.615 315.209C819.704 315.143 819.804 315.095 819.911 315.068C820.018 315.041 820.129 315.036 820.239 315.052C820.348 315.068 820.453 315.105 820.547 315.162C820.642 315.218 820.725 315.293 820.791 315.381C820.856 315.47 820.904 315.57 820.931 315.677C820.958 315.784 820.964 315.896 820.948 316.005C820.932 316.114 820.894 316.219 820.838 316.314C820.781 316.408 820.707 316.491 820.618 316.557C820.618 316.557 815.881 320.084 810.037 320.084C805.32 320.084 801.323 317.785 799.958 316.9C798.594 317.785 794.596 320.084 789.879 320.084C785.163 320.084 781.165 317.785 779.801 316.899C778.436 317.785 774.439 320.084 769.722 320.084C763.878 320.084 759.141 316.557 759.141 316.557C758.962 316.424 758.844 316.225 758.811 316.005C758.779 315.784 758.836 315.56 758.969 315.381C759.102 315.203 759.3 315.084 759.521 315.052C759.741 315.019 759.965 315.076 760.144 315.209C760.144 315.209 764.433 318.404 769.722 318.404C775.011 318.404 779.299 315.209 779.299 315.209C779.444 315.101 779.62 315.042 779.801 315.042C779.981 315.042 780.157 315.101 780.302 315.209C780.302 315.209 784.591 318.404 789.879 318.404C795.168 318.404 799.457 315.209 799.457 315.209C799.602 315.101 799.778 315.042 799.959 315.042C800.139 315.042 800.315 315.101 800.46 315.209C800.46 315.209 804.748 318.404 810.037 318.404C815.326 318.404 819.615 315.209 819.615 315.209Z" fill="var(--illustration-primary)"/>
<path d="M627.772 270.507H631.131L624.412 243.618L627.772 270.507Z" fill="var(--illustration-primary)" fill-opacity="0.21"/>
<path fill-rule="evenodd" clip-rule="evenodd" d="M616.885 270.302L623.604 243.413C623.65 243.232 623.755 243.071 623.903 242.956C624.05 242.841 624.232 242.778 624.419 242.778C624.606 242.778 624.788 242.841 624.935 242.956C625.083 243.071 625.188 243.232 625.233 243.413L631.953 270.302C631.985 270.426 631.987 270.555 631.961 270.68C631.934 270.805 631.88 270.923 631.801 271.024C631.723 271.124 631.622 271.206 631.507 271.262C631.392 271.318 631.266 271.347 631.138 271.347H617.699C617.572 271.347 617.446 271.317 617.331 271.261C617.217 271.205 617.116 271.123 617.038 271.023C616.959 270.922 616.905 270.805 616.879 270.68C616.852 270.555 616.855 270.426 616.885 270.302ZM618.776 269.666H630.062L624.419 247.082L618.776 269.666Z" fill="var(--illustration-primary)"/>
<path fill-rule="evenodd" clip-rule="evenodd" d="M623.577 263.785C623.577 263.562 623.666 263.348 623.823 263.191C623.981 263.033 624.194 262.945 624.417 262.945C624.64 262.945 624.854 263.033 625.011 263.191C625.169 263.348 625.257 263.562 625.257 263.785V277.229C625.257 277.452 625.169 277.665 625.011 277.823C624.854 277.98 624.64 278.069 624.417 278.069C624.194 278.069 623.981 277.98 623.823 277.823C623.666 277.665 623.577 277.452 623.577 277.229V263.785Z" fill="var(--illustration-primary)"/>
<path d="M594.179 270.507H597.539L590.819 243.618L594.179 270.507Z" fill="var(--illustration-primary)" fill-opacity="0.21"/>
<path fill-rule="evenodd" clip-rule="evenodd" d="M583.284 270.302L590.003 243.413C590.05 243.233 590.155 243.073 590.303 242.959C590.45 242.845 590.632 242.783 590.818 242.783C591.005 242.783 591.186 242.845 591.333 242.959C591.481 243.073 591.586 243.233 591.633 243.413L598.352 270.302C598.383 270.426 598.386 270.556 598.36 270.681C598.333 270.806 598.279 270.923 598.2 271.024C598.121 271.125 598.021 271.206 597.906 271.262C597.791 271.318 597.665 271.347 597.537 271.347H584.099C583.971 271.347 583.845 271.318 583.73 271.262C583.616 271.206 583.515 271.125 583.436 271.024C583.358 270.923 583.303 270.806 583.277 270.681C583.25 270.556 583.253 270.426 583.284 270.302ZM585.175 269.666H596.461L590.818 247.082L585.175 269.666Z" fill="var(--illustration-primary)"/>
<path fill-rule="evenodd" clip-rule="evenodd" d="M589.982 263.785C589.982 263.562 590.071 263.348 590.228 263.191C590.386 263.033 590.6 262.945 590.822 262.945C591.045 262.945 591.259 263.033 591.416 263.191C591.574 263.348 591.662 263.562 591.662 263.785V277.229C591.662 277.339 591.641 277.448 591.599 277.55C591.556 277.652 591.494 277.745 591.416 277.823C591.338 277.901 591.246 277.963 591.144 278.005C591.042 278.047 590.933 278.069 590.822 278.069C590.712 278.069 590.603 278.047 590.501 278.005C590.399 277.963 590.306 277.901 590.228 277.823C590.15 277.745 590.089 277.652 590.046 277.55C590.004 277.448 589.982 277.339 589.982 277.229V263.785Z" fill="var(--illustration-primary)"/>
<path d="M560.584 270.507H563.944L557.225 243.618L560.584 270.507Z" fill="var(--illustration-primary)" fill-opacity="0.21"/>
<path fill-rule="evenodd" clip-rule="evenodd" d="M549.688 270.302L556.409 243.413C556.454 243.232 556.559 243.071 556.707 242.956C556.854 242.841 557.036 242.778 557.223 242.778C557.41 242.778 557.592 242.841 557.739 242.956C557.887 243.071 557.992 243.232 558.037 243.413L564.756 270.302C564.788 270.426 564.79 270.555 564.764 270.68C564.737 270.805 564.682 270.922 564.604 271.023C564.525 271.124 564.425 271.205 564.311 271.261C564.196 271.318 564.07 271.347 563.943 271.347H550.503C550.376 271.347 550.25 271.318 550.135 271.262C550.02 271.206 549.919 271.124 549.841 271.024C549.762 270.923 549.708 270.805 549.681 270.68C549.655 270.555 549.657 270.426 549.688 270.302ZM551.579 269.666H562.867L557.222 247.082L551.579 269.666Z" fill="var(--illustration-primary)"/>
<path fill-rule="evenodd" clip-rule="evenodd" d="M556.385 263.785C556.385 263.562 556.473 263.348 556.631 263.191C556.788 263.033 557.002 262.945 557.225 262.945C557.448 262.945 557.661 263.033 557.819 263.191C557.976 263.348 558.065 263.562 558.065 263.785V277.229C558.065 277.452 557.976 277.665 557.819 277.823C557.661 277.98 557.448 278.069 557.225 278.069C557.002 278.069 556.788 277.98 556.631 277.823C556.473 277.665 556.385 277.452 556.385 277.229V263.785Z" fill="var(--illustration-primary)"/>
<path fill-rule="evenodd" clip-rule="evenodd" d="M469.031 263.785C469.031 263.562 469.12 263.348 469.277 263.191C469.435 263.033 469.648 262.945 469.871 262.945C470.094 262.945 470.308 263.033 470.465 263.191C470.623 263.348 470.711 263.562 470.711 263.785V277.229C470.711 277.452 470.623 277.665 470.465 277.823C470.308 277.98 470.094 278.069 469.871 278.069C469.648 278.069 469.435 277.98 469.277 277.823C469.12 277.665 469.031 277.452 469.031 277.229V263.785Z" fill="var(--illustration-primary)"/>
<path fill-rule="evenodd" clip-rule="evenodd" d="M455.594 257.062C455.594 249.178 461.991 242.777 469.872 242.777C477.753 242.777 484.151 249.178 484.151 257.062C484.151 264.946 477.753 271.347 469.872 271.347C461.991 271.347 455.594 264.946 455.594 257.062ZM457.274 257.062C457.274 264.019 462.919 269.666 469.872 269.666C476.826 269.666 482.471 264.019 482.471 257.062C482.471 250.105 476.826 244.458 469.872 244.458C462.919 244.458 457.274 250.105 457.274 257.062Z" fill="var(--illustration-primary)"/>
<path d="M645.789 176.519H625.632L605.474 136.186L645.789 176.519Z" fill="var(--illustration-primary)" fill-opacity="0.21"/>
<path fill-rule="evenodd" clip-rule="evenodd" d="M645.792 177.36H625.634C625.478 177.36 625.325 177.316 625.193 177.234C625.06 177.152 624.953 177.035 624.883 176.895L604.725 136.562C604.634 136.383 604.61 136.178 604.657 135.984C604.704 135.789 604.82 135.617 604.982 135.5C605.145 135.383 605.344 135.328 605.543 135.345C605.743 135.362 605.93 135.449 606.07 135.592L646.385 175.926C646.503 176.043 646.583 176.193 646.615 176.356C646.648 176.519 646.631 176.687 646.568 176.841C646.504 176.994 646.397 177.125 646.259 177.218C646.121 177.31 645.958 177.36 645.792 177.36ZM643.764 175.679L608.541 140.442L626.153 175.679H643.764Z" fill="var(--illustration-primary)"/>
<path fill-rule="evenodd" clip-rule="evenodd" d="M606.224 135.811L626.382 176.144C626.512 176.404 626.499 176.714 626.346 176.962C626.271 177.084 626.166 177.184 626.04 177.254C625.915 177.324 625.775 177.36 625.631 177.36H565.157C564.991 177.361 564.828 177.312 564.689 177.22C564.551 177.128 564.443 176.996 564.379 176.842C564.315 176.689 564.299 176.519 564.332 176.356C564.365 176.193 564.446 176.043 564.564 175.926L604.879 135.592C604.973 135.498 605.088 135.427 605.215 135.386C605.342 135.345 605.477 135.335 605.608 135.356C605.74 135.378 605.864 135.43 605.971 135.509C606.078 135.588 606.165 135.692 606.224 135.811ZM605.243 137.605L567.185 175.679H624.272L605.243 137.605Z" fill="var(--illustration-primary)"/>
<path fill-rule="evenodd" clip-rule="evenodd" d="M591.22 172.953L594.579 159.508C594.624 159.325 594.729 159.163 594.876 159.047C595.024 158.931 595.207 158.868 595.394 158.868C595.582 158.868 595.765 158.931 595.913 159.047C596.06 159.163 596.165 159.325 596.209 159.508L599.568 172.953C599.6 173.077 599.603 173.206 599.577 173.331C599.551 173.456 599.496 173.574 599.418 173.675C599.339 173.775 599.238 173.857 599.123 173.913C599.008 173.969 598.882 173.997 598.755 173.997H592.034C591.907 173.997 591.781 173.968 591.666 173.912C591.552 173.855 591.451 173.774 591.373 173.673C591.294 173.573 591.24 173.456 591.214 173.331C591.187 173.206 591.189 173.077 591.22 172.953ZM593.11 172.317H597.678L595.394 163.177L593.11 172.317Z" fill="var(--illustration-primary)"/>
<path fill-rule="evenodd" clip-rule="evenodd" d="M594.555 173.157C594.555 172.934 594.643 172.72 594.801 172.563C594.958 172.405 595.172 172.317 595.395 172.317C595.617 172.317 595.831 172.405 595.989 172.563C596.146 172.72 596.235 172.934 596.235 173.157V176.519C596.224 176.735 596.131 176.938 595.975 177.087C595.818 177.236 595.611 177.319 595.395 177.319C595.179 177.319 594.971 177.236 594.815 177.087C594.658 176.938 594.565 176.735 594.555 176.519V173.157Z" fill="var(--illustration-primary)"/>
<path fill-rule="evenodd" clip-rule="evenodd" d="M545.863 172.953L549.223 159.508C549.268 159.326 549.373 159.164 549.521 159.049C549.668 158.933 549.85 158.87 550.038 158.87C550.225 158.87 550.407 158.933 550.555 159.049C550.703 159.164 550.807 159.326 550.852 159.508L554.212 172.953C554.244 173.077 554.247 173.206 554.221 173.331C554.194 173.457 554.14 173.574 554.061 173.675C553.982 173.776 553.882 173.857 553.767 173.913C553.652 173.969 553.525 173.997 553.397 173.997H546.678C546.551 173.997 546.424 173.968 546.31 173.912C546.195 173.856 546.094 173.775 546.016 173.674C545.937 173.573 545.882 173.456 545.856 173.331C545.83 173.206 545.832 173.077 545.863 172.953ZM547.754 172.317H552.321L550.038 163.177L547.754 172.317Z" fill="var(--illustration-primary)"/>
<path fill-rule="evenodd" clip-rule="evenodd" d="M549.197 173.159C549.197 172.936 549.286 172.722 549.443 172.565C549.601 172.407 549.814 172.319 550.037 172.319C550.26 172.319 550.474 172.407 550.631 172.565C550.789 172.722 550.877 172.936 550.877 173.159V176.52C550.877 176.743 550.789 176.956 550.631 177.114C550.474 177.271 550.26 177.36 550.037 177.36C549.814 177.36 549.601 177.271 549.443 177.114C549.286 176.956 549.197 176.743 549.197 176.52V173.159Z" fill="var(--illustration-primary)"/>
<path fill-rule="evenodd" clip-rule="evenodd" d="M521.51 172.955L524.869 159.511C524.915 159.329 525.02 159.168 525.167 159.053C525.315 158.937 525.497 158.875 525.684 158.875C525.872 158.875 526.054 158.937 526.202 159.053C526.349 159.168 526.454 159.329 526.5 159.511L529.858 172.955C529.89 173.079 529.892 173.208 529.866 173.333C529.839 173.458 529.784 173.576 529.705 173.676C529.627 173.777 529.527 173.858 529.412 173.915C529.298 173.971 529.172 174 529.044 174H522.324C522.197 174 522.071 173.97 521.956 173.914C521.842 173.858 521.741 173.777 521.663 173.676C521.584 173.575 521.53 173.458 521.504 173.333C521.477 173.208 521.48 173.079 521.51 172.955ZM523.401 172.319H527.968L525.684 163.179L523.401 172.319Z" fill="var(--illustration-primary)"/>
<path fill-rule="evenodd" clip-rule="evenodd" d="M524.842 173.157C524.842 172.934 524.93 172.721 525.088 172.563C525.245 172.406 525.459 172.317 525.682 172.317C525.905 172.317 526.118 172.406 526.276 172.563C526.433 172.721 526.522 172.934 526.522 173.157V176.519C526.511 176.735 526.418 176.938 526.262 177.087C526.105 177.236 525.898 177.319 525.682 177.319C525.466 177.319 525.258 177.236 525.102 177.087C524.945 176.938 524.852 176.735 524.842 176.519V173.157ZM710.71 121.08C710.788 121.002 710.881 120.94 710.983 120.898C711.085 120.856 711.194 120.834 711.304 120.834C711.415 120.834 711.524 120.856 711.626 120.898C711.728 120.941 711.82 121.003 711.898 121.081C711.976 121.159 712.038 121.251 712.08 121.353C712.123 121.455 712.144 121.565 712.144 121.675C712.144 121.785 712.122 121.895 712.08 121.997C712.038 122.099 711.976 122.191 711.898 122.269L706.858 127.311C706.78 127.389 706.687 127.451 706.585 127.493C706.483 127.536 706.374 127.557 706.264 127.557C706.153 127.557 706.044 127.536 705.942 127.493C705.84 127.451 705.748 127.389 705.67 127.311L699.545 121.183L693.42 127.311C693.342 127.389 693.249 127.451 693.147 127.493C693.045 127.536 692.936 127.557 692.826 127.557C692.715 127.557 692.606 127.536 692.504 127.493C692.402 127.451 692.31 127.389 692.232 127.311L687.192 122.269C687.044 122.11 686.963 121.899 686.967 121.682C686.971 121.464 687.06 121.257 687.213 121.103C687.367 120.949 687.575 120.861 687.792 120.856C688.01 120.852 688.22 120.932 688.38 121.08L692.826 125.528L698.951 119.401C699.029 119.323 699.121 119.261 699.223 119.218C699.325 119.176 699.434 119.154 699.545 119.154C699.655 119.154 699.765 119.176 699.866 119.218C699.968 119.261 700.061 119.323 700.139 119.401L706.264 125.528L710.71 121.08Z" fill="var(--illustration-primary)"/>
<path d="M421.628 295.851L394.75 349.629H381.312L421.628 295.851Z" fill="var(--illustration-primary)" fill-opacity="0.21"/>
<path fill-rule="evenodd" clip-rule="evenodd" d="M420.788 295.852C420.788 295.629 420.877 295.416 421.034 295.258C421.192 295.101 421.405 295.012 421.628 295.012C421.851 295.012 422.065 295.101 422.222 295.258C422.38 295.416 422.468 295.629 422.468 295.852V356.352C422.468 356.575 422.38 356.789 422.222 356.946C422.065 357.104 421.851 357.192 421.628 357.192C421.405 357.192 421.192 357.104 421.034 356.946C420.877 356.789 420.788 356.575 420.788 356.352V295.852Z" fill="var(--illustration-primary)"/>
<path fill-rule="evenodd" clip-rule="evenodd" d="M422.41 295.556L442.567 349.334C442.615 349.461 442.631 349.598 442.614 349.733C442.598 349.867 442.548 349.996 442.471 350.107C442.394 350.219 442.291 350.31 442.171 350.373C442.05 350.436 441.917 350.469 441.781 350.469H381.308C381.152 350.469 380.999 350.426 380.866 350.344C380.734 350.262 380.627 350.144 380.557 350.004C380.487 349.865 380.457 349.709 380.471 349.553C380.485 349.398 380.542 349.25 380.636 349.125L420.951 295.347C421.041 295.227 421.163 295.132 421.302 295.075C421.441 295.017 421.593 294.998 421.743 295.019C421.892 295.041 422.033 295.102 422.15 295.196C422.267 295.291 422.357 295.415 422.41 295.556ZM421.376 297.582L382.987 348.788H440.569L421.376 297.582ZM481.597 359.038C481.686 358.972 481.786 358.925 481.893 358.898C482 358.871 482.111 358.865 482.221 358.881C482.33 358.897 482.435 358.934 482.529 358.991C482.624 359.048 482.707 359.122 482.773 359.211C482.838 359.299 482.886 359.4 482.913 359.507C482.94 359.614 482.946 359.725 482.93 359.834C482.914 359.943 482.876 360.048 482.82 360.143C482.763 360.238 482.689 360.32 482.6 360.386C482.6 360.386 477.864 363.914 472.02 363.914C467.303 363.914 463.306 361.615 461.941 360.729C460.576 361.615 456.58 363.914 451.862 363.914C447.145 363.914 443.148 361.615 441.783 360.729C440.418 361.615 436.422 363.914 431.704 363.914C426.987 363.914 422.99 361.615 421.625 360.729C420.26 361.615 416.264 363.914 411.546 363.914C406.829 363.914 402.832 361.615 401.467 360.729C400.102 361.615 396.106 363.914 391.388 363.914C386.671 363.914 382.674 361.615 381.309 360.729C379.944 361.615 375.948 363.914 371.23 363.914C365.387 363.914 360.65 360.386 360.65 360.386C360.471 360.253 360.353 360.055 360.32 359.834C360.288 359.614 360.345 359.389 360.478 359.211C360.611 359.032 360.809 358.913 361.03 358.881C361.25 358.849 361.474 358.905 361.653 359.038C361.653 359.038 365.941 362.233 371.23 362.233C376.52 362.233 380.808 359.038 380.808 359.038C380.953 358.93 381.129 358.872 381.31 358.872C381.49 358.872 381.666 358.93 381.811 359.038C381.811 359.038 386.099 362.233 391.388 362.233C396.678 362.233 400.966 359.038 400.966 359.038C401.111 358.93 401.287 358.872 401.468 358.872C401.648 358.872 401.824 358.93 401.969 359.038C401.969 359.038 406.257 362.233 411.546 362.233C416.836 362.233 421.124 359.038 421.124 359.038C421.269 358.93 421.445 358.872 421.626 358.872C421.806 358.872 421.982 358.93 422.127 359.038C422.127 359.038 426.415 362.233 431.704 362.233C436.994 362.233 441.282 359.038 441.282 359.038C441.427 358.93 441.603 358.872 441.783 358.872C441.964 358.872 442.139 358.93 442.284 359.038C442.284 359.038 446.573 362.233 451.862 362.233C457.152 362.233 461.439 359.038 461.439 359.038C461.584 358.93 461.76 358.872 461.941 358.872C462.121 358.872 462.297 358.93 462.442 359.038C462.442 359.038 466.731 362.233 472.02 362.233C477.31 362.233 481.597 359.038 481.597 359.038Z" fill="var(--illustration-primary)"/>
<path fill-rule="evenodd" clip-rule="evenodd" d="M401.467 360.729C400.426 361.406 397.853 362.907 394.596 363.577C394.459 363.604 394.318 363.598 394.185 363.558C394.052 363.518 393.931 363.445 393.833 363.347L387.434 356.945C387.316 356.827 387.236 356.678 387.204 356.515C387.171 356.352 387.188 356.183 387.251 356.029C387.315 355.876 387.423 355.745 387.561 355.652C387.699 355.56 387.861 355.511 388.028 355.511H438.422C438.565 355.511 438.706 355.547 438.831 355.617C438.956 355.687 439.061 355.788 439.136 355.909C439.211 356.031 439.254 356.17 439.261 356.313C439.267 356.456 439.237 356.599 439.173 356.727L436.037 363.003C435.982 363.112 435.904 363.208 435.808 363.284C435.713 363.361 435.601 363.415 435.483 363.444C434.306 363.727 433.036 363.914 431.703 363.914C426.986 363.914 422.989 361.615 421.624 360.729C420.259 361.615 416.263 363.914 411.545 363.914C406.828 363.914 402.832 361.615 401.467 360.729ZM401.968 359.038C401.968 359.038 406.256 362.233 411.545 362.233C416.835 362.233 421.123 359.038 421.123 359.038C421.267 358.93 421.443 358.871 421.624 358.871C421.804 358.871 421.98 358.93 422.125 359.038C422.125 359.038 426.414 362.233 431.703 362.233C432.756 362.233 433.766 362.101 434.712 361.896L437.063 357.191H390.055L394.696 361.834C398.355 360.975 400.965 359.038 400.965 359.038C401.109 358.93 401.285 358.871 401.466 358.871C401.647 358.871 401.823 358.93 401.968 359.038Z" fill="var(--illustration-primary)"/>
<path fill-rule="evenodd" clip-rule="evenodd" d="M441.786 355.511C442.008 355.511 442.222 355.599 442.38 355.757C442.538 355.915 442.626 356.128 442.626 356.351C442.626 356.574 442.538 356.788 442.38 356.946C442.222 357.103 442.008 357.192 441.786 357.192H384.672C384.449 357.192 384.235 357.103 384.077 356.946C383.92 356.788 383.831 356.574 383.831 356.351C383.831 356.128 383.92 355.915 384.077 355.757C384.235 355.599 384.449 355.511 384.672 355.511H441.786Z" fill="var(--illustration-primary)"/>
<path fill-rule="evenodd" clip-rule="evenodd" d="M217.898 276.389C217.898 276.83 217.811 277.267 217.642 277.675C217.474 278.082 217.226 278.453 216.914 278.765C216.602 279.077 216.232 279.325 215.824 279.494C215.417 279.663 214.98 279.75 214.539 279.75C213.647 279.75 212.792 279.396 212.162 278.765C211.532 278.135 211.178 277.28 211.178 276.389C211.178 275.497 211.532 274.643 212.162 274.012C212.792 273.382 213.647 273.028 214.539 273.028C215.43 273.029 216.284 273.383 216.914 274.013C217.544 274.643 217.897 275.498 217.898 276.389ZM216.219 276.389C216.219 276.168 216.175 275.95 216.09 275.746C216.006 275.542 215.882 275.356 215.726 275.2C215.569 275.044 215.384 274.921 215.18 274.836C214.976 274.752 214.757 274.709 214.537 274.709C214.316 274.709 214.097 274.753 213.894 274.837C213.69 274.922 213.504 275.046 213.348 275.202C213.192 275.358 213.069 275.543 212.984 275.747C212.9 275.951 212.857 276.17 212.857 276.391C212.857 276.837 213.034 277.264 213.35 277.579C213.665 277.894 214.093 278.071 214.539 278.071C214.985 278.071 215.412 277.893 215.727 277.578C216.042 277.262 216.219 276.835 216.219 276.389Z" fill="var(--illustration-primary)"/>
<path fill-rule="evenodd" clip-rule="evenodd" d="M426.199 236.054C426.2 236.495 426.113 236.932 425.944 237.34C425.775 237.747 425.528 238.118 425.216 238.43C424.904 238.742 424.534 238.99 424.126 239.159C423.719 239.328 423.282 239.415 422.84 239.415C421.949 239.415 421.094 239.061 420.464 238.43C419.834 237.8 419.479 236.945 419.479 236.054C419.479 235.162 419.834 234.308 420.464 233.677C421.094 233.047 421.949 232.693 422.84 232.693C423.731 232.694 424.586 233.048 425.215 233.678C425.845 234.308 426.199 235.163 426.199 236.054ZM424.52 236.054C424.52 235.608 424.342 235.181 424.027 234.866C423.712 234.551 423.285 234.374 422.839 234.374C422.394 234.374 421.967 234.551 421.652 234.866C421.336 235.181 421.159 235.608 421.159 236.054C421.159 236.499 421.336 236.927 421.652 237.242C421.967 237.557 422.394 237.734 422.839 237.734C423.285 237.734 423.712 237.557 424.027 237.242C424.342 236.927 424.52 236.499 424.52 236.054Z" fill="var(--illustration-primary)"/>
<path fill-rule="evenodd" clip-rule="evenodd" d="M773.08 241.097C773.08 227.647 783.994 216.729 797.438 216.729C810.881 216.729 821.795 227.647 821.795 241.097C821.795 254.546 810.881 265.465 797.438 265.465C783.994 265.465 773.08 254.546 773.08 241.097ZM774.76 241.097C774.76 253.619 784.921 263.784 797.438 263.784C809.954 263.784 820.115 253.619 820.115 241.097C820.115 228.575 809.954 218.409 797.438 218.409C784.921 218.409 774.76 228.575 774.76 241.097Z" fill="var(--illustration-primary)"/>
<path fill-rule="evenodd" clip-rule="evenodd" d="M796.599 231.014C796.595 230.901 796.614 230.789 796.654 230.684C796.695 230.579 796.756 230.482 796.834 230.401C796.913 230.32 797.007 230.256 797.11 230.212C797.214 230.168 797.326 230.145 797.439 230.145C797.551 230.145 797.663 230.168 797.767 230.212C797.871 230.256 797.964 230.32 798.043 230.401C798.121 230.482 798.182 230.579 798.223 230.684C798.263 230.789 798.282 230.901 798.278 231.014V278.069C798.282 278.182 798.263 278.294 798.223 278.399C798.182 278.504 798.121 278.601 798.043 278.682C797.964 278.763 797.871 278.827 797.767 278.871C797.663 278.915 797.551 278.938 797.439 278.938C797.326 278.938 797.214 278.915 797.11 278.871C797.007 278.827 796.913 278.763 796.834 278.682C796.756 278.601 796.695 278.504 796.654 278.399C796.614 278.294 796.595 278.182 796.599 278.069V231.014Z" fill="var(--illustration-primary)"/>
<path fill-rule="evenodd" clip-rule="evenodd" d="M798.029 250.587C798.187 250.745 798.275 250.958 798.275 251.181C798.275 251.404 798.187 251.618 798.029 251.775C797.872 251.933 797.658 252.021 797.435 252.021C797.213 252.021 796.999 251.933 796.841 251.775L783.402 238.33C783.245 238.173 783.156 237.959 783.156 237.736C783.156 237.513 783.245 237.3 783.402 237.142C783.56 236.985 783.773 236.896 783.996 236.896C784.219 236.896 784.433 236.985 784.59 237.142L798.029 250.587Z" fill="var(--illustration-primary)"/>
<path fill-rule="evenodd" clip-rule="evenodd" d="M726.045 264.625C726.045 264.402 726.133 264.189 726.291 264.031C726.448 263.874 726.662 263.785 726.885 263.785C727.108 263.785 727.321 263.874 727.479 264.031C727.636 264.189 727.725 264.402 727.725 264.625V278.07C727.725 278.293 727.636 278.507 727.479 278.664C727.321 278.822 727.108 278.91 726.885 278.91C726.662 278.91 726.448 278.822 726.291 278.664C726.133 278.507 726.045 278.293 726.045 278.07V264.625Z" fill="var(--illustration-primary)"/>
<path fill-rule="evenodd" clip-rule="evenodd" d="M712.603 257.903C712.603 250.019 719 243.618 726.881 243.618C734.762 243.618 741.16 250.019 741.16 257.903C741.16 265.787 734.762 272.188 726.881 272.188C719 272.188 712.603 265.787 712.603 257.903ZM714.282 257.903C714.282 264.86 719.927 270.507 726.881 270.507C733.835 270.507 739.48 264.86 739.48 257.903C739.48 250.946 733.835 245.299 726.881 245.299C719.927 245.299 714.282 250.946 714.282 257.903Z" fill="var(--illustration-primary)"/>
</g>
</g>
<path d="M212 278.07H-6.35938C-6.58229 278.07 -6.79648 277.981 -6.9541 277.823C-7.11153 277.666 -7.20015 277.452 -7.2002 277.229C-7.2002 277.007 -7.11173 276.792 -6.9541 276.635C-6.79648 276.477 -6.58226 276.389 -6.35938 276.389H212V278.07ZM1001.53 276.389C1002 276.389 1002.37 276.766 1002.37 277.229C1002.37 277.693 1002 278.07 1001.53 278.07H217V276.389H1001.53ZM320.784 232.695C321.007 232.695 321.22 232.783 321.378 232.94C321.535 233.098 321.624 233.312 321.624 233.535V236.896C321.624 237.118 321.535 237.333 321.378 237.49C321.22 237.648 321.007 237.735 320.784 237.735C320.562 237.735 320.348 237.648 320.19 237.49C320.033 237.333 319.944 237.118 319.944 236.896V233.535C319.944 233.312 320.033 233.098 320.19 232.94C320.348 232.783 320.562 232.695 320.784 232.695Z" fill="var(--illustration-primary)"/>
<path d="M420 237.737H284.172C278.368 237.738 272.694 239.456 267.865 242.677L217 276.602V274.581L266.933 241.278C272.038 237.874 278.036 236.057 284.172 236.057H420V237.737ZM890.672 209.168C890.895 209.168 891.108 209.257 891.266 209.414C891.423 209.572 891.512 209.786 891.512 210.009C891.512 210.232 891.423 210.445 891.266 210.603C891.108 210.76 890.895 210.849 890.672 210.849H540.956C534.28 210.848 527.803 213.121 522.592 217.293L505.561 230.924C500.051 235.334 493.204 237.737 486.146 237.737H425V236.057H486.146C492.822 236.057 499.299 233.784 504.511 229.612L521.543 215.981C527.052 211.571 533.899 209.168 540.956 209.168H890.672Z" fill="var(--illustration-primary)"/>
<path d="M477.079 257.493C477.079 251.231 472.793 245.984 467 244.489C468.097 244.201 469.225 244.054 470.359 244.049C477.782 244.049 483.798 250.068 483.798 257.493C483.798 264.919 477.782 270.938 470.359 270.938C469.225 270.934 468.097 270.786 467 270.498C472.793 269.003 477.079 263.756 477.079 257.493Z" fill="var(--illustration-primary)" fill-opacity="0.21"/>
<path d="M811.365 241.528C811.365 230.266 803.453 220.855 792.887 218.547C794.542 218.185 796.232 218.001 797.927 218C810.915 218 821.444 228.534 821.444 241.528C821.444 254.522 810.915 265.056 797.927 265.056C796.196 265.056 794.512 264.863 792.887 264.509C803.453 262.2 811.365 252.79 811.365 241.528Z" fill="var(--illustration-primary)" fill-opacity="0.21"/>
<path d="M734.091 258.334C734.091 252.071 729.805 246.825 724.012 245.33C725.109 245.042 726.238 244.894 727.372 244.889C734.794 244.889 740.811 250.908 740.811 258.334C740.811 265.759 734.794 271.778 727.372 271.778C726.21 271.778 725.088 271.615 724.012 271.338C729.805 269.843 734.091 264.597 734.091 258.334Z" fill="var(--illustration-primary)" fill-opacity="0.21"/>
<path d="M763 175.681V177.362H632.354C632.187 177.362 632.025 177.312 631.887 177.22C631.799 177.161 631.726 177.086 631.666 177H646L644.754 175.681H763ZM699.546 108.458C699.656 108.458 699.766 108.48 699.868 108.522C699.97 108.565 700.063 108.627 700.141 108.705L766.405 175H764.03L699.546 110.487L639.714 170.344L638.56 169.122L698.952 108.705C699.03 108.627 699.123 108.565 699.225 108.522C699.326 108.48 699.436 108.458 699.546 108.458Z" fill="var(--illustration-primary)"/>
<path d="M699.415 108.466C699.619 108.436 699.828 108.482 700.001 108.595L802.096 175.817C802.246 175.915 802.361 176.06 802.423 176.228C802.485 176.396 802.491 176.58 802.441 176.752C802.392 176.925 802.289 177.077 802.146 177.186C802.004 177.295 801.83 177.355 801.65 177.359L767.999 178.025V176.345L798.912 175.732L705.497 114.224L764.518 175H763.499V176.362L698.937 109.882C698.793 109.734 698.708 109.537 698.7 109.331C698.692 109.124 698.761 108.922 698.893 108.762C699.024 108.603 699.211 108.497 699.415 108.466Z" fill="var(--illustration-primary)"/>
<path fill-rule="evenodd" clip-rule="evenodd" d="M768.64 176.861C768.64 177.752 768.286 178.607 767.656 179.237C767.026 179.867 766.171 180.221 765.28 180.222C764.403 180.201 763.569 179.837 762.956 179.209C762.343 178.581 762 177.738 762 176.861C762 175.984 762.343 175.141 762.956 174.513C763.569 173.885 764.403 173.521 765.28 173.5C766.171 173.501 767.026 173.855 767.656 174.485C768.286 175.115 768.64 175.97 768.64 176.861ZM766.96 176.861C766.96 176.415 766.783 175.988 766.468 175.673C766.153 175.358 765.726 175.181 765.28 175.181C764.834 175.181 764.407 175.358 764.092 175.673C763.777 175.988 763.6 176.415 763.6 176.861C763.6 177.307 763.777 177.734 764.092 178.049C764.407 178.364 764.834 178.541 765.28 178.541C765.726 178.541 766.153 178.364 766.468 178.049C766.783 177.734 766.96 177.307 766.96 176.861Z" fill="var(--illustration-primary)"/>
</g>
<defs>
<clipPath id="clip0_2220_3838">
<rect width="840" height="400" fill="white"/>
</clipPath>
</defs>
</svg>
