<svg xmlns="http://www.w3.org/2000/svg" viewBox="0 0 96 97" fill="none">
  <g clip-path="url(#a)">
    <circle cx="48" cy="48.5" r="48" fill="#0572D2" fill-opacity=".07"/>
    <rect x="24" y="31.5" width="48" height="34" rx="4" fill="#0572D2" fill-opacity=".07" stroke="#509EE3" stroke-width="1.25" stroke-linejoin="round"/>
    <rect x="29.5" y="37" width="37" height="20" rx="1.5" fill="#fff" stroke="#509EE3" stroke-width="1.25" stroke-linejoin="round"/>
    <path d="M61.07 60.13a1.09 1.09 0 1 1 0 2.17 1.09 1.09 0 0 1 0-2.17ZM65.57 60.13a1.09 1.09 0 1 1 0 2.17 1.09 1.09 0 0 1 0-2.17Z" stroke="#509EE3" stroke-width="1.25"/>
    <circle cx="41" cy="44" r="1.5" fill="#509EE3"/>
    <circle cx="55" cy="44" r="1.5" fill="#509EE3"/>
    <path d="M50.25 48c0 1.5-1 2.25-2.25 2.25-1.24 0-2.25-.76-2.25-2.25M16 43.5v2M13 46.5h2M16 47.5v2M17 46.5h2" stroke="#509EE3" stroke-width="1.25"/>
    <g opacity=".5" stroke="#509EE3" stroke-width="1.25">
      <path d="M42 68.5v2M39 71.5h2M42 72.5v2M43 71.5h2"/>
    </g>
    <path d="M32.2 49.38c2.17.06 3.44.57 4.17 1.26.8.76.84 1.63.84 1.97v1.12h1.08c.93 0 1.81.45 2.44 1.39.62.91.98 2.27.98 4.1 0 1.99-.47 3.35-1.23 4.21a3.38 3.38 0 0 1-2.6 1.16h-1.26v2.21c0 .27-.03 1.04-.83 1.7-.76.64-2.1 1.1-4.47 1.1l-.45-.01c-2.16-.06-3.43-.57-4.16-1.26a2.62 2.62 0 0 1-.84-1.97v-1.12H24.8c-.93 0-1.81-.45-2.44-1.39-.62-.91-.98-2.27-.98-4.1 0-1.99.47-3.35 1.23-4.21a3.38 3.38 0 0 1 2.6-1.16h1.26v-2.21c0-.27.04-1.04.83-1.7.76-.64 2.1-1.1 4.48-1.1l.44.01Z" fill="#0572D2" fill-opacity=".15"/>
    <path d="M28.77 48c4.71 0 4.81 2.05 4.81 2.61v4.32c0 2.26-1.96 2.56-2.66 2.56H26.2c-2.26 0-2.75 1.81-2.75 2.8v2.33H21.8c-1.4 0-2.79-1.36-2.79-4.86 0-3.82 1.78-4.76 3.2-4.76h1.89v-2.83c0-.37.05-2.17 4.68-2.17Z" fill="#fff"/>
    <path d="M28.77 48v-.63.63Zm4.81 2.61h-.62.62Zm0 4.32h.63-.63Zm-7.38 2.56v-.62.62Zm-2.75 5.13v.62h.63v-.62h-.63Zm-1.66 0v.62-.62ZM19 57.76h-.63.63ZM22.2 53v-.62.62Zm1.89 0v.63h.62V53h-.62Zm4.68-5v.63c2.28 0 3.3.5 3.74.92.43.4.45.84.45 1.06h1.25c0-.34-.04-1.2-.84-1.97-.78-.74-2.17-1.26-4.6-1.27V48Zm4.81 2.61h-.62v4.32h1.25V50.6h-.63Zm0 4.32h-.62c0 .9-.38 1.35-.78 1.6-.44.27-.97.34-1.26.34v1.25c.42 0 1.21-.09 1.92-.53.76-.47 1.37-1.31 1.37-2.66h-.63Zm-2.66 2.56v-.62H26.2v1.25h4.72v-.63Zm-4.72 0v-.62c-1.33 0-2.2.54-2.73 1.3-.5.7-.64 1.54-.64 2.11h1.25c0-.4.1-.96.41-1.4.28-.4.77-.76 1.7-.76v-.63Zm-2.75 2.8h-.62v2.33h1.25v-2.34h-.63Zm0 2.33v-.63H21.78v1.25H23.46v-.62Zm-1.66 0v-.63c-.48 0-.99-.22-1.4-.84-.43-.63-.77-1.71-.77-3.4h-1.25c0 1.83.36 3.19.98 4.1.63.94 1.51 1.4 2.44 1.4v-.63ZM19 57.76h.63c0-1.82.42-2.84.9-3.4a2.13 2.13 0 0 1 1.67-.73v-1.25c-.85 0-1.84.28-2.6 1.16-.76.86-1.23 2.22-1.23 4.22H19ZM22.2 53v.63h1.89v-1.25h-1.9V53Zm1.89 0h.62v-2.83h-1.25V53h.63Zm0-2.83h.62c0-.1 0-.42.38-.75.43-.35 1.42-.8 3.68-.8v-1.25c-2.38 0-3.72.46-4.48 1.1-.8.66-.83 1.43-.83 1.7h.63Z" fill="#509EE3"/>
    <mask id="b" fill="#fff">
      <circle cx="26.38" cy="50.88" r=".88"/>
    </mask>
    <circle cx="26.38" cy="50.88" fill="#509EE3" r=".88"/>
    <path d="M27.25 50.88h-1c0-.07.06-.13.13-.13v2c1.03 0 1.87-.84 1.87-1.87h-1Zm-.87.87v-1c.06 0 .12.06.12.13h-2c0 1.03.84 1.87 1.88 1.87v-1Zm-.88-.87h1c0 .06-.06.12-.12.12v-2c-1.04 0-1.88.84-1.88 1.88h1Zm.88-.88v1a.12.12 0 0 1-.13-.12h2c0-1.04-.84-1.88-1.87-1.88v1Z" fill="#509EE3" mask="url(#b)"/>
    <path d="M24.25 53H29" stroke="#509EE3" stroke-width="1.25"/>
    <path d="M28.32 66.97c-4.72 0-4.82-2.05-4.82-2.61v-4.32c0-2.26 1.96-2.56 2.66-2.56h4.72c2.26 0 2.75-1.81 2.75-2.8v-2.33h1.66c1.4 0 2.8 1.36 2.8 4.86 0 3.82-1.79 4.76-3.2 4.76h-1.9v2.83c0 .37-.05 2.17-4.67 2.17Z" fill="#fff"/>
    <path d="M28.32 66.97v.63-.63Zm-4.82-2.61h.63-.63Zm0-4.32h-.63.63Zm2.66-2.56v-.63.63Zm7.47-5.13v-.62H33v.62h.63Zm1.66 0v-.62.62Zm2.8 4.86h.62-.63Zm-5.1 4.76v-.63h-.62v.63h.62Zm-4.67 5v-.63c-2.3 0-3.3-.5-3.75-.92-.43-.4-.45-.84-.45-1.06h-1.25c0 .34.04 1.2.84 1.97.78.74 2.17 1.27 4.6 1.27v-.63Zm-4.82-2.61h.63v-4.32h-1.26v4.32h.63Zm0-4.32h.63c0-.9.37-1.35.77-1.6.44-.27.97-.34 1.26-.34v-1.25c-.42 0-1.21.09-1.92.53-.76.47-1.36 1.31-1.36 2.66h.62Zm2.66-2.56v.62h4.72v-1.25h-4.72v.63Zm4.72 0v.62c1.33 0 2.2-.54 2.73-1.3.5-.7.64-1.54.64-2.11H33c0 .4-.1.96-.41 1.4-.28.4-.77.76-1.7.76v.63Zm2.75-2.8h.62v-2.33H33v2.34h.63Zm0-2.33v.63h1.66v-1.25h-1.66v.62Zm1.66 0v.63c.48 0 .99.22 1.4.84.43.63.77 1.71.77 3.4h1.25c0-1.83-.36-3.19-.98-4.1a2.91 2.91 0 0 0-2.44-1.4v.63Zm2.8 4.86h-.63c0 1.82-.43 2.84-.92 3.4-.48.55-1.09.73-1.66.73v1.25c.85 0 1.84-.28 2.6-1.16.76-.86 1.23-2.22 1.23-4.22h-.63Zm-3.2 4.76v-.63h-1.9v1.25h1.9v-.62Zm-1.9 0h-.62v2.83h1.25v-2.83h-.63Zm0 2.83h-.62c0 .1 0 .42-.38.75-.43.35-1.42.8-3.67.8v1.25c2.37 0 3.71-.46 4.47-1.1.8-.66.83-1.43.83-1.7h-.63Z" fill="#509EE3"/>
    <mask id="c" fill="#fff">
      <circle cx="30.71" cy="64.09" transform="rotate(180 30.7 64.1)" r=".88"/>
    </mask>
    <circle cx="30.71" cy="64.09" transform="rotate(180 30.7 64.1)" fill="#509EE3" r=".88"/>
    <path d="M29.83 64.1h1c0 .06-.06.12-.12.12v-2c-1.04 0-1.88.84-1.88 1.87h1Zm.88-.88v1a.12.12 0 0 1-.13-.13h2c0-1.03-.84-1.87-1.87-1.87v1Zm.87.87h-1c0-.06.06-.12.13-.12v2c1.03 0 1.87-.84 1.87-1.88h-1Zm-.87.88v-1c.06 0 .12.06.12.12h-2c0 1.04.84 1.88 1.88 1.88v-1Z" fill="#509EE3" mask="url(#c)"/>
    <path d="M32.83 61.97h-4.75" stroke="#509EE3" stroke-width="1.25"/>
  </g>
  <defs>
    <clipPath id="a">
      <path fill="#fff" d="M0 .5h96v96H0z"/>
    </clipPath>
  </defs>
</svg>