<svg width="200" height="100" viewBox="0 0 200 100" fill="none" xmlns="http://www.w3.org/2000/svg">
<g clip-path="url(#clip0_2233_1796)">
<rect width="200" height="100" fill="#74BCFC" fill-opacity="0.12"/>
<g clip-path="url(#clip1_2233_1796)">
<path d="M100.379 13.3416C100.753 13.3416 101.126 13.3484 101.496 13.3591C101.554 13.3607 101.611 13.3623 101.669 13.364C101.75 13.3667 101.831 13.3686 101.912 13.3718C107.228 13.5579 111.634 14.6048 115.072 16.1941C115.084 16.1975 115.095 16.2004 115.106 16.2039C116.124 16.5169 117.014 17.0912 117.979 17.7488L117.981 17.7498C118.08 17.7858 118.173 17.8371 118.256 17.9011L118.545 18.1238C119.166 18.4874 119.768 18.8669 120.349 19.2615C120.56 19.4049 120.768 19.5507 120.974 19.698C122.226 20.4931 123.562 21.4009 124.775 22.6394C124.838 22.7032 124.867 22.7872 124.864 22.8699C125.995 23.9278 127.013 25.0919 127.926 26.3308C128.086 26.5478 128.242 26.7675 128.396 26.989C130.695 30.0642 132.292 33.4266 133.051 36.8181C133.949 39.709 134.525 42.5958 134.86 45.2322C134.882 45.4032 134.761 45.56 134.59 45.5818C134.531 45.5892 134.474 45.5797 134.424 45.5574C134.58 46.8481 134.664 48.1458 134.679 49.4421C134.737 49.9588 134.797 50.467 134.86 50.9646C134.879 51.113 134.791 51.2505 134.655 51.2986C134.59 53.059 134.404 54.8088 134.113 56.5261C134.085 56.6961 133.924 56.8105 133.754 56.782C133.595 56.7551 133.486 56.6131 133.495 56.4558L133.295 57.1628L133.626 57.4207C133.427 57.6763 133.222 57.9301 133.013 58.1814C132.492 61.2542 131.528 63.9629 130.298 66.0642C130.252 66.1421 130.177 66.1906 130.096 66.2087C129.588 66.8777 129.053 67.5285 128.485 68.157L128.396 68.3269C128.364 68.3857 128.311 68.4073 128.26 68.4041C127.81 68.8908 127.343 69.3648 126.857 69.825C126.25 71.1081 125.615 72.252 125.006 73.238C124.915 73.3848 124.723 73.4302 124.576 73.3396C124.43 73.2488 124.384 73.0565 124.475 72.9099C124.841 72.317 125.215 71.6657 125.588 70.9617C124.539 71.8478 123.415 72.6741 122.216 73.4363C121.276 75.4772 120.184 77.0469 119.096 78.0232C118.967 78.1383 118.769 78.1272 118.654 77.9988C118.539 77.8704 118.55 77.6725 118.679 77.5574C119.536 76.7885 120.418 75.5966 121.224 74.0427C119.373 75.1271 117.355 76.0625 115.169 76.8289C114.564 78.4384 113.863 79.7816 113.093 80.8074C112.989 80.945 112.794 80.973 112.656 80.8699C112.518 80.7663 112.49 80.5703 112.594 80.4324C113.246 79.5632 113.855 78.4388 114.397 77.0906C112.139 77.828 109.709 78.3882 107.105 78.7507C106.817 79.9683 106.499 81.1277 106.153 82.2224C106.101 82.3869 105.926 82.4784 105.762 82.4265C105.597 82.3745 105.506 82.1993 105.558 82.0349C105.876 81.0242 106.171 79.9568 106.441 78.8386C104.551 79.0748 102.572 79.2081 100.503 79.2302V82.6951C100.503 82.7599 100.483 82.82 100.449 82.8699C100.416 82.9195 100.368 82.9595 100.312 82.9832C100.275 82.999 100.234 83.0076 100.19 83.0076L100.189 83.0066V83.0076C100.017 83.0074 99.878 82.8674 99.8779 82.6951V79.2332C99.0131 79.2331 98.1642 79.2143 97.3311 79.1785L95.6846 80.1189C95.5466 80.1978 95.3829 80.2195 95.2295 80.1775L94.2432 79.9089C93.9813 79.8377 93.7828 80.1451 93.9561 80.3533C94.0351 80.448 94.0352 80.5677 93.9854 80.6609C94.1322 81.1954 94.2854 81.7166 94.4453 82.2234C94.4972 82.3879 94.4057 82.5631 94.2412 82.615C94.0769 82.6668 93.9017 82.5761 93.8496 82.4119C93.6856 81.892 93.5293 81.3567 93.3789 80.8083H92.7021C92.5367 80.8084 92.3756 80.8627 92.2432 80.9617L91.8135 81.283C91.7343 81.3424 91.6749 81.4246 91.6436 81.5183C91.5639 81.7571 91.3155 81.8958 91.0703 81.8386L88.8125 81.3083C88.4867 81.2319 88.219 81.0004 88.0947 80.6902L87.915 80.2419L86.8857 78.3582C86.8173 78.2325 86.7755 78.0939 86.7637 77.9519L86.7324 77.5798C86.4935 77.5137 86.2567 77.4447 86.0215 77.3748C86.5541 78.6805 87.15 79.7723 87.7871 80.6208C87.8906 80.7587 87.8634 80.9548 87.7256 81.0583C87.605 81.1489 87.4398 81.1388 87.3311 81.0427C87.3154 81.0289 87.3011 81.0132 87.2881 80.9958C87.0153 80.6325 86.7507 80.2294 86.4961 79.7888C86.0498 79.0165 85.6343 78.1286 85.2559 77.1375C83.0453 76.4297 81.0048 75.5555 79.1338 74.5261C79.8911 75.9366 80.7117 77.0265 81.5137 77.7458C81.6421 77.861 81.6532 78.0588 81.5381 78.1873C81.5236 78.2034 81.508 78.2178 81.4912 78.2302C81.4579 78.2549 81.4207 78.2723 81.3818 78.282C81.2848 78.3063 81.1778 78.2833 81.0977 78.2117C80.0688 77.289 79.0421 75.8366 78.1465 73.9578C76.7484 73.1212 75.4505 72.1959 74.252 71.1882C74.6136 71.878 74.9792 72.5162 75.3389 73.0984C75.4069 73.2085 75.3988 73.3448 75.3281 73.4441C75.3047 73.477 75.2739 73.5055 75.2373 73.5281C75.0906 73.6186 74.8982 73.5732 74.8076 73.4265C74.2087 72.4568 73.5909 71.3353 73.0049 70.0789C71.7993 68.9403 70.7075 67.7105 69.7266 66.4001C69.6416 66.3836 69.5639 66.3331 69.5166 66.2527C69.4008 66.0549 69.2883 65.8507 69.1777 65.6423C69.1046 65.5378 69.0318 65.4324 68.96 65.3269C68.9158 65.2619 68.9003 65.1864 68.9092 65.114C68.4004 64.0731 67.9568 62.9167 67.5938 61.6667C67.4885 61.3044 67.3882 60.9348 67.2969 60.5574C67.0948 59.7221 66.9287 58.8508 66.8008 57.95C66.5376 57.6273 66.2824 57.301 66.0352 56.9714C65.8747 56.9853 65.7285 56.8762 65.7012 56.7146C65.4114 55.0001 65.2338 53.253 65.1816 51.4958C65.0281 51.4597 64.9231 51.3131 64.9434 51.1531C65.0277 50.4893 65.1086 49.8075 65.1895 49.1111C65.267 46.9768 65.5369 44.841 66.0244 42.7439C66.1556 41.9453 66.3042 41.1421 66.4727 40.3376C66.5132 39.4761 66.6087 38.6102 66.7627 37.7449C67.8842 31.4421 71.9477 25.1579 78.0557 20.5457C80.1215 18.8049 82.1076 17.6027 84.0254 16.8357C85.9218 15.8099 88.1635 14.961 90.7383 14.3572C90.7922 14.3124 90.861 14.285 90.9365 14.2849C90.9702 14.2849 91.0052 14.2872 91.041 14.2888C93.2383 13.7948 95.673 13.4774 98.3379 13.3767C98.3616 13.3757 98.3854 13.3748 98.4092 13.3738C98.574 13.3678 98.7397 13.3625 98.9062 13.3582C99.0813 13.3532 99.2567 13.35 99.4326 13.3474C99.4989 13.3464 99.5653 13.3452 99.6318 13.3445C99.7546 13.3433 99.8777 13.3416 100.001 13.3416H100.379ZM98.708 77.4041C98.3527 77.5221 98.1135 77.8543 98.1133 78.2283C98.1133 78.3515 98.0854 78.4708 98.0371 78.5798C98.6423 78.5986 99.2558 78.6091 99.8779 78.6091V77.0134L98.708 77.4041ZM107.803 71.1638C107.053 71.2681 106.291 71.3565 105.517 71.4304C105.466 71.5441 105.395 71.6479 105.307 71.7361L104.079 72.9626C103.887 73.1554 103.778 73.416 103.778 73.6882V75.1248C103.778 75.5855 103.471 75.989 103.026 76.1121L100.503 76.8123V78.6062C102.631 78.5833 104.661 78.4403 106.594 78.1892C107.092 76.0161 107.499 73.6615 107.803 71.1638ZM116.343 69.1863C113.889 70.0048 111.254 70.6433 108.443 71.0701C108.145 73.5636 107.746 75.9189 107.256 78.0984C109.921 77.7133 112.397 77.1181 114.687 76.3357C115.166 75.0086 115.584 73.4927 115.916 71.8113C116.081 70.9751 116.223 70.0988 116.343 69.1863ZM84.5342 72.3347C84.8639 73.9296 85.2707 75.3701 85.7354 76.6355C86.0457 76.7321 86.3595 76.8249 86.6768 76.9148L86.5928 75.9041L86.2812 74.0349C86.2388 73.7812 86.1019 73.5527 85.8984 73.3943L84.5342 72.3347ZM76.416 65.9763C76.6634 67.5412 77.0038 68.9941 77.4102 70.3171C77.7717 71.4944 78.1863 72.565 78.6309 73.5193C80.5539 74.6539 82.6711 75.6184 84.9863 76.3933C84.818 75.906 84.657 75.3971 84.5068 74.8669C84.3237 74.2204 84.1546 73.543 84.001 72.8367C83.9498 72.6012 83.9002 72.3626 83.8525 72.1208C83.8284 71.9984 83.8064 71.8748 83.7832 71.7507L82.9648 71.115C82.8664 71.0381 82.7826 70.9442 82.7178 70.8376L81.1514 68.2615C79.4768 67.5838 77.8975 66.8188 76.416 65.9763ZM123.817 65.8445C121.739 67.046 119.465 68.0961 117.002 68.9617C116.873 69.9976 116.714 70.9895 116.528 71.9324C116.231 73.4388 115.864 74.8236 115.441 76.0681C117.729 75.2299 119.823 74.2012 121.724 73.0085C122.117 72.1369 122.486 71.1746 122.812 70.1277C123.22 68.8211 123.563 67.3872 123.817 65.8445ZM71.1064 62.3005C71.6595 65.0927 72.5442 67.5894 73.5215 69.7048C74.7846 70.8876 76.1741 71.9716 77.6934 72.9441C77.3762 72.1854 77.0803 71.3693 76.8135 70.5007C76.5375 69.6022 76.2909 68.6459 76.083 67.6375C75.979 67.1331 75.8848 66.6156 75.8008 66.0857C75.7739 65.9161 75.7493 65.7451 75.7246 65.573C74.0541 64.5754 72.5133 63.4793 71.1064 62.3005ZM128.759 62.4148C127.456 63.495 126.039 64.5045 124.513 65.4314C124.248 67.1987 123.87 68.8342 123.408 70.3132C123.18 71.045 122.929 71.7389 122.665 72.3933C123.99 71.4932 125.216 70.5107 126.341 69.4539C127.292 67.4285 128.168 65.0573 128.759 62.4148ZM108.436 61.7888C105.99 62.0764 103.349 62.2359 100.503 62.2527V67.4148H103.429C103.655 67.4148 103.875 67.4899 104.055 67.6277L105.654 68.8562C106.001 69.1228 106.14 69.5796 106.002 69.9939L105.738 70.782C106.463 70.709 107.176 70.6221 107.878 70.5222C108.192 67.7611 108.382 64.8329 108.436 61.7888ZM116.722 60.1355C114.427 60.8182 111.878 61.3532 109.061 61.7146C109.01 64.7477 108.824 67.6681 108.517 70.4265C111.339 69.9885 113.977 69.3351 116.428 68.4988C116.723 65.956 116.839 63.1466 116.722 60.1355ZM67.582 58.8708C68.024 61.3307 68.767 63.5258 69.7139 65.3191C70.5026 66.4426 71.3725 67.5094 72.3242 68.5144C71.5002 66.4884 70.7865 64.1803 70.3486 61.6472C69.3536 60.762 68.4315 59.8337 67.582 58.8708ZM124.291 58.9568C124.195 59.007 124.08 59.0212 123.969 58.9841C123.859 58.9476 123.738 58.9592 123.637 59.0154L122.329 59.741C122.177 59.8255 122.005 59.8698 121.83 59.8699H120.45C120.291 59.8699 120.133 59.8327 119.991 59.7615L119.128 59.3308C118.55 59.5465 117.954 59.7518 117.338 59.946C117.462 62.931 117.361 65.7259 117.082 68.2693C119.571 67.3744 121.859 66.2895 123.939 65.0486C124.206 63.1603 124.338 61.12 124.291 58.9568ZM128.063 66.9617C127.902 67.3983 127.733 67.8233 127.562 68.2371C127.72 68.0696 127.874 67.8989 128.028 67.7283L128.013 67.6638C127.972 67.5009 127.972 67.3302 128.013 67.1667L128.063 66.9617ZM91.6963 61.9011L92.3486 62.4548C92.5343 62.6128 92.7701 62.7 93.0137 62.7H94.7578C94.9746 62.7 95.186 62.7677 95.3613 62.8953L96.7461 63.9011C97.0116 64.0945 97.1689 64.4031 97.1689 64.7312V65.7498C97.169 66.1829 97.4411 66.5699 97.8496 66.7156L99.6445 67.3552C99.7198 67.382 99.7987 67.3963 99.8779 67.405V62.2556C96.9377 62.2514 94.2135 62.095 91.6963 61.8044C91.6965 61.8367 91.696 61.8689 91.6963 61.9011ZM76.0752 57.3376C75.8729 60.1576 75.9774 62.7942 76.2998 65.1873C77.6484 65.9781 79.0824 66.7045 80.6006 67.3562L79.9268 66.2468C79.729 65.9217 79.7288 65.5129 79.9248 65.1863L79.9844 65.0867C80.1057 64.8846 80.1535 64.6471 80.1201 64.4138L80.0557 63.9617C80.01 63.6422 80.1182 63.3197 80.3467 63.0916L80.7383 62.7C80.9271 62.5112 81.3431 62.1335 81.4941 62.1335C81.6269 62.1328 81.5749 61.0622 81.5176 60.3337C81.5034 60.1545 81.43 59.9856 81.3115 59.8503L80.8486 59.322C80.5859 59.2237 80.3273 59.1228 80.0723 59.0203C80.0125 59.1805 79.7917 59.2166 79.6885 59.0681L79.4883 58.7791C78.2661 58.2597 77.1366 57.6903 76.0967 57.0759C76.0898 57.1633 76.0814 57.2506 76.0752 57.3376ZM129.375 62.5222C129.128 63.6298 128.833 64.6905 128.503 65.699L129.048 64.4773C129.071 64.424 129.1 64.3731 129.132 64.325L129.289 64.0896C129.401 63.921 129.461 63.7227 129.461 63.5203V62.864C129.461 62.7558 129.436 62.6489 129.388 62.5525C129.383 62.5427 129.379 62.5322 129.375 62.5222ZM70.7295 52.6892C70.3598 55.768 70.4907 58.6693 70.9307 61.325C72.3474 62.5684 73.9115 63.7269 75.6201 64.7791C75.3418 62.4757 75.2605 59.9639 75.4521 57.2927C75.466 57.0999 75.4833 56.9061 75.5 56.7117C74.4679 56.0631 73.5288 55.3702 72.6816 54.6355C71.9653 54.0142 71.3165 53.3629 70.7295 52.6892ZM128.556 57.1921C128.423 56.9928 128.169 56.9118 127.944 56.9958L127.149 57.2937C126.938 57.373 126.702 57.3605 126.5 57.2595C126.23 57.1249 125.908 57.15 125.663 57.325L124.979 57.8132C124.943 57.8387 124.909 57.8671 124.878 57.8972C124.992 60.2886 124.889 62.5446 124.624 64.6296C126.197 63.6437 127.646 62.567 128.968 61.4167C129.02 61.1449 129.069 60.8705 129.114 60.5935C129.08 60.563 129.043 60.5345 129.004 60.5085L128.785 60.363C128.499 60.1728 128.328 59.8525 128.328 59.5095V58.5583C128.328 58.4279 128.353 58.2986 128.401 58.1775L128.605 57.6697C128.669 57.5122 128.65 57.3333 128.556 57.1921ZM92.1758 51.0837C91.849 54.5326 91.6919 57.917 91.6934 61.1755C94.2038 61.4685 96.9286 61.6273 99.8779 61.6316V51.5007C97.0947 51.4853 94.5306 51.3427 92.1758 51.0837ZM108.077 51.1355C105.755 51.3718 103.233 51.4999 100.503 51.5037V61.6287C103.36 61.6117 106.005 61.4494 108.445 61.1589C108.482 57.9231 108.364 54.5618 108.077 51.1355ZM84.9512 49.7791C84.3667 52.6483 83.9898 55.4246 83.79 58.0681C84.3096 57.8631 84.9075 58.1128 85.1191 58.6414L85.2021 58.8484C85.3582 59.2374 85.7356 59.4929 86.1553 59.4929H88.4814C88.725 59.4929 88.9609 59.5796 89.1465 59.7371L90.6934 61.0496C90.8182 61.0663 90.9434 61.0843 91.0693 61.1003C91.0703 57.8405 91.2278 54.4574 91.5547 51.0115C89.1284 50.7193 86.9311 50.3024 84.9512 49.7791ZM115.484 49.864C113.451 50.3835 111.193 50.7919 108.698 51.071C108.985 54.4916 109.104 57.8485 109.07 61.0828C111.884 60.7174 114.419 60.177 116.691 59.491C116.67 59.0626 116.646 58.6301 116.615 58.1941C116.599 57.9649 116.579 57.7349 116.561 57.5037C116.362 57.3586 116.242 57.1268 116.242 56.8777C116.242 56.7373 116.203 56.5997 116.131 56.4792L115.981 56.2292C115.797 55.9214 115.817 55.532 116.032 55.2449C116.167 55.0653 116.228 54.841 116.203 54.6179L116.073 53.45C116.06 53.3297 116.025 53.2124 115.971 53.1042L115.761 52.6843C115.601 52.3648 115.627 51.986 115.824 51.6912C115.72 51.0866 115.607 50.4776 115.484 49.864ZM67.6875 47.7615C67.0242 51.26 66.9811 54.6477 67.3936 57.6882C68.2444 58.7194 69.1799 59.713 70.1973 60.6619C69.8213 57.9941 69.7556 55.0964 70.1826 52.032C69.1159 50.6865 68.2883 49.2542 67.6875 47.7615ZM117.238 58.1501C117.266 58.5364 117.288 58.92 117.308 59.3005C117.708 59.1724 118.099 59.0385 118.482 58.9011L118.182 58.6013C118.147 58.5671 118.111 58.5347 118.072 58.5056L117.375 57.9832L117.218 57.8914C117.224 57.9778 117.232 58.064 117.238 58.1501ZM78.0869 47.1101C77.766 48.108 77.4862 49.0943 77.2441 50.0671C77.3751 50.1616 77.4834 50.2924 77.5508 50.4539L77.9141 51.325C78.0289 51.6001 78.0182 51.9119 77.8848 52.1785L77.6094 52.7273C77.3558 53.2338 77.5615 53.8498 78.0684 54.1033L78.4717 54.3044C78.8193 54.4781 79.0389 54.8332 79.0391 55.2214V56.0496C79.0391 56.3215 79.1473 56.5828 79.3398 56.7751L80.1719 57.6062L81.1592 58.5925C81.4716 58.9046 81.9495 58.9823 82.3447 58.7849L83.1387 58.3875C83.1398 58.3712 83.1414 58.3549 83.1426 58.3386C83.3384 55.5622 83.7287 52.6387 84.3467 49.614C81.9291 48.9328 79.8496 48.088 78.0869 47.1101ZM76.4277 54.1658C76.3159 54.915 76.2236 55.6534 76.1543 56.3806C76.9761 56.8796 77.8581 57.3506 78.8027 57.7898L78.3672 57.1609C78.3118 57.081 78.2681 56.9933 78.2373 56.9011L77.6543 55.155C77.5731 54.9117 77.4032 54.7073 77.1787 54.5828L76.4277 54.1658ZM66.5674 43.3113C66.254 45.309 66.0317 47.2799 65.8125 49.1628C65.7273 51.5643 65.8915 53.9673 66.2695 56.3152L66.3066 56.2908C66.4215 56.4481 66.5396 56.6037 66.6582 56.7595C66.3426 53.6219 66.4962 50.1716 67.2812 46.6375C66.9317 45.5519 66.6963 44.4397 66.5674 43.3113ZM71.8438 47.4021C71.3844 48.9204 71.0565 50.4068 70.8418 51.8552C71.5 52.6598 72.2475 53.4324 73.0908 54.1638C73.8392 54.8129 74.6643 55.4287 75.5654 56.0115C75.6414 55.2716 75.7391 54.5207 75.8584 53.7595C75.7905 53.6739 75.7352 53.5777 75.6973 53.4734L75.1885 52.075C75.1137 51.8696 74.9749 51.6933 74.793 51.572L73.6104 50.7839C73.4555 50.6808 73.3316 50.5379 73.252 50.3699L71.8438 47.4021ZM70.7656 38.8708C69.4369 41.4336 68.5128 44.0425 67.9287 46.6072C68.4615 48.204 69.2512 49.738 70.3145 51.1765C70.6988 48.8858 71.3618 46.5112 72.3701 44.0769L72.0615 42.3816C72.0549 42.3452 72.0543 42.3079 72.0596 42.2712L72.1289 41.783C71.5298 40.8479 71.0779 39.8731 70.7656 38.8708ZM106.557 40.0017C104.693 40.2338 102.676 40.3615 100.503 40.3728V50.8796C103.22 50.8759 105.723 50.7468 108.023 50.5125C107.714 47.0503 107.229 43.5262 106.557 40.0017ZM93.7988 39.9978C93.0992 43.5052 92.5827 47.0136 92.2363 50.4617C94.5665 50.7182 97.1101 50.8612 99.8779 50.8767V40.3728C97.695 40.3614 95.6693 40.2319 93.7988 39.9978ZM112.335 38.8279C110.777 39.2872 109.059 39.6565 107.178 39.9187C107.85 43.4486 108.335 46.9783 108.646 50.447C111.122 50.1692 113.356 49.7646 115.36 49.2507C114.656 45.8794 113.663 42.3839 112.335 38.8279ZM90.9102 40.1218C90.8028 40.2075 90.6792 40.2712 90.5469 40.3083L87.2578 41.2292C86.3476 43.9279 85.6267 46.5831 85.0762 49.1667C87.0295 49.6851 89.2053 50.0976 91.6162 50.3884C91.9634 46.9365 92.48 43.4255 93.1787 39.9158C92.606 39.8356 92.0485 39.7448 91.5059 39.6453L90.9102 40.1218ZM75.0898 46.5808C74.9566 46.7583 74.8838 46.9741 74.8838 47.196V49.2332C74.8838 49.9343 75.6456 50.3713 76.252 50.0183C76.376 49.9461 76.5096 49.9071 76.6426 49.8972C76.8973 48.8755 77.1929 47.8397 77.5332 46.7917C76.9126 46.4236 76.3342 46.0385 75.7969 45.6375L75.0898 46.5808ZM117.465 36.6951C116.157 37.4414 114.648 38.1 112.935 38.6453C114.263 42.2075 115.257 45.7105 115.965 49.0906C116.108 49.0514 116.25 49.0108 116.391 48.9705L117.624 46.3699C117.708 46.1937 117.739 45.997 117.715 45.8035L117.611 44.9695C117.581 44.7254 117.638 44.4779 117.775 44.2732L118.196 43.6414C118.277 43.5207 118.331 43.3849 118.355 43.2419L118.401 42.9666C118.467 42.5761 118.751 42.258 119.132 42.1492L119.396 42.073C119.672 41.994 119.903 41.8027 120.032 41.5457L120.103 41.4041C119.922 41.0118 119.735 40.6189 119.541 40.2244V40.2253L119.367 40.8328C119.3 41.0667 119.152 41.2691 118.949 41.4041L118.696 41.572L118.488 41.7107C118.272 41.8552 117.989 41.8552 117.771 41.7107C117.638 41.6216 117.475 41.586 117.316 41.6101L117.224 41.6238C116.961 41.6638 116.694 41.5839 116.496 41.406L116.229 41.1658C116.113 41.0609 116.022 40.9303 115.964 40.7849L115.297 39.1199C115.188 38.6851 115.412 38.236 115.824 38.0593L117.053 37.533C117.385 37.3907 117.552 37.0302 117.465 36.6951ZM85.9316 41.6042C85.3318 41.7727 85.0782 42.4831 85.4355 42.9929C85.7485 43.4398 85.5973 44.06 85.1133 44.3123L82.1475 45.8572C81.8555 46.0092 81.5084 46.0121 81.2139 45.865L78.9268 44.7224C78.6986 45.3203 78.484 45.9141 78.2852 46.5046C80.0127 47.4755 82.0669 48.3194 84.4736 49.0007C85.0003 46.5353 85.6794 44.0056 86.5293 41.4363L85.9316 41.6042ZM77.917 44.2185C77.4733 43.9969 76.9345 44.124 76.6367 44.5203L76.1719 45.1384C76.6563 45.4999 77.1767 45.8481 77.7334 46.1833C77.9295 45.606 78.1415 45.0261 78.3652 44.4421L77.917 44.2185ZM70.2891 34.033C70.0866 34.3552 69.8907 34.6799 69.7031 35.0076C69.2574 35.786 68.8521 36.5793 68.4873 37.3855C68.3413 37.7081 68.2017 38.0327 68.0684 38.3591C67.6859 39.2952 67.3554 40.2465 67.0732 41.2087C67.071 42.6309 67.2371 44.0356 67.5791 45.4031C68.2291 42.9312 69.1942 40.4322 70.5273 37.9832C70.2344 36.6948 70.1587 35.3693 70.2891 34.033ZM130.912 37.7839C130.7 37.6326 130.405 37.7843 130.405 38.0447C130.405 38.1293 130.439 38.2104 130.499 38.2703L131.538 39.3083L132.672 40.6287L132.876 40.9343C132.697 40.2906 132.497 39.6518 132.273 39.0193L131.792 38.4431C131.749 38.3917 131.7 38.3453 131.646 38.3064L130.912 37.7839ZM121.254 35.3708C120.893 35.1548 120.424 35.2911 120.236 35.6667C120.217 35.7051 120.194 35.7418 120.169 35.7761L119.679 36.4294C119.654 36.4626 119.626 36.4939 119.597 36.5232C119.388 36.7312 119.298 37.0296 119.355 37.3181L119.383 37.4548C119.427 37.6783 119.396 37.9102 119.295 38.114L119.287 38.1287C119.267 38.1697 119.249 38.2118 119.234 38.2546C119.711 39.1424 120.15 40.027 120.559 40.905L123.038 38.8669C123.189 38.7425 123.418 38.8498 123.418 39.0457C123.418 39.0938 123.433 39.1412 123.461 39.1804L123.922 39.8308C123.963 39.8896 124.011 39.9441 124.064 39.9929L124.192 40.1111C124.419 40.3197 124.728 40.4154 125.033 40.3718L125.459 40.3103C124.662 38.854 123.729 37.3803 122.645 35.8943C122.597 35.8856 122.55 35.8753 122.504 35.8601L121.626 35.5681C121.562 35.5468 121.5 35.5187 121.442 35.4841L121.254 35.3708ZM124.64 31.8718C124.704 32.0442 124.831 32.1859 124.996 32.2683C125.291 32.4154 125.45 32.7417 125.386 33.0642L125.307 33.4607L125.236 33.6707C125.16 33.9007 125.167 34.1506 125.258 34.3757L125.387 34.699C125.458 34.8752 125.58 35.0263 125.738 35.1316L125.906 35.2439C126.006 35.3101 126.076 35.413 126.099 35.53C126.166 35.8688 125.842 36.1549 125.514 36.0457L125.278 35.9666C125.174 35.9316 125.08 35.8678 125.009 35.783L124.311 34.946C124.22 34.8375 124.108 34.7485 123.981 34.6853L123.503 34.447C123.446 34.4187 123.387 34.3951 123.326 34.3777L122.096 34.0271L121.975 33.9861C122.216 34.2889 122.45 34.5913 122.679 34.8933L123.577 35.1501C123.597 35.1557 123.615 35.1643 123.632 35.1755L123.973 35.4021C124.033 35.4422 124.004 35.5359 123.932 35.5359C123.874 35.5361 123.839 35.6008 123.871 35.6492L124.106 36.0017C124.149 36.0655 124.162 36.1441 124.144 36.2185C124.1 36.3937 123.915 36.4642 123.771 36.4031C124.674 37.7063 125.466 39 126.154 40.282C126.695 40.285 127.138 39.8208 127.088 39.2644C127.042 38.7632 127.403 38.3163 127.902 38.2537L127.979 38.2439C128.315 38.2019 128.608 37.9949 128.76 37.6921L128.801 37.6091C128.809 37.5925 128.815 37.5744 128.822 37.5574C128.276 36.5702 127.667 35.5926 126.991 34.6287C126.894 34.6342 126.796 34.6215 126.701 34.5837L126.377 34.4548C126.293 34.4214 126.214 34.377 126.142 34.323L126.021 34.2322C125.702 33.9937 125.559 33.5875 125.655 33.2019C125.675 33.1235 125.684 33.0424 125.684 32.9617V32.8855C125.305 32.4134 124.907 31.9468 124.493 31.4841L124.64 31.8718ZM72.4297 36.0164C71.9852 36.6975 71.5742 37.3857 71.1914 38.0769C71.3385 38.6651 71.535 39.2446 71.7822 39.8132L72.418 36.5388C72.4256 36.4993 72.4297 36.4589 72.4297 36.4187V36.0164ZM95.8652 31.5095C95.6355 32.3024 95.4157 33.0978 95.2061 33.8953L95.6377 34.8191C95.9544 35.4975 95.378 36.2447 94.6475 36.1238C94.3882 37.2088 94.1465 38.2959 93.9229 39.3835C95.7517 39.6104 97.7356 39.7365 99.8779 39.7478V31.6941C98.4543 31.686 97.1172 31.6228 95.8652 31.5095ZM104.554 31.5066C103.291 31.6221 101.941 31.6859 100.503 31.6941V39.7478C102.638 39.7366 104.615 39.6118 106.438 39.3865C105.919 36.7493 105.293 34.1138 104.554 31.5066ZM108.813 30.8621C107.7 31.1062 106.491 31.3019 105.185 31.4421C105.919 34.0442 106.542 36.6738 107.06 39.3054C108.908 39.0493 110.592 38.6882 112.114 38.2419C111.179 35.8012 110.084 33.3345 108.813 30.8621ZM93.1494 36.1013C92.8264 36.1014 92.522 36.2534 92.3281 36.5115L91.9229 37.0515C91.6821 37.3725 91.7142 37.8215 91.998 38.1052C92.2761 38.3829 92.3057 38.8071 92.1025 39.1169C92.4946 39.1836 92.8946 39.2457 93.3027 39.3025C93.5218 38.2344 93.7584 37.1668 94.0117 36.1013H93.1494ZM112.755 29.6443C111.774 30.0554 110.672 30.4189 109.442 30.7185C110.699 33.1777 111.785 35.6311 112.714 38.0593C114.386 37.5293 115.853 36.8915 117.119 36.1726L116.497 35.4265C116.453 35.3743 116.397 35.3336 116.334 35.3083L115.928 35.1462C115.757 35.0776 115.747 34.84 115.912 34.7576C116.059 34.6843 116.072 34.4794 115.936 34.3884L115.91 34.3718C115.788 34.2909 115.772 34.1195 115.875 34.0164L115.927 33.9636C114.969 32.529 113.914 31.0877 112.755 29.6443ZM76.4727 27.0828C74.3308 28.8229 72.5533 30.7528 71.1016 32.8132C70.8138 34.2726 70.7705 35.7287 70.999 37.1453C71.4392 36.389 71.9157 35.6388 72.4297 34.8962V34.6052C72.4297 34.3541 72.5214 34.1113 72.6885 33.9236L73.9404 32.5173L75.8281 29.6882L76.376 28.5945C76.4145 28.5179 76.4763 28.4625 76.5479 28.4333C76.488 27.9855 76.4619 27.5346 76.4727 27.0828ZM71.4463 29.5974C70.9299 30.3417 70.4668 31.1064 70.0498 31.8865C69.1515 33.5669 68.4656 35.3213 67.9287 37.1052C68.2988 36.2892 68.7095 35.4858 69.1611 34.697C69.5769 33.9709 70.0286 33.2583 70.5156 32.5603C70.5297 32.4921 70.5435 32.4234 70.5586 32.3552C70.7634 31.4317 71.0617 30.5098 71.4463 29.5974ZM128.653 34.4236C128.424 33.9942 127.835 33.9437 127.532 34.3132C128.07 35.0828 128.566 35.861 129.022 36.6462C129.066 36.5973 129.118 36.5563 129.179 36.5261C129.437 36.3971 129.537 36.0806 129.401 35.8259L128.653 34.4236ZM120.99 34.0046C120.973 34.0456 120.963 34.0904 120.963 34.1384C120.963 34.2957 121.067 34.4341 121.219 34.4773L121.67 34.6052C121.484 34.3681 121.292 34.1319 121.098 33.8943C121.063 33.9316 121.026 33.9676 120.99 34.0046ZM87.7344 29.6912C87.4744 30.0126 87.2205 30.3348 86.9707 30.656V33.1814C86.9707 33.478 87.1029 33.7591 87.3311 33.949C87.7573 34.3036 88.3905 34.2439 88.7432 33.8162L90.5137 31.6697C90.6649 31.4862 90.7479 31.256 90.748 31.0183V30.6697C89.6399 30.391 88.6361 30.0622 87.7344 29.6912ZM130.531 32.7146C130.458 32.7588 130.405 32.8389 130.405 32.9363V32.9685C130.405 33.0422 130.435 33.1126 130.487 33.1648L130.908 33.5857C130.788 33.2936 130.662 33.0032 130.531 32.7146ZM115.301 28.2927C114.998 28.4979 114.675 28.698 114.332 28.8884C114.021 29.0612 113.691 29.2235 113.346 29.3835C114.399 30.7025 115.367 32.02 116.255 33.3328L116.357 33.0789C116.406 32.9577 116.431 32.8275 116.431 32.697V31.8074C116.431 31.6555 116.476 31.507 116.561 31.3806C116.714 31.1507 116.732 30.8563 116.607 30.6091L116.371 30.1345C116.29 29.971 116.139 29.8518 115.962 29.8074L115.628 29.7234C115.545 29.7026 115.486 29.6282 115.486 29.5427V29.2644C115.486 29.136 115.659 29.0956 115.717 29.2107C115.745 29.2674 115.813 29.2927 115.871 29.2693L115.979 29.2263C116.118 29.1712 116.275 29.2512 116.311 29.3962L116.354 29.571C116.399 29.7507 116.561 29.8766 116.746 29.8767H116.899C116.964 29.8767 117.028 29.8667 117.089 29.8464L117.332 29.7644C117.123 29.557 116.909 29.3499 116.693 29.1423C116.684 29.1403 116.675 29.1404 116.666 29.1375C116.635 29.1272 116.606 29.1117 116.581 29.0916L115.87 28.5232C115.742 28.4208 115.59 28.3513 115.43 28.3191L115.301 28.2927ZM93.542 31.2937C93.5675 31.3547 93.599 31.4135 93.6357 31.4685L94.7578 33.1511C94.9112 32.5816 95.0698 32.0132 95.2334 31.446C94.6398 31.3829 94.0663 31.3097 93.5127 31.2244L93.542 31.2937ZM73.9795 25.2673C73.9275 25.2841 73.8728 25.2875 73.8193 25.2761C71.9614 27.3484 70.4477 29.5963 69.3281 31.9226C69.3849 31.8126 69.4405 31.7019 69.499 31.5925C70.4168 29.8757 71.5516 28.2376 72.9648 26.7224C73.2784 26.2311 73.617 25.7456 73.9795 25.2673ZM124.43 28.8123C124.24 28.6229 123.919 28.7944 123.972 29.0574C123.98 29.0999 123.999 29.1397 124.026 29.1736L124.331 29.5554C124.449 29.7018 124.301 29.9099 124.124 29.8474C124.029 29.8141 123.941 29.8601 123.899 29.9333C124.511 30.5599 125.089 31.1973 125.634 31.8435C125.63 31.8326 125.626 31.821 125.621 31.8103L125.524 31.5916C125.406 31.325 125.538 31.0141 125.812 30.9128C125.968 30.8549 126.086 30.7232 126.127 30.5613L126.251 30.0652C126.359 29.7406 126.212 29.3862 125.905 29.2332L125.846 29.2029C125.739 29.1498 125.622 29.1218 125.503 29.1218H124.889C124.793 29.1218 124.702 29.0845 124.635 29.0173L124.43 28.8123ZM77.1035 23.9822C75.7117 24.943 74.5063 25.9904 73.46 27.1062C72.6086 28.4484 71.953 29.8304 71.5117 31.2185C72.9217 29.4314 74.5886 27.7582 76.5352 26.2361C76.6269 25.4773 76.8165 24.7226 77.1035 23.9822ZM98.0908 24.7791C97.3379 26.7909 96.6563 28.8349 96.0439 30.8982C97.2399 31.0028 98.5172 31.0613 99.8779 31.0691V30.9753C99.7631 30.9471 99.6522 30.9019 99.5527 30.8357L98.5693 30.1814C98.2837 29.9912 98.1124 29.6707 98.1123 29.3279V28.6335C98.1123 28.4594 98.1566 28.2878 98.2412 28.1355L99 26.7712C99.037 26.7046 99.0566 26.6297 99.0566 26.5535C99.0566 26.3053 98.855 26.1042 98.6064 26.1042H98.584C98.3235 26.1041 98.1125 25.8928 98.1123 25.6326V24.9744C98.1123 24.908 98.1033 24.8429 98.0908 24.7791ZM102.086 28.6257C101.842 28.8203 101.7 29.115 101.7 29.4265V29.9832C101.7 30.5493 101.241 31.0084 100.674 31.0085H100.503V31.0691C101.879 31.0611 103.17 31.0011 104.377 30.8943C104.057 29.7935 103.716 28.6981 103.354 27.6101L102.086 28.6257ZM96.2119 28.1091L95.7109 28.5378C95.5802 28.6498 95.3817 28.6285 95.2783 28.491C95.1278 28.2904 94.8119 28.3543 94.751 28.5974L94.6553 28.9802C94.5458 29.4177 93.95 29.4831 93.748 29.0798L93.624 28.8298C93.5958 28.7735 93.5583 28.7221 93.5137 28.6775L93.2129 28.3777C93.1666 28.3314 93.1264 28.2813 93.0908 28.2292C92.8911 28.5806 92.6944 28.9316 92.502 29.283C92.6758 29.3934 92.8167 29.5554 92.8994 29.7537L93.2295 30.5457C93.9226 30.6607 94.6499 30.7588 95.4121 30.8376C95.6899 29.8974 95.9817 28.9611 96.2881 28.03C96.2635 28.0568 96.2401 28.085 96.2119 28.1091ZM104.614 23.6794C104.453 23.7183 104.289 23.7563 104.12 23.7908C104.149 23.8485 104.175 23.9082 104.192 23.9705L104.4 24.697C104.479 24.9714 104.366 25.2644 104.124 25.4158L103.754 25.6472C103.455 25.8344 103.5 26.2832 103.831 26.407C104.14 26.5233 104.205 26.9311 103.947 27.1375L103.873 27.196C104.277 28.4001 104.655 29.613 105.009 30.8328C106.274 30.7006 107.443 30.517 108.518 30.2878C107.361 28.0828 106.063 25.8755 104.614 23.6794ZM106.644 22.9851C106.226 23.1806 105.76 23.3562 105.248 23.5085C106.695 25.7149 107.992 27.9322 109.147 30.1472C110.336 29.8647 111.401 29.5241 112.346 29.1394C110.663 27.0864 108.769 25.0309 106.644 22.9851ZM92.4521 24.4382C92.2487 24.6435 92.0476 24.849 91.8486 25.0544L92.001 25.2585C92.3457 25.7179 92.2331 26.3717 91.7549 26.6902C91.5905 26.7996 91.3978 26.8581 91.2002 26.8582H90.1602C89.458 27.6347 88.7863 28.4108 88.1455 29.1873C88.9325 29.5015 89.8023 29.7816 90.7549 30.0271C90.8146 29.5176 91.2482 29.1218 91.7744 29.1218H91.8799C92.4364 28.1005 93.0236 27.0794 93.6416 26.0593C93.6342 25.7238 93.4659 25.394 93.1455 25.2019L92.7988 24.9939C92.5995 24.8743 92.4725 24.6671 92.4521 24.4382ZM86.9707 29.6462C87.0269 29.5757 87.0829 29.5048 87.1396 29.4343C87.0826 29.4084 87.0268 29.3806 86.9707 29.3542V29.6462ZM117.352 26.45C117.075 26.7922 116.757 27.1241 116.397 27.4441C116.425 27.5645 116.474 27.679 116.543 27.782L116.767 28.1169C116.794 28.1582 116.817 28.2028 116.832 28.2498L116.91 28.4861C117.23 28.7904 117.544 29.0941 117.85 29.3982C117.914 29.329 117.97 29.2525 118.013 29.1677L118.075 29.0427C118.111 28.9714 118.165 28.9101 118.231 28.866C118.472 28.7058 118.506 28.3663 118.302 28.1619L117.974 27.8347C117.952 27.8132 117.932 27.7897 117.914 27.7654L117.52 27.24C117.448 27.1452 117.491 27.0091 117.604 26.9714C117.741 26.9257 117.766 26.7422 117.646 26.6619L117.418 26.5105C117.393 26.4937 117.371 26.4732 117.352 26.45ZM87.4883 28.072C87.2517 28.2071 87.0821 28.4285 87.0098 28.6833C87.1837 28.7684 87.362 28.8528 87.5459 28.9343C88.0211 28.3552 88.5129 27.7761 89.0215 27.197L87.4883 28.072ZM108.063 22.1062C107.817 22.3102 107.538 22.5025 107.229 22.6814C109.358 24.7421 111.256 26.8139 112.942 28.8835C113.243 28.7476 113.529 28.6059 113.803 28.4607C113.793 28.4507 113.782 28.4424 113.773 28.4314L112.991 27.4275C112.893 27.3019 112.826 27.1548 112.795 26.9988L112.496 25.5066C112.491 25.4794 112.481 25.4531 112.474 25.4265C111.106 24.3186 109.638 23.2117 108.063 22.1062ZM81.4219 23.7771C81.151 23.9253 80.884 24.0754 80.6211 24.2283C79.3675 24.9571 78.2044 25.7381 77.1279 26.5652C77.1187 26.6683 77.1127 26.7718 77.1074 26.8748C77.0779 27.4502 77.11 28.0271 77.2051 28.6003C77.2719 28.5894 77.3362 28.5591 77.3877 28.5076L78.0947 27.8015L80.5498 24.7839L81.5117 23.823C81.561 23.7738 81.6016 23.7176 81.6396 23.6599C81.5669 23.6991 81.494 23.7376 81.4219 23.7771ZM95.8682 23.7117C95.6182 24.0886 95.3729 24.4659 95.1318 24.8435L95.4697 25.3494L96.4062 26.9539C96.4742 27.0702 96.5107 27.1968 96.5234 27.324C96.8856 26.2523 97.2668 25.1878 97.668 24.1326C97.6551 24.1237 97.6432 24.1135 97.6299 24.1052L97.4414 23.9871C96.8809 23.9159 96.3563 23.8241 95.8682 23.7117ZM113.802 23.9656C113.692 23.8985 113.548 23.9395 113.49 24.0544C113.443 24.1491 113.471 24.2644 113.556 24.3279L113.998 24.6589C114.107 24.741 114.196 24.8473 114.258 24.9695L114.708 25.8708C114.842 26.1386 115.087 26.3344 115.378 26.407L115.675 26.4812C115.868 26.5457 116.034 26.6662 116.156 26.821C116.463 26.5327 116.732 26.2364 116.964 25.9343L116.819 25.7419C116.812 25.732 116.807 25.7207 116.804 25.7087L116.754 25.5105C116.734 25.4324 116.619 25.4466 116.619 25.5271C116.619 25.5344 116.618 25.5417 116.616 25.5486L116.596 25.6082C116.508 25.8698 116.209 25.9933 115.962 25.8699L115.729 25.7546C115.693 25.7365 115.658 25.7146 115.626 25.6902L115.062 25.2683C114.968 25.1976 114.886 25.1108 114.821 25.0125L114.436 24.4285C114.381 24.3459 114.309 24.276 114.225 24.2244L113.802 23.9656ZM81.8789 21.3767C80.4835 21.9714 79.2187 22.6319 78.0703 23.3474C77.683 24.116 77.4113 24.9011 77.2549 25.6892C78.5988 24.6986 80.0685 23.7783 81.6699 22.9373C81.6676 22.7914 81.6716 22.6452 81.6816 22.4988C81.7076 22.1226 81.7726 21.7472 81.8789 21.3767ZM92.4238 22.2195C91.3722 22.9557 90.3676 23.6937 89.4072 24.4314C89.5716 24.5359 89.7611 24.5945 89.957 24.5945H90.9893C91.1164 24.5945 91.2407 24.6195 91.3564 24.6638C91.97 24.0294 92.6052 23.3961 93.2617 22.7634C92.9527 22.5945 92.6729 22.4128 92.4238 22.2195ZM78.4736 21.4968C77.3747 22.4118 76.3802 23.3824 75.499 24.3914C76.1521 23.8753 76.8493 23.3803 77.5947 22.9089C77.8464 22.4296 78.1393 21.9578 78.4736 21.4968ZM93.8574 23.0564C93.6506 23.2546 93.4467 23.4537 93.2441 23.6521H93.7871C94.1303 23.6522 94.4512 23.8229 94.6416 24.1082L94.7539 24.2761C94.9105 24.0327 95.0692 23.7897 95.2295 23.5466C94.7278 23.4041 94.2706 23.2394 93.8574 23.0564ZM109.074 20.8875C108.936 21.1581 108.753 21.4191 108.525 21.6677C109.649 22.4596 110.72 23.2525 111.739 24.0466L111.62 23.8318C111.554 23.713 111.513 23.582 111.498 23.447L111.438 22.905C111.403 22.5946 111.511 22.2997 111.712 22.0876C110.882 21.685 110.023 21.2959 109.134 20.9216C109.112 20.9125 109.093 20.9005 109.074 20.8875ZM91.3574 21.0291C91.3275 21.0626 91.2912 21.0915 91.2471 21.1101C90.3664 21.4808 89.5143 21.8657 88.6904 22.2644C88.6761 22.3055 88.6623 22.347 88.6426 22.3865L88.4873 22.697C88.2654 23.1403 88.3923 23.6789 88.7891 23.9763L88.8828 24.0457C89.8564 23.2942 90.8759 22.544 91.9424 21.7947C91.703 21.5515 91.5072 21.2954 91.3574 21.0291ZM100.191 15.8533C97.2708 15.8701 95.1074 16.3918 93.6855 17.1423C92.9519 17.5296 92.4289 17.9683 92.0938 18.4216C92.0786 18.5108 92.0267 18.5886 91.9502 18.6355C91.7311 18.9967 91.6271 19.3634 91.626 19.7166C91.6234 20.5852 92.2449 21.5308 93.6709 22.2761C94.4887 22.7035 95.5541 23.0529 96.8711 23.2732C96.8607 23.1275 96.8928 22.9771 96.9736 22.8425C97.0954 22.6397 97.1128 22.3909 97.0195 22.1736L96.9961 22.1189C96.7893 21.6366 97.0637 21.0842 97.5732 20.9568L97.7266 20.9187C97.9737 20.857 98.2358 20.8921 98.457 21.0183L99.2617 21.4783C99.3743 21.5426 99.5021 21.5768 99.6318 21.5769H100.001C100.209 21.5767 100.378 21.4072 100.378 21.199C100.378 20.9908 100.547 20.8221 100.756 20.822H102.135C102.625 20.822 103.022 21.2192 103.022 21.7087C103.023 21.8693 103.066 22.0271 103.148 22.1648L103.782 23.2195C104.027 23.1732 104.263 23.1224 104.49 23.0671C104.508 23.0477 104.527 23.0295 104.55 23.0144C104.634 22.9582 104.736 22.9493 104.825 22.9802C105.379 22.8288 105.872 22.6503 106.308 22.4519C106.32 22.3983 106.345 22.347 106.386 22.3044C106.48 22.2054 106.623 22.1837 106.741 22.238C108.142 21.4857 108.756 20.5376 108.754 19.6658C108.751 18.7867 108.122 17.8326 106.695 17.0857C106.131 16.7904 105.45 16.5332 104.651 16.3308L103.863 16.4441C103.747 16.4607 103.661 16.3407 103.713 16.2361C103.73 16.2019 103.731 16.1646 103.721 16.1306C102.701 15.9474 101.525 15.8456 100.191 15.8533ZM109.37 19.8562C109.359 20.0139 109.332 20.1699 109.292 20.324C109.32 20.3273 109.349 20.3339 109.376 20.3455C110.44 20.7935 111.463 21.2633 112.444 21.7517L113.198 21.615C113.333 21.5905 113.473 21.6191 113.587 21.6951L113.709 21.7771C113.861 21.8781 113.914 22.0761 113.833 22.239C113.798 22.3089 113.789 22.3832 113.8 22.4529C114.007 22.5643 114.213 22.6766 114.417 22.7898L114.746 22.823C114.994 22.8478 115.136 22.548 114.96 22.3718C114.933 22.3451 114.913 22.3124 114.899 22.2771L114.636 21.5759C113.003 20.926 111.25 20.3497 109.37 19.8562ZM83.0879 19.0857C82.1139 19.4359 81.1892 19.8479 80.3105 20.3132C79.6918 20.9307 79.1622 21.5742 78.7217 22.2351C79.7812 21.6369 80.9293 21.0838 82.1738 20.5798C82.403 20.0691 82.7081 19.5688 83.0879 19.0857ZM83.333 20.8005C83.1014 20.8863 82.8726 20.9722 82.6475 21.0613C82.5524 21.3008 82.4777 21.5416 82.4209 21.782L82.957 21.2468C82.9886 21.2153 83.0255 21.1896 83.0654 21.1697L83.124 21.1404C83.2634 21.0708 83.3327 20.9356 83.333 20.8005ZM91.0234 20.0408C90.1049 20.2816 89.2154 20.5418 88.3545 20.821L88.6621 21.5115C88.6712 21.5318 88.6779 21.5532 88.6855 21.574C89.4358 21.2161 90.209 20.869 91.0049 20.5339C91.0454 20.5169 91.0876 20.5091 91.1289 20.5095C91.0789 20.3554 91.0437 20.1991 91.0234 20.0408ZM109.138 18.5857C109.228 18.7856 109.293 18.9899 109.332 19.198L109.333 19.199C111.006 19.6311 112.582 20.1295 114.065 20.6853C114.041 20.6711 114.016 20.6584 113.99 20.6462C113.604 20.4627 113.143 20.2566 113.031 20.2566C112.925 20.2566 112.503 19.6958 112.129 19.1667C111.177 18.9497 110.18 18.7559 109.138 18.5857ZM91.1797 18.7849C90.313 18.9274 89.4772 19.0845 88.6719 19.2595L88.3232 19.8728C88.263 19.978 88.2267 20.0934 88.2139 20.2107C89.1203 19.9178 90.057 19.6439 91.0254 19.3933C91.0526 19.1873 91.1024 18.9837 91.1797 18.7849ZM84.2715 18.697C83.9415 19.0243 83.6554 19.3617 83.4082 19.7029L83.7305 19.5837C83.8719 19.5307 83.9905 19.4296 84.0654 19.2986L84.3701 18.7664C84.3943 18.7242 84.4209 18.6839 84.4502 18.6462C84.3906 18.6634 84.3308 18.6794 84.2715 18.697ZM84.6504 17.5242C83.9763 17.8542 83.3212 18.2021 82.6875 18.5681C83.0976 18.4164 83.5163 18.2762 83.9434 18.1462C84.1638 17.9344 84.3994 17.7266 84.6504 17.5242ZM91.8691 17.7205C90.4736 17.6953 89.1463 17.7709 87.8838 17.9363C87.8867 17.938 87.8897 17.9394 87.8926 17.9412L88.1123 18.073C88.2256 18.1409 88.3649 18.1504 88.4863 18.0984C88.8008 17.9641 89.106 18.2423 89.0547 18.5417C89.8626 18.3754 90.6991 18.224 91.5654 18.0896C91.6562 17.9638 91.7574 17.8407 91.8691 17.7205ZM86.7188 18.116C86.4088 18.172 86.1035 18.2354 85.8018 18.3025L85.9814 18.323C86.2452 18.3523 86.5087 18.277 86.7188 18.116ZM108.392 17.5359C108.504 17.6481 108.607 17.7639 108.701 17.8816C109.462 17.998 110.199 18.1283 110.913 18.2693L109.948 17.9187C109.745 17.8449 109.571 17.7086 109.45 17.53C109.102 17.525 108.749 17.5279 108.392 17.5359ZM89.2725 16.3708C88.6299 16.3834 87.979 16.4422 87.3184 16.5515C87.2229 16.6007 87.1279 16.6488 87.0352 16.699C86.4169 17.0336 85.8609 17.3915 85.3643 17.7634C87.5468 17.2482 89.9372 17.0092 92.5527 17.114C92.7001 17.0053 92.8576 16.9006 93.0244 16.7996C92.3785 16.6426 91.7245 16.5254 91.0615 16.4529C90.8119 16.528 90.5453 16.614 90.3691 16.6726L88.8633 17.1736C88.7521 17.2106 88.6305 17.1601 88.5781 17.0554C88.5233 16.9455 88.5626 16.812 88.668 16.7488L89.1553 16.4568C89.1971 16.4317 89.2359 16.4023 89.2725 16.3708ZM108.75 16.8611C108.709 16.8611 108.667 16.8657 108.627 16.8757L108.491 16.9089C108.701 16.9051 108.909 16.9045 109.116 16.905C109.072 16.8776 109.02 16.8611 108.964 16.8611H108.75ZM93.4912 15.6785C93.4243 15.7119 93.3539 15.7385 93.2812 15.7566L92.7451 15.8904C92.6724 15.9085 92.6016 15.9349 92.5342 15.9675C92.4953 15.9863 92.4523 16.0046 92.4082 16.0251C92.8933 16.1193 93.3734 16.2345 93.8486 16.3699C94.0939 16.2591 94.3543 16.1535 94.6309 16.0564C94.295 15.9055 93.9461 15.7585 93.5986 15.6238L93.4912 15.6785ZM94.7666 15.1628C94.6224 15.1628 94.48 15.1942 94.3486 15.2527C94.754 15.422 95.1516 15.6028 95.5195 15.7839C95.7643 15.7189 96.0188 15.6588 96.2832 15.6042C96.1448 15.4367 96.0223 15.2906 95.9072 15.1628H94.7666ZM89.6465 15.5525C89.4676 15.6158 89.2926 15.6825 89.1201 15.7488C89.2834 15.744 89.4462 15.7421 89.6084 15.7429L89.6172 15.7185C89.6387 15.6541 89.6682 15.5937 89.7012 15.5359C89.6829 15.5414 89.6647 15.5469 89.6465 15.5525ZM96.7051 15.1296C96.7942 15.2364 96.888 15.3516 96.9883 15.4763C97.3343 15.4209 97.6949 15.3731 98.0703 15.3357C98.0167 15.2076 97.9657 15.0956 97.918 14.9949L96.7051 15.1296ZM98.5693 14.9167C98.6191 15.03 98.6697 15.1514 98.7227 15.282C99.0356 15.2607 99.3579 15.2456 99.6895 15.2371V14.7771L98.5693 14.9167ZM100.722 14.6482L100.314 14.699V15.2283C100.756 15.228 101.182 15.2401 101.592 15.2625C101.594 15.2536 101.597 15.2448 101.601 15.2361C101.631 15.1593 101.661 15.0854 101.69 15.0144L101.466 14.8455C101.253 14.686 100.986 14.6152 100.722 14.6482Z" fill="#74BCFC" fill-opacity="0.2"/>
<path d="M66.0477 54.8886L69.4073 40.8818C69.6286 39.9592 70.4544 39.3086 71.4043 39.3086H86.0031C87.29 39.3086 88.2598 40.4774 88.0209 41.7405L85.3718 55.7473C85.1886 56.7161 84.3412 57.4177 83.3541 57.4177H68.0446C66.7171 57.4177 65.7384 56.1782 66.0477 54.8886Z" fill="black" fill-opacity="0.08"/>
<path d="M73.7959 24.7768C61.6967 21.7081 55.871 27.6174 69.7844 42.1379M129.65 66.6607C136.071 75.7149 131.17 86.4449 91.8799 61.3786C89.0034 59.5438 86.3637 57.7587 83.9482 56.0284" stroke="#509EE3" stroke-linecap="round"/>
<path d="M99.8834 13.6572C53.8039 14.2231 53.6151 82.698 99.8834 82.698C146.152 82.698 145.963 13.0913 99.8834 13.6572Z" stroke="#509EE3"/>
<path d="M74.5584 24.9722C74.5584 25.5224 74.1118 25.9684 73.5609 25.9684C73.0101 25.9684 72.5635 25.5224 72.5635 24.9722C72.5635 24.4219 73.0101 23.9758 73.5609 23.9758C74.1118 23.9758 74.5584 24.4219 74.5584 24.9722Z" fill="white" stroke="#509EE3"/>
<path d="M61.2307 53.0651L64.1278 39.0583C64.3249 38.1055 65.1648 37.4221 66.1388 37.4221H84.1154C85.4023 37.4221 86.372 38.5909 86.1332 39.854L83.4841 53.8608C83.3009 54.8297 82.4534 55.5312 81.4663 55.5312H63.2417C61.9406 55.5312 60.9674 54.3379 61.2307 53.0651Z" fill="white" stroke="#509EE3" stroke-linecap="round"/>
<path d="M65.1405 51.1416L66.2731 46.071C66.3254 45.8366 66.5337 45.6699 66.7741 45.6699H69.4228C69.7499 45.6699 69.9936 45.9714 69.9246 46.2908L68.8293 51.3614C68.7783 51.5975 68.5693 51.766 68.3275 51.766H65.6415C65.3129 51.766 65.0689 51.4619 65.1405 51.1416Z" stroke="#EBF3FA" stroke-width="0.624591" stroke-linecap="round"/>
<path d="M70.5675 51.1539L71.9214 44.2904C71.9688 44.05 72.1798 43.8767 72.4251 43.8767H75.2086C75.5345 43.8767 75.7779 44.176 75.7111 44.4945L74.2731 51.3581C74.2234 51.5957 74.0137 51.7658 73.7707 51.7658H71.0711C70.7478 51.7658 70.5049 51.4708 70.5675 51.1539Z" stroke="#EBF3FA" stroke-width="0.624591" stroke-linecap="round"/>
<path d="M76.161 51.1501L78.3383 40.5213C78.3872 40.2826 78.5974 40.1113 78.8413 40.1113H81.689C82.0122 40.1113 82.255 40.406 82.1928 40.7228L80.1048 51.3517C80.0575 51.5922 79.8464 51.7657 79.601 51.7657H76.6639C76.339 51.7657 76.0959 51.4681 76.161 51.1501Z" stroke="#EBF3FA" stroke-width="0.624591" stroke-linecap="round"/>
<path d="M79.1417 39.637L78.6919 42.1974C78.6488 42.4427 78.4356 42.6216 78.1863 42.6216H74.9213L74.1432 43.3388L73.7542 42.6216H71.0584C70.7394 42.6216 70.4977 42.3341 70.5528 42.0202L71.0025 39.4598C71.0457 39.2146 71.2589 39.0356 71.5082 39.0356H78.636C78.955 39.0356 79.1968 39.3232 79.1417 39.637Z" fill="#509EE3"/>
<path d="M84.0007 55.154C84.0007 55.7043 83.5542 56.1503 83.0033 56.1503C82.4524 56.1503 82.0059 55.7043 82.0059 55.154C82.0059 54.6038 82.4524 54.1577 83.0033 54.1577C83.5542 54.1577 84.0007 54.6038 84.0007 55.154Z" fill="white" stroke="#509EE3"/>
<path d="M104.624 75.675C104.158 74.9695 104.698 74.0357 105.542 74.0859L107.564 74.2075C107.886 74.2264 108.181 74.3967 108.359 74.6659L109.475 76.354C109.941 77.059 109.401 77.9933 108.556 77.9426L106.535 77.8215C106.213 77.8021 105.918 77.6323 105.74 77.3626L104.624 75.675Z" fill="white" stroke="#509EE3"/>
<path d="M109.758 66.793C109.292 66.0879 109.832 65.1536 110.676 65.2044L112.697 65.3254C113.02 65.3449 113.315 65.5146 113.493 65.7843L114.609 67.4719C115.075 68.177 114.535 69.1113 113.69 69.061L111.669 68.9395C111.346 68.92 111.052 68.7503 110.874 68.4811L109.758 66.793Z" fill="white" stroke="#509EE3"/>
<path d="M97.8561 73.7949C96.8105 73.1913 96.4523 71.8543 97.0559 70.8087L102.504 61.3725C103.108 60.327 104.445 59.9687 105.49 60.5724L108.887 62.5333L101.487 75.3502C101.357 75.5742 101.071 75.651 100.847 75.5216L97.8561 73.7949Z" fill="white"/>
<path d="M104.243 71.6394L106.448 73.9767L104.982 76.5134L101.853 75.7745L104.243 71.6394Z" fill="white" stroke="#509EE3"/>
<path d="M109.377 62.7576L111.582 65.0953L110.116 67.6316L106.986 66.8926L109.377 62.7576Z" fill="white" stroke="#509EE3"/>
<path d="M96.6296 59.6803L92.615 59.7337C91.0585 59.7542 90.0901 61.4299 90.8504 62.7868L92.8116 66.286C92.9922 66.6085 93.2565 66.8757 93.5766 67.0603L101.783 71.7933C102.765 72.3594 104.021 72.0235 104.588 71.0426L106.642 67.4895C107.209 66.5085 106.872 65.2543 105.89 64.6877L97.6835 59.9552C97.3634 59.7706 96.9992 59.6757 96.6296 59.6803Z" fill="white" stroke="#509EE3"/>
<path d="M92.8906 66.6654L96.9975 59.5598" stroke="#509EE3"/>
<path d="M100.889 66.5397C101.209 65.9853 100.569 65.017 99.4592 64.3769C98.3492 63.7368 97.1896 63.6672 96.8692 64.2216C96.5488 64.776 97.1889 65.7443 98.2988 66.3844C99.4088 67.0245 100.568 67.094 100.889 66.5397Z" fill="white" stroke="#509EE3"/>
<path d="M98.9542 69.8861C99.1678 69.5165 98.5911 68.7845 97.6661 68.2511C96.7412 67.7176 95.8182 67.5848 95.6046 67.9544C95.3909 68.3239 95.9676 69.056 96.8926 69.5894C97.8175 70.1228 98.7406 70.2556 98.9542 69.8861Z" fill="white" stroke="#509EE3"/>
<path d="M102.823 63.1942C103.037 62.8246 102.46 62.0926 101.535 61.5592C100.61 61.0257 99.6873 60.8929 99.4737 61.2625C99.2601 61.632 99.8368 62.3641 100.762 62.8975C101.687 63.4309 102.61 63.5638 102.823 63.1942Z" fill="white" stroke="#509EE3"/>
<path d="M101.32 75.671L98.2077 73.8763C96.9799 73.1681 96.5593 71.6001 97.2681 70.374L97.5248 69.9299" stroke="#509EE3"/>
<path d="M109.02 62.3484L105.908 60.5537C104.68 59.8455 103.11 60.266 102.401 61.4921L102.145 61.9361" stroke="#509EE3"/>
</g>
</g>
<defs>
<clipPath id="clip0_2233_1796">
<rect width="200" height="100" fill="white"/>
</clipPath>
<clipPath id="clip1_2233_1796">
<rect width="74.951" height="83.0706" fill="white" transform="translate(60.415 8.06226)"/>
</clipPath>
</defs>
</svg>
