<?xml version="1.0" encoding="UTF-8"?>
<svg width="562px" height="511px" viewBox="0 0 562 511" version="1.1" xmlns="http://www.w3.org/2000/svg" xmlns:xlink="http://www.w3.org/1999/xlink">
    <title>zhenzhu3</title>
    <defs>
        <filter x="-14.2%" y="-40.6%" width="128.4%" height="181.2%" filterUnits="objectBoundingBox" id="filter-1">
            <feGaussianBlur stdDeviation="20.6871263" in="SourceGraphic"></feGaussianBlur>
        </filter>
        <linearGradient x1="0%" y1="50%" x2="100%" y2="50%" id="linearGradient-2">
            <stop stop-color="#3881FC" offset="0%"></stop>
            <stop stop-color="#0F376B" offset="100%"></stop>
        </linearGradient>
        <linearGradient x1="0%" y1="50%" x2="100%" y2="50%" id="linearGradient-3">
            <stop stop-color="#3881FC" offset="0%"></stop>
            <stop stop-color="#0F376B" offset="100%"></stop>
        </linearGradient>
        <polygon id="path-4" points="0 0 122 0 122 26.8571429 0 26.8571429"></polygon>
        <linearGradient x1="50%" y1="0%" x2="50%" y2="100%" id="linearGradient-6">
            <stop stop-color="#72FAF2" offset="0%"></stop>
            <stop stop-color="#3EF2E1" offset="100%"></stop>
        </linearGradient>
        <linearGradient x1="84.3739594%" y1="139.547076%" x2="29.2889676%" y2="83.4290393%" id="linearGradient-7">
            <stop stop-color="#FFFFFF" stop-opacity="0" offset="0%"></stop>
            <stop stop-color="#FFFFFF" offset="100%"></stop>
        </linearGradient>
        <path d="M1.25641026,55.2741775 L0,46.6001994 C2.31339031,46.1216351 4.60683761,45.6231306 6.88034188,45.1046859 L6.88034188,31.5852443 L1.37606838,31.5852443 L1.37606838,23.33001 L6.88034188,23.33001 L6.88034188,12.3828514 L0.658119658,12.3828514 L0.658119658,4.18743769 L21.4786325,4.18743769 L21.4786325,12.3828514 L14.8974359,12.3828514 L14.8974359,23.33001 L19.5641026,23.33001 L19.5641026,31.5852443 L14.8974359,31.5852443 L14.8974359,43.1306082 C16.8518519,42.6121635 18.7863248,42.0737787 20.7008547,41.5154536 C20.5811966,43.9880359 20.5612536,46.779661 20.6410256,49.890329 C13.7806268,51.6450648 7.31908832,53.439681 1.25641026,55.2741775 Z M59.8888889,15.7328016 C58.6524217,17.7268195 57.2364672,20.1994018 55.6410256,23.1505484 C48.1424501,19.1226321 42.3390313,14.0578265 38.2307692,7.95613161 C34.1225071,14.336989 28.4586895,19.780658 21.2393162,24.2871386 C20.0826211,21.7347956 18.7663818,19.2622134 17.2905983,16.8693918 C24.7094017,12.5623131 30.4529915,7.01894317 34.5213675,0.239282154 L43.3760684,0.239282154 L42.5384615,1.555334 C47.2849003,7.89631107 53.0683761,12.6221336 59.8888889,15.7328016 Z M52.4700855,35.2342971 L58.4529915,40.2592223 C49.6381766,49.1924227 37.6524217,55.772682 22.4957265,60 C20.8205128,57.1684945 19.3048433,54.7557328 17.9487179,52.7617149 C32.985755,49.0528415 44.4928775,43.2103689 52.4700855,35.2342971 Z M46.3675214,25.9022931 L52.2307692,30.7477567 C44.6125356,37.2083749 35.9373219,42.6520439 26.2051282,47.0787637 C25.1680912,45.004985 23.6125356,42.6919242 21.5384615,40.1395813 C31.3105413,36.4705882 39.5868946,31.7248255 46.3675214,25.9022931 Z M39.5470085,16.8693918 L44.9316239,21.8344965 C39.3475783,26.779661 33.025641,31.0468594 25.965812,34.6360917 C25.048433,33.1206381 23.5925926,30.9870389 21.5982906,28.2352941 C28.2193732,25.2841476 34.2022792,21.4955135 39.5470085,16.8693918 Z" id="path-8"></path>
        <filter x="-8.3%" y="-8.4%" width="125.0%" height="133.5%" filterUnits="objectBoundingBox" id="filter-9">
            <feOffset dx="5" dy="10" in="SourceAlpha" result="shadowOffsetOuter1"></feOffset>
            <feColorMatrix values="0 0 0 0 0   0 0 0 0 0   0 0 0 0 0  0 0 0 0.3 0" type="matrix" in="shadowOffsetOuter1"></feColorMatrix>
        </filter>
        <linearGradient x1="84.3739594%" y1="136.511926%" x2="29.2889676%" y2="82.29598%" id="linearGradient-10">
            <stop stop-color="#FFFFFF" stop-opacity="0" offset="0%"></stop>
            <stop stop-color="#FFFFFF" offset="100%"></stop>
        </linearGradient>
        <path d="M105.358974,58.6839482 L97.5213675,58.6839482 L97.5213675,40.0199402 C94.1908832,45.9820538 90.0826211,51.226321 85.1965812,55.7527418 C84.1794872,53.9780658 83.0826211,52.1635095 81.9059829,50.3090728 C75.7435897,52.003988 69.3817664,53.8983051 62.8205128,55.9920239 L61.1452991,47.4975075 L68.1452991,45.8524427 L68.1452991,31.5254237 L62.3418803,31.5254237 L62.3418803,23.2701894 L68.1452991,23.2701894 L68.1452991,11.8444666 L61.8034188,11.8444666 L61.8034188,3.64905284 L82.3247863,3.64905284 L82.3247863,11.8444666 L75.9230769,11.8444666 L75.9230769,23.2701894 L81.4871795,23.2701894 L81.4871795,31.5254237 L75.9230769,31.5254237 L75.9230769,43.8783649 C78.0569801,43.3200399 80.1310541,42.7517448 82.1452991,42.1734796 C82.045584,43.7487537 81.9957265,45.2542373 81.9957265,46.6899302 C86.9415954,42.8414756 91.1894587,38.105683 94.7393162,32.4825523 L83.1623932,32.4825523 L83.1623932,25.1844467 L97.5213675,25.1844467 L97.5213675,17.2881356 L91.5683761,17.2881356 C91.0099715,19.5214357 90.4216524,21.7347956 89.8034188,23.9282154 L82.5042735,21.9541376 C84.7777778,15.6530409 86.3732194,9.47158524 87.2905983,3.40977069 L94.3504274,4.3668993 C93.991453,6.26121635 93.6125356,8.13559322 93.2136752,9.99002991 L97.5213675,9.99002991 L97.5213675,0.179461615 L105.358974,0.179461615 L105.358974,9.99002991 L118.401709,9.99002991 L118.401709,17.2881356 L105.358974,17.2881356 L105.358974,25.1844467 L119.837607,25.1844467 L119.837607,32.4825523 L107.931624,32.4825523 C110.863248,38.2851446 115.150997,43.0309073 120.794872,46.7198405 C119.119658,50.109671 117.803419,52.8813559 116.846154,55.0348953 C111.880342,50.7876371 108.051282,45.7128614 105.358974,39.8105683 L105.358974,58.6839482 Z" id="path-11"></path>
        <filter x="-8.4%" y="-8.5%" width="125.1%" height="134.2%" filterUnits="objectBoundingBox" id="filter-12">
            <feOffset dx="5" dy="10" in="SourceAlpha" result="shadowOffsetOuter1"></feOffset>
            <feColorMatrix values="0 0 0 0 0   0 0 0 0 0   0 0 0 0 0  0 0 0 0.3 0" type="matrix" in="shadowOffsetOuter1"></feColorMatrix>
        </filter>
        <linearGradient x1="121.803882%" y1="147.314142%" x2="22.3895582%" y2="75.6413985%" id="linearGradient-13">
            <stop stop-color="#FFFFFF" stop-opacity="0" offset="0%"></stop>
            <stop stop-color="#FFFFFF" offset="100%"></stop>
        </linearGradient>
        <path d="M154.777778,36.1914257 L165.547009,36.1914257 L165.547009,30.8075773 L155.017094,30.8075773 L155.017094,24.4067797 C156.034188,21.5353938 157.160969,17.8065803 158.397436,13.220339 L154.598291,13.220339 L154.598291,6.28115653 L160.192308,6.28115653 L161.717949,0 L168.777778,1.01694915 C168.299145,2.8115653 167.810541,4.5663011 167.311966,6.28115653 L180.623932,6.28115653 L180.623932,13.220339 L165.367521,13.220339 L162.196581,23.8683948 L165.547009,23.8683948 L165.547009,15.9720837 L172.487179,15.9720837 L172.487179,23.8683948 L180.08547,23.8683948 L180.08547,30.8075773 L172.487179,30.8075773 L172.487179,36.1914257 L181.222222,36.1914257 L181.222222,43.1306082 L172.487179,43.1306082 L172.487179,49.5912263 L165.547009,49.5912263 L165.547009,43.1306082 L154.777778,43.1306082 L154.777778,36.1914257 Z M182,50.4287139 C181.042735,53.4995015 180.344729,55.9720837 179.905983,57.8464606 L163.393162,57.8763709 C159.245014,57.8364905 156.094017,57.2681954 153.940171,56.1714855 C151.786325,55.0747757 150.230769,53.6590229 149.273504,51.9242273 C147.678063,54.1974078 146.082621,56.6301097 144.487179,59.222333 L140.448718,52.1635095 C135.861823,55.1744766 132.780627,57.5473579 131.205128,59.2821535 L127.136752,53.3599202 C128.213675,52.0837488 128.752137,50.2492522 128.752137,47.8564307 L128.752137,38.0458624 L122.589744,38.0458624 L122.589744,31.2861416 L128.752137,31.2861416 L128.752137,25.2442672 L126.867521,25.2442672 C126.109687,26.560319 125.321937,27.8165503 124.504274,29.0129611 C123.826211,25.5832502 123.128205,22.3928215 122.410256,19.441675 C125.441595,13.6989033 127.695157,7.23828514 129.17094,0.0598205384 L136.230769,1.61515454 C135.692308,3.62911266 135.123932,5.58325025 134.525641,7.4775673 L142.273504,7.4775673 L142.273504,14.1774676 L132.162393,14.1774676 C131.584046,15.6530409 130.975783,17.0887338 130.337607,18.4845464 L140.239316,18.4845464 L140.239316,25.2442672 L135.871795,25.2442672 L135.871795,31.2861416 L141.854701,31.2861416 L141.854701,38.0458624 L135.871795,38.0458624 L135.871795,47.0787637 C137.586895,46.0418744 139.301994,44.9451645 141.017094,43.7886341 C141.116809,46.1615155 141.266382,48.2851446 141.465812,50.1595214 C142.762108,48.6041874 144.02849,47.1186441 145.264957,45.7028913 L145.264957,28.89332 L141.675214,28.89332 L141.675214,21.2362911 L152.683761,21.2362911 L152.683761,45.8225324 C154.458689,49.0528415 158.198006,50.667996 163.901709,50.667996 C168.049858,50.667996 174.082621,50.5882353 182,50.4287139 Z M149.333333,0.478564307 C150.809117,4.74576271 152.225071,9.41176471 153.581197,14.4765703 L146.34188,16.5104686 C145.145299,11.5254237 143.809117,6.81954138 142.333333,2.39282154 L149.333333,0.478564307 Z" id="path-14"></path>
        <filter x="-8.4%" y="-8.4%" width="125.2%" height="133.7%" filterUnits="objectBoundingBox" id="filter-15">
            <feOffset dx="5" dy="10" in="SourceAlpha" result="shadowOffsetOuter1"></feOffset>
            <feColorMatrix values="0 0 0 0 0   0 0 0 0 0   0 0 0 0 0  0 0 0 0.3 0" type="matrix" in="shadowOffsetOuter1"></feColorMatrix>
        </filter>
    </defs>
    <g id="Page-1" stroke="none" stroke-width="1" fill="none" fill-rule="evenodd">
        <g id="home" transform="translate(-1209.000000, -154.000000)">
            <g id="zhenzhu3" transform="translate(1269.000000, 154.000000)">
                <g id="Group">
                    <rect id="Rectangle" stroke="#979797" fill="#D8D8D8" opacity="0" x="0.5" y="0.5" width="440" height="440"></rect>
                    <g transform="translate(0.000000, 35.000000)">
                        <g transform="translate(0.000000, 149.000000)" fill-rule="nonzero" id="base">
                            <g>
                                <polygon id="shadow" fill="#000000" opacity="0.5" filter="url(#filter-1)" points="439.407785 144.113206 233.543078 222.361622 2.18111677 147.842428 208.045823 69.58314"></polygon>
                                <polygon id="Path" fill="url(#linearGradient-2)" points="439.462313 74.5300664 233.597606 152.778482 2.23564469 78.2592878 208.100351 -5.67619982e-14"></polygon>
                                <polygon id="Path" fill="url(#linearGradient-3)" points="233.684851 153.3221 232.997799 182.50353 -1.9052794e-14 107.440717 0.687051783 78.2701602"></polygon>
                                <polygon id="Path" fill="#0F376B" points="441 74.519194 440.302043 103.700623 232.997799 182.50353 233.684851 153.3221"></polygon>
                            </g>
                        </g>
                        <g transform="translate(73.000000, 0.000000)">
                            <g id="cylinder" transform="translate(47.000000, 0.000000)">
                                <g id="Group-9" opacity="0.800000012" transform="translate(27.000000, 0.000000)">
                                    <path d="M121.784936,190 C122.26883,186.850545 121.784936,26.7628536 121.784936,26.7628536 C109.034172,16.7249221 74.7674897,2.46101433 0,7.23605256 L0,190.473199 L50.4945321,208.585941" id="Fill-1" fill="#D63F2A"></path>
                                    <g id="Group-5">
                                        <mask id="mask-5" fill="white">
                                            <use xlink:href="#path-4"></use>
                                        </mask>
                                        <g id="Clip-4"></g>
                                        <path d="M121.891302,26.8571429 C122.96869,19.883666 116.037445,12.7822928 101.077267,7.45447418 C73.1652321,-2.48565948 27.9120351,-2.48565948 0,7.45447418 L50.5386336,25.4520727 L121.891302,26.8571429 Z" id="Fill-3" fill="#FF4A32" mask="url(#mask-5)"></path>
                                    </g>
                                    <path d="M121.785669,210 C122.267914,206.83191 121.785669,26.566189 121.785669,26.566189 L50.7383178,25.1428571 L50.7383178,208.577574" id="Fill-6" fill="#B03323"></path>
                                </g>
                                <g id="Group-11" opacity="0.800000012" transform="translate(89.000000, 101.000000)">
                                    <path d="M0,113.269929 L50.9971346,131 C64.0664946,126.455364 71.0591582,120.602317 72,114.654113 L72,1.38418434 L0,0 L0,113.269929 Z" id="Fill-8" fill="#4F39AB"></path>
                                    <path d="M0,0 L50.9971346,17.7640449 C64.0664946,13.2115836 71.0591582,7.3464385 72,1.38683668 L0,0 Z" id="Fill-10" fill="#A297F7"></path>
                                </g>
                                <g id="Group-15" opacity="0.779999971" transform="translate(0.000000, 38.000000)">
                                    <path d="M0,17.6830986 L0,171.078944 C0,177.608718 7.02923573,184.138492 21.089168,189.120774 C22.9881718,189.793207 24.974822,190.417225 27.0242853,191 L72,171.078944 L72,17.6830986 L0,17.6830986 Z" id="Fill-12" fill="#D1A669"></path>
                                    <path d="M72,17.8921269 L21.0877072,0 C7.02923573,4.94094067 0,11.4165338 0,17.8921269 C0,24.36772 7.02923573,30.8433131 21.0877072,35.7842538 C22.9881718,36.4519965 24.974822,37.0708367 27.0228246,37.6478873 L72,17.8921269 Z" id="Fill-14" fill="#FFCA80"></path>
                                    <polygon id="Fill-16" fill="#9E7E4F" points="27.072 37.6041543 27.072 191 72 171.078944 72 17.6830986"></polygon>
                                </g>
                                <g id="Group-14" opacity="0.800000012" transform="translate(27.000000, 145.000000)">
                                    <path d="M0.804913367,19.6278059 L0.571428571,91.421219 C28.6389114,99.4383181 69.7409367,98.8157003 95.7679654,89.546209 L96,17.7519013 L45.4570677,15.8554217 L0.804913367,19.6278059 Z" id="Fill-18" fill="#1782BD"></path>
                                    <g id="Group-13" fill="#1FB0FF">
                                        <path d="M44.7609907,0 L0,19.8972625 C28.1344415,27.9227933 69.33665,27.2995206 95.4285714,18.0202806 L44.7609907,0 Z" id="Fill-21"></path>
                                    </g>
                                </g>
                            </g>
                            <ellipse id="Oval" fill="url(#linearGradient-6)" opacity="0.5" cx="134.727273" cy="233" rx="134.727273" ry="39"></ellipse>
                            <ellipse id="Oval-Copy" fill="url(#linearGradient-6)" opacity="0.300000012" cx="134.727273" cy="183.5" rx="134.727273" ry="39"></ellipse>
                            <path id="Path" d="M246.076544,104.426781 L244.145201,110.16304 C261.083359,116.90685 270.454545,125.109291 270.454545,134 C270.454545,156.422792 209.733282,174 134.727273,174 C59.721263,174 -1,156.422792 -1,134 C-1,123.340331 12.5002976,113.663535 36.1726816,106.361677 L36.7621842,108.272825 C13.8719679,115.333419 1,124.559839 1,134 C1,154.655418 60.9176462,172 134.727273,172 C208.536899,172 268.454545,154.655418 268.454545,134 C268.454545,126.206307 259.68432,118.520343 243.505341,112.061047 L241.607885,117.694452 L230.574543,106.591958 L246.076544,104.426781 Z" fill="#5DF7EB" fill-rule="nonzero"></path>
                        </g>
                    </g>
                </g>
                <g id="珍珠链" transform="translate(130.000000, 441.000000)" fill-rule="nonzero">
                    <g id="Shape">
                        <use fill="black" fill-opacity="1" filter="url(#filter-9)" xlink:href="#path-8"></use>
                        <use fill="url(#linearGradient-7)" xlink:href="#path-8"></use>
                    </g>
                    <g id="Path">
                        <use fill="black" fill-opacity="1" filter="url(#filter-12)" xlink:href="#path-11"></use>
                        <use fill="url(#linearGradient-10)" xlink:href="#path-11"></use>
                    </g>
                    <g id="Shape">
                        <use fill="black" fill-opacity="1" filter="url(#filter-15)" xlink:href="#path-14"></use>
                        <use fill="url(#linearGradient-13)" xlink:href="#path-14"></use>
                    </g>
                </g>
            </g>
        </g>
    </g>
</svg>