<svg width="400" height="400" viewBox="0 0 400 400" fill="none" xmlns="http://www.w3.org/2000/svg">
<rect width="400" height="400" fill="white"/>
<path d="M59 64C59 59.5817 62.5817 56 67 56H123C127.418 56 131 59.5817 131 64V102C131 106.418 127.418 110 123 110H67C62.5817 110 59 106.418 59 102V64Z" fill="white"/>
<path d="M130.375 64C130.375 59.9269 127.073 56.625 123 56.625H67C62.9269 56.625 59.625 59.9269 59.625 64V102C59.625 106.073 62.9269 109.375 67 109.375H123C127.073 109.375 130.375 106.073 130.375 102V64ZM131.625 102C131.625 106.763 127.763 110.625 123 110.625H67C62.2365 110.625 58.375 106.763 58.375 102V64C58.375 59.2365 62.2365 55.375 67 55.375H123C127.763 55.375 131.625 59.2365 131.625 64V102Z" fill="#509EE3"/>
<path d="M59 64C59 59.5817 62.5817 56 67 56H83V110H67C62.5817 110 59 106.418 59 102V64Z" fill="#0572D2" fill-opacity="0.07"/>
<path d="M83.625 55.375V110.625H67C62.2365 110.625 58.375 106.763 58.375 102V64C58.375 59.2365 62.2365 55.375 67 55.375H83.625ZM59.625 102C59.625 106.073 62.9269 109.375 67 109.375H82.375V56.625H67C62.9269 56.625 59.625 59.9269 59.625 64V102Z" fill="#509EE3"/>
<path opacity="0.25" d="M131 73.375V74.625H59V73.375H131Z" fill="#509EE3"/>
<path opacity="0.25" d="M131 91.375V92.625H59V91.375H131Z" fill="#509EE3"/>
<path d="M171 298C171 293.582 174.582 290 179 290H235C239.418 290 243 293.582 243 298V336C243 340.418 239.418 344 235 344H179C174.582 344 171 340.418 171 336V298Z" fill="white"/>
<path d="M242.375 298C242.375 293.927 239.073 290.625 235 290.625H179C174.927 290.625 171.625 293.927 171.625 298V336C171.625 340.073 174.927 343.375 179 343.375H235C239.073 343.375 242.375 340.073 242.375 336V298ZM243.625 336C243.625 340.763 239.763 344.625 235 344.625H179C174.237 344.625 170.375 340.763 170.375 336V298C170.375 293.237 174.237 289.375 179 289.375H235C239.763 289.375 243.625 293.237 243.625 298V336Z" fill="#509EE3"/>
<path d="M171 298C171 293.582 174.582 290 179 290H195V344H179C174.582 344 171 340.418 171 336V298Z" fill="#0572D2" fill-opacity="0.07"/>
<path d="M195.625 289.375V344.625H179C174.237 344.625 170.375 340.763 170.375 336V298C170.375 293.237 174.237 289.375 179 289.375H195.625ZM171.625 336C171.625 340.073 174.927 343.375 179 343.375H194.375V290.625H179C174.927 290.625 171.625 293.927 171.625 298V336Z" fill="#509EE3"/>
<path opacity="0.25" d="M243 307.375V308.625H171V307.375H243Z" fill="#509EE3"/>
<path opacity="0.25" d="M243 325.375V326.625H171V325.375H243Z" fill="#509EE3"/>
<path d="M273 182C273 177.582 276.582 174 281 174H337C341.418 174 345 177.582 345 182V220C345 224.418 341.418 228 337 228H281C276.582 228 273 224.418 273 220V182Z" fill="white"/>
<path d="M344.375 182C344.375 177.927 341.073 174.625 337 174.625H281C276.927 174.625 273.625 177.927 273.625 182V220C273.625 224.073 276.927 227.375 281 227.375H337C341.073 227.375 344.375 224.073 344.375 220V182ZM345.625 220C345.625 224.763 341.763 228.625 337 228.625H281C276.237 228.625 272.375 224.763 272.375 220V182C272.375 177.237 276.237 173.375 281 173.375H337C341.763 173.375 345.625 177.237 345.625 182V220Z" fill="#509EE3"/>
<path d="M273 182C273 177.582 276.582 174 281 174H297V228H281C276.582 228 273 224.418 273 220V182Z" fill="#0572D2" fill-opacity="0.07"/>
<path d="M297.625 173.375V228.625H281C276.237 228.625 272.375 224.763 272.375 220V182C272.375 177.237 276.237 173.375 281 173.375H297.625ZM273.625 220C273.625 224.073 276.927 227.375 281 227.375H296.375V174.625H281C276.927 174.625 273.625 177.927 273.625 182V220Z" fill="#509EE3"/>
<path opacity="0.25" d="M345 191.375V192.625H273V191.375H345Z" fill="#509EE3"/>
<path opacity="0.25" d="M345 209.375V210.625H273V209.375H345Z" fill="#509EE3"/>
<path d="M130.973 82.6992L130.972 82.0742L130.5 82.0742L130.5 83.3242L130.973 83.3242L130.973 82.6992ZM133.806 82.0732L132.861 82.0732L132.861 83.3232L133.806 83.3232L133.806 82.0732ZM136.639 82.0723L135.694 82.0732L135.694 83.3232L136.639 83.3223L136.639 82.0723ZM139.5 83.3223L139.5 82.0723L138.527 82.0723L138.527 82.6973L138.528 83.3223L139.5 83.3223ZM142.5 82.0723L141.5 82.0723L141.5 83.3223L142.5 83.3223L142.5 82.0723ZM145.5 82.0723L144.5 82.0723L144.5 83.3223L145.5 83.3223L145.5 82.0723ZM148 83.3223C148.169 83.3223 148.337 83.3247 148.505 83.3301L148.524 82.7061L148.545 82.0811C148.364 82.0752 148.182 82.0723 148 82.0723L147.5 82.0723L147.5 83.3223L148 83.3223ZM151.776 82.5029C151.425 82.4212 151.069 82.351 150.709 82.292L150.607 82.9082L150.507 83.5254C150.839 83.5799 151.168 83.6452 151.493 83.7207L151.776 82.5029ZM154.863 83.5508C154.534 83.4013 154.199 83.262 153.858 83.1338L153.417 84.3037C153.732 84.4223 154.042 84.5512 154.347 84.6895L154.605 84.1201L154.863 83.5508ZM157.685 85.1826C157.39 84.9714 157.088 84.7692 156.78 84.5771L156.45 85.1084L156.119 85.6387C156.404 85.8163 156.684 86.0028 156.956 86.1982L157.685 85.1826ZM160.134 87.332C159.886 87.0676 159.63 86.8113 159.365 86.5635L158.51 87.4756C158.755 87.705 158.992 87.9426 159.222 88.1875L160.134 87.332ZM162.119 89.917C161.927 89.6088 161.726 89.3069 161.515 89.0127L160.499 89.7412C160.694 90.0135 160.881 90.293 161.059 90.5781L161.589 90.2471L162.119 89.917ZM163.563 92.8389C163.435 92.4984 163.296 92.1634 163.146 91.834L162.577 92.0918L162.008 92.3506C162.146 92.6551 162.275 92.9646 162.394 93.2793L162.979 93.0596L163.563 92.8389ZM164.405 95.9883C164.346 95.6285 164.276 95.2726 164.194 94.9209L162.977 95.2041C163.052 95.529 163.117 95.8579 163.172 96.1904L163.789 96.0898L164.405 95.9883ZM164.625 98.6973C164.625 98.515 164.622 98.3332 164.616 98.1523L163.991 98.1729L163.367 98.1924C163.373 98.3599 163.375 98.5284 163.375 98.6973L163.375 99.1953L164.625 99.1953L164.625 98.6973ZM164.625 140.002L163.375 140.002L163.375 140.5L164.625 140.5L164.625 140.002ZM164.625 137.017L163.375 137.017L163.375 138.012L164.625 138.012L164.625 137.017ZM164.625 134.03L163.375 134.03L163.375 135.025L164.625 135.025L164.625 134.03ZM164.625 131.045L163.375 131.045L163.375 132.04L164.625 132.04L164.625 131.045ZM164.625 128.059L163.375 128.059L163.375 129.054L164.625 129.054L164.625 128.059ZM164.625 125.073L163.375 125.073L163.375 126.068L164.625 126.068L164.625 125.073ZM164.625 122.087L163.375 122.087L163.375 123.082L164.625 123.082L164.625 122.087ZM164.625 119.101L163.375 119.101L163.375 120.097L164.625 120.097L164.625 119.101ZM164.625 116.115L163.375 116.115L163.375 117.11L164.625 117.11L164.625 116.115ZM164.625 113.129L163.375 113.129L163.375 114.124L164.625 114.124L164.625 113.129ZM164.625 110.144L163.375 110.144L163.375 111.139L164.625 111.139L164.625 110.144ZM164.625 107.157L163.375 107.157L163.375 108.152L164.625 108.152L164.625 107.157ZM164.625 104.171L163.375 104.171L163.375 105.167L164.625 105.167L164.625 104.171ZM164.625 101.186L163.375 101.186L163.375 102.181L164.625 102.181L164.625 101.186Z" fill="#509EE3"/>
<path d="M171.036 317.426L171.5 317.426L171.5 316.176L171.036 316.176L171.036 317.426ZM168.25 317.427L169.179 317.427L169.179 316.177L168.25 316.177L168.25 317.427ZM165.464 316.802L165.465 317.427L166.393 317.427L166.393 316.177L165.464 316.177L165.464 316.802ZM162.679 317.427L163.607 317.427L163.607 316.177L162.679 316.177L162.679 317.427ZM159.893 317.427L160.821 317.427L160.821 316.177L159.893 316.177L159.893 317.427ZM157.107 317.428L158.036 317.428L158.036 316.178L157.107 316.178L157.107 317.428ZM154.321 317.428L155.25 317.428L155.25 316.178L154.321 316.178L154.321 317.428ZM151.5 316.178L151.5 317.428L152.465 317.428L152.464 316.803L152.464 316.178L151.5 316.178ZM148.5 317.428L149.5 317.428L149.5 316.178L148.5 316.178L148.5 317.428ZM145.5 317.428L146.5 317.428L146.5 316.178L145.5 316.178L145.5 317.428ZM143 316.178C142.831 316.178 142.663 316.175 142.495 316.17L142.476 316.794L142.455 317.419C142.636 317.425 142.818 317.428 143 317.428L143.5 317.428L143.5 316.178L143 316.178ZM139.224 316.997C139.575 317.079 139.931 317.149 140.291 317.208L140.393 316.592L140.493 315.975C140.161 315.92 139.832 315.855 139.507 315.779L139.224 316.997ZM136.137 315.949C136.466 316.099 136.801 316.238 137.142 316.366L137.583 315.196C137.268 315.078 136.958 314.949 136.653 314.811L136.395 315.38L136.137 315.949ZM133.315 314.317C133.61 314.529 133.912 314.731 134.22 314.923L134.55 314.392L134.881 313.861C134.596 313.684 134.316 313.497 134.044 313.302L133.315 314.317ZM130.866 312.168C131.114 312.432 131.37 312.689 131.635 312.937L132.49 312.024C132.245 311.795 132.008 311.557 131.778 311.312L130.866 312.168ZM128.881 309.583C129.073 309.891 129.274 310.193 129.485 310.487L130.501 309.759C130.306 309.487 130.119 309.207 129.941 308.922L129.411 309.253L128.881 309.583ZM127.437 306.661C127.565 307.002 127.704 307.337 127.854 307.666L128.423 307.408L128.992 307.149C128.854 306.845 128.725 306.535 128.606 306.221L128.021 306.44L127.437 306.661ZM126.595 303.512C126.654 303.871 126.724 304.227 126.806 304.579L128.023 304.296C127.948 303.971 127.883 303.642 127.828 303.31L127.211 303.41L126.595 303.512ZM126.375 300.803C126.375 300.985 126.378 301.167 126.384 301.348L127.009 301.327L127.633 301.308C127.627 301.14 127.625 300.972 127.625 300.803L127.625 300.305L126.375 300.305L126.375 300.803ZM126.375 259.498L127.625 259.498L127.625 259L126.375 259L126.375 259.498ZM126.375 262.483L127.625 262.483L127.625 261.488L126.375 261.488L126.375 262.483ZM126.375 265.47L127.625 265.47L127.625 264.475L126.375 264.475L126.375 265.47ZM126.375 268.455L127.625 268.455L127.625 267.46L126.375 267.46L126.375 268.455ZM126.375 271.441L127.625 271.441L127.625 270.446L126.375 270.446L126.375 271.441ZM126.375 274.427L127.625 274.427L127.625 273.432L126.375 273.432L126.375 274.427ZM126.375 277.413L127.625 277.413L127.625 276.418L126.375 276.418L126.375 277.413ZM126.375 280.399L127.625 280.399L127.625 279.403L126.375 279.403L126.375 280.399ZM126.375 283.385L127.625 283.385L127.625 282.39L126.375 282.39L126.375 283.385ZM126.375 286.371L127.625 286.371L127.625 285.376L126.375 285.376L126.375 286.371ZM126.375 289.356L127.625 289.356L127.625 288.361L126.375 288.361L126.375 289.356ZM126.375 292.343L127.625 292.343L127.625 291.348L126.375 291.348L126.375 292.343ZM126.375 295.329L127.625 295.329L127.625 294.333L126.375 294.333L126.375 295.329ZM126.375 298.314L127.625 298.314L127.625 297.319L126.375 297.319L126.375 298.314Z" fill="#509EE3"/>
<path d="M243.509 200.002L243.508 199.377L243 199.377L243 200.627L243.509 200.627L243.509 200.002ZM246.559 199.377L245.542 199.377L245.542 200.627L246.559 200.627L246.559 199.377ZM249.608 199.377L248.592 199.377L248.592 200.627L249.608 200.627L249.608 199.377ZM252.658 199.376L251.642 199.377L251.642 200.627L252.658 200.626L252.658 199.376ZM255.708 199.376L254.691 199.376L254.691 200.626L255.708 200.626L255.708 199.376ZM258.759 200.001L258.758 199.376L257.741 199.376L257.741 200.001L257.742 200.626L258.759 200.626L258.759 200.001ZM261.809 199.376L260.792 199.376L260.792 200.626L261.809 200.626L261.809 199.376ZM264.858 199.376L263.842 199.376L263.842 200.626L264.858 200.626L264.858 199.376ZM267.908 199.376L266.892 199.376L266.892 200.626L267.908 200.626L267.908 199.376ZM270.958 199.375L269.941 199.375L269.941 200.625L270.958 200.625L270.958 199.375ZM273.5 199.375L272.991 199.375L272.991 200.625L273.5 200.625L273.5 199.375Z" fill="#509EE3"/>
<path d="M83 150C83 144.477 87.4772 140 93 140H233C238.523 140 243 144.477 243 150V250C243 255.523 238.523 260 233 260H93C87.4772 260 83 255.523 83 250V150Z" fill="white"/>
<path d="M242.375 150C242.375 144.822 238.178 140.625 233 140.625H93C87.8223 140.625 83.625 144.822 83.625 150V250C83.625 255.178 87.8223 259.375 93 259.375H233C238.178 259.375 242.375 255.178 242.375 250V150ZM243.625 250C243.625 255.868 238.868 260.625 233 260.625H93C87.132 260.625 82.375 255.868 82.375 250V150C82.375 144.132 87.132 139.375 93 139.375H233C238.868 139.375 243.625 144.132 243.625 150V250Z" fill="#509EE3"/>
<path d="M98 224H112.5V245H98V224Z" fill="#CBE1F6"/>
<path d="M114.5 218H129V245H114.5V218Z" fill="#CBE1F6"/>
<path d="M131 207H145.5V245H131V207Z" fill="#CBE1F6"/>
<path d="M147.5 219H162V245H147.5V219Z" fill="#CBE1F6"/>
<path d="M164 203H178.5V245H164V203Z" fill="#CBE1F6"/>
<path d="M180.5 188H195V245H180.5V188Z" fill="#CBE1F6"/>
<path d="M197 203H211.5V245H197V203Z" fill="#CBE1F6"/>
<path d="M213.5 171H228V245H213.5V171Z" fill="#CBE1F6"/>
<path opacity="0.5" d="M83 155.375L243 155.375L243 156.625L83 156.625L83 155.375Z" fill="#509EE3"/>
<path d="M133.5 82.5C133.5 83.8807 132.381 85 131 85C129.619 85 128.5 83.8807 128.5 82.5C128.5 81.1193 129.619 80 131 80C132.381 80 133.5 81.1193 133.5 82.5Z" fill="white"/>
<path d="M132.25 82.5C132.25 81.8096 131.69 81.25 131 81.25C130.31 81.25 129.75 81.8096 129.75 82.5C129.75 83.1904 130.31 83.75 131 83.75V85C129.619 85 128.5 83.8807 128.5 82.5C128.5 81.1193 129.619 80 131 80C132.381 80 133.5 81.1193 133.5 82.5C133.5 83.8807 132.381 85 131 85V83.75C131.69 83.75 132.25 83.1904 132.25 82.5Z" fill="#509EE3"/>
<path d="M166.5 140C166.5 141.381 165.381 142.5 164 142.5C162.619 142.5 161.5 141.381 161.5 140C161.5 138.619 162.619 137.5 164 137.5C165.381 137.5 166.5 138.619 166.5 140Z" fill="white"/>
<path d="M165.25 140C165.25 139.31 164.69 138.75 164 138.75C163.31 138.75 162.75 139.31 162.75 140C162.75 140.69 163.31 141.25 164 141.25V142.5C162.619 142.5 161.5 141.381 161.5 140C161.5 138.619 162.619 137.5 164 137.5C165.381 137.5 166.5 138.619 166.5 140C166.5 141.381 165.381 142.5 164 142.5V141.25C164.69 141.25 165.25 140.69 165.25 140Z" fill="#509EE3"/>
<path d="M129.5 260C129.5 261.381 128.381 262.5 127 262.5C125.619 262.5 124.5 261.381 124.5 260C124.5 258.619 125.619 257.5 127 257.5C128.381 257.5 129.5 258.619 129.5 260Z" fill="white"/>
<path d="M128.25 260C128.25 259.31 127.69 258.75 127 258.75C126.31 258.75 125.75 259.31 125.75 260C125.75 260.69 126.31 261.25 127 261.25V262.5C125.619 262.5 124.5 261.381 124.5 260C124.5 258.619 125.619 257.5 127 257.5C128.381 257.5 129.5 258.619 129.5 260C129.5 261.381 128.381 262.5 127 262.5V261.25C127.69 261.25 128.25 260.69 128.25 260Z" fill="#509EE3"/>
<path d="M173.5 316.5C173.5 317.881 172.381 319 171 319C169.619 319 168.5 317.881 168.5 316.5C168.5 315.119 169.619 314 171 314C172.381 314 173.5 315.119 173.5 316.5Z" fill="white"/>
<path d="M172.25 316.5C172.25 315.81 171.69 315.25 171 315.25C170.31 315.25 169.75 315.81 169.75 316.5C169.75 317.19 170.31 317.75 171 317.75V319C169.619 319 168.5 317.881 168.5 316.5C168.5 315.119 169.619 314 171 314C172.381 314 173.5 315.119 173.5 316.5C173.5 317.881 172.381 319 171 319V317.75C171.69 317.75 172.25 317.19 172.25 316.5Z" fill="#509EE3"/>
<path d="M245.5 200C245.5 201.381 244.381 202.5 243 202.5C241.619 202.5 240.5 201.381 240.5 200C240.5 198.619 241.619 197.5 243 197.5C244.381 197.5 245.5 198.619 245.5 200Z" fill="white"/>
<path d="M244.25 200C244.25 199.31 243.69 198.75 243 198.75C242.31 198.75 241.75 199.31 241.75 200C241.75 200.69 242.31 201.25 243 201.25V202.5C241.619 202.5 240.5 201.381 240.5 200C240.5 198.619 241.619 197.5 243 197.5C244.381 197.5 245.5 198.619 245.5 200C245.5 201.381 244.381 202.5 243 202.5V201.25C243.69 201.25 244.25 200.69 244.25 200Z" fill="#509EE3"/>
<path d="M275.5 200C275.5 201.381 274.381 202.5 273 202.5C271.619 202.5 270.5 201.381 270.5 200C270.5 198.619 271.619 197.5 273 197.5C274.381 197.5 275.5 198.619 275.5 200Z" fill="white"/>
<path d="M274.25 200C274.25 199.31 273.69 198.75 273 198.75C272.31 198.75 271.75 199.31 271.75 200C271.75 200.69 272.31 201.25 273 201.25V202.5C271.619 202.5 270.5 201.381 270.5 200C270.5 198.619 271.619 197.5 273 197.5C274.381 197.5 275.5 198.619 275.5 200C275.5 201.381 274.381 202.5 273 202.5V201.25C273.69 201.25 274.25 200.69 274.25 200Z" fill="#509EE3"/>
</svg>
