<svg width="13" height="14" viewBox="0 0 13 14" fill="none" xmlns="http://www.w3.org/2000/svg">
<path opacity="0.25" fill-rule="evenodd" clip-rule="evenodd" d="M1.20585 5.6026C1.25206 5.42839 1.46736 5.38237 1.5948 5.50982L3.32493 7.23995C3.42256 7.33758 3.58086 7.33758 3.67849 7.23995L5.22473 5.6937C5.32236 5.59607 5.32236 5.43778 5.22473 5.34015L3.49457 3.60999C3.36712 3.48254 3.41313 3.26725 3.58734 3.22104C4.70638 2.92416 5.94885 3.21452 6.82645 4.09212C7.8002 5.06587 8.05099 6.4888 7.57883 7.69392L11.5761 11.6912C12.1008 12.2159 12.1008 13.0664 11.5761 13.591C11.0515 14.1156 10.201 14.1156 9.67635 13.591L5.67915 9.59384C4.47394 10.0662 3.05081 9.81546 2.07696 8.84161C1.19939 7.96404 0.909016 6.72161 1.20585 5.6026Z" fill="#509EE3"/>
<path fill-rule="evenodd" clip-rule="evenodd" d="M1.20585 3.58746C1.25206 3.41325 1.46736 3.36723 1.5948 3.49468L3.32493 5.22481C3.42256 5.32244 3.58086 5.32244 3.67849 5.22481L5.22473 3.67857C5.32236 3.58094 5.32236 3.42264 5.22473 3.32501L3.49457 1.59485C3.36712 1.46741 3.41313 1.25212 3.58734 1.2059C4.70638 0.909021 5.94885 1.19938 6.82645 2.07699C7.8002 3.05073 8.05099 4.47366 7.57883 5.67878L11.5761 9.6761C12.1008 10.2007 12.1008 11.0513 11.5761 11.5759C11.0515 12.1005 10.201 12.1005 9.67635 11.5759L5.67915 7.5787C4.47394 8.05107 3.05081 7.80033 2.07696 6.82648C1.19939 5.9489 0.909016 4.70648 1.20585 3.58746Z" fill="white"/>
<path d="M1.5948 3.49468L1.15286 3.93662L1.5948 3.49468ZM1.20585 3.58746L0.601745 3.42721L0.601745 3.42721L1.20585 3.58746ZM3.32493 5.22481L3.76687 4.78287L3.32493 5.22481ZM5.22473 3.32501L4.78279 3.76696L5.22473 3.32501ZM3.49457 1.59485L3.93651 1.15291L3.49457 1.59485ZM3.58734 1.2059L3.42707 0.601798L3.42707 0.601798L3.58734 1.2059ZM7.57883 5.67878L6.9969 5.45079C6.90628 5.68208 6.96124 5.94508 7.13689 6.12073L7.57883 5.67878ZM11.5761 9.6761L11.1342 10.118L11.5761 9.6761ZM9.67635 11.5759L10.1183 11.134L9.67635 11.5759ZM5.67915 7.5787L6.12109 7.13676C5.94542 6.96109 5.68238 6.90614 5.45108 6.9968L5.67915 7.5787ZM2.03675 3.05274C1.61307 2.62907 0.78728 2.72778 0.601745 3.42721L1.80996 3.74771C1.76951 3.90018 1.64431 4.00619 1.50979 4.03709C1.38154 4.06654 1.24568 4.02944 1.15286 3.93662L2.03675 3.05274ZM3.76687 4.78287L2.03675 3.05274L1.15286 3.93662L2.88299 5.66675L3.76687 4.78287ZM3.23654 4.78287C3.38299 4.63642 3.62043 4.63642 3.76687 4.78287L2.88299 5.66675C3.2247 6.00846 3.77872 6.00846 4.12043 5.66675L3.23654 4.78287ZM4.78279 3.23663L3.23654 4.78287L4.12043 5.66675L5.66667 4.12051L4.78279 3.23663ZM4.78279 3.76696C4.63634 3.62051 4.63634 3.38307 4.78279 3.23663L5.66667 4.12051C6.00838 3.7788 6.00838 3.22478 5.66667 2.88307L4.78279 3.76696ZM3.05262 2.03679L4.78279 3.76696L5.66667 2.88307L3.93651 1.15291L3.05262 2.03679ZM3.42707 0.601798C2.72767 0.78735 2.62896 1.61313 3.05262 2.03679L3.93651 1.15291C4.02932 1.24573 4.06643 1.38158 4.03697 1.50983C4.00608 1.64435 3.90008 1.76955 3.74761 1.81L3.42707 0.601798ZM7.2684 1.63504C6.22692 0.593565 4.75255 0.250154 3.42707 0.601798L3.74761 1.81C4.66022 1.56789 5.67078 1.8052 6.38451 2.51893L7.2684 1.63504ZM8.16076 5.90678C8.72027 4.47871 8.42404 2.79069 7.2684 1.63504L6.38451 2.51893C7.17636 3.31077 7.38171 4.46861 6.9969 5.45079L8.16076 5.90678ZM7.13689 6.12073L11.1342 10.118L12.0181 9.23416L8.02077 5.23684L7.13689 6.12073ZM11.1342 10.118C11.4147 10.3986 11.4147 10.8534 11.1342 11.134L12.0181 12.0178C12.7868 11.2491 12.7868 10.0028 12.0181 9.23416L11.1342 10.118ZM11.1342 11.134C10.8537 11.4145 10.3988 11.4145 10.1183 11.134L9.2344 12.0178C10.0031 12.7865 11.2494 12.7865 12.0181 12.0178L11.1342 11.134ZM10.1183 11.134L6.12109 7.13676L5.23721 8.02064L9.2344 12.0178L10.1183 11.134ZM1.63502 7.26842C2.79079 8.42419 4.47905 8.72035 5.90722 8.1606L5.45108 6.9968C4.46884 7.38178 3.31083 7.17646 2.51891 6.38453L1.63502 7.26842ZM0.601745 3.42721C0.250151 4.75265 0.593574 6.22697 1.63502 7.26842L2.51891 6.38453C1.8052 5.67083 1.56788 4.6603 1.80996 3.74771L0.601745 3.42721Z" fill="#509EE3"/>
</svg>
