<svg width="96" height="96" viewBox="0 0 96 96" fill="none" xmlns="http://www.w3.org/2000/svg">
<g clip-path="url(#clip0_27_103)">
<circle cx="48" cy="48" r="48" fill="#071722" fill-opacity="0.02"/>
<path d="M46.96 27.054C47.5626 26.5518 48.4374 26.5518 49.04 27.054L54.0674 31.2424C56.1645 32.99 58.6892 34.1481 61.3818 34.5969L65.2676 35.2444C66.0508 35.3751 66.6248 36.0529 66.625 36.8469V48.5852C66.6248 57.4625 60.9442 65.3442 52.5225 68.1516L48.8301 69.3821C48.2913 69.5616 47.7087 69.5616 47.1699 69.3821L43.4775 68.1516C35.0558 65.3442 29.3752 57.4625 29.375 48.5852V36.8469C29.3752 36.0529 29.9493 35.3751 30.7324 35.2444L34.6182 34.5969C37.3108 34.1481 39.8355 32.99 41.9326 31.2424L46.96 27.054ZM42.7334 32.2034C40.4656 34.0931 37.735 35.345 34.8232 35.8303L30.9385 36.4778C30.7578 36.5079 30.6252 36.6638 30.625 36.8469V48.5852C30.6252 56.9246 35.9616 64.3289 43.873 66.9661L47.375 68.1331V28.3342L42.7334 32.2034ZM48.625 68.1331L52.127 66.9661C60.0384 64.3289 65.3748 56.9246 65.375 48.5852V36.8469C65.3748 36.6638 65.2422 36.5079 65.0615 36.4778L61.1768 35.8303C58.2649 35.345 55.5344 34.0922 53.2666 32.2024L48.625 28.3342V68.1331Z" fill="#B7BCBF"/>
</g>
<defs>
<clipPath id="clip0_27_103">
<rect width="96" height="96" fill="white"/>
</clipPath>
</defs>
</svg>
