<?xml version="1.0" encoding="UTF-8" standalone="no"?>
<svg width="48px" height="48px" viewBox="0 0 48 48" version="1.1" xmlns="http://www.w3.org/2000/svg" xmlns:xlink="http://www.w3.org/1999/xlink">
    <g stroke="none" stroke-width="1" fill="none" fill-rule="evenodd">
        <g fill="#ffffff">
            <path d="M24,44 C35.045695,44 44,35.045695 44,24 C44,12.954305 35.045695,4 24,4 C12.954305,4 4,12.954305 4,24 C4,35.045695 12.954305,44 24,44 Z M18.173913,22.0544037 C19.1344083,22.0544037 19.9130435,20.3819413 19.9130435,18.3188544 C19.9130435,16.2557674 19.1344083,14.583305 18.173913,14.583305 C17.2134178,14.583305 16.4347826,16.2557674 16.4347826,18.3188544 C16.4347826,20.3819413 17.2134178,22.0544037 18.173913,22.0544037 Z M28.9565217,22.0544037 C29.917017,22.0544037 30.6956522,20.3819413 30.6956522,18.3188544 C30.6956522,16.2557674 29.917017,14.583305 28.9565217,14.583305 C27.9960265,14.583305 27.2173913,16.2557674 27.2173913,18.3188544 C27.2173913,20.3819413 27.9960265,22.0544037 28.9565217,22.0544037 Z M24,35.5616363 C28.4700217,35.5616363 32.1182868,31.5056662 32.1182868,27.0356445 C26.4909049,27.0356446 23.3555312,27.0356445 15.9608154,27.0356445 C15.9608154,31.5056662 19.5299783,35.5616363 24,35.5616363 Z"></path>
        </g>
    </g>
</svg>
