<svg height="48" viewBox="0 0 48 48" width="48" xmlns="http://www.w3.org/2000/svg"><path d="m24 44c11.045695 0 20-8.954305 20-20s-8.954305-20-20-20-20 8.954305-20 20 8.954305 20 20 20zm-5.826087-21.9455963c.9604953 0 1.7391305-1.6724624 1.7391305-3.7355493 0-2.063087-.7786352-3.7355494-1.7391305-3.7355494-.9604952 0-1.7391304 1.6724624-1.7391304 3.7355494 0 2.0630869.7786352 3.7355493 1.7391304 3.7355493zm10.7826087 0c.9604953 0 1.7391305-1.6724624 1.7391305-3.7355493 0-2.063087-.7786352-3.7355494-1.7391305-3.7355494-.9604952 0-1.7391304 1.6724624-1.7391304 3.7355494 0 2.0630869.7786352 3.7355493 1.7391304 3.7355493zm-4.9565217 13.5072326c4.4700217 0 8.1182868-4.0559701 8.1182868-8.5259918-5.6273819.0000001-8.7627556 0-16.1574714 0 0 4.4700217 3.5691629 8.5259918 8.0391846 8.5259918z" fill="#fff" fill-rule="evenodd"/></svg>