<svg height="118" viewBox="0 0 108 118" width="108" xmlns="http://www.w3.org/2000/svg"><g fill="none" fill-rule="evenodd"><circle cx="53" cy="65" fill="#fff" r="52" stroke="#e3e3e3" stroke-width="3"/><path d="m54.9857911 57.2483919c.009384-.0785348.0142089-.158475.0142089-.2395469v-18.01769c0-1.1014811-.8954305-1.991155-2-1.991155-1.1122704 0-2 .8914705-2 1.991155v18.01769c0 .0810805.0048519.1610134.0142819.2395282-3.4576987.8831085-6.0142819 4.0188067-6.0142819 7.7516268 0 4.418278 3.581722 8 8 8s8-3.581722 8-8c0-3.7327938-2.5565472-6.8684741-6.0142089-7.7516081z" fill="#e3e3e3"/><g fill="#f8f8f8"><rect height="15" rx="6" stroke="#e3e3e3" stroke-width="3" width="16" x="45" y="1"/><path d="m52 101h2v7h-2zm0-79h2v7h-2zm37 44v-2h6.7338129v2zm-79.47155506 0v-2h6.73381296v2zm68.51886856 26.2999886 1.4142136-1.4142135 4.7615248 4.7615248-1.4142136 1.4142135zm-56-58 1.4142136-1.4142135 4.7615248 4.7615248-1.4142136 1.4142135zm4.7615248 56.5857865 1.4142136 1.4142135-4.7615248 4.7615248-1.4142136-1.4142135zm56-58 1.4142136 1.4142135-4.7615248 4.7615248-1.4142136-1.4142135z" stroke="#e3e3e3" stroke-width="3"/><path d="m89 7c2.2273181-2.57770838 5.9764573-2.57604263 8 0l8 8c2.579027 2.0283807 2.575629 5.7737606 0 8l-2 2c-2.227318 2.5777084-5.9764573 2.5760426-8 0l-8-8c-2.5790268-2.0283807-2.5756289-5.7737606 0-8z" stroke="#e3e3e3" stroke-width="3"/><path d="m84.846154 17.676259h8.384615v10.100719h-8.384615z" stroke="#e3e3e3" stroke-width="3" transform="matrix(.70710678 -.70710678 .70710678 .70710678 10.008615 69.616173)"/><circle cx="53" cy="65" r="5"/></g></g></svg>