<svg width="108" height="118" viewBox="0 0 108 118" fill="none" xmlns="http://www.w3.org/2000/svg">
<g clip-path="url(#clip0_2220_3926)">
<g opacity="0.6">
<path d="M54.5 2H51.5C49.0147 2 47 3.96995 47 6.4V8.6C47 11.0301 49.0147 13 51.5 13H54.5C56.9853 13 59 11.0301 59 8.6V6.4C59 3.96995 56.9853 2 54.5 2Z" fill="#DCDFE0" fill-opacity="0.3" stroke="#B7BCBF" stroke-width="3"/>
<path fill-rule="evenodd" clip-rule="evenodd" d="M52.035 100.26H53.9997V107.137H52.035V100.26ZM52.035 22.6519H53.9997V29.5286H52.035V22.6519ZM88.3832 65.8768V63.912H94.9984V65.8768H88.3832ZM10.3115 65.8768V63.912H16.9267V65.8768H10.3115ZM77.6235 91.7135L79.0128 90.3242L83.6904 95.0019L82.3011 96.3912L77.6235 91.7135ZM22.6099 34.7352L23.9992 33.3459L28.6768 38.0235L27.2875 39.4128L22.6099 34.7352ZM27.2875 90.3242L28.6768 91.7135L23.9992 96.3912L22.6099 95.0019L27.2875 90.3242ZM82.3011 33.3459L83.6904 34.7352L79.0128 39.4128L77.6235 38.0235L82.3011 33.3459Z" fill="#F8F8F8" stroke="#B7BCBF" stroke-width="3"/>
<path fill-rule="evenodd" clip-rule="evenodd" d="M91.9884 11.9854C93.5691 9.99751 96.3618 9.88462 97.9475 11.7419L104.15 17.4574C106.133 18.8898 106.244 21.6797 104.394 23.4164L102.965 24.967C101.384 26.9549 98.5914 27.0678 97.0057 25.2106L90.8031 19.4951C88.8203 18.0627 88.7088 15.2727 90.5596 13.536L91.9884 11.9854Z" fill="#DCDFE0" fill-opacity="0.3" stroke="#B7BCBF" stroke-width="3"/>
<path fill-rule="evenodd" clip-rule="evenodd" d="M85 24.7183L89.5163 19.8171L96.8134 26.5412L92.2971 31.4424L85 24.7183Z" fill="#DCDFE0" fill-opacity="0.3" stroke="#B7BCBF" stroke-width="3"/>
<path d="M53.0176 37.387C54.1026 37.3871 54.9824 38.262 54.9824 39.344V57.0442C54.9824 57.1237 54.977 57.2025 54.9678 57.2795C58.3644 58.1471 60.8758 61.227 60.876 64.8938C60.876 69.2342 57.3579 72.753 53.0176 72.7532C48.6771 72.7532 45.1582 69.2343 45.1582 64.8938C45.1584 61.227 47.6699 58.1471 51.0664 57.2795C51.0572 57.2025 51.0527 57.1237 51.0527 57.0442V39.344C51.0527 38.2637 51.9249 37.387 53.0176 37.387ZM53.0176 59.9827C50.3048 59.9827 48.1055 62.182 48.1055 64.8948C48.1057 67.6074 50.3049 69.8059 53.0176 69.8059C55.7301 69.8058 57.9295 67.6073 57.9297 64.8948C57.9297 62.1821 55.7303 59.9828 53.0176 59.9827Z" fill="#B7BCBF"/>
<path d="M53.0167 115.978C81.2296 115.978 104.101 93.1073 104.101 64.8943C104.101 36.6814 81.2296 13.8103 53.0167 13.8103C24.8037 13.8103 1.93262 36.6814 1.93262 64.8943C1.93262 93.1073 24.8037 115.978 53.0167 115.978Z" stroke="#B7BCBF" stroke-width="3"/>
</g>
</g>
<defs>
<clipPath id="clip0_2220_3926">
<rect width="108" height="118" fill="white"/>
</clipPath>
</defs>
</svg>
