<svg xmlns="http://www.w3.org/2000/svg" width="96" height="96" fill="none">
<g clip-path="url(#clip0_6753_63805)">
<circle cx="48" cy="48" r="48" fill="#4C5773" fill-opacity="0.05"/>
<path d="M24 35C24 32.7909 25.7909 31 28 31H68C70.2091 31 72 32.7909 72 35V61C72 63.2091 70.2091 65 68 65H28C25.7909 65 24 63.2091 24 61V35Z" fill="white"/>
<path fill-rule="evenodd" clip-rule="evenodd" d="M23.375 35C23.375 32.4457 25.4457 30.375 28 30.375H68C70.5543 30.375 72.625 32.4457 72.625 35V61C72.625 63.5543 70.5543 65.625 68 65.625H28C25.4457 65.625 23.375 63.5543 23.375 61V35ZM28 31.625C26.136 31.625 24.625 33.136 24.625 35V61C24.625 62.864 26.136 64.375 28 64.375H68C69.864 64.375 71.375 62.864 71.375 61V35C71.375 33.136 69.864 31.625 68 31.625H28Z" fill="#949AAB"/>
<path d="M29.5 38C29.5 37.1716 30.1716 36.5 31 36.5H65C65.8284 36.5 66.5 37.1716 66.5 38V55C66.5 55.8284 65.8284 56.5 65 56.5H31C30.1716 56.5 29.5 55.8284 29.5 55V38Z" fill="white"/>
<path fill-rule="evenodd" clip-rule="evenodd" d="M28.875 38C28.875 36.8264 29.8264 35.875 31 35.875H65C66.1736 35.875 67.125 36.8264 67.125 38V55C67.125 56.1736 66.1736 57.125 65 57.125H31C29.8264 57.125 28.875 56.1736 28.875 55V38ZM31 37.125C30.5168 37.125 30.125 37.5168 30.125 38V55C30.125 55.4832 30.5168 55.875 31 55.875H65C65.4832 55.875 65.875 55.4832 65.875 55V38C65.875 37.5168 65.4832 37.125 65 37.125H31Z" fill="#949AAB"/>
<path fill-rule="evenodd" clip-rule="evenodd" d="M61.0717 61.1786C61.3281 61.1786 61.536 60.9707 61.536 60.7143C61.536 60.4579 61.3281 60.25 61.0717 60.25C60.8153 60.25 60.6074 60.4579 60.6074 60.7143C60.6074 60.9707 60.8153 61.1786 61.0717 61.1786ZM61.0717 62.4286C62.0185 62.4286 62.786 61.6611 62.786 60.7143C62.786 59.7675 62.0185 59 61.0717 59C60.1249 59 59.3574 59.7675 59.3574 60.7143C59.3574 61.6611 60.1249 62.4286 61.0717 62.4286Z" fill="#949AAB"/>
<path fill-rule="evenodd" clip-rule="evenodd" d="M65.5717 61.1786C65.8281 61.1786 66.036 60.9707 66.036 60.7143C66.036 60.4579 65.8281 60.25 65.5717 60.25C65.3153 60.25 65.1074 60.4579 65.1074 60.7143C65.1074 60.9707 65.3153 61.1786 65.5717 61.1786ZM65.5717 62.4286C66.5185 62.4286 67.286 61.6611 67.286 60.7143C67.286 59.7675 66.5185 59 65.5717 59C64.6249 59 63.8574 59.7675 63.8574 60.7143C63.8574 61.6611 64.6249 62.4286 65.5717 62.4286Z" fill="#949AAB"/>
<circle cx="41" cy="43.5" r="1.5" fill="#949AAB"/>
<circle cx="55" cy="43.5" r="1.5" fill="#949AAB"/>
<path fill-rule="evenodd" clip-rule="evenodd" d="M46.8331 48.7251C47.1025 48.974 47.5027 49.125 48 49.125C48.4973 49.125 48.8975 48.974 49.1669 48.7251C49.4283 48.4836 49.625 48.0969 49.625 47.5H50.875C50.875 48.3943 50.568 49.1325 50.0151 49.6433C49.4702 50.1466 48.7453 50.375 48 50.375C47.2547 50.375 46.5298 50.1466 45.9849 49.6433C45.432 49.1325 45.125 48.3943 45.125 47.5H46.375C46.375 48.0969 46.5717 48.4836 46.8331 48.7251Z" fill="#949AAB"/>
<rect x="58.4795" y="26.667" width="24" height="16" transform="rotate(15 58.4795 26.667)" fill="black" fill-opacity="0.1"/>
<path d="M58.4795 22.667L81.6617 28.8786L77.5206 44.3335L54.3384 38.1218L58.4795 22.667Z" fill="white"/>
<path fill-rule="evenodd" clip-rule="evenodd" d="M57.8753 22.5051C57.9647 22.1717 58.3074 21.9738 58.6408 22.0631L81.823 28.2748C82.1564 28.3641 82.3543 28.7068 82.265 29.0403L78.1239 44.4951C78.0345 44.8285 77.6918 45.0263 77.3584 44.937L54.1762 38.7253C53.8428 38.636 53.6449 38.2933 53.7342 37.9599L57.8753 22.5051ZM58.921 23.4323L55.1034 37.6797L77.0782 43.5678L80.8958 29.3204L58.921 23.4323Z" fill="#949AAB"/>
<g opacity="0.5">
<path fill-rule="evenodd" clip-rule="evenodd" d="M59.4603 36.3885L62.0485 26.7292L63.2559 27.0527L60.6677 36.712L59.4603 36.3885Z" fill="#949AAB"/>
<path fill-rule="evenodd" clip-rule="evenodd" d="M63.8071 37.5531L65.36 31.7575L66.5674 32.0811L65.0145 37.8766L63.8071 37.5531Z" fill="#949AAB"/>
<path fill-rule="evenodd" clip-rule="evenodd" d="M68.1538 38.7179L69.1891 34.8542L70.3965 35.1777L69.3612 39.0414L68.1538 38.7179Z" fill="#949AAB"/>
<path fill-rule="evenodd" clip-rule="evenodd" d="M72.5004 39.8832L74.0533 34.0876L75.2607 34.4111L73.7078 40.2067L72.5004 39.8832Z" fill="#949AAB"/>
</g>
<path d="M24 65C28.4183 65 32 61.4183 32 57C32 52.5817 28.4183 49 24 49V57H16C16 61.4183 19.5817 65 24 65Z" fill="black" fill-opacity="0.1"/>
<path d="M24 61C28.4183 61 32 57.4183 32 53C32 48.5817 28.4183 45 24 45V53H16C16 57.4183 19.5817 61 24 61Z" fill="white"/>
<path fill-rule="evenodd" clip-rule="evenodd" d="M23.375 45C23.375 44.6548 23.6548 44.375 24 44.375C28.7635 44.375 32.625 48.2365 32.625 53C32.625 57.7635 28.7635 61.625 24 61.625C19.2365 61.625 15.375 57.7635 15.375 53C15.375 52.6548 15.6548 52.375 16 52.375H23.375V45ZM24.625 45.6511V53C24.625 53.3452 24.3452 53.625 24 53.625H16.6511C16.9684 57.4056 20.1374 60.375 24 60.375C28.0731 60.375 31.375 57.0731 31.375 53C31.375 49.1374 28.4056 45.9684 24.625 45.6511Z" fill="#949AAB"/>
<path d="M21.5 45C18.4624 45 16 47.4624 16 50.5H21.5V45Z" fill="white"/>
<path fill-rule="evenodd" clip-rule="evenodd" d="M16.6647 49.875H20.875V45.6647C18.6824 45.9453 16.9453 47.6824 16.6647 49.875ZM15.375 50.5C15.375 47.1173 18.1173 44.375 21.5 44.375C21.8452 44.375 22.125 44.6548 22.125 45V50.5C22.125 50.8452 21.8452 51.125 21.5 51.125H16C15.6548 51.125 15.375 50.8452 15.375 50.5Z" fill="#949AAB"/>
</g>
<defs>
<clipPath id="clip0_6753_63805">
<rect width="96" height="96" fill="white"/>
</clipPath>
</defs>
</svg>
