<?xml version="1.0" encoding="UTF-8"?>
<svg width="562px" height="561px" viewBox="0 0 562 561" version="1.1" xmlns="http://www.w3.org/2000/svg" xmlns:xlink="http://www.w3.org/1999/xlink">
    <title>zhenzhu1</title>
    <defs>
        <linearGradient x1="84.3739594%" y1="53.4802876%" x2="29.2889676%" y2="51.2992347%" id="linearGradient-1">
            <stop stop-color="#FFFFFF" stop-opacity="0" offset="0%"></stop>
            <stop stop-color="#FFFFFF" offset="100%"></stop>
        </linearGradient>
        <filter x="-6.6%" y="-33.3%" width="113.1%" height="166.7%" filterUnits="objectBoundingBox" id="filter-2">
            <feOffset dx="0" dy="10" in="SourceAlpha" result="shadowOffsetOuter1"></feOffset>
            <feColorMatrix values="0 0 0 0 0   0 0 0 0 0   0 0 0 0 0  0 0 0 0.3 0" type="matrix" in="shadowOffsetOuter1" result="shadowMatrixOuter1"></feColorMatrix>
            <feMerge>
                <feMergeNode in="shadowMatrixOuter1"></feMergeNode>
                <feMergeNode in="SourceGraphic"></feMergeNode>
            </feMerge>
        </filter>
        <linearGradient x1="100%" y1="146.508662%" x2="29.2889676%" y2="83.4078733%" id="linearGradient-3">
            <stop stop-color="#FFFFFF" stop-opacity="0" offset="0.0655594406%"></stop>
            <stop stop-color="#FFFFFF" offset="100%"></stop>
        </linearGradient>
        <linearGradient x1="100%" y1="143.237553%" x2="29.2889676%" y2="82.2755314%" id="linearGradient-4">
            <stop stop-color="#FFFFFF" stop-opacity="0" offset="0.0655594406%"></stop>
            <stop stop-color="#FFFFFF" offset="100%"></stop>
        </linearGradient>
        <linearGradient x1="95.9945614%" y1="146.984484%" x2="30.948103%" y2="83.5725861%" id="linearGradient-5">
            <stop stop-color="#FFFFFF" stop-opacity="0" offset="0.0655594406%"></stop>
            <stop stop-color="#FFFFFF" offset="100%"></stop>
        </linearGradient>
        <linearGradient x1="100%" y1="125.169115%" x2="29.2889676%" y2="76.0208795%" id="linearGradient-6">
            <stop stop-color="#FFFFFF" stop-opacity="0" offset="0.0655594406%"></stop>
            <stop stop-color="#FFFFFF" offset="100%"></stop>
        </linearGradient>
        <linearGradient x1="100%" y1="137.457545%" x2="29.2889676%" y2="80.2746979%" id="linearGradient-7">
            <stop stop-color="#FFFFFF" stop-opacity="0" offset="0.0655594406%"></stop>
            <stop stop-color="#FFFFFF" offset="100%"></stop>
        </linearGradient>
        <linearGradient x1="33.9261014%" y1="100%" x2="33.9261014%" y2="-5.29668901e-15%" id="linearGradient-8">
            <stop stop-color="#FFFFFF" stop-opacity="0" offset="0.0655594406%"></stop>
            <stop stop-color="#FFFFFF" stop-opacity="0.2" offset="100%"></stop>
        </linearGradient>
        <filter x="-14.2%" y="-40.6%" width="128.4%" height="181.2%" filterUnits="objectBoundingBox" id="filter-9">
            <feGaussianBlur stdDeviation="20.6871263" in="SourceGraphic"></feGaussianBlur>
        </filter>
        <linearGradient x1="0%" y1="50%" x2="100%" y2="50%" id="linearGradient-10">
            <stop stop-color="#3881FC" offset="0%"></stop>
            <stop stop-color="#0F376B" offset="100%"></stop>
        </linearGradient>
        <linearGradient x1="0%" y1="50%" x2="100%" y2="50%" id="linearGradient-11">
            <stop stop-color="#3881FC" offset="0%"></stop>
            <stop stop-color="#0F376B" offset="100%"></stop>
        </linearGradient>
        <linearGradient x1="100%" y1="50%" x2="-6.88338275e-13%" y2="50%" id="linearGradient-12">
            <stop stop-color="#5CF9ED" offset="100%"></stop>
            <stop stop-color="#3FF6E5" stop-opacity="0" offset="0%"></stop>
        </linearGradient>
        <linearGradient x1="-6.88338275e-13%" y1="50%" x2="100%" y2="50%" id="linearGradient-13">
            <stop stop-color="#73FBF4" offset="0%"></stop>
            <stop stop-color="#5CF9ED" stop-opacity="0" offset="100%"></stop>
        </linearGradient>
    </defs>
    <g id="Page-1" stroke="none" stroke-width="1" fill="none" fill-rule="evenodd">
        <g id="home-copy" transform="translate(-151.000000, -154.000000)">
            <g id="zhenzhu1" transform="translate(211.000000, 154.000000)">
                <g id="Group-4" transform="translate(0.000000, 21.000000)">
                    <g id="Group-6" filter="url(#filter-2)" transform="translate(68.000000, 420.000000)" fill-rule="nonzero">
                        <path d="M52.6441645,35.16 L58.6469199,40.2 C49.8028603,49.16 37.7773404,55.76 22.5703602,60 C20.8895887,57.16 19.3688906,54.74 18.0082661,52.74 C33.0951912,49.02 44.6404907,43.16 52.6441645,35.16 Z M21.5498918,4.02 L21.5498918,12.24 L14.9468609,12.24 L14.9468609,23.22 L19.62901,23.22 L19.62901,31.5 L14.9468609,31.5 L14.9468609,43.08 C16.9077609,42.56 18.8486518,42.02 20.7695336,41.46 C20.6494784,43.94 20.6294693,46.74 20.709506,49.86 C13.8263465,51.62 7.34337073,53.42 1.26057863,55.26 L0,46.56 C2.32106541,46.08 4.62212163,45.58 6.90316867,45.06 L6.90316867,31.5 L1.38063373,31.5 L1.38063373,23.22 L6.90316867,23.22 L6.90316867,12.24 L0.66030309,12.24 L0.66030309,4.02 L21.5498918,4.02 Z M46.5213541,25.8 L52.4040543,30.66 C44.7605458,37.14 36.0565505,42.6 26.2920685,47.04 C25.2515909,44.96 23.6908745,42.64 21.6099193,40.08 C31.4144197,36.4 39.7182313,31.64 46.5213541,25.8 Z M39.678213,16.74 L45.0806928,21.72 C39.4781211,26.68 33.1352096,30.96 26.0519583,34.56 C25.1315358,33.04 23.6708653,30.9 21.6699469,28.14 C28.3129961,25.18 34.3157515,21.38 39.678213,16.74 Z M43.5199764,0.06 L42.6795906,1.38 C47.4417766,7.74 53.2444401,12.48 60.0875812,15.6 C58.8470117,17.6 57.4263596,20.08 55.8256249,23.04 C48.3021715,19 42.4794988,13.92 38.3576068,7.8 C34.2357148,14.2 28.5531063,19.66 21.3097815,24.18 C20.1492488,21.62 18.8286427,19.14 17.347963,16.74 C24.7913796,12.42 30.5540248,6.86 34.6358984,0.06 L43.5199764,0.06 Z" id="Shape" fill="url(#linearGradient-3)"></path>
                        <path d="M105.708522,58.68 L97.8449124,58.68 L97.8449124,39.96 C94.5033786,45.94 90.3814866,51.2 85.4792364,55.74 C84.458768,53.96 83.3582628,52.14 82.1777209,50.28 C75.9948829,51.98 69.611953,53.88 63.0289313,55.98 L61.3481598,47.46 L68.3713836,45.81 L68.3713836,31.44 L62.5487109,31.44 L62.5487109,23.16 L68.3713836,23.16 L68.3713836,11.7 L62.0084629,11.7 L62.0084629,3.48 L82.5979138,3.48 L82.5979138,11.7 L76.1749656,11.7 L76.1749656,23.16 L81.757528,23.16 L81.757528,31.44 L76.1749656,31.44 L76.1749656,43.83 C78.3159483,43.27 80.3969035,42.7 82.4178311,42.12 C82.3177852,43.7 82.2677623,45.21 82.2677623,46.65 C87.23004,42.79 91.4919963,38.04 95.0536312,32.4 L83.4382995,32.4 L83.4382995,25.08 L97.8449124,25.08 L97.8449124,17.16 L91.8721708,17.16 C91.3119137,19.4 90.7216427,21.62 90.101358,23.82 L82.7779965,21.84 C85.0590435,15.52 86.6597783,9.32 87.5802007,3.24 L94.6634521,4.2 C94.3032868,6.1 93.9231122,7.98 93.5229286,9.84 L97.8449124,9.84 L97.8449124,0 L105.708522,0 L105.708522,9.84 L118.794529,9.84 L118.794529,17.16 L105.708522,17.16 L105.708522,25.08 L120.23519,25.08 L120.23519,32.4 L108.289707,32.4 C111.231057,38.22 115.533032,42.98 121.195631,46.68 C119.514859,50.08 118.194253,52.86 117.233812,55.02 C112.251525,50.76 108.409762,45.67 105.708522,39.75 L105.708522,58.68 Z" id="Path" fill="url(#linearGradient-4)"></path>
                        <path d="M136.202519,58.02 C135.602244,55.22 134.901922,52.22 134.101555,49.02 C136.582694,49.18 138.623631,49.26 140.224365,49.26 C141.184806,49.26 141.930148,49.055 142.460392,48.645 C142.990635,48.235 143.315784,47.67 143.435839,46.95 C143.555895,46.23 143.695959,43.195 143.856032,37.845 C144.016106,32.495 144.126156,25.82 144.186184,17.82 L138.363511,17.82 C138.14341,36.82 134.541757,50.74 127.558551,59.58 C126.157909,56.86 124.577183,54 122.816375,51 C127.818671,43.9 130.40986,32.84 130.589943,17.82 L123.716788,17.82 L123.716788,9.96 L130.770026,9.96 C130.830053,6.52 130.860067,3.22 130.860067,0.06 L138.663649,0.06 L138.51358,9.96 L152.109821,9.96 L151.719642,34.2 L151.329463,48.27 C151.229417,51.13 150.624139,53.3 149.513629,54.78 C148.403119,56.26 147.082513,57.17 145.551811,57.51 C144.021108,57.85 140.904678,58.02 136.202519,58.02 Z M155.651447,58.02 L155.651447,5.1 L179.902578,5.1 L179.902578,57.66 L171.858886,57.66 L171.858886,52.74 L163.695139,52.74 L163.695139,58.02 L155.651447,58.02 Z M171.858886,12.96 L163.695139,12.96 L163.695139,44.88 L171.858886,44.88 L171.858886,12.96 Z" id="Shape" fill="url(#linearGradient-5)"></path>
                        <polygon id="Path" fill="url(#linearGradient-6)" points="185.064948 47.46 209.196024 47.46 209.196024 13.08 188.306436 13.08 188.306436 4.56 240.410352 4.56 240.410352 13.08 219.040543 13.08 219.040543 47.46 243.471758 47.46 243.471758 55.98 185.064948 55.98"></polygon>
                        <path d="M253.016139,3.36 L305,3.36 L305,12 L262.260382,12 L262.260382,28.02 C262.260382,41.46 259.198977,51.88 253.076166,59.28 C250.354917,56.04 248.033852,53.52 246.11297,51.72 C250.715082,46.24 253.016139,38.02 253.016139,27.06 L253.016139,3.36 Z" id="Path" fill="url(#linearGradient-7)"></path>
                    </g>
                    <path d="M173.708522,481.32 L173.708522,500.25 C176.409762,494.33 180.251525,489.24 185.233812,484.98 C186.194253,487.14 187.514859,489.92 189.195631,493.32 C183.533032,497.02 179.231057,501.78 176.289707,507.6 L176.289707,507.6 L188.23519,507.6 L188.23519,514.92 L173.708522,514.92 L173.708522,522.84 L186.794529,522.84 L186.794529,530.16 L173.708522,530.16 L173.708522,540 L165.844912,540 L165.844912,530.16 L161.522929,530.16 C161.923112,532.02 162.303287,533.9 162.663452,535.8 L162.663452,535.8 L155.580201,536.76 C154.659778,530.68 153.059043,524.48 150.777996,518.16 L150.777996,518.16 L158.101358,516.18 C158.721643,518.38 159.311914,520.6 159.872171,522.84 L159.872171,522.84 L165.844912,522.84 L165.844912,514.92 L151.4383,514.92 L151.4383,507.6 L163.053631,507.6 C159.491996,501.96 155.23004,497.21 150.267762,493.35 C150.267762,494.79 150.317785,496.3 150.417831,497.88 C148.396903,497.3 146.315948,496.73 144.174966,496.17 L144.174966,496.17 L144.174966,508.56 L149.757528,508.56 L149.757528,516.84 L144.174966,516.84 L144.174966,528.3 L150.597914,528.3 L150.597914,536.52 L130.008463,536.52 L130.008463,528.3 L136.371384,528.3 L136.371384,516.84 L130.548711,516.84 L130.548711,508.56 L136.371384,508.56 L136.371384,494.19 L129.34816,492.54 L131.028931,484.02 C137.611953,486.12 143.994883,488.02 150.177721,489.72 C151.358263,487.86 152.458768,486.04 153.479236,484.26 C158.381487,488.8 162.503379,494.06 165.844912,500.04 L165.844912,500.04 L165.844912,481.32 L173.708522,481.32 Z M89.3097815,515.82 C96.5531063,520.34 102.235715,525.8 106.357607,532.2 C110.479499,526.08 116.302171,521 123.825625,516.96 C125.42636,519.92 126.847012,522.4 128.087581,524.4 C121.24444,527.52 115.441777,532.26 110.679591,538.62 L110.679591,538.62 L111.519976,539.94 L102.635898,539.94 C98.5540248,533.14 92.7913796,527.58 85.347963,523.26 C86.8286427,520.86 88.1492488,518.38 89.3097815,515.82 Z M195.558551,480.42 C202.541757,489.26 206.14341,503.18 206.363511,522.18 L206.363511,522.18 L212.186184,522.18 C212.126156,514.18 212.016106,507.505 211.856032,502.155 C211.695959,496.805 211.555895,493.77 211.435839,493.05 C211.315784,492.33 210.990635,491.765 210.460392,491.355 C209.930148,490.945 209.184806,490.74 208.224365,490.74 C206.623631,490.74 204.582694,490.82 202.101555,490.98 C202.901922,487.78 203.602244,484.78 204.202519,481.98 C208.904678,481.98 212.021108,482.15 213.551811,482.49 C215.082513,482.83 216.403119,483.74 217.513629,485.22 C218.624139,486.7 219.229417,488.87 219.329463,491.73 L219.329463,491.73 L219.719642,505.8 L220.109821,530.04 L206.51358,530.04 L206.663649,539.94 L198.860067,539.94 C198.860067,536.78 198.830053,533.48 198.770026,530.04 L198.770026,530.04 L191.716788,530.04 L191.716788,522.18 L198.589943,522.18 C198.40986,507.16 195.818671,496.1 190.816375,489 C192.577183,486 194.157909,483.14 195.558551,480.42 Z M321.076166,480.72 C327.198977,488.12 330.260382,498.54 330.260382,511.98 L330.260382,511.98 L330.260382,528 L373,528 L373,536.64 L321.016139,536.64 L321.016139,512.94 C321.016139,501.98 318.715082,493.76 314.11297,488.28 C316.033852,486.48 318.354917,483.96 321.076166,480.72 Z M69.2605786,484.74 C75.3433707,486.58 81.8263465,488.38 88.709506,490.14 C88.6294693,493.26 88.6494784,496.06 88.7695336,498.54 C86.8486518,497.98 84.9077609,497.44 82.9468609,496.92 L82.9468609,496.92 L82.9468609,508.5 L87.62901,508.5 L87.62901,516.78 L82.9468609,516.78 L82.9468609,527.76 L89.5498918,527.76 L89.5498918,535.98 L68.6603031,535.98 L68.6603031,527.76 L74.9031687,527.76 L74.9031687,516.78 L69.3806337,516.78 L69.3806337,508.5 L74.9031687,508.5 L74.9031687,494.94 C72.6221216,494.42 70.3210654,493.92 68,493.44 L68,493.44 Z M311.471758,484.02 L311.471758,492.54 L287.040543,492.54 L287.040543,526.92 L308.410352,526.92 L308.410352,535.44 L256.306436,535.44 L256.306436,526.92 L277.196024,526.92 L277.196024,492.54 L253.064948,492.54 L253.064948,484.02 L311.471758,484.02 Z M231.695139,481.98 L231.695139,487.26 L239.858886,487.26 L239.858886,482.34 L247.902578,482.34 L247.902578,534.9 L223.651447,534.9 L223.651447,481.98 L231.695139,481.98 Z M239.858886,495.12 L231.695139,495.12 L231.695139,527.04 L239.858886,527.04 L239.858886,495.12 Z M94.0519583,505.44 C101.13521,509.04 107.478121,513.32 113.080693,518.28 L113.080693,518.28 L107.678213,523.26 C102.315751,518.62 96.3129961,514.82 89.6699469,511.86 C91.6708653,509.1 93.1315358,506.96 94.0519583,505.44 Z M94.2920685,492.96 C104.056551,497.4 112.760546,502.86 120.404054,509.34 L120.404054,509.34 L114.521354,514.2 C107.718231,508.36 99.4144197,503.6 89.6099193,499.92 C91.6908745,497.36 93.2515909,495.04 94.2920685,492.96 Z M90.5703602,480 C105.77734,484.24 117.80286,490.84 126.64692,499.8 L126.64692,499.8 L120.644165,504.84 C112.640491,496.84 101.095191,490.98 86.0082661,487.26 C87.3688906,485.26 88.8895887,482.84 90.5703602,480 Z" id="Combined-Shape" fill="url(#linearGradient-8)" fill-rule="nonzero"></path>
                    <g id="Group" transform="translate(0.000000, 0.000000)">
                        <g id="Group-10" fill-rule="nonzero">
                            <g id="Group-5">
                                <g id="base" transform="translate(0.000000, 163.319418)">
                                    <polygon id="shadow" fill="#000000" opacity="0.5" filter="url(#filter-9)" points="439.407785 144.113206 233.543078 222.361622 2.18111677 147.842428 208.045823 69.58314"></polygon>
                                    <polygon id="Path" fill="url(#linearGradient-10)" points="439.462313 74.5300664 233.597606 152.778482 2.23564469 78.2592878 208.100351 -5.67619982e-14"></polygon>
                                    <polygon id="Path" fill="url(#linearGradient-11)" points="233.684851 153.3221 232.997799 182.50353 -1.9052794e-14 107.440717 0.687051783 78.2701602"></polygon>
                                    <polygon id="Path" fill="#0F376B" points="441 74.519194 440.302043 103.700623 232.997799 182.50353 233.684851 153.3221"></polygon>
                                </g>
                                <g id="Group-7" transform="translate(97.059696, 0.000000)">
                                    <g id="Group-8" transform="translate(61.071270, 0.000000)">
                                        <polygon id="Path-Copy" fill="#3FF6E5" points="102.73372 17.5278974 54.3880372 35.9302719 0.0545279193 18.4049315 48.4002105 0"></polygon>
                                        <polygon id="Path-Copy-4" fill="#1F7C74" points="102.73372 17.5278974 54.3880372 35.9302719 54.5279193 194.894505 102.873602 176.489574"></polygon>
                                        <polygon id="Path-Copy-3" fill="#32CCBE" points="54.3335093 195.001665 54.3880372 35.9302719 0.0545279193 18.4049315 1.81148554e-13 177.473767"></polygon>
                                        <polygon id="Path-Copy-6" fill="#32CCBE" points="54.3335093 195.001665 54.3880372 35.9302719 0.0545279193 18.4049315 1.81148554e-13 177.473767"></polygon>
                                    </g>
                                    <g id="Group-8-Copy" transform="translate(0.000000, 92.547670)">
                                        <polygon id="Path-Copy" fill="#A297F7" points="95.9691379 16.4656006 50.782831 33.7526797 0 17.2894811 45.1863069 0"></polygon>
                                        <polygon id="Path-Copy-4" fill="#412AA2" points="95.8401401 16.8012167 51.2562441 33.7526797 51.3852419 130.655534 95.9691379 113.701716"></polygon>
                                        <polygon id="Path-Copy-3" fill="#4F39AB" points="51.2048561 130.655534 51.2562441 33.6660577 0.0513880714 17.4207379 -3.5566164e-16 114.407844"></polygon>
                                    </g>
                                    <g id="Group-8-Copy-2" transform="translate(152.678174, 119.767573)">
                                        <polygon id="Path-Copy" fill="#628FE2" points="70.8862951 12.2164133 37.5100456 25.0423107 0 12.8276795 33.3762494 0"></polygon>
                                        <polygon id="Path-Copy-4" fill="#12336E" points="70.7887602 13.0655534 37.0789851 25.453161 37.17652 95.8140584 70.8862951 83.4247297"></polygon>
                                        <polygon id="Path-Copy-3" fill="#2251A4" points="37.0418108 95.8140584 37.0789851 24.9371333 0.0371743495 13.0655534 -2.57287144e-16 83.9407465"></polygon>
                                    </g>
                                </g>
                            </g>
                            <polygon id="Path" fill="#3FF6E5" points="242.51016 255.662268 235.163715 253.493711 274.414515 182.033772 281.76096 184.202329"></polygon>
                            <polygon id="Path" fill="#1F7C74" transform="translate(242.651591, 234.634270) rotate(-3.000000) translate(-242.651591, -234.634270) " points="284.238313 186.187309 304.266184 243.289462 181.036999 283.081877 217.495447 223.700989 241.640928 255.566424"></polygon>
                            <polygon id="Path" fill="#3FF6E5" points="183.251542 287.078726 176.013091 284.920806 209.352021 223.56652 216.588094 225.727748"></polygon>
                            <g id="Group-9-Copy" transform="translate(340.295707, 223.203204) scale(-1, 1) translate(-340.295707, -223.203204) translate(314.514564, 202.516078)">
                                <polygon id="Path" fill="#1F7C74" points="26.564424 29.3974952 23.6415181 28.5316599 39.2581047 2.07496941e-17 42.1810106 0.865835255"></polygon>
                                <polygon id="Path" fill="#3FF6E5" transform="translate(26.327627, 20.922673) rotate(-3.000000) translate(-26.327627, -20.922673) " points="42.7074669 1.84078171 50.595882 24.3317131 2.05937253 40.0048261 16.4193295 16.6163649 25.9295555 29.1672634"></polygon>
                                <polygon id="Path" fill="#1F7C74" points="2.91828192 41.3742525 -1.06177497e-16 40.5234032 13.4410524 16.3319418 16.3583758 17.1840951"></polygon>
                            </g>
                            <path id="Path-2" d="M373.525356,192.493444 L371.446,198.498 L439.851143,222.174292 L442.801476,223.195422 L439.855982,224.230429 L258.011,288.128 L260.118412,294.123911 L243.49887,292.073623 L255.182821,280.077868 L257.289,286.073 L436.187,223.211 L370.734,200.556 L368.655942,206.562566 L356.915651,194.621946 L373.525356,192.493444 Z" fill="#3FF6E5"></path>
                            <path id="Path-3" d="M66.5240615,105.868686 L73.9680421,120.868686 L67.612,120.868 L67.612,222.392 L162.321,250.759 L164.144725,244.671371 L176.378195,256.106189 L159.873045,258.933353 L161.696,252.845 L66.2116622,224.246221 L65.4352654,224.013678 L65.435,120.868 L59.0800809,120.868686 L66.5240615,105.868686 Z" fill="#3FF6E5"></path>
                        </g>
                        <g transform="translate(0.000000, 95.482455)" opacity="0.300000012">
                            <g>
                                <polygon id="Path-Copy-5" fill="url(#linearGradient-12)" points="233.684851 78.9159427 232.997799 108.139231 -1.9052794e-14 32.9687465 0.687051783 3.75634661"></polygon>
                                <polygon id="Path-Copy-2" fill="url(#linearGradient-13)" points="441 0 440.302043 29.2232878 232.997799 108.139231 233.684851 78.9159427"></polygon>
                            </g>
                        </g>
                        <g transform="translate(0.000000, 133.482455)" opacity="0.300000012">
                            <g>
                                <polygon id="Path-Copy-5" fill="url(#linearGradient-12)" points="233.684851 78.9159427 232.997799 108.139231 -1.9052794e-14 32.9687465 0.687051783 3.75634661"></polygon>
                                <polygon id="Path-Copy-2" fill="url(#linearGradient-13)" points="441 0 440.302043 29.2232878 232.997799 108.139231 233.684851 78.9159427"></polygon>
                            </g>
                        </g>
                        <g transform="translate(0.000000, 171.482455)" opacity="0.300000012">
                            <g>
                                <polygon id="Path-Copy-5" fill="url(#linearGradient-12)" points="233.684851 78.9159427 232.997799 108.139231 -1.9052794e-14 32.9687465 0.687051783 3.75634661"></polygon>
                                <polygon id="Path-Copy-2" fill="url(#linearGradient-13)" points="441 0 440.302043 29.2232878 232.997799 108.139231 233.684851 78.9159427"></polygon>
                            </g>
                        </g>
                        <g transform="translate(0.000000, 209.482455)" opacity="0.300000012">
                            <g>
                                <polygon id="Path-Copy-5" fill="url(#linearGradient-12)" points="233.684851 78.9159427 232.997799 108.139231 -1.9052794e-14 32.9687465 0.687051783 3.75634661"></polygon>
                                <polygon id="Path-Copy-2" fill="url(#linearGradient-13)" points="441 0 440.302043 29.2232878 232.997799 108.139231 233.684851 78.9159427"></polygon>
                            </g>
                        </g>
                    </g>
                </g>
                <rect id="Rectangle" stroke="#979797" fill="#D8D8D8" opacity="0" x="0.5" y="0.5" width="440" height="440"></rect>
            </g>
        </g>
    </g>
</svg>