<?xml version="1.0" encoding="UTF-8"?>
<svg width="562px" height="565px" viewBox="0 0 562 565" version="1.1" xmlns="http://www.w3.org/2000/svg" xmlns:xlink="http://www.w3.org/1999/xlink">
    <title>zhenzhu2</title>
    <defs>
        <linearGradient x1="84.3739594%" y1="139.452666%" x2="29.2889676%" y2="83.3937947%" id="linearGradient-1">
            <stop stop-color="#FFFFFF" stop-opacity="0" offset="0%"></stop>
            <stop stop-color="#FFFFFF" offset="100%"></stop>
        </linearGradient>
        <path d="M101.245894,496.316206 L100,487.719368 C102.294026,487.245059 104.568277,486.750988 106.822751,486.237154 L106.822751,472.837945 L101.36455,472.837945 L101.36455,464.656126 L106.822751,464.656126 L106.822751,453.806324 L100.652611,453.806324 L100.652611,445.683794 L121.298848,445.683794 L121.298848,453.806324 L114.772738,453.806324 L114.772738,464.656126 L119.400343,464.656126 L119.400343,472.837945 L114.772738,472.837945 L114.772738,484.280632 C116.710795,483.766798 118.629076,483.233202 120.52758,482.679842 C120.408924,485.130435 120.389148,487.897233 120.468252,490.980237 C113.665277,492.719368 107.257825,494.498024 101.245894,496.316206 Z M159.387595,457.126482 C158.161477,459.102767 156.757375,461.55336 155.175288,464.478261 C147.739479,460.486166 141.984637,455.466403 137.910762,449.418972 C133.836888,455.743083 128.220479,461.13834 121.061535,465.604743 C119.914522,463.075099 118.6093,460.624506 117.145869,458.252964 C124.502574,453.98419 130.198088,448.490119 134.23241,441.770751 L143.012993,441.770751 L142.182398,443.075099 C146.889107,449.359684 152.624173,454.043478 159.387595,457.126482 Z M152.03089,476.454545 L157.963717,481.434783 C149.222685,490.288538 137.337256,496.810277 122.307428,501 C120.646237,498.193676 119.143254,495.802372 117.79848,493.826087 C132.709651,490.150198 144.120454,484.359684 152.03089,476.454545 Z M145.979407,467.205534 L151.793577,472.007905 C144.239111,478.411067 135.636512,483.806324 125.985781,488.193676 C124.957424,486.13834 123.414889,483.84585 121.358176,481.316206 C131.04846,477.679842 139.255536,472.976285 145.979407,467.205534 Z M139.215984,458.252964 L144.555528,463.173913 C139.018223,468.075099 132.749203,472.304348 125.748468,475.86166 C124.838768,474.359684 123.395113,472.245059 121.417504,469.517787 C127.983166,466.592885 133.915992,462.837945 139.215984,458.252964 Z" id="path-2"></path>
        <filter x="-8.4%" y="-8.4%" width="125.3%" height="133.8%" filterUnits="objectBoundingBox" id="filter-3">
            <feOffset dx="5" dy="10" in="SourceAlpha" result="shadowOffsetOuter1"></feOffset>
            <feColorMatrix values="0 0 0 0 0   0 0 0 0 0   0 0 0 0 0  0 0 0 0.3 0" type="matrix" in="shadowOffsetOuter1"></feColorMatrix>
        </filter>
        <linearGradient x1="84.3739594%" y1="136.420716%" x2="29.2889676%" y2="82.2619299%" id="linearGradient-4">
            <stop stop-color="#FFFFFF" stop-opacity="0" offset="0%"></stop>
            <stop stop-color="#FFFFFF" offset="100%"></stop>
        </linearGradient>
        <path d="M204.477078,499.695652 L196.705075,499.695652 L196.705075,481.197628 C193.402468,487.106719 189.328594,492.304348 184.483452,496.790514 C183.474871,495.031621 182.387186,493.233202 181.220397,491.395257 C175.109586,493.075099 168.801013,494.952569 162.29468,497.027668 L160.633489,488.608696 L167.574896,486.978261 L167.574896,472.778656 L161.820054,472.778656 L161.820054,464.596838 L167.574896,464.596838 L167.574896,453.272727 L161.2861,453.272727 L161.2861,445.150198 L181.635695,445.150198 L181.635695,453.272727 L175.28757,453.272727 L175.28757,464.596838 L180.805099,464.596838 L180.805099,472.778656 L175.28757,472.778656 L175.28757,485.021739 C177.403612,484.468379 179.460325,483.905138 181.45771,483.332016 C181.35883,484.893281 181.30939,486.385375 181.30939,487.8083 C186.21386,483.994071 190.426167,479.300395 193.94631,473.727273 L182.466291,473.727273 L182.466291,466.494071 L196.705075,466.494071 L196.705075,458.667984 L190.801912,458.667984 C190.248182,460.881423 189.664787,463.075099 189.051728,465.249012 L181.81368,463.29249 C184.068154,457.047431 185.650241,450.920949 186.559941,444.913043 L193.560677,445.86166 C193.204707,447.73913 192.828961,449.596838 192.43344,451.434783 L196.705075,451.434783 L196.705075,441.711462 L204.477078,441.711462 L204.477078,451.434783 L217.41064,451.434783 L217.41064,458.667984 L204.477078,458.667984 L204.477078,466.494071 L218.834518,466.494071 L218.834518,473.727273 L207.028193,473.727273 C209.935278,479.478261 214.187137,484.181818 219.783771,487.837945 C218.122579,491.197628 216.817357,493.944664 215.868105,496.079051 C210.943859,491.869565 207.14685,486.839921 204.477078,480.990119 L204.477078,499.695652 Z" id="path-5"></path>
        <filter x="-8.5%" y="-8.6%" width="125.4%" height="134.5%" filterUnits="objectBoundingBox" id="filter-6">
            <feOffset dx="5" dy="10" in="SourceAlpha" result="shadowOffsetOuter1"></feOffset>
            <feColorMatrix values="0 0 0 0 0   0 0 0 0 0   0 0 0 0 0  0 0 0 0.3 0" type="matrix" in="shadowOffsetOuter1"></feColorMatrix>
        </filter>
        <linearGradient x1="84.3739594%" y1="138.723681%" x2="29.2889676%" y2="83.1216556%" id="linearGradient-7">
            <stop stop-color="#FFFFFF" stop-opacity="0" offset="0%"></stop>
            <stop stop-color="#FFFFFF" offset="100%"></stop>
        </linearGradient>
        <path d="M221.326305,476.217391 C224.58936,470.762846 227.091035,465.328063 228.831331,459.913043 L222.275558,459.913043 L222.275558,452.501976 L229.572935,452.501976 L229.572935,442.067194 L237.522922,442.067194 L237.522922,452.501976 L243.396421,452.501976 L243.396421,459.913043 L237.522922,459.913043 L237.522922,464.596838 C240.192694,465.980237 242.664705,467.353755 244.938956,468.717391 L244.938956,445.387352 L279.112037,445.387352 L279.112037,452.73913 L253.0076,452.73913 L253.0076,459.498024 L277.094876,459.498024 L277.094876,483.56917 L253.0076,483.56917 L253.0076,490.328063 L279.942633,490.328063 L279.942633,497.679842 L244.938956,497.679842 L244.938956,469.695652 L241.735229,476.454545 C240.410231,475.249012 239.006129,474.043478 237.522922,472.837945 L237.522922,500.288538 L229.572935,500.288538 L229.572935,474.764822 C227.891967,478.855731 225.795702,482.936759 223.284138,487.007905 C222.888616,484.320158 222.236006,480.72332 221.326305,476.217391 Z M269.026232,476.335968 L269.026232,466.731225 L253.0076,466.731225 L253.0076,476.335968 L269.026232,476.335968 Z" id="path-8"></path>
        <filter x="-8.5%" y="-8.6%" width="125.6%" height="134.4%" filterUnits="objectBoundingBox" id="filter-9">
            <feOffset dx="5" dy="10" in="SourceAlpha" result="shadowOffsetOuter1"></feOffset>
            <feColorMatrix values="0 0 0 0 0   0 0 0 0 0   0 0 0 0 0  0 0 0 0.3 0" type="matrix" in="shadowOffsetOuter1"></feColorMatrix>
        </filter>
        <linearGradient x1="83.8698811%" y1="139.931598%" x2="29.5926854%" y2="83.5725861%" id="linearGradient-10">
            <stop stop-color="#FFFFFF" stop-opacity="0" offset="0%"></stop>
            <stop stop-color="#FFFFFF" offset="100%"></stop>
        </linearGradient>
        <path d="M325.091444,448.766798 C331.182479,454.695652 336.818665,460.525692 342,466.256917 L335.414562,471.83004 L330.786958,466.375494 C313.779521,466.652174 299.006783,467.363636 286.468742,468.509881 L283.324344,461.513834 C291.116123,456.6917 298.828798,449.853755 306.462368,441 L314.234371,445.209486 C308.617962,450.505929 302.685135,455.683794 296.435891,460.743083 L324.972787,459.735178 L318.921304,453.094862 L325.091444,448.766798 Z M288.901201,500.110672 L288.901201,472.304348 L334.583967,472.304348 L334.583967,500.110672 L326.515322,500.110672 L326.515322,496.612648 L296.969846,496.612648 L296.969846,500.110672 L288.901201,500.110672 Z M326.515322,479.656126 L296.969846,479.656126 L296.969846,489.26087 L326.515322,489.26087 L326.515322,479.656126 Z" id="path-11"></path>
        <filter x="-6.8%" y="-6.8%" width="122.2%" height="127.1%" filterUnits="objectBoundingBox" id="filter-12">
            <feOffset dx="5" dy="8" in="SourceAlpha" result="shadowOffsetOuter1"></feOffset>
            <feColorMatrix values="0 0 0 0 0   0 0 0 0 0   0 0 0 0 0  0 0 0 0.3 0" type="matrix" in="shadowOffsetOuter1"></feColorMatrix>
        </filter>
        <filter x="-14.2%" y="-40.9%" width="128.4%" height="181.9%" filterUnits="objectBoundingBox" id="filter-13">
            <feGaussianBlur stdDeviation="20.6871263" in="SourceGraphic"></feGaussianBlur>
        </filter>
        <linearGradient x1="0%" y1="50%" x2="100%" y2="50%" id="linearGradient-14">
            <stop stop-color="#3881FC" offset="0%"></stop>
            <stop stop-color="#0F376B" offset="100%"></stop>
        </linearGradient>
        <linearGradient x1="0%" y1="50%" x2="100%" y2="50%" id="linearGradient-15">
            <stop stop-color="#3881FC" offset="0%"></stop>
            <stop stop-color="#0F376B" offset="100%"></stop>
        </linearGradient>
        <linearGradient x1="100%" y1="50%" x2="0%" y2="50%" id="linearGradient-16">
            <stop stop-color="#FFFFFF" offset="0%"></stop>
            <stop stop-color="#FFFFFF" stop-opacity="0" offset="100%"></stop>
        </linearGradient>
        <linearGradient x1="100%" y1="50%" x2="0%" y2="50%" id="linearGradient-17">
            <stop stop-color="#FFFFFF" stop-opacity="0" offset="0%"></stop>
            <stop stop-color="#FFFFFF" offset="100%"></stop>
        </linearGradient>
        <linearGradient x1="100%" y1="50%" x2="0%" y2="50%" id="linearGradient-18">
            <stop stop-color="#FFFFFF" offset="0%"></stop>
            <stop stop-color="#FFFFFF" stop-opacity="0" offset="100%"></stop>
        </linearGradient>
        <linearGradient x1="100%" y1="50%" x2="0%" y2="50%" id="linearGradient-19">
            <stop stop-color="#FFFFFF" stop-opacity="0" offset="0%"></stop>
            <stop stop-color="#FFFFFF" offset="100%"></stop>
        </linearGradient>
        <linearGradient x1="100%" y1="50%" x2="0%" y2="50%" id="linearGradient-20">
            <stop stop-color="#FFFFFF" offset="0%"></stop>
            <stop stop-color="#FFFFFF" stop-opacity="0" offset="100%"></stop>
        </linearGradient>
        <linearGradient x1="100%" y1="50%" x2="0%" y2="50%" id="linearGradient-21">
            <stop stop-color="#FFFFFF" stop-opacity="0" offset="0%"></stop>
            <stop stop-color="#FFFFFF" offset="100%"></stop>
        </linearGradient>
        <linearGradient x1="50%" y1="82.9182574%" x2="50%" y2="23.1055521%" id="linearGradient-22">
            <stop stop-color="#FFFFFF" stop-opacity="0.2" offset="0%"></stop>
            <stop stop-color="#FFFFFF" stop-opacity="0" offset="100%"></stop>
        </linearGradient>
    </defs>
    <g id="Page-1" stroke="none" stroke-width="1" fill="none" fill-rule="evenodd">
        <g id="home-copy" transform="translate(-680.000000, -154.000000)">
            <g id="zhenzhu2" transform="translate(740.000000, 154.000000)">
                <g id="珍珠柜台">
                    <g id="Shape" fill-rule="nonzero">
                        <use fill="black" fill-opacity="1" filter="url(#filter-3)" xlink:href="#path-2"></use>
                        <use fill="url(#linearGradient-1)" xlink:href="#path-2"></use>
                    </g>
                    <g id="Path" fill-rule="nonzero">
                        <use fill="black" fill-opacity="1" filter="url(#filter-6)" xlink:href="#path-5"></use>
                        <use fill="url(#linearGradient-4)" xlink:href="#path-5"></use>
                    </g>
                    <g id="Shape" fill-rule="nonzero">
                        <use fill="black" fill-opacity="1" filter="url(#filter-9)" xlink:href="#path-8"></use>
                        <use fill="url(#linearGradient-7)" xlink:href="#path-8"></use>
                    </g>
                    <g id="Shape" fill-rule="nonzero">
                        <use fill="black" fill-opacity="1" filter="url(#filter-12)" xlink:href="#path-11"></use>
                        <use fill="url(#linearGradient-10)" xlink:href="#path-11"></use>
                    </g>
                    <g id="Group-3">
                        <g id="Group" transform="translate(0.000000, 15.000000)">
                            <g>
                                <g transform="translate(0.000000, 171.000000)" fill-rule="nonzero" id="base">
                                    <g>
                                        <polygon id="shadow" fill="#000000" opacity="0.5" filter="url(#filter-13)" points="439.407785 143.025576 233.543078 220.683447 2.18111677 146.726653 208.045823 69.0579924"></polygon>
                                        <polygon id="Path" fill="url(#linearGradient-14)" points="439.462313 73.967584 233.597606 151.625455 2.23564469 77.6686608 208.100351 -5.63336124e-14"></polygon>
                                        <polygon id="Path" fill="url(#linearGradient-15)" points="233.684851 152.16497 232.997799 181.126166 -1.9052794e-14 106.629856 0.687051783 77.6794511"></polygon>
                                        <polygon id="Path" fill="#0F376B" points="441 73.9567937 440.302043 102.917989 232.997799 181.126166 233.684851 152.16497"></polygon>
                                    </g>
                                </g>
                                <g transform="translate(68.000000, 0.000000)">
                                    <g transform="translate(32.000000, 0.000000)">
                                        <polygon id="Fill-4" fill="#3560AB" points="215.272727 195.142739 119.853412 230.753846 24.7272727 195.252132 120.146588 159.641026"></polygon>
                                        <polygon id="Fill-5" fill="#73A4F8" points="0 238.141272 120.727273 283 120.727273 230.208041 24.5505686 194.471795"></polygon>
                                        <polygon id="Fill-6" fill="#4471C0" points="119.272727 283 240 238.197 215.74915 194.471795 119.272727 230.276069"></polygon>
                                        <polygon id="Fill-7" fill="#8467EF" points="53.5116419 136.420513 26.1818182 186.126329 120.727273 222.046154 120.727273 161.955957"></polygon>
                                        <polygon id="Fill-8" fill="#5C42BD" points="188.636364 137.090013 120.852085 162.54359 53.3636364 137.202294 121.144665 111.748718"></polygon>
                                        <polygon id="Fill-9" fill="#6149B8" points="120.727273 162.034517 120.727273 222.046154 215.272727 186.061769 188.027808 136.420513"></polygon>
                                        <polygon id="Fill-10" fill="#853AB1" points="161 80.0394234 120.852804 95.3333333 81 80.1503202 121.147196 64.8564103"></polygon>
                                        <polygon id="Fill-11" fill="#B36DDB" points="120.727273 95.0189351 80.1602382 79.8205128 52.3636364 129.676074 120.727273 155.287179"></polygon>
                                        <polygon id="Fill-12" fill="#9249BC" points="161.41562 79.8205128 120.727273 95.1074578 120.727273 155.287179 189.090909 130.248218"></polygon>
                                        <polygon id="Fill-13" fill="#71D4EC" points="120.727273 0 80 72.0309021 120.727273 87.0769231"></polygon>
                                        <polygon id="Fill-14" fill="#42A6BF" points="119.272727 0 119.272727 87.0769231 160 71.9210059"></polygon>
                                    </g>
                                    <g transform="translate(0.000000, 81.000000)" opacity="0.300000012">
                                        <g>
                                            <polygon id="Fill-5-Copy" fill="url(#linearGradient-16)" points="0 161.754436 150.909091 218 150.909091 151.807452 30.6882107 107"></polygon>
                                            <polygon id="Fill-6-Copy" fill="url(#linearGradient-17)" points="149.090909 218 300 161.824311 269.686437 107 149.090909 151.892748"></polygon>
                                            <polygon id="Fill-5-Copy" fill="url(#linearGradient-18)" points="36 95.4223561 153 139 153 87.7156836 59.7926067 53"></polygon>
                                            <polygon id="Fill-6-Copy" fill="url(#linearGradient-19)" points="152 139 269 95.4764928 245.497858 53 152 87.7817685"></polygon>
                                            <polygon id="Fill-5-Copy" fill="url(#linearGradient-20)" points="66 30.5835591 150 62 150 25.0275858 83.0818715 0"></polygon>
                                            <polygon id="Fill-6-Copy" fill="url(#linearGradient-21)" points="150 62 234 30.6225879 217.126668 0 150 25.0752284"></polygon>
                                        </g>
                                    </g>
                                </g>
                            </g>
                            <g transform="translate(72.000000, 42.000000)" fill="#3EF5E4" fill-rule="nonzero">
                                <g>
                                    <path id="Path-4-Copy" d="M97.3889317,-0.737005125 L96.9716628,16.0033274 L91.351,13.037 L90.1189587,15.3725896 C32.6997672,124.19909 2.87001585,181.115229 1.05765016,185.292954 L1.01092182,185.404369 L-1.01092182,184.595631 C0.299259501,181.320178 30.2939189,124.086937 89.4236524,12.0240287 L83.8046584,9.05484683 L97.3889317,-0.737005125 Z"></path>
                                    <path id="Path-4-Copy-2" d="M295.388932,-0.737005125 L294.971663,16.0033274 L289.351,13.037 L288.118959,15.3725896 C230.699767,124.19909 200.870016,181.115229 199.05765,185.292954 L199.010922,185.404369 L196.989078,184.595631 C198.29926,181.320178 228.293919,124.086937 287.423652,12.0240287 L281.804658,9.05484683 L295.388932,-0.737005125 Z" transform="translate(246.500000, 92.500000) scale(-1, 1) translate(-246.500000, -92.500000) "></path>
                                </g>
                            </g>
                        </g>
                        <rect id="Rectangle" stroke="#979797" fill="#D8D8D8" opacity="0" x="0.5" y="0.5" width="440" height="440"></rect>
                    </g>
                </g>
                <g id="珍珠柜台" transform="translate(100.000000, 501.000000)"></g>
                <path d="M334.583967,536.371542 L334.583967,564.177866 L326.515322,564.177866 L326.515322,560.679842 L296.969846,560.679842 L296.969846,564.177866 L288.901201,564.177866 L288.901201,536.371542 L334.583967,536.371542 Z M152.03089,538.980237 L157.963717,543.960474 C149.222685,552.814229 137.337256,559.335968 122.307428,563.525692 C120.646237,560.719368 119.143254,558.328063 117.79848,556.351779 C132.709651,552.675889 144.120454,546.885375 152.03089,538.980237 Z M204.477078,504.355731 L204.477078,514.079051 L217.41064,514.079051 L217.41064,521.312253 L204.477078,521.312253 L204.477078,529.13834 L218.834518,529.13834 L218.834518,536.371542 L207.028193,536.371542 C209.935278,542.12253 214.187137,546.826087 219.783771,550.482213 C218.122579,553.841897 216.817357,556.588933 215.868105,558.72332 C210.943859,554.513834 207.14685,549.48419 204.477078,543.634387 L204.477078,562.339921 L196.705075,562.339921 L196.705075,543.841897 C193.402468,549.750988 189.328594,554.948617 184.483452,559.434783 C183.474871,557.675889 182.387186,555.87747 181.220397,554.039526 C175.109586,555.719368 168.801013,557.596838 162.29468,559.671937 L160.633489,551.252964 L167.574896,549.62253 L167.574896,535.422925 L161.820054,535.422925 L161.820054,527.241107 L167.574896,527.241107 L167.574896,515.916996 L161.2861,515.916996 L161.2861,507.794466 L181.635695,507.794466 L181.635695,515.916996 L175.28757,515.916996 L175.28757,527.241107 L180.805099,527.241107 L180.805099,535.422925 L175.28757,535.422925 L175.28757,547.666008 C177.403612,547.112648 179.460325,546.549407 181.45771,545.976285 C181.35883,547.537549 181.30939,549.029644 181.30939,550.452569 C186.21386,546.63834 190.426167,541.944664 193.94631,536.371542 L182.466291,536.371542 L182.466291,529.13834 L196.705075,529.13834 L196.705075,521.312253 L190.801912,521.312253 C190.248182,523.525692 189.664787,525.719368 189.051728,527.893281 L181.81368,525.936759 C184.068154,519.6917 185.650241,513.565217 186.559941,507.557312 L193.560677,508.505929 C193.204707,510.383399 192.828961,512.241107 192.43344,514.079051 L196.705075,514.079051 L196.705075,504.355731 L204.477078,504.355731 Z M237.522922,504 L237.522922,514.434783 L243.396421,514.434783 L243.396421,521.84585 L237.522922,521.84585 L237.522922,526.529644 C240.192694,527.913043 242.664705,529.286561 244.938956,530.650198 L244.938956,507.320158 L279.112037,507.320158 L279.112037,514.671937 L253.0076,514.671937 L253.0076,521.43083 L277.094876,521.43083 L277.094876,545.501976 L253.0076,545.501976 L253.0076,552.26087 L279.942633,552.26087 L279.942633,559.612648 L244.938956,559.612648 L244.938956,531.628458 L241.735229,538.387352 C240.410231,537.181818 239.006129,535.976285 237.522922,534.770751 L237.522922,562.221344 L229.572935,562.221344 L229.572935,536.697628 C227.891967,540.788538 225.795702,544.869565 223.284138,548.940711 C222.888616,546.252964 222.236006,542.656126 221.326305,538.150198 C224.58936,532.695652 227.091035,527.26087 228.831331,521.84585 L222.275558,521.84585 L222.275558,514.434783 L229.572935,514.434783 L229.572935,504 L237.522922,504 Z M121.298848,508.209486 L121.298848,516.332016 L114.772738,516.332016 L114.772738,527.181818 L119.400343,527.181818 L119.400343,535.363636 L114.772738,535.363636 L114.772738,546.806324 C116.710795,546.29249 118.629076,545.758893 120.52758,545.205534 C120.408924,547.656126 120.389148,550.422925 120.468252,553.505929 C113.665277,555.245059 107.257825,557.023715 101.245894,558.841897 L100,550.245059 C102.294026,549.770751 104.568277,549.27668 106.822751,548.762846 L106.822751,535.363636 L101.36455,535.363636 L101.36455,527.181818 L106.822751,527.181818 L106.822751,516.332016 L100.652611,516.332016 L100.652611,508.209486 L121.298848,508.209486 Z M326.515322,543.72332 L296.969846,543.72332 L296.969846,553.328063 L326.515322,553.328063 L326.515322,543.72332 Z M145.979407,529.731225 L151.793577,534.533597 C144.239111,540.936759 135.636512,546.332016 125.985781,550.719368 C124.957424,548.664032 123.414889,546.371542 121.358176,543.841897 C131.04846,540.205534 139.255536,535.501976 145.979407,529.731225 Z M139.215984,520.778656 L144.555528,525.699605 C139.018223,530.600791 132.749203,534.83004 125.748468,538.387352 C124.838768,536.885375 123.395113,534.770751 121.417504,532.043478 C127.983166,529.118577 133.915992,525.363636 139.215984,520.778656 Z M269.026232,528.664032 L253.0076,528.664032 L253.0076,538.268775 L269.026232,538.268775 L269.026232,528.664032 Z M306.462368,505.067194 L314.234371,509.27668 C308.617962,514.573123 302.685135,519.750988 296.435891,524.810277 L324.972787,523.802372 L318.921304,517.162055 L325.091444,512.833992 C331.182479,518.762846 336.818665,524.592885 342,530.324111 L335.414562,535.897233 L330.786958,530.442688 C313.779521,530.719368 299.006783,531.43083 286.468742,532.577075 L283.324344,525.581028 C291.116123,520.758893 298.828798,513.920949 306.462368,505.067194 Z M143.012993,504.296443 L142.182398,505.600791 C146.889107,511.885375 152.624173,516.56917 159.387595,519.652174 C158.161477,521.628458 156.757375,524.079051 155.175288,527.003953 C147.739479,523.011858 141.984637,517.992095 137.910762,511.944664 C133.836888,518.268775 128.220479,523.664032 121.061535,528.130435 C119.914522,525.600791 118.6093,523.150198 117.145869,520.778656 C124.502574,516.509881 130.198088,511.01581 134.23241,504.296443 L143.012993,504.296443 Z" id="Combined-Shape" fill="url(#linearGradient-22)" fill-rule="nonzero" transform="translate(221.000000, 534.088933) scale(1, -1) translate(-221.000000, -534.088933) "></path>
            </g>
        </g>
    </g>
</svg>