<svg width="560" height="346" viewBox="0 0 560 346" fill="none" xmlns="http://www.w3.org/2000/svg">
<rect width="560" height="346" rx="6" fill="#0572D2" fill-opacity="0.03"/>
<rect x="0.5" y="0.5" width="559" height="345" rx="5.5" stroke="#071722" stroke-opacity="0.14"/>
<rect x="58.4844" y="26.3359" width="45.4831" height="45.4831" rx="11.5" fill="#EEF6FC"/>
<rect x="58.4844" y="26.3359" width="45.4831" height="45.4831" rx="11.5" stroke="#509EE3"/>
<path d="M87.5208 41.3297C87.5208 44.8061 84.7026 47.6243 81.2262 47.6243C77.7498 47.6243 74.9316 44.8061 74.9316 41.3297C74.9316 37.8533 77.7498 35.0352 81.2262 35.0352C84.7026 35.0352 87.5208 37.8533 87.5208 41.3297Z" fill="#E4ECFB" stroke="#509EE3" stroke-linecap="round" stroke-linejoin="round"/>
<path d="M71.2466 63.1174H91.2052C93.4169 63.1174 95.1205 61.2157 94.0877 59.26C92.5684 56.3833 89.1047 52.9492 81.2259 52.9492C73.347 52.9492 69.8834 56.3833 68.3641 59.26C67.3312 61.2157 69.0349 63.1174 71.2466 63.1174Z" fill="#E4ECFB" stroke="#509EE3" stroke-linecap="round" stroke-linejoin="round"/>
<rect x="454.961" y="26.3359" width="45.4831" height="45.4831" rx="11.5" fill="#EEF6FC"/>
<rect x="454.961" y="26.3359" width="45.4831" height="45.4831" rx="11.5" stroke="#509EE3"/>
<path d="M463.66 38.9087C463.66 36.7694 465.394 35.0352 467.534 35.0352H487.87C490.009 35.0352 491.744 36.7694 491.744 38.9087V59.2451C491.744 61.3844 490.009 63.1187 487.87 63.1187H467.534C465.394 63.1187 463.66 61.3844 463.66 59.2451V38.9087Z" fill="#E4ECFB" stroke="#509EE3" stroke-width="1.5" stroke-linecap="round" stroke-linejoin="round"/>
<path d="M477.271 52.9961C477.272 52.272 477.414 51.5547 477.691 50.8857C477.969 50.2167 478.375 49.6088 478.887 49.0967C479.399 48.5846 480.007 48.1785 480.676 47.9014C481.345 47.6242 482.063 47.4814 482.787 47.4814C482.95 47.4815 483.105 47.5462 483.22 47.6611C483.335 47.7759 483.399 47.9313 483.399 48.0938L483.399 52.9961C483.399 53.3344 483.125 53.6092 482.787 53.6094L477.885 53.6094C477.546 53.6094 477.271 53.3345 477.271 52.9961ZM482.174 52.3838L482.174 48.751C481.821 48.8019 481.476 48.8964 481.146 49.0332C480.625 49.2488 480.152 49.5647 479.754 49.9629C479.356 50.3612 479.039 50.8342 478.823 51.3545C478.686 51.6851 478.592 52.0312 478.541 52.3838L482.174 52.3838Z" fill="#509EE3"/>
<path d="M477.271 52.9961C477.272 52.272 477.414 51.5547 477.691 50.8857C477.969 50.2167 478.375 49.6088 478.887 49.0967C479.399 48.5846 480.007 48.1785 480.676 47.9014C481.345 47.6242 482.063 47.4814 482.787 47.4814C482.95 47.4815 483.105 47.5462 483.22 47.6611C483.335 47.7759 483.399 47.9313 483.399 48.0938L483.399 52.9961C483.399 53.3344 483.125 53.6092 482.787 53.6094L477.885 53.6094C477.546 53.6094 477.271 53.3345 477.271 52.9961ZM482.174 52.3838L482.174 48.751C481.821 48.8019 481.476 48.8964 481.146 49.0332C480.625 49.2488 480.152 49.5647 479.754 49.9629C479.356 50.3612 479.039 50.8342 478.823 51.3545C478.686 51.6851 478.592 52.0312 478.541 52.3838L482.174 52.3838Z" stroke="#509EE3"/>
<path d="M478.169 55.7822C478.001 55.4886 478.103 55.1136 478.396 54.9453C478.69 54.7774 479.064 54.8787 479.232 55.1719C479.471 55.5875 479.778 55.9612 480.144 56.2754C480.733 56.7826 481.45 57.1162 482.215 57.2383C482.98 57.3603 483.764 57.2664 484.479 56.9678C485.195 56.6692 485.815 56.177 486.271 55.5449C486.728 54.9126 487.001 54.1647 487.063 53.3848C487.123 52.6048 486.97 51.8227 486.617 51.126C486.265 50.4293 485.728 49.8445 485.067 49.4365C484.779 49.2588 484.689 48.8808 484.867 48.5928C485.045 48.3048 485.423 48.2158 485.711 48.3936C486.565 48.9206 487.257 49.6748 487.711 50.5723C488.165 51.4697 488.363 52.4759 488.285 53.4795C488.207 54.4832 487.854 55.4465 487.266 56.2617C486.678 57.0769 485.877 57.7125 484.951 58.0986C484.026 58.4847 483.012 58.6061 482.022 58.4482C481.033 58.2904 480.106 57.8598 479.345 57.2051C478.873 56.7995 478.476 56.3178 478.169 55.7822Z" fill="#509EE3"/>
<path d="M478.169 55.7822C478.001 55.4886 478.103 55.1136 478.396 54.9453C478.69 54.7774 479.064 54.8787 479.232 55.1719C479.471 55.5875 479.778 55.9612 480.144 56.2754C480.733 56.7826 481.45 57.1162 482.215 57.2383C482.98 57.3603 483.764 57.2664 484.479 56.9678C485.195 56.6692 485.815 56.177 486.271 55.5449C486.728 54.9126 487.001 54.1647 487.063 53.3848C487.123 52.6048 486.97 51.8227 486.617 51.126C486.265 50.4293 485.728 49.8445 485.067 49.4365C484.779 49.2588 484.689 48.8808 484.867 48.5928C485.045 48.3048 485.423 48.2158 485.711 48.3936C486.565 48.9206 487.257 49.6748 487.711 50.5723C488.165 51.4697 488.363 52.4759 488.285 53.4795C488.207 54.4832 487.854 55.4465 487.266 56.2617C486.678 57.0769 485.877 57.7125 484.951 58.0986C484.026 58.4847 483.012 58.6061 482.022 58.4482C481.033 58.2904 480.106 57.8598 479.345 57.2051C478.873 56.7995 478.476 56.3178 478.169 55.7822Z" stroke="#509EE3"/>
<path d="M473.344 41.9688L473.344 63.1196" stroke="#509EE3" stroke-width="1.5" stroke-linecap="round" stroke-linejoin="round"/>
<path d="M464.145 41.8164H491.26" stroke="#509EE3" stroke-width="1.5" stroke-linecap="round" stroke-linejoin="round"/>
<path d="M454.892 49.0806L440.521 49.0806C431.684 49.0806 424.521 56.244 424.521 65.0806L424.521 132.582C424.521 141.419 417.357 148.582 408.521 148.582L151.164 148.582C142.336 148.582 135.176 141.431 135.164 132.603L135.077 65.0584C135.065 56.23 127.905 49.0792 119.077 49.0792L104.09 49.0792" stroke="#509EE3"/>
<path d="M50.9408 84.6475H47.8715V93.0352H45.9437V84.6475H42.9154V83.082H50.9408V84.6475ZM59.5596 88.6738H55.4717V91.4834H60.25V93.0352H53.5439V83.082H60.2295V84.6475H55.4717V87.1562H59.5596V88.6738ZM69.8053 93.0352H67.8912L65.1227 86.6162V93.0352H63.1881V83.082H65.1227L67.8707 89.4736L67.8775 83.082H69.8053V93.0352ZM77.9455 90.957H74.9582L74.3703 93.0352H72.3469L75.6076 83.082H77.3508L80.55 93.0352H78.5266L77.9455 90.957ZM75.4299 89.3232H77.4943L76.4758 85.6592L75.4299 89.3232ZM89.4217 93.0352H87.5076L84.7391 86.6162V93.0352H82.8045V83.082H84.7391L87.4871 89.4736L87.4939 83.082H89.4217V93.0352ZM99.9818 84.6475H96.9125V93.0352H94.9848V84.6475H91.9564V83.082H99.9818V84.6475ZM117.178 90.957H114.191L113.603 93.0352H111.58L114.84 83.082H116.584L119.783 93.0352H117.759L117.178 90.957ZM114.663 89.3232H116.727L115.709 85.6592L114.663 89.3232Z" fill="#509EE3"/>
<path d="M435.32 93.0352V83.082H437.897C438.357 83.082 438.788 83.139 439.189 83.2529C439.59 83.3623 439.955 83.5195 440.283 83.7246C440.57 83.8932 440.825 84.1006 441.048 84.3467C441.276 84.5882 441.475 84.8525 441.643 85.1396C441.839 85.4906 441.99 85.8779 442.094 86.3018C442.204 86.7256 442.258 87.1768 442.258 87.6553V88.4756C442.258 88.9359 442.208 89.3711 442.108 89.7812C442.008 90.1914 441.866 90.5674 441.684 90.9092C441.511 91.2145 441.308 91.4971 441.076 91.7568C440.843 92.012 440.588 92.2262 440.31 92.3994C439.987 92.6045 439.629 92.7617 439.237 92.8711C438.85 92.9805 438.435 93.0352 437.993 93.0352H435.32ZM437.254 84.6406V91.4902H437.993C438.23 91.4902 438.451 91.4606 438.656 91.4014C438.861 91.3421 439.048 91.2555 439.216 91.1416C439.39 91.0231 439.545 90.8727 439.681 90.6904C439.823 90.5036 439.943 90.2871 440.044 90.041C440.126 89.8268 440.187 89.5898 440.228 89.3301C440.274 89.0658 440.296 88.7809 440.296 88.4756V87.6416C440.296 87.3545 440.274 87.0833 440.228 86.8281C440.187 86.5684 440.126 86.3314 440.044 86.1172C439.943 85.862 439.811 85.6341 439.647 85.4336C439.488 85.2331 439.301 85.069 439.087 84.9414C438.922 84.8457 438.74 84.7728 438.54 84.7227C438.344 84.668 438.129 84.6406 437.897 84.6406H437.254ZM450.064 90.957H447.076L446.488 93.0352H444.465L447.726 83.082H449.469L452.668 93.0352H450.645L450.064 90.957ZM447.548 89.3232H449.613L448.594 85.6592L447.548 89.3232ZM462.292 84.6475H459.222V93.0352H457.295V84.6475H454.266V83.082H462.292V84.6475ZM469.68 90.957H466.693L466.105 93.0352H464.081L467.342 83.082H469.085L472.285 93.0352H470.261L469.68 90.957ZM467.164 89.3232H469.229L468.21 85.6592L467.164 89.3232ZM479.762 90.4375C479.762 90.2598 479.73 90.0934 479.666 89.9385C479.607 89.7835 479.504 89.6377 479.358 89.501C479.208 89.3688 479.012 89.248 478.771 89.1387C478.534 89.0247 478.237 88.9199 477.882 88.8242C477.33 88.6738 476.845 88.4915 476.426 88.2773C476.011 88.0632 475.672 87.8285 475.407 87.5732C475.143 87.318 474.942 87.0355 474.806 86.7256C474.674 86.4157 474.607 86.0785 474.607 85.7139C474.607 85.2946 474.696 84.9141 474.874 84.5723C475.052 84.2305 475.298 83.9388 475.612 83.6973C475.927 83.4557 476.298 83.2712 476.727 83.1436C477.155 83.0114 477.62 82.9453 478.121 82.9453C478.641 82.9453 479.115 83.0205 479.543 83.1709C479.976 83.3213 480.347 83.5309 480.657 83.7998C480.967 84.0732 481.209 84.3968 481.382 84.7705C481.555 85.1442 481.642 85.5544 481.642 86.001H479.769C479.759 85.7777 479.718 85.5726 479.646 85.3857C479.577 85.1989 479.475 85.0371 479.338 84.9004C479.197 84.7682 479.021 84.6657 478.812 84.5928C478.606 84.5153 478.365 84.4766 478.087 84.4766C477.832 84.4766 477.604 84.5085 477.403 84.5723C477.207 84.6315 477.041 84.7158 476.904 84.8252C476.768 84.9391 476.663 85.0736 476.59 85.2285C476.521 85.3789 476.487 85.543 476.487 85.7207C476.487 85.9076 476.533 86.0762 476.624 86.2266C476.72 86.377 476.856 86.5114 477.034 86.6299C477.212 86.7529 477.426 86.8646 477.677 86.9648C477.932 87.0651 478.219 87.1585 478.538 87.2451C478.88 87.3408 479.206 87.457 479.516 87.5938C479.826 87.7305 480.11 87.8877 480.37 88.0654C480.762 88.3571 481.074 88.6966 481.307 89.084C481.539 89.4714 481.655 89.918 481.655 90.4238C481.655 90.8613 481.566 91.251 481.389 91.5928C481.215 91.93 480.974 92.2148 480.664 92.4473C480.354 92.6842 479.985 92.8643 479.557 92.9873C479.128 93.1058 478.661 93.165 478.155 93.165C477.659 93.165 477.166 93.0921 476.679 92.9463C476.196 92.7959 475.774 92.5771 475.414 92.29C475.072 92.0075 474.801 91.6748 474.601 91.292C474.405 90.9092 474.307 90.4603 474.307 89.9453H476.193C476.202 90.2461 476.255 90.5036 476.351 90.7178C476.446 90.932 476.581 91.1074 476.754 91.2441C476.923 91.3809 477.125 91.4811 477.362 91.5449C477.604 91.6087 477.868 91.6406 478.155 91.6406C478.41 91.6406 478.636 91.611 478.832 91.5518C479.033 91.4925 479.201 91.4105 479.338 91.3057C479.475 91.2008 479.579 91.0755 479.652 90.9297C479.725 90.7793 479.762 90.6152 479.762 90.4375ZM490.527 88.6738H486.439V91.4834H491.217V93.0352H484.511V83.082H491.197V84.6475H486.439V87.1562H490.527V88.6738ZM501.525 84.6475H498.455V93.0352H496.528V84.6475H493.499V83.082H501.525V84.6475ZM518.721 90.957H515.734L515.146 93.0352H513.122L516.383 83.082H518.126L521.326 93.0352H519.302L518.721 90.957ZM516.205 89.3232H518.27L517.251 85.6592L516.205 89.3232Z" fill="#509EE3"/>
<g opacity="0.5">
<rect x="58.4844" y="139.641" width="45.4831" height="45.4831" rx="11.5" fill="#F1F2F4"/>
<rect x="58.4844" y="139.641" width="45.4831" height="45.4831" rx="11.5" stroke="#8D93A5"/>
<path d="M87.5208 154.634C87.5208 158.111 84.7026 160.929 81.2262 160.929C77.7498 160.929 74.9316 158.111 74.9316 154.634C74.9316 151.158 77.7498 148.34 81.2262 148.34C84.7026 148.34 87.5208 151.158 87.5208 154.634Z" fill="#8D93A5" fill-opacity="0.3" stroke="#5A6072" stroke-linecap="round" stroke-linejoin="round"/>
<path d="M71.2466 176.422H91.2052C93.4169 176.422 95.1205 174.52 94.0877 172.565C92.5684 169.688 89.1047 166.254 81.2259 166.254C73.347 166.254 69.8834 169.688 68.3641 172.565C67.3312 174.52 69.0349 176.422 71.2466 176.422Z" fill="#8D93A5" fill-opacity="0.3" stroke="#5A6072" stroke-linecap="round" stroke-linejoin="round"/>
</g>
<g opacity="0.5">
<rect x="454.961" y="139.641" width="45.4831" height="45.4831" rx="11.5" fill="#F1F2F4"/>
<rect x="454.961" y="139.641" width="45.4831" height="45.4831" rx="11.5" stroke="#8D93A5"/>
<path d="M463.66 152.213C463.66 150.074 465.394 148.34 467.534 148.34H487.87C490.009 148.34 491.744 150.074 491.744 152.213V172.55C491.744 174.689 490.009 176.423 487.87 176.423H467.534C465.394 176.423 463.66 174.689 463.66 172.55V152.213Z" fill="#C6C9D2" fill-opacity="0.3" stroke="#5A6072" stroke-width="1.5" stroke-linecap="round" stroke-linejoin="round"/>
<path fill-rule="evenodd" clip-rule="evenodd" d="M483.398 166.305C483.398 165.967 483.124 165.692 482.786 165.692L477.883 165.692C477.721 165.692 477.565 165.757 477.45 165.872C477.335 165.987 477.27 166.142 477.27 166.305C477.27 167.029 477.413 167.746 477.69 168.416C477.967 169.085 478.374 169.693 478.886 170.205C479.398 170.717 480.006 171.123 480.675 171.4C481.344 171.678 482.061 171.82 482.786 171.82C483.124 171.82 483.398 171.546 483.398 171.207L483.398 166.305ZM478.54 166.918L482.173 166.918L482.173 170.551C481.82 170.5 481.475 170.405 481.144 170.268C480.624 170.053 480.151 169.737 479.752 169.338C479.354 168.94 479.038 168.467 478.822 167.947C478.686 167.616 478.591 167.27 478.54 166.918Z" fill="#5A6072" fill-opacity="0.5"/>
<path d="M484.957 169.855C484.664 170.024 484.562 170.398 484.731 170.692C484.899 170.985 485.273 171.087 485.567 170.919C486.103 170.612 486.585 170.215 486.99 169.744C487.645 168.982 488.075 168.056 488.233 167.066C488.391 166.076 488.27 165.062 487.884 164.137C487.498 163.211 486.862 162.41 486.047 161.822C485.231 161.234 484.269 160.881 483.265 160.803C482.261 160.725 481.255 160.923 480.357 161.377C479.46 161.831 478.706 162.523 478.179 163.377C478.001 163.665 478.09 164.043 478.378 164.221C478.666 164.398 479.044 164.309 479.221 164.021C479.629 163.36 480.214 162.823 480.911 162.471C481.608 162.118 482.389 161.964 483.169 162.025C483.95 162.086 484.697 162.36 485.33 162.816C485.962 163.272 486.454 163.893 486.753 164.608C487.052 165.324 487.145 166.108 487.023 166.873C486.901 167.638 486.568 168.355 486.061 168.944C485.747 169.31 485.373 169.617 484.957 169.855Z" fill="#5A6072" fill-opacity="0.5"/>
<path d="M473.344 155.273L473.344 176.424" stroke="#5A6072" stroke-width="1.5" stroke-linecap="round" stroke-linejoin="round"/>
<path d="M464.145 155.121H491.26" stroke="#5A6072" stroke-width="1.5" stroke-linecap="round" stroke-linejoin="round"/>
</g>
<path d="M104.467 162.379L454.891 162.379" stroke="#C6C9D2" stroke-linejoin="round" stroke-dasharray="6 6"/>
<path d="M104.833 275.685H119.202C128.039 275.685 135.202 268.522 135.202 259.685L135.202 192.426C135.202 183.589 142.366 176.426 151.202 176.426H408.546C417.374 176.426 424.534 183.577 424.546 192.405L424.633 259.707C424.645 268.536 431.805 275.686 440.633 275.686H454.893" stroke="#C6C9D2" stroke-dasharray="6 6"/>
<path d="M50.6771 197.952H47.6078V206.34H45.6801V197.952H42.6518V196.387H50.6771V197.952ZM59.2959 201.979H55.208V204.788H59.9863V206.34H53.2803V196.387H59.9658V197.952H55.208V200.461H59.2959V201.979ZM69.5416 206.34H67.6275L64.859 199.921V206.34H62.9244V196.387H64.859L67.607 202.778L67.6139 196.387H69.5416V206.34ZM77.6818 204.262H74.6945L74.1066 206.34H72.0832L75.3439 196.387H77.0871L80.2863 206.34H78.2629L77.6818 204.262ZM75.1662 202.628H77.2307L76.2121 198.964L75.1662 202.628ZM89.158 206.34H87.2439L84.4754 199.921V206.34H82.5408V196.387H84.4754L87.2234 202.778L87.2303 196.387H89.158V206.34ZM99.7182 197.952H96.6488V206.34H94.7211V197.952H91.6928V196.387H99.7182V197.952ZM112.006 206.34V196.387H115.349C115.892 196.387 116.384 196.441 116.826 196.551C117.272 196.66 117.653 196.826 117.967 197.05C118.282 197.273 118.523 197.556 118.692 197.897C118.865 198.239 118.952 198.643 118.952 199.107C118.947 199.408 118.893 199.693 118.788 199.962C118.687 200.226 118.537 200.459 118.337 200.659C118.227 200.769 118.102 200.869 117.961 200.96C117.824 201.051 117.671 201.129 117.503 201.192V201.199C117.831 201.29 118.09 201.407 118.282 201.548C118.478 201.689 118.642 201.853 118.774 202.04C118.911 202.241 119.011 202.459 119.075 202.696C119.143 202.929 119.177 203.17 119.177 203.421C119.177 203.899 119.095 204.321 118.931 204.686C118.767 205.05 118.532 205.355 118.227 205.602C117.922 205.848 117.55 206.032 117.113 206.155C116.675 206.278 116.183 206.34 115.636 206.34H112.006ZM113.934 201.951V204.788H115.643C115.894 204.788 116.117 204.756 116.313 204.692C116.514 204.629 116.68 204.542 116.812 204.433C116.958 204.31 117.067 204.161 117.14 203.988C117.218 203.815 117.256 203.621 117.256 203.407C117.256 203.184 117.227 202.983 117.168 202.806C117.113 202.628 117.024 202.478 116.901 202.354C116.778 202.227 116.618 202.129 116.422 202.061C116.226 201.992 115.994 201.956 115.725 201.951H113.934ZM113.934 200.563H115.363C115.655 200.559 115.912 200.525 116.135 200.461C116.359 200.393 116.539 200.292 116.675 200.16C116.789 200.055 116.876 199.928 116.935 199.777C116.999 199.627 117.031 199.456 117.031 199.265C117.031 199.064 117.004 198.889 116.949 198.738C116.899 198.588 116.821 198.463 116.716 198.362C116.58 198.221 116.395 198.118 116.163 198.055C115.935 197.991 115.666 197.957 115.356 197.952H113.934V200.563Z" fill="#8D93A5"/>
<path d="M435.32 206.34V196.387H437.897C438.357 196.387 438.788 196.444 439.189 196.558C439.59 196.667 439.955 196.824 440.283 197.029C440.57 197.198 440.825 197.405 441.048 197.651C441.276 197.893 441.475 198.157 441.643 198.444C441.839 198.795 441.99 199.183 442.094 199.606C442.204 200.03 442.258 200.481 442.258 200.96V201.78C442.258 202.241 442.208 202.676 442.108 203.086C442.008 203.496 441.866 203.872 441.684 204.214C441.511 204.519 441.308 204.802 441.076 205.062C440.843 205.317 440.588 205.531 440.31 205.704C439.987 205.909 439.629 206.066 439.237 206.176C438.85 206.285 438.435 206.34 437.993 206.34H435.32ZM437.254 197.945V204.795H437.993C438.23 204.795 438.451 204.765 438.656 204.706C438.861 204.647 439.048 204.56 439.216 204.446C439.39 204.328 439.545 204.177 439.681 203.995C439.823 203.808 439.943 203.592 440.044 203.346C440.126 203.132 440.187 202.895 440.228 202.635C440.274 202.37 440.296 202.086 440.296 201.78V200.946C440.296 200.659 440.274 200.388 440.228 200.133C440.187 199.873 440.126 199.636 440.044 199.422C439.943 199.167 439.811 198.939 439.647 198.738C439.488 198.538 439.301 198.374 439.087 198.246C438.922 198.15 438.74 198.077 438.54 198.027C438.344 197.973 438.129 197.945 437.897 197.945H437.254ZM450.064 204.262H447.076L446.488 206.34H444.465L447.726 196.387H449.469L452.668 206.34H450.645L450.064 204.262ZM447.548 202.628H449.613L448.594 198.964L447.548 202.628ZM462.292 197.952H459.222V206.34H457.295V197.952H454.266V196.387H462.292V197.952ZM469.68 204.262H466.693L466.105 206.34H464.081L467.342 196.387H469.085L472.285 206.34H470.261L469.68 204.262ZM467.164 202.628H469.229L468.21 198.964L467.164 202.628ZM479.762 203.742C479.762 203.564 479.73 203.398 479.666 203.243C479.607 203.088 479.504 202.942 479.358 202.806C479.208 202.674 479.012 202.553 478.771 202.443C478.534 202.329 478.237 202.225 477.882 202.129C477.33 201.979 476.845 201.796 476.426 201.582C476.011 201.368 475.672 201.133 475.407 200.878C475.143 200.623 474.942 200.34 474.806 200.03C474.674 199.72 474.607 199.383 474.607 199.019C474.607 198.599 474.696 198.219 474.874 197.877C475.052 197.535 475.298 197.243 475.612 197.002C475.927 196.76 476.298 196.576 476.727 196.448C477.155 196.316 477.62 196.25 478.121 196.25C478.641 196.25 479.115 196.325 479.543 196.476C479.976 196.626 480.347 196.836 480.657 197.104C480.967 197.378 481.209 197.701 481.382 198.075C481.555 198.449 481.642 198.859 481.642 199.306H479.769C479.759 199.082 479.718 198.877 479.646 198.69C479.577 198.504 479.475 198.342 479.338 198.205C479.197 198.073 479.021 197.97 478.812 197.897C478.606 197.82 478.365 197.781 478.087 197.781C477.832 197.781 477.604 197.813 477.403 197.877C477.207 197.936 477.041 198.021 476.904 198.13C476.768 198.244 476.663 198.378 476.59 198.533C476.521 198.684 476.487 198.848 476.487 199.025C476.487 199.212 476.533 199.381 476.624 199.531C476.72 199.682 476.856 199.816 477.034 199.935C477.212 200.058 477.426 200.169 477.677 200.27C477.932 200.37 478.219 200.463 478.538 200.55C478.88 200.646 479.206 200.762 479.516 200.898C479.826 201.035 480.11 201.192 480.37 201.37C480.762 201.662 481.074 202.001 481.307 202.389C481.539 202.776 481.655 203.223 481.655 203.729C481.655 204.166 481.566 204.556 481.389 204.897C481.215 205.235 480.974 205.52 480.664 205.752C480.354 205.989 479.985 206.169 479.557 206.292C479.128 206.41 478.661 206.47 478.155 206.47C477.659 206.47 477.166 206.397 476.679 206.251C476.196 206.101 475.774 205.882 475.414 205.595C475.072 205.312 474.801 204.979 474.601 204.597C474.405 204.214 474.307 203.765 474.307 203.25H476.193C476.202 203.551 476.255 203.808 476.351 204.022C476.446 204.237 476.581 204.412 476.754 204.549C476.923 204.686 477.125 204.786 477.362 204.85C477.604 204.913 477.868 204.945 478.155 204.945C478.41 204.945 478.636 204.916 478.832 204.856C479.033 204.797 479.201 204.715 479.338 204.61C479.475 204.506 479.579 204.38 479.652 204.234C479.725 204.084 479.762 203.92 479.762 203.742ZM490.527 201.979H486.439V204.788H491.217V206.34H484.511V196.387H491.197V197.952H486.439V200.461H490.527V201.979ZM501.525 197.952H498.455V206.34H496.528V197.952H493.499V196.387H501.525V197.952ZM513.813 206.34V196.387H517.156C517.698 196.387 518.19 196.441 518.632 196.551C519.079 196.66 519.459 196.826 519.774 197.05C520.088 197.273 520.33 197.556 520.498 197.897C520.672 198.239 520.758 198.643 520.758 199.107C520.754 199.408 520.699 199.693 520.594 199.962C520.494 200.226 520.343 200.459 520.143 200.659C520.034 200.769 519.908 200.869 519.767 200.96C519.63 201.051 519.478 201.129 519.309 201.192V201.199C519.637 201.29 519.897 201.407 520.088 201.548C520.284 201.689 520.448 201.853 520.58 202.04C520.717 202.241 520.817 202.459 520.881 202.696C520.95 202.929 520.984 203.17 520.984 203.421C520.984 203.899 520.902 204.321 520.738 204.686C520.574 205.05 520.339 205.355 520.034 205.602C519.728 205.848 519.357 206.032 518.919 206.155C518.482 206.278 517.99 206.34 517.443 206.34H513.813ZM515.741 201.951V204.788H517.45C517.7 204.788 517.924 204.756 518.12 204.692C518.32 204.629 518.486 204.542 518.619 204.433C518.764 204.31 518.874 204.161 518.947 203.988C519.024 203.815 519.063 203.621 519.063 203.407C519.063 203.184 519.033 202.983 518.974 202.806C518.919 202.628 518.83 202.478 518.707 202.354C518.584 202.227 518.425 202.129 518.229 202.061C518.033 201.992 517.801 201.956 517.532 201.951H515.741ZM515.741 200.563H517.169C517.461 200.559 517.718 200.525 517.942 200.461C518.165 200.393 518.345 200.292 518.482 200.16C518.596 200.055 518.682 199.928 518.742 199.777C518.805 199.627 518.837 199.456 518.837 199.265C518.837 199.064 518.81 198.889 518.755 198.738C518.705 198.588 518.628 198.463 518.523 198.362C518.386 198.221 518.202 198.118 517.969 198.055C517.741 197.991 517.472 197.957 517.162 197.952H515.741V200.563Z" fill="#8D93A5"/>
<path d="M249.918 206.34V196.387H252.495C252.955 196.387 253.386 196.444 253.787 196.558C254.188 196.667 254.552 196.824 254.88 197.029C255.168 197.198 255.423 197.405 255.646 197.651C255.874 197.893 256.072 198.157 256.241 198.444C256.437 198.795 256.587 199.183 256.692 199.606C256.801 200.03 256.856 200.481 256.856 200.96V201.78C256.856 202.241 256.806 202.676 256.706 203.086C256.605 203.496 256.464 203.872 256.282 204.214C256.109 204.519 255.906 204.802 255.673 205.062C255.441 205.317 255.186 205.531 254.908 205.704C254.584 205.909 254.226 206.066 253.835 206.176C253.447 206.285 253.032 206.34 252.59 206.34H249.918ZM251.852 197.945V204.795H252.59C252.827 204.795 253.048 204.765 253.254 204.706C253.459 204.647 253.645 204.56 253.814 204.446C253.987 204.328 254.142 204.177 254.279 203.995C254.42 203.808 254.541 203.592 254.641 203.346C254.723 203.132 254.785 202.895 254.826 202.635C254.871 202.37 254.894 202.086 254.894 201.78V200.946C254.894 200.659 254.871 200.388 254.826 200.133C254.785 199.873 254.723 199.636 254.641 199.422C254.541 199.167 254.409 198.939 254.245 198.738C254.085 198.538 253.898 198.374 253.684 198.246C253.52 198.15 253.338 198.077 253.137 198.027C252.941 197.973 252.727 197.945 252.495 197.945H251.852ZM264.661 204.262H261.674L261.086 206.34H259.063L262.323 196.387H264.067L267.266 206.34H265.242L264.661 204.262ZM262.146 202.628H264.21L263.192 198.964L262.146 202.628ZM274.743 203.742C274.743 203.564 274.711 203.398 274.647 203.243C274.588 203.088 274.485 202.942 274.34 202.806C274.189 202.674 273.993 202.553 273.752 202.443C273.515 202.329 273.219 202.225 272.863 202.129C272.312 201.979 271.826 201.796 271.407 201.582C270.992 201.368 270.653 201.133 270.388 200.878C270.124 200.623 269.924 200.34 269.787 200.03C269.655 199.72 269.589 199.383 269.589 199.019C269.589 198.599 269.678 198.219 269.855 197.877C270.033 197.535 270.279 197.243 270.594 197.002C270.908 196.76 271.279 196.576 271.708 196.448C272.136 196.316 272.601 196.25 273.102 196.25C273.622 196.25 274.096 196.325 274.524 196.476C274.957 196.626 275.329 196.836 275.638 197.104C275.948 197.378 276.19 197.701 276.363 198.075C276.536 198.449 276.623 198.859 276.623 199.306H274.75C274.741 199.082 274.7 198.877 274.627 198.69C274.558 198.504 274.456 198.342 274.319 198.205C274.178 198.073 274.002 197.97 273.793 197.897C273.588 197.82 273.346 197.781 273.068 197.781C272.813 197.781 272.585 197.813 272.385 197.877C272.189 197.936 272.022 198.021 271.886 198.13C271.749 198.244 271.644 198.378 271.571 198.533C271.503 198.684 271.469 198.848 271.469 199.025C271.469 199.212 271.514 199.381 271.605 199.531C271.701 199.682 271.838 199.816 272.015 199.935C272.193 200.058 272.407 200.169 272.658 200.27C272.913 200.37 273.2 200.463 273.519 200.55C273.861 200.646 274.187 200.762 274.497 200.898C274.807 201.035 275.092 201.192 275.351 201.37C275.743 201.662 276.055 202.001 276.288 202.389C276.52 202.776 276.637 203.223 276.637 203.729C276.637 204.166 276.548 204.556 276.37 204.897C276.197 205.235 275.955 205.52 275.645 205.752C275.335 205.989 274.966 206.169 274.538 206.292C274.11 206.41 273.642 206.47 273.137 206.47C272.64 206.47 272.148 206.397 271.66 206.251C271.177 206.101 270.755 205.882 270.395 205.595C270.054 205.312 269.782 204.979 269.582 204.597C269.386 204.214 269.288 203.765 269.288 203.25H271.175C271.184 203.551 271.236 203.808 271.332 204.022C271.428 204.237 271.562 204.412 271.735 204.549C271.904 204.686 272.107 204.786 272.344 204.85C272.585 204.913 272.849 204.945 273.137 204.945C273.392 204.945 273.617 204.916 273.813 204.856C274.014 204.797 274.182 204.715 274.319 204.61C274.456 204.506 274.561 204.38 274.634 204.234C274.707 204.084 274.743 203.92 274.743 203.742ZM285.953 206.34H284.052V202.026H281.236V206.34H279.329V196.387H281.236V200.468H284.052V196.387H285.953V206.34ZM289.178 206.34V196.387H292.521C293.063 196.387 293.555 196.441 293.997 196.551C294.444 196.66 294.824 196.826 295.139 197.05C295.453 197.273 295.695 197.556 295.863 197.897C296.036 198.239 296.123 198.643 296.123 199.107C296.118 199.408 296.064 199.693 295.959 199.962C295.859 200.226 295.708 200.459 295.508 200.659C295.398 200.769 295.273 200.869 295.132 200.96C294.995 201.051 294.842 201.129 294.674 201.192V201.199C295.002 201.29 295.262 201.407 295.453 201.548C295.649 201.689 295.813 201.853 295.945 202.04C296.082 202.241 296.182 202.459 296.246 202.696C296.314 202.929 296.349 203.17 296.349 203.421C296.349 203.899 296.267 204.321 296.103 204.686C295.938 205.05 295.704 205.355 295.398 205.602C295.093 205.848 294.722 206.032 294.284 206.155C293.847 206.278 293.354 206.34 292.808 206.34H289.178ZM291.105 201.951V204.788H292.814C293.065 204.788 293.288 204.756 293.484 204.692C293.685 204.629 293.851 204.542 293.983 204.433C294.129 204.31 294.239 204.161 294.312 203.988C294.389 203.815 294.428 203.621 294.428 203.407C294.428 203.184 294.398 202.983 294.339 202.806C294.284 202.628 294.195 202.478 294.072 202.354C293.949 202.227 293.79 202.129 293.594 202.061C293.398 201.992 293.165 201.956 292.896 201.951H291.105ZM291.105 200.563H292.534C292.826 200.559 293.083 200.525 293.307 200.461C293.53 200.393 293.71 200.292 293.847 200.16C293.961 200.055 294.047 199.928 294.106 199.777C294.17 199.627 294.202 199.456 294.202 199.265C294.202 199.064 294.175 198.889 294.12 198.738C294.07 198.588 293.993 198.463 293.888 198.362C293.751 198.221 293.566 198.118 293.334 198.055C293.106 197.991 292.837 197.957 292.527 197.952H291.105V200.563ZM305.945 202.095C305.945 202.523 305.906 202.931 305.829 203.318C305.751 203.701 305.64 204.057 305.494 204.385C305.339 204.713 305.147 205.014 304.92 205.287C304.692 205.561 304.432 205.788 304.14 205.971C303.876 206.13 303.584 206.253 303.265 206.34C302.951 206.431 302.611 206.477 302.247 206.477C301.859 206.477 301.502 206.426 301.173 206.326C300.845 206.226 300.547 206.085 300.278 205.902C300.014 205.711 299.777 205.481 299.567 205.212C299.357 204.938 299.182 204.631 299.041 204.289C298.913 203.975 298.815 203.633 298.747 203.264C298.683 202.895 298.651 202.505 298.651 202.095V200.646C298.651 200.208 298.687 199.793 298.76 199.401C298.838 199.009 298.949 198.647 299.095 198.314C299.237 198 299.407 197.715 299.608 197.46C299.813 197.205 300.048 196.986 300.312 196.804C300.572 196.626 300.864 196.489 301.187 196.394C301.511 196.298 301.862 196.25 302.24 196.25C302.623 196.25 302.98 196.3 303.313 196.4C303.65 196.496 303.953 196.635 304.222 196.817C304.491 196.991 304.726 197.2 304.926 197.446C305.131 197.692 305.307 197.964 305.453 198.26C305.612 198.597 305.733 198.966 305.815 199.367C305.902 199.768 305.945 200.194 305.945 200.646V202.095ZM303.997 200.632C303.997 200.377 303.983 200.135 303.956 199.907C303.933 199.675 303.894 199.461 303.839 199.265C303.771 199.019 303.68 198.8 303.566 198.608C303.452 198.412 303.318 198.253 303.163 198.13C303.04 198.039 302.901 197.968 302.746 197.918C302.595 197.868 302.427 197.843 302.24 197.843C302.062 197.843 301.9 197.866 301.754 197.911C301.613 197.957 301.486 198.023 301.372 198.109C301.217 198.237 301.085 198.396 300.975 198.588C300.87 198.779 300.788 199.003 300.729 199.258C300.684 199.454 300.649 199.668 300.627 199.9C300.608 200.133 300.599 200.377 300.599 200.632V202.095C300.599 202.336 300.608 202.569 300.627 202.792C300.645 203.015 300.677 203.223 300.722 203.414C300.772 203.656 300.845 203.877 300.941 204.077C301.041 204.273 301.157 204.433 301.29 204.556C301.413 204.665 301.552 204.749 301.707 204.809C301.866 204.868 302.046 204.897 302.247 204.897C302.438 204.897 302.614 204.87 302.773 204.815C302.933 204.761 303.074 204.681 303.197 204.576C303.352 204.449 303.482 204.289 303.587 204.098C303.696 203.902 303.782 203.681 303.846 203.435C303.896 203.243 303.933 203.034 303.956 202.806C303.983 202.578 303.997 202.341 303.997 202.095V200.632ZM313.702 204.262H310.715L310.127 206.34H308.104L311.364 196.387H313.108L316.307 206.34H314.283L313.702 204.262ZM311.187 202.628H313.251L312.233 198.964L311.187 202.628ZM321.993 202.621H320.537V206.34H318.616V196.387H321.952C322.503 196.387 323.002 196.453 323.449 196.585C323.896 196.713 324.278 196.902 324.597 197.152C324.912 197.403 325.153 197.715 325.322 198.089C325.495 198.463 325.582 198.896 325.582 199.388C325.582 199.743 325.539 200.064 325.452 200.352C325.37 200.634 325.251 200.887 325.096 201.11C324.937 201.338 324.746 201.536 324.522 201.705C324.304 201.874 324.057 202.02 323.784 202.143L325.924 206.251V206.34H323.866L321.993 202.621ZM320.537 201.062H321.959C322.255 201.062 322.515 201.021 322.738 200.939C322.966 200.853 323.151 200.73 323.292 200.57C323.41 200.443 323.499 200.29 323.558 200.112C323.622 199.935 323.654 199.736 323.654 199.518C323.654 199.253 323.613 199.021 323.531 198.82C323.454 198.615 323.335 198.447 323.176 198.314C323.034 198.196 322.861 198.105 322.656 198.041C322.451 197.977 322.216 197.945 321.952 197.945H320.537V201.062ZM328.383 206.34V196.387H330.96C331.421 196.387 331.851 196.444 332.252 196.558C332.653 196.667 333.018 196.824 333.346 197.029C333.633 197.198 333.888 197.405 334.112 197.651C334.34 197.893 334.538 198.157 334.706 198.444C334.902 198.795 335.053 199.183 335.158 199.606C335.267 200.03 335.322 200.481 335.322 200.96V201.78C335.322 202.241 335.272 202.676 335.171 203.086C335.071 203.496 334.93 203.872 334.747 204.214C334.574 204.519 334.371 204.802 334.139 205.062C333.907 205.317 333.651 205.531 333.373 205.704C333.05 205.909 332.692 206.066 332.3 206.176C331.913 206.285 331.498 206.34 331.056 206.34H328.383ZM330.318 197.945V204.795H331.056C331.293 204.795 331.514 204.765 331.719 204.706C331.924 204.647 332.111 204.56 332.28 204.446C332.453 204.328 332.608 204.177 332.745 203.995C332.886 203.808 333.007 203.592 333.107 203.346C333.189 203.132 333.25 202.895 333.291 202.635C333.337 202.37 333.36 202.086 333.36 201.78V200.946C333.36 200.659 333.337 200.388 333.291 200.133C333.25 199.873 333.189 199.636 333.107 199.422C333.007 199.167 332.874 198.939 332.71 198.738C332.551 198.538 332.364 198.374 332.15 198.246C331.986 198.15 331.803 198.077 331.603 198.027C331.407 197.973 331.193 197.945 330.96 197.945H330.318Z" fill="#8D93A5"/>
<g opacity="0.5">
<rect x="58.4844" y="252.938" width="45.4831" height="45.4831" rx="11.5" fill="#F1F2F4"/>
<rect x="58.4844" y="252.938" width="45.4831" height="45.4831" rx="11.5" stroke="#8D93A5"/>
<path d="M87.5208 267.931C87.5208 271.408 84.7026 274.226 81.2262 274.226C77.7498 274.226 74.9316 271.408 74.9316 267.931C74.9316 264.455 77.7498 261.637 81.2262 261.637C84.7026 261.637 87.5208 264.455 87.5208 267.931Z" fill="#8D93A5" fill-opacity="0.3" stroke="#5A6072" stroke-linecap="round" stroke-linejoin="round"/>
<path d="M71.2466 289.719H91.2052C93.4169 289.719 95.1205 287.817 94.0877 285.862C92.5684 282.985 89.1047 279.551 81.2259 279.551C73.347 279.551 69.8834 282.985 68.3641 285.862C67.3312 287.817 69.0349 289.719 71.2466 289.719Z" fill="#8D93A5" fill-opacity="0.3" stroke="#5A6072" stroke-linecap="round" stroke-linejoin="round"/>
</g>
<g opacity="0.5">
<rect x="454.961" y="252.938" width="45.4831" height="45.4831" rx="11.5" fill="#F1F2F4"/>
<rect x="454.961" y="252.938" width="45.4831" height="45.4831" rx="11.5" stroke="#8D93A5"/>
<path d="M463.66 265.51C463.66 263.371 465.394 261.637 467.534 261.637H487.87C490.009 261.637 491.744 263.371 491.744 265.51V285.847C491.744 287.986 490.009 289.72 487.87 289.72H467.534C465.394 289.72 463.66 287.986 463.66 285.847V265.51Z" fill="#C6C9D2" fill-opacity="0.3" stroke="#5A6072" stroke-width="1.5" stroke-linecap="round" stroke-linejoin="round"/>
<path fill-rule="evenodd" clip-rule="evenodd" d="M482.787 278.992C482.449 278.992 482.175 279.267 482.175 279.605L482.175 284.508C482.175 284.67 482.239 284.826 482.354 284.941C482.469 285.056 482.625 285.12 482.787 285.12C483.512 285.12 484.229 284.978 484.898 284.701C485.567 284.423 486.175 284.017 486.687 283.505C487.199 282.993 487.606 282.385 487.883 281.716C488.16 281.046 488.303 280.329 488.303 279.605C488.303 279.267 488.028 278.992 487.69 278.992L482.787 278.992ZM483.4 283.851L483.4 280.218L487.033 280.218C486.982 280.57 486.888 280.916 486.751 281.247C486.535 281.767 486.219 282.24 485.821 282.638C485.422 283.037 484.949 283.353 484.429 283.568C484.098 283.705 483.753 283.8 483.4 283.851Z" fill="#5A6072" fill-opacity="0.5"/>
<path d="M486.342 277.429C486.51 277.723 486.885 277.824 487.178 277.656C487.472 277.488 487.573 277.113 487.405 276.82C487.098 276.284 486.701 275.802 486.23 275.397C485.469 274.742 484.542 274.311 483.552 274.153C482.562 273.995 481.548 274.116 480.623 274.502C479.697 274.889 478.896 275.525 478.308 276.34C477.72 277.155 477.368 278.118 477.289 279.122C477.211 280.126 477.41 281.132 477.864 282.029C478.318 282.927 479.01 283.681 479.864 284.208C480.152 284.386 480.529 284.297 480.707 284.009C480.885 283.721 480.795 283.343 480.507 283.165C479.846 282.757 479.31 282.173 478.957 281.476C478.605 280.779 478.45 279.997 478.511 279.217C478.572 278.437 478.846 277.69 479.302 277.057C479.759 276.425 480.379 275.932 481.095 275.634C481.811 275.335 482.594 275.242 483.359 275.364C484.124 275.486 484.841 275.818 485.431 276.326C485.796 276.64 486.103 277.014 486.342 277.429Z" fill="#5A6072" fill-opacity="0.5"/>
<path d="M473.344 268.57L473.344 289.721" stroke="#5A6072" stroke-width="1.5" stroke-linecap="round" stroke-linejoin="round"/>
<path d="M464.145 268.418H491.26" stroke="#5A6072" stroke-width="1.5" stroke-linecap="round" stroke-linejoin="round"/>
</g>
<path d="M50.6771 311.257H47.6078V319.645H45.6801V311.257H42.6518V309.691H50.6771V311.257ZM59.2959 315.283H55.208V318.093H59.9863V319.645H53.2803V309.691H59.9658V311.257H55.208V313.766H59.2959V315.283ZM69.5416 319.645H67.6275L64.859 313.226V319.645H62.9244V309.691H64.859L67.607 316.083L67.6139 309.691H69.5416V319.645ZM77.6818 317.566H74.6945L74.1066 319.645H72.0832L75.3439 309.691H77.0871L80.2863 319.645H78.2629L77.6818 317.566ZM75.1662 315.933H77.2307L76.2121 312.269L75.1662 315.933ZM89.158 319.645H87.2439L84.4754 313.226V319.645H82.5408V309.691H84.4754L87.2234 316.083L87.2303 309.691H89.158V319.645ZM99.7182 311.257H96.6488V319.645H94.7211V311.257H91.6928V309.691H99.7182V311.257ZM118.931 316.527C118.899 317.029 118.79 317.48 118.603 317.881C118.421 318.282 118.175 318.624 117.865 318.906C117.555 319.189 117.186 319.408 116.757 319.562C116.329 319.713 115.855 319.788 115.336 319.788C114.925 319.788 114.545 319.736 114.194 319.631C113.848 319.521 113.535 319.367 113.257 319.166C113.002 318.979 112.774 318.754 112.574 318.489C112.378 318.225 112.212 317.933 112.075 317.614C111.943 317.295 111.84 316.944 111.767 316.562C111.699 316.179 111.665 315.773 111.665 315.345V314.005C111.665 313.604 111.697 313.223 111.76 312.863C111.824 312.499 111.92 312.161 112.047 311.852C112.193 311.473 112.385 311.136 112.622 310.84C112.859 310.544 113.128 310.293 113.428 310.088C113.697 309.915 113.991 309.783 114.31 309.691C114.634 309.596 114.98 309.548 115.349 309.548C115.896 309.548 116.381 309.625 116.805 309.78C117.234 309.935 117.598 310.156 117.899 310.443C118.2 310.73 118.437 311.081 118.61 311.496C118.783 311.911 118.893 312.378 118.938 312.897H117.024C117.006 312.601 116.96 312.341 116.887 312.118C116.819 311.895 116.719 311.708 116.587 311.558C116.45 311.412 116.279 311.302 116.074 311.229C115.873 311.152 115.632 311.113 115.349 311.113C115.199 311.113 115.058 311.129 114.925 311.161C114.798 311.193 114.679 311.241 114.57 311.305C114.383 311.414 114.224 311.571 114.091 311.776C113.964 311.977 113.861 312.212 113.784 312.48C113.725 312.69 113.681 312.923 113.654 313.178C113.627 313.428 113.613 313.7 113.613 313.991V315.345C113.613 315.741 113.633 316.097 113.674 316.411C113.72 316.721 113.788 316.992 113.879 317.225C113.943 317.384 114.018 317.525 114.105 317.648C114.196 317.771 114.299 317.874 114.413 317.956C114.536 318.047 114.672 318.116 114.823 318.161C114.978 318.202 115.149 318.223 115.336 318.223C115.586 318.223 115.812 318.191 116.012 318.127C116.213 318.063 116.384 317.963 116.525 317.826C116.666 317.689 116.778 317.514 116.86 317.3C116.942 317.086 116.992 316.828 117.01 316.527H118.931Z" fill="#8D93A5"/>
<path d="M435.32 319.645V309.691H437.897C438.357 309.691 438.788 309.748 439.189 309.862C439.59 309.972 439.955 310.129 440.283 310.334C440.57 310.503 440.825 310.71 441.048 310.956C441.276 311.198 441.475 311.462 441.643 311.749C441.839 312.1 441.99 312.487 442.094 312.911C442.204 313.335 442.258 313.786 442.258 314.265V315.085C442.258 315.545 442.208 315.98 442.108 316.391C442.008 316.801 441.866 317.177 441.684 317.519C441.511 317.824 441.308 318.106 441.076 318.366C440.843 318.621 440.588 318.836 440.31 319.009C439.987 319.214 439.629 319.371 439.237 319.48C438.85 319.59 438.435 319.645 437.993 319.645H435.32ZM437.254 311.25V318.1H437.993C438.23 318.1 438.451 318.07 438.656 318.011C438.861 317.951 439.048 317.865 439.216 317.751C439.39 317.632 439.545 317.482 439.681 317.3C439.823 317.113 439.943 316.896 440.044 316.65C440.126 316.436 440.187 316.199 440.228 315.939C440.274 315.675 440.296 315.39 440.296 315.085V314.251C440.296 313.964 440.274 313.693 440.228 313.438C440.187 313.178 440.126 312.941 440.044 312.727C439.943 312.471 439.811 312.243 439.647 312.043C439.488 311.842 439.301 311.678 439.087 311.551C438.922 311.455 438.74 311.382 438.54 311.332C438.344 311.277 438.129 311.25 437.897 311.25H437.254ZM450.064 317.566H447.076L446.488 319.645H444.465L447.726 309.691H449.469L452.668 319.645H450.645L450.064 317.566ZM447.548 315.933H449.613L448.594 312.269L447.548 315.933ZM462.292 311.257H459.222V319.645H457.295V311.257H454.266V309.691H462.292V311.257ZM469.68 317.566H466.693L466.105 319.645H464.081L467.342 309.691H469.085L472.285 319.645H470.261L469.68 317.566ZM467.164 315.933H469.229L468.21 312.269L467.164 315.933ZM479.762 317.047C479.762 316.869 479.73 316.703 479.666 316.548C479.607 316.393 479.504 316.247 479.358 316.11C479.208 315.978 479.012 315.857 478.771 315.748C478.534 315.634 478.237 315.529 477.882 315.434C477.33 315.283 476.845 315.101 476.426 314.887C476.011 314.673 475.672 314.438 475.407 314.183C475.143 313.927 474.942 313.645 474.806 313.335C474.674 313.025 474.607 312.688 474.607 312.323C474.607 311.904 474.696 311.523 474.874 311.182C475.052 310.84 475.298 310.548 475.612 310.307C475.927 310.065 476.298 309.881 476.727 309.753C477.155 309.621 477.62 309.555 478.121 309.555C478.641 309.555 479.115 309.63 479.543 309.78C479.976 309.931 480.347 310.14 480.657 310.409C480.967 310.683 481.209 311.006 481.382 311.38C481.555 311.754 481.642 312.164 481.642 312.61H479.769C479.759 312.387 479.718 312.182 479.646 311.995C479.577 311.808 479.475 311.646 479.338 311.51C479.197 311.378 479.021 311.275 478.812 311.202C478.606 311.125 478.365 311.086 478.087 311.086C477.832 311.086 477.604 311.118 477.403 311.182C477.207 311.241 477.041 311.325 476.904 311.435C476.768 311.549 476.663 311.683 476.59 311.838C476.521 311.988 476.487 312.152 476.487 312.33C476.487 312.517 476.533 312.686 476.624 312.836C476.72 312.986 476.856 313.121 477.034 313.239C477.212 313.362 477.426 313.474 477.677 313.574C477.932 313.674 478.219 313.768 478.538 313.854C478.88 313.95 479.206 314.066 479.516 314.203C479.826 314.34 480.11 314.497 480.37 314.675C480.762 314.966 481.074 315.306 481.307 315.693C481.539 316.081 481.655 316.527 481.655 317.033C481.655 317.471 481.566 317.86 481.389 318.202C481.215 318.539 480.974 318.824 480.664 319.057C480.354 319.294 479.985 319.474 479.557 319.597C479.128 319.715 478.661 319.774 478.155 319.774C477.659 319.774 477.166 319.701 476.679 319.556C476.196 319.405 475.774 319.187 475.414 318.899C475.072 318.617 474.801 318.284 474.601 317.901C474.405 317.519 474.307 317.07 474.307 316.555H476.193C476.202 316.855 476.255 317.113 476.351 317.327C476.446 317.541 476.581 317.717 476.754 317.854C476.923 317.99 477.125 318.09 477.362 318.154C477.604 318.218 477.868 318.25 478.155 318.25C478.41 318.25 478.636 318.22 478.832 318.161C479.033 318.102 479.201 318.02 479.338 317.915C479.475 317.81 479.579 317.685 479.652 317.539C479.725 317.389 479.762 317.225 479.762 317.047ZM490.527 315.283H486.439V318.093H491.217V319.645H484.511V309.691H491.197V311.257H486.439V313.766H490.527V315.283ZM501.525 311.257H498.455V319.645H496.528V311.257H493.499V309.691H501.525V311.257ZM520.738 316.527C520.706 317.029 520.596 317.48 520.41 317.881C520.227 318.282 519.981 318.624 519.671 318.906C519.361 319.189 518.992 319.408 518.564 319.562C518.135 319.713 517.662 319.788 517.142 319.788C516.732 319.788 516.351 319.736 516 319.631C515.654 319.521 515.342 319.367 515.064 319.166C514.809 318.979 514.581 318.754 514.38 318.489C514.184 318.225 514.018 317.933 513.881 317.614C513.749 317.295 513.647 316.944 513.574 316.562C513.505 316.179 513.471 315.773 513.471 315.345V314.005C513.471 313.604 513.503 313.223 513.567 312.863C513.631 312.499 513.726 312.161 513.854 311.852C514 311.473 514.191 311.136 514.428 310.84C514.665 310.544 514.934 310.293 515.235 310.088C515.504 309.915 515.798 309.783 516.117 309.691C516.44 309.596 516.787 309.548 517.156 309.548C517.703 309.548 518.188 309.625 518.612 309.78C519.04 309.935 519.405 310.156 519.705 310.443C520.006 310.73 520.243 311.081 520.416 311.496C520.59 311.911 520.699 312.378 520.745 312.897H518.83C518.812 312.601 518.767 312.341 518.694 312.118C518.625 311.895 518.525 311.708 518.393 311.558C518.256 311.412 518.085 311.302 517.88 311.229C517.68 311.152 517.438 311.113 517.156 311.113C517.005 311.113 516.864 311.129 516.732 311.161C516.604 311.193 516.486 311.241 516.376 311.305C516.19 311.414 516.03 311.571 515.898 311.776C515.77 311.977 515.668 312.212 515.59 312.48C515.531 312.69 515.488 312.923 515.46 313.178C515.433 313.428 515.419 313.7 515.419 313.991V315.345C515.419 315.741 515.44 316.097 515.481 316.411C515.526 316.721 515.595 316.992 515.686 317.225C515.75 317.384 515.825 317.525 515.912 317.648C516.003 317.771 516.105 317.874 516.219 317.956C516.342 318.047 516.479 318.116 516.629 318.161C516.784 318.202 516.955 318.223 517.142 318.223C517.393 318.223 517.618 318.191 517.819 318.127C518.019 318.063 518.19 317.963 518.331 317.826C518.473 317.689 518.584 317.514 518.666 317.3C518.748 317.086 518.799 316.828 518.817 316.527H520.738Z" fill="#8D93A5"/>
<g filter="url(#filter0_dd_16800_34507)">
<rect x="270" y="139" width="46.4831" height="46.4831" rx="12" fill="white"/>
<rect x="270" y="139" width="46.4831" height="46.4831" rx="12" stroke="#8D93A5"/>
<path d="M279.588 151.733C279.588 149.594 281.322 147.859 283.461 147.859H303.798C305.937 147.859 307.671 149.594 307.671 151.733V172.069C307.671 174.209 305.937 175.943 303.798 175.943H283.461C281.322 175.943 279.588 174.209 279.588 172.069V151.733Z" fill="#C6C9D2" fill-opacity="0.3" stroke="#5A6072" stroke-width="1.5" stroke-linecap="round" stroke-linejoin="round"/>
<path d="M289.271 154.793L289.271 175.944" stroke="#5A6072" stroke-width="1.5" stroke-linecap="round" stroke-linejoin="round"/>
<path d="M280.072 154.641H307.187" stroke="#5A6072" stroke-width="1.5" stroke-linecap="round" stroke-linejoin="round"/>
</g>
<defs>
<filter id="filter0_dd_16800_34507" x="249.5" y="138.5" width="87.4824" height="87.4844" filterUnits="userSpaceOnUse" color-interpolation-filters="sRGB">
<feFlood flood-opacity="0" result="BackgroundImageFix"/>
<feColorMatrix in="SourceAlpha" type="matrix" values="0 0 0 0 0 0 0 0 0 0 0 0 0 0 0 0 0 0 127 0" result="hardAlpha"/>
<feMorphology radius="4" operator="erode" in="SourceAlpha" result="effect1_dropShadow_16800_34507"/>
<feOffset dy="8"/>
<feGaussianBlur stdDeviation="4"/>
<feColorMatrix type="matrix" values="0 0 0 0 0.0627451 0 0 0 0 0.0941176 0 0 0 0 0.156863 0 0 0 0.03 0"/>
<feBlend mode="normal" in2="BackgroundImageFix" result="effect1_dropShadow_16800_34507"/>
<feColorMatrix in="SourceAlpha" type="matrix" values="0 0 0 0 0 0 0 0 0 0 0 0 0 0 0 0 0 0 127 0" result="hardAlpha"/>
<feMorphology radius="4" operator="erode" in="SourceAlpha" result="effect2_dropShadow_16800_34507"/>
<feOffset dy="20"/>
<feGaussianBlur stdDeviation="12"/>
<feColorMatrix type="matrix" values="0 0 0 0 0.0627451 0 0 0 0 0.0941176 0 0 0 0 0.156863 0 0 0 0.08 0"/>
<feBlend mode="normal" in2="effect1_dropShadow_16800_34507" result="effect2_dropShadow_16800_34507"/>
<feBlend mode="normal" in="SourceGraphic" in2="effect2_dropShadow_16800_34507" result="shape"/>
</filter>
</defs>
</svg>
