<?xml version="1.0" encoding="UTF-8"?>
<svg width="82px" height="106px" viewBox="0 0 82 106" version="1.1" xmlns="http://www.w3.org/2000/svg" xmlns:xlink="http://www.w3.org/1999/xlink">
    <title>metabase-logo</title>
    <g id="Page-1" stroke="none" stroke-width="1" fill="none" fill-rule="evenodd">
        <g id="metabase-logo" fill="#509EE3" fill-rule="nonzero">
            <path d="M57.942797,87.2303676 C61.3471505,87.2303676 64.1069243,84.3644548 64.1069243,80.8291723 C64.1069243,77.2938899 61.3471505,74.4279771 57.942797,74.4279771 C54.5384435,74.4279771 51.7786696,77.2938899 51.7786696,80.8291723 C51.7786696,84.3644548 54.5384435,87.2303676 57.942797,87.2303676 Z M40.6832404,105.153714 C44.087594,105.153714 46.8473677,102.287801 46.8473677,98.7525189 C46.8473677,95.2172365 44.087594,92.3513237 40.6832404,92.3513237 C37.2788869,92.3513237 34.519113,95.2172365 34.519113,98.7525189 C34.519113,102.287801 37.2788869,105.153714 40.6832404,105.153714 Z M40.6832404,87.2303676 C44.087594,87.2303676 46.8473677,84.3644548 46.8473677,80.8291723 C46.8473677,77.2938899 44.087594,74.4279771 40.6832404,74.4279771 C37.2788869,74.4279771 34.519113,77.2938899 34.519113,80.8291723 C34.519113,84.3644548 37.2788869,87.2303676 40.6832404,87.2303676 Z M23.4236839,87.2303676 C26.8280374,87.2303676 29.5878112,84.3644548 29.5878112,80.8291723 C29.5878112,77.2938899 26.8280374,74.4279771 23.4236839,74.4279771 C20.0193304,74.4279771 17.2595566,77.2938899 17.2595566,80.8291723 C17.2595566,84.3644548 20.0193304,87.2303676 23.4236839,87.2303676 Z M57.942797,69.307021 C61.3471505,69.307021 64.1069243,66.4411082 64.1069243,62.9058257 C64.1069243,59.3705432 61.3471505,56.5046305 57.942797,56.5046305 C54.5384435,56.5046305 51.7786696,59.3705432 51.7786696,62.9058257 C51.7786696,66.4411082 54.5384435,69.307021 57.942797,69.307021 Z M23.4236839,69.307021 C26.8280374,69.307021 29.5878112,66.4411082 29.5878112,62.9058257 C29.5878112,59.3705432 26.8280374,56.5046305 23.4236839,56.5046305 C20.0193304,56.5046305 17.2595566,59.3705432 17.2595566,62.9058257 C17.2595566,66.4411082 20.0193304,69.307021 23.4236839,69.307021 Z M57.942797,33.2862152 C61.3471505,33.2862152 64.1069243,30.4203024 64.1069243,26.8850199 C64.1069243,23.3497375 61.3471505,20.4838247 57.942797,20.4838247 C54.5384435,20.4838247 51.7786696,23.3497375 51.7786696,26.8850199 C51.7786696,30.4203024 54.5384435,33.2862152 57.942797,33.2862152 Z M40.6832404,51.3836743 C44.087594,51.3836743 46.8473677,48.5177616 46.8473677,44.982479 C46.8473677,41.4471966 44.087594,38.5812838 40.6832404,38.5812838 C37.2788869,38.5812838 34.519113,41.4471966 34.519113,44.982479 C34.519113,48.5177616 37.2788869,51.3836743 40.6832404,51.3836743 Z M40.6832404,12.8023905 C44.087594,12.8023905 46.8473677,9.93647772 46.8473677,6.40119522 C46.8473677,2.86591272 44.087594,0 40.6832404,0 C37.2788869,0 34.519113,2.86591272 34.519113,6.40119522 C34.519113,9.93647772 37.2788869,12.8023905 40.6832404,12.8023905 Z M40.6832404,33.2862152 C44.087594,33.2862152 46.8473677,30.4203024 46.8473677,26.8850199 C46.8473677,23.3497375 44.087594,20.4838247 40.6832404,20.4838247 C37.2788869,20.4838247 34.519113,23.3497375 34.519113,26.8850199 C34.519113,30.4203024 37.2788869,33.2862152 40.6832404,33.2862152 Z M23.4236839,33.2862152 C26.8280374,33.2862152 29.5878112,30.4203024 29.5878112,26.8850199 C29.5878112,23.3497375 26.8280374,20.4838247 23.4236839,20.4838247 C20.0193304,20.4838247 17.2595566,23.3497375 17.2595566,26.8850199 C17.2595566,30.4203024 20.0193304,33.2862152 23.4236839,33.2862152 Z" id="Shape" opacity="0.2"></path>
            <path d="M75.2023535,87.2303676 C78.606707,87.2303676 81.3664809,84.3644548 81.3664809,80.8291723 C81.3664809,77.2938899 78.606707,74.4279771 75.2023535,74.4279771 C71.798,74.4279771 69.0382262,77.2938899 69.0382262,80.8291723 C69.0382262,84.3644548 71.798,87.2303676 75.2023535,87.2303676 Z M6.16412733,87.056255 C9.56848086,87.056255 12.3282547,84.1903423 12.3282547,80.6550598 C12.3282547,77.1197774 9.56848086,74.2538646 6.16412733,74.2538646 C2.75977382,74.2538646 0,77.1197774 0,80.6550598 C0,84.1903423 2.75977382,87.056255 6.16412733,87.056255 Z M75.2023535,69.307021 C78.606707,69.307021 81.3664809,66.4411082 81.3664809,62.9058257 C81.3664809,59.3705432 78.606707,56.5046305 75.2023535,56.5046305 C71.798,56.5046305 69.0382262,59.3705432 69.0382262,62.9058257 C69.0382262,66.4411082 71.798,69.307021 75.2023535,69.307021 Z M40.6832404,69.307021 C44.087594,69.307021 46.8473677,66.4411082 46.8473677,62.9058257 C46.8473677,59.3705432 44.087594,56.5046305 40.6832404,56.5046305 C37.2788869,56.5046305 34.519113,59.3705432 34.519113,62.9058257 C34.519113,66.4411082 37.2788869,69.307021 40.6832404,69.307021 Z M6.16412733,69.1329085 C9.56848086,69.1329085 12.3282547,66.2669957 12.3282547,62.7317132 C12.3282547,59.1964307 9.56848086,56.330518 6.16412733,56.330518 C2.75977382,56.330518 0,59.1964307 0,62.7317132 C0,66.2669957 2.75977382,69.1329085 6.16412733,69.1329085 Z M75.2023535,51.3836743 C78.606707,51.3836743 81.3664809,48.5177616 81.3664809,44.982479 C81.3664809,41.4471966 78.606707,38.5812838 75.2023535,38.5812838 C71.798,38.5812838 69.0382262,41.4471966 69.0382262,44.982479 C69.0382262,48.5177616 71.798,51.3836743 75.2023535,51.3836743 Z M57.942797,51.3836743 C61.3471505,51.3836743 64.1069243,48.5177616 64.1069243,44.982479 C64.1069243,41.4471966 61.3471505,38.5812838 57.942797,38.5812838 C54.5384435,38.5812838 51.7786696,41.4471966 51.7786696,44.982479 C51.7786696,48.5177616 54.5384435,51.3836743 57.942797,51.3836743 Z M75.2023535,33.2862152 C78.606707,33.2862152 81.3664809,30.4203024 81.3664809,26.8850199 C81.3664809,23.3497375 78.606707,20.4838247 75.2023535,20.4838247 C71.798,20.4838247 69.0382262,23.3497375 69.0382262,26.8850199 C69.0382262,30.4203024 71.798,33.2862152 75.2023535,33.2862152 Z M23.4236839,51.3836743 C26.8280374,51.3836743 29.5878112,48.5177616 29.5878112,44.982479 C29.5878112,41.4471966 26.8280374,38.5812838 23.4236839,38.5812838 C20.0193304,38.5812838 17.2595566,41.4471966 17.2595566,44.982479 C17.2595566,48.5177616 20.0193304,51.3836743 23.4236839,51.3836743 Z M6.16412733,51.2095618 C9.56848086,51.2095618 12.3282547,48.3436491 12.3282547,44.8083665 C12.3282547,41.2730841 9.56848086,38.4071713 6.16412733,38.4071713 C2.75977382,38.4071713 0,41.2730841 0,44.8083665 C0,48.3436491 2.75977382,51.2095618 6.16412733,51.2095618 Z M6.16412733,33.2862152 C9.56848086,33.2862152 12.3282547,30.4203024 12.3282547,26.8850199 C12.3282547,23.3497375 9.56848086,20.4838247 6.16412733,20.4838247 C2.75977382,20.4838247 0,23.3497375 0,26.8850199 C0,30.4203024 2.75977382,33.2862152 6.16412733,33.2862152 Z" id="Shape"></path>
        </g>
    </g>
</svg>