<svg width="96" height="96" viewBox="0 0 96 96" fill="none" xmlns="http://www.w3.org/2000/svg">
<g clip-path="url(#clip0_24_1269)">
<circle cx="48" cy="48" r="48" fill="#4C5773" fill-opacity="0.05"/>
<path d="M24 35C24 32.7909 25.7909 31 28 31H68C70.2091 31 72 32.7909 72 35V61C72 63.2091 70.2091 65 68 65H28C25.7909 65 24 63.2091 24 61V35Z" fill="white"/>
<path fill-rule="evenodd" clip-rule="evenodd" d="M23.375 35C23.375 32.4457 25.4457 30.375 28 30.375H68C70.5543 30.375 72.625 32.4457 72.625 35V61C72.625 63.5543 70.5543 65.625 68 65.625H28C25.4457 65.625 23.375 63.5543 23.375 61V35ZM28 31.625C26.136 31.625 24.625 33.136 24.625 35V61C24.625 62.864 26.136 64.375 28 64.375H68C69.864 64.375 71.375 62.864 71.375 61V35C71.375 33.136 69.864 31.625 68 31.625H28Z" fill="#949AAB"/>
<path d="M29.5 38C29.5 37.1716 30.1716 36.5 31 36.5H65C65.8284 36.5 66.5 37.1716 66.5 38V55C66.5 55.8284 65.8284 56.5 65 56.5H31C30.1716 56.5 29.5 55.8284 29.5 55V38Z" fill="white"/>
<path fill-rule="evenodd" clip-rule="evenodd" d="M28.875 38C28.875 36.8264 29.8264 35.875 31 35.875H65C66.1736 35.875 67.125 36.8264 67.125 38V55C67.125 56.1736 66.1736 57.125 65 57.125H31C29.8264 57.125 28.875 56.1736 28.875 55V38ZM31 37.125C30.5168 37.125 30.125 37.5168 30.125 38V55C30.125 55.4832 30.5168 55.875 31 55.875H65C65.4832 55.875 65.875 55.4832 65.875 55V38C65.875 37.5168 65.4832 37.125 65 37.125H31Z" fill="#949AAB"/>
<path fill-rule="evenodd" clip-rule="evenodd" d="M61.0712 61.1786C61.3276 61.1786 61.5355 60.9707 61.5355 60.7143C61.5355 60.4579 61.3276 60.25 61.0712 60.25C60.8148 60.25 60.6069 60.4579 60.6069 60.7143C60.6069 60.9707 60.8148 61.1786 61.0712 61.1786ZM61.0712 62.4286C62.018 62.4286 62.7855 61.6611 62.7855 60.7143C62.7855 59.7675 62.018 59 61.0712 59C60.1244 59 59.3569 59.7675 59.3569 60.7143C59.3569 61.6611 60.1244 62.4286 61.0712 62.4286Z" fill="#949AAB"/>
<path fill-rule="evenodd" clip-rule="evenodd" d="M65.5712 61.1786C65.8276 61.1786 66.0355 60.9707 66.0355 60.7143C66.0355 60.4579 65.8276 60.25 65.5712 60.25C65.3148 60.25 65.1069 60.4579 65.1069 60.7143C65.1069 60.9707 65.3148 61.1786 65.5712 61.1786ZM65.5712 62.4286C66.518 62.4286 67.2855 61.6611 67.2855 60.7143C67.2855 59.7675 66.518 59 65.5712 59C64.6244 59 63.8569 59.7675 63.8569 60.7143C63.8569 61.6611 64.6244 62.4286 65.5712 62.4286Z" fill="#949AAB"/>
<circle cx="40.9999" cy="43.5" r="1.5" fill="#949AAB"/>
<circle cx="54.9999" cy="43.5" r="1.5" fill="#949AAB"/>
<path fill-rule="evenodd" clip-rule="evenodd" d="M46.833 48.7251C47.1025 48.974 47.5026 49.125 47.9999 49.125C48.4972 49.125 48.8974 48.974 49.1668 48.7251C49.4282 48.4836 49.6249 48.0969 49.6249 47.5H50.8749C50.8749 48.3943 50.568 49.1325 50.015 49.6433C49.4701 50.1466 48.7453 50.375 47.9999 50.375C47.2546 50.375 46.5298 50.1466 45.9849 49.6433C45.4319 49.1325 45.1249 48.3943 45.1249 47.5H46.3749C46.3749 48.0969 46.5716 48.4836 46.833 48.7251Z" fill="#949AAB"/>
<rect x="58.4795" y="26.667" width="24" height="16" transform="rotate(15 58.4795 26.667)" fill="black" fill-opacity="0.1"/>
<path d="M58.4795 22.667L81.6617 28.8786L77.5206 44.3335L54.3384 38.1218L58.4795 22.667Z" fill="white"/>
<path fill-rule="evenodd" clip-rule="evenodd" d="M57.8758 22.5052C57.9651 22.1718 58.3078 21.9739 58.6412 22.0633L81.8235 28.2749C82.1569 28.3643 82.3547 28.707 82.2654 29.0404L78.1243 44.4952C78.035 44.8286 77.6922 45.0265 77.3588 44.9372L54.1766 38.7255C53.8432 38.6362 53.6453 38.2935 53.7347 37.96L57.8758 22.5052ZM58.9214 23.4325L55.1038 37.6799L77.0787 43.568L80.8962 29.3206L58.9214 23.4325Z" fill="#949AAB"/>
<g opacity="0.5">
<path fill-rule="evenodd" clip-rule="evenodd" d="M59.4615 36.3887L62.0497 26.7295L63.2571 27.053L60.6689 36.7122L59.4615 36.3887Z" fill="#949AAB"/>
<path fill-rule="evenodd" clip-rule="evenodd" d="M63.8082 37.5534L65.3611 31.7578L66.5685 32.0814L65.0156 37.8769L63.8082 37.5534Z" fill="#949AAB"/>
<path fill-rule="evenodd" clip-rule="evenodd" d="M68.1548 38.7181L69.1901 34.8544L70.3975 35.1779L69.3622 39.0416L68.1548 38.7181Z" fill="#949AAB"/>
<path fill-rule="evenodd" clip-rule="evenodd" d="M72.5015 39.8828L74.0544 34.0872L75.2618 34.4107L73.7089 40.2063L72.5015 39.8828Z" fill="#949AAB"/>
</g>
<path d="M24 65C28.4183 65 32 61.4183 32 57C32 52.5817 28.4183 49 24 49V57H16C16 61.4183 19.5817 65 24 65Z" fill="black" fill-opacity="0.1"/>
<path d="M24 61C28.4183 61 32 57.4183 32 53C32 48.5817 28.4183 45 24 45V53H16C16 57.4183 19.5817 61 24 61Z" fill="white"/>
<path fill-rule="evenodd" clip-rule="evenodd" d="M23.375 45C23.375 44.6548 23.6548 44.375 24 44.375C28.7635 44.375 32.625 48.2365 32.625 53C32.625 57.7635 28.7635 61.625 24 61.625C19.2365 61.625 15.375 57.7635 15.375 53C15.375 52.6548 15.6548 52.375 16 52.375H23.375V45ZM24.625 45.6511V53C24.625 53.3452 24.3452 53.625 24 53.625H16.6511C16.9684 57.4056 20.1374 60.375 24 60.375C28.0731 60.375 31.375 57.0731 31.375 53C31.375 49.1374 28.4056 45.9684 24.625 45.6511Z" fill="#949AAB"/>
<path d="M21.5 45C18.4624 45 16 47.4624 16 50.5H21.5V45Z" fill="white"/>
<path fill-rule="evenodd" clip-rule="evenodd" d="M16.6647 49.875H20.875V45.6647C18.6824 45.9453 16.9453 47.6824 16.6647 49.875ZM15.375 50.5C15.375 47.1173 18.1173 44.375 21.5 44.375C21.8452 44.375 22.125 44.6548 22.125 45V50.5C22.125 50.8452 21.8452 51.125 21.5 51.125H16C15.6548 51.125 15.375 50.8452 15.375 50.5Z" fill="#949AAB"/>
</g>
<defs>
<clipPath id="clip0_24_1269">
<rect width="96" height="96" fill="white"/>
</clipPath>
</defs>
</svg>
