<svg width="32" height="32" fill="none" xmlns="http://www.w3.org/2000/svg"><g clip-path="url(#a)"><path fill-rule="evenodd" clip-rule="evenodd" d="M26.107 22.695c-1.305-.037-2.318.097-3.167.454-.244.098-.636.098-.669.406.131.129.147.34.261.52.196.324.54.761.85.988l1.043.746c.637.39 1.355.617 1.975 1.006.36.227.719.52 1.078.763.183.13.293.34.522.422v-.05c-.114-.145-.147-.356-.26-.519l-.49-.47a7.703 7.703 0 0 0-1.698-1.638c-.523-.357-1.665-.843-1.877-1.443l-.032-.037c.358-.036.782-.162 1.126-.26.555-.145 1.06-.113 1.631-.259l.784-.227v-.146c-.293-.292-.506-.681-.816-.957A21.751 21.751 0 0 0 23.675 20c-.506-.324-1.16-.535-1.698-.81-.196-.098-.522-.147-.636-.309-.295-.356-.457-.827-.67-1.25l-1.338-2.822c-.294-.632-.474-1.265-.832-1.849-1.682-2.757-3.51-4.428-6.318-6.067-.603-.34-1.321-.487-2.085-.665l-1.224-.065c-.262-.114-.522-.422-.751-.568-.93-.584-3.33-1.85-4.016-.182-.44 1.054.653 2.092 1.025 2.628.278.373.636.795.833 1.216.11.276.146.568.26.86.261.714.506 1.509.85 2.174.182.341.374.698.603 1.006.13.182.359.26.408.552-.229.325-.245.81-.375 1.217-.588 1.833-.36 4.104.473 5.453.261.406.878 1.298 1.714.957.735-.292.57-1.216.783-2.027.05-.195.016-.325.114-.455v.037l.67 1.346c.505.795 1.387 1.622 2.121 2.174.392.292.702.795 1.192.973v-.049h-.033c-.098-.145-.245-.21-.375-.324a7.912 7.912 0 0 1-.849-.973c-.685-.909-1.289-1.915-1.828-2.953-.261-.502-.49-1.054-.701-1.557-.1-.195-.1-.487-.262-.584-.245.357-.604.666-.784 1.103-.31.698-.342 1.558-.457 2.45-.065.016-.036 0-.065.036-.522-.13-.702-.665-.898-1.119-.49-1.152-.571-3-.147-4.331.114-.34.604-1.412.409-1.736-.1-.308-.425-.486-.605-.73a6.545 6.545 0 0 1-.587-1.038c-.391-.909-.587-1.914-1.012-2.823-.196-.421-.539-.86-.816-1.249-.31-.438-.653-.746-.898-1.265-.081-.182-.195-.47-.065-.665.032-.13.098-.182.228-.211.212-.182.817.049 1.029.145.603.244 1.11.47 1.615.811.229.162.474.47.768.552h.343c.522.114 1.11.036 1.599.182.865.276 1.648.681 2.35 1.12a14.421 14.421 0 0 1 5.093 5.548c.196.373.278.713.458 1.103.343.795.767 1.606 1.11 2.385.342.762.669 1.541 1.158 2.174.245.34 1.224.519 1.665.697.326.146.832.277 1.126.455.555.34 1.11.73 1.632 1.103.26.194 1.078.6 1.126.923l.002-.008ZM9.46 8.598a2.609 2.609 0 0 0-.669.081v.037h.033c.13.26.359.438.522.665l.376.779.032-.037c.229-.162.343-.421.343-.81-.098-.114-.114-.228-.196-.341-.098-.162-.31-.244-.44-.373Z" fill="#00678C"/></g><defs><clipPath id="a"><path fill="#fff" transform="translate(4 4)" d="M0 0h24v24H0z"/></clipPath></defs></svg>
