<svg xmlns="http://www.w3.org/2000/svg" width="24" height="24" viewBox="0 0 24 24" fill="none"><path stroke="#509EE3" stroke-linecap="round" stroke-linejoin="round" stroke-width="1.5" d="M16.283 12.26 15.5 15l-.783-2.74a4.333 4.333 0 0 0-2.975-2.976L9 8.5l2.74-.783a4.333 4.333 0 0 0 2.976-2.975L15.5 2l.783 2.74a4.333 4.333 0 0 0 2.975 2.976L22 8.5l-2.74.783a4.334 4.334 0 0 0-2.976 2.975l-.001.001ZM6.5 22l.591-1.774a3.375 3.375 0 0 1 2.135-2.135L11 17.5l-1.774-.591a3.375 3.375 0 0 1-2.135-2.134L6.5 13l-.591 1.774a3.375 3.375 0 0 1-2.134 2.135L2 17.5l1.775.591a3.375 3.375 0 0 1 2.134 2.134L6.5 22Z"/></svg>
