<svg width="24" height="24" viewBox="0 0 24 24" fill="none" xmlns="http://www.w3.org/2000/svg">
<path d="M12 14.0929L20 9.42144L12 4.75L4 9.42144L12 14.0929ZM12 14.0929L17.4756 10.8957C18.196 12.8186 18.4005 14.4134 18.0667 16.45C15.8121 16.68 13.6864 17.6604 12 19.25C10.3138 17.6606 8.18852 16.6802 5.93422 16.45C5.60018 14.4134 5.80465 12.8185 6.52533 10.8957L12 14.0929Z" stroke="#509EE3" stroke-width="1.5" stroke-linecap="round" stroke-linejoin="round"/>
<path d="M12.5 9.5C12.5 9.7761 12.2761 10 12 10C11.7239 10 11.5 9.7761 11.5 9.5C11.5 9.2239 11.7239 9 12 9C12.2761 9 12.5 9.2239 12.5 9.5Z" stroke="#509EE3" stroke-linecap="round" stroke-linejoin="round"/>
</svg>
