<svg viewBox="0 0 300 128" fill="none" xmlns="http://www.w3.org/2000/svg">
<g opacity="0.25">
<g clip-path="url(#clip0_10291_59931)">
<path d="M66.7198 25.988V38.1684H64.4778V30.6889C64.4778 30.5323 64.4806 30.3644 64.4862 30.1853C64.4975 30.0062 64.5144 29.8243 64.5369 29.6397L61.0257 36.2461C60.834 36.6098 60.5378 36.7918 60.1374 36.7918H59.782C59.5846 36.7918 59.4098 36.747 59.2574 36.6574C59.1052 36.5623 58.9839 36.4252 58.8936 36.2461L55.3655 29.6145C55.3824 29.8103 55.3965 30.0006 55.4078 30.1853C55.4191 30.3644 55.4248 30.5323 55.4248 30.6889V38.1684H53.1826V25.988H55.1117C55.2189 25.988 55.3147 25.9908 55.3993 25.9964C55.4839 26.002 55.5573 26.0188 55.6194 26.0468C55.6871 26.0692 55.7462 26.1084 55.797 26.1643C55.8534 26.2147 55.907 26.2874 55.9578 26.3826L59.3929 32.8799C59.5 33.0758 59.5987 33.2773 59.6889 33.4843C59.7849 33.6914 59.8751 33.904 59.9597 34.1222C60.0443 33.8985 60.1317 33.6802 60.222 33.4675C60.3179 33.2549 60.4194 33.0506 60.5266 32.8547L63.9362 26.3826C63.987 26.2874 64.0406 26.2147 64.097 26.1643C64.1534 26.1084 64.2126 26.0692 64.2746 26.0468C64.3424 26.0188 64.4157 26.002 64.4947 25.9964C64.5793 25.9908 64.678 25.988 64.7908 25.988H66.7198Z" fill="black"/>
<path d="M73.8869 32.8213C73.8869 32.5806 73.8531 32.3511 73.7853 32.1329C73.7233 31.9146 73.6218 31.7216 73.4807 31.5537C73.3397 31.3858 73.162 31.2542 72.9477 31.1592C72.7334 31.0584 72.4767 31.008 72.1778 31.008C71.6194 31.008 71.1823 31.1647 70.8664 31.4781C70.5505 31.7915 70.3446 32.2392 70.2488 32.8213H73.8869ZM70.2149 34.1979C70.2882 35.0094 70.5195 35.6026 70.9087 35.9775C71.3035 36.3525 71.8168 36.54 72.4486 36.54C72.77 36.54 73.0464 36.5036 73.2777 36.4308C73.5146 36.3525 73.7205 36.2685 73.8953 36.179C74.0759 36.0839 74.2365 36 74.3776 35.9272C74.5243 35.8488 74.668 35.8096 74.8091 35.8096C74.9896 35.8096 75.1306 35.8769 75.2321 36.0111L75.909 36.8505C75.6608 37.136 75.3872 37.3739 75.0883 37.5641C74.7893 37.7488 74.4791 37.8971 74.1576 38.009C73.8361 38.1153 73.5117 38.1881 73.1846 38.2273C72.8575 38.2721 72.5416 38.2944 72.237 38.2944C71.6278 38.2944 71.0582 38.1965 70.528 38.0006C70.0034 37.7991 69.5437 37.5054 69.1488 37.1192C68.7597 36.7275 68.4523 36.2434 68.2267 35.667C68.001 35.0906 67.8882 34.4218 67.8882 33.6607C67.8882 33.0731 67.9841 32.519 68.1759 31.9986C68.3733 31.4781 68.6553 31.0248 69.022 30.6387C69.3885 30.2525 69.8342 29.9475 70.3587 29.7237C70.8833 29.4943 71.4756 29.3795 72.1355 29.3795C72.6939 29.3795 73.2072 29.469 73.6754 29.6481C74.1491 29.8216 74.5553 30.0763 74.8937 30.412C75.2378 30.7478 75.5028 31.1619 75.689 31.6544C75.8807 32.1413 75.9767 32.6981 75.9767 33.3249C75.9767 33.4984 75.9682 33.6411 75.9513 33.753C75.9343 33.865 75.9062 33.9545 75.8667 34.0216C75.8271 34.0888 75.7736 34.1364 75.7059 34.1643C75.6382 34.1867 75.5508 34.1979 75.4437 34.1979H70.2149Z" fill="black"/>
<path d="M80.0002 38.3029C79.6053 38.3029 79.2557 38.2469 78.951 38.135C78.6465 38.0175 78.3898 37.8524 78.1811 37.6397C77.9724 37.4271 77.8145 37.1696 77.7073 36.8674C77.6001 36.5652 77.5465 36.2239 77.5465 35.8432V31.176H76.7259C76.6018 31.176 76.4946 31.1368 76.4043 31.0584C76.3197 30.9801 76.2775 30.8626 76.2775 30.7058V29.7993L77.6735 29.5475L78.1473 27.3061C78.2093 27.0543 78.3813 26.9283 78.6634 26.9283H79.8817V29.5642H82.1322V31.176H79.8817V35.6922C79.8817 35.9328 79.9381 36.1231 80.051 36.263C80.1694 36.4029 80.3358 36.4729 80.5501 36.4729C80.6629 36.4729 80.7588 36.4617 80.8378 36.4393C80.9168 36.4113 80.9845 36.3833 81.0409 36.3553C81.0972 36.3217 81.148 36.2938 81.1932 36.2714C81.2439 36.2435 81.2947 36.2294 81.3454 36.2294C81.4131 36.2294 81.4695 36.2462 81.5146 36.2798C81.5598 36.3078 81.6049 36.3581 81.65 36.4309L82.3523 37.539C82.0307 37.7908 81.6669 37.9811 81.2608 38.1097C80.8547 38.2385 80.4345 38.3029 80.0002 38.3029Z" fill="black"/>
<path d="M87.6052 34.5505C87.0356 34.5785 86.5617 34.6289 86.1838 34.7016C85.8059 34.7688 85.5041 34.8583 85.2785 34.9702C85.0586 35.0822 84.9006 35.2109 84.8047 35.3564C84.7145 35.4963 84.6693 35.6502 84.6693 35.8181C84.6693 36.1538 84.7624 36.3917 84.9485 36.5316C85.1403 36.6715 85.4054 36.7414 85.7438 36.7414C86.1331 36.7414 86.4686 36.6743 86.7507 36.54C87.0383 36.4001 87.3232 36.1847 87.6052 35.8937V34.5505ZM82.8502 30.7143C83.3636 30.2554 83.9304 29.914 84.5509 29.6901C85.1713 29.4606 85.8425 29.3459 86.5646 29.3459C87.0835 29.3459 87.546 29.4299 87.9521 29.5978C88.3639 29.7657 88.7108 30.0007 88.9927 30.3029C89.2805 30.5995 89.5004 30.9549 89.6527 31.369C89.805 31.7831 89.8811 32.2365 89.8811 32.7289V38.1685H88.8151C88.5951 38.1685 88.4259 38.1378 88.3074 38.0762C88.1947 38.0147 88.1016 37.8859 88.0282 37.69L87.8421 37.136C87.6222 37.3263 87.4078 37.4942 87.1991 37.6397C86.9961 37.7852 86.7845 37.9083 86.5646 38.009C86.3445 38.1042 86.1076 38.1769 85.8539 38.2273C85.6056 38.2776 85.3264 38.3029 85.0162 38.3029C84.6326 38.3029 84.283 38.2525 83.9671 38.1517C83.6512 38.051 83.3777 37.9027 83.1464 37.7069C82.9208 37.5054 82.7459 37.2563 82.6219 36.9597C82.4978 36.6632 82.4357 36.3217 82.4357 35.9356C82.4357 35.6166 82.5175 35.2976 82.681 34.9787C82.8447 34.6596 83.1239 34.3714 83.5187 34.114C83.9192 33.8509 84.4494 33.6355 85.1093 33.4676C85.7748 33.2942 86.6068 33.1962 87.6052 33.1738V32.7289C87.6052 32.186 87.4896 31.7887 87.2584 31.5369C87.0271 31.2795 86.6942 31.1508 86.2599 31.1508C85.9385 31.1508 85.6705 31.1899 85.4562 31.2683C85.2418 31.3411 85.0529 31.4222 84.8894 31.5117C84.7314 31.5957 84.5819 31.6768 84.4409 31.7552C84.2999 31.8279 84.1363 31.8643 83.9502 31.8643C83.7866 31.8643 83.6484 31.8251 83.5356 31.7467C83.4284 31.6628 83.3382 31.5649 83.2648 31.4529L82.8502 30.7143Z" fill="black"/>
<path d="M93.7006 35.8852C93.9206 36.137 94.1575 36.3133 94.4113 36.414C94.6708 36.5148 94.9387 36.5652 95.2151 36.5652C95.5028 36.5652 95.7622 36.5148 95.9934 36.414C96.2304 36.3077 96.4334 36.1426 96.6026 35.9188C96.7718 35.6894 96.9016 35.3927 96.9919 35.029C97.0821 34.6652 97.1272 34.2259 97.1272 33.711C97.1272 33.2521 97.0906 32.8632 97.0172 32.5442C96.9439 32.2197 96.8339 31.9538 96.6872 31.7467C96.5462 31.5397 96.3714 31.3886 96.1627 31.2934C95.954 31.1983 95.7115 31.1507 95.4351 31.1507C95.0685 31.1507 94.7497 31.2319 94.479 31.3942C94.2139 31.5509 93.9544 31.7831 93.7006 32.0909V35.8852ZM93.7006 30.5128C94.0447 30.1714 94.4254 29.8972 94.8428 29.6901C95.2602 29.483 95.7284 29.3795 96.2473 29.3795C96.7493 29.3795 97.2006 29.4802 97.6011 29.6817C98.0071 29.8776 98.3512 30.1602 98.6332 30.5295C98.9209 30.8989 99.1409 31.3466 99.2932 31.8726C99.4511 32.3931 99.5301 32.9779 99.5301 33.6271C99.5301 34.3266 99.4398 34.9646 99.2594 35.541C99.0845 36.1119 98.8334 36.6015 98.5063 37.0101C98.1792 37.4186 97.7872 37.7348 97.3303 37.9587C96.879 38.1824 96.3742 38.2944 95.8158 38.2944C95.545 38.2944 95.3025 38.2664 95.0882 38.2105C94.8738 38.1601 94.6764 38.0874 94.4959 37.9922C94.3154 37.8971 94.149 37.7851 93.9968 37.6564C93.8445 37.5222 93.7006 37.3738 93.5653 37.2116L93.4722 37.732C93.4327 37.8943 93.3678 38.009 93.2776 38.0761C93.1874 38.1377 93.0661 38.1685 92.9137 38.1685H91.3655V25.6523H93.7006V30.5128Z" fill="black"/>
<path d="M105.254 34.5505C104.685 34.5785 104.211 34.6289 103.833 34.7016C103.455 34.7688 103.153 34.8583 102.928 34.9702C102.708 35.0822 102.55 35.2109 102.454 35.3564C102.364 35.4963 102.319 35.6502 102.319 35.8181C102.319 36.1538 102.412 36.3917 102.598 36.5316C102.79 36.6715 103.055 36.7414 103.393 36.7414C103.782 36.7414 104.118 36.6743 104.4 36.54C104.688 36.4001 104.972 36.1847 105.254 35.8937V34.5505ZM100.5 30.7143C101.013 30.2554 101.58 29.914 102.2 29.6901C102.821 29.4606 103.492 29.3459 104.214 29.3459C104.733 29.3459 105.195 29.4299 105.601 29.5978C106.013 29.7657 106.36 30.0007 106.642 30.3029C106.93 30.5995 107.15 30.9549 107.302 31.369C107.454 31.7831 107.53 32.2365 107.53 32.7289V38.1685H106.464C106.244 38.1685 106.075 38.1378 105.957 38.0762C105.844 38.0147 105.751 37.8859 105.678 37.69L105.491 37.136C105.271 37.3263 105.057 37.4942 104.848 37.6397C104.645 37.7852 104.434 37.9083 104.214 38.009C103.994 38.1042 103.757 38.1769 103.503 38.2273C103.255 38.2776 102.976 38.3029 102.665 38.3029C102.282 38.3029 101.932 38.2525 101.616 38.1517C101.301 38.051 101.027 37.9027 100.796 37.7069C100.57 37.5054 100.395 37.2563 100.271 36.9597C100.147 36.6632 100.085 36.3217 100.085 35.9356C100.085 35.6166 100.167 35.2976 100.33 34.9787C100.494 34.6596 100.773 34.3714 101.168 34.114C101.568 33.8509 102.099 33.6355 102.759 33.4676C103.424 33.2942 104.256 33.1962 105.254 33.1738V32.7289C105.254 32.186 105.139 31.7887 104.908 31.5369C104.676 31.2795 104.344 31.1508 103.909 31.1508C103.588 31.1508 103.32 31.1899 103.105 31.2683C102.891 31.3411 102.702 31.4222 102.539 31.5117C102.381 31.5957 102.231 31.6768 102.09 31.7552C101.949 31.8279 101.786 31.8643 101.599 31.8643C101.436 31.8643 101.298 31.8251 101.185 31.7467C101.078 31.6628 100.987 31.5649 100.914 31.4529L100.5 30.7143Z" fill="black"/>
<path d="M114.438 31.2934C114.376 31.3886 114.311 31.4585 114.243 31.5033C114.181 31.5425 114.094 31.562 113.981 31.562C113.868 31.562 113.753 31.5341 113.634 31.4781C113.516 31.4221 113.383 31.3634 113.237 31.3019C113.09 31.2346 112.921 31.1731 112.729 31.1172C112.543 31.0612 112.326 31.0332 112.078 31.0332C111.7 31.0332 111.406 31.1115 111.198 31.2683C110.989 31.4193 110.885 31.6208 110.885 31.8726C110.885 32.0461 110.944 32.1916 111.062 32.3092C111.181 32.4267 111.336 32.5303 111.528 32.6198C111.725 32.7037 111.948 32.7849 112.196 32.8632C112.444 32.9359 112.698 33.0171 112.957 33.1066C113.223 33.1962 113.479 33.2997 113.727 33.4172C113.976 33.5348 114.196 33.6831 114.387 33.8622C114.585 34.0356 114.743 34.2483 114.861 34.5001C114.98 34.7463 115.039 35.0458 115.039 35.3984C115.039 35.8181 114.96 36.2071 114.802 36.5652C114.65 36.9178 114.424 37.2227 114.125 37.4802C113.826 37.7376 113.454 37.9391 113.008 38.0846C112.563 38.2301 112.049 38.3028 111.468 38.3028C111.169 38.3028 110.873 38.2748 110.58 38.2188C110.287 38.1685 110.007 38.0957 109.742 38.0006C109.477 37.8999 109.229 37.7851 108.998 37.6564C108.767 37.5277 108.566 37.3878 108.397 37.2367L108.939 36.3721C109.001 36.2714 109.077 36.193 109.167 36.137C109.263 36.0811 109.384 36.0531 109.531 36.0531C109.672 36.0531 109.802 36.0895 109.92 36.1622C110.038 36.2294 110.171 36.3049 110.318 36.3889C110.464 36.4672 110.636 36.5428 110.834 36.6155C111.037 36.6827 111.288 36.7163 111.587 36.7163C111.812 36.7163 112.007 36.6911 112.171 36.6407C112.334 36.5904 112.467 36.5232 112.568 36.4393C112.67 36.3497 112.743 36.2518 112.788 36.1455C112.839 36.0335 112.864 35.9188 112.864 35.8013C112.864 35.611 112.802 35.4571 112.678 35.3396C112.56 35.2165 112.402 35.1101 112.204 35.0205C112.013 34.931 111.79 34.8499 111.536 34.7772C111.282 34.7044 111.023 34.6232 110.758 34.5337C110.498 34.4442 110.242 34.3379 109.988 34.2147C109.74 34.0916 109.517 33.9377 109.319 33.7531C109.128 33.5627 108.97 33.3305 108.846 33.0563C108.727 32.7821 108.668 32.4491 108.668 32.0573C108.668 31.6992 108.738 31.3605 108.879 31.0416C109.02 30.717 109.232 30.4316 109.514 30.1854C109.796 29.9391 110.146 29.7433 110.563 29.5978C110.986 29.4523 111.474 29.3795 112.027 29.3795C112.647 29.3795 113.211 29.4802 113.719 29.6817C114.227 29.8831 114.644 30.1462 114.971 30.4708L114.438 31.2934Z" fill="black"/>
<path d="M121.696 32.8213C121.696 32.5806 121.662 32.3511 121.593 32.1329C121.532 31.9146 121.43 31.7216 121.289 31.5537C121.148 31.3858 120.971 31.2542 120.756 31.1592C120.541 31.0584 120.285 31.008 119.986 31.008C119.428 31.008 118.991 31.1647 118.675 31.4781C118.359 31.7915 118.153 32.2392 118.057 32.8213H121.696ZM118.023 34.1979C118.097 35.0094 118.328 35.6026 118.717 35.9775C119.112 36.3525 119.625 36.54 120.257 36.54C120.578 36.54 120.855 36.5036 121.086 36.4308C121.323 36.3525 121.529 36.2685 121.704 36.179C121.885 36.0839 122.045 36 122.186 35.9272C122.333 35.8488 122.476 35.8096 122.617 35.8096C122.798 35.8096 122.939 35.8769 123.041 36.0111L123.717 36.8505C123.47 37.136 123.196 37.3739 122.897 37.5641C122.598 37.7488 122.287 37.8971 121.966 38.009C121.645 38.1153 121.32 38.1881 120.993 38.2273C120.666 38.2721 120.35 38.2944 120.046 38.2944C119.436 38.2944 118.867 38.1965 118.336 38.0006C117.812 37.7991 117.352 37.5054 116.957 37.1192C116.568 36.7275 116.261 36.2434 116.035 35.667C115.81 35.0906 115.697 34.4218 115.697 33.6607C115.697 33.0731 115.793 32.519 115.984 31.9986C116.182 31.4781 116.464 31.0248 116.83 30.6387C117.197 30.2525 117.643 29.9475 118.167 29.7237C118.692 29.4943 119.284 29.3795 119.944 29.3795C120.502 29.3795 121.016 29.469 121.484 29.6481C121.957 29.8216 122.364 30.0763 122.702 30.412C123.046 30.7478 123.311 31.1619 123.497 31.6544C123.689 32.1413 123.785 32.6981 123.785 33.3249C123.785 33.4984 123.777 33.6411 123.76 33.753C123.743 33.865 123.715 33.9545 123.675 34.0216C123.636 34.0888 123.582 34.1364 123.514 34.1643C123.447 34.1867 123.359 34.1979 123.252 34.1979H118.023Z" fill="black"/>
<path fill-rule="evenodd" clip-rule="evenodd" d="M27.4699 27.1327C28.2818 27.1327 28.9399 26.4799 28.9399 25.6747C28.9399 24.8695 28.2818 24.2168 27.4699 24.2168C26.6581 24.2168 26 24.8695 26 25.6747C26 26.4799 26.6581 27.1327 27.4699 27.1327Z" fill="black"/>
<path fill-rule="evenodd" clip-rule="evenodd" d="M27.4699 31.3495C28.2818 31.3495 28.9399 30.6967 28.9399 29.8915C28.9399 29.0863 28.2818 28.4336 27.4699 28.4336C26.6581 28.4336 26 29.0863 26 29.8915C26 30.6967 26.6581 31.3495 27.4699 31.3495Z" fill="black"/>
<path fill-rule="evenodd" clip-rule="evenodd" d="M31.7215 31.3495C32.5334 31.3495 33.1915 30.6967 33.1915 29.8915C33.1915 29.0863 32.5334 28.4336 31.7215 28.4336C30.9097 28.4336 30.2516 29.0863 30.2516 29.8915C30.2516 30.6967 30.9097 31.3495 31.7215 31.3495Z" fill="black"/>
<path fill-rule="evenodd" clip-rule="evenodd" d="M44.476 27.1327C45.2879 27.1327 45.946 26.4799 45.946 25.6747C45.946 24.8695 45.2879 24.2168 44.476 24.2168C43.6642 24.2168 43.0061 24.8695 43.0061 25.6747C43.0061 26.4799 43.6642 27.1327 44.476 27.1327Z" fill="black"/>
<path fill-rule="evenodd" clip-rule="evenodd" d="M40.2245 31.3495C41.0364 31.3495 41.6944 30.6967 41.6944 29.8915C41.6944 29.0863 41.0364 28.4336 40.2245 28.4336C39.4127 28.4336 38.7545 29.0863 38.7545 29.8915C38.7545 30.6967 39.4127 31.3495 40.2245 31.3495Z" fill="black"/>
<path fill-rule="evenodd" clip-rule="evenodd" d="M35.973 35.5663C36.7848 35.5663 37.443 34.9136 37.443 34.1084C37.443 33.3032 36.7848 32.6504 35.973 32.6504C35.1612 32.6504 34.5031 33.3032 34.5031 34.1084C34.5031 34.9136 35.1612 35.5663 35.973 35.5663Z" fill="black"/>
<path fill-rule="evenodd" clip-rule="evenodd" d="M44.476 31.3495C45.2879 31.3495 45.946 30.6967 45.946 29.8915C45.946 29.0863 45.2879 28.4336 44.476 28.4336C43.6642 28.4336 43.0061 29.0863 43.0061 29.8915C43.0061 30.6967 43.6642 31.3495 44.476 31.3495Z" fill="black"/>
<path fill-rule="evenodd" clip-rule="evenodd" d="M27.4699 35.5663C28.2818 35.5663 28.9399 34.9136 28.9399 34.1084C28.9399 33.3032 28.2818 32.6504 27.4699 32.6504C26.6581 32.6504 26 33.3032 26 34.1084C26 34.9136 26.6581 35.5663 27.4699 35.5663Z" fill="black"/>
<path fill-rule="evenodd" clip-rule="evenodd" d="M44.476 35.5663C45.2879 35.5663 45.946 34.9136 45.946 34.1084C45.946 33.3032 45.2879 32.6504 44.476 32.6504C43.6642 32.6504 43.0061 33.3032 43.0061 34.1084C43.0061 34.9136 43.6642 35.5663 44.476 35.5663Z" fill="black"/>
<path fill-rule="evenodd" clip-rule="evenodd" d="M27.4699 39.7832C28.2818 39.7832 28.9399 39.1304 28.9399 38.3252C28.9399 37.52 28.2818 36.8673 27.4699 36.8673C26.6581 36.8673 26 37.52 26 38.3252C26 39.1304 26.6581 39.7832 27.4699 39.7832Z" fill="black"/>
<path fill-rule="evenodd" clip-rule="evenodd" d="M44.476 39.7832C45.2879 39.7832 45.946 39.1304 45.946 38.3252C45.946 37.52 45.2879 36.8673 44.476 36.8673C43.6642 36.8673 43.0061 37.52 43.0061 38.3252C43.0061 39.1304 43.6642 39.7832 44.476 39.7832Z" fill="black"/>
<path fill-rule="evenodd" clip-rule="evenodd" d="M31.7215 27.1327C32.5334 27.1327 33.1915 26.4799 33.1915 25.6747C33.1915 24.8695 32.5334 24.2168 31.7215 24.2168C30.9097 24.2168 30.2516 24.8695 30.2516 25.6747C30.2516 26.4799 30.9097 27.1327 31.7215 27.1327Z" fill="black" fill-opacity="0.5"/>
<path fill-rule="evenodd" clip-rule="evenodd" d="M35.973 27.1327C36.7848 27.1327 37.443 26.4799 37.443 25.6747C37.443 24.8695 36.7848 24.2168 35.973 24.2168C35.1612 24.2168 34.5031 24.8695 34.5031 25.6747C34.5031 26.4799 35.1612 27.1327 35.973 27.1327Z" fill="black" fill-opacity="0.5"/>
<path fill-rule="evenodd" clip-rule="evenodd" d="M35.973 22.9159C36.7848 22.9159 37.443 22.2631 37.443 21.4579C37.443 20.6527 36.7848 20 35.973 20C35.1612 20 34.5031 20.6527 34.5031 21.4579C34.5031 22.2631 35.1612 22.9159 35.973 22.9159Z" fill="black" fill-opacity="0.5"/>
<path fill-rule="evenodd" clip-rule="evenodd" d="M35.973 31.3495C36.7848 31.3495 37.443 30.6967 37.443 29.8915C37.443 29.0863 36.7848 28.4336 35.973 28.4336C35.1612 28.4336 34.5031 29.0863 34.5031 29.8915C34.5031 30.6967 35.1612 31.3495 35.973 31.3495Z" fill="black" fill-opacity="0.5"/>
<path fill-rule="evenodd" clip-rule="evenodd" d="M40.2245 27.1327C41.0364 27.1327 41.6944 26.4799 41.6944 25.6747C41.6944 24.8695 41.0364 24.2168 40.2245 24.2168C39.4127 24.2168 38.7545 24.8695 38.7545 25.6747C38.7545 26.4799 39.4127 27.1327 40.2245 27.1327Z" fill="black" fill-opacity="0.5"/>
<path fill-rule="evenodd" clip-rule="evenodd" d="M31.7215 35.5663C32.5334 35.5663 33.1915 34.9136 33.1915 34.1084C33.1915 33.3032 32.5334 32.6504 31.7215 32.6504C30.9097 32.6504 30.2516 33.3032 30.2516 34.1084C30.2516 34.9136 30.9097 35.5663 31.7215 35.5663Z" fill="black" fill-opacity="0.5"/>
<path fill-rule="evenodd" clip-rule="evenodd" d="M40.2245 35.5663C41.0364 35.5663 41.6944 34.9136 41.6944 34.1084C41.6944 33.3032 41.0364 32.6504 40.2245 32.6504C39.4127 32.6504 38.7545 33.3032 38.7545 34.1084C38.7545 34.9136 39.4127 35.5663 40.2245 35.5663Z" fill="black" fill-opacity="0.5"/>
<path fill-rule="evenodd" clip-rule="evenodd" d="M31.7215 39.7832C32.5334 39.7832 33.1915 39.1304 33.1915 38.3252C33.1915 37.52 32.5334 36.8673 31.7215 36.8673C30.9097 36.8673 30.2516 37.52 30.2516 38.3252C30.2516 39.1304 30.9097 39.7832 31.7215 39.7832Z" fill="black" fill-opacity="0.5"/>
<path fill-rule="evenodd" clip-rule="evenodd" d="M35.973 39.7832C36.7848 39.7832 37.443 39.1304 37.443 38.3252C37.443 37.52 36.7848 36.8673 35.973 36.8673C35.1612 36.8673 34.5031 37.52 34.5031 38.3252C34.5031 39.1304 35.1612 39.7832 35.973 39.7832Z" fill="black" fill-opacity="0.5"/>
<path fill-rule="evenodd" clip-rule="evenodd" d="M35.973 44C36.7848 44 37.443 43.3472 37.443 42.5421C37.443 41.7369 36.7848 41.0841 35.973 41.0841C35.1612 41.0841 34.5031 41.7369 34.5031 42.5421C34.5031 43.3472 35.1612 44 35.973 44Z" fill="black" fill-opacity="0.5"/>
<path fill-rule="evenodd" clip-rule="evenodd" d="M40.2245 39.7832C41.0364 39.7832 41.6944 39.1304 41.6944 38.3252C41.6944 37.52 41.0364 36.8673 40.2245 36.8673C39.4127 36.8673 38.7545 37.52 38.7545 38.3252C38.7545 39.1304 39.4127 39.7832 40.2245 39.7832Z" fill="black" fill-opacity="0.5"/>
</g>
</g>
<g opacity="0.15">
<path d="M261.859 37.297L258.505 45.145C258.461 45.249 258.403 45.327 258.331 45.379C258.263 45.435 258.157 45.463 258.013 45.463H256.909L258.061 42.991L255.571 37.297H256.873C256.989 37.297 257.079 37.325 257.143 37.381C257.211 37.437 257.261 37.501 257.293 37.573L258.601 40.765C258.645 40.873 258.681 40.981 258.709 41.089C258.741 41.197 258.771 41.307 258.799 41.419C258.835 41.307 258.871 41.197 258.907 41.089C258.943 40.977 258.983 40.867 259.027 40.759L260.263 37.573C260.295 37.493 260.347 37.427 260.419 37.375C260.495 37.323 260.579 37.297 260.671 37.297H261.859Z" fill="black"/>
<path d="M254.79 34.537V43.453H253.308V34.537H254.79Z" fill="black"/>
<path d="M247.903 38.0529C248.027 37.9289 248.157 37.8149 248.293 37.7109C248.433 37.6029 248.579 37.5129 248.731 37.4409C248.887 37.3649 249.053 37.3069 249.229 37.2669C249.405 37.2229 249.597 37.2009 249.805 37.2009C250.141 37.2009 250.439 37.2589 250.699 37.3749C250.959 37.4869 251.175 37.6469 251.347 37.8549C251.523 38.0589 251.655 38.3049 251.743 38.5929C251.835 38.8769 251.881 39.1909 251.881 39.5349V43.4529H250.399V39.5349C250.399 39.1589 250.313 38.8689 250.141 38.6649C249.969 38.4569 249.707 38.3529 249.355 38.3529C249.099 38.3529 248.859 38.4109 248.635 38.5269C248.411 38.6429 248.199 38.8009 247.999 39.0009V43.4529H246.517V37.2969H247.423C247.615 37.2969 247.741 37.3869 247.801 37.5669L247.903 38.0529Z" fill="black"/>
<path d="M242.35 37.2009C242.806 37.2009 243.22 37.2749 243.592 37.4229C243.968 37.5709 244.288 37.7809 244.552 38.0529C244.82 38.3249 245.026 38.6569 245.17 39.0489C245.314 39.4409 245.386 39.8789 245.386 40.3629C245.386 40.8509 245.314 41.2909 245.17 41.6829C245.026 42.0749 244.82 42.4089 244.552 42.6849C244.288 42.9609 243.968 43.1729 243.592 43.3209C243.22 43.4689 242.806 43.5429 242.35 43.5429C241.89 43.5429 241.472 43.4689 241.096 43.3209C240.72 43.1729 240.398 42.9609 240.13 42.6849C239.866 42.4089 239.66 42.0749 239.512 41.6829C239.368 41.2909 239.296 40.8509 239.296 40.3629C239.296 39.8789 239.368 39.4409 239.512 39.0489C239.66 38.6569 239.866 38.3249 240.13 38.0529C240.398 37.7809 240.72 37.5709 241.096 37.4229C241.472 37.2749 241.89 37.2009 242.35 37.2009ZM242.35 42.4029C242.862 42.4029 243.24 42.2309 243.484 41.8869C243.732 41.5429 243.856 41.0389 243.856 40.3749C243.856 39.7109 243.732 39.2049 243.484 38.8569C243.24 38.5089 242.862 38.3349 242.35 38.3349C241.83 38.3349 241.444 38.5109 241.192 38.8629C240.944 39.2109 240.82 39.7149 240.82 40.3749C240.82 41.0349 240.944 41.5389 241.192 41.8869C241.444 42.2309 241.83 42.4029 242.35 42.4029Z" fill="black"/>
<path d="M235.191 38.4969C235.151 38.5609 235.109 38.6069 235.065 38.6349C235.021 38.6589 234.965 38.6709 234.897 38.6709C234.825 38.6709 234.747 38.6509 234.663 38.6109C234.583 38.5709 234.489 38.5269 234.381 38.4789C234.273 38.4269 234.149 38.3809 234.009 38.3409C233.873 38.3009 233.711 38.2809 233.523 38.2809C233.231 38.2809 233.001 38.3429 232.833 38.4669C232.669 38.5909 232.587 38.7529 232.587 38.9529C232.587 39.0849 232.629 39.1969 232.713 39.2889C232.801 39.3769 232.915 39.4549 233.055 39.5229C233.199 39.5909 233.361 39.6529 233.541 39.7089C233.721 39.7609 233.903 39.8189 234.087 39.8829C234.275 39.9469 234.459 40.0209 234.639 40.1049C234.819 40.1849 234.979 40.2889 235.119 40.4169C235.263 40.5409 235.377 40.6909 235.461 40.8669C235.549 41.0429 235.593 41.2549 235.593 41.5029C235.593 41.7989 235.539 42.0729 235.431 42.3249C235.327 42.5729 235.171 42.7889 234.963 42.9729C234.755 43.1529 234.497 43.2949 234.189 43.3989C233.885 43.4989 233.533 43.5489 233.133 43.5489C232.921 43.5489 232.713 43.5289 232.509 43.4889C232.309 43.4529 232.115 43.4009 231.927 43.3329C231.743 43.2649 231.571 43.1849 231.411 43.0929C231.255 43.0009 231.117 42.9009 230.997 42.7929L231.339 42.2289C231.383 42.1609 231.435 42.1089 231.495 42.0729C231.555 42.0369 231.631 42.0189 231.723 42.0189C231.815 42.0189 231.901 42.0449 231.981 42.0969C232.065 42.1489 232.161 42.2049 232.269 42.2649C232.377 42.3249 232.503 42.3809 232.647 42.4329C232.795 42.4849 232.981 42.5109 233.205 42.5109C233.381 42.5109 233.531 42.4909 233.655 42.4509C233.783 42.4069 233.887 42.3509 233.967 42.2829C234.051 42.2149 234.111 42.1369 234.147 42.0489C234.187 41.9569 234.207 41.8629 234.207 41.7669C234.207 41.6229 234.163 41.5049 234.075 41.4129C233.991 41.3209 233.877 41.2409 233.733 41.1729C233.593 41.1049 233.431 41.0449 233.247 40.9929C233.067 40.9369 232.881 40.8769 232.689 40.8129C232.501 40.7489 232.315 40.6749 232.131 40.5909C231.951 40.5029 231.789 40.3929 231.645 40.2609C231.505 40.1289 231.391 39.9669 231.303 39.7749C231.219 39.5829 231.177 39.3509 231.177 39.0789C231.177 38.8269 231.227 38.5869 231.327 38.3589C231.427 38.1309 231.573 37.9329 231.765 37.7649C231.961 37.5929 232.203 37.4569 232.491 37.3569C232.783 37.2529 233.119 37.2009 233.499 37.2009C233.923 37.2009 234.309 37.2709 234.657 37.4109C235.005 37.5509 235.295 37.7349 235.527 37.9629L235.191 38.4969Z" fill="black"/>
<path d="M228.991 39.6669C228.991 39.4749 228.963 39.2949 228.907 39.1269C228.855 38.9549 228.775 38.8049 228.667 38.6769C228.559 38.5489 228.421 38.4489 228.253 38.3769C228.089 38.3009 227.897 38.2629 227.677 38.2629C227.249 38.2629 226.911 38.3849 226.663 38.6289C226.419 38.8729 226.263 39.2189 226.195 39.6669H228.991ZM226.165 40.5609C226.189 40.8769 226.245 41.1509 226.333 41.3829C226.421 41.6109 226.537 41.8009 226.681 41.9529C226.825 42.1009 226.995 42.2129 227.191 42.2889C227.391 42.3609 227.611 42.3969 227.851 42.3969C228.091 42.3969 228.297 42.3689 228.469 42.3129C228.645 42.2569 228.797 42.1949 228.925 42.1269C229.057 42.0589 229.171 41.9969 229.267 41.9409C229.367 41.8849 229.463 41.8569 229.555 41.8569C229.679 41.8569 229.771 41.9029 229.831 41.9949L230.257 42.5349C230.093 42.7269 229.909 42.8889 229.705 43.0209C229.501 43.1489 229.287 43.2529 229.063 43.3329C228.843 43.4089 228.617 43.4629 228.385 43.4949C228.157 43.5269 227.935 43.5429 227.719 43.5429C227.291 43.5429 226.893 43.4729 226.525 43.3329C226.157 43.1889 225.837 42.9789 225.565 42.7029C225.293 42.4229 225.079 42.0789 224.923 41.6709C224.767 41.2589 224.689 40.7829 224.689 40.2429C224.689 39.8229 224.757 39.4289 224.893 39.0609C225.029 38.6889 225.223 38.3669 225.475 38.0949C225.731 37.8189 226.041 37.6009 226.405 37.4409C226.773 37.2809 227.187 37.2009 227.647 37.2009C228.035 37.2009 228.393 37.2629 228.721 37.3869C229.049 37.5109 229.331 37.6929 229.567 37.9329C229.803 38.1689 229.987 38.4609 230.119 38.8089C230.255 39.1529 230.323 39.5469 230.323 39.9909C230.323 40.2149 230.299 40.3669 230.251 40.4469C230.203 40.5229 230.111 40.5609 229.975 40.5609H226.165Z" fill="black"/>
<path d="M223.507 38.4969C223.467 38.5609 223.425 38.6069 223.381 38.6349C223.337 38.6589 223.281 38.6709 223.213 38.6709C223.141 38.6709 223.063 38.6509 222.979 38.6109C222.899 38.5709 222.805 38.5269 222.697 38.4789C222.589 38.4269 222.465 38.3809 222.325 38.3409C222.189 38.3009 222.027 38.2809 221.839 38.2809C221.547 38.2809 221.317 38.3429 221.149 38.4669C220.985 38.5909 220.903 38.7529 220.903 38.9529C220.903 39.0849 220.945 39.1969 221.029 39.2889C221.117 39.3769 221.231 39.4549 221.371 39.5229C221.515 39.5909 221.677 39.6529 221.857 39.7089C222.037 39.7609 222.219 39.8189 222.403 39.8829C222.591 39.9469 222.775 40.0209 222.955 40.1049C223.135 40.1849 223.295 40.2889 223.435 40.4169C223.579 40.5409 223.693 40.6909 223.777 40.8669C223.865 41.0429 223.909 41.2549 223.909 41.5029C223.909 41.7989 223.855 42.0729 223.747 42.3249C223.643 42.5729 223.487 42.7889 223.279 42.9729C223.071 43.1529 222.813 43.2949 222.505 43.3989C222.201 43.4989 221.849 43.5489 221.449 43.5489C221.237 43.5489 221.029 43.5289 220.825 43.4889C220.625 43.4529 220.431 43.4009 220.243 43.3329C220.059 43.2649 219.887 43.1849 219.727 43.0929C219.571 43.0009 219.433 42.9009 219.313 42.7929L219.655 42.2289C219.699 42.1609 219.751 42.1089 219.811 42.0729C219.871 42.0369 219.947 42.0189 220.039 42.0189C220.131 42.0189 220.217 42.0449 220.297 42.0969C220.381 42.1489 220.477 42.2049 220.585 42.2649C220.693 42.3249 220.819 42.3809 220.963 42.4329C221.111 42.4849 221.297 42.5109 221.521 42.5109C221.697 42.5109 221.847 42.4909 221.971 42.4509C222.099 42.4069 222.203 42.3509 222.283 42.2829C222.367 42.2149 222.427 42.1369 222.463 42.0489C222.503 41.9569 222.523 41.8629 222.523 41.7669C222.523 41.6229 222.479 41.5049 222.391 41.4129C222.307 41.3209 222.193 41.2409 222.049 41.1729C221.909 41.1049 221.747 41.0449 221.563 40.9929C221.383 40.9369 221.197 40.8769 221.005 40.8129C220.817 40.7489 220.631 40.6749 220.447 40.5909C220.267 40.5029 220.105 40.3929 219.961 40.2609C219.821 40.1289 219.707 39.9669 219.619 39.7749C219.535 39.5829 219.493 39.3509 219.493 39.0789C219.493 38.8269 219.543 38.5869 219.643 38.3589C219.743 38.1309 219.889 37.9329 220.081 37.7649C220.277 37.5929 220.519 37.4569 220.807 37.3569C221.099 37.2529 221.435 37.2009 221.815 37.2009C222.239 37.2009 222.625 37.2709 222.973 37.4109C223.321 37.5509 223.611 37.7349 223.843 37.9629L223.507 38.4969Z" fill="black"/>
<path d="M215.585 37.2009C216.041 37.2009 216.455 37.2749 216.827 37.4229C217.203 37.5709 217.523 37.7809 217.787 38.0529C218.055 38.3249 218.261 38.6569 218.405 39.0489C218.549 39.4409 218.621 39.8789 218.621 40.3629C218.621 40.8509 218.549 41.2909 218.405 41.6829C218.261 42.0749 218.055 42.4089 217.787 42.6849C217.523 42.9609 217.203 43.1729 216.827 43.3209C216.455 43.4689 216.041 43.5429 215.585 43.5429C215.125 43.5429 214.707 43.4689 214.331 43.3209C213.955 43.1729 213.633 42.9609 213.365 42.6849C213.101 42.4089 212.895 42.0749 212.747 41.6829C212.603 41.2909 212.531 40.8509 212.531 40.3629C212.531 39.8789 212.603 39.4409 212.747 39.0489C212.895 38.6569 213.101 38.3249 213.365 38.0529C213.633 37.7809 213.955 37.5709 214.331 37.4229C214.707 37.2749 215.125 37.2009 215.585 37.2009ZM215.585 42.4029C216.097 42.4029 216.475 42.2309 216.719 41.8869C216.967 41.5429 217.091 41.0389 217.091 40.3749C217.091 39.7109 216.967 39.2049 216.719 38.8569C216.475 38.5089 216.097 38.3349 215.585 38.3349C215.065 38.3349 214.679 38.5109 214.427 38.8629C214.179 39.2109 214.055 39.7149 214.055 40.3749C214.055 41.0349 214.179 41.5389 214.427 41.8869C214.679 42.2309 215.065 42.4029 215.585 42.4029Z" fill="black"/>
<path d="M207.522 41.857C207.69 42.061 207.872 42.205 208.068 42.289C208.268 42.373 208.484 42.415 208.716 42.415C208.94 42.415 209.142 42.373 209.322 42.289C209.502 42.205 209.654 42.077 209.778 41.905C209.906 41.733 210.004 41.517 210.072 41.257C210.14 40.993 210.174 40.683 210.174 40.327C210.174 39.967 210.144 39.663 210.084 39.415C210.028 39.163 209.946 38.959 209.838 38.803C209.73 38.647 209.598 38.533 209.442 38.461C209.29 38.389 209.116 38.353 208.92 38.353C208.612 38.353 208.35 38.419 208.134 38.551C207.918 38.679 207.714 38.861 207.522 39.097V41.857ZM207.444 38.137C207.696 37.853 207.982 37.623 208.302 37.447C208.622 37.271 208.998 37.183 209.43 37.183C209.766 37.183 210.072 37.253 210.348 37.393C210.628 37.533 210.868 37.737 211.068 38.005C211.272 38.269 211.428 38.597 211.536 38.989C211.648 39.377 211.704 39.823 211.704 40.327C211.704 40.787 211.642 41.213 211.518 41.605C211.394 41.997 211.216 42.337 210.984 42.625C210.756 42.913 210.478 43.139 210.15 43.303C209.826 43.463 209.462 43.543 209.058 43.543C208.714 43.543 208.42 43.491 208.176 43.387C207.932 43.279 207.714 43.131 207.522 42.943V45.463H206.04V37.297H206.946C207.138 37.297 207.264 37.387 207.324 37.567L207.444 38.137Z" fill="black"/>
<path d="M202.962 38.365C203.154 37.997 203.382 37.709 203.646 37.501C203.91 37.289 204.222 37.183 204.582 37.183C204.866 37.183 205.094 37.245 205.266 37.369L205.17 38.479C205.15 38.551 205.12 38.603 205.08 38.635C205.044 38.663 204.994 38.677 204.93 38.677C204.87 38.677 204.78 38.667 204.66 38.647C204.544 38.627 204.43 38.617 204.318 38.617C204.154 38.617 204.008 38.641 203.88 38.689C203.752 38.737 203.636 38.807 203.532 38.899C203.432 38.987 203.342 39.095 203.262 39.223C203.186 39.351 203.114 39.497 203.046 39.661V43.453H201.564V37.297H202.434C202.586 37.297 202.692 37.325 202.752 37.381C202.812 37.433 202.852 37.529 202.872 37.669L202.962 38.365Z" fill="black"/>
<path d="M200.094 37.297V43.453H199.188C198.992 43.453 198.868 43.363 198.816 43.183L198.714 42.691C198.462 42.947 198.184 43.155 197.88 43.315C197.576 43.471 197.218 43.549 196.806 43.549C196.47 43.549 196.172 43.493 195.912 43.381C195.656 43.265 195.44 43.103 195.264 42.895C195.088 42.687 194.954 42.441 194.862 42.157C194.774 41.869 194.73 41.553 194.73 41.209V37.297H196.212V41.209C196.212 41.585 196.298 41.877 196.47 42.085C196.646 42.289 196.908 42.391 197.256 42.391C197.512 42.391 197.752 42.335 197.976 42.223C198.2 42.107 198.412 41.949 198.612 41.749V37.297H200.094Z" fill="black"/>
<path d="M189.452 41.857C189.62 42.061 189.802 42.205 189.998 42.289C190.198 42.373 190.414 42.415 190.646 42.415C190.87 42.415 191.072 42.373 191.252 42.289C191.432 42.205 191.584 42.077 191.708 41.905C191.836 41.733 191.934 41.517 192.002 41.257C192.07 40.993 192.104 40.683 192.104 40.327C192.104 39.967 192.074 39.663 192.014 39.415C191.958 39.163 191.876 38.959 191.768 38.803C191.66 38.647 191.528 38.533 191.372 38.461C191.22 38.389 191.046 38.353 190.85 38.353C190.542 38.353 190.28 38.419 190.064 38.551C189.848 38.679 189.644 38.861 189.452 39.097V41.857ZM189.374 38.137C189.626 37.853 189.912 37.623 190.232 37.447C190.552 37.271 190.928 37.183 191.36 37.183C191.696 37.183 192.002 37.253 192.278 37.393C192.558 37.533 192.798 37.737 192.998 38.005C193.202 38.269 193.358 38.597 193.466 38.989C193.578 39.377 193.634 39.823 193.634 40.327C193.634 40.787 193.572 41.213 193.448 41.605C193.324 41.997 193.146 42.337 192.914 42.625C192.686 42.913 192.408 43.139 192.08 43.303C191.756 43.463 191.392 43.543 190.988 43.543C190.644 43.543 190.35 43.491 190.106 43.387C189.862 43.279 189.644 43.131 189.452 42.943V45.463H187.97V37.297H188.876C189.068 37.297 189.194 37.387 189.254 37.567L189.374 38.137Z" fill="black"/>
<path d="M267.981 27.549C267.445 27.549 267.033 27.399 266.745 27.099C266.461 26.795 266.319 26.377 266.319 25.845V22.407H265.689C265.609 22.407 265.541 22.381 265.485 22.329C265.429 22.277 265.401 22.199 265.401 22.095V21.507L266.391 21.345L266.703 19.665C266.723 19.585 266.761 19.523 266.817 19.479C266.873 19.435 266.945 19.413 267.033 19.413H267.801V21.351H269.445V22.407H267.801V25.743C267.801 25.935 267.847 26.085 267.939 26.193C268.035 26.301 268.165 26.355 268.329 26.355C268.421 26.355 268.497 26.345 268.557 26.325C268.621 26.301 268.675 26.277 268.719 26.253C268.767 26.229 268.809 26.207 268.845 26.187C268.881 26.163 268.917 26.151 268.953 26.151C268.997 26.151 269.033 26.163 269.061 26.187C269.089 26.207 269.119 26.239 269.151 26.283L269.595 27.003C269.379 27.183 269.131 27.319 268.851 27.411C268.571 27.503 268.281 27.549 267.981 27.549Z" fill="black"/>
<path d="M260.623 22.0529C260.747 21.9289 260.877 21.8149 261.013 21.7109C261.153 21.6029 261.299 21.5129 261.451 21.4409C261.607 21.3649 261.773 21.3069 261.949 21.2669C262.125 21.2229 262.317 21.2009 262.525 21.2009C262.861 21.2009 263.159 21.2589 263.419 21.3749C263.679 21.4869 263.895 21.6469 264.067 21.8549C264.243 22.0589 264.375 22.3049 264.463 22.5929C264.555 22.8769 264.601 23.1909 264.601 23.5349V27.4529H263.119V23.5349C263.119 23.1589 263.033 22.8689 262.861 22.6649C262.689 22.4569 262.427 22.3529 262.075 22.3529C261.819 22.3529 261.579 22.4109 261.355 22.5269C261.131 22.6429 260.919 22.8009 260.719 23.0009V27.4529H259.237V21.2969H260.143C260.335 21.2969 260.461 21.3869 260.521 21.5669L260.623 22.0529Z" fill="black"/>
<path d="M256.793 23.6669C256.793 23.4749 256.765 23.2949 256.709 23.1269C256.657 22.9549 256.577 22.8049 256.469 22.6769C256.361 22.5489 256.223 22.4489 256.055 22.3769C255.891 22.3009 255.699 22.2629 255.479 22.2629C255.051 22.2629 254.713 22.3849 254.465 22.6289C254.221 22.8729 254.065 23.2189 253.997 23.6669H256.793ZM253.967 24.5609C253.991 24.8769 254.047 25.1509 254.135 25.3829C254.223 25.6109 254.339 25.8009 254.483 25.9529C254.627 26.1009 254.797 26.2129 254.993 26.2889C255.193 26.3609 255.413 26.3969 255.653 26.3969C255.893 26.3969 256.099 26.3689 256.271 26.3129C256.447 26.2569 256.599 26.1949 256.727 26.1269C256.859 26.0589 256.973 25.9969 257.069 25.9409C257.169 25.8849 257.265 25.8569 257.357 25.8569C257.481 25.8569 257.573 25.9029 257.633 25.9949L258.059 26.5349C257.895 26.7269 257.711 26.8889 257.507 27.0209C257.303 27.1489 257.089 27.2529 256.865 27.3329C256.645 27.4089 256.419 27.4629 256.187 27.4949C255.959 27.5269 255.737 27.5429 255.521 27.5429C255.093 27.5429 254.695 27.4729 254.327 27.3329C253.959 27.1889 253.639 26.9789 253.367 26.7029C253.095 26.4229 252.881 26.0789 252.725 25.6709C252.569 25.2589 252.491 24.7829 252.491 24.2429C252.491 23.8229 252.559 23.4289 252.695 23.0609C252.831 22.6889 253.025 22.3669 253.277 22.0949C253.533 21.8189 253.843 21.6009 254.207 21.4409C254.575 21.2809 254.989 21.2009 255.449 21.2009C255.837 21.2009 256.195 21.2629 256.523 21.3869C256.851 21.5109 257.133 21.6929 257.369 21.9329C257.605 22.1689 257.789 22.4609 257.921 22.8089C258.057 23.1529 258.125 23.5469 258.125 23.9909C258.125 24.2149 258.101 24.3669 258.053 24.4469C258.005 24.5229 257.913 24.5609 257.777 24.5609H253.967Z" fill="black"/>
<path d="M242.773 27.4529V21.2969H243.679C243.871 21.2969 243.997 21.3869 244.057 21.5669L244.153 22.0229C244.261 21.9029 244.373 21.7929 244.489 21.6929C244.609 21.5929 244.735 21.5069 244.867 21.4349C245.003 21.3629 245.147 21.3069 245.299 21.2669C245.455 21.2229 245.625 21.2009 245.809 21.2009C246.197 21.2009 246.515 21.3069 246.763 21.5189C247.015 21.7269 247.203 22.0049 247.327 22.3529C247.423 22.1489 247.543 21.9749 247.687 21.8309C247.831 21.6829 247.989 21.5629 248.161 21.4709C248.333 21.3789 248.515 21.3109 248.707 21.2669C248.903 21.2229 249.099 21.2009 249.295 21.2009C249.635 21.2009 249.937 21.2529 250.201 21.3569C250.465 21.4609 250.687 21.6129 250.867 21.8129C251.047 22.0129 251.183 22.2569 251.275 22.5449C251.371 22.8329 251.419 23.1629 251.419 23.5349V27.4529H249.937V23.5349C249.937 23.1429 249.851 22.8489 249.679 22.6529C249.507 22.4529 249.255 22.3529 248.923 22.3529C248.771 22.3529 248.629 22.3789 248.497 22.4309C248.369 22.4829 248.255 22.5589 248.155 22.6589C248.059 22.7549 247.983 22.8769 247.927 23.0249C247.871 23.1729 247.843 23.3429 247.843 23.5349V27.4529H246.355V23.5349C246.355 23.1229 246.271 22.8229 246.103 22.6349C245.939 22.4469 245.697 22.3529 245.377 22.3529C245.161 22.3529 244.959 22.4069 244.771 22.5149C244.587 22.6189 244.415 22.7629 244.255 22.9469V27.4529H242.773Z" fill="black"/>
<path d="M237.434 25.857C237.602 26.061 237.784 26.205 237.98 26.289C238.18 26.373 238.396 26.415 238.628 26.415C238.852 26.415 239.054 26.373 239.234 26.289C239.414 26.205 239.566 26.077 239.69 25.905C239.818 25.733 239.916 25.517 239.984 25.257C240.052 24.993 240.086 24.683 240.086 24.327C240.086 23.967 240.056 23.663 239.996 23.415C239.94 23.163 239.858 22.959 239.75 22.803C239.642 22.647 239.51 22.533 239.354 22.461C239.202 22.389 239.028 22.353 238.832 22.353C238.524 22.353 238.262 22.419 238.046 22.551C237.83 22.679 237.626 22.861 237.434 23.097V25.857ZM237.356 22.137C237.608 21.853 237.894 21.623 238.214 21.447C238.534 21.271 238.91 21.183 239.342 21.183C239.678 21.183 239.984 21.253 240.26 21.393C240.54 21.533 240.78 21.737 240.98 22.005C241.184 22.269 241.34 22.597 241.448 22.989C241.56 23.377 241.616 23.823 241.616 24.327C241.616 24.787 241.554 25.213 241.43 25.605C241.306 25.997 241.128 26.337 240.896 26.625C240.668 26.913 240.39 27.139 240.062 27.303C239.738 27.463 239.374 27.543 238.97 27.543C238.626 27.543 238.332 27.491 238.088 27.387C237.844 27.279 237.626 27.131 237.434 26.943V29.463H235.952V21.297H236.858C237.05 21.297 237.176 21.387 237.236 21.567L237.356 22.137Z" fill="black"/>
<path d="M231.786 21.2009C232.242 21.2009 232.656 21.2749 233.028 21.4229C233.404 21.5709 233.724 21.7809 233.988 22.0529C234.256 22.3249 234.462 22.6569 234.606 23.0489C234.75 23.4409 234.822 23.8789 234.822 24.3629C234.822 24.8509 234.75 25.2909 234.606 25.6829C234.462 26.0749 234.256 26.4089 233.988 26.6849C233.724 26.9609 233.404 27.1729 233.028 27.3209C232.656 27.4689 232.242 27.5429 231.786 27.5429C231.326 27.5429 230.908 27.4689 230.532 27.3209C230.156 27.1729 229.834 26.9609 229.566 26.6849C229.302 26.4089 229.096 26.0749 228.948 25.6829C228.804 25.2909 228.732 24.8509 228.732 24.3629C228.732 23.8789 228.804 23.4409 228.948 23.0489C229.096 22.6569 229.302 22.3249 229.566 22.0529C229.834 21.7809 230.156 21.5709 230.532 21.4229C230.908 21.2749 231.326 21.2009 231.786 21.2009ZM231.786 26.4029C232.298 26.4029 232.676 26.2309 232.92 25.8869C233.168 25.5429 233.292 25.0389 233.292 24.3749C233.292 23.7109 233.168 23.2049 232.92 22.8569C232.676 22.5089 232.298 22.3349 231.786 22.3349C231.266 22.3349 230.88 22.5109 230.628 22.8629C230.38 23.2109 230.256 23.7149 230.256 24.3749C230.256 25.0349 230.38 25.5389 230.628 25.8869C230.88 26.2309 231.266 26.4029 231.786 26.4029Z" fill="black"/>
<path d="M227.585 18.537V27.453H226.103V18.537H227.585Z" fill="black"/>
<path d="M223.641 23.6669C223.641 23.4749 223.613 23.2949 223.557 23.1269C223.505 22.9549 223.425 22.8049 223.317 22.6769C223.209 22.5489 223.071 22.4489 222.903 22.3769C222.739 22.3009 222.547 22.2629 222.327 22.2629C221.899 22.2629 221.561 22.3849 221.313 22.6289C221.069 22.8729 220.913 23.2189 220.845 23.6669H223.641ZM220.815 24.5609C220.839 24.8769 220.895 25.1509 220.983 25.3829C221.071 25.6109 221.187 25.8009 221.331 25.9529C221.475 26.1009 221.645 26.2129 221.841 26.2889C222.041 26.3609 222.261 26.3969 222.501 26.3969C222.741 26.3969 222.947 26.3689 223.119 26.3129C223.295 26.2569 223.447 26.1949 223.575 26.1269C223.707 26.0589 223.821 25.9969 223.917 25.9409C224.017 25.8849 224.113 25.8569 224.205 25.8569C224.329 25.8569 224.421 25.9029 224.481 25.9949L224.907 26.5349C224.743 26.7269 224.559 26.8889 224.355 27.0209C224.151 27.1489 223.937 27.2529 223.713 27.3329C223.493 27.4089 223.267 27.4629 223.035 27.4949C222.807 27.5269 222.585 27.5429 222.369 27.5429C221.941 27.5429 221.543 27.4729 221.175 27.3329C220.807 27.1889 220.487 26.9789 220.215 26.7029C219.943 26.4229 219.729 26.0789 219.573 25.6709C219.417 25.2589 219.339 24.7829 219.339 24.2429C219.339 23.8229 219.407 23.4289 219.543 23.0609C219.679 22.6889 219.873 22.3669 220.125 22.0949C220.381 21.8189 220.691 21.6009 221.055 21.4409C221.423 21.2809 221.837 21.2009 222.297 21.2009C222.685 21.2009 223.043 21.2629 223.371 21.3869C223.699 21.5109 223.981 21.6929 224.217 21.9329C224.453 22.1689 224.637 22.4609 224.769 22.8089C224.905 23.1529 224.973 23.5469 224.973 23.9909C224.973 24.2149 224.949 24.3669 224.901 24.4469C224.853 24.5229 224.761 24.5609 224.625 24.5609H220.815Z" fill="black"/>
<path d="M219.073 21.297L216.631 27.453H215.287L212.845 21.297H214.069C214.181 21.297 214.273 21.323 214.345 21.375C214.421 21.427 214.471 21.493 214.495 21.573L215.683 24.861C215.747 25.053 215.803 25.241 215.851 25.425C215.899 25.609 215.941 25.793 215.977 25.977C216.017 25.793 216.061 25.609 216.109 25.425C216.157 25.241 216.215 25.053 216.283 24.861L217.495 21.573C217.523 21.493 217.573 21.427 217.645 21.375C217.717 21.323 217.803 21.297 217.903 21.297H219.073Z" fill="black"/>
<path d="M211.231 23.6669C211.231 23.4749 211.203 23.2949 211.147 23.1269C211.095 22.9549 211.015 22.8049 210.907 22.6769C210.799 22.5489 210.661 22.4489 210.493 22.3769C210.329 22.3009 210.137 22.2629 209.917 22.2629C209.489 22.2629 209.151 22.3849 208.903 22.6289C208.659 22.8729 208.503 23.2189 208.435 23.6669H211.231ZM208.405 24.5609C208.429 24.8769 208.485 25.1509 208.573 25.3829C208.661 25.6109 208.777 25.8009 208.921 25.9529C209.065 26.1009 209.235 26.2129 209.431 26.2889C209.631 26.3609 209.851 26.3969 210.091 26.3969C210.331 26.3969 210.537 26.3689 210.709 26.3129C210.885 26.2569 211.037 26.1949 211.165 26.1269C211.297 26.0589 211.411 25.9969 211.507 25.9409C211.607 25.8849 211.703 25.8569 211.795 25.8569C211.919 25.8569 212.011 25.9029 212.071 25.9949L212.497 26.5349C212.333 26.7269 212.149 26.8889 211.945 27.0209C211.741 27.1489 211.527 27.2529 211.303 27.3329C211.083 27.4089 210.857 27.4629 210.625 27.4949C210.397 27.5269 210.175 27.5429 209.959 27.5429C209.531 27.5429 209.133 27.4729 208.765 27.3329C208.397 27.1889 208.077 26.9789 207.805 26.7029C207.533 26.4229 207.319 26.0789 207.163 25.6709C207.007 25.2589 206.929 24.7829 206.929 24.2429C206.929 23.8229 206.997 23.4289 207.133 23.0609C207.269 22.6889 207.463 22.3669 207.715 22.0949C207.971 21.8189 208.281 21.6009 208.645 21.4409C209.013 21.2809 209.427 21.2009 209.887 21.2009C210.275 21.2009 210.633 21.2629 210.961 21.3869C211.289 21.5109 211.571 21.6929 211.807 21.9329C212.043 22.1689 212.227 22.4609 212.359 22.8089C212.495 23.1529 212.563 23.5469 212.563 23.9909C212.563 24.2149 212.539 24.3669 212.491 24.4469C212.443 24.5229 212.351 24.5609 212.215 24.5609H208.405Z" fill="black"/>
<path d="M204.32 22.869C204.152 22.665 203.968 22.521 203.768 22.437C203.572 22.353 203.36 22.311 203.132 22.311C202.908 22.311 202.706 22.353 202.526 22.437C202.346 22.521 202.192 22.649 202.064 22.821C201.936 22.989 201.838 23.205 201.77 23.469C201.702 23.729 201.668 24.037 201.668 24.393C201.668 24.753 201.696 25.059 201.752 25.311C201.812 25.559 201.896 25.763 202.004 25.923C202.112 26.079 202.244 26.193 202.4 26.265C202.556 26.333 202.73 26.367 202.922 26.367C203.23 26.367 203.492 26.303 203.708 26.175C203.924 26.047 204.128 25.865 204.32 25.629V22.869ZM205.802 18.537V27.453H204.896C204.7 27.453 204.576 27.363 204.524 27.183L204.398 26.589C204.15 26.873 203.864 27.103 203.54 27.279C203.22 27.455 202.846 27.543 202.418 27.543C202.082 27.543 201.774 27.473 201.494 27.333C201.214 27.193 200.972 26.991 200.768 26.727C200.568 26.459 200.412 26.129 200.3 25.737C200.192 25.345 200.138 24.897 200.138 24.393C200.138 23.937 200.2 23.513 200.324 23.121C200.448 22.729 200.626 22.389 200.858 22.101C201.09 21.813 201.368 21.589 201.692 21.429C202.016 21.265 202.38 21.183 202.784 21.183C203.128 21.183 203.422 21.237 203.666 21.345C203.91 21.453 204.128 21.599 204.32 21.783V18.537H205.802Z" fill="black"/>
<path d="M194.717 22.365C194.909 21.997 195.137 21.709 195.401 21.501C195.665 21.289 195.977 21.183 196.337 21.183C196.621 21.183 196.849 21.245 197.021 21.369L196.925 22.479C196.905 22.551 196.875 22.603 196.835 22.635C196.799 22.663 196.749 22.677 196.685 22.677C196.625 22.677 196.535 22.667 196.415 22.647C196.299 22.627 196.185 22.617 196.073 22.617C195.909 22.617 195.763 22.641 195.635 22.689C195.507 22.737 195.391 22.807 195.287 22.899C195.187 22.987 195.097 23.095 195.017 23.223C194.941 23.351 194.869 23.497 194.801 23.661V27.453H193.319V21.297H194.189C194.341 21.297 194.447 21.325 194.507 21.381C194.567 21.433 194.607 21.529 194.627 21.669L194.717 22.365Z" fill="black"/>
<path d="M189.153 21.2009C189.609 21.2009 190.023 21.2749 190.395 21.4229C190.771 21.5709 191.091 21.7809 191.355 22.0529C191.623 22.3249 191.829 22.6569 191.973 23.0489C192.117 23.4409 192.189 23.8789 192.189 24.3629C192.189 24.8509 192.117 25.2909 191.973 25.6829C191.829 26.0749 191.623 26.4089 191.355 26.6849C191.091 26.9609 190.771 27.1729 190.395 27.3209C190.023 27.4689 189.609 27.5429 189.153 27.5429C188.693 27.5429 188.275 27.4689 187.899 27.3209C187.523 27.1729 187.201 26.9609 186.933 26.6849C186.669 26.4089 186.463 26.0749 186.315 25.6829C186.171 25.2909 186.099 24.8509 186.099 24.3629C186.099 23.8789 186.171 23.4409 186.315 23.0489C186.463 22.6569 186.669 22.3249 186.933 22.0529C187.201 21.7809 187.523 21.5709 187.899 21.4229C188.275 21.2749 188.693 21.2009 189.153 21.2009ZM189.153 26.4029C189.665 26.4029 190.043 26.2309 190.287 25.8869C190.535 25.5429 190.659 25.0389 190.659 24.3749C190.659 23.7109 190.535 23.2049 190.287 22.8569C190.043 22.5089 189.665 22.3349 189.153 22.3349C188.633 22.3349 188.247 22.5109 187.995 22.8629C187.747 23.2109 187.623 23.7149 187.623 24.3749C187.623 25.0349 187.747 25.5389 187.995 25.8869C188.247 26.2309 188.633 26.4029 189.153 26.4029Z" fill="black"/>
<path d="M182.025 20.061V22.629H185.277V23.919H182.025V27.453H180.405V18.777H185.877V20.061H182.025Z" fill="black"/>
</g>
<g opacity="0.15">
<path d="M111.859 101.297L108.505 109.145C108.461 109.249 108.403 109.327 108.331 109.379C108.263 109.435 108.157 109.463 108.013 109.463H106.909L108.061 106.991L105.571 101.297H106.873C106.989 101.297 107.079 101.325 107.143 101.381C107.211 101.437 107.261 101.501 107.293 101.573L108.601 104.765C108.645 104.873 108.681 104.981 108.709 105.089C108.741 105.197 108.771 105.307 108.799 105.419C108.835 105.307 108.871 105.197 108.907 105.089C108.943 104.977 108.983 104.867 109.027 104.759L110.263 101.573C110.295 101.493 110.347 101.427 110.419 101.375C110.495 101.323 110.579 101.297 110.671 101.297H111.859Z" fill="black"/>
<path d="M104.79 98.537V107.453H103.308V98.537H104.79Z" fill="black"/>
<path d="M97.9027 102.053C98.0267 101.929 98.1567 101.815 98.2927 101.711C98.4327 101.603 98.5787 101.513 98.7307 101.441C98.8867 101.365 99.0527 101.307 99.2287 101.267C99.4047 101.223 99.5967 101.201 99.8047 101.201C100.141 101.201 100.439 101.259 100.699 101.375C100.959 101.487 101.175 101.647 101.347 101.855C101.523 102.059 101.655 102.305 101.743 102.593C101.835 102.877 101.881 103.191 101.881 103.535V107.453H100.399V103.535C100.399 103.159 100.313 102.869 100.141 102.665C99.9687 102.457 99.7067 102.353 99.3547 102.353C99.0987 102.353 98.8587 102.411 98.6347 102.527C98.4107 102.643 98.1987 102.801 97.9987 103.001V107.453H96.5167V101.297H97.4227C97.6147 101.297 97.7407 101.387 97.8007 101.567L97.9027 102.053Z" fill="black"/>
<path d="M92.3501 101.201C92.8061 101.201 93.2201 101.275 93.5921 101.423C93.9681 101.571 94.2881 101.781 94.5521 102.053C94.8201 102.325 95.0261 102.657 95.1701 103.049C95.3141 103.441 95.3861 103.879 95.3861 104.363C95.3861 104.851 95.3141 105.291 95.1701 105.683C95.0261 106.075 94.8201 106.409 94.5521 106.685C94.2881 106.961 93.9681 107.173 93.5921 107.321C93.2201 107.469 92.8061 107.543 92.3501 107.543C91.8901 107.543 91.4721 107.469 91.0961 107.321C90.7201 107.173 90.3981 106.961 90.1301 106.685C89.8661 106.409 89.6601 106.075 89.5121 105.683C89.3681 105.291 89.2961 104.851 89.2961 104.363C89.2961 103.879 89.3681 103.441 89.5121 103.049C89.6601 102.657 89.8661 102.325 90.1301 102.053C90.3981 101.781 90.7201 101.571 91.0961 101.423C91.4721 101.275 91.8901 101.201 92.3501 101.201ZM92.3501 106.403C92.8621 106.403 93.2401 106.231 93.4841 105.887C93.7321 105.543 93.8561 105.039 93.8561 104.375C93.8561 103.711 93.7321 103.205 93.4841 102.857C93.2401 102.509 92.8621 102.335 92.3501 102.335C91.8301 102.335 91.4441 102.511 91.1921 102.863C90.9441 103.211 90.8201 103.715 90.8201 104.375C90.8201 105.035 90.9441 105.539 91.1921 105.887C91.4441 106.231 91.8301 106.403 92.3501 106.403Z" fill="black"/>
<path d="M85.1907 102.497C85.1507 102.561 85.1087 102.607 85.0647 102.635C85.0207 102.659 84.9647 102.671 84.8967 102.671C84.8247 102.671 84.7467 102.651 84.6627 102.611C84.5827 102.571 84.4887 102.527 84.3807 102.479C84.2727 102.427 84.1487 102.381 84.0087 102.341C83.8727 102.301 83.7107 102.281 83.5227 102.281C83.2307 102.281 83.0007 102.343 82.8327 102.467C82.6687 102.591 82.5867 102.753 82.5867 102.953C82.5867 103.085 82.6287 103.197 82.7127 103.289C82.8007 103.377 82.9147 103.455 83.0547 103.523C83.1987 103.591 83.3607 103.653 83.5407 103.709C83.7207 103.761 83.9027 103.819 84.0867 103.883C84.2747 103.947 84.4587 104.021 84.6387 104.105C84.8187 104.185 84.9787 104.289 85.1187 104.417C85.2627 104.541 85.3767 104.691 85.4607 104.867C85.5487 105.043 85.5927 105.255 85.5927 105.503C85.5927 105.799 85.5387 106.073 85.4307 106.325C85.3267 106.573 85.1707 106.789 84.9627 106.973C84.7547 107.153 84.4967 107.295 84.1887 107.399C83.8847 107.499 83.5327 107.549 83.1327 107.549C82.9207 107.549 82.7127 107.529 82.5087 107.489C82.3087 107.453 82.1147 107.401 81.9267 107.333C81.7427 107.265 81.5707 107.185 81.4107 107.093C81.2547 107.001 81.1167 106.901 80.9967 106.793L81.3387 106.229C81.3827 106.161 81.4347 106.109 81.4947 106.073C81.5547 106.037 81.6307 106.019 81.7227 106.019C81.8147 106.019 81.9007 106.045 81.9807 106.097C82.0647 106.149 82.1607 106.205 82.2687 106.265C82.3767 106.325 82.5027 106.381 82.6467 106.433C82.7947 106.485 82.9807 106.511 83.2047 106.511C83.3807 106.511 83.5307 106.491 83.6547 106.451C83.7827 106.407 83.8867 106.351 83.9667 106.283C84.0507 106.215 84.1107 106.137 84.1467 106.049C84.1867 105.957 84.2067 105.863 84.2067 105.767C84.2067 105.623 84.1627 105.505 84.0747 105.413C83.9907 105.321 83.8767 105.241 83.7327 105.173C83.5927 105.105 83.4307 105.045 83.2467 104.993C83.0667 104.937 82.8807 104.877 82.6887 104.813C82.5007 104.749 82.3147 104.675 82.1307 104.591C81.9507 104.503 81.7887 104.393 81.6447 104.261C81.5047 104.129 81.3907 103.967 81.3027 103.775C81.2187 103.583 81.1767 103.351 81.1767 103.079C81.1767 102.827 81.2267 102.587 81.3267 102.359C81.4267 102.131 81.5727 101.933 81.7647 101.765C81.9607 101.593 82.2027 101.457 82.4907 101.357C82.7827 101.253 83.1187 101.201 83.4987 101.201C83.9227 101.201 84.3087 101.271 84.6567 101.411C85.0047 101.551 85.2947 101.735 85.5267 101.963L85.1907 102.497Z" fill="black"/>
<path d="M78.9906 103.667C78.9906 103.475 78.9626 103.295 78.9066 103.127C78.8546 102.955 78.7746 102.805 78.6666 102.677C78.5586 102.549 78.4206 102.449 78.2526 102.377C78.0886 102.301 77.8966 102.263 77.6766 102.263C77.2486 102.263 76.9106 102.385 76.6626 102.629C76.4186 102.873 76.2626 103.219 76.1946 103.667H78.9906ZM76.1646 104.561C76.1886 104.877 76.2446 105.151 76.3326 105.383C76.4206 105.611 76.5366 105.801 76.6806 105.953C76.8246 106.101 76.9946 106.213 77.1906 106.289C77.3906 106.361 77.6106 106.397 77.8506 106.397C78.0906 106.397 78.2966 106.369 78.4686 106.313C78.6446 106.257 78.7966 106.195 78.9246 106.127C79.0566 106.059 79.1706 105.997 79.2666 105.941C79.3666 105.885 79.4626 105.857 79.5546 105.857C79.6786 105.857 79.7706 105.903 79.8306 105.995L80.2566 106.535C80.0926 106.727 79.9086 106.889 79.7046 107.021C79.5006 107.149 79.2866 107.253 79.0626 107.333C78.8426 107.409 78.6166 107.463 78.3846 107.495C78.1566 107.527 77.9346 107.543 77.7186 107.543C77.2906 107.543 76.8926 107.473 76.5246 107.333C76.1566 107.189 75.8366 106.979 75.5646 106.703C75.2926 106.423 75.0786 106.079 74.9226 105.671C74.7666 105.259 74.6886 104.783 74.6886 104.243C74.6886 103.823 74.7566 103.429 74.8926 103.061C75.0286 102.689 75.2226 102.367 75.4746 102.095C75.7306 101.819 76.0406 101.601 76.4046 101.441C76.7726 101.281 77.1866 101.201 77.6466 101.201C78.0346 101.201 78.3926 101.263 78.7206 101.387C79.0486 101.511 79.3306 101.693 79.5666 101.933C79.8026 102.169 79.9866 102.461 80.1186 102.809C80.2546 103.153 80.3226 103.547 80.3226 103.991C80.3226 104.215 80.2986 104.367 80.2506 104.447C80.2026 104.523 80.1106 104.561 79.9746 104.561H76.1646Z" fill="black"/>
<path d="M73.5071 102.497C73.4671 102.561 73.4251 102.607 73.3811 102.635C73.3371 102.659 73.2811 102.671 73.2131 102.671C73.1411 102.671 73.0631 102.651 72.9791 102.611C72.8991 102.571 72.8051 102.527 72.6971 102.479C72.5891 102.427 72.4651 102.381 72.3251 102.341C72.1891 102.301 72.0271 102.281 71.8391 102.281C71.5471 102.281 71.3171 102.343 71.1491 102.467C70.9851 102.591 70.9031 102.753 70.9031 102.953C70.9031 103.085 70.9451 103.197 71.0291 103.289C71.1171 103.377 71.2311 103.455 71.3711 103.523C71.5151 103.591 71.6771 103.653 71.8571 103.709C72.0371 103.761 72.2191 103.819 72.4031 103.883C72.5911 103.947 72.7751 104.021 72.9551 104.105C73.1351 104.185 73.2951 104.289 73.4351 104.417C73.5791 104.541 73.6931 104.691 73.7771 104.867C73.8651 105.043 73.9091 105.255 73.9091 105.503C73.9091 105.799 73.8551 106.073 73.7471 106.325C73.6431 106.573 73.4871 106.789 73.2791 106.973C73.0711 107.153 72.8131 107.295 72.5051 107.399C72.2011 107.499 71.8491 107.549 71.4491 107.549C71.2371 107.549 71.0291 107.529 70.8251 107.489C70.6251 107.453 70.4311 107.401 70.2431 107.333C70.0591 107.265 69.8871 107.185 69.7271 107.093C69.5711 107.001 69.4331 106.901 69.3131 106.793L69.6551 106.229C69.6991 106.161 69.7511 106.109 69.8111 106.073C69.8711 106.037 69.9471 106.019 70.0391 106.019C70.1311 106.019 70.2171 106.045 70.2971 106.097C70.3811 106.149 70.4771 106.205 70.5851 106.265C70.6931 106.325 70.8191 106.381 70.9631 106.433C71.1111 106.485 71.2971 106.511 71.5211 106.511C71.6971 106.511 71.8471 106.491 71.9711 106.451C72.0991 106.407 72.2031 106.351 72.2831 106.283C72.3671 106.215 72.4271 106.137 72.4631 106.049C72.5031 105.957 72.5231 105.863 72.5231 105.767C72.5231 105.623 72.4791 105.505 72.3911 105.413C72.3071 105.321 72.1931 105.241 72.0491 105.173C71.9091 105.105 71.7471 105.045 71.5631 104.993C71.3831 104.937 71.1971 104.877 71.0051 104.813C70.8171 104.749 70.6311 104.675 70.4471 104.591C70.2671 104.503 70.1051 104.393 69.9611 104.261C69.8211 104.129 69.7071 103.967 69.6191 103.775C69.5351 103.583 69.4931 103.351 69.4931 103.079C69.4931 102.827 69.5431 102.587 69.6431 102.359C69.7431 102.131 69.8891 101.933 70.0811 101.765C70.2771 101.593 70.5191 101.457 70.8071 101.357C71.0991 101.253 71.4351 101.201 71.8151 101.201C72.2391 101.201 72.6251 101.271 72.9731 101.411C73.3211 101.551 73.6111 101.735 73.8431 101.963L73.5071 102.497Z" fill="black"/>
<path d="M65.5845 101.201C66.0405 101.201 66.4545 101.275 66.8265 101.423C67.2025 101.571 67.5225 101.781 67.7865 102.053C68.0545 102.325 68.2605 102.657 68.4045 103.049C68.5485 103.441 68.6205 103.879 68.6205 104.363C68.6205 104.851 68.5485 105.291 68.4045 105.683C68.2605 106.075 68.0545 106.409 67.7865 106.685C67.5225 106.961 67.2025 107.173 66.8265 107.321C66.4545 107.469 66.0405 107.543 65.5845 107.543C65.1245 107.543 64.7065 107.469 64.3305 107.321C63.9545 107.173 63.6325 106.961 63.3645 106.685C63.1005 106.409 62.8945 106.075 62.7465 105.683C62.6025 105.291 62.5305 104.851 62.5305 104.363C62.5305 103.879 62.6025 103.441 62.7465 103.049C62.8945 102.657 63.1005 102.325 63.3645 102.053C63.6325 101.781 63.9545 101.571 64.3305 101.423C64.7065 101.275 65.1245 101.201 65.5845 101.201ZM65.5845 106.403C66.0965 106.403 66.4745 106.231 66.7185 105.887C66.9665 105.543 67.0905 105.039 67.0905 104.375C67.0905 103.711 66.9665 103.205 66.7185 102.857C66.4745 102.509 66.0965 102.335 65.5845 102.335C65.0645 102.335 64.6785 102.511 64.4265 102.863C64.1785 103.211 64.0545 103.715 64.0545 104.375C64.0545 105.035 64.1785 105.539 64.4265 105.887C64.6785 106.231 65.0645 106.403 65.5845 106.403Z" fill="black"/>
<path d="M57.5222 105.857C57.6902 106.061 57.8722 106.205 58.0682 106.289C58.2682 106.373 58.4842 106.415 58.7162 106.415C58.9402 106.415 59.1422 106.373 59.3222 106.289C59.5022 106.205 59.6542 106.077 59.7782 105.905C59.9062 105.733 60.0042 105.517 60.0722 105.257C60.1402 104.993 60.1742 104.683 60.1742 104.327C60.1742 103.967 60.1442 103.663 60.0842 103.415C60.0282 103.163 59.9462 102.959 59.8382 102.803C59.7302 102.647 59.5982 102.533 59.4422 102.461C59.2902 102.389 59.1162 102.353 58.9202 102.353C58.6122 102.353 58.3502 102.419 58.1342 102.551C57.9182 102.679 57.7142 102.861 57.5222 103.097V105.857ZM57.4442 102.137C57.6962 101.853 57.9822 101.623 58.3022 101.447C58.6222 101.271 58.9982 101.183 59.4302 101.183C59.7662 101.183 60.0722 101.253 60.3482 101.393C60.6282 101.533 60.8682 101.737 61.0682 102.005C61.2722 102.269 61.4282 102.597 61.5362 102.989C61.6482 103.377 61.7042 103.823 61.7042 104.327C61.7042 104.787 61.6422 105.213 61.5182 105.605C61.3942 105.997 61.2162 106.337 60.9842 106.625C60.7562 106.913 60.4782 107.139 60.1502 107.303C59.8262 107.463 59.4622 107.543 59.0582 107.543C58.7142 107.543 58.4202 107.491 58.1762 107.387C57.9322 107.279 57.7142 107.131 57.5222 106.943V109.463H56.0402V101.297H56.9462C57.1382 101.297 57.2642 101.387 57.3242 101.567L57.4442 102.137Z" fill="black"/>
<path d="M52.9616 102.365C53.1536 101.997 53.3816 101.709 53.6456 101.501C53.9096 101.289 54.2216 101.183 54.5816 101.183C54.8656 101.183 55.0936 101.245 55.2656 101.369L55.1696 102.479C55.1496 102.551 55.1196 102.603 55.0796 102.635C55.0436 102.663 54.9936 102.677 54.9296 102.677C54.8696 102.677 54.7796 102.667 54.6596 102.647C54.5436 102.627 54.4296 102.617 54.3176 102.617C54.1536 102.617 54.0076 102.641 53.8796 102.689C53.7516 102.737 53.6356 102.807 53.5316 102.899C53.4316 102.987 53.3416 103.095 53.2616 103.223C53.1856 103.351 53.1136 103.497 53.0456 103.661V107.453H51.5636V101.297H52.4336C52.5856 101.297 52.6916 101.325 52.7516 101.381C52.8116 101.433 52.8516 101.529 52.8716 101.669L52.9616 102.365Z" fill="black"/>
<path d="M50.0942 101.297V107.453H49.1882C48.9922 107.453 48.8682 107.363 48.8162 107.183L48.7142 106.691C48.4622 106.947 48.1842 107.155 47.8802 107.315C47.5762 107.471 47.2182 107.549 46.8062 107.549C46.4702 107.549 46.1722 107.493 45.9122 107.381C45.6562 107.265 45.4402 107.103 45.2642 106.895C45.0882 106.687 44.9542 106.441 44.8622 106.157C44.7742 105.869 44.7302 105.553 44.7302 105.209V101.297H46.2122V105.209C46.2122 105.585 46.2982 105.877 46.4702 106.085C46.6462 106.289 46.9082 106.391 47.2562 106.391C47.5122 106.391 47.7522 106.335 47.9762 106.223C48.2002 106.107 48.4122 105.949 48.6122 105.749V101.297H50.0942Z" fill="black"/>
<path d="M39.4518 105.857C39.6198 106.061 39.8018 106.205 39.9978 106.289C40.1978 106.373 40.4138 106.415 40.6458 106.415C40.8698 106.415 41.0718 106.373 41.2518 106.289C41.4318 106.205 41.5838 106.077 41.7078 105.905C41.8358 105.733 41.9338 105.517 42.0018 105.257C42.0698 104.993 42.1038 104.683 42.1038 104.327C42.1038 103.967 42.0738 103.663 42.0138 103.415C41.9578 103.163 41.8758 102.959 41.7678 102.803C41.6598 102.647 41.5278 102.533 41.3718 102.461C41.2198 102.389 41.0458 102.353 40.8498 102.353C40.5418 102.353 40.2798 102.419 40.0638 102.551C39.8478 102.679 39.6438 102.861 39.4518 103.097V105.857ZM39.3738 102.137C39.6258 101.853 39.9118 101.623 40.2318 101.447C40.5518 101.271 40.9278 101.183 41.3598 101.183C41.6958 101.183 42.0018 101.253 42.2778 101.393C42.5578 101.533 42.7978 101.737 42.9978 102.005C43.2018 102.269 43.3578 102.597 43.4658 102.989C43.5778 103.377 43.6338 103.823 43.6338 104.327C43.6338 104.787 43.5718 105.213 43.4478 105.605C43.3238 105.997 43.1458 106.337 42.9138 106.625C42.6858 106.913 42.4078 107.139 42.0798 107.303C41.7558 107.463 41.3918 107.543 40.9878 107.543C40.6438 107.543 40.3498 107.491 40.1058 107.387C39.8618 107.279 39.6438 107.131 39.4518 106.943V109.463H37.9698V101.297H38.8758C39.0678 101.297 39.1938 101.387 39.2538 101.567L39.3738 102.137Z" fill="black"/>
<path d="M117.981 91.549C117.445 91.549 117.033 91.399 116.745 91.099C116.461 90.795 116.319 90.377 116.319 89.845V86.407H115.689C115.609 86.407 115.541 86.381 115.485 86.329C115.429 86.277 115.401 86.199 115.401 86.095V85.507L116.391 85.345L116.703 83.665C116.723 83.585 116.761 83.523 116.817 83.479C116.873 83.435 116.945 83.413 117.033 83.413H117.801V85.351H119.445V86.407H117.801V89.743C117.801 89.935 117.847 90.085 117.939 90.193C118.035 90.301 118.165 90.355 118.329 90.355C118.421 90.355 118.497 90.345 118.557 90.325C118.621 90.301 118.675 90.277 118.719 90.253C118.767 90.229 118.809 90.207 118.845 90.187C118.881 90.163 118.917 90.151 118.953 90.151C118.997 90.151 119.033 90.163 119.061 90.187C119.089 90.207 119.119 90.239 119.151 90.283L119.595 91.003C119.379 91.183 119.131 91.319 118.851 91.411C118.571 91.503 118.281 91.549 117.981 91.549Z" fill="black"/>
<path d="M110.623 86.0529C110.747 85.9289 110.877 85.8149 111.013 85.7109C111.153 85.6029 111.299 85.5129 111.451 85.4409C111.607 85.3649 111.773 85.3069 111.949 85.2669C112.125 85.2229 112.317 85.2009 112.525 85.2009C112.861 85.2009 113.159 85.2589 113.419 85.3749C113.679 85.4869 113.895 85.6469 114.067 85.8549C114.243 86.0589 114.375 86.3049 114.463 86.5929C114.555 86.8769 114.601 87.1909 114.601 87.5349V91.4529H113.119V87.5349C113.119 87.1589 113.033 86.8689 112.861 86.6649C112.689 86.4569 112.427 86.3529 112.075 86.3529C111.819 86.3529 111.579 86.4109 111.355 86.5269C111.131 86.6429 110.919 86.8009 110.719 87.0009V91.4529H109.237V85.2969H110.143C110.335 85.2969 110.461 85.3869 110.521 85.5669L110.623 86.0529Z" fill="black"/>
<path d="M106.793 87.6669C106.793 87.4749 106.765 87.2949 106.709 87.1269C106.657 86.9549 106.577 86.8049 106.469 86.6769C106.361 86.5489 106.223 86.4489 106.055 86.3769C105.891 86.3009 105.699 86.2629 105.479 86.2629C105.051 86.2629 104.713 86.3849 104.465 86.6289C104.221 86.8729 104.065 87.2189 103.997 87.6669H106.793ZM103.967 88.5609C103.991 88.8769 104.047 89.1509 104.135 89.3829C104.223 89.6109 104.339 89.8009 104.483 89.9529C104.627 90.1009 104.797 90.2129 104.993 90.2889C105.193 90.3609 105.413 90.3969 105.653 90.3969C105.893 90.3969 106.099 90.3689 106.271 90.3129C106.447 90.2569 106.599 90.1949 106.727 90.1269C106.859 90.0589 106.973 89.9969 107.069 89.9409C107.169 89.8849 107.265 89.8569 107.357 89.8569C107.481 89.8569 107.573 89.9029 107.633 89.9949L108.059 90.5349C107.895 90.7269 107.711 90.8889 107.507 91.0209C107.303 91.1489 107.089 91.2529 106.865 91.3329C106.645 91.4089 106.419 91.4629 106.187 91.4949C105.959 91.5269 105.737 91.5429 105.521 91.5429C105.093 91.5429 104.695 91.4729 104.327 91.3329C103.959 91.1889 103.639 90.9789 103.367 90.7029C103.095 90.4229 102.881 90.0789 102.725 89.6709C102.569 89.2589 102.491 88.7829 102.491 88.2429C102.491 87.8229 102.559 87.4289 102.695 87.0609C102.831 86.6889 103.025 86.3669 103.277 86.0949C103.533 85.8189 103.843 85.6009 104.207 85.4409C104.575 85.2809 104.989 85.2009 105.449 85.2009C105.837 85.2009 106.195 85.2629 106.523 85.3869C106.851 85.5109 107.133 85.6929 107.369 85.9329C107.605 86.1689 107.789 86.4609 107.921 86.8089C108.057 87.1529 108.125 87.5469 108.125 87.9909C108.125 88.2149 108.101 88.3669 108.053 88.4469C108.005 88.5229 107.913 88.5609 107.777 88.5609H103.967Z" fill="black"/>
<path d="M92.7726 91.4529V85.2969H93.6786C93.8706 85.2969 93.9966 85.3869 94.0566 85.5669L94.1526 86.0229C94.2606 85.9029 94.3726 85.7929 94.4886 85.6929C94.6086 85.5929 94.7346 85.5069 94.8666 85.4349C95.0026 85.3629 95.1466 85.3069 95.2986 85.2669C95.4546 85.2229 95.6246 85.2009 95.8086 85.2009C96.1966 85.2009 96.5146 85.3069 96.7626 85.5189C97.0146 85.7269 97.2026 86.0049 97.3266 86.3529C97.4226 86.1489 97.5426 85.9749 97.6866 85.8309C97.8306 85.6829 97.9886 85.5629 98.1606 85.4709C98.3326 85.3789 98.5146 85.3109 98.7066 85.2669C98.9026 85.2229 99.0986 85.2009 99.2946 85.2009C99.6346 85.2009 99.9366 85.2529 100.201 85.3569C100.465 85.4609 100.687 85.6129 100.867 85.8129C101.047 86.0129 101.183 86.2569 101.275 86.5449C101.371 86.8329 101.419 87.1629 101.419 87.5349V91.4529H99.9366V87.5349C99.9366 87.1429 99.8506 86.8489 99.6786 86.6529C99.5066 86.4529 99.2546 86.3529 98.9226 86.3529C98.7706 86.3529 98.6286 86.3789 98.4966 86.4309C98.3686 86.4829 98.2546 86.5589 98.1546 86.6589C98.0586 86.7549 97.9826 86.8769 97.9266 87.0249C97.8706 87.1729 97.8426 87.3429 97.8426 87.5349V91.4529H96.3546V87.5349C96.3546 87.1229 96.2706 86.8229 96.1026 86.6349C95.9386 86.4469 95.6966 86.3529 95.3766 86.3529C95.1606 86.3529 94.9586 86.4069 94.7706 86.5149C94.5866 86.6189 94.4146 86.7629 94.2546 86.9469V91.4529H92.7726Z" fill="black"/>
<path d="M87.4343 89.857C87.6023 90.061 87.7843 90.205 87.9803 90.289C88.1803 90.373 88.3963 90.415 88.6283 90.415C88.8523 90.415 89.0543 90.373 89.2343 90.289C89.4143 90.205 89.5663 90.077 89.6903 89.905C89.8183 89.733 89.9163 89.517 89.9843 89.257C90.0523 88.993 90.0863 88.683 90.0863 88.327C90.0863 87.967 90.0563 87.663 89.9963 87.415C89.9403 87.163 89.8583 86.959 89.7503 86.803C89.6423 86.647 89.5103 86.533 89.3543 86.461C89.2023 86.389 89.0283 86.353 88.8323 86.353C88.5243 86.353 88.2623 86.419 88.0463 86.551C87.8303 86.679 87.6263 86.861 87.4343 87.097V89.857ZM87.3563 86.137C87.6083 85.853 87.8943 85.623 88.2143 85.447C88.5343 85.271 88.9103 85.183 89.3423 85.183C89.6783 85.183 89.9843 85.253 90.2603 85.393C90.5403 85.533 90.7803 85.737 90.9803 86.005C91.1843 86.269 91.3403 86.597 91.4483 86.989C91.5603 87.377 91.6163 87.823 91.6163 88.327C91.6163 88.787 91.5543 89.213 91.4303 89.605C91.3063 89.997 91.1283 90.337 90.8963 90.625C90.6683 90.913 90.3903 91.139 90.0623 91.303C89.7383 91.463 89.3743 91.543 88.9703 91.543C88.6263 91.543 88.3323 91.491 88.0883 91.387C87.8443 91.279 87.6263 91.131 87.4343 90.943V93.463H85.9523V85.297H86.8583C87.0503 85.297 87.1763 85.387 87.2363 85.567L87.3563 86.137Z" fill="black"/>
<path d="M81.7857 85.2009C82.2417 85.2009 82.6557 85.2749 83.0277 85.4229C83.4037 85.5709 83.7237 85.7809 83.9877 86.0529C84.2557 86.3249 84.4617 86.6569 84.6057 87.0489C84.7497 87.4409 84.8217 87.8789 84.8217 88.3629C84.8217 88.8509 84.7497 89.2909 84.6057 89.6829C84.4617 90.0749 84.2557 90.4089 83.9877 90.6849C83.7237 90.9609 83.4037 91.1729 83.0277 91.3209C82.6557 91.4689 82.2417 91.5429 81.7857 91.5429C81.3257 91.5429 80.9077 91.4689 80.5317 91.3209C80.1557 91.1729 79.8337 90.9609 79.5657 90.6849C79.3017 90.4089 79.0957 90.0749 78.9477 89.6829C78.8037 89.2909 78.7317 88.8509 78.7317 88.3629C78.7317 87.8789 78.8037 87.4409 78.9477 87.0489C79.0957 86.6569 79.3017 86.3249 79.5657 86.0529C79.8337 85.7809 80.1557 85.5709 80.5317 85.4229C80.9077 85.2749 81.3257 85.2009 81.7857 85.2009ZM81.7857 90.4029C82.2977 90.4029 82.6757 90.2309 82.9197 89.8869C83.1677 89.5429 83.2917 89.0389 83.2917 88.3749C83.2917 87.7109 83.1677 87.2049 82.9197 86.8569C82.6757 86.5089 82.2977 86.3349 81.7857 86.3349C81.2657 86.3349 80.8797 86.5109 80.6277 86.8629C80.3797 87.2109 80.2557 87.7149 80.2557 88.3749C80.2557 89.0349 80.3797 89.5389 80.6277 89.8869C80.8797 90.2309 81.2657 90.4029 81.7857 90.4029Z" fill="black"/>
<path d="M77.5851 82.537V91.453H76.1031V82.537H77.5851Z" fill="black"/>
<path d="M73.641 87.6669C73.641 87.4749 73.613 87.2949 73.557 87.1269C73.505 86.9549 73.425 86.8049 73.317 86.6769C73.209 86.5489 73.071 86.4489 72.903 86.3769C72.739 86.3009 72.547 86.2629 72.327 86.2629C71.899 86.2629 71.561 86.3849 71.313 86.6289C71.069 86.8729 70.913 87.2189 70.845 87.6669H73.641ZM70.815 88.5609C70.839 88.8769 70.895 89.1509 70.983 89.3829C71.071 89.6109 71.187 89.8009 71.331 89.9529C71.475 90.1009 71.645 90.2129 71.841 90.2889C72.041 90.3609 72.261 90.3969 72.501 90.3969C72.741 90.3969 72.947 90.3689 73.119 90.3129C73.295 90.2569 73.447 90.1949 73.575 90.1269C73.707 90.0589 73.821 89.9969 73.917 89.9409C74.017 89.8849 74.113 89.8569 74.205 89.8569C74.329 89.8569 74.421 89.9029 74.481 89.9949L74.907 90.5349C74.743 90.7269 74.559 90.8889 74.355 91.0209C74.151 91.1489 73.937 91.2529 73.713 91.3329C73.493 91.4089 73.267 91.4629 73.035 91.4949C72.807 91.5269 72.585 91.5429 72.369 91.5429C71.941 91.5429 71.543 91.4729 71.175 91.3329C70.807 91.1889 70.487 90.9789 70.215 90.7029C69.943 90.4229 69.729 90.0789 69.573 89.6709C69.417 89.2589 69.339 88.7829 69.339 88.2429C69.339 87.8229 69.407 87.4289 69.543 87.0609C69.679 86.6889 69.873 86.3669 70.125 86.0949C70.381 85.8189 70.691 85.6009 71.055 85.4409C71.423 85.2809 71.837 85.2009 72.297 85.2009C72.685 85.2009 73.043 85.2629 73.371 85.3869C73.699 85.5109 73.981 85.6929 74.217 85.9329C74.453 86.1689 74.637 86.4609 74.769 86.8089C74.905 87.1529 74.973 87.5469 74.973 87.9909C74.973 88.2149 74.949 88.3669 74.901 88.4469C74.853 88.5229 74.761 88.5609 74.625 88.5609H70.815Z" fill="black"/>
<path d="M69.0726 85.297L66.6306 91.453H65.2866L62.8446 85.297H64.0686C64.1806 85.297 64.2726 85.323 64.3446 85.375C64.4206 85.427 64.4706 85.493 64.4946 85.573L65.6826 88.861C65.7466 89.053 65.8026 89.241 65.8506 89.425C65.8986 89.609 65.9406 89.793 65.9766 89.977C66.0166 89.793 66.0606 89.609 66.1086 89.425C66.1566 89.241 66.2146 89.053 66.2826 88.861L67.4946 85.573C67.5226 85.493 67.5726 85.427 67.6446 85.375C67.7166 85.323 67.8026 85.297 67.9026 85.297H69.0726Z" fill="black"/>
<path d="M61.2308 87.6669C61.2308 87.4749 61.2028 87.2949 61.1468 87.1269C61.0948 86.9549 61.0148 86.8049 60.9068 86.6769C60.7988 86.5489 60.6608 86.4489 60.4928 86.3769C60.3288 86.3009 60.1368 86.2629 59.9168 86.2629C59.4888 86.2629 59.1508 86.3849 58.9028 86.6289C58.6588 86.8729 58.5028 87.2189 58.4348 87.6669H61.2308ZM58.4048 88.5609C58.4288 88.8769 58.4848 89.1509 58.5728 89.3829C58.6608 89.6109 58.7768 89.8009 58.9208 89.9529C59.0648 90.1009 59.2348 90.2129 59.4308 90.2889C59.6308 90.3609 59.8508 90.3969 60.0908 90.3969C60.3308 90.3969 60.5368 90.3689 60.7088 90.3129C60.8848 90.2569 61.0368 90.1949 61.1648 90.1269C61.2968 90.0589 61.4108 89.9969 61.5068 89.9409C61.6068 89.8849 61.7028 89.8569 61.7948 89.8569C61.9188 89.8569 62.0108 89.9029 62.0708 89.9949L62.4968 90.5349C62.3328 90.7269 62.1488 90.8889 61.9448 91.0209C61.7408 91.1489 61.5268 91.2529 61.3028 91.3329C61.0828 91.4089 60.8568 91.4629 60.6248 91.4949C60.3968 91.5269 60.1748 91.5429 59.9588 91.5429C59.5308 91.5429 59.1328 91.4729 58.7648 91.3329C58.3968 91.1889 58.0768 90.9789 57.8048 90.7029C57.5328 90.4229 57.3188 90.0789 57.1628 89.6709C57.0068 89.2589 56.9288 88.7829 56.9288 88.2429C56.9288 87.8229 56.9968 87.4289 57.1328 87.0609C57.2688 86.6889 57.4628 86.3669 57.7148 86.0949C57.9708 85.8189 58.2808 85.6009 58.6448 85.4409C59.0128 85.2809 59.4268 85.2009 59.8868 85.2009C60.2748 85.2009 60.6328 85.2629 60.9608 85.3869C61.2888 85.5109 61.5708 85.6929 61.8068 85.9329C62.0428 86.1689 62.2268 86.4609 62.3588 86.8089C62.4948 87.1529 62.5628 87.5469 62.5628 87.9909C62.5628 88.2149 62.5388 88.3669 62.4908 88.4469C62.4428 88.5229 62.3508 88.5609 62.2148 88.5609H58.4048Z" fill="black"/>
<path d="M54.3202 86.869C54.1522 86.665 53.9682 86.521 53.7682 86.437C53.5722 86.353 53.3602 86.311 53.1322 86.311C52.9082 86.311 52.7062 86.353 52.5262 86.437C52.3462 86.521 52.1922 86.649 52.0642 86.821C51.9362 86.989 51.8382 87.205 51.7702 87.469C51.7022 87.729 51.6682 88.037 51.6682 88.393C51.6682 88.753 51.6962 89.059 51.7522 89.311C51.8122 89.559 51.8962 89.763 52.0042 89.923C52.1122 90.079 52.2442 90.193 52.4002 90.265C52.5562 90.333 52.7302 90.367 52.9222 90.367C53.2302 90.367 53.4922 90.303 53.7082 90.175C53.9242 90.047 54.1282 89.865 54.3202 89.629V86.869ZM55.8022 82.537V91.453H54.8962C54.7002 91.453 54.5762 91.363 54.5242 91.183L54.3982 90.589C54.1502 90.873 53.8642 91.103 53.5402 91.279C53.2202 91.455 52.8462 91.543 52.4182 91.543C52.0822 91.543 51.7742 91.473 51.4942 91.333C51.2142 91.193 50.9722 90.991 50.7682 90.727C50.5682 90.459 50.4122 90.129 50.3002 89.737C50.1922 89.345 50.1382 88.897 50.1382 88.393C50.1382 87.937 50.2002 87.513 50.3242 87.121C50.4482 86.729 50.6262 86.389 50.8582 86.101C51.0902 85.813 51.3682 85.589 51.6922 85.429C52.0162 85.265 52.3802 85.183 52.7842 85.183C53.1282 85.183 53.4222 85.237 53.6662 85.345C53.9102 85.453 54.1282 85.599 54.3202 85.783V82.537H55.8022Z" fill="black"/>
<path d="M44.7175 86.365C44.9095 85.997 45.1375 85.709 45.4015 85.501C45.6655 85.289 45.9775 85.183 46.3375 85.183C46.6215 85.183 46.8495 85.245 47.0215 85.369L46.9255 86.479C46.9055 86.551 46.8755 86.603 46.8355 86.635C46.7995 86.663 46.7495 86.677 46.6855 86.677C46.6255 86.677 46.5355 86.667 46.4155 86.647C46.2995 86.627 46.1855 86.617 46.0735 86.617C45.9095 86.617 45.7635 86.641 45.6355 86.689C45.5075 86.737 45.3915 86.807 45.2875 86.899C45.1875 86.987 45.0975 87.095 45.0175 87.223C44.9415 87.351 44.8695 87.497 44.8015 87.661V91.453H43.3195V85.297H44.1895C44.3415 85.297 44.4475 85.325 44.5075 85.381C44.5675 85.433 44.6075 85.529 44.6275 85.669L44.7175 86.365Z" fill="black"/>
<path d="M39.1529 85.2009C39.6089 85.2009 40.0229 85.2749 40.3949 85.4229C40.7709 85.5709 41.0909 85.7809 41.3549 86.0529C41.6229 86.3249 41.8289 86.6569 41.9729 87.0489C42.1169 87.4409 42.1889 87.8789 42.1889 88.3629C42.1889 88.8509 42.1169 89.2909 41.9729 89.6829C41.8289 90.0749 41.6229 90.4089 41.3549 90.6849C41.0909 90.9609 40.7709 91.1729 40.3949 91.3209C40.0229 91.4689 39.6089 91.5429 39.1529 91.5429C38.6929 91.5429 38.2749 91.4689 37.8989 91.3209C37.5229 91.1729 37.2009 90.9609 36.9329 90.6849C36.6689 90.4089 36.4629 90.0749 36.3149 89.6829C36.1709 89.2909 36.0989 88.8509 36.0989 88.3629C36.0989 87.8789 36.1709 87.4409 36.3149 87.0489C36.4629 86.6569 36.6689 86.3249 36.9329 86.0529C37.2009 85.7809 37.5229 85.5709 37.8989 85.4229C38.2749 85.2749 38.6929 85.2009 39.1529 85.2009ZM39.1529 90.4029C39.6649 90.4029 40.0429 90.2309 40.2869 89.8869C40.5349 89.5429 40.6589 89.0389 40.6589 88.3749C40.6589 87.7109 40.5349 87.2049 40.2869 86.8569C40.0429 86.5089 39.6649 86.3349 39.1529 86.3349C38.6329 86.3349 38.2469 86.5109 37.9949 86.8629C37.7469 87.2109 37.6229 87.7149 37.6229 88.3749C37.6229 89.0349 37.7469 89.5389 37.9949 89.8869C38.2469 90.2309 38.6329 90.4029 39.1529 90.4029Z" fill="black"/>
<path d="M32.025 84.061V86.629H35.277V87.919H32.025V91.453H30.405V82.777H35.877V84.061H32.025Z" fill="black"/>
</g>
<g opacity="0.25">
<g clip-path="url(#clip1_10291_59931)">
<path d="M216.72 89.988V102.168H214.478V94.6889C214.478 94.5323 214.481 94.3644 214.486 94.1853C214.498 94.0062 214.514 93.8243 214.537 93.6397L211.026 100.246C210.834 100.61 210.538 100.792 210.137 100.792H209.782C209.585 100.792 209.41 100.747 209.257 100.657C209.105 100.562 208.984 100.425 208.894 100.246L205.365 93.6145C205.382 93.8103 205.397 94.0006 205.408 94.1853C205.419 94.3644 205.425 94.5323 205.425 94.6889V102.168H203.183V89.988H205.112C205.219 89.988 205.315 89.9908 205.399 89.9964C205.484 90.002 205.557 90.0188 205.619 90.0468C205.687 90.0692 205.746 90.1084 205.797 90.1643C205.853 90.2147 205.907 90.2874 205.958 90.3826L209.393 96.8799C209.5 97.0758 209.599 97.2773 209.689 97.4843C209.785 97.6914 209.875 97.904 209.96 98.1222C210.044 97.8985 210.132 97.6802 210.222 97.4675C210.318 97.2549 210.419 97.0506 210.527 96.8547L213.936 90.3826C213.987 90.2874 214.041 90.2147 214.097 90.1643C214.153 90.1084 214.213 90.0692 214.275 90.0468C214.342 90.0188 214.416 90.002 214.495 89.9964C214.579 89.9908 214.678 89.988 214.791 89.988H216.72Z" fill="black"/>
<path d="M223.887 96.8213C223.887 96.5806 223.853 96.3511 223.785 96.1329C223.723 95.9146 223.622 95.7216 223.481 95.5537C223.34 95.3858 223.162 95.2542 222.948 95.1592C222.733 95.0584 222.477 95.008 222.178 95.008C221.619 95.008 221.182 95.1647 220.866 95.4781C220.55 95.7915 220.345 96.2392 220.249 96.8213H223.887ZM220.215 98.1979C220.288 99.0094 220.519 99.6026 220.909 99.9775C221.304 100.353 221.817 100.54 222.449 100.54C222.77 100.54 223.046 100.504 223.278 100.431C223.515 100.353 223.72 100.269 223.895 100.179C224.076 100.084 224.237 100 224.378 99.9272C224.524 99.8488 224.668 99.8096 224.809 99.8096C224.99 99.8096 225.131 99.8769 225.232 100.011L225.909 100.851C225.661 101.136 225.387 101.374 225.088 101.564C224.789 101.749 224.479 101.897 224.158 102.009C223.836 102.115 223.512 102.188 223.185 102.227C222.857 102.272 222.542 102.294 222.237 102.294C221.628 102.294 221.058 102.197 220.528 102.001C220.003 101.799 219.544 101.505 219.149 101.119C218.76 100.727 218.452 100.243 218.227 99.667C218.001 99.0906 217.888 98.4218 217.888 97.6607C217.888 97.0731 217.984 96.519 218.176 95.9986C218.373 95.4781 218.655 95.0248 219.022 94.6387C219.389 94.2525 219.834 93.9475 220.359 93.7237C220.883 93.4943 221.476 93.3795 222.136 93.3795C222.694 93.3795 223.207 93.469 223.675 93.6481C224.149 93.8216 224.555 94.0763 224.894 94.412C225.238 94.7478 225.503 95.1619 225.689 95.6544C225.881 96.1413 225.977 96.6981 225.977 97.3249C225.977 97.4984 225.968 97.6411 225.951 97.753C225.934 97.865 225.906 97.9545 225.867 98.0216C225.827 98.0888 225.774 98.1364 225.706 98.1643C225.638 98.1867 225.551 98.1979 225.444 98.1979H220.215Z" fill="black"/>
<path d="M230 102.303C229.605 102.303 229.256 102.247 228.951 102.135C228.646 102.017 228.39 101.852 228.181 101.64C227.972 101.427 227.814 101.17 227.707 100.867C227.6 100.565 227.547 100.224 227.547 99.8432V95.176H226.726C226.602 95.176 226.495 95.1368 226.404 95.0584C226.32 94.9801 226.277 94.8626 226.277 94.7058V93.7993L227.673 93.5475L228.147 91.3061C228.209 91.0543 228.381 90.9283 228.663 90.9283H229.882V93.5642H232.132V95.176H229.882V99.6922C229.882 99.9328 229.938 100.123 230.051 100.263C230.169 100.403 230.336 100.473 230.55 100.473C230.663 100.473 230.759 100.462 230.838 100.439C230.917 100.411 230.984 100.383 231.041 100.355C231.097 100.322 231.148 100.294 231.193 100.271C231.244 100.243 231.295 100.229 231.345 100.229C231.413 100.229 231.47 100.246 231.515 100.28C231.56 100.308 231.605 100.358 231.65 100.431L232.352 101.539C232.031 101.791 231.667 101.981 231.261 102.11C230.855 102.238 230.435 102.303 230 102.303Z" fill="black"/>
<path d="M237.605 98.5505C237.036 98.5785 236.562 98.6289 236.184 98.7016C235.806 98.7688 235.504 98.8583 235.279 98.9702C235.059 99.0822 234.901 99.2109 234.805 99.3564C234.714 99.4963 234.669 99.6502 234.669 99.8181C234.669 100.154 234.762 100.392 234.949 100.532C235.14 100.672 235.405 100.741 235.744 100.741C236.133 100.741 236.469 100.674 236.751 100.54C237.038 100.4 237.323 100.185 237.605 99.8937V98.5505ZM232.85 94.7143C233.364 94.2554 233.93 93.914 234.551 93.6901C235.171 93.4606 235.843 93.3459 236.565 93.3459C237.083 93.3459 237.546 93.4299 237.952 93.5978C238.364 93.7657 238.711 94.0007 238.993 94.3029C239.28 94.5995 239.5 94.9549 239.653 95.369C239.805 95.7831 239.881 96.2365 239.881 96.7289V102.169H238.815C238.595 102.169 238.426 102.138 238.307 102.076C238.195 102.015 238.102 101.886 238.028 101.69L237.842 101.136C237.622 101.326 237.408 101.494 237.199 101.64C236.996 101.785 236.785 101.908 236.565 102.009C236.345 102.104 236.108 102.177 235.854 102.227C235.606 102.278 235.326 102.303 235.016 102.303C234.633 102.303 234.283 102.253 233.967 102.152C233.651 102.051 233.378 101.903 233.146 101.707C232.921 101.505 232.746 101.256 232.622 100.96C232.498 100.663 232.436 100.322 232.436 99.9356C232.436 99.6166 232.518 99.2976 232.681 98.9787C232.845 98.6596 233.124 98.3714 233.519 98.114C233.919 97.8509 234.449 97.6355 235.109 97.4676C235.775 97.2942 236.607 97.1962 237.605 97.1738V96.7289C237.605 96.186 237.49 95.7887 237.258 95.5369C237.027 95.2795 236.694 95.1508 236.26 95.1508C235.938 95.1508 235.67 95.1899 235.456 95.2683C235.242 95.3411 235.053 95.4222 234.889 95.5117C234.731 95.5957 234.582 95.6768 234.441 95.7552C234.3 95.8279 234.136 95.8643 233.95 95.8643C233.787 95.8643 233.648 95.8251 233.536 95.7467C233.428 95.6628 233.338 95.5649 233.265 95.4529L232.85 94.7143Z" fill="black"/>
<path d="M243.701 99.8852C243.921 100.137 244.157 100.313 244.411 100.414C244.671 100.515 244.939 100.565 245.215 100.565C245.503 100.565 245.762 100.515 245.993 100.414C246.23 100.308 246.433 100.143 246.603 99.9188C246.772 99.6894 246.902 99.3927 246.992 99.029C247.082 98.6652 247.127 98.2259 247.127 97.711C247.127 97.2521 247.091 96.8632 247.017 96.5442C246.944 96.2197 246.834 95.9538 246.687 95.7467C246.546 95.5397 246.371 95.3886 246.163 95.2934C245.954 95.1983 245.711 95.1507 245.435 95.1507C245.068 95.1507 244.75 95.2319 244.479 95.3942C244.214 95.5509 243.954 95.7831 243.701 96.0909V99.8852ZM243.701 94.5128C244.045 94.1714 244.425 93.8972 244.843 93.6901C245.26 93.483 245.728 93.3795 246.247 93.3795C246.749 93.3795 247.201 93.4802 247.601 93.6817C248.007 93.8776 248.351 94.1602 248.633 94.5295C248.921 94.8989 249.141 95.3466 249.293 95.8726C249.451 96.3931 249.53 96.9779 249.53 97.6271C249.53 98.3266 249.44 98.9646 249.259 99.541C249.084 100.112 248.833 100.602 248.506 101.01C248.179 101.419 247.787 101.735 247.33 101.959C246.879 102.182 246.374 102.294 245.816 102.294C245.545 102.294 245.302 102.266 245.088 102.21C244.874 102.16 244.676 102.087 244.496 101.992C244.315 101.897 244.149 101.785 243.997 101.656C243.844 101.522 243.701 101.374 243.565 101.212L243.472 101.732C243.433 101.894 243.368 102.009 243.278 102.076C243.187 102.138 243.066 102.168 242.914 102.168H241.365V89.6523H243.701V94.5128Z" fill="black"/>
<path d="M255.254 98.5505C254.685 98.5785 254.211 98.6289 253.833 98.7016C253.455 98.7688 253.153 98.8583 252.928 98.9702C252.708 99.0822 252.55 99.2109 252.454 99.3564C252.364 99.4963 252.319 99.6502 252.319 99.8181C252.319 100.154 252.412 100.392 252.598 100.532C252.79 100.672 253.055 100.741 253.393 100.741C253.782 100.741 254.118 100.674 254.4 100.54C254.688 100.4 254.972 100.185 255.254 99.8937V98.5505ZM250.5 94.7143C251.013 94.2554 251.58 93.914 252.2 93.6901C252.821 93.4606 253.492 93.3459 254.214 93.3459C254.733 93.3459 255.195 93.4299 255.601 93.5978C256.013 93.7657 256.36 94.0007 256.642 94.3029C256.93 94.5995 257.15 94.9549 257.302 95.369C257.454 95.7831 257.53 96.2365 257.53 96.7289V102.169H256.464C256.244 102.169 256.075 102.138 255.957 102.076C255.844 102.015 255.751 101.886 255.678 101.69L255.491 101.136C255.271 101.326 255.057 101.494 254.848 101.64C254.645 101.785 254.434 101.908 254.214 102.009C253.994 102.104 253.757 102.177 253.503 102.227C253.255 102.278 252.976 102.303 252.665 102.303C252.282 102.303 251.932 102.253 251.616 102.152C251.301 102.051 251.027 101.903 250.796 101.707C250.57 101.505 250.395 101.256 250.271 100.96C250.147 100.663 250.085 100.322 250.085 99.9356C250.085 99.6166 250.167 99.2976 250.33 98.9787C250.494 98.6596 250.773 98.3714 251.168 98.114C251.568 97.8509 252.099 97.6355 252.759 97.4676C253.424 97.2942 254.256 97.1962 255.254 97.1738V96.7289C255.254 96.186 255.139 95.7887 254.908 95.5369C254.676 95.2795 254.344 95.1508 253.909 95.1508C253.588 95.1508 253.32 95.1899 253.105 95.2683C252.891 95.3411 252.702 95.4222 252.539 95.5117C252.381 95.5957 252.231 95.6768 252.09 95.7552C251.949 95.8279 251.786 95.8643 251.599 95.8643C251.436 95.8643 251.298 95.8251 251.185 95.7467C251.078 95.6628 250.987 95.5649 250.914 95.4529L250.5 94.7143Z" fill="black"/>
<path d="M264.438 95.2934C264.376 95.3886 264.311 95.4585 264.243 95.5033C264.181 95.5425 264.094 95.562 263.981 95.562C263.868 95.562 263.753 95.5341 263.634 95.4781C263.516 95.4221 263.383 95.3634 263.237 95.3019C263.09 95.2346 262.921 95.1731 262.729 95.1172C262.543 95.0612 262.326 95.0332 262.077 95.0332C261.699 95.0332 261.406 95.1115 261.197 95.2683C260.989 95.4193 260.884 95.6208 260.884 95.8726C260.884 96.0461 260.944 96.1916 261.062 96.3092C261.181 96.4267 261.336 96.5303 261.527 96.6198C261.725 96.7037 261.948 96.7849 262.196 96.8632C262.444 96.9359 262.698 97.0171 262.957 97.1066C263.222 97.1962 263.479 97.2997 263.727 97.4172C263.975 97.5348 264.195 97.6831 264.387 97.8622C264.585 98.0356 264.743 98.2483 264.861 98.5001C264.979 98.7463 265.039 99.0458 265.039 99.3984C265.039 99.8181 264.96 100.207 264.802 100.565C264.649 100.918 264.424 101.223 264.125 101.48C263.826 101.738 263.454 101.939 263.008 102.085C262.563 102.23 262.049 102.303 261.468 102.303C261.169 102.303 260.873 102.275 260.58 102.219C260.287 102.168 260.007 102.096 259.742 102.001C259.477 101.9 259.229 101.785 258.998 101.656C258.766 101.528 258.566 101.388 258.397 101.237L258.938 100.372C259 100.271 259.077 100.193 259.167 100.137C259.263 100.081 259.384 100.053 259.531 100.053C259.672 100.053 259.801 100.089 259.92 100.162C260.038 100.229 260.171 100.305 260.318 100.389C260.464 100.467 260.636 100.543 260.834 100.616C261.037 100.683 261.288 100.716 261.587 100.716C261.812 100.716 262.007 100.691 262.17 100.641C262.334 100.59 262.467 100.523 262.568 100.439C262.67 100.35 262.743 100.252 262.788 100.145C262.839 100.034 262.864 99.9188 262.864 99.8013C262.864 99.611 262.802 99.4571 262.678 99.3396C262.56 99.2165 262.402 99.1101 262.204 99.0205C262.013 98.931 261.79 98.8499 261.536 98.7772C261.282 98.7044 261.023 98.6232 260.758 98.5337C260.498 98.4442 260.241 98.3379 259.988 98.2147C259.739 98.0916 259.517 97.9377 259.319 97.753C259.127 97.5627 258.969 97.3305 258.845 97.0563C258.727 96.7821 258.668 96.4491 258.668 96.0573C258.668 95.6992 258.738 95.3605 258.879 95.0416C259.02 94.717 259.232 94.4316 259.514 94.1854C259.796 93.9391 260.146 93.7433 260.563 93.5978C260.986 93.4523 261.474 93.3795 262.027 93.3795C262.647 93.3795 263.211 93.4802 263.719 93.6817C264.226 93.8831 264.644 94.1462 264.971 94.4708L264.438 95.2934Z" fill="black"/>
<path d="M271.696 96.8213C271.696 96.5806 271.662 96.3511 271.593 96.1329C271.532 95.9146 271.43 95.7216 271.289 95.5537C271.148 95.3858 270.971 95.2542 270.756 95.1592C270.541 95.0584 270.285 95.008 269.986 95.008C269.428 95.008 268.991 95.1647 268.675 95.4781C268.359 95.7915 268.153 96.2392 268.057 96.8213H271.696ZM268.023 98.1979C268.097 99.0094 268.328 99.6026 268.717 99.9775C269.112 100.353 269.625 100.54 270.257 100.54C270.578 100.54 270.855 100.504 271.086 100.431C271.323 100.353 271.529 100.269 271.704 100.179C271.885 100.084 272.045 100 272.186 99.9272C272.333 99.8488 272.476 99.8096 272.617 99.8096C272.798 99.8096 272.939 99.8769 273.041 100.011L273.717 100.851C273.47 101.136 273.196 101.374 272.897 101.564C272.598 101.749 272.287 101.897 271.966 102.009C271.645 102.115 271.32 102.188 270.993 102.227C270.666 102.272 270.35 102.294 270.046 102.294C269.436 102.294 268.867 102.197 268.336 102.001C267.812 101.799 267.352 101.505 266.957 101.119C266.568 100.727 266.261 100.243 266.035 99.667C265.81 99.0906 265.697 98.4218 265.697 97.6607C265.697 97.0731 265.793 96.519 265.984 95.9986C266.182 95.4781 266.464 95.0248 266.83 94.6387C267.197 94.2525 267.643 93.9475 268.167 93.7237C268.692 93.4943 269.284 93.3795 269.944 93.3795C270.502 93.3795 271.016 93.469 271.484 93.6481C271.957 93.8216 272.364 94.0763 272.702 94.412C273.046 94.7478 273.311 95.1619 273.497 95.6544C273.689 96.1413 273.785 96.6981 273.785 97.3249C273.785 97.4984 273.777 97.6411 273.76 97.753C273.743 97.865 273.715 97.9545 273.675 98.0216C273.636 98.0888 273.582 98.1364 273.514 98.1643C273.447 98.1867 273.359 98.1979 273.252 98.1979H268.023Z" fill="black"/>
<path fill-rule="evenodd" clip-rule="evenodd" d="M177.47 91.1327C178.282 91.1327 178.94 90.4799 178.94 89.6747C178.94 88.8695 178.282 88.2168 177.47 88.2168C176.658 88.2168 176 88.8695 176 89.6747C176 90.4799 176.658 91.1327 177.47 91.1327Z" fill="black"/>
<path fill-rule="evenodd" clip-rule="evenodd" d="M177.47 95.3495C178.282 95.3495 178.94 94.6967 178.94 93.8915C178.94 93.0863 178.282 92.4336 177.47 92.4336C176.658 92.4336 176 93.0863 176 93.8915C176 94.6967 176.658 95.3495 177.47 95.3495Z" fill="black"/>
<path fill-rule="evenodd" clip-rule="evenodd" d="M181.722 95.3495C182.533 95.3495 183.191 94.6967 183.191 93.8915C183.191 93.0863 182.533 92.4336 181.722 92.4336C180.91 92.4336 180.252 93.0863 180.252 93.8915C180.252 94.6967 180.91 95.3495 181.722 95.3495Z" fill="black"/>
<path fill-rule="evenodd" clip-rule="evenodd" d="M194.476 91.1327C195.288 91.1327 195.946 90.4799 195.946 89.6747C195.946 88.8695 195.288 88.2168 194.476 88.2168C193.664 88.2168 193.006 88.8695 193.006 89.6747C193.006 90.4799 193.664 91.1327 194.476 91.1327Z" fill="black"/>
<path fill-rule="evenodd" clip-rule="evenodd" d="M190.225 95.3495C191.036 95.3495 191.694 94.6967 191.694 93.8915C191.694 93.0863 191.036 92.4336 190.225 92.4336C189.413 92.4336 188.755 93.0863 188.755 93.8915C188.755 94.6967 189.413 95.3495 190.225 95.3495Z" fill="black"/>
<path fill-rule="evenodd" clip-rule="evenodd" d="M185.973 99.5663C186.785 99.5663 187.443 98.9136 187.443 98.1084C187.443 97.3032 186.785 96.6504 185.973 96.6504C185.161 96.6504 184.503 97.3032 184.503 98.1084C184.503 98.9136 185.161 99.5663 185.973 99.5663Z" fill="black"/>
<path fill-rule="evenodd" clip-rule="evenodd" d="M194.476 95.3495C195.288 95.3495 195.946 94.6967 195.946 93.8915C195.946 93.0863 195.288 92.4336 194.476 92.4336C193.664 92.4336 193.006 93.0863 193.006 93.8915C193.006 94.6967 193.664 95.3495 194.476 95.3495Z" fill="black"/>
<path fill-rule="evenodd" clip-rule="evenodd" d="M177.47 99.5663C178.282 99.5663 178.94 98.9136 178.94 98.1084C178.94 97.3032 178.282 96.6504 177.47 96.6504C176.658 96.6504 176 97.3032 176 98.1084C176 98.9136 176.658 99.5663 177.47 99.5663Z" fill="black"/>
<path fill-rule="evenodd" clip-rule="evenodd" d="M194.476 99.5663C195.288 99.5663 195.946 98.9136 195.946 98.1084C195.946 97.3032 195.288 96.6504 194.476 96.6504C193.664 96.6504 193.006 97.3032 193.006 98.1084C193.006 98.9136 193.664 99.5663 194.476 99.5663Z" fill="black"/>
<path fill-rule="evenodd" clip-rule="evenodd" d="M177.47 103.783C178.282 103.783 178.94 103.13 178.94 102.325C178.94 101.52 178.282 100.867 177.47 100.867C176.658 100.867 176 101.52 176 102.325C176 103.13 176.658 103.783 177.47 103.783Z" fill="black"/>
<path fill-rule="evenodd" clip-rule="evenodd" d="M194.476 103.783C195.288 103.783 195.946 103.13 195.946 102.325C195.946 101.52 195.288 100.867 194.476 100.867C193.664 100.867 193.006 101.52 193.006 102.325C193.006 103.13 193.664 103.783 194.476 103.783Z" fill="black"/>
<path fill-rule="evenodd" clip-rule="evenodd" d="M181.722 91.1327C182.533 91.1327 183.191 90.4799 183.191 89.6747C183.191 88.8695 182.533 88.2168 181.722 88.2168C180.91 88.2168 180.252 88.8695 180.252 89.6747C180.252 90.4799 180.91 91.1327 181.722 91.1327Z" fill="black" fill-opacity="0.5"/>
<path fill-rule="evenodd" clip-rule="evenodd" d="M185.973 91.1327C186.785 91.1327 187.443 90.4799 187.443 89.6747C187.443 88.8695 186.785 88.2168 185.973 88.2168C185.161 88.2168 184.503 88.8695 184.503 89.6747C184.503 90.4799 185.161 91.1327 185.973 91.1327Z" fill="black" fill-opacity="0.5"/>
<path fill-rule="evenodd" clip-rule="evenodd" d="M185.973 86.9159C186.785 86.9159 187.443 86.2631 187.443 85.4579C187.443 84.6527 186.785 84 185.973 84C185.161 84 184.503 84.6527 184.503 85.4579C184.503 86.2631 185.161 86.9159 185.973 86.9159Z" fill="black" fill-opacity="0.5"/>
<path fill-rule="evenodd" clip-rule="evenodd" d="M185.973 95.3495C186.785 95.3495 187.443 94.6967 187.443 93.8915C187.443 93.0863 186.785 92.4336 185.973 92.4336C185.161 92.4336 184.503 93.0863 184.503 93.8915C184.503 94.6967 185.161 95.3495 185.973 95.3495Z" fill="black" fill-opacity="0.5"/>
<path fill-rule="evenodd" clip-rule="evenodd" d="M190.225 91.1327C191.036 91.1327 191.694 90.4799 191.694 89.6747C191.694 88.8695 191.036 88.2168 190.225 88.2168C189.413 88.2168 188.755 88.8695 188.755 89.6747C188.755 90.4799 189.413 91.1327 190.225 91.1327Z" fill="black" fill-opacity="0.5"/>
<path fill-rule="evenodd" clip-rule="evenodd" d="M181.722 99.5663C182.533 99.5663 183.191 98.9136 183.191 98.1084C183.191 97.3032 182.533 96.6504 181.722 96.6504C180.91 96.6504 180.252 97.3032 180.252 98.1084C180.252 98.9136 180.91 99.5663 181.722 99.5663Z" fill="black" fill-opacity="0.5"/>
<path fill-rule="evenodd" clip-rule="evenodd" d="M190.225 99.5663C191.036 99.5663 191.694 98.9136 191.694 98.1084C191.694 97.3032 191.036 96.6504 190.225 96.6504C189.413 96.6504 188.755 97.3032 188.755 98.1084C188.755 98.9136 189.413 99.5663 190.225 99.5663Z" fill="black" fill-opacity="0.5"/>
<path fill-rule="evenodd" clip-rule="evenodd" d="M181.722 103.783C182.533 103.783 183.191 103.13 183.191 102.325C183.191 101.52 182.533 100.867 181.722 100.867C180.91 100.867 180.252 101.52 180.252 102.325C180.252 103.13 180.91 103.783 181.722 103.783Z" fill="black" fill-opacity="0.5"/>
<path fill-rule="evenodd" clip-rule="evenodd" d="M185.973 103.783C186.785 103.783 187.443 103.13 187.443 102.325C187.443 101.52 186.785 100.867 185.973 100.867C185.161 100.867 184.503 101.52 184.503 102.325C184.503 103.13 185.161 103.783 185.973 103.783Z" fill="black" fill-opacity="0.5"/>
<path fill-rule="evenodd" clip-rule="evenodd" d="M185.973 108C186.785 108 187.443 107.347 187.443 106.542C187.443 105.737 186.785 105.084 185.973 105.084C185.161 105.084 184.503 105.737 184.503 106.542C184.503 107.347 185.161 108 185.973 108Z" fill="black" fill-opacity="0.5"/>
<path fill-rule="evenodd" clip-rule="evenodd" d="M190.225 103.783C191.036 103.783 191.694 103.13 191.694 102.325C191.694 101.52 191.036 100.867 190.225 100.867C189.413 100.867 188.755 101.52 188.755 102.325C188.755 103.13 189.413 103.783 190.225 103.783Z" fill="black" fill-opacity="0.5"/>
</g>
</g>
<defs>
<clipPath id="clip0_10291_59931">
<rect width="98" height="24" fill="white" transform="translate(26 20)"/>
</clipPath>
<clipPath id="clip1_10291_59931">
<rect width="98" height="24" fill="white" transform="translate(176 84)"/>
</clipPath>
</defs>
</svg>
