<svg viewBox="0 0 16 16" fill="currentcolor" xmlns="http://www.w3.org/2000/svg">
  <path d="M11.75 10C12.1642 10 12.5 10.3358 12.5 10.75V12H13.75C14.1642 12 14.5 12.3358 14.5 12.75C14.5 13.1642 14.1642 13.5 13.75 13.5H12.5V14.75C12.5 15.1642 12.1642 15.5 11.75 15.5C11.3358 15.5 11 15.1642 11 14.75V13.5H9.75C9.33579 13.5 9 13.1642 9 12.75C9 12.3358 9.33579 12 9.75 12H11V10.75C11 10.3358 11.3358 10 11.75 10ZM8.29004 4.06836H12.7998C13.2991 4.06836 13.7888 4.25177 14.1582 4.59375C14.5293 4.93751 14.75 5.41679 14.75 5.92969V9H13.25V5.92969C13.25 5.85336 13.2175 5.7673 13.1387 5.69434C13.0579 5.61957 12.937 5.56836 12.7998 5.56836H7.70996L5.70996 3.75H3.2002C3.06305 3.75 2.94207 3.80123 2.86133 3.87598C2.78252 3.94894 2.75 4.035 2.75 4.11133V11.8887C2.75 11.965 2.78252 12.0511 2.86133 12.124C2.94207 12.1988 3.06306 12.25 3.2002 12.25H7V13.75H3.2002C2.70086 13.75 2.21114 13.5666 1.8418 13.2246C1.47063 12.8808 1.25 12.4016 1.25 11.8887V4.11133C1.25 3.59838 1.47063 3.11916 1.8418 2.77539C2.21114 2.4334 2.70086 2.25 3.2002 2.25H6.29004L8.29004 4.06836Z"/>
</svg>
