<svg viewBox="0 0 16 16" fill="currentcolor" xmlns="http://www.w3.org/2000/svg">
    <path d="M12.854 2.009A1.826 1.826 0 0 1 14.5 3.825v7.01a1.829 1.829 0 0 1-1.826 1.828H4.979a.51.51 0 0 0-.362.15L3.33 14.098a1.073 1.073 0 0 1-1.65-.162 1.072 1.072 0 0 1-.167-.438l-.013-.158V3.825A1.826 1.826 0 0 1 3.326 2h9.348l.18.009zM3.326 3.314a.512.512 0 0 0-.51.511v8.93l.872-.872.133-.121a1.826 1.826 0 0 1 1.158-.413h7.695a.513.513 0 0 0 .51-.513v-7.01a.512.512 0 0 0-.41-.5l-.1-.012H3.326zM8 4.921c.363 0 .657.294.657.657v1.096h1.096a.658.658 0 0 1 0 1.314H8.657v1.096a.657.657 0 1 1-1.314 0V7.988H6.247a.657.657 0 0 1 0-1.314h1.096V5.578c0-.363.294-.657.657-.657z" />
</svg>
