<svg viewBox="0 0 16 16" fill="currentColor" xmlns="http://www.w3.org/2000/svg">
  <path fill-rule="evenodd" clip-rule="evenodd" d="M3.2 3.75a.501.501 0 0 0-.339.126.322.322 0 0 0-.111.235v7.778c0 .076.032.162.111.235a.5.5 0 0 0 .339.126H7v1.5H3.2a2 2 0 0 1-1.358-.525 1.821 1.821 0 0 1-.592-1.336V4.11c0-.513.22-.992.592-1.336A2 2 0 0 1 3.2 2.25h3.09l2 1.818h4.51a2 2 0 0 1 1.358.525c.371.344.592.823.592 1.336V9h-1.5V5.93a.322.322 0 0 0-.111-.236.501.501 0 0 0-.339-.126H7.71l-2-1.818H3.2zm5.8 9a.75.75 0 0 1 .75-.75H11v-1.25a.75.75 0 0 1 1.5 0V12h1.25a.75.75 0 0 1 0 1.5H12.5v1.25a.75.75 0 0 1-1.5 0V13.5H9.75a.75.75 0 0 1-.75-.75z" />
</svg>
