<svg viewBox="0 0 16 16" fill="currentColor" xmlns="http://www.w3.org/2000/svg">
  <path d="M 2.6660156 1.3339844 C 2.1358299 1.3339844 1.6268385 1.5450365 1.2519531 1.9199219 C 0.87706279 2.2948122 0.66601562 2.8038037 0.66601562 3.3339844 L 0.66601562 14.191406 C 0.66603972 14.416821 0.73408042 14.636795 0.859375 14.824219 C 0.9845443 15.011455 1.162581 15.157833 1.3710938 15.244141 C 1.5791597 15.330271 1.807957 15.352715 2.0292969 15.308594 C 2.2507775 15.264684 2.4539267 15.155472 2.6132812 14.996094 L 4.0800781 13.529297 C 4.2053036 13.404066 4.3758709 13.333984 4.5527344 13.333984 L 13.333984 13.333984 C 13.86418 13.333984 14.373169 13.122925 14.748047 12.748047 C 15.122874 12.373219 15.333984 11.86423 15.333984 11.333984 L 15.333984 3.3339844 C 15.333984 2.8037785 15.122845 2.2947945 14.748047 1.9199219 C 14.373163 1.5451278 13.864155 1.3339844 13.333984 1.3339844 L 2.6660156 1.3339844 z M 2.6660156 2.6660156 L 13.333984 2.6660156 C 13.511014 2.6660156 13.679372 2.7360426 13.804688 2.8613281 C 13.92989 2.9865555 14 3.1569502 14 3.3339844 L 14 11.333984 C 14 11.511138 13.929859 11.679514 13.804688 11.804688 C 13.679365 11.93001 13.510989 12 13.333984 12 L 4.5527344 12 C 4.0224178 12 3.5134264 12.211168 3.1386719 12.585938 L 2 13.724609 L 2 3.3339844 C 2 3.1569251 2.0701029 2.9865378 2.1953125 2.8613281 C 2.3205072 2.7361335 2.4889414 2.6660156 2.6660156 2.6660156 z M 8 4.6660156 A 0.66666502 0.66666502 0 0 0 7.3339844 5.3339844 L 7.3339844 6.6660156 L 6 6.6660156 A 0.66666502 0.66666502 0 0 0 5.3339844 7.3339844 A 0.66666502 0.66666502 0 0 0 6 8 L 7.3339844 8 L 7.3339844 9.3339844 A 0.66666502 0.66666502 0 0 0 8 10 A 0.66666502 0.66666502 0 0 0 8.6660156 9.3339844 L 8.6660156 8 L 10 8 A 0.66666502 0.66666502 0 0 0 10.666016 7.3339844 A 0.66666502 0.66666502 0 0 0 10 6.6660156 L 8.6660156 6.6660156 L 8.6660156 5.3339844 A 0.66666502 0.66666502 0 0 0 8 4.6660156 z " />
</svg>
