<svg viewBox="0 0 16 16" xmlns="http://www.w3.org/2000/svg" fill="currentcolor">
<path fill-rule="evenodd" clip-rule="evenodd" d="M4.14429 1.48803C4.102 1.34459 3.89883 1.34459 3.85654 1.48803L3.34045 3.23858C3.32605 3.28743 3.28784 3.32564 3.23899 3.34004L1.48844 3.85612C1.345 3.89841 1.345 4.10159 1.48844 4.14388L3.23899 4.65997C3.28784 4.67437 3.32605 4.71257 3.34045 4.76143L3.85654 6.51197C3.89883 6.65542 4.102 6.65542 4.14429 6.51197L4.66038 4.76143C4.67478 4.71257 4.71299 4.67437 4.76184 4.65997L6.51239 4.14388C6.65583 4.10159 6.65583 3.89841 6.51239 3.85612L4.76184 3.34004C4.71299 3.32564 4.67478 3.28743 4.66038 3.23858L4.14429 1.48803ZM9.24174 3.89658C9.17532 3.64991 8.82535 3.64991 8.75893 3.89658L7.76496 7.58822C7.7418 7.67426 7.67459 7.74146 7.58856 7.76463L3.89692 8.7586C3.65025 8.82501 3.65025 9.17499 3.89692 9.2414L7.58856 10.2354C7.67459 10.2585 7.7418 10.3257 7.76496 10.4118L8.75893 14.1034C8.82535 14.3501 9.17532 14.3501 9.24174 14.1034L10.2357 10.4118C10.2589 10.3257 10.3261 10.2585 10.4121 10.2354L14.1038 9.2414C14.3504 9.17499 14.3504 8.82501 14.1038 8.7586L10.4121 7.76463C10.3261 7.74146 10.2589 7.67426 10.2357 7.58822L9.24174 3.89658Z" />
</svg>
