<svg viewBox="0 0 32 32" fill="currentcolor" fill-rule="nonzero" xmlns="http://www.w3.org/2000/svg" xmlns:xlink="http://www.w3.org/1999/xlink">
  <path d="M24.326 7.184a9.604 9.604 0 0 0-.021-.034c-.876-1.39-2.056-2.47-3.518-3.19-.509-2.269-2.51-3.96-4.9-3.96-2.361 0-4.344 1.652-4.881 3.88C7.113 5.63 5.68 9.55 5.68 14.424c0 .88-.003 1.473-.01 1.902H2.8v9.605h26.175v-9.602h-3.297v6.257H6.097V19.67c1.152 0 1.92-.194 2.304-.583.576-.583.576-1.75.576-4.664 0-2.716.5-7.456 5.69-8.091a1.754 1.754 0 0 1-.507-1.238c0-.966.773-1.749 1.727-1.749.955 0 1.728.783 1.728 1.75 0 .483-.194.92-.507 1.237 2.2.27 3.768 1.308 4.705 3.112.037-.04.874-.793 2.513-2.26zm-11.312 18.7H9.741C10.214 29.398 12.48 32 15.887 32c3.409 0 5.674-2.602 6.147-6.116H18.76c-.27 1.911-1.228 2.77-2.874 2.77-1.645 0-2.603-.859-2.873-2.77zm.297-12.466l2.504-2.707 3.819 4.106 7.653-8.254L29.8 9.38 19.636 20.295l-6.325-6.877z" />
</svg>