<svg viewBox="0 0 16 16" fill="currentcolor" xmlns="http://www.w3.org/2000/svg" xmlns:xlink="http://www.w3.org/1999/xlink">
  <path fill-rule="evenodd" clip-rule="evenodd" transform="translate(0 1.4545) scale(0.363636)" d="M38 0C41.3137 0 44 2.68629 44 6V30C44 33.3137 41.3137 36 38 36H6C2.68629 36 0 33.3137 0 30V6C0 2.68629 2.68629 0 6 0H38ZM4 30C4 31.1046 4.89543 32 6 32H38C39.1046 32 40 31.1046 40 30V12H4V30ZM12 8H16V4H12V8ZM20 8H40V6C40 4.89543 39.1046 4 38 4H20V8ZM6 4C4.89543 4 4 4.89543 4 6V8H8V4H6Z" />
</svg>
