<svg viewBox="0 0 16 16" fill="currentcolor" xmlns="http://www.w3.org/2000/svg" xmlns:xlink="http://www.w3.org/1999/xlink">
  <path d="M13.75 3a.75.75 0 0 0-1.2-.6L8.723 5.27a.25.25 0 0 1-.096.045l-4.29.953a.75.75 0 0 0-.565.55l-1.5 6A.75.75 0 0 0 3 13.75h10a.75.75 0 0 0 .75-.75V3zM9.623 6.47L12.25 4.5v1.19l-2.075 2.074a.25.25 0 0 1-.122.067l-4.216.937a.75.75 0 0 0-.488.36l-1.08 1.89.846-3.386 3.837-.853a1.75 1.75 0 0 0 .67-.308zm-4.33 5.78h6.957V7.81l-1.014 1.014a1.75 1.75 0 0 1-.858.471l-3.892.865-1.194 2.09z" />
</svg>
