<svg viewBox="0 0 16 16" fill="currentColor" xmlns="http://www.w3.org/2000/svg">
  <path d="M7.47 2.53C7.33752 2.38782 7.2654 2.19978 7.26882 2.00548C7.27225 1.81118 7.35097 1.62579 7.48838 1.48838C7.62579 1.35096 7.81118 1.27225 8.00548 1.26882C8.19978 1.2654 8.38783 1.33752 8.53 1.47L14.53 7.47C14.6704 7.6099 14.7495 7.7998 14.75 7.998V8.002C14.7495 8.20019 14.6704 8.3901 14.53 8.53L8.53 14.53C8.38783 14.6625 8.19978 14.7346 8.00548 14.7312C7.81118 14.7277 7.62579 14.649 7.48838 14.5116C7.35097 14.3742 7.27225 14.1888 7.26882 13.9945C7.2654 13.8002 7.33752 13.6122 7.47 13.47L12.19 8.75H2C1.80109 8.75 1.61032 8.67098 1.46967 8.53033C1.32902 8.38968 1.25 8.19891 1.25 8C1.25 7.80109 1.32902 7.61032 1.46967 7.46967C1.61032 7.32902 1.80109 7.25 2 7.25H12.19L7.47 2.53Z" />
</svg>
