<svg viewBox="0 0 16 16" fill="currentcolor" xmlns="http://www.w3.org/2000/svg"><path fill-rule="evenodd" clip-rule="evenodd" d="M3 1.25A1.75 1.75 0 0 0 1.25 3v10c0 .966.784 1.75 1.75 1.75h5a.75.75 0 0 0 0-1.5H3a.25.25 0 0 1-.25-.25V3A.25.25 0 0 1 3 2.75h8a.25.25 0 0 1 .25.25v2a.75.75 0 0 0 1.5 0V3A1.75 1.75 0 0 0 11 1.25H3zM4 4.5a.5.5 0 0 0 0 1h6a.5.5 0 0 0 0-1H4zM3.5 7a.5.5 0 0 1 .5-.5h3a.5.5 0 0 1 0 1H4a.5.5 0 0 1-.5-.5zM4 8.5a.5.5 0 0 0 0 1h2a.5.5 0 0 0 0-1H4zm7 3a1.5 1.5 0 1 0 0-3 1.5 1.5 0 0 0 0 3zm2.585.024a3 3 0 1 0-1.06 1.06l.945.946a.75.75 0 1 0 1.06-1.06l-.945-.946z"/></svg>
