<svg viewBox="0 0 16 16" fill="currentcolor" xmlns="http://www.w3.org/2000/svg">
  <path d="M7.25 13.5C7.25 13.9142 7.58579 14.25 8 14.25C8.41421 14.25 8.75 13.9142 8.75 13.5H10.25C10.25 14.7426 9.24264 15.75 8 15.75C6.75736 15.75 5.75 14.7426 5.75 13.5H7.25ZM7.75 1.25C10.2239 1.25 12.3243 3.06337 12.6855 5.51074L13.1328 8.54688L13.1475 8.55273C13.8129 8.81793 14.2499 9.46144 14.25 10.1777V12C14.25 12.4142 13.9142 12.75 13.5 12.75H2C1.58579 12.75 1.25 12.4142 1.25 12V10.1777C1.25009 9.46144 1.68713 8.81793 2.35254 8.55273L2.36621 8.54688L2.81445 5.51074C3.17567 3.06337 5.27611 1.25 7.75 1.25ZM7.75 2.75C6.01995 2.75 4.55144 4.01798 4.29883 5.72949L3.78711 9.19238C3.74807 9.45687 3.5716 9.68128 3.32324 9.78027L2.90723 9.94531C2.81225 9.98319 2.75009 10.0755 2.75 10.1777V11.25H12.75V10.1777C12.7499 10.0755 12.6877 9.98319 12.5928 9.94531L12.1768 9.78027C11.9284 9.68128 11.7519 9.45687 11.7129 9.19238L11.2012 5.72949C10.9486 4.01798 9.48005 2.75 7.75 2.75Z"/>
</svg>
