<svg viewBox="0 0 12 12" fill="currentcolor" xmlns="http://www.w3.org/2000/svg">
    <path d="M7.5 10C7.5 10.8284 6.82843 11.5 6 11.5C5.17157 11.5 4.5 10.8284 4.5 10H7.5ZM6 0.424805C7.54855 0.424805 8.91136 1.44651 9.34668 2.93262L9.99121 5.13281L10.3516 5.36426C10.8022 5.654 11.0751 6.15271 11.0752 6.68848V8.5C11.0752 8.81756 10.8176 9.0752 10.5 9.0752H1.5C1.18244 9.0752 0.924805 8.81756 0.924805 8.5V6.68848C0.924917 6.15271 1.19776 5.654 1.64844 5.36426L2.00781 5.13281L2.65332 2.93262C3.08864 1.44651 4.45145 0.424805 6 0.424805ZM6 1.5752C4.96207 1.5752 4.04862 2.25978 3.75684 3.25586L3.05176 5.66211C3.01278 5.79476 2.92685 5.90863 2.81055 5.9834L2.27051 6.33105C2.14896 6.40919 2.07531 6.54399 2.0752 6.68848V7.9248H9.9248V6.68848C9.92469 6.54399 9.85104 6.40919 9.72949 6.33105L9.18945 5.9834C9.07315 5.90863 8.98722 5.79476 8.94824 5.66211L8.24316 3.25586C7.95138 2.25978 7.03793 1.5752 6 1.5752Z" />
</svg>
