<svg width="16" height="16" viewBox="0 0 16 16" fill="none" xmlns="http://www.w3.org/2000/svg">
<path d="M5.06675 13.014C4.29475 13.014 3.84375 12.563 3.84375 11.776V4.36005C3.84375 3.57405 4.29375 3.12305 5.06675 3.12305H8.56675C10.5158 3.12305 11.6978 4.06605 11.6978 5.61105C11.6978 6.71105 10.9047 7.58105 9.74975 7.73105V7.79205C11.1508 7.86005 12.1497 8.83805 12.1497 10.178C12.1497 11.894 10.8028 13.015 8.68375 13.015H5.06675V13.014ZM6.30475 7.20405H7.64475C8.66975 7.20405 9.27775 6.74505 9.27775 5.97905C9.27775 5.24105 8.72475 4.81105 7.79475 4.81105H6.30475V7.20305V7.20405ZM6.30475 11.346H7.90475C9.05275 11.346 9.64675 10.874 9.64675 9.99905C9.64675 9.14505 9.00475 8.67905 7.84275 8.67905H6.30475V11.346Z" fill="black"/>
</svg>
