<svg xmlns="http://www.w3.org/2000/svg" width="16" height="16" fill="currentcolor" viewBox="0 0 16 16"><path d="M10.394 11.418a.77.77 0 0 1 .77.769v1.794a.77.77 0 0 1-1.539 0v-1.794c0-.425.344-.769.769-.769M3.37 7.307a.77.77 0 0 1 1.09 1.088L3.444 9.406a2.227 2.227 0 0 0 .054 3.143l.162.14a2.226 2.226 0 0 0 2.927-.14L7.6 11.535a.77.77 0 0 1 1.088 1.088l-1.033 1.032a3.766 3.766 0 0 1-5.225 0h-.001a3.76 3.76 0 0 1-.09-5.316l.009-.01zm10.612 2.317a.768.768 0 1 1 0 1.537h-1.795a.768.768 0 1 1 0-1.537zM10.96 1.29a3.76 3.76 0 0 1 2.612 1.055h.001a3.76 3.76 0 0 1 .18 5.217 1 1 0 0 1-.089.11l-1.028 1.023a.769.769 0 0 1-1.084-1.09l.949-.947a1 1 0 0 1 .056-.065 2.225 2.225 0 0 0-.052-3.14l-.162-.143a2.23 2.23 0 0 0-2.928.142l-1.02 1.014a.77.77 0 0 1-1.084-1.09l1.028-1.023.008-.008.134-.123a3.76 3.76 0 0 1 2.479-.932M3.813 4.839a.77.77 0 1 1 0 1.538H2.018a.77.77 0 0 1 0-1.538h1.793zM5.607 1.25c.425 0 .769.344.769.769v1.794a.769.769 0 0 1-1.538 0V2.02a.77.77 0 0 1 .77-.769z"/></svg>
