<svg viewBox="0 0 16 16" fill="currentcolor" xmlns="http://www.w3.org/2000/svg">
<path fill-rule="evenodd" clip-rule="evenodd" d="M14 1.25C14.4142 1.25 14.75 1.58579 14.75 2V3C14.75 4.26339 13.898 5.32779 12.7373 5.65004C12.7457 5.7656 12.75 5.8823 12.75 6V7.25L14 7.25C14.4142 7.25 14.75 7.58579 14.75 8C14.75 8.41421 14.4142 8.75 14 8.75L12.75 8.75V10C12.75 10.1177 12.7457 10.2344 12.7373 10.35C13.898 10.6722 14.75 11.7366 14.75 13V14C14.75 14.4142 14.4142 14.75 14 14.75C13.5858 14.75 13.25 14.4142 13.25 14V13C13.25 12.4465 12.8903 11.9771 12.3919 11.8127C11.6795 13.5368 9.98143 14.75 8 14.75C6.01857 14.75 4.3205 13.5368 3.60813 11.8127C3.10972 11.9771 2.75 12.4465 2.75 13V14C2.75 14.4142 2.41421 14.75 2 14.75C1.58579 14.75 1.25 14.4142 1.25 14V13C1.25 11.7366 2.10195 10.6722 3.2627 10.35C3.25428 10.2344 3.25 10.1177 3.25 10V8.75L2 8.75C1.58579 8.75 1.25 8.41421 1.25 8C1.25 7.58579 1.58579 7.25 2 7.25L3.25 7.25V6C3.25 5.8823 3.25428 5.7656 3.2627 5.65004C2.10195 5.32779 1.25 4.26339 1.25 3V2C1.25 1.58579 1.58579 1.25 2 1.25C2.41421 1.25 2.75 1.58579 2.75 2V3C2.75 3.55348 3.10972 4.02294 3.60812 4.18734C4.3205 2.46322 6.01857 1.25 8 1.25C9.98143 1.25 11.6795 2.46323 12.3919 4.18734C12.8903 4.02294 13.25 3.55348 13.25 3V2C13.25 1.58579 13.5858 1.25 14 1.25ZM11.25 6V8V10C11.25 11.5435 10.174 12.8357 8.73124 13.1674C8.74352 13.1136 8.75 13.0575 8.75 13V9C8.75 8.58579 8.41421 8.25 8 8.25C7.58579 8.25 7.25 8.58579 7.25 9V13C7.25 13.0575 7.25648 13.1136 7.26876 13.1674C5.82596 12.8357 4.75 11.5435 4.75 10V8V6C4.75 4.20507 6.20507 2.75 8 2.75C9.79493 2.75 11.25 4.20507 11.25 6Z" fill="currentColor"/>
</svg>
