<svg viewBox="0 0 16 16" fill="currentcolor" xmlns="http://www.w3.org/2000/svg">
  <path d="M9.5 1.25C11.0188 1.25 12.25 2.48122 12.25 4C12.25 4.19491 12.229 4.38492 12.1904 4.56836L14.6289 6.62695C15.0228 6.95946 15.25 7.44941 15.25 7.96484V12C15.25 13.5188 14.0188 14.75 12.5 14.75H3.5C1.98122 14.75 0.75 13.5188 0.75 12V8.07227C0.750154 7.45166 1.07902 6.8776 1.61426 6.56348L6.79297 3.52344C7.01876 2.23195 8.14386 1.25 9.5 1.25ZM2.25 12C2.25 12.6904 2.80964 13.25 3.5 13.25H12.5C13.1904 13.25 13.75 12.6904 13.75 12V9.25H2.25V12ZM2.55566 7.75H13.6338L11.4658 5.91992C10.9665 6.43113 10.2711 6.75 9.5 6.75C8.38888 6.75 7.4338 6.09005 7 5.1416L2.55566 7.75ZM9.5 2.75C8.80964 2.75 8.25 3.30964 8.25 4C8.25 4.69036 8.80964 5.25 9.5 5.25C10.1904 5.25 10.75 4.69036 10.75 4C10.75 3.30964 10.1904 2.75 9.5 2.75Z"/>
</svg>
