<svg width="64" height="64" viewBox="0 0 64 64" fill="none" xmlns="http://www.w3.org/2000/svg">
<path d="M42.35 9.17969H53.98L53.95 9.18969C58.38 9.18969 61.99 12.9197 61.99 17.2297C61.99 21.5397 58.56 25.0797 54.28 25.2497L50.9 27.6297C50.6257 27.8219 50.3039 27.9351 49.9697 27.957C49.6355 27.9789 49.3017 27.9087 49.0047 27.7539C48.7076 27.5992 48.4587 27.366 48.2851 27.0796C48.1115 26.7932 48.0198 26.4646 48.02 26.1297V25.2497H46.53V38.4697C47.77 38.8997 48.68 40.0397 48.68 41.4197V47.5297C48.68 48.9097 47.77 50.0597 46.53 50.4797V51.6997C46.53 53.2697 45.26 54.5397 43.69 54.5397H41C38.62 57.2497 35.18 58.9997 31.3 58.9997H23.38C17.87 58.9997 13.19 55.5297 11.32 50.6797H9.15C8.31457 50.6797 7.51335 50.3478 6.92261 49.7571C6.33187 49.1663 6 48.3651 6 47.5297V41.4197C6 40.0397 6.91 38.8897 8.15 38.4697V23.1197C8.15 21.6897 9.32 20.5197 10.75 20.5197C12.18 20.5197 13.35 21.6897 13.35 23.1197V34.1497C14.9 32.2997 16.97 30.9097 19.35 30.1897V28.4997C19.35 26.8497 20.69 25.5097 22.34 25.5097H32.36C34.01 25.5097 35.35 26.8497 35.35 28.4997V30.1497C37.6958 30.8458 39.7833 32.2201 41.35 34.0997V25.1497C37.39 24.6497 34.31 21.3097 34.31 17.2197C34.31 12.7897 37.92 9.17969 42.35 9.17969Z" fill="#F1F6FF"/>
<path d="M24.4262 45.5604C24.6862 45.5604 24.9462 45.4604 25.1362 45.2604C25.2289 45.1679 25.3025 45.058 25.3527 44.937C25.4029 44.816 25.4287 44.6864 25.4287 44.5554C25.4287 44.4244 25.4029 44.2947 25.3527 44.1738C25.3025 44.0528 25.2289 43.9429 25.1362 43.8504C24.3562 43.0804 23.3162 42.6504 22.2162 42.6504C21.1162 42.6504 20.0762 43.0804 19.2962 43.8504C19.2025 43.9423 19.1279 44.052 19.0771 44.173C19.0262 44.2941 19 44.4241 19 44.5554C19 44.6867 19.0262 44.8167 19.0771 44.9377C19.1279 45.0588 19.2025 45.1685 19.2962 45.2604C19.6862 45.6504 20.3162 45.6604 20.7062 45.2604C21.5162 44.4604 22.9162 44.4604 23.7262 45.2604C23.9162 45.4504 24.1762 45.5504 24.4262 45.5504V45.5604ZM30.2762 45.2704C31.0862 44.4704 32.4862 44.4704 33.2962 45.2704C33.3891 45.3629 33.4995 45.4361 33.6208 45.4857C33.7422 45.5354 33.8722 45.5604 34.0033 45.5595C34.1344 45.5586 34.2641 45.5317 34.3847 45.4803C34.5054 45.429 34.6147 45.3542 34.7062 45.2604C34.7989 45.1679 34.8725 45.058 34.9227 44.937C34.9729 44.816 34.9987 44.6864 34.9987 44.5554C34.9987 44.4244 34.9729 44.2947 34.9227 44.1738C34.8725 44.0528 34.7989 43.9429 34.7062 43.8504C33.9262 43.0804 32.8862 42.6504 31.7862 42.6504C30.6862 42.6504 29.6462 43.0804 28.8662 43.8504C28.7725 43.9423 28.6979 44.052 28.6471 44.173C28.5962 44.2941 28.57 44.4241 28.57 44.5554C28.57 44.6867 28.5962 44.8167 28.6471 44.9377C28.6979 45.0588 28.7725 45.1685 28.8662 45.2604C29.2562 45.6504 29.8862 45.6604 30.2762 45.2604V45.2704Z" fill="#B4C7EA"/>
<path d="M40.82 14C39.27 14 38 15.27 38 16.82C38 18.37 39.26 19.63 40.82 19.63C42.38 19.63 43.64 18.37 43.64 16.82C43.64 15.27 42.38 14 40.82 14ZM40.82 17.63C40.38 17.63 40 17.26 40 16.82C40 16.38 40.37 16 40.82 16C41.27 16 41.64 16.38 41.64 16.82C41.64 17.26 41.27 17.63 40.82 17.63ZM47.8 14C46.25 14 44.98 15.27 44.98 16.82C44.98 18.37 46.24 19.63 47.8 19.63C49.36 19.63 50.62 18.37 50.62 16.82C50.62 15.27 49.36 14 47.8 14ZM47.8 17.63C47.36 17.63 46.98 17.26 46.98 16.82C46.98 16.38 47.35 16 47.8 16C48.25 16 48.62 16.38 48.62 16.82C48.62 17.26 48.25 17.63 47.8 17.63ZM54.77 14C53.22 14 51.95 15.27 51.95 16.82C51.95 18.37 53.21 19.63 54.77 19.63C56.33 19.63 57.59 18.37 57.59 16.82C57.59 15.27 56.33 14 54.77 14ZM54.77 17.63C54.33 17.63 53.95 17.26 53.95 16.82C53.95 16.38 54.32 16 54.77 16C55.22 16 55.59 16.38 55.59 16.82C55.59 17.26 55.22 17.63 54.77 17.63Z" fill="#B4C7EA"/>
<path d="M53.98 9.17969H42.35C37.92 9.17969 34.31 12.7897 34.31 17.2197C34.31 21.3097 37.39 24.6497 41.35 25.1497V34.0997C39.7833 32.2201 37.6958 30.8458 35.35 30.1497V28.4997C35.35 26.8497 34.01 25.5097 32.36 25.5097H22.34C20.69 25.5097 19.35 26.8497 19.35 28.4997V30.1897C16.97 30.9097 14.9 32.2997 13.35 34.1497V23.1197C13.35 21.6897 12.18 20.5197 10.75 20.5197C9.32 20.5197 8.15 21.6897 8.15 23.1197V38.4697C6.91 38.8897 6 40.0397 6 41.4197V47.5297C6 48.3651 6.33187 49.1663 6.92261 49.7571C7.51335 50.3478 8.31457 50.6797 9.15 50.6797H11.32C13.19 55.5297 17.87 58.9997 23.38 58.9997H31.3C35.18 58.9997 38.62 57.2497 41 54.5397H43.69C45.26 54.5397 46.53 53.2697 46.53 51.6997V50.4797C47.77 50.0597 48.68 48.9097 48.68 47.5297V41.4197C48.68 40.0397 47.77 38.8997 46.53 38.4697V25.2497H48.02V26.1297C48.0198 26.4646 48.1115 26.7932 48.2851 27.0796C48.4587 27.366 48.7076 27.5992 49.0047 27.7539C49.3017 27.9087 49.6355 27.9789 49.9697 27.957C50.3039 27.9351 50.6257 27.8219 50.9 27.6297L54.28 25.2497C58.56 25.0797 61.99 21.5397 61.99 17.2297C61.99 12.9197 58.38 9.18969 53.95 9.18969L53.98 9.17969ZM21.36 28.4997C21.36 27.9397 21.79 27.5097 22.35 27.5097H32.37C32.92 27.5097 33.36 27.9497 33.36 28.4997V29.7397C32.87 29.6797 32.38 29.5897 31.88 29.5897H23.03C22.46 29.5897 21.92 29.6797 21.37 29.7597V28.4997H21.36ZM23.02 31.5897H27.445H31.87C37.6 31.5897 42.27 36.2597 42.27 41.9897V46.0497C42.27 46.2797 42.22 46.4997 42.2 46.7397C41.87 46.6097 41.6 46.3397 41.6 45.9697C41.6 39.7997 36.58 34.7797 30.41 34.7797H24.3C18.13 34.7797 13.11 39.7997 13.11 45.9697C13.11 46.3397 12.84 46.5997 12.51 46.7397C12.5 46.5097 12.44 46.2897 12.44 46.0497V41.9897C12.44 36.2597 17.18 31.5897 23.01 31.5897H23.02ZM10.77 22.5197C11.1 22.5197 11.37 22.7797 11.37 23.1197V37.3997C11.26 37.6797 11.19 37.9797 11.1 38.2697H10.18V23.1197C10.18 22.7797 10.44 22.5197 10.78 22.5197H10.77ZM9.17 48.6797C8.54 48.6797 8.02 48.1597 8.02 47.5297V41.4197C8.02 40.7897 8.53 40.2697 9.17 40.2697H10.62C10.54 40.8397 10.44 41.3997 10.44 41.9897V46.0497C10.44 46.3197 10.63 48.2997 10.71 48.6797H9.16H9.17ZM31.32 56.9997H23.4C18.29 56.9997 14.03 53.4697 12.82 48.7397C14.12 48.4597 15.11 47.3497 15.11 45.9697C15.11 40.8997 19.23 36.7797 24.3 36.7797H30.41C35.48 36.7797 39.6 40.8997 39.6 45.9697C39.6 47.3497 40.59 48.4497 41.89 48.7397C41.53 50.1397 40.92 51.4197 40.08 52.5397H31.56C31.3664 52.0926 31.0467 51.7117 30.6399 51.4436C30.2332 51.1754 29.7572 51.0315 29.27 51.0297H25.44C24.06 51.0297 22.93 52.1597 22.93 53.5397C22.93 54.9197 24.05 56.0497 25.44 56.0497H29.27C30.3 56.0497 31.18 55.4297 31.56 54.5397H38.14C36.26 56.0497 33.91 56.9997 31.31 56.9997H31.32ZM29.78 53.5397C29.7814 53.607 29.7691 53.674 29.744 53.7365C29.7188 53.7989 29.6813 53.8557 29.6337 53.9033C29.586 53.951 29.5293 53.9885 29.4668 54.0136C29.4043 54.0388 29.3373 54.051 29.27 54.0497H25.44C25.15 54.0497 24.93 53.8297 24.93 53.5397C24.93 53.2497 25.16 53.0297 25.44 53.0297H29.27C29.55 53.0297 29.78 53.2597 29.78 53.5397ZM43.71 52.5397H42.46C42.81 51.9397 43.13 51.3297 43.38 50.6797H44.55V51.6997C44.55 52.1597 44.17 52.5397 43.71 52.5397ZM46.7 47.5297C46.7 48.1597 46.19 48.6797 45.55 48.6797H44C44.08 48.2797 44.27 46.3397 44.27 46.0497V41.9897C44.27 41.3997 44.18 40.8397 44.1 40.2697H45.55C46.18 40.2697 46.7 40.7897 46.7 41.4197V47.5297ZM44.55 38.2697H43.64C43.54 37.9697 43.48 37.6497 43.36 37.3597V25.2497H44.55V38.2697ZM53.99 23.2497C53.78 23.2497 53.58 23.3097 53.41 23.4297L50.04 25.7997V24.2397C50.04 23.6897 49.59 23.2397 49.04 23.2397H42.35C39.02 23.2397 36.31 20.5297 36.31 17.2097C36.31 13.8897 39.02 11.1697 42.35 11.1697H53.98C57.31 11.1697 60.02 13.8797 60.02 17.2097C60.02 20.5397 57.31 23.2397 53.98 23.2397L53.99 23.2497Z" fill="#B4C7EA"/>
</svg>
