<svg viewBox="0 0 16 16" fill="currentcolor" xmlns="http://www.w3.org/2000/svg" xmlns:xlink="http://www.w3.org/1999/xlink">
  <path d="M5.24191 5.79524C5.07339 5.96377 5.07339 6.23623 5.24191 6.40476C5.41044 6.57329 5.6829 6.57329 5.85143 6.40476L7.99999 4.25619L10.1486 6.40476C10.3171 6.57329 10.5896 6.57329 10.7581 6.40476C10.9266 6.23623 10.9266 5.96377 10.7581 5.79524L8.30476 3.34191C8.22337 3.26052 8.11377 3.21465 7.99999 3.21465C7.88621 3.21465 7.77661 3.26052 7.69524 3.34191L5.24191 5.79524ZM10.7581 10.2048C10.9266 10.0362 10.9266 9.76377 10.7581 9.59524C10.5896 9.42671 10.3171 9.42671 10.1486 9.59524L7.99999 11.7438L5.85143 9.59524C5.6829 9.42671 5.41044 9.42671 5.24191 9.59524C5.07339 9.76377 5.07339 10.0362 5.24191 10.2048L7.69524 12.6581C7.86377 12.8266 8.13623 12.8266 8.30476 12.6581L10.7581 10.2048Z" fill-rule="evenodd" clip-rule="evenodd" />
</svg>
