<svg viewBox="0 0 16 16" fill="currentColor" xmlns="http://www.w3.org/2000/svg">
  <path d="M9.872.95c.721 0 1.312.554 1.373 1.259h.514a2.008 2.008 0 0 1 2.009 2.009v8.808a2.01 2.01 0 0 1-2.01 2.008H4.21A2.01 2.01 0 0 1 2.2 13.026V4.218a2.01 2.01 0 0 1 2.009-2.01h.515A1.379 1.379 0 0 1 6.097.95h3.775zM4.21 3.709a.51.51 0 0 0-.509.509v8.808a.51.51 0 0 0 .509.508h7.55a.51.51 0 0 0 .509-.508V4.218a.511.511 0 0 0-.51-.51h-.513a1.378 1.378 0 0 1-1.373 1.259H6.097c-.721 0-1.312-.553-1.373-1.258h-.515zm1.348 6.05a.75.75 0 0 1 0 1.5H5.55a.75.75 0 0 1 0-1.5h.007zm4.944.125a.625.625 0 0 1 0 1.25H7.984a.625.625 0 1 1 0-1.25h2.517zm-4.944-3.27a.75.75 0 0 1 0 1.5H5.55a.75.75 0 0 1 0-1.5h.007zm4.944.124a.625.625 0 0 1 0 1.25H7.984a.625.625 0 0 1 0-1.25h2.517zM6.218 3.467H9.75v-.49L9.75 2.96l.001-.02V2.45H6.218v1.017z" />
</svg>
