<svg viewBox="0 0 12 12" fill="currentcolor" xmlns="http://www.w3.org/2000/svg">
    <path d="M9.4248 5.5C9.4248 3.88457 8.11543 2.5752 6.5 2.5752C5.01416 2.5752 3.787 3.6838 3.60059 5.11914L3.54688 5.53223L3.1377 5.60938C2.24754 5.77866 1.5752 6.56145 1.5752 7.5C1.5752 8.56315 2.43685 9.4248 3.5 9.4248H9C9.78701 9.4248 10.4248 8.78701 10.4248 8C10.4248 7.45185 10.115 6.97511 9.65723 6.73633L9.27051 6.53418L9.36035 6.10742C9.40217 5.90935 9.4248 5.70649 9.4248 5.5ZM10.5752 5.5C10.5752 5.6514 10.5652 5.80021 10.5488 5.94629C11.1703 6.41532 11.5752 7.15887 11.5752 8C11.5752 9.42213 10.4221 10.5752 9 10.5752H3.5C1.80172 10.5752 0.424805 9.19828 0.424805 7.5C0.424805 6.14066 1.30736 4.99158 2.5293 4.58496C2.94472 2.77506 4.56371 1.4248 6.5 1.4248C8.75056 1.4248 10.5752 3.24944 10.5752 5.5Z" />
</svg>
