<svg viewBox="0 0 16 16" fill="none" xmlns="http://www.w3.org/2000/svg">
<path fill-rule="evenodd" clip-rule="evenodd" d="M7.66457 1.32895C7.87572 1.22336 8.12428 1.22336 8.33543 1.32895L14.3354 4.32922C14.5895 4.45627 14.75 4.71597 14.75 5.00004C14.75 5.28412 14.5895 5.54381 14.3354 5.67085L8.33541 8.67085C8.12426 8.77642 7.87574 8.77642 7.66459 8.67085L1.66459 5.67085C1.41051 5.54381 1.25001 5.28412 1.25 5.00004C1.24999 4.71597 1.41049 4.45627 1.66457 4.32922L7.66457 1.32895ZM3.67699 5L8 7.1615L12.323 5L8 2.8383L3.67699 5Z" fill="currentColor" />
<path d="M1.32934 10.6647C1.51459 10.2942 1.96509 10.144 2.33557 10.3293L8.00016 13.1616L13.6648 10.3293C14.0352 10.144 14.4857 10.2942 14.671 10.6647C14.8562 11.0352 14.7061 11.4857 14.3356 11.6709L8.33557 14.6709C8.12443 14.7765 7.8759 14.7765 7.66475 14.6709L1.66475 11.6709C1.29427 11.4857 1.1441 11.0352 1.32934 10.6647Z" fill="currentColor" />
<path d="M2.33557 7.32922C1.96509 7.14398 1.51459 7.29415 1.32934 7.66463C1.1441 8.03511 1.29427 8.48562 1.66475 8.67086L7.66475 11.6709C7.8759 11.7765 8.12443 11.7765 8.33557 11.6709L14.3356 8.67086C14.7061 8.48562 14.8562 8.03511 14.671 7.66463C14.4857 7.29415 14.0352 7.14398 13.6648 7.32922L8.00016 10.1616L2.33557 7.32922Z" fill="currentColor" />
</svg>
