<svg viewBox="0 0 13 14" fill="currentColor" stroke="currentColor" xmlns="http://www.w3.org/2000/svg">
<path d="M12.4812 13.3455L12.4811 13.3458C12.4692 13.3747 12.4514 13.4021 12.4268 13.4267C12.4056 13.4479 12.3823 13.464 12.3581 13.4757C11.9069 13.1767 11.5609 12.8548 11.1891 12.5091C11.0555 12.3848 10.9185 12.2574 10.7721 12.1268L10.7554 12.1119L10.7373 12.0985L9.83585 11.4294C9.95615 11.3212 10.0553 11.1899 10.1264 11.0425L11.202 11.8408L12 12.433V11.4393V5.225C12.0808 5.24139 12.1644 5.25 12.25 5.25C12.3356 5.25 12.4192 5.24139 12.5 5.225V13.25C12.5 13.2849 12.4931 13.3168 12.4812 13.3455ZM9 10.75H8.92039L8.83546 10.687C8.75635 10.5888 8.76238 10.4447 8.85355 10.3536C8.94605 10.2611 9.09301 10.2562 9.19123 10.339C9.2279 10.3825 9.25 10.4387 9.25 10.5C9.25 10.6381 9.13806 10.75 9 10.75ZM7.812 10.25C7.77439 10.4142 7.77028 10.5845 7.79967 10.75H2.25C1.55964 10.75 1 10.1904 1 9.5L1 2.5C1 1.80964 1.55964 1.25 2.25 1.25L11.25 1.25C11.9404 1.25 12.5 1.80964 12.5 2.5V2.77501C12.4192 2.75861 12.3356 2.75 12.25 2.75C12.1644 2.75 12.0808 2.75861 12 2.77501V2.5C12 2.08579 11.6642 1.75 11.25 1.75L2.25 1.75C1.83572 1.75 1.5 2.08583 1.5 2.5L1.5 9.5C1.5 9.91424 1.83576 10.25 2.25 10.25H7.812ZM12.5 4C12.5 4.13807 12.3881 4.25 12.25 4.25C12.1119 4.25 12 4.13807 12 4C12 3.86193 12.1119 3.75 12.25 3.75C12.3881 3.75 12.5 3.86193 12.5 4Z" />
</svg>
