<svg viewBox="0 0 16 16" fill="currentcolor" xmlns="http://www.w3.org/2000/svg">
    <path d="M13.185 3.765a.486.486 0 0 0-.15-.35.517.517 0 0 0-.26-.134l-.1-.01h-9.35a.52.52 0 0 0-.36.145.486.486 0 0 0-.15.349v8.632l.872-.843.134-.117c.325-.258.734-.4 1.157-.4h7.696a.52.52 0 0 0 .362-.145.487.487 0 0 0 .15-.35V3.765zm1.315 6.777c0 .469-.193.918-.535 1.249-.342.33-.806.517-1.29.517H4.977a.52.52 0 0 0-.36.145L3.33 13.696a1.107 1.107 0 0 1-1.168.225 1.067 1.067 0 0 1-.481-.382 1.016 1.016 0 0 1-.169-.423l-.012-.153V3.765c0-.468.193-.917.535-1.248.342-.33.806-.517 1.29-.517h9.35l.18.008c.418.04.81.22 1.11.51.342.33.535.779.535 1.247v6.777z" />
</svg>
