<svg viewBox="0 0 16 16" fill="currentcolor" xmlns="http://www.w3.org/2000/svg">
  <path d="M8 1.25a6.751 6.751 0 1 1-.002 13.502A6.751 6.751 0 0 1 8 1.25zm0 1.365a5.385 5.385 0 1 0-.001 10.769A5.385 5.385 0 0 0 8 2.615zm2.355 2.165a.683.683 0 0 1 .865.864l-1.096 3.283a1.896 1.896 0 0 1-1.198 1.199l-3.283 1.095a.684.684 0 0 1-.865-.864l1.095-3.283a1.898 1.898 0 0 1 1.2-1.199l3.282-1.095zM7.504 7.17a.534.534 0 0 0-.313.28l-.023.056-.663 1.987 1.988-.662a.533.533 0 0 0 .336-.336l.662-1.988-1.987.663z" />
</svg>
