<svg viewBox="0 0 16 16" fill="currentcolor" xmlns="http://www.w3.org/2000/svg"><path d="M11.755 1a2 2 0 0 1 2 2.001v10.007c0 1.104-.896 2-2 2H4.25c-1.105 0-2-.895-2.001-2V3C2.25 1.896 3.146 1 4.251 1h7.504zM4.25 2.5a.501.501 0 0 0-.501.501v10.007c0 .276.225.5.501.5H5.6v-1.751a.5.5 0 0 1 .5-.5h3.8a.5.5 0 0 1 .5.5v1.752h1.355c.276 0 .5-.225.5-.501V3a.5.5 0 0 0-.5-.501H4.25zM6.6 13.509h2.8v-1.252H6.6v1.252zM5.508 8.588a.667.667 0 0 1 0 1.334H5.5a.668.668 0 0 1 0-1.334h.007zm2.5 0a.667.667 0 0 1 0 1.334h-.006a.668.668 0 0 1 0-1.334h.007zm2.503 0a.667.667 0 0 1 0 1.334h-.007a.667.667 0 0 1 0-1.334h.007zM5.508 6.086a.667.667 0 0 1 0 1.334H5.5a.668.668 0 0 1 0-1.334h.007zm2.5 0a.667.667 0 0 1 0 1.334h-.006a.668.668 0 0 1 0-1.334h.007zm2.503 0a.667.667 0 0 1 0 1.334h-.007a.667.667 0 0 1 0-1.334h.007zM5.508 3.584a.667.667 0 0 1 0 1.334H5.5a.668.668 0 0 1 0-1.334h.007zm2.5 0a.667.667 0 0 1 0 1.334h-.006a.668.668 0 0 1 0-1.334h.007zm2.503 0a.667.667 0 0 1 0 1.334h-.007a.667.667 0 0 1 0-1.334h.007z" /></svg>