<svg xmlns="http://www.w3.org/2000/svg" width="24" height="24" viewBox="0 0 24 24" fill="none">
  <path d="M14.293 3.29297C14.6834 2.9025 15.3155 2.90261 15.7061 3.29297L20.707 8.29199C20.7378 8.32278 20.7651 8.35608 20.791 8.38965C20.8048 8.40752 20.8185 8.42553 20.8311 8.44434C20.8762 8.51185 20.9115 8.58384 20.9385 8.6582C20.9774 8.76491 21 8.87984 21 9C21 9.11959 20.977 9.23357 20.9385 9.33984C20.9328 9.35553 20.9274 9.37128 20.9209 9.38672C20.9007 9.43473 20.8768 9.48057 20.8496 9.52441C20.8435 9.53423 20.8375 9.54406 20.8311 9.55371C20.7944 9.6086 20.7536 9.66054 20.707 9.70703L15.7061 14.707C15.3156 15.097 14.6834 15.0971 14.293 14.707C13.9025 14.3165 13.9026 13.6835 14.293 13.293L17.584 10H8C7.20444 10.0001 6.44146 10.3164 5.87891 10.8789C5.31635 11.4415 5.00006 12.2044 5 13V20C4.99987 20.5521 4.55209 20.9999 4 21C3.4478 21 3.00013 20.5522 3 20V13C3.00006 11.674 3.52624 10.4015 4.46387 9.46387C5.40149 8.52624 6.67401 8.00006 8 8H17.5859L14.293 4.70605C13.9026 4.31552 13.9025 3.68344 14.293 3.29297Z" fill="currentColor"/>
</svg>
