<?xml version="1.0" encoding="UTF-8"?>
<svg width="1200pt" height="1200pt" version="1.1" viewBox="0 0 1200 1200" xmlns="http://www.w3.org/2000/svg">
 <path d="m0 447.39 176.8-170.07-95.93-58.945h133.79l46.789 46.73 35.781-35.773 17.676 17.688v42.938l-16.008 15.996 6.3477 6.3125 163.72 21.477h712.8v354.87l18.238 18.359-42.324 42.301v-376.39h-39.082v608.75h-68.223l17.699-36.602v-87.133l-80.855-116.22-106.05 239.95h-68.219l58.125-102.3v-85.883l-56.855-104.83-204.6 40.438 21.453 252.58h-68.184l7.5859-88.383-56.844-127.56-39.145 215.94h-75.781l32.809-84.59-6.2891-149.04-183.16-250.08h-202.03z" fill="#509ee3"/>
</svg>
