<svg xmlns="http://www.w3.org/2000/svg" viewBox="0 0 26 20" fill="currentcolor" stroke-width="5">
<path  d="M1.60409 6.6748L3.57529 16.3049C3.57529 16.3147 3.57849 16.3246 3.58169 16.3377L4.05209 18.6304C4.06489 18.6862 4.08409 18.7354 4.11289 18.7813C4.11609 18.7878 4.12249 18.7911 4.12569 18.7977C4.15449 18.837 4.18329 18.8731 4.22169 18.8994C4.23449 18.9092 4.25369 18.9158 4.26969 18.9256C4.30169 18.9453 4.33369 18.9617 4.37209 18.9715C4.38169 18.9748 4.38809 18.9814 4.39449 18.9814C7.17849 19.598 9.9817 19.9063 12.7913 19.9063C15.5977 19.9063 18.4073 19.598 21.2009 18.9814C21.2105 18.9781 21.2169 18.9748 21.2233 18.9715C21.2585 18.9617 21.2937 18.9453 21.3257 18.9256C21.3417 18.9158 21.3577 18.9092 21.3737 18.8994C21.4089 18.8731 21.4377 18.8403 21.4633 18.8042C21.4697 18.7944 21.4793 18.7911 21.4825 18.7813C21.5113 18.7354 21.5305 18.6862 21.5433 18.6304L21.5465 18.6206L22.0137 16.3344C22.0169 16.3246 22.0169 16.3147 22.0201 16.3049L23.9881 6.6748C24.5321 6.56656 25.0345 6.23856 25.3321 5.7072C25.5977 5.23816 25.6681 4.6904 25.5305 4.1656C25.3929 3.6408 25.0665 3.20128 24.6057 2.93232C24.1481 2.66008 23.6137 2.58792 23.1017 2.72896C22.5897 2.87 22.1609 3.20456 21.8953 3.67688C21.6297 4.14592 21.5593 4.69368 21.6969 5.21848C21.7065 5.25456 21.7257 5.28736 21.7353 5.32344L16.5577 9.20368L14.1161 3.5424C14.5225 3.16848 14.7817 2.63384 14.7817 2.0336C14.7817 0.91184 13.8921 0 12.7977 0C11.7033 0 10.8137 0.91184 10.8137 2.0336C10.8137 2.63384 11.0729 3.16848 11.4793 3.5424L9.03769 9.20368L3.85369 5.32344C4.02649 4.78224 3.98169 4.182 3.69689 3.6736C3.43129 3.20456 3.00249 2.87 2.49049 2.72896C1.97849 2.58792 1.44409 2.66336 0.989694 2.9356C0.0456935 3.48992 -0.280707 4.73632 0.263293 5.71376C0.554493 6.22544 1.05049 6.56328 1.60409 6.6748ZM20.7305 18.1417C15.4569 19.2667 10.1225 19.2667 4.86489 18.1417L4.59289 16.8166C7.31289 17.3873 10.0489 17.6858 12.7913 17.6858C15.5305 17.6858 18.2729 17.3873 21.0025 16.8166L20.7305 18.1417ZM22.6729 4.1328C22.8201 3.87368 23.0537 3.69 23.3353 3.61128C23.4281 3.58504 23.5241 3.57192 23.6201 3.57192C23.8089 3.57192 23.9945 3.62112 24.1641 3.7228C24.4169 3.8704 24.5961 4.11312 24.6729 4.40176C24.7497 4.6904 24.7081 4.99216 24.5641 5.248C24.4169 5.50712 24.1833 5.6908 23.9017 5.76952C23.6201 5.84496 23.3257 5.8056 23.0761 5.658C22.8233 5.50712 22.6441 5.26768 22.5673 4.97904C22.4873 4.69368 22.5257 4.39192 22.6729 4.1328ZM12.7977 0.91512C13.3993 0.91512 13.8889 1.41696 13.8889 2.0336C13.8889 2.65024 13.3993 3.15208 12.7977 3.15208C12.1961 3.15208 11.7065 2.65024 11.7065 2.0336C11.7097 1.41696 12.1993 0.91512 12.7977 0.91512ZM8.96089 10.2795C8.97049 10.2861 8.98009 10.2828 8.98969 10.2894C9.00889 10.3025 9.02169 10.3189 9.04409 10.3287C9.10169 10.355 9.16249 10.3681 9.22329 10.3681C9.30009 10.3681 9.37689 10.3418 9.44409 10.3025C9.46649 10.2894 9.48249 10.2697 9.50169 10.2533C9.53049 10.2303 9.56249 10.2139 9.58489 10.1811C9.59769 10.1614 9.60089 10.1418 9.61049 10.1221C9.61689 10.1122 9.62649 10.109 9.63289 10.0958L12.2665 3.9852C12.4361 4.0344 12.6121 4.0672 12.7977 4.0672C12.9833 4.0672 13.1593 4.03112 13.3289 3.9852L15.9625 10.0958C15.9657 10.1057 15.9785 10.1122 15.9849 10.1221C15.9945 10.1418 15.9977 10.1647 16.0105 10.1811C16.0329 10.2139 16.0649 10.2303 16.0937 10.2533C16.1129 10.2697 16.1289 10.2894 16.1513 10.3025C16.2185 10.3418 16.2953 10.3681 16.3721 10.3681C16.4329 10.3681 16.4937 10.355 16.5513 10.3287C16.5737 10.3189 16.5865 10.3025 16.6057 10.2894C16.6153 10.2828 16.6249 10.2861 16.6345 10.2795L22.2025 6.11064C22.3273 6.24184 22.4649 6.35992 22.6217 6.45504C22.7689 6.5436 22.9225 6.60264 23.0793 6.64856L21.1977 15.8457C15.6105 17.0691 9.95929 17.0691 4.39129 15.8457L2.50969 6.65184C2.66969 6.60592 2.82329 6.54032 2.97369 6.45176C3.13049 6.35664 3.27129 6.24184 3.39609 6.11392L8.96089 10.2795ZM1.43769 3.72608C1.60729 3.6244 1.79289 3.5752 1.98169 3.5752C2.07449 3.5752 2.17049 3.58832 2.26329 3.61128C2.54489 3.68672 2.78169 3.87368 2.92569 4.12952C3.12089 4.4772 3.12089 4.90688 2.92569 5.25128C2.82969 5.42184 2.69209 5.55632 2.52569 5.658C2.00409 5.96632 1.32569 5.76296 1.03769 5.25456C0.740093 4.71664 0.919294 4.03112 1.43769 3.72608Z"/>
</svg>