<svg viewBox="0 0 32 32" fill="currentcolor" xmlns="http://www.w3.org/2000/svg" xmlns:xlink="http://www.w3.org/1999/xlink">
  <path d="M3.033 3.791v22.211H31.09c.403 0 .882.872.882 1.59 0 .717-.48 1.408-.882 1.408H0V3.791c0-.403.875-.914 1.487-.914.612 0 1.546.511 1.546.914zm3.804 17.912C5.714 21.495 5 20.318 5 19.355c0-.963.831-2.296 1.837-2.296 2.093 0 2.965-1.207 4.204-5.242l.148-.482C12.798 6.077 14.18 3 17.968 3c3.792 0 5.17 3.08 6.765 8.343l.145.478c1.227 4.034 2.093 5.238 4.181 5.238 1.006 0 1.875 1.29 1.875 2.296 0 1.007-.898 2.184-1.875 2.348-3.656.612-6.004-2.364-7.665-7.821l-.146-.482c-1.14-3.76-1.8-6.754-3.28-6.754-1.483 0-2.147 2.995-3.297 6.754l-.148.486c-1.675 5.454-3.93 8.514-7.686 7.817z" />
</svg>
