<svg viewBox="0 0 16 16" fill="currentcolor" xmlns="http://www.w3.org/2000/svg" xmlns:xlink="http://www.w3.org/1999/xlink">
  <path d="M4.75 9a.75.75 0 0 0 0 1.5h6.5a.75.75 0 0 0 0-1.5h-6.5zM4 6.25a1 1 0 1 1 2 0 1 1 0 0 1-2 0zM7.75 5.5a.75.75 0 0 0 0 1.5h3.5a.75.75 0 0 0 0-1.5h-3.5z" /><path fill-rule="evenodd" clip-rule="evenodd" d="M1.25 3c0-.966.784-1.75 1.75-1.75h10c.966 0 1.75.784 1.75 1.75v10A1.75 1.75 0 0 1 13 14.75H3A1.75 1.75 0 0 1 1.25 13V3zm1.5 10V3.5h10.5V13a.25.25 0 0 1-.25.25H3a.25.25 0 0 1-.25-.25z" />
</svg>
