<svg xmlns="http://www.w3.org/2000/svg" viewBox="0 0 16 16" fill="currentColor">
  <path d="M12 1.375C13.4497 1.375 14.625 2.55025 14.625 4V12C14.625 13.4497 13.4497 14.625 12 14.625H4C2.55025 14.625 1.375 13.4497 1.375 12V4C1.375 2.55025 2.55025 1.375 4 1.375H12ZM2.625 8.625V12C2.625 12.7594 3.24061 13.375 4 13.375H7.375V8.625H2.625ZM8.625 8.625V13.375H12C12.7594 13.375 13.375 12.7594 13.375 12V8.625H8.625ZM4 2.625C3.24061 2.625 2.625 3.24061 2.625 4V7.375H13.375V4C13.375 3.24061 12.7594 2.625 12 2.625H4Z"/>
</svg>
