<svg viewBox="0 0 16 16" fill="none" stroke="currentcolor" xmlns="http://www.w3.org/2000/svg">
  <path d="M10 14V10.6667C10 10.4899 9.92976 10.3203 9.80474 10.1953C9.67971 10.0702 9.51014 10 9.33333 10H6.66667C6.48986 10 6.32029 10.0702 6.19526 10.1953C6.07024 10.3203 6 10.4899 6 10.6667V14" stroke-width="1.33333" stroke-linecap="round" stroke-linejoin="round"/>
  <path d="M11.8494 6.87331C11.7104 6.74027 11.5254 6.66601 11.3331 6.66601C11.1407 6.66601 10.9557 6.74027 10.8167 6.87331C10.5067 7.16899 10.0948 7.33395 9.66638 7.33395C9.23799 7.33395 8.82604 7.16899 8.51605 6.87331C8.37711 6.74047 8.19228 6.66633 8.00005 6.66633C7.80782 6.66633 7.62299 6.74047 7.48405 6.87331C7.17402 7.16919 6.76194 7.33427 6.33338 7.33427C5.90483 7.33427 5.49274 7.16919 5.18272 6.87331C5.04374 6.74027 4.85877 6.66601 4.66638 6.66601C4.47399 6.66601 4.28903 6.74027 4.15005 6.87331C3.85061 7.15906 3.45556 7.32316 3.0418 7.33368C2.62804 7.3442 2.22516 7.20039 1.91159 6.93023C1.59801 6.66008 1.39618 6.28291 1.34537 5.87214C1.29457 5.46137 1.39842 5.0464 1.63672 4.70798L3.56272 1.91865C3.68492 1.73832 3.84945 1.59068 4.0419 1.48864C4.23436 1.3866 4.44888 1.33327 4.66672 1.33331H11.3334C11.5506 1.33323 11.7645 1.38621 11.9566 1.48764C12.1486 1.58907 12.313 1.73588 12.4354 1.91531L14.3654 4.70998C14.6037 5.04866 14.7075 5.46396 14.6563 5.87494C14.6052 6.28592 14.4029 6.66314 14.0888 6.93311C13.7748 7.20307 13.3714 7.34643 12.9574 7.33525C12.5434 7.32408 12.1484 7.15916 11.8494 6.87265" stroke-width="1.33333" stroke-linecap="round" stroke-linejoin="round"/>
  <path d="M2.66663 7.29999V12.6667C2.66663 13.0203 2.8071 13.3594 3.05715 13.6095C3.3072 13.8595 3.64634 14 3.99996 14H12C12.3536 14 12.6927 13.8595 12.9428 13.6095C13.1928 13.3594 13.3333 13.0203 13.3333 12.6667V7.29999" stroke-width="1.33333" stroke-linecap="round" stroke-linejoin="round"/>
</svg>
