<svg xmlns="http://www.w3.org/2000/svg" viewBox="0 0 12 12" fill="currentColor">
  <path fill-rule="evenodd" clip-rule="evenodd" d="M2.0625 0.75V1.5C2.0625 2.01777 2.48223 2.4375 3 2.4375H3.9375V1.875C3.9375 1.35723 4.35723 0.9375 4.875 0.9375H10.125C10.6428 0.9375 11.0625 1.35723 11.0625 1.875V4.125C11.0625 4.64277 10.6428 5.0625 10.125 5.0625H4.875C4.35723 5.0625 3.9375 4.64277 3.9375 4.125V3.5625H3C2.66199 3.5625 2.34404 3.47909 2.0625 3.33496V7.5C2.0625 8.01777 2.48223 8.4375 3 8.4375H3.9375V7.875C3.9375 7.35723 4.35723 6.9375 4.875 6.9375H10.125C10.6428 6.9375 11.0625 7.35723 11.0625 7.875V10.125C11.0625 10.6428 10.6428 11.0625 10.125 11.0625H4.875C4.35723 11.0625 3.9375 10.6428 3.9375 10.125V9.5625H3C1.86091 9.5625 0.9375 8.63909 0.9375 7.5V0.75H2.0625ZM5.0625 9.9375H9.9375V8.0625H5.0625V9.9375ZM5.0625 3.9375H9.9375V2.0625H5.0625V3.9375Z"/>
</svg>
