<svg xmlns="http://www.w3.org/2000/svg" viewBox="0 0 16 16" fill="currentColor">
  <path d="M13.5 1.375C14.1213 1.375 14.625 1.87868 14.625 2.5V5.5C14.625 6.12132 14.1213 6.625 13.5 6.625H4.625V10C4.625 10.7594 5.24061 11.375 6 11.375H7.375V10.5C7.375 9.87868 7.87868 9.375 8.5 9.375H13.5C14.1213 9.375 14.625 9.87868 14.625 10.5V13.5C14.625 14.1213 14.1213 14.625 13.5 14.625H8.5C7.87868 14.625 7.375 14.1213 7.375 13.5V12.625H6C4.55025 12.625 3.375 11.4497 3.375 10V6.625H2.5C1.87868 6.625 1.375 6.12132 1.375 5.5V2.5C1.375 1.87868 1.87868 1.375 2.5 1.375H13.5ZM8.625 13.375H13.375V10.625H8.625V13.375ZM2.625 5.375H13.375V2.625H2.625V5.375Z"/>
</svg>
