<svg viewBox="0 0 10 14" fill="none" xmlns="http://www.w3.org/2000/svg">
<path d="M3 10.8327H7C7.14189 10.8327 7.26067 10.7848 7.35633 10.689C7.45211 10.5933 7.5 10.4746 7.5 10.3327C7.5 10.1908 7.45211 10.072 7.35633 9.97635C7.26067 9.88057 7.14189 9.83268 7 9.83268H3C2.85811 9.83268 2.73933 9.88057 2.64367 9.97635C2.54789 10.072 2.5 10.1908 2.5 10.3327C2.5 10.4746 2.54789 10.5933 2.64367 10.689C2.73933 10.7848 2.85811 10.8327 3 10.8327ZM3 8.16602H7C7.14189 8.16602 7.26067 8.11813 7.35633 8.02235C7.45211 7.92668 7.5 7.8079 7.5 7.66602C7.5 7.52413 7.45211 7.40535 7.35633 7.30968C7.26067 7.2139 7.14189 7.16602 7 7.16602H3C2.85811 7.16602 2.73933 7.2139 2.64367 7.30968C2.54789 7.40535 2.5 7.52413 2.5 7.66602C2.5 7.8079 2.54789 7.92668 2.64367 8.02235C2.73933 8.11813 2.85811 8.16602 3 8.16602ZM1.20517 13.3327C0.868389 13.3327 0.583333 13.216 0.35 12.9827C0.116667 12.7493 0 12.4643 0 12.1275V1.87118C0 1.5344 0.116667 1.24935 0.35 1.01602C0.583333 0.782682 0.868389 0.666016 1.20517 0.666016H6.00133C6.162 0.666016 6.3165 0.697238 6.46483 0.759682C6.61306 0.822016 6.74189 0.907905 6.85133 1.01735L9.64867 3.81468C9.75811 3.92413 9.844 4.05296 9.90633 4.20118C9.96878 4.34952 10 4.50402 10 4.66468V12.1275C10 12.4643 9.88333 12.7493 9.65 12.9827C9.41667 13.216 9.13161 13.3327 8.79483 13.3327H1.20517ZM6 4.06335V1.66602H1.20517C1.15383 1.66602 1.10683 1.6874 1.06417 1.73018C1.02139 1.77285 1 1.81985 1 1.87118V12.1275C1 12.1788 1.02139 12.2258 1.06417 12.2685C1.10683 12.3113 1.15383 12.3327 1.20517 12.3327H8.79483C8.84617 12.3327 8.89317 12.3113 8.93583 12.2685C8.97861 12.2258 9 12.1788 9 12.1275V4.66602H6.60267C6.43078 4.66602 6.28739 4.60852 6.1725 4.49352C6.0575 4.37863 6 4.23524 6 4.06335Z" fill="#223800"/>
</svg>
