<svg viewBox="0 0 16 16" fill="currentcolor" xmlns="http://www.w3.org/2000/svg">
    <path d="M8.599 1.25c.451 0 .886.175 1.212.487l3.152 3.027c.344.33.538.786.538 1.262V12.8c0 .527-.219 1.026-.597 1.39-.377.362-.882.56-1.403.56h-7.5c-.52 0-1.026-.199-1.403-.56a1.932 1.932 0 0 1-.587-1.194L2 12.8V3.2c0-.527.22-1.026.598-1.39.377-.361.882-.56 1.403-.56h4.598zM4 2.75a.528.528 0 0 0-.364.143.427.427 0 0 0-.136.307v9.6l.009.082c.017.081.059.16.127.225A.528.528 0 0 0 4 13.25h7.5a.528.528 0 0 0 .364-.143.427.427 0 0 0 .136-.307V6.575H9A.575.575 0 0 1 8.425 6V2.75H4zm6.4 7.425a.576.576 0 0 1 0 1.15H5.15a.575.575 0 0 1 0-1.15h5.25zm0-2.25a.576.576 0 0 1 0 1.15H5.15a.575.575 0 0 1 0-1.15h5.25zM6.75 5.675a.576.576 0 0 1 0 1.15h-1.6a.575.575 0 0 1 0-1.15h1.6zm2.825-.25h1.91L9.575 3.59v1.834z" />
</svg>