<svg viewBox="0 0 16 16" fill="currentcolor" xmlns="http://www.w3.org/2000/svg" xmlns:xlink="http://www.w3.org/1999/xlink">
  <path d="M4.53 5.801C4.9 3.761 6.755 2.25 8.93 2.25c2.432 0 4.464 1.89 4.464 4.295 0 .416-.062.818-.176 1.198 1.171.407 2.033 1.484 2.033 2.791 0 1.291-.848 2.364-1.995 2.779a.75.75 0 0 1-.51-1.411c.606-.22 1.005-.764 1.005-1.368 0-.776-.67-1.465-1.57-1.466h-.03a.75.75 0 0 1-.646-1.138c.248-.41.389-.881.389-1.385 0-1.51-1.294-2.795-2.964-2.795S5.965 5.033 5.964 6.544v.03a.75.75 0 0 1-.851.746 2.682 2.682 0 0 0-.363-.025c-1.414 0-2.5 1.086-2.5 2.353 0 .815.443 1.548 1.141 1.974a.75.75 0 1 1-.782 1.28C1.503 12.226.75 11.03.75 9.648.75 7.56 2.453 5.91 4.53 5.8z" /><path d="M11.085 10.031a.75.75 0 0 1-.117 1.055l-2.5 2a.75.75 0 0 1-.937 0l-2.5-2a.75.75 0 0 1 .937-1.172L7.25 10.94V8a.75.75 0 0 1 1.5 0v2.94l1.281-1.026a.75.75 0 0 1 1.054.117z" />
</svg>
