<svg fill="currentcolor" viewBox="0 0 17 16" xmlns="http://www.w3.org/2000/svg" xmlns:xlink="http://www.w3.org/1999/xlink">
    <path fill-rule="evenodd" clip-rule="evenodd" d="M2.14645 1.64645C2.34171 1.45118 2.65829 1.45118 2.85355 1.64645L14.8536 13.6464C15.0488 13.8417 15.0488 14.1583 14.8536 14.3536C14.6583 14.5488 14.3417 14.5488 14.1464 14.3536L10.1768 10.3839L7.03035 13.5304C6.93423 13.6265 6.81379 13.6947 6.68191 13.7276L2.68191 14.7276C2.42633 14.7915 2.15597 14.7166 1.96968 14.5303C1.7834 14.344 1.70851 14.0737 1.77241 13.8181L2.77241 9.81813C2.80538 9.68626 2.87357 9.56582 2.96969 9.4697L6.11614 6.32325L2.14645 2.35355C1.95118 2.15829 1.95118 1.84171 2.14645 1.64645ZM7.1768 7.38391L9.11614 9.32325L6.11658 12.3228L3.53079 12.9692L4.17724 10.3835L7.1768 7.38391Z" />
    <path d="M11.3232 3.23747C11.4209 3.13984 11.5792 3.13984 11.6768 3.23747L13.2626 4.82326C13.3602 4.92089 13.3602 5.07918 13.2626 5.17681L10.8848 7.55456L11.9455 8.61522L14.3232 6.23747C15.0067 5.55405 15.0067 4.44601 14.3232 3.7626L12.7375 2.17681C12.054 1.49339 10.946 1.49339 10.2626 2.17681L7.88482 4.55456L8.94548 5.61522L11.3232 3.23747Z" />
</svg>
