<svg viewBox="0 0 16 16" fill="none" xmlns="http://www.w3.org/2000/svg">
  <path d="M10.2593 2.9264C10.3431 3.01029 10.4477 3.0703 10.5624 3.10027C10.6772 3.13023 10.7978 3.12905 10.9119 3.09685C11.026 3.06465 11.1295 3.0026 11.2117 2.91709C11.2938 2.83159 11.3517 2.72572 11.3793 2.6104C11.4485 2.32233 11.5932 2.05792 11.7986 1.84438C12.0039 1.63085 12.2625 1.47592 12.5477 1.39555C12.8328 1.31517 13.1342 1.31226 13.4209 1.38711C13.7075 1.46196 13.9691 1.61187 14.1785 1.8214C14.388 2.03092 14.5378 2.29249 14.6126 2.57917C14.6873 2.86585 14.6843 3.16727 14.6038 3.45239C14.5234 3.73752 14.3683 3.99604 14.1547 4.20134C13.9411 4.40664 13.6767 4.55129 13.3886 4.6204C13.2733 4.648 13.1674 4.70585 13.0819 4.788C12.9964 4.87015 12.9343 4.97361 12.9021 5.08773C12.8699 5.20185 12.8688 5.32249 12.8987 5.43721C12.9287 5.55194 12.9887 5.6566 13.0726 5.7404L14.1946 6.86173C14.344 7.01118 14.4626 7.18859 14.5435 7.38385C14.6244 7.57911 14.666 7.78839 14.666 7.99973C14.666 8.21108 14.6244 8.42036 14.5435 8.61562C14.4626 8.81088 14.344 8.98829 14.1946 9.13773L13.0726 10.2597C12.9888 10.3436 12.8841 10.4036 12.7694 10.4336C12.6547 10.4636 12.534 10.4624 12.4199 10.4302C12.3058 10.398 12.2023 10.3359 12.1202 10.2504C12.038 10.1649 11.9802 10.0591 11.9526 9.94373C11.8834 9.65567 11.7386 9.39125 11.5333 9.17772C11.3279 8.96419 11.0693 8.80926 10.7842 8.72888C10.499 8.64851 10.1976 8.6456 9.91095 8.72045C9.6243 8.7953 9.36278 8.9452 9.15332 9.15473C8.94387 9.36425 8.79405 9.62582 8.71929 9.9125C8.64454 10.1992 8.64755 10.5006 8.72802 10.7857C8.80849 11.0709 8.9635 11.3294 9.1771 11.5347C9.3907 11.74 9.65517 11.8846 9.94326 11.9537C10.0586 11.9813 10.1644 12.0392 10.25 12.1213C10.3355 12.2035 10.3975 12.3069 10.4297 12.4211C10.4619 12.5352 10.4631 12.6558 10.4331 12.7705C10.4032 12.8853 10.3431 12.9899 10.2593 13.0737L9.13726 14.1951C8.98782 14.3445 8.8104 14.4631 8.61514 14.5439C8.41988 14.6248 8.21061 14.6665 7.99926 14.6665C7.78791 14.6665 7.57863 14.6248 7.38337 14.5439C7.18811 14.4631 7.0107 14.3445 6.86126 14.1951L5.73926 13.0731C5.65546 12.9892 5.5508 12.9292 5.43607 12.8992C5.32135 12.8692 5.20071 12.8704 5.08659 12.9026C4.97247 12.9348 4.869 12.9969 4.78686 13.0824C4.70471 13.1679 4.64686 13.2737 4.61926 13.3891C4.55005 13.6771 4.40532 13.9415 4.19995 14.1551C3.99458 14.3686 3.736 14.5235 3.45085 14.6039C3.1657 14.6843 2.86427 14.6872 2.57762 14.6124C2.29097 14.5375 2.02945 14.3876 1.81999 14.1781C1.61054 13.9685 1.46072 13.707 1.38596 13.4203C1.31121 13.1336 1.31422 12.8322 1.39469 12.5471C1.47515 12.2619 1.63017 12.0034 1.84377 11.7981C2.05737 11.5928 2.32183 11.4482 2.60992 11.3791C2.72524 11.3515 2.83111 11.2936 2.91662 11.2115C3.00213 11.1293 3.06418 11.0259 3.09638 10.9117C3.12857 10.7976 3.12975 10.677 3.09979 10.5623C3.06983 10.4475 3.00981 10.3429 2.92592 10.2591L1.80392 9.13773C1.65448 8.98829 1.53593 8.81088 1.45504 8.61562C1.37416 8.42036 1.33253 8.21108 1.33253 7.99973C1.33253 7.78839 1.37416 7.57911 1.45504 7.38385C1.53593 7.18859 1.65448 7.01118 1.80392 6.86173L2.92592 5.73973C3.00973 5.65585 3.11438 5.59583 3.22911 5.56587C3.34384 5.53591 3.46448 5.53709 3.57859 5.56928C3.69271 5.60148 3.79618 5.66353 3.87833 5.74904C3.96047 5.83455 4.01833 5.94042 4.04592 6.05573C4.11513 6.3438 4.25987 6.60822 4.46524 6.82175C4.6706 7.03528 4.92918 7.19021 5.21433 7.27059C5.49949 7.35096 5.80091 7.35387 6.08756 7.27902C6.37422 7.20417 6.63574 7.05426 6.84519 6.84474C7.05465 6.63521 7.20447 6.37364 7.27922 6.08697C7.35398 5.80029 7.35097 5.49887 7.2705 5.21374C7.19003 4.92861 7.03501 4.67009 6.82141 4.46479C6.60781 4.25949 6.34335 4.11484 6.05526 4.04573C5.93994 4.01814 5.83407 3.96028 5.74856 3.87813C5.66306 3.79599 5.601 3.69252 5.56881 3.5784C5.53661 3.46429 5.53543 3.34364 5.56539 3.22892C5.59535 3.11419 5.65537 3.00954 5.73926 2.92573L6.86126 1.8044C7.0107 1.65495 7.18811 1.5364 7.38337 1.45552C7.57863 1.37464 7.78791 1.33301 7.99926 1.33301C8.21061 1.33301 8.41988 1.37464 8.61514 1.45552C8.8104 1.5364 8.98782 1.65495 9.13726 1.8044L10.2593 2.9264Z" stroke="currentcolor" stroke-width="1.33333" stroke-linecap="round" stroke-linejoin="round" />
</svg>
