<svg viewBox="0 0 16 16" fill="currentcolor" xmlns="http://www.w3.org/2000/svg">
    <path d="M5.75 2.25H10.25V1H11.75V2.25H12C13.5188 2.25 14.75 3.48122 14.75 5V8.5H13.25V7.75H2.75V12C2.75 12.6904 3.30964 13.25 4 13.25H8V14.75H4C2.48122 14.75 1.25 13.5188 1.25 12V5C1.25 3.48122 2.48122 2.25 4 2.25H4.25V1H5.75V2.25ZM12 9.25C13.5188 9.25 14.75 10.4812 14.75 12C14.75 13.5188 13.5188 14.75 12 14.75C10.4812 14.75 9.25 13.5188 9.25 12C9.25 10.4812 10.4812 9.25 12 9.25ZM12 10.75C11.3096 10.75 10.75 11.3096 10.75 12C10.75 12.6904 11.3096 13.25 12 13.25C12.6904 13.25 13.25 12.6904 13.25 12C13.25 11.3096 12.6904 10.75 12 10.75ZM4 3.75C3.30964 3.75 2.75 4.30964 2.75 5V6.25H13.25V5C13.25 4.30964 12.6904 3.75 12 3.75H4Z"/>
</svg>
