<svg xmlns="http://www.w3.org/2000/svg" viewBox="0 0 16 16" fill="currentColor">
  <path d="M 7,2.25 C 7.41415,2.25007 7.75,2.58583 7.75,3 7.75,3.41417 7.41415,3.74993 7,3.75 H 3.75 v 8.5 H 7 c 0.41421,0 0.75001,0.3358 0.75,0.75 -10e-6,0.4142 -0.33579,0.75 -0.75,0.75 H 3 C 2.58583,13.75 2.25005,13.4143 2.25,13 V 3 C 2.25,2.58579 2.5858,2.25 3,2.25 Z m 3.4697,3.21973 c 0.2929,-0.29287 0.7677,-0.29288 1.0606,0 l 1.9873,1.9873 C 13.6609,7.59363 13.75,7.78642 13.75,8 c 0,0.21011 -0.0864,0.39997 -0.2256,0.53613 l -1.9941,1.99417 c -0.2929,0.2928 -0.7677,0.2928 -1.0606,0 -0.2929,-0.2929 -0.2929,-0.76768 0,-1.06057 L 11.1895,8.75 H 7 C 6.58579,8.75 6.25,8.41421 6.25,8 6.25,7.58579 6.58579,7.25 7,7.25 h 4.1895 L 10.4697,6.53027 c -0.2928,-0.2929 -0.2929,-0.76766 0,-1.06054 z"/>
</svg>
