<svg viewBox="0 0 16 16" xmlns="http://www.w3.org/2000/svg">
  <mask id="path-1-inside-1_5962_230" fill="none">
    <path d="M14 8.5L8.5 8.5V14L13.0833 14C13.5896 14 14 13.5896 14 13.0833V8.5ZM13 4C13 3.44772 12.5523 3 12 3L4 3C3.4477 3 3 3.44772 3 4L3 12C3 12.5523 3.4477 13 4 13H7.5L7.5 7.5H13L13 4Z"/>
  </mask>
  <path d="M14 8.5L8.5 8.5V14L13.0833 14C13.5896 14 14 13.5896 14 13.0833V8.5ZM13 4C13 3.44772 12.5523 3 12 3L4 3C3.4477 3 3 3.44772 3 4L3 12C3 12.5523 3.4477 13 4 13H7.5L7.5 7.5H13L13 4Z" fill="currentColor" />
  <path d="M8.5 8.5H7.5V7.5H8.5V8.5ZM14 8.5V7.5H15V8.5H14ZM8.5 14V15H7.5V14H8.5ZM7.5 13H8.5V14H7.5V13ZM7.5 7.5L6.5 7.5V6.5L7.5 6.5V7.5ZM13 7.5L14 7.5V8.5L13 8.5V7.5ZM8.5 7.5L14 7.5V9.5L8.5 9.5V7.5ZM7.5 14L7.5 8.5H9.5V14H7.5ZM13.0833 15L8.5 15V13L13.0833 13V15ZM15 13.0833C15 14.1419 14.1419 15 13.0833 15V13C13.0373 13 13 13.0373 13 13.0833H15ZM15 8.5V13.0833H13V8.5L15 8.5ZM12 2C13.1046 2 14 2.89543 14 4H12V2ZM4 2L12 2V4L4 4V2ZM2 4C2 2.89545 2.8954 2 4 2V4H2ZM2 12L2 4H4L4 12H2ZM4 14C2.89542 14 2 13.1046 2 12H4V14ZM7.5 14H4V12H7.5V14ZM8.5 7.5V13H6.5L6.5 7.5L8.5 7.5ZM13 8.5H7.5V6.5H13L13 8.5ZM14 4L14 7.5L12 7.5L12 4H14Z" fill="currentColor" mask="url(#path-1-inside-1_5962_230)" />
</svg>
