<svg viewBox="0 0 32 32" fill="currentcolor" xmlns="http://www.w3.org/2000/svg" xmlns:xlink="http://www.w3.org/1999/xlink">
  <path d="M0,0 L7.51851852,0 L7.51851852,3.2 L0,3.2 L0,0 Z M10.7407407,0 L18.2592593,0 L18.2592593,3.2 L10.7407407,3.2 L10.7407407,0 Z M21.4814815,0 L29,0 L29,3.2 L21.4814815,3.2 L21.4814815,0 Z M0,5.33333333 L7.51851852,5.33333333 L7.51851852,29.8666667 L3.85540334,32 L0,29.8666667 L0,5.33333333 Z M10.7407407,5.33333333 L18.2592593,5.33333333 L18.2592593,29.8666667 L14.5690136,32 L10.7407407,29.8666667 L10.7407407,5.33333333 Z M21.4814815,5.33333333 L29,5.33333333 L29,29.8666667 L25.2114718,32 L21.4814815,29.8666667 L21.4814815,5.33333333 Z" />
</svg>
