<svg viewBox="0 0 16 16" fill="currentColor" xmlns="http://www.w3.org/2000/svg">
  <path d="M11.41 7.25c.92 0 1.79.185 2.457.519.622.31 1.293.88 1.293 1.731v3c0 .851-.67 1.42-1.293 1.731-.668.334-1.538.519-2.457.519-.92 0-1.79-.185-2.457-.519-.623-.31-1.293-.88-1.293-1.731v-3c0-.851.67-1.42 1.293-1.731.667-.334 1.537-.519 2.457-.519zm-6.096-6a1.986 1.986 0 0 1 1.665.887l.515.762.005.006a.558.558 0 0 0 .464.251h5.038a1.985 1.985 0 0 1 1.985 1.984V6c0 .395-.32.75-.715.75-.395 0-.715-.356-.715-.75v-.86a.555.555 0 0 0-.555-.554H7.962a1.988 1.988 0 0 1-1.658-.894l-.51-.756-.004-.006a.556.556 0 0 0-.47-.25H2.835a.556.556 0 0 0-.555.555v8.26a.558.558 0 0 0 .555.555H5.35c.394 0 .9.32.9.715 0 .394-.505.714-.9.714H2.835A1.986 1.986 0 0 1 .85 11.495V3.235A1.985 1.985 0 0 1 2.835 1.25h2.479zm8.346 10.075c-.636.273-1.423.425-2.25.425-.828 0-1.615-.152-2.25-.425v1.179l.005.014a.327.327 0 0 0 .053.082c.069.08.197.185.406.29.418.209 1.048.36 1.786.36.737 0 1.367-.151 1.786-.36.208-.105.337-.21.405-.29a.329.329 0 0 0 .059-.096v-1.179zM11.41 8.75c-.738 0-1.368.151-1.786.36a1.29 1.29 0 0 0-.406.29.328.328 0 0 0-.058.096v.008l.005.015a.328.328 0 0 0 .053.08c.069.081.197.186.406.29.418.21 1.048.361 1.786.361.737 0 1.367-.151 1.786-.36a1.29 1.29 0 0 0 .405-.29.33.33 0 0 0 .059-.096v-.008A.329.329 0 0 0 13.6 9.4a1.29 1.29 0 0 0-.405-.29c-.418-.209-1.05-.36-1.786-.36z" />
</svg>
