<svg viewBox="0 0 16 16" fill="currentColor" xmlns="http://www.w3.org/2000/svg">
  <path
    d="M12 8.25C12.9196 8.25 13.7895 8.43481 14.457 8.76855C15.0796 9.07989 15.75 9.64878 15.75 10.5V13.5C15.75 14.3512 15.0796 14.9201 14.457 15.2314C13.7895 15.5652 12.9196 15.75 12 15.75C11.0804 15.75 10.2105 15.5652 9.54297 15.2314C8.92042 14.9201 8.25 14.3512 8.25 13.5V10.5C8.25 9.64878 8.92042 9.07989 9.54297 8.76855C10.2105 8.43481 11.0804 8.25 12 8.25ZM8.31055 4.25H12.7998C13.3215 4.25 13.819 4.46166 14.1836 4.83301C14.5476 5.20387 14.75 5.70407 14.75 6.22266V6.5C14.75 6.91421 14.4142 7.25 14 7.25C13.5858 7.25 13.25 6.91421 13.25 6.5V6.22266C13.25 6.09309 13.1991 5.97132 13.1133 5.88379C13.0278 5.79671 12.9147 5.75 12.7998 5.75H7.68945L5.68945 3.75H3.2002C3.08533 3.75 2.97221 3.79671 2.88672 3.88379C2.80085 3.97132 2.75 4.09309 2.75 4.22266V12.7773C2.75 12.9069 2.80085 13.0287 2.88672 13.1162C2.97221 13.2033 3.08534 13.25 3.2002 13.25H6C6.41421 13.25 6.75 13.5858 6.75 14C6.75 14.4142 6.41421 14.75 6 14.75H3.2002C2.67854 14.75 2.181 14.5383 1.81641 14.167C1.45239 13.7961 1.25 13.2959 1.25 12.7773V4.22266C1.25 3.70407 1.45239 3.20387 1.81641 2.83301C2.181 2.46166 2.67854 2.25 3.2002 2.25H6.31055L8.31055 4.25ZM14.25 12.3252C13.6142 12.5984 12.8276 12.75 12 12.75C11.1724 12.75 10.3858 12.5984 9.75 12.3252V13.5039C9.75045 13.5061 9.75189 13.5113 9.75488 13.5186C9.761 13.5334 9.77602 13.5611 9.80859 13.5996C9.87701 13.6804 10.0052 13.7853 10.2139 13.8896C10.6322 14.0988 11.2628 14.25 12 14.25C12.7372 14.25 13.3678 14.0988 13.7861 13.8896C13.9948 13.7853 14.123 13.6804 14.1914 13.5996C14.224 13.5611 14.239 13.5334 14.2451 13.5186C14.2481 13.5113 14.2495 13.5061 14.25 13.5039V12.3252ZM12 9.75C11.2628 9.75 10.6322 9.9012 10.2139 10.1104C10.0052 10.2147 9.87701 10.3196 9.80859 10.4004C9.77602 10.4389 9.761 10.4666 9.75488 10.4814C9.75189 10.4887 9.75045 10.4939 9.75 10.4961V10.5039C9.75045 10.5061 9.75189 10.5113 9.75488 10.5186C9.761 10.5334 9.77602 10.5611 9.80859 10.5996C9.87701 10.6804 10.0052 10.7853 10.2139 10.8896C10.6322 11.0988 11.2628 11.25 12 11.25C12.7372 11.25 13.3678 11.0988 13.7861 10.8896C13.9948 10.7853 14.123 10.6804 14.1914 10.5996C14.224 10.5611 14.239 10.5334 14.2451 10.5186C14.2481 10.5113 14.2495 10.5061 14.25 10.5039V10.4961C14.2495 10.4939 14.2481 10.4887 14.2451 10.4814C14.239 10.4666 14.224 10.4389 14.1914 10.4004C14.123 10.3196 13.9948 10.2147 13.7861 10.1104C13.3678 9.9012 12.7372 9.75 12 9.75Z"
  />
</svg>
