<svg width="53" height="44" viewBox="0 0 53 44" fill="none" xmlns="http://www.w3.org/2000/svg">
<path d="M8 10C8 8.34314 9.34315 7 11 7H21.505L26.6421 12.1371H39.8361C41.493 12.1371 42.8361 13.4803 42.8361 15.1371V33.5284C42.8361 35.7376 41.0453 37.5284 38.8361 37.5284H12C9.79086 37.5284 8 35.7376 8 33.5284V10Z" stroke="#92999E" stroke-width="1.25" stroke-linejoin="round"/>
<path d="M12.5504 20.1558C12.8961 18.8363 14.0884 17.916 15.4525 17.916H45.4087C46.7191 17.916 47.6754 19.1552 47.3434 20.4228L43.4496 35.2882C43.1039 36.6078 41.9116 37.5281 40.5475 37.5281H11.887C9.92141 37.5281 8.48687 35.6694 8.98493 33.7679L12.5504 20.1558Z" stroke="#92999E" stroke-width="1.25" stroke-linejoin="round"/>
<circle cx="43" cy="34" r="7" stroke="#E3595C" stroke-width="2"/>
<rect x="47.2427" y="28.3433" width="2" height="14" transform="rotate(45 47.2427 28.3433)" fill="#E3595C"/>
</svg>
