<svg viewBox="0 0 16 16" fill="currentcolor" xmlns="http://www.w3.org/2000/svg" xmlns:xlink="http://www.w3.org/1999/xlink">
  <path fill-rule="evenodd" clip-rule="evenodd" d="M3.2 3.75a.501.501 0 0 0-.339.126.322.322 0 0 0-.111.235v7.778c0 .076.032.162.111.235a.5.5 0 0 0 .339.126h9.6a.501.501 0 0 0 .339-.126.322.322 0 0 0 .111-.235v-5.96a.322.322 0 0 0-.111-.235.501.501 0 0 0-.339-.126H7.71l-2-1.818H3.2zm-1.358-.975A2 2 0 0 1 3.2 2.25h3.09l2 1.818h4.51a2 2 0 0 1 1.358.525c.371.344.592.823.592 1.336v5.96c0 .513-.22.992-.592 1.336a2 2 0 0 1-1.358.525H3.2a2 2 0 0 1-1.358-.525 1.821 1.821 0 0 1-.592-1.336V4.11c0-.513.22-.992.592-1.336z" />
</svg>
