<svg xmlns="http://www.w3.org/2000/svg" viewBox="0 0 16 16"><path fill="none" stroke="currentColor" d="M1.70711 7.64645L1.35355 8L1.70711 8.35355L1.88389 8.53033C2.11831 8.76475 2.25 9.0827 2.25 9.41421V12C2.25 12.4143 2.58583 12.75 3 12.75C3.13806 12.75 3.25 12.8619 3.25 13C3.25 13.1381 3.13806 13.25 3 13.25C2.30964 13.25 1.75 12.6904 1.75 12V9.41421C1.75 9.2153 1.67098 9.02454 1.53033 8.88389L0.823223 8.17678L0.823221 8.17677C0.776341 8.1299 0.75 8.0663 0.75 8C0.75 7.9337 0.776342 7.8701 0.823221 7.82323L0.823223 7.82322L1.53033 7.11611C1.67098 6.97546 1.75 6.7847 1.75 6.58579V4C1.75 3.30964 2.30964 2.75 3 2.75C3.13807 2.75 3.25 2.86193 3.25 3C3.25 3.13807 3.13807 3.25 3 3.25C2.58579 3.25 2.25 3.58579 2.25 4V6.58579C2.25 6.91731 2.11831 7.23524 1.88389 7.46967L1.70711 7.64645Z"/><path fill="none" stroke="currentColor" d="M15.1768 8.17671L15.1767 8.17678L14.4697 8.88381C14.4697 8.88384 14.4697 8.88386 14.4696 8.88389C14.3288 9.0247 14.25 9.21553 14.25 9.41421V12C14.25 12.6904 13.6904 13.25 13 13.25C12.8619 13.25 12.75 13.1381 12.75 13C12.75 12.8619 12.8619 12.75 13 12.75C13.4142 12.75 13.75 12.4142 13.75 12V9.41421C13.75 9.08271 13.8817 8.76477 14.1161 8.53034L14.1162 8.53025L14.2929 8.35347L14.6462 8L14.2929 7.64653L14.1162 7.46975L14.1161 7.46966C13.8817 7.23523 13.75 6.91728 13.75 6.58579V4C13.75 3.58583 13.4143 3.25 13 3.25C12.8619 3.25 12.75 3.13806 12.75 3C12.75 2.86194 12.8619 2.75 13 2.75C13.6904 2.75 14.25 3.30964 14.25 4V6.58579C14.25 6.78447 14.3288 6.9753 14.4696 7.11611C14.4697 7.11614 14.4697 7.11616 14.4697 7.11619L15.1767 7.82322L15.1768 7.82329C15.2237 7.87012 15.25 7.93367 15.25 8C15.25 8.06633 15.2237 8.12988 15.1768 8.17671Z"/><path fill="none" stroke="currentColor" stroke-width="1.5" d="M6.05001 4C5.83252 4 5.64616 4.17281 5.60726 4.41056L5.00726 8.07721C4.98339 8.22308 5.01902 8.3732 5.10452 8.48702C5.19002 8.60085 5.31657 8.66665 5.45001 8.66665H6.70109L6.20874 11.4019C6.16925 11.6213 6.26576 11.8432 6.44504 11.9451C6.62433 12.047 6.84272 12.0042 6.97976 11.8402L10.8797 7.17355C11.0015 7.02782 11.034 6.81576 10.9625 6.63346C10.8909 6.45118 10.729 6.33332 10.55 6.33332H9.04657L9.48265 4.63736C9.52147 4.4865 9.49429 4.32416 9.40927 4.1989C9.32419 4.07365 9.19117 4 9.04999 4H6.05001Z"/></svg>