<svg viewBox="0 0 16 16" xmlns="http://www.w3.org/2000/svg">
  <path d="M2.75 12C2.75 12.6904 3.30964 13.25 4 13.25H7V14.75H4C2.48122 14.75 1.25 13.5188 1.25 12V9H2.75V12ZM14.75 12C14.75 13.5188 13.5188 14.75 12 14.75H9V13.25H12C12.6904 13.25 13.25 12.6904 13.25 12V9H14.75V12ZM10 4.25C10.9665 4.25 11.75 5.0335 11.75 6V10C11.75 10.9665 10.9665 11.75 10 11.75H6C5.0335 11.75 4.25 10.9665 4.25 10V6C4.25 5.0335 5.0335 4.25 6 4.25H10ZM6 5.75C5.86193 5.75 5.75 5.86193 5.75 6V10C5.75 10.1381 5.86193 10.25 6 10.25H10C10.1381 10.25 10.25 10.1381 10.25 10V6C10.25 5.86193 10.1381 5.75 10 5.75H6ZM7 2.75H4C3.30964 2.75 2.75 3.30964 2.75 4V7H1.25V4C1.25 2.48122 2.48122 1.25 4 1.25H7V2.75ZM12 1.25C13.5188 1.25 14.75 2.48122 14.75 4V7H13.25V4C13.25 3.30964 12.6904 2.75 12 2.75H9V1.25H12Z" fill="currentColor" />
</svg>
