<svg viewBox="0 0 16 16" fill="currentcolor" xmlns="http://www.w3.org/2000/svg" xmlns:xlink="http://www.w3.org/1999/xlink">
  <path d="M8 10a2 2 0 1 0 0-4 2 2 0 0 0 0 4z"/><path fill-rule="evenodd" clip-rule="evenodd" d="M7 .75A1.75 1.75 0 0 0 5.25 2.5v.45a5.74 5.74 0 0 0-.25.143l-.388-.224a1.75 1.75 0 0 0-2.39.64l-1 1.732a1.75 1.75 0 0 0 .64 2.39l.39.226a5.828 5.828 0 0 0 0 .286l-.39.225a1.75 1.75 0 0 0-.64 2.39l1 1.733a1.75 1.75 0 0 0 2.39.64L5 12.908c.081.05.164.098.249.144v.449c0 .966.783 1.75 1.75 1.75h2a1.75 1.75 0 0 0 1.75-1.75v-.45c.084-.045.167-.093.249-.143l.389.225a1.75 1.75 0 0 0 2.39-.64l1-1.733a1.75 1.75 0 0 0-.64-2.39l-.39-.226a5.703 5.703 0 0 0 0-.286l.39-.226a1.75 1.75 0 0 0 .64-2.39l-1-1.732a1.75 1.75 0 0 0-2.39-.64l-.39.224a5.77 5.77 0 0 0-.248-.144V2.5A1.75 1.75 0 0 0 9 .75H7zM6.75 2.5A.25.25 0 0 1 7 2.25h2a.25.25 0 0 1 .25.25v1.407l.45.196c.292.128.568.288.823.477l.395.292 1.22-.705a.25.25 0 0 1 .341.092l1 1.732a.25.25 0 0 1-.091.341l-1.219.704.054.487a4.303 4.303 0 0 1 0 .954l-.054.487 1.219.704a.25.25 0 0 1 .091.341l-1 1.732a.25.25 0 0 1-.341.092l-1.22-.705-.395.292c-.255.188-.53.349-.823.477l-.45.196V13.5a.25.25 0 0 1-.25.25H7a.25.25 0 0 1-.25-.25v-1.407l-.45-.196a4.245 4.245 0 0 1-.823-.477l-.396-.292-1.22.704a.25.25 0 0 1-.34-.091l-1-1.732a.25.25 0 0 1 .09-.342l1.22-.703-.055-.488a4.305 4.305 0 0 1 0-.952l.054-.488-1.218-.703a.25.25 0 0 1-.092-.342l1-1.732a.25.25 0 0 1 .342-.091l1.22.704.395-.292c.254-.188.53-.349.823-.477l.45-.196V2.5z"/>
</svg>
