<svg viewBox="0 0 16 16" fill="currentColor" fill-rule="evenodd" clip-rule="evenodd" xmlns="http://www.w3.org/2000/svg">
  <path d="M14.45 2.75L14.22 2.38L13.94 2.06L13.62 1.78L13.25 1.55L12.85 1.38L12.43 1.28L12 1.25L11.57 1.28L11.15 1.38L10.75 1.55L10.38 1.78L10.06 2.06L9.78 2.38L9.55 2.75L9.38 3.15L9.28 3.57L9.25 4L9.28 4.43L9.38 4.85L9.55 5.25L9.78 5.62L10.06 5.94L10.38 6.22L10.75 6.45L11.15 6.62L11.21 6.63L11.18 6.88L11.12 7.17L11.04 7.45L10.96 7.73L10.85 8.01L10.73 8.28L10.59 8.54L10.45 8.79L10.28 9.04L10.1 9.27L9.91 9.5L9.71 9.71L9.5 9.91L9.27 10.1L9.04 10.28L8.79 10.45L8.54 10.59L8.28 10.73L8.01 10.85L7.73 10.96L7.45 11.04L7.17 11.12L6.88 11.18L6.63 11.21L6.62 11.15L6.45 10.75L6.22 10.38L5.94 10.06L5.62 9.78L5.25 9.55L4.85 9.38L4.75 9.36L4.75 2L4.74 1.88L4.71 1.77L4.67 1.66L4.61 1.56L4.53 1.47L4.44 1.39L4.34 1.33L4.23 1.29L4.12 1.26L4 1.25L3.88 1.26L3.77 1.29L3.66 1.33L3.56 1.39L3.47 1.47L3.39 1.56L3.33 1.66L3.29 1.77L3.26 1.88L3.25 2L3.25 9.36L3.15 9.38L2.75 9.55L2.38 9.78L2.06 10.06L1.78 10.38L1.55 10.75L1.38 11.15L1.28 11.57L1.25 12L1.28 12.43L1.38 12.85L1.55 13.25L1.78 13.62L2.06 13.94L2.38 14.22L2.75 14.45L3.15 14.62L3.57 14.72L4 14.75L4.43 14.72L4.85 14.62L5.25 14.45L5.62 14.22L5.94 13.94L6.22 13.62L6.45 13.25L6.62 12.85L6.65 12.72L7.11 12.66L7.52 12.58L7.85 12.49L8.21 12.38L8.6 12.23L8.95 12.07L9.25 11.92L9.61 11.7L9.92 11.49L10.19 11.29L10.51 11.02L10.79 10.76L11.05 10.48L11.26 10.22L11.49 9.92L11.73 9.57L11.92 9.25L12.07 8.95L12.23 8.6L12.36 8.25L12.49 7.85L12.58 7.52L12.65 7.15L12.72 6.65L12.85 6.62L13.25 6.45L13.62 6.22L13.94 5.94L14.22 5.62L14.45 5.25L14.62 4.85L14.72 4.43L14.75 4L14.72 3.57L14.62 3.15ZM13.11 4.57L13.01 4.73L12.88 4.88L12.73 5.01L12.57 5.11L12.39 5.19L12.2 5.23L12 5.25L11.8 5.23L11.61 5.19L11.43 5.11L11.27 5.01L11.12 4.88L10.99 4.73L10.89 4.57L10.81 4.39L10.77 4.2L10.75 4L10.77 3.8L10.81 3.61L10.89 3.43L10.99 3.27L11.12 3.12L11.27 2.99L11.43 2.89L11.61 2.81L11.8 2.77L12 2.75L12.2 2.77L12.39 2.81L12.57 2.89L12.73 2.99L12.88 3.12L13.01 3.27L13.11 3.43L13.19 3.61L13.23 3.8L13.25 4L13.23 4.2L13.19 4.39ZM5.11 12.57L5.01 12.73L4.88 12.88L4.73 13.01L4.57 13.11L4.39 13.19L4.2 13.23L4 13.25L3.8 13.23L3.61 13.19L3.43 13.11L3.27 13.01L3.12 12.88L2.99 12.73L2.89 12.57L2.81 12.39L2.77 12.2L2.75 12L2.77 11.8L2.81 11.61L2.89 11.43L2.99 11.27L3.12 11.12L3.27 10.99L3.43 10.89L3.61 10.81L3.8 10.77L4 10.75L4.2 10.77L4.39 10.81L4.57 10.89L4.73 10.99L4.88 11.12L5.01 11.27L5.11 11.43L5.19 11.61L5.23 11.8L5.25 12L5.23 12.2L5.19 12.39Z"/>
</svg>
