<svg xmlns="http://www.w3.org/2000/svg" width="16" height="16" fill="currentColor" viewBox="0 0 16 16"><path fill-rule="evenodd" d="M7.99795 14.75C4.27097 14.7489 1.25 11.7272 1.25 8C1.25 4.27208 4.27208 1.25 8 1.25C11.7279 1.25 14.75 4.27208 14.75 8C14.75 11.7272 11.7291 14.7488 8.00222 14.75H7.99795ZM2.75 8C2.75 7.74536 2.76813 7.49495 2.80317 7.25H4.76868C4.75641 7.49077 4.75 7.74066 4.75 8C4.75 8.25934 4.75641 8.50923 4.76868 8.75H2.80317C2.76813 8.50505 2.75 8.25464 2.75 8ZM4.93557 10.25H3.25522C3.78092 11.3566 4.68236 12.2502 5.79468 12.7657C5.43705 12.127 5.12357 11.3038 4.93557 10.25ZM10.2053 12.7657C10.5629 12.127 10.8764 11.3038 11.0644 10.25H12.7448C12.2191 11.3566 11.3176 12.2502 10.2053 12.7657ZM9.53666 10.25C9.31808 11.2877 8.96513 11.9835 8.6397 12.4391C8.40242 12.7713 8.17167 12.9874 8 13.1209C7.82833 12.9874 7.59758 12.7713 7.3603 12.4391C7.03488 11.9835 6.68192 11.2877 6.46334 10.25H9.53666ZM9.72918 8.75H6.27082C6.25724 8.51224 6.25 8.26243 6.25 8C6.25 7.73757 6.25724 7.48776 6.27082 7.25H9.72918C9.74276 7.48776 9.75 7.73757 9.75 8C9.75 8.26243 9.74276 8.51224 9.72918 8.75ZM11.2313 8.75H13.1968C13.2319 8.50505 13.25 8.25464 13.25 8C13.25 7.74536 13.2319 7.49495 13.1968 7.25H11.2313C11.2436 7.49077 11.25 7.74066 11.25 8C11.25 8.25934 11.2436 8.50923 11.2313 8.75ZM11.0644 5.75H12.7448C12.2191 4.64338 11.3176 3.74984 10.2053 3.23426C10.5629 3.87298 10.8764 4.69618 11.0644 5.75ZM5.79468 3.23426C5.43705 3.87298 5.12357 4.69618 4.93557 5.75H3.25522C3.78092 4.64338 4.68236 3.74984 5.79468 3.23426ZM6.46334 5.75H9.53666C9.31808 4.71226 8.96512 4.01653 8.6397 3.56093C8.40241 3.22873 8.17167 3.01261 8 2.87914C7.82833 3.01261 7.59758 3.22873 7.3603 3.56093C7.03487 4.01653 6.68192 4.71226 6.46334 5.75Z" clip-rule="evenodd"/></svg>