<svg width="16" height="16" viewBox="0 0 16 16" fill="currentcolor" xmlns="http://www.w3.org/2000/svg">
  <path d="M4.91519 9.696C4.72319 9.76 4.55786 9.76534 4.41919 9.712C4.28052 9.648 4.17386 9.55734 4.09919 9.44C4.02452 9.312 3.98719 9.17334 3.98719 9.024C3.98719 8.87467 4.02986 8.736 4.11519 8.608C4.21119 8.48 4.34986 8.38934 4.53119 8.336L11.4432 6.144V7.12L4.53119 4.944C4.34986 4.89067 4.21119 4.8 4.11519 4.672C4.02986 4.544 3.98719 4.41067 3.98719 4.272C3.98719 4.12267 4.02452 3.98934 4.09919 3.872C4.17386 3.744 4.28052 3.65334 4.41919 3.6C4.55786 3.536 4.72319 3.536 4.91519 3.6L11.3312 5.696C11.5765 5.77067 11.7525 5.888 11.8592 6.048C11.9765 6.19734 12.0352 6.39467 12.0352 6.64C12.0352 6.87467 11.9765 7.072 11.8592 7.232C11.7525 7.392 11.5765 7.51467 11.3312 7.6L4.91519 9.696ZM4.69119 12C4.46719 12 4.29119 11.9413 4.16319 11.824C4.03519 11.696 3.97119 11.52 3.97119 11.296C3.97119 11.072 4.03519 10.9013 4.16319 10.784C4.29119 10.656 4.46719 10.592 4.69119 10.592H11.3152C11.5499 10.592 11.7259 10.656 11.8432 10.784C11.9712 10.9013 12.0352 11.072 12.0352 11.296C12.0352 11.52 11.9712 11.696 11.8432 11.824C11.7259 11.9413 11.5499 12 11.3152 12H4.69119Z" fill="currentcolor" />
</svg>
