<svg width="16" height="16" viewBox="0 0 16 16" fill="none" xmlns="http://www.w3.org/2000/svg">
  <path d="M4.85105 12.152C4.66971 12.2267 4.50438 12.2427 4.35505 12.2C4.21638 12.1573 4.10438 12.0773 4.01905 11.96C3.93371 11.8427 3.88571 11.7147 3.87505 11.576C3.86438 11.4267 3.89638 11.288 3.97105 11.16C4.04571 11.0213 4.16838 10.9147 4.33905 10.84L11.315 7.91199V8.90399L4.33905 5.97599C4.16838 5.90133 4.04571 5.79999 3.97105 5.67199C3.89638 5.53333 3.86438 5.38933 3.87505 5.23999C3.88571 5.09066 3.93371 4.95733 4.01905 4.83999C4.10438 4.72266 4.21638 4.64266 4.35505 4.59999C4.50438 4.55733 4.66971 4.57333 4.85105 4.64799L11.251 7.36799C11.7417 7.57066 11.987 7.91199 11.987 8.39199C11.987 8.63733 11.923 8.85066 11.795 9.03199C11.6777 9.20266 11.4964 9.34133 11.251 9.44799L4.85105 12.152Z" fill="currentcolor" />
</svg>
