<svg viewBox="0 0 16 16" fill="currentcolor" xmlns="http://www.w3.org/2000/svg" xmlns:xlink="http://www.w3.org/1999/xlink">
  <path fill-rule="evenodd" clip-rule="evenodd" d="M3.25 5.5a3.25 3.25 0 1 1 6.5 0 3.25 3.25 0 0 1-6.5 0zM6.5 3.75a1.75 1.75 0 1 0 0 3.5 1.75 1.75 0 0 0 0-3.5z" /><path d="M2.75 13c0-.69.56-1.25 1.25-1.25h4c.69 0 1.25.56 1.25 1.25v1a.75.75 0 1 0 1.5 0v-1A2.75 2.75 0 0 0 8 10.25H4A2.75 2.75 0 0 0 1.25 13v1a.75.75 0 1 0 1.5 0v-1zM12 10.25a.75.75 0 0 0 0 1.5h.5a.75.75 0 0 1 .75.75V14a.75.75 0 1 0 1.5 0v-1.5a2.25 2.25 0 0 0-2.25-2.25H12zM14.25 5.5A3.25 3.25 0 0 0 11 2.25a.75.75 0 0 0 0 1.5 1.75 1.75 0 0 1 0 3.5.75.75 0 0 0 0 1.5 3.25 3.25 0 0 0 3.25-3.25z" />
</svg>
