<svg viewBox="0 0 16 16" fill="currentcolor" xmlns="http://www.w3.org/2000/svg" xmlns:xlink="http://www.w3.org/1999/xlink">
  <path d="M8 1.25a.75.75 0 0 1 .75.75v4.145l.031.013L10.97 3.97a.75.75 0 1 1 1.06 1.06L9.842 7.22l.013.031H14a.75.75 0 0 1 0 1.5H9.855a2.01 2.01 0 0 1-.013.031l2.188 2.189a.75.75 0 1 1-1.06 1.06L8.78 9.842a1.97 1.97 0 0 1-.031.013V14a.75.75 0 0 1-1.5 0V9.855a1.97 1.97 0 0 1-.031-.013L5.03 12.03a.75.75 0 0 1-1.06-1.06L6.158 8.78a2.01 2.01 0 0 1-.013-.031H2a.75.75 0 0 1 0-1.5h4.145l.013-.031L3.97 5.03a.75.75 0 0 1 1.06-1.06L7.22 6.158l.031-.013V2A.75.75 0 0 1 8 1.25z" />
</svg>
