<svg viewBox="0 0 16 16" fill="currentcolor" fill-rule="evenodd" xmlns="http://www.w3.org/2000/svg" xmlns:xlink="http://www.w3.org/1999/xlink">
  <path d="M7.245 3.583a.75.75 0 0 0-1.49-.166L5.55 5.25H3.5a.75.75 0 0 0 0 1.5h1.884l-.277 2.5H3.5a.75.75 0 0 0 0 1.5h1.44l-.185 1.667a.75.75 0 1 0 1.49.166l.204-1.833h2.49l-.184 1.667a.75.75 0 1 0 1.49.166l.204-1.833H12.5a.75.75 0 0 0 0-1.5h-1.884l.278-2.5H12.5a.75.75 0 0 0 0-1.5h-1.44l.185-1.667a.75.75 0 0 0-1.49-.166L9.55 5.25h-2.49l.184-1.667zM6.894 6.75l-.278 2.5h2.49l.278-2.5h-2.49z" />
</svg>