<svg viewBox="0 0 16 18" fill="none" xmlns="http://www.w3.org/2000/svg">
<path d="M0.708008 15.859V12.9744C0.708008 12.6228 0.831133 12.324 1.07738 12.0777C1.32363 11.8315 1.62252 11.7083 1.97405 11.7083H3.20801V9.88146C3.20801 9.4659 3.35516 9.1109 3.64947 8.81646C3.94391 8.52215 4.29891 8.375 4.71447 8.375H7.37467V6.29167H6.14072C5.78919 6.29167 5.4903 6.16854 5.24405 5.92229C4.9978 5.67604 4.87467 5.37715 4.87467 5.02562V2.14104C4.87467 1.78951 4.9978 1.49062 5.24405 1.24437C5.4903 0.998125 5.78919 0.875 6.14072 0.875H9.85863C10.2102 0.875 10.509 0.998125 10.7553 1.24437C11.0015 1.49062 11.1247 1.78951 11.1247 2.14104V5.02562C11.1247 5.37715 11.0015 5.67604 10.7553 5.92229C10.509 6.16854 10.2102 6.29167 9.85863 6.29167H8.62467V8.375H11.2849C11.7004 8.375 12.0554 8.52215 12.3499 8.81646C12.6442 9.1109 12.7913 9.4659 12.7913 9.88146V11.7083H14.0253C14.3768 11.7083 14.6757 11.8315 14.922 12.0777C15.1682 12.324 15.2913 12.6228 15.2913 12.9744V15.859C15.2913 16.2105 15.1682 16.5094 14.922 16.7556C14.6757 17.0019 14.3768 17.125 14.0253 17.125H10.3074C9.95586 17.125 9.65697 17.0019 9.41072 16.7556C9.16447 16.5094 9.04134 16.2105 9.04134 15.859V12.9744C9.04134 12.6228 9.16447 12.324 9.41072 12.0777C9.65697 11.8315 9.95586 11.7083 10.3074 11.7083H11.5413V9.88146C11.5413 9.8066 11.5173 9.74514 11.4693 9.69708C11.4212 9.64903 11.3597 9.625 11.2849 9.625H4.71447C4.63961 9.625 4.57815 9.64903 4.53009 9.69708C4.48204 9.74514 4.45801 9.8066 4.45801 9.88146V11.7083H5.69197C6.04349 11.7083 6.34238 11.8315 6.58863 12.0777C6.83488 12.324 6.95801 12.6228 6.95801 12.9744V15.859C6.95801 16.2105 6.83488 16.5094 6.58863 16.7556C6.34238 17.0019 6.04349 17.125 5.69197 17.125H1.97405C1.62252 17.125 1.32363 17.0019 1.07738 16.7556C0.831133 16.5094 0.708008 16.2105 0.708008 15.859ZM6.12467 5.04167H9.87467V2.125H6.12467V5.04167ZM1.95801 15.875H5.70801V12.9583H1.95801V15.875ZM10.2913 15.875H14.0413V12.9583H10.2913V15.875Z" fill="#223800"/>
</svg>
