<svg width="16" height="16" viewBox="0 0 16 16" fill="none" xmlns="http://www.w3.org/2000/svg">
  <path d="M11.0912 9.696L4.67519 7.6C4.44052 7.51467 4.26452 7.392 4.14719 7.232C4.02986 7.072 3.97119 6.87467 3.97119 6.64C3.97119 6.39467 4.02986 6.19734 4.14719 6.048C4.26452 5.888 4.44052 5.77067 4.67519 5.696L11.0912 3.6C11.2832 3.536 11.4485 3.536 11.5872 3.6C11.7259 3.65334 11.8325 3.744 11.9072 3.872C11.9819 3.98934 12.0192 4.12267 12.0192 4.272C12.0192 4.41067 11.9712 4.544 11.8752 4.672C11.7899 4.8 11.6565 4.89067 11.4752 4.944L4.56319 7.12V6.144L11.4752 8.336C11.6565 8.38934 11.7899 8.48 11.8752 8.608C11.9712 8.736 12.0192 8.87467 12.0192 9.024C12.0192 9.17334 11.9819 9.312 11.9072 9.44C11.8325 9.55734 11.7259 9.648 11.5872 9.712C11.4485 9.76534 11.2832 9.76 11.0912 9.696ZM4.69119 12C4.45652 12 4.27519 11.9413 4.14719 11.824C4.02986 11.696 3.97119 11.52 3.97119 11.296C3.97119 11.072 4.02986 10.9013 4.14719 10.784C4.27519 10.656 4.45652 10.592 4.69119 10.592H11.3152C11.5392 10.592 11.7152 10.656 11.8432 10.784C11.9712 10.9013 12.0352 11.072 12.0352 11.296C12.0352 11.52 11.9712 11.696 11.8432 11.824C11.7152 11.9413 11.5392 12 11.3152 12H4.69119Z" fill="currentcolor" />
</svg>
