<svg xmlns="http://www.w3.org/2000/svg" width="16" height="16" fill="none" viewBox="0 0 16 16"><path fill="currentColor" stroke="currentColor" d="M13.9172 2.56414L13.9172 2.5642C14.0199 2.65659 14.0282 2.81466 13.9359 2.91724L14.3075 3.25173L13.9359 2.91725L9.43585 7.91722L9.43582 7.91726C9.36339 7.99775 9.24744 8.02246 9.14848 7.9785C9.14848 7.97849 9.14847 7.97849 9.14846 7.97849L5.15897 6.20535L4.81865 6.05409L4.57627 6.33685L1.93983 9.4127L2.26762 9.69366L1.93983 9.41271C1.84999 9.51752 1.69218 9.52967 1.58734 9.43979L1.58727 9.43973C1.48252 9.34997 1.47032 9.19215 1.5602 9.0873L4.56019 5.58731C4.5602 5.58731 4.5602 5.58731 4.5602 5.58731C4.63212 5.50341 4.75058 5.47668 4.85155 5.52155L4.85155 5.52156L8.85383 7.30035L9.18564 7.44782L9.42855 7.17792L13.5641 2.58277C13.5641 2.58277 13.5641 2.58276 13.5641 2.58276C13.6565 2.48011 13.8147 2.47186 13.9172 2.56414Z"/><path fill="currentColor" stroke="currentColor" d="M14.9172 6.56414L14.9172 6.5642C15.0199 6.65659 15.0282 6.81466 14.9359 6.91724L15.3075 7.25173L14.9359 6.91725L10.4359 11.9172L10.4358 11.9173C10.3634 11.9977 10.2474 12.0225 10.1485 11.9785C10.1485 11.9785 10.1485 11.9785 10.1485 11.9785L6.15897 10.2053L5.81865 10.0541L5.57627 10.3369L2.93983 13.4127L3.26762 13.6937L2.93983 13.4127C2.84999 13.5175 2.69218 13.5297 2.58734 13.4398L2.58727 13.4397C2.48252 13.35 2.47032 13.1922 2.5602 13.0873L5.56019 9.58731C5.5602 9.58731 5.5602 9.58731 5.5602 9.58731C5.63212 9.50341 5.75058 9.47668 5.85155 9.52155L5.85155 9.52156L9.85383 11.3003L10.1856 11.4478L10.4285 11.1779L14.5641 6.58277C14.5641 6.58277 14.5641 6.58276 14.5641 6.58276C14.6565 6.48011 14.8147 6.47186 14.9172 6.56414Z"/></svg>