<svg viewBox="0 0 16 16" fill="currentcolor" xmlns="http://www.w3.org/2000/svg">
    <path d="M8 4.25C8.84405 4.25 9.62331 4.52841 10.25 4.99902V4.5H11.75V9.25C11.75 9.80228 12.1977 10.25 12.75 10.25C13.3023 10.25 13.75 9.80228 13.75 9.25V8C13.75 4.82436 11.1756 2.25 8 2.25C4.82436 2.25 2.25 4.82436 2.25 8C2.25 11.1756 4.82436 13.75 8 13.75H11V15.25H8C3.99594 15.25 0.75 12.0041 0.75 8C0.75 3.99594 3.99594 0.75 8 0.75C12.0041 0.75 15.25 3.99594 15.25 8V9.25C15.25 10.6307 14.1307 11.75 12.75 11.75C11.8808 11.75 11.1159 11.3059 10.668 10.6328C9.98801 11.3218 9.04448 11.75 8 11.75C5.92893 11.75 4.25 10.0711 4.25 8C4.25 5.92893 5.92893 4.25 8 4.25ZM8 5.75C6.75736 5.75 5.75 6.75736 5.75 8C5.75 9.24264 6.75736 10.25 8 10.25C9.24264 10.25 10.25 9.24264 10.25 8C10.25 6.75736 9.24264 5.75 8 5.75Z"/>
</svg>
