<svg viewBox="0 0 16 16" fill="currentcolor" xmlns="http://www.w3.org/2000/svg">
  <path d="M8 1.25a6.751 6.751 0 1 1-.002 13.502A6.751 6.751 0 0 1 8 1.25zm0 1.365a5.385 5.385 0 1 0-.001 10.769A5.385 5.385 0 0 0 8 2.615zm.12 1.63a1.292 1.292 0 0 1 1.09.842l.41.805.922.144a1.29 1.29 0 0 1 1.114.792l.035.095.028.098a1.289 1.289 0 0 1-.43 1.292l-.667.664.145.896a1.288 1.288 0 0 1-1.949 1.429L8 10.882l-.82.42a1.288 1.288 0 0 1-1.947-1.43l.144-.895-.64-.64a1.29 1.29 0 0 1-.426-.596 1.29 1.29 0 0 1-.01-.804l.034-.097c.09-.222.24-.416.434-.558l.086-.057a1.29 1.29 0 0 1 .605-.19l.919-.143.422-.83a1.29 1.29 0 0 1 .45-.582l.086-.056c.205-.123.441-.188.682-.185l.101.005zm-.543 2.3a1.29 1.29 0 0 1-.8.657l-.15.033-.922.143.662.66.1.112a1.293 1.293 0 0 1 .263 1.004l-.147.92.828-.424.14-.061a1.292 1.292 0 0 1 .896 0l.14.061.829.424-.147-.92a1.29 1.29 0 0 1 .046-.602l.057-.143a1.29 1.29 0 0 1 .26-.372l.66-.66-.92-.142a1.293 1.293 0 0 1-.951-.69l-.422-.831-.422.832z" />
</svg>
