<svg viewBox="0 0 14 11" fill="none" xmlns="http://www.w3.org/2000/svg">
<path d="M3.33333 8.67866C3.88544 8.67866 4.42261 8.74127 4.94483 8.86649C5.46706 8.99172 5.98544 9.18811 6.5 9.45566V2.90166C6.03167 2.59655 5.52483 2.36772 4.9795 2.21516C4.43417 2.06261 3.88544 1.98633 3.33333 1.98633C2.93333 1.98633 2.55961 2.01772 2.21217 2.0805C1.86472 2.14338 1.50767 2.24616 1.141 2.38883C1.08978 2.40594 1.05344 2.43055 1.032 2.46266C1.01067 2.49466 1 2.52988 1 2.56833V8.87349C1 8.93338 1.02139 8.97722 1.06417 9.00499C1.10683 9.03277 1.15383 9.03594 1.20517 9.01449C1.52139 8.90683 1.85511 8.82394 2.20633 8.76583C2.55767 8.70772 2.93333 8.67866 3.33333 8.67866ZM7.5 9.45566C8.01456 9.18811 8.53294 8.99172 9.05517 8.86649C9.57739 8.74127 10.1146 8.67866 10.6667 8.67866C11.0667 8.67866 11.4423 8.70772 11.7937 8.76583C12.1449 8.82394 12.4786 8.90683 12.7948 9.01449C12.8462 9.03594 12.8932 9.03277 12.9358 9.00499C12.9786 8.97722 13 8.93338 13 8.87349V2.56833C13 2.52988 12.9893 2.49572 12.968 2.46583C12.9466 2.43594 12.9102 2.41027 12.859 2.38883C12.4923 2.24616 12.1353 2.14338 11.7878 2.0805C11.4404 2.01772 11.0667 1.98633 10.6667 1.98633C10.1146 1.98633 9.56583 2.06261 9.0205 2.21516C8.47517 2.36772 7.96833 2.59655 7.5 2.90166V9.45566ZM7 10.6427C6.87011 10.6427 6.74856 10.6264 6.63533 10.594C6.522 10.5616 6.41495 10.5184 6.31417 10.4645C5.85517 10.2047 5.375 10.0088 4.87367 9.87666C4.37245 9.74466 3.859 9.67866 3.33333 9.67866C2.92656 9.67866 2.527 9.72372 2.13467 9.81383C1.74233 9.90405 1.36411 10.0368 1 10.212C0.762444 10.3213 0.536389 10.304 0.321833 10.16C0.107278 10.016 0 9.81194 0 9.54783V2.30949C0 2.16583 0.0370001 2.03099 0.111 1.90499C0.184889 1.77888 0.2915 1.68805 0.430833 1.6325C0.882056 1.41283 1.35233 1.25022 1.84167 1.14466C2.331 1.03911 2.82822 0.986328 3.33333 0.986328C3.982 0.986328 4.61578 1.075 5.23467 1.25233C5.85344 1.42977 6.44189 1.69155 7 2.03766C7.55811 1.69155 8.14656 1.42977 8.76533 1.25233C9.38422 1.075 10.018 0.986328 10.6667 0.986328C11.1718 0.986328 11.669 1.03911 12.1583 1.14466C12.6477 1.25022 13.1179 1.41283 13.5692 1.6325C13.7085 1.68805 13.8151 1.77888 13.889 1.90499C13.963 2.03099 14 2.16583 14 2.30949V9.54783C14 9.81194 13.8884 10.0139 13.6653 10.1537C13.4422 10.2933 13.2076 10.3085 12.9615 10.1992C12.6017 10.0282 12.2289 9.89866 11.843 9.81066C11.4571 9.72266 11.065 9.67866 10.6667 9.67866C10.141 9.67866 9.62756 9.74466 9.12633 9.87666C8.625 10.0088 8.14483 10.2047 7.68583 10.4645C7.58506 10.5184 7.478 10.5616 7.36467 10.594C7.25144 10.6264 7.12989 10.6427 7 10.6427ZM8.29483 3.90683C8.29483 3.8325 8.32133 3.75644 8.37433 3.67866C8.42733 3.60088 8.48761 3.54744 8.55517 3.51833C8.88595 3.38588 9.22633 3.2855 9.57633 3.21716C9.92633 3.14872 10.2898 3.11449 10.6667 3.11449C10.8847 3.11449 11.0956 3.12733 11.2993 3.15299C11.5032 3.17866 11.7086 3.21372 11.9153 3.25816C11.994 3.27605 12.0619 3.31877 12.1192 3.38633C12.1765 3.45388 12.2052 3.5325 12.2052 3.62216C12.2052 3.77261 12.1579 3.88266 12.0635 3.95233C11.9691 4.022 11.8466 4.03888 11.6962 4.00299C11.5363 3.96966 11.3702 3.94572 11.198 3.93116C11.0258 3.91661 10.8487 3.90933 10.6667 3.90933C10.3436 3.90933 10.0271 3.94033 9.71733 4.00233C9.40744 4.06433 9.11194 4.14833 8.83083 4.25433C8.6735 4.31499 8.54483 4.31155 8.44483 4.244C8.34483 4.17655 8.29483 4.06416 8.29483 3.90683ZM8.29483 7.54783C8.29483 7.4735 8.32133 7.39638 8.37433 7.31649C8.42733 7.23661 8.48761 7.18211 8.55517 7.153C8.87739 7.02055 9.21778 6.92122 9.57633 6.85499C9.93489 6.78877 10.2983 6.75566 10.6667 6.75566C10.8847 6.75566 11.0956 6.76844 11.2993 6.794C11.5032 6.81966 11.7086 6.85472 11.9153 6.89916C11.994 6.91716 12.0619 6.95988 12.1192 7.02733C12.1765 7.09488 12.2052 7.17355 12.2052 7.26333C12.2052 7.41366 12.1579 7.52366 12.0635 7.59333C11.9691 7.66299 11.8466 7.67988 11.6962 7.64399C11.5363 7.61066 11.3702 7.58672 11.198 7.57216C11.0258 7.55772 10.8487 7.55049 10.6667 7.55049C10.3479 7.55049 10.0346 7.58083 9.72683 7.6415C9.41917 7.70216 9.12472 7.78761 8.8435 7.89783C8.68628 7.96283 8.55556 7.96116 8.45133 7.89283C8.347 7.82438 8.29483 7.70938 8.29483 7.54783ZM8.29483 5.73383C8.29483 5.65949 8.32133 5.58344 8.37433 5.50566C8.42733 5.42788 8.48761 5.37444 8.55517 5.34533C8.88595 5.21288 9.22633 5.11244 9.57633 5.04399C9.92633 4.97566 10.2898 4.94149 10.6667 4.94149C10.8847 4.94149 11.0956 4.95433 11.2993 4.97999C11.5032 5.00555 11.7086 5.04055 11.9153 5.085C11.994 5.103 12.0619 5.14577 12.1192 5.21333C12.1765 5.28077 12.2052 5.35938 12.2052 5.44916C12.2052 5.59961 12.1579 5.70966 12.0635 5.77933C11.9691 5.84899 11.8466 5.86588 11.6962 5.82999C11.5363 5.79666 11.3702 5.77272 11.198 5.75816C11.0258 5.74361 10.8487 5.73633 10.6667 5.73633C10.3436 5.73633 10.0271 5.76733 9.71733 5.82933C9.40744 5.89122 9.11194 5.97516 8.83083 6.08116C8.6735 6.14183 8.54483 6.13844 8.44483 6.07099C8.34483 6.00344 8.29483 5.89105 8.29483 5.73383Z" fill="#223800"/>
</svg>
