<svg viewBox="0 0 16 16" fill="currentcolor" xmlns="http://www.w3.org/2000/svg">
  <path d="M12.678 1.9c1.42 0 2.572 1.112 2.572 2.483v7.227c0 1.372-1.152 2.483-2.572 2.483H3.322c-1.42 0-2.572-1.111-2.572-2.483V4.383C.75 3.012 1.902 1.9 3.322 1.9h9.356zM3.322 3.254c-.645 0-1.168.506-1.169 1.13v6.323c0 .903.524 1.128 1.17 1.128h9.355c.645 0 1.169-.505 1.169-1.128V4.383c0-.623-.524-1.128-1.17-1.129H3.323zM6.934 8.25c0 .322.344.933 1.066.933.722 0 1.066-.611 1.066-.933H10C10 9.216 9.105 10 8 10s-2-.784-2-1.75h.934zm-1.059-3a.875.875 0 1 1 0 1.75.875.875 0 0 1 0-1.75zm4.25 0a.875.875 0 1 1 0 1.75.875.875 0 0 1 0-1.75z" />
</svg>
