<svg viewBox="0 0 16 16" fill="currentcolor" xmlns="http://www.w3.org/2000/svg" xmlns:xlink="http://www.w3.org/1999/xlink">
    <path d="M9.346 1.256a1.29 1.29 0 0 1 1.157 1.284v2.426a1.29 1.29 0 0 1-1.29 1.29h-.53v1.061h2.958a1.29 1.29 0 0 1 1.289 1.29v1.138h.53l.133.006a1.29 1.29 0 0 1 1.157 1.283v2.426a1.29 1.29 0 0 1-1.29 1.29h-2.426a1.29 1.29 0 0 1-1.283-1.157l-.006-.133v-2.426c0-.712.577-1.29 1.29-1.29h.53V8.684H4.436v1.062h.53l.133.006a1.29 1.29 0 0 1 1.157 1.283v2.426a1.29 1.29 0 0 1-1.29 1.29H2.54a1.29 1.29 0 0 1-1.283-1.157l-.007-.133v-2.426c0-.712.578-1.29 1.29-1.29h.531V8.608a1.29 1.29 0 0 1 1.29-1.29h2.956V6.255h-.53a1.29 1.29 0 0 1-1.283-1.157l-.007-.132V2.54c0-.712.578-1.29 1.29-1.29h2.426l.133.006zm-6.73 12.129h2.275V11.11H2.616v2.275zm8.494 0h2.275V11.11H11.11v2.275zM6.862 4.89h2.276V2.615H6.862V4.89z" />
</svg>
