<svg viewBox="0 0 16 16" fill="currentcolor" xmlns="http://www.w3.org/2000/svg">
    <path d="M12 1.25C13.5188 1.25 14.75 2.48122 14.75 4V12C14.75 13.5188 13.5188 14.75 12 14.75H6.82812C6.09889 14.7499 5.39944 14.46 4.88379 13.9443L2.05566 11.1162C1.54001 10.6006 1.25008 9.90111 1.25 9.17188V4C1.25 2.48122 2.48122 1.25 4 1.25H12ZM4 2.75C3.30964 2.75 2.75 3.30964 2.75 4V9.17188C2.75001 9.19804 2.75227 9.22403 2.75391 9.25H5C5.9665 9.25 6.75 10.0335 6.75 11V13.2461C6.77597 13.2477 6.80196 13.25 6.82812 13.25H12C12.6904 13.25 13.25 12.6904 13.25 12V4C13.25 3.30964 12.6904 2.75 12 2.75H4ZM5.25 12.1895V11C5.25 10.8619 5.13807 10.75 5 10.75H3.81055L5.25 12.1895Z" />
</svg>
