<svg viewBox="0 0 12 12" fill="currentcolor" xmlns="http://www.w3.org/2000/svg">
    <path d="M9 0.424805C10.4221 0.424805 11.5752 1.57787 11.5752 3V9C11.5752 10.4221 10.4221 11.5752 9 11.5752H5.82812C5.1453 11.5751 4.49065 11.3031 4.00781 10.8203L1.17871 7.99219C0.696087 7.50939 0.424885 6.85454 0.424805 6.17188V3C0.424805 1.57787 1.57791 0.42483 3 0.424805H9ZM3 1.5752C2.213 1.57522 1.5752 2.21303 1.5752 3V6.17188C1.57521 6.25731 1.58368 6.34184 1.59863 6.4248H4C4.86985 6.4248 5.5752 7.13015 5.5752 8V10.4004C5.65822 10.4154 5.74263 10.4248 5.82812 10.4248H9C9.78701 10.4248 10.4248 9.78701 10.4248 9V3C10.4248 2.21299 9.78701 1.5752 9 1.5752H3ZM4.4248 9.6123V8C4.4248 7.76528 4.23472 7.5752 4 7.5752H2.3877L4.4248 9.6123Z" />
</svg>
