<svg viewBox="0 0 16 16" fill="currentcolor" xmlns="http://www.w3.org/2000/svg" xmlns:xlink="http://www.w3.org/1999/xlink">
  <path d="M9.58 6.39c.201 0 .355.065.463.194.108.13.162.291.162.486 0 .239-.094.459-.282.66-.123.129-.393.343-.81.641-.48.343-.785.668-.914.974a2.162 2.162 0 0 0-.212.905h3.151v-.797H9.13a1.04 1.04 0 0 1 .21-.25c.084-.072.24-.189.466-.35l.362-.257c.305-.215.524-.411.657-.587a1.45 1.45 0 0 0 .305-.907c0-.445-.144-.801-.432-1.07-.288-.27-.675-.406-1.161-.406-.616 0-1.045.23-1.286.688-.127.242-.198.558-.212.95h.879c.01-.259.044-.447.101-.566.1-.205.287-.307.562-.307zM5.818 10.25h.926V5.648h-.752c0 .04-.011.102-.035.184a.794.794 0 0 1-.177.33.846.846 0 0 1-.445.241 4.01 4.01 0 0 1-.6.057v.616h1.083v3.174z" /><path fill-rule="evenodd" clip-rule="evenodd" d="M4 2.25A1.75 1.75 0 0 0 2.25 4v8c0 .966.784 1.75 1.75 1.75h8A1.75 1.75 0 0 0 13.75 12V4A1.75 1.75 0 0 0 12 2.25H4zM3.75 4A.25.25 0 0 1 4 3.75h8a.25.25 0 0 1 .25.25v8a.25.25 0 0 1-.25.25H4a.25.25 0 0 1-.25-.25V4z" />
</svg>
