<svg xmlns="http://www.w3.org/2000/svg" viewBox="0 0 16 16" fill="currentColor">
  <path d="M13.7578 7.23307C15.0527 7.23325 15.9068 8.58095 15.3555 9.7526L13.8112 13.0365C13.4099 13.8891 12.5518 14.4334 11.6094 14.4336H3C1.65611 14.4336 0.566406 13.3439 0.566406 12V3.66667C0.566406 2.50687 1.50687 1.56641 2.66667 1.56641H6C6.66082 1.56641 7.28308 1.87771 7.67969 2.40625L8.88021 4.00651C8.98723 4.1492 9.15497 4.23307 9.33333 4.23307H11C11.9757 4.23307 12.7669 5.0243 12.7669 6V6.66667H11.2331V6C11.2331 5.87113 11.1289 5.76693 11 5.76693H9.33333C8.67252 5.76693 8.05025 5.45562 7.65365 4.92708L6.45312 3.32682C6.34611 3.18413 6.17836 3.10026 6 3.10026H2.66667C2.35371 3.10026 2.10026 3.35371 2.10026 3.66667V12C2.10026 12.4971 2.50294 12.8997 3 12.8997H11.6094C11.9578 12.8996 12.2748 12.6981 12.4232 12.3828L13.9688 9.09896C14.0412 8.94436 13.9286 8.76711 13.7578 8.76693H6.76953C6.56727 8.76702 6.37986 8.87436 6.27865 9.04948L5.125 11.0495L3.79688 10.2839L4.95052 8.28385C5.3256 7.63419 6.01938 7.23317 6.76953 7.23307H13.7578Z"/>
</svg>
