<svg viewBox="0 0 16 16" fill="none" xmlns="http://www.w3.org/2000/svg">
  <path
    d="M5.325 6.216V7H2.42V6.216H3.4V3.6435C3.4 3.57817 3.40117 3.51284 3.4035 3.4475C3.40583 3.37984 3.40933 3.31217 3.414 3.2445L2.833 3.7275C2.78167 3.76717 2.73033 3.79167 2.679 3.801C2.63 3.808 2.58333 3.808 2.539 3.801C2.49467 3.79167 2.455 3.7765 2.42 3.7555C2.385 3.73217 2.35933 3.70884 2.343 3.6855L2 3.2305L3.589 1.897H4.485V6.216H5.325Z"
    fill="currentcolor" />
  <path
    d="M5.206 13.02C5.32267 13.02 5.41483 13.0527 5.4825 13.118C5.55017 13.181 5.584 13.265 5.584 13.37V14H2V13.65C2 13.5823 2.014 13.51 2.042 13.433C2.07 13.356 2.119 13.286 2.189 13.223L3.659 11.7425C3.785 11.6165 3.89467 11.4963 3.988 11.382C4.08133 11.2677 4.15833 11.1557 4.219 11.046C4.27967 10.934 4.32517 10.8232 4.3555 10.7135C4.38583 10.6015 4.401 10.4837 4.401 10.36C4.401 10.157 4.352 10.0018 4.254 9.89451C4.15833 9.78485 4.01133 9.73001 3.813 9.73001C3.652 9.73001 3.5155 9.77318 3.4035 9.85951C3.29383 9.94351 3.218 10.0485 3.176 10.1745C3.127 10.3028 3.06283 10.388 2.9835 10.43C2.90417 10.472 2.791 10.4813 2.644 10.458L2.07 10.3565C2.10733 10.1022 2.1785 9.88051 2.2835 9.69151C2.39083 9.50251 2.52267 9.34501 2.679 9.21901C2.83767 9.09301 3.0185 8.99968 3.2215 8.93901C3.4245 8.87601 3.64267 8.84451 3.876 8.84451C4.128 8.84451 4.35433 8.88185 4.555 8.95651C4.758 9.02885 4.93067 9.13035 5.073 9.26101C5.21533 9.39168 5.32383 9.54801 5.3985 9.73001C5.4755 9.90968 5.514 10.108 5.514 10.325C5.514 10.5117 5.48717 10.6843 5.4335 10.843C5.38217 11.0017 5.311 11.1533 5.22 11.298C5.129 11.4403 5.02283 11.5792 4.9015 11.7145C4.7825 11.8475 4.65533 11.9828 4.52 12.1205L3.5225 13.1425C3.65083 13.1028 3.778 13.0725 3.904 13.0515C4.03 13.0305 4.14667 13.02 4.254 13.02H5.206Z"
    fill="currentcolor" />
  <path
    d="M7.88235 3C7.67119 3 7.5 3.22386 7.5 3.5V4.5C7.5 4.77614 7.67119 5 7.88235 5H13.6175C13.8288 5 13.9999 4.77614 13.9999 4.5V3.5C13.9999 3.22386 13.8288 3 13.6175 3H7.88235Z"
    fill="currentcolor" />
  <path
    d="M7.5 7.5C7.5 7.22386 7.67119 7 7.88235 7H13.6176C13.8288 7 14 7.22386 14 7.5V8.5C14 8.77614 13.8288 9 13.6176 9H7.88235C7.67119 9 7.5 8.77614 7.5 8.5V7.5Z"
    fill="currentcolor" />
  <path
    d="M7.88235 11C7.67119 11 7.5 11.2239 7.5 11.5V12.5C7.5 12.7761 7.67119 13 7.88235 13H13.6175C13.8288 13 13.9999 12.7761 13.9999 12.5V11.5C13.9999 11.2239 13.8288 11 13.6175 11H7.88235Z"
    fill="currentcolor" />
</svg>