<svg width="16" height="16" viewBox="0 0 16 16" fill="none" xmlns="http://www.w3.org/2000/svg">
<path d="M4 8C4 8.41422 3.66422 8.75 3.25 8.75C2.83578 8.75 2.5 8.41422 2.5 8C2.5 7.58578 2.83578 7.25 3.25 7.25C3.66422 7.25 4 7.58578 4 8Z" fill="currentColor" stroke="currentColor"/>
<path d="M8.75 8C8.75 8.41422 8.41422 8.75 8 8.75C7.58578 8.75 7.25 8.41422 7.25 8C7.25 7.58578 7.58578 7.25 8 7.25C8.41422 7.25 8.75 7.58578 8.75 8Z" fill="currentColor" stroke="currentColor"/>
<path d="M13.5 8C13.5 8.41423 13.1642 8.75 12.75 8.75C12.3358 8.75 12 8.41423 12 8C12 7.58577 12.3358 7.25 12.75 7.25C13.1642 7.25 13.5 7.58577 13.5 8Z" fill="currentColor" stroke="currentColor"/>
</svg>
