<svg xmlns="http://www.w3.org/2000/svg" width="16" height="16" fill="currentcolor"><path d="M12.358 3.483a.236.236 0 0 0-.333 0L5.288 10.22l-.61 2.437 2.438-.61 6.737-6.736a.236.236 0 0 0 0-.333l-1.495-1.495Zm-1.333-1a1.65 1.65 0 0 1 2.333 0l1.495 1.495a1.65 1.65 0 0 1 0 2.333l-6.875 6.875a.706.706 0 0 1-.329.186l-3.77.943a.707.707 0 0 1-.858-.857l.943-3.771a.707.707 0 0 1 .186-.329l6.875-6.875Z" clip-rule="evenodd"/><rect width="7" height="1.5" x="1" y="2" rx=".75"/><rect width="4.5" height="1.5" x="1" y="5" rx=".75"/><rect width="2" height="1.5" x="1" y="8" rx=".75"/></svg>