<svg width="16" height="16" viewBox="0 0 16 16" fill="none" xmlns="http://www.w3.org/2000/svg">
<path fill-rule="evenodd" clip-rule="evenodd" d="M7.25 8C7.25 8.41421 7.58579 8.75 8 8.75H14C14.1989 8.75 14.3897 8.67098 14.5303 8.53033C14.671 8.38968 14.75 8.19891 14.75 8C14.75 7.11358 14.5754 6.23583 14.2362 5.41689C13.897 4.59794 13.3998 3.85382 12.773 3.22703C12.1462 2.60023 11.4021 2.10303 10.5831 1.76381C9.76417 1.42459 8.88642 1.25 8 1.25C7.58579 1.25 7.25 1.58579 7.25 2V8ZM13.1962 7.25H8.75V2.80385C9.18149 2.86613 9.60451 2.98205 10.0091 3.14963C10.646 3.41347 11.2248 3.80018 11.7123 4.28769C12.1998 4.7752 12.5865 5.35395 12.8504 5.99091C13.0179 6.39549 13.1339 6.81851 13.1962 7.25Z" fill="currentColor"/>
<path d="M5.34172 3.65082C5.70108 3.44482 5.82541 2.98652 5.61942 2.62715C5.41343 2.26779 4.95512 2.14346 4.59576 2.34945C3.94021 2.72522 3.35043 3.21066 2.85402 3.78772C2.05254 4.7194 1.52572 5.85355 1.33247 7.06494C1.13921 8.27634 1.28718 9.51712 1.75979 10.6499C2.23238 11.7826 3.01096 12.7628 4.00875 13.4825C5.0065 14.2023 6.18476 14.6337 7.4132 14.7297C8.64164 14.8256 9.87311 14.5825 10.9716 14.0268C12.0701 13.4711 12.9932 12.6243 13.6382 11.5792C13.8558 11.2267 13.7464 10.7646 13.3939 10.5471C13.0414 10.3295 12.5793 10.4389 12.3618 10.7914C11.8625 11.6002 11.1473 12.257 10.2945 12.6884C9.44165 13.1198 8.48487 13.3088 7.53005 13.2342C6.57524 13.1596 5.66028 12.8243 4.88628 12.266C4.11232 11.7077 3.50963 10.9484 3.14414 10.0723C2.77867 9.19635 2.6644 8.23737 2.81374 7.30124C2.96308 6.3651 3.37034 5.48761 3.99115 4.76595C4.3757 4.31893 4.83294 3.94246 5.34172 3.65082Z" fill="currentColor"/>
</svg>
