<svg viewBox="0 0 16 16" fill="currentcolor" xmlns="http://www.w3.org/2000/svg" xmlns:xlink="http://www.w3.org/1999/xlink">
  <path fill-rule="evenodd" clip-rule="evenodd" d="M6.225 3.48c.204-1.428 1.95-2.01 2.97-.99l4.242 4.242c1.02 1.02.438 2.766-.99 2.97l-.79.113c-.881.126-1.535.88-1.535 1.77 0 1.421-1.72 2.133-2.725 1.128L3.214 8.53C2.21 7.525 2.921 5.806 4.343 5.806c.89 0 1.643-.654 1.769-1.535l.113-.791zm1.91.07a.25.25 0 0 0-.425.142l-.113.791a3.287 3.287 0 0 1-3.254 2.823c-.032 0-.047.008-.055.013a.104.104 0 0 0-.034.046.104.104 0 0 0-.008.056c.002.01.006.026.029.048l4.183 4.183c.023.023.038.027.048.03a.104.104 0 0 0 .057-.009.104.104 0 0 0 .045-.034c.006-.008.014-.022.014-.054a3.287 3.287 0 0 1 2.822-3.255l.791-.113a.25.25 0 0 0 .142-.424L8.134 3.55z" /><path d="M4.338 10.588a.125.125 0 0 0-.188.014l-1.95 2.6c-.26.347.178.785.525.525l2.6-1.95a.125.125 0 0 0 .013-.189l-1-1z" />
</svg>
