<svg viewBox="0 0 16 16" fill="currentcolor" xmlns="http://www.w3.org/2000/svg" xmlns:xlink="http://www.w3.org/1999/xlink">
  <path d="M7.589 14.627L8 14l.41.627a.75.75 0 0 1-.821 0zM9.5 7a1.5 1.5 0 1 1-3 0 1.5 1.5 0 0 1 3 0z" /><path fill-rule="evenodd" clip-rule="evenodd" d="M7.589 14.627L8 14c.41.627.412.627.412.627h.001l.004-.004.013-.008.048-.033.17-.118a17.54 17.54 0 0 0 2.391-2.057c1.28-1.325 2.711-3.282 2.711-5.498 0-1.505-.61-2.946-1.689-4.006A5.797 5.797 0 0 0 8 1.25c-1.52 0-2.982.593-4.061 1.653A5.614 5.614 0 0 0 2.25 6.909c0 2.216 1.432 4.173 2.71 5.498a17.545 17.545 0 0 0 2.562 2.175l.048.032.013.01.004.002.002.001zm-2.6-10.654A4.297 4.297 0 0 1 8 2.75c1.132 0 2.214.441 3.01 1.223a4.114 4.114 0 0 1 1.24 2.936c0 1.603-1.068 3.19-2.29 4.457A16.036 16.036 0 0 1 8 13.08a16.036 16.036 0 0 1-1.96-1.716C4.818 10.1 3.75 8.513 3.75 6.91c0-1.098.444-2.155 1.24-2.936z" />
</svg>
