<svg viewBox="0 0 16 16" fill="currentcolor" xmlns="http://www.w3.org/2000/svg">  <path d="M12.293 1.25a1.229 1.229 0 0 1 1.228 1.229v11.044a1.227 1.227 0 0 1-1.228 1.227h-7.67a2.149 2.149 0 0 1-2.136-1.935l-.012-.213V3.398A2.149 2.149 0 0 1 4.624 1.25h7.67zm-7.67 10.433a.92.92 0 0 0-.92.92l.005.09a.923.923 0 0 0 .916.83h7.67v-1.84h-7.67zm0-9.204a.92.92 0 0 0-.92.92v7.265c.286-.135.6-.209.92-.209h7.67V2.48h-7.67zM8 3.859c.338 0 .614.275.614.614v1.226h1.226a.615.615 0 0 1 0 1.228H8.613v1.227a.615.615 0 0 1-1.229 0V6.927H6.158a.614.614 0 1 1 0-1.228h1.226V4.473c0-.34.276-.615.615-.615z" />
</svg>
