<svg viewBox="0 0 32 32" fill="currentcolor" xmlns="http://www.w3.org/2000/svg" xmlns:xlink="http://www.w3.org/1999/xlink">
  <path d="M16,32 C24.836556,32 32,24.836556 32,16 C32,7.163444 24.836556,0 16,0 C7.163444,0 0,7.163444 0,16 C0,24.836556 7.163444,32 16,32 L16,32 Z M16,29.0909091 C8.77009055,29.0909091 2.90909091,23.2299095 2.90909091,16 C2.90909091,8.77009055 8.77009055,2.90909091 16,2.90909091 C23.2299095,2.90909091 29.0909091,8.77009055 29.0909091,16 C29.0909091,23.2299095 23.2299095,29.0909091 16,29.0909091 Z M12,9.56020942 C12.2727286,9.34380346 12.5694087,9.1413622 12.8900491,8.95287958 C13.2106896,8.76439696 13.5552807,8.59860455 13.9238329,8.45549738 C14.2923851,8.31239021 14.6885728,8.20069848 15.1124079,8.12041885 C15.5362429,8.04013921 15.9950835,8 16.4889435,8 C17.1818216,8 17.8065083,8.08725916 18.3630221,8.2617801 C18.919536,8.43630105 19.3931184,8.68586225 19.7837838,9.0104712 C20.1744491,9.33508016 20.4748147,9.7260012 20.6848894,10.1832461 C20.8949642,10.6404909 21,11.1483393 21,11.7068063 C21,12.2373499 20.9226052,12.6963331 20.7678133,13.0837696 C20.6130213,13.4712061 20.4176916,13.8080265 20.1818182,14.0942408 C19.9459448,14.3804552 19.6861194,14.6282712 19.4023342,14.8376963 C19.1185489,15.0471215 18.8495099,15.2408368 18.5952088,15.4188482 C18.3409078,15.5968595 18.1197798,15.773123 17.9318182,15.947644 C17.7438566,16.1221649 17.6240789,16.3176254 17.5724816,16.5340314 L17.2628993,18 L14.9189189,18 L14.6756757,16.3141361 C14.6167073,15.9720751 14.653562,15.6736487 14.7862408,15.4188482 C14.9189196,15.1640476 15.1013502,14.9336834 15.3335381,14.7277487 C15.565726,14.521814 15.8255514,14.3263535 16.1130221,14.1413613 C16.4004928,13.9563691 16.6695319,13.7574182 16.9201474,13.5445026 C17.1707629,13.3315871 17.3826773,13.0942421 17.5558968,12.8324607 C17.7291163,12.5706793 17.8157248,12.2582915 17.8157248,11.895288 C17.8157248,11.4764377 17.6701489,11.1431077 17.3789926,10.895288 C17.0878364,10.6474682 16.6879632,10.5235602 16.1793612,10.5235602 C15.7886958,10.5235602 15.462532,10.5619542 15.20086,10.6387435 C14.9391879,10.7155327 14.7143744,10.8010466 14.5264128,10.895288 C14.3384511,10.9895293 14.1744479,11.0750432 14.034398,11.1518325 C13.8943482,11.2286217 13.7543005,11.2670157 13.6142506,11.2670157 C13.2972957,11.2670157 13.0614258,11.1378721 12.9066339,10.8795812 L12,9.56020942 Z M14,22 C14,21.7192968 14.0511359,21.4580909 14.1534091,21.2163743 C14.2556823,20.9746577 14.3958324,20.7641335 14.5738636,20.5847953 C14.7518948,20.4054572 14.96212,20.2631584 15.2045455,20.1578947 C15.4469709,20.0526311 15.7121198,20 16,20 C16.2803044,20 16.5416655,20.0526311 16.7840909,20.1578947 C17.0265164,20.2631584 17.2386355,20.4054572 17.4204545,20.5847953 C17.6022736,20.7641335 17.7443177,20.9746577 17.8465909,21.2163743 C17.9488641,21.4580909 18,21.7192968 18,22 C18,22.2807032 17.9488641,22.5438584 17.8465909,22.7894737 C17.7443177,23.0350889 17.6022736,23.2475625 17.4204545,23.4269006 C17.2386355,23.6062387 17.0265164,23.7465882 16.7840909,23.8479532 C16.5416655,23.9493182 16.2803044,24 16,24 C15.7121198,24 15.4469709,23.9493182 15.2045455,23.8479532 C14.96212,23.7465882 14.7518948,23.6062387 14.5738636,23.4269006 C14.3958324,23.2475625 14.2556823,23.0350889 14.1534091,22.7894737 C14.0511359,22.5438584 14,22.2807032 14,22 Z" />
</svg>
