<svg viewBox="0 0 16 16" fill="currentcolor" xmlns="http://www.w3.org/2000/svg"><path d="M6.08 1.18a.666.666 0 0 1 .757.048l1.16.92 1.136-.916.093-.062a.665.665 0 0 1 .723.048l1.28.96 1.391-.973a.665.665 0 0 1 1.047.545v12.503a.665.665 0 0 1-.991.579l-1.449-.814-1.334.804a.665.665 0 0 1-.705-.012l-1.192-.77-1.216.773a.666.666 0 0 1-.74-.017l-1.099-.774-1.644.825a.665.665 0 0 1-.963-.594V1.75a.666.666 0 0 1 1.018-.564l1.58.988 1.052-.924.096-.07zm2.337 2.337a.665.665 0 0 1-.83.004l-1.143-.905-1.006.884a.665.665 0 0 1-.79.064l-.984-.615v10.226l1.038-.52.084-.035a.666.666 0 0 1 .597.086l1.058.746 1.203-.764.085-.045a.665.665 0 0 1 .632.048l1.201.778 1.311-.788.08-.041a.666.666 0 0 1 .589.03l.795.446V3.026l-.74.519a.665.665 0 0 1-.78-.013l-1.253-.94-1.147.925zm.21 6.41a.576.576 0 0 1 0 1.15H5.501a.575.575 0 0 1 0-1.15h3.126zm1.875-2.501a.576.576 0 0 1 0 1.15H5.501a.575.575 0 0 1 0-1.15h5.001zm-1.25-2.5a.576.576 0 0 1 0 1.15H5.501a.575.575 0 0 1 0-1.15h3.751z" /></svg>