<svg viewBox="0 0 16 16" fill="currentcolor" fill-rule="evenodd" clip-rule="evenodd" xmlns="http://www.w3.org/2000/svg" xmlns:xlink="http://www.w3.org/1999/xlink">
  <path d="M2 2.25a.75.75 0 0 0-.75.75v9c0 .414.336.75.75.75h3.172c.331 0 .649.132.883.366L7.47 14.53a.75.75 0 0 0 1.06 0l1.415-1.414a1.25 1.25 0 0 1 .883-.366H14a.75.75 0 0 0 .75-.75V3a.75.75 0 0 0-.75-.75h-3.172c-.729 0-1.428.29-1.944.805L8 3.94l-.884-.883a2.75 2.75 0 0 0-1.944-.806H2zm.75 9v-7.5h2.422c.331 0 .649.132.883.366L7.25 5.311v6.878l-.134-.133a2.75 2.75 0 0 0-1.944-.806H2.75zm6 .94l.134-.135a2.75 2.75 0 0 1 1.944-.805h2.422v-7.5h-2.422c-.331 0-.649.132-.883.366L8.75 5.311v6.878z" />
</svg>