<svg width="17" height="16" viewBox="0 0 17 16" fill="none" xmlns="http://www.w3.org/2000/svg">
<path d="M2.25 3.5C2.25 2.80964 2.80964 2.25 3.5 2.25H5.5C6.19036 2.25 6.75 2.80964 6.75 3.5V5.5C6.75 6.19036 6.19036 6.75 5.5 6.75H3.5C2.80964 6.75 2.25 6.19036 2.25 5.5V3.5ZM3.5 2.75C3.08579 2.75 2.75 3.08579 2.75 3.5V5.5C2.75 5.91421 3.08579 6.25 3.5 6.25H5.5C5.91421 6.25 6.25 5.91421 6.25 5.5V3.5C6.25 3.08579 5.91421 2.75 5.5 2.75H3.5Z" fill="currentcolor" stroke="currentcolor"/>
<path d="M2.25 10.5C2.25 9.80964 2.80964 9.25 3.5 9.25H5.5C6.19036 9.25 6.75 9.80964 6.75 10.5V12.5C6.75 13.1904 6.19036 13.75 5.5 13.75H3.5C2.80964 13.75 2.25 13.1904 2.25 12.5V10.5ZM3.5 9.75C3.08583 9.75 2.75 10.0857 2.75 10.5V12.5C2.75 12.9143 3.08583 13.25 3.5 13.25H5.5C5.91417 13.25 6.25 12.9143 6.25 12.5V10.5C6.25 10.0857 5.91417 9.75 5.5 9.75H3.5Z" fill="currentcolor" stroke="currentcolor"/>
<path d="M9.5 12.25L10.1 13.05L10.7 13.85C10.7 13.85 10.7 13.85 10.7 13.85C10.7829 13.9606 10.7604 14.1172 10.65 14.2C10.5395 14.2829 10.3828 14.2604 10.3 14.15L10.3 14.15L8.80002 12.15C8.80001 12.15 8.80001 12.15 8.8 12.15C8.7333 12.061 8.73338 11.9388 8.79996 11.85L8.8 11.85L10.3 9.84998C10.3828 9.73953 10.5395 9.71713 10.65 9.79999C10.7604 9.88278 10.7829 10.0394 10.7 10.15C10.7 10.15 10.7 10.15 10.7 10.15L10.1 10.95L9.5 11.75H10.5H12.5C13.4665 11.75 14.25 10.9665 14.25 10V6C14.25 5.03351 13.4666 4.25 12.5 4.25H9.5C9.36193 4.25 9.25 4.13807 9.25 4C9.25 3.86193 9.36193 3.75 9.5 3.75H12.5C13.7427 3.75 14.75 4.75736 14.75 6V10C14.75 11.2427 13.7427 12.25 12.5 12.25H10.5H9.5Z" fill="currentcolor" stroke="currentcolor"/>
</svg>
