<svg width="16" height="16" viewBox="0 0 16 16"  fill="currentcolor" xmlns="http://www.w3.org/2000/svg">
<path d="M10 2.25C9.30964 2.25 8.75 2.80964 8.75 3.5V12.5C8.75 13.1904 9.30964 13.75 10 13.75V15.25C9.21077 15.25 8.50151 14.9153 8 14.3828C7.49849 14.9153 6.78923 15.25 6 15.25V13.75C6.69036 13.75 7.25 13.1904 7.25 12.5V3.5C7.25 2.80964 6.69036 2.25 6 2.25V0.75C6.78898 0.75 7.49851 1.08399 8 1.61621C8.50149 1.08399 9.21102 0.75 10 0.75V2.25ZM5.5 5.75H3.5C3.08579 5.75 2.75 6.08579 2.75 6.5V9.5C2.75 9.91421 3.08579 10.25 3.5 10.25H5.5V11.75H3.5C2.25736 11.75 1.25 10.7426 1.25 9.5V6.5C1.25 5.25736 2.25736 4.25 3.5 4.25H5.5V5.75ZM12.5 4.25C13.7426 4.25 14.75 5.25736 14.75 6.5V9.5C14.75 10.7426 13.7426 11.75 12.5 11.75H10.5V10.25H12.5C12.9142 10.25 13.25 9.91421 13.25 9.5V6.5C13.25 6.08579 12.9142 5.75 12.5 5.75H10.5V4.25H12.5Z" />
</svg>
