<svg fill="currentcolor" viewBox="1 0 10 10" xmlns="http://www.w3.org/2000/svg" xmlns:xlink="http://www.w3.org/1999/xlink">
  <path d="M6.56503 10.0951L5.75003 8.18008C6.53503 7.89008 7.27003 7.50008 7.95003 7.04508L6.56503 10.0951ZM2.82003 5.25008L0.905029 4.43508L3.95503 3.05008C3.50003 3.73008 3.11003 4.46508 2.82003 5.25008ZM10.805 0.195077C10.805 0.195077 8.33003 -0.865423 5.50003 1.96508C4.40503 3.06008 3.75003 4.26508 3.32503 5.32008C3.18503 5.69508 3.28003 6.10508 3.55503 6.38508L4.62003 7.44508C4.89503 7.72508 5.30503 7.81508 5.68003 7.67508C6.75003 7.26508 7.94003 6.59508 9.03503 5.50008C11.865 2.67008 10.805 0.195077 10.805 0.195077ZM7.27003 3.73008C6.88003 3.34008 6.88003 2.70508 7.27003 2.31508C7.66003 1.92508 8.29503 1.92508 8.68503 2.31508C9.07003 2.70508 9.07503 3.34008 8.68503 3.73008C8.29503 4.12008 7.66003 4.12008 7.27003 3.73008ZM4.44003 7.26508L3.73503 6.56008L4.44003 7.26508ZM3.12003 10.0001L4.94003 8.18008C4.77003 8.13508 4.60503 8.06008 4.45503 7.95508L2.41503 10.0001H3.12003ZM1.00003 10.0001H1.70503L4.09003 7.62008L3.38003 6.91508L1.00003 9.29508V10.0001ZM1.00003 8.58508L3.04503 6.54508C2.94003 6.39508 2.86503 6.23508 2.82003 6.06008L1.00003 7.88008V8.58508Z" />
</svg>