<svg width="20" height="20" viewBox="0 0 16 16" fill="none" xmlns="http://www.w3.org/2000/svg">
  <rect x="-0.005" y="-0.005" width="16.01" height="16.01" fill="none" />
  <path
    d="M4.97661 12.2564L1.99805 12.2651L2.00244 13.7651L4.981 13.7564C6.31228 13.7525 7.52534 13.0452 8.19191 11.9255L9.2442 12.6826C10.2225 13.3865 11.3972 13.7651 12.6023 13.7651H14V12.2651H12.6023C11.7115 12.2651 10.8433 11.9852 10.1202 11.465L8.80392 10.518L9.66322 8.36757L10.2169 8.76309C11.1181 9.40678 12.1997 9.74903 13.3071 9.74088L14.0092 9.73572L13.9908 7.23579L13.2887 7.24095C12.7086 7.24522 12.1421 7.06594 11.67 6.72877L10.6183 5.9775L10.9429 5.16525C11.2843 4.31075 12.1117 3.75029 13.0319 3.75015L14.0004 3.75L14.0001 2.25L13.0316 2.25015C11.498 2.25039 10.119 3.18449 9.54995 4.60864L9.36165 5.07987L7.29122 3.60095C6.0616 2.72263 4.58826 2.25046 3.07716 2.25046H2V4.75046H3.07716C4.0672 4.75046 5.03249 5.05981 5.8381 5.63527L8.40658 7.46995L7.54929 9.61532L5.7673 8.33324C4.79014 7.6302 3.61697 7.25158 2.41317 7.25075L2.00055 7.25046L1.99951 8.75046L2.41214 8.75075C3.3019 8.75136 4.16902 9.03122 4.89128 9.55085L6.96658 11.044C6.58366 11.7814 5.81964 12.2539 4.97661 12.2564Z"
    fill="currentcolor" />
</svg>
