<svg viewBox="0 0 16 16" fill="currentColor" xmlns="http://www.w3.org/2000/svg">
  <path fill-rule="evenodd" clip-rule="evenodd" d="M7 1.25C6.0335 1.25 5.25 2.0335 5.25 3V5C5.25 5.9665 6.0335 6.75 7 6.75H7.25V7.25H4.5C3.80964 7.25 3.25 7.80964 3.25 8.5V9.25H3C2.0335 9.25 1.25 10.0335 1.25 11V13C1.25 13.9665 2.0335 14.75 3 14.75H5C5.9665 14.75 6.75 13.9665 6.75 13V11C6.75 10.0335 5.9665 9.25 5 9.25H4.75V8.75H7.25H8.75H11.25V9.25H11C10.0335 9.25 9.25 10.0335 9.25 11V13C9.25 13.9665 10.0335 14.75 11 14.75H13C13.9665 14.75 14.75 13.9665 14.75 13V11C14.75 10.0335 13.9665 9.25 13 9.25H12.75V8.5C12.75 7.80964 12.1904 7.25 11.5 7.25H8.75V6.75H9C9.9665 6.75 10.75 5.9665 10.75 5V3C10.75 2.0335 9.9665 1.25 9 1.25H7ZM6.75 3C6.75 2.86193 6.86193 2.75 7 2.75H9C9.13807 2.75 9.25 2.86193 9.25 3V5C9.25 5.13807 9.13807 5.25 9 5.25H7C6.86193 5.25 6.75 5.13807 6.75 5V3ZM3 10.75C2.86193 10.75 2.75 10.8619 2.75 11V13C2.75 13.1381 2.86193 13.25 3 13.25H5C5.13807 13.25 5.25 13.1381 5.25 13V11C5.25 10.8619 5.13807 10.75 5 10.75H3ZM11 10.75C10.8619 10.75 10.75 10.8619 10.75 11V13C10.75 13.1381 10.8619 13.25 11 13.25H13C13.1381 13.25 13.25 13.1381 13.25 13V11C13.25 10.8619 13.1381 10.75 13 10.75H11Z" />
</svg>
