<svg width="16" height="16" viewBox="0 0 16 16" fill="currentcolor" xmlns="http://www.w3.org/2000/svg">
    <path d="M12.25 3.75H3.75V4.12012C3.75 4.77695 4.03743 5.40067 4.53613 5.82812L6.98828 7.93066C7.15442 8.07315 7.25 8.28113 7.25 8.5V11.5361L8.75 12.2861V8.5C8.75 8.28113 8.84558 8.07315 9.01172 7.93066L11.4639 5.82812C11.9626 5.40067 12.25 4.77695 12.25 4.12012V3.75ZM13.75 4.12012C13.75 5.21484 13.2716 6.25534 12.4404 6.96777L10.25 8.84473V13.5C10.25 13.7598 10.1155 14.001 9.89453 14.1377C9.67354 14.2743 9.39745 14.2869 9.16504 14.1709L6.16504 12.6709C5.91095 12.5439 5.75 12.2841 5.75 12V8.84473L3.55957 6.96777C2.7284 6.25534 2.25 5.21484 2.25 4.12012V3C2.25 2.58579 2.58579 2.25 3 2.25H13C13.4142 2.25 13.75 2.58579 13.75 3V4.12012Z" />
</svg>
