<svg viewBox="0 0 16 16" fill="none" stroke="currentcolor" xmlns="http://www.w3.org/2000/svg">
  <path d="M10.3573 7.52888C10.2323 7.6539 10.1621 7.82344 10.1621 8.00021C10.1621 8.17699 10.2323 8.34653 10.3573 8.47155L11.9413 10.0562C12.0663 10.1812 12.2359 10.2514 12.4126 10.2514C12.5894 10.2514 12.7589 10.1812 12.884 10.0562L14.4686 8.47155C14.5936 8.34653 14.6638 8.17699 14.6638 8.00021C14.6638 7.82344 14.5936 7.6539 14.4686 7.52888L12.884 5.94421C12.7589 5.81923 12.5894 5.74902 12.4126 5.74902C12.2359 5.74902 12.0663 5.81923 11.9413 5.94421L10.3573 7.52888Z" stroke-width="1.33333" stroke-linecap="round" stroke-linejoin="round"/>
  <path d="M1.53113 7.52888C1.40615 7.6539 1.33594 7.82344 1.33594 8.00021C1.33594 8.17699 1.40615 8.34653 1.53113 8.47155L3.1158 10.0562C3.24081 10.1812 3.41035 10.2514 3.58713 10.2514C3.7639 10.2514 3.93344 10.1812 4.05846 10.0562L5.64313 8.47155C5.76811 8.34653 5.83832 8.17699 5.83832 8.00021C5.83832 7.82344 5.76811 7.6539 5.64313 7.52888L4.05846 5.94421C3.93344 5.81923 3.7639 5.74902 3.58713 5.74902C3.41035 5.74902 3.24081 5.81923 3.1158 5.94421L1.53113 7.52888Z" stroke-width="1.33333" stroke-linecap="round" stroke-linejoin="round"/>
  <path d="M5.94357 11.9413C5.88159 12.0032 5.83241 12.0767 5.79887 12.1577C5.76532 12.2386 5.74805 12.3254 5.74805 12.413C5.74805 12.5006 5.76532 12.5873 5.79887 12.6683C5.83241 12.7492 5.88159 12.8227 5.94357 12.8846L7.52824 14.4686C7.65326 14.5936 7.8228 14.6638 7.99957 14.6638C8.17635 14.6638 8.34589 14.5936 8.4709 14.4686L10.0556 12.8846C10.1176 12.8227 10.1667 12.7492 10.2003 12.6683C10.2338 12.5873 10.2511 12.5006 10.2511 12.413C10.2511 12.3254 10.2338 12.2386 10.2003 12.1577C10.1667 12.0767 10.1176 12.0032 10.0556 11.9413L8.4709 10.3573C8.34589 10.2323 8.17635 10.1621 7.99957 10.1621C7.8228 10.1621 7.65326 10.2323 7.52824 10.3573L5.94357 11.9413Z" stroke-width="1.33333" stroke-linecap="round" stroke-linejoin="round"/>
  <path d="M5.94421 3.1158C5.81923 3.24081 5.74902 3.41035 5.74902 3.58713C5.74902 3.7639 5.81923 3.93344 5.94421 4.05846L7.52888 5.64246C7.6539 5.76744 7.82344 5.83765 8.00021 5.83765C8.17699 5.83765 8.34653 5.76744 8.47155 5.64246L10.0562 4.05846C10.1812 3.93344 10.2514 3.7639 10.2514 3.58713C10.2514 3.41035 10.1812 3.24081 10.0562 3.1158L8.47155 1.53113C8.34653 1.40615 8.17699 1.33594 8.00021 1.33594C7.82344 1.33594 7.6539 1.40615 7.52888 1.53113L5.94421 3.1158Z" stroke-width="1.33333" stroke-linecap="round" stroke-linejoin="round"/>
</svg>
