<svg width="14" height="10" viewBox="0 0 14 10" fill="none" xmlns="http://www.w3.org/2000/svg">
<path d="M2.77921 7.89238L5.26121 5.41038C5.36044 5.31116 5.47755 5.26221 5.61255 5.26355C5.74755 5.26477 5.86466 5.3171 5.96388 5.42055C6.0561 5.52121 6.10221 5.63871 6.10221 5.77305C6.10221 5.90727 6.0561 6.02393 5.96388 6.12305L3.21771 8.87955C3.09716 8.99999 2.95655 9.06021 2.79588 9.06021C2.63521 9.06021 2.4946 8.99999 2.37405 8.87955L1.01121 7.51671C0.918992 7.42438 0.873936 7.30832 0.876047 7.16854C0.878159 7.02888 0.925381 6.91288 1.01771 6.82055C1.11005 6.72821 1.22644 6.68205 1.36688 6.68205C1.50733 6.68205 1.62299 6.72821 1.71388 6.82055L2.77921 7.89238ZM2.77921 2.81538L5.26121 0.333379C5.36044 0.234268 5.47755 0.185324 5.61255 0.186546C5.74755 0.187879 5.86466 0.240268 5.96388 0.343712C6.0561 0.444379 6.10221 0.561824 6.10221 0.696046C6.10221 0.830379 6.0561 0.947102 5.96388 1.04621L3.21771 3.80255C3.09716 3.9231 2.95655 3.98338 2.79588 3.98338C2.63521 3.98338 2.4946 3.9231 2.37405 3.80255L1.01121 2.43971C0.918992 2.34749 0.873936 2.23149 0.876047 2.09171C0.878159 1.95193 0.925381 1.83593 1.01771 1.74371C1.11005 1.65138 1.22644 1.60521 1.36688 1.60521C1.50733 1.60521 1.62299 1.65138 1.71388 1.74371L2.77921 2.81538ZM8.17271 8.03855C8.03105 8.03855 7.91233 7.9906 7.81655 7.89471C7.72066 7.79882 7.67271 7.67999 7.67271 7.53821C7.67271 7.39655 7.72066 7.27782 7.81655 7.18205C7.91233 7.08638 8.03105 7.03855 8.17271 7.03855H12.8394C12.981 7.03855 13.0998 7.08649 13.1957 7.18238C13.2915 7.27827 13.3394 7.39705 13.3394 7.53871C13.3394 7.68049 13.2915 7.79921 13.1957 7.89488C13.0998 7.99066 12.981 8.03855 12.8394 8.03855H8.17271ZM8.17271 2.96155C8.03105 2.96155 7.91233 2.9136 7.81655 2.81771C7.72066 2.72182 7.67271 2.60305 7.67271 2.46138C7.67271 2.3196 7.72066 2.20088 7.81655 2.10521C7.91233 2.00943 8.03105 1.96155 8.17271 1.96155H12.8394C12.981 1.96155 13.0998 2.00949 13.1957 2.10538C13.2915 2.20127 13.3394 2.3201 13.3394 2.46188C13.3394 2.60355 13.2915 2.72227 13.1957 2.81805C13.0998 2.91371 12.981 2.96155 12.8394 2.96155H8.17271Z" fill="#0458DD"/>
</svg>
