<svg width="14" height="10" viewBox="0 0 14 10" fill="none" xmlns="http://www.w3.org/2000/svg">
<path d="M2.78019 7.89238L5.26219 5.41038C5.36141 5.31116 5.47852 5.26221 5.61352 5.26355C5.74852 5.26477 5.86563 5.3171 5.96486 5.42055C6.05708 5.52121 6.10319 5.63871 6.10319 5.77305C6.10319 5.90727 6.05708 6.02393 5.96486 6.12305L3.21869 8.87955C3.09813 8.99999 2.95752 9.06021 2.79686 9.06021C2.63619 9.06021 2.49558 8.99999 2.37502 8.87955L1.01219 7.51671C0.919968 7.42438 0.874913 7.30832 0.877024 7.16854C0.879135 7.02888 0.926357 6.91288 1.01869 6.82055C1.11102 6.72821 1.22741 6.68205 1.36786 6.68205C1.5083 6.68205 1.62397 6.72821 1.71486 6.82055L2.78019 7.89238ZM2.78019 2.81538L5.26219 0.333379C5.36141 0.234268 5.47852 0.185324 5.61352 0.186546C5.74852 0.187879 5.86563 0.240268 5.96486 0.343712C6.05708 0.444379 6.10319 0.561824 6.10319 0.696046C6.10319 0.830379 6.05708 0.947102 5.96486 1.04621L3.21869 3.80255C3.09813 3.9231 2.95752 3.98338 2.79686 3.98338C2.63619 3.98338 2.49558 3.9231 2.37502 3.80255L1.01219 2.43971C0.919968 2.34749 0.874913 2.23149 0.877024 2.09171C0.879135 1.95193 0.926357 1.83593 1.01869 1.74371C1.11102 1.65138 1.22741 1.60521 1.36786 1.60521C1.5083 1.60521 1.62397 1.65138 1.71486 1.74371L2.78019 2.81538ZM8.17369 8.03855C8.03202 8.03855 7.9133 7.9906 7.81752 7.89471C7.72164 7.79882 7.67369 7.67999 7.67369 7.53821C7.67369 7.39655 7.72164 7.27782 7.81752 7.18205C7.9133 7.08638 8.03202 7.03855 8.17369 7.03855H12.8404C12.982 7.03855 13.1008 7.08649 13.1967 7.18238C13.2925 7.27827 13.3404 7.39705 13.3404 7.53871C13.3404 7.68049 13.2925 7.79921 13.1967 7.89488C13.1008 7.99066 12.982 8.03855 12.8404 8.03855H8.17369ZM8.17369 2.96155C8.03202 2.96155 7.9133 2.9136 7.81752 2.81771C7.72164 2.72182 7.67369 2.60305 7.67369 2.46138C7.67369 2.3196 7.72164 2.20088 7.81752 2.10521C7.9133 2.00943 8.03202 1.96155 8.17369 1.96155H12.8404C12.982 1.96155 13.1008 2.00949 13.1967 2.10538C13.2925 2.20127 13.3404 2.3201 13.3404 2.46188C13.3404 2.60355 13.2925 2.72227 13.1967 2.81805C13.1008 2.91371 12.982 2.96155 12.8404 2.96155H8.17369Z" fill="#223800"/>
</svg>
