<svg width="27" height="26" viewBox="0 0 27 26" fill="none" xmlns="http://www.w3.org/2000/svg">
<path fill-rule="evenodd" clip-rule="evenodd" d="M0.64478 0.46527C0.902637 0.203311 1.28342 0.103932 1.63641 0.206472C10.5679 2.80101 18.8622 6.89162 26.23 12.1885C26.4914 12.3763 26.6463 12.6785 26.6463 13.0004C26.6463 13.3223 26.4914 13.6245 26.23 13.8124C18.8623 19.1093 10.568 23.2 1.63654 25.7946C1.28356 25.8972 0.902766 25.7978 0.644906 25.5358C0.387047 25.2739 0.293689 24.8916 0.401789 24.5403L3.9524 13.0008L0.401667 1.46086C0.293568 1.10954 0.386924 0.72723 0.64478 0.46527ZM5.73725 14.0008L2.86624 23.3315C10.4383 20.9346 17.5172 17.4273 23.9117 13.0004C17.5172 8.57356 10.4382 5.06636 2.86611 2.66956L5.73725 12.0008L14.999 12.0008C15.5513 12.0008 15.999 12.4485 15.999 13.0008C15.999 13.553 15.5513 14.0008 14.999 14.0008L5.73725 14.0008Z" fill="white"/>
</svg>