<svg viewBox="0 0 80 82" fill="none" xmlns="http://www.w3.org/2000/svg">
<g clip-path="url(#clip0_1026_1562408)">
<path fill-rule="evenodd" clip-rule="evenodd" d="M27.1937 52.8327L25.8475 53.0203C25.124 53.1211 24.455 52.6212 24.3534 51.9037L20.671 25.919C20.5693 25.2015 21.0734 24.538 21.797 24.4372L47.6706 20.8309C48.3941 20.7301 49.0631 21.23 49.1648 21.9476C49.1648 21.9476 49.4002 23.609 49.4812 24.1805" fill="white"/>
<path fill-rule="evenodd" clip-rule="evenodd" d="M28.0293 51.3861L26.807 51.5584C26.15 51.651 25.5434 51.198 25.4521 50.5465L22.1463 26.9552C22.0551 26.3037 22.5137 25.7005 23.1706 25.6079L46.6651 22.2962C47.3221 22.2036 47.9287 22.6566 48.02 23.3081L48.3041 25.3354C48.3194 25.4451 49.3343 32.7265 51.3487 47.1796C51.4498 47.9054 50.9452 48.5759 50.2216 48.6774C50.2139 48.6785 50.2061 48.6795 50.1983 48.6804L28.0293 51.3861Z" fill="#E7EDDF"/>
<path d="M27.1937 52.8327L25.8475 53.0203C25.124 53.1211 24.455 52.6212 24.3534 51.9037L20.671 25.919C20.5693 25.2015 21.0734 24.538 21.797 24.4372L47.6706 20.8309C48.3941 20.7301 49.0631 21.23 49.1648 21.9476C49.1648 21.9476 49.4002 23.609 49.4812 24.1805" stroke="#87A263" stroke-width="1.025" stroke-linecap="round"/>
<path d="M49.7565 25.6929L49.9219 26.7164" stroke="#87A263" stroke-width="1.025" stroke-linecap="round"/>
<path d="M32.7227 26.3455L58.5862 29.0414C59.0648 29.0913 59.4117 29.5196 59.361 29.9982L56.6104 55.9519C56.5597 56.4304 56.1306 56.7779 55.652 56.728L29.7885 54.0321C29.3099 53.9822 28.963 53.5538 29.0137 53.0753L31.7643 27.1216C31.815 26.6431 32.2441 26.2956 32.7227 26.3455Z" fill="white" stroke="#87A263" stroke-width="1.025"/>
<path fill-rule="evenodd" clip-rule="evenodd" d="M33.9399 29.9691C34.0003 29.3991 34.5115 28.9852 35.0816 29.0446L55.7127 31.1951C56.2827 31.2545 56.6959 31.7648 56.6355 32.3348L54.8146 49.5166C54.7542 50.0866 54.2431 50.5005 53.673 50.4411L33.0419 48.2906C32.4718 48.2312 32.0586 47.7209 32.119 47.1509L33.9399 29.9691Z" fill="white"/>
<path fill-rule="evenodd" clip-rule="evenodd" d="M34.9535 43.2398L38.1552 41.0982C38.7188 40.7212 39.4719 40.8071 39.9346 41.3012L42.2667 43.7911C42.3903 43.923 42.5948 43.9373 42.736 43.8239L47.7514 39.7936C48.3898 39.2805 49.3308 39.4296 49.7774 40.1145L53.0441 45.1255L53.5182 45.9101L53.2928 48.5566C53.2762 48.7505 53.103 48.893 52.9095 48.8716L34.1005 46.7991C33.9131 46.7785 33.777 46.6117 33.7945 46.424L34.0425 43.7523L34.9535 43.2398Z" fill="#E7EDDF"/>
<path d="M35.0276 29.5543L55.6586 31.7047C55.9472 31.7348 56.1564 31.9931 56.1258 32.2816L54.3049 49.4635C54.2743 49.752 54.0155 49.9615 53.727 49.9314L33.0959 47.781C32.8073 47.7509 32.5982 47.4926 32.6287 47.2041L34.4497 30.0222C34.4803 29.7337 34.739 29.5242 35.0276 29.5543Z" stroke="#87A263" stroke-width="1.025"/>
<ellipse cx="1.98422" cy="1.96818" rx="1.98422" ry="1.96818" transform="matrix(0.994611 0.103674 -0.10539 0.994431 37.2524 33.2285)" fill="#E7EDDF" stroke="#87A263" stroke-width="1.025"/>
<path d="M34.2884 43.747C35.5903 42.8553 38.1941 41.0721 38.1941 41.0721C38.7344 40.7107 39.4596 40.7934 39.9031 41.2669L42.2757 43.8C42.3941 43.9265 42.591 43.9403 42.7262 43.8317L47.7996 39.7547C48.3673 39.2986 49.2003 39.3852 49.6603 39.9481C49.69 39.9845 49.7178 40.0224 49.7434 40.0618C49.7434 40.0618 52.7096 44.7295 53.4027 45.8201" stroke="#87A263" stroke-width="1.025" stroke-linecap="round"/>
</g>
<rect x="0.5" y="0.5" width="79" height="79" rx="39.5" stroke="#E0E4E9"/>
<rect x="56" y="58" width="24" height="24" rx="4.8" fill="#E7EDDF"/>
<path fill-rule="evenodd" clip-rule="evenodd" d="M68.0002 66.7002C68.1659 66.7002 68.3002 66.8345 68.3002 67.0002V69.7002L71.0002 69.7002C71.1659 69.7002 71.3002 69.8345 71.3002 70.0002C71.3002 70.1659 71.1659 70.3002 71.0002 70.3002H68.3002V73.0002C68.3002 73.1659 68.1659 73.3002 68.0002 73.3002C67.8345 73.3002 67.7002 73.1659 67.7002 73.0002V70.3002H65.0002C64.8345 70.3002 64.7002 70.1659 64.7002 70.0002C64.7002 69.8345 64.8345 69.7002 65.0002 69.7002H67.7002V67.0002C67.7002 66.8345 67.8345 66.7002 68.0002 66.7002Z" fill="#223800"/>
<defs>
<clipPath id="clip0_1026_1562408">
<rect width="80" height="80" rx="40" fill="white"/>
</clipPath>
</defs>
</svg>
