<svg viewBox="0 0 14 14" fill="none" xmlns="http://www.w3.org/2000/svg">
<path d="M4.26917 13.3718C3.94528 13.3718 3.66989 13.2583 3.443 13.0313C3.21611 12.8044 3.10267 12.5291 3.10267 12.2052C3.10267 11.8812 3.21611 11.6057 3.443 11.3788C3.66989 11.1519 3.94528 11.0385 4.26917 11.0385C4.59317 11.0385 4.86861 11.1519 5.0955 11.3788C5.32239 11.6057 5.43583 11.8812 5.43583 12.2052C5.43583 12.5291 5.32239 12.8044 5.0955 13.0313C4.86861 13.2583 4.59317 13.3718 4.26917 13.3718ZM10.7308 13.3718C10.4068 13.3718 10.1314 13.2583 9.9045 13.0313C9.67761 12.8044 9.56417 12.5291 9.56417 12.2052C9.56417 11.8812 9.67761 11.6057 9.9045 11.3788C10.1314 11.1519 10.4068 11.0385 10.7308 11.0385C11.0547 11.0385 11.3301 11.1519 11.557 11.3788C11.7839 11.6057 11.8973 11.8812 11.8973 12.2052C11.8973 12.5291 11.7839 12.8044 11.557 13.0313C11.3301 13.2583 11.0547 13.3718 10.7308 13.3718ZM3.51017 2.83333L5.2 6.37183H9.74483C9.78328 6.37183 9.8175 6.36222 9.8475 6.343C9.87739 6.32378 9.903 6.29706 9.92434 6.26283L11.7128 3.01283C11.7385 2.96583 11.7406 2.92417 11.7192 2.88783C11.6978 2.8515 11.6615 2.83333 11.6102 2.83333H3.51017ZM3.03083 1.83333H12.2872C12.5598 1.83333 12.766 1.94939 12.9057 2.1815C13.0454 2.4135 13.0521 2.65044 12.9257 2.89233L10.7897 6.7615C10.6803 6.95383 10.5357 7.10361 10.3558 7.21083C10.1758 7.31817 9.97861 7.37183 9.76417 7.37183H4.9L4.12817 8.782C4.09395 8.83333 4.09289 8.88889 4.125 8.94867C4.157 9.00856 4.20506 9.0385 4.26917 9.0385H11.3975C11.5393 9.0385 11.6581 9.08633 11.7538 9.182C11.8495 9.27778 11.8973 9.39661 11.8973 9.5385C11.8973 9.68039 11.8495 9.79917 11.7538 9.89483C11.6581 9.99061 11.5393 10.0385 11.3975 10.0385H4.26917C3.82472 10.0385 3.49078 9.84683 3.26733 9.4635C3.04378 9.08017 3.03589 8.69745 3.24367 8.31533L4.19483 6.60517L1.76933 1.5H1C0.858111 1.5 0.739333 1.45211 0.643667 1.35633C0.547889 1.26067 0.5 1.14189 0.5 1C0.5 0.858111 0.547889 0.739333 0.643667 0.643667C0.739333 0.547889 0.858111 0.5 1 0.5H2.01917C2.13294 0.5 2.23894 0.530111 2.33717 0.590333C2.4355 0.650666 2.51028 0.7355 2.5615 0.844833L3.03083 1.83333Z" fill="#1B1E20"/>
</svg>
