<svg viewBox="0 0 16 16" fill="none" xmlns="http://www.w3.org/2000/svg"><rect x="8.417" width="3.374" height="7.583" rx="1.687" fill="#4DAA78"/><rect x="8.417" y="8.417" width="7.583" height="3.374" rx="1.687" fill="#E5B145"/><rect y="4.209" width="7.583" height="3.374" rx="1.687" fill="#60AFDA"/><path d="M4.209 1.687a1.687 1.687 0 0 1 3.374 0v1.687H5.896a1.687 1.687 0 0 1-1.687-1.687z" fill="#60AFDA"/><path d="M12.626 5.896a1.687 1.687 0 1 1 1.687 1.687h-1.687V5.896z" fill="#4DAA78"/><path d="M0 10.104c0-.931.755-1.687 1.687-1.687h1.687v1.687a1.687 1.687 0 1 1-3.374 0z" fill="#C1316A"/><path d="M8.417 12.626h1.687a1.687 1.687 0 1 1-1.687 1.687v-1.687z" fill="#E5B145"/><rect x="4.209" y="8.417" width="3.374" height="7.583" rx="1.687" fill="#C1316A"/></svg>