<svg xmlns="http://www.w3.org/2000/svg" fill="none" viewBox="0 0 16 16"><path fill="currentColor" fill-rule="evenodd" d="M13.864 1.107a.75.75 0 1 1 .768 1.29 2 2 0 0 0-.397.414c-.205.287-.432.748-.477 1.44a2.11 2.11 0 0 1 .388 2.78l-.028.043a2.28 2.28 0 0 0-.266 1.982l.471 1.414A3.44 3.44 0 0 1 11.06 15H2.332A1.333 1.333 0 0 1 1 13.667c0-1.223.822-2.253 1.944-2.568C2.344 10.27 2 9.15 2 8c0-1.412.458-2.674 1.349-3.587C4.243 3.498 5.509 3 7 3c1.522 0 2.643.802 3.246 1.93q.159-.254.37-.46a3.46 3.46 0 0 1-.36-2 3.3 3.3 0 0 1 .293-.999l.036-.069.013-.023.005-.008.002-.004.001-.001v-.002a.75.75 0 1 1 1.285.778q-.015.028-.044.099c-.036.094-.08.236-.103.415a1.96 1.96 0 0 0 .208 1.131q.173-.029.351-.034a4.1 4.1 0 0 1 .712-1.814 3.5 3.5 0 0 1 .548-.607 3 3 0 0 1 .263-.201l.022-.015.01-.005.003-.002.002-.001zM7.75 10.75c.877 0 1.57-.38 2.06-.94a5.2 5.2 0 0 0 1.165-2.169L11.401 6a1 1 0 0 1 1.09-.74.6.6 0 0 1 .509.595.63.63 0 0 1-.102.344l-.028.043a3.78 3.78 0 0 0-.44 3.289l.47 1.413a1.94 1.94 0 0 1-1.84 2.556H2.512c.08-.565.567-1 1.155-1h.678a.905.905 0 0 0 .436-1.7C4.131 10.438 3.5 9.374 3.5 8c0-1.088.348-1.95.922-2.538C4.993 4.877 5.852 4.5 7 4.5c1.346 0 2.25 1.056 2.25 2.5 0 .639-.162 1.235-.437 1.646-.26.39-.604.604-1.063.604-.87 0-1.25-.568-1.25-1 0-.551.38-.75.5-.75A.75.75 0 0 0 7 6C5.89 6 5 7.04 5 8.25c0 1.329 1.12 2.5 2.75 2.5" clip-rule="evenodd"></path></svg>
