<svg viewBox="0 0 16 16" fill="currentcolor" xmlns="http://www.w3.org/2000/svg" xmlns:xlink="http://www.w3.org/1999/xlink">
  <path d="M1.25 4c0-.966.784-1.75 1.75-1.75a.75.75 0 0 1 0 1.5.25.25 0 0 0-.25.25v2.586c0 .464-.184.909-.513 1.237L2.061 8l.176.177c.329.328.513.773.513 1.237V12c0 .138.112.25.25.25a.75.75 0 0 1 0 1.5A1.75 1.75 0 0 1 1.25 12V9.414a.25.25 0 0 0-.073-.177L.47 8.53a.75.75 0 0 1 0-1.06l.707-.707a.25.25 0 0 0 .073-.177V4zM4.75 11a.75.75 0 0 1 .75-.75H8a.75.75 0 0 1 0 1.5H5.5a.75.75 0 0 1-.75-.75zM4.75 8a.75.75 0 0 1 .75-.75H11a.75.75 0 0 1 0 1.5H5.5A.75.75 0 0 1 4.75 8zM5.5 4.25a.75.75 0 0 0 0 1.5h4a.75.75 0 0 0 0-1.5h-4zM13 13.75A1.75 1.75 0 0 0 14.75 12V9.414a.25.25 0 0 1 .073-.177l.707-.707a.75.75 0 0 0 0-1.06l-.707-.707a.25.25 0 0 1-.073-.177V4A1.75 1.75 0 0 0 13 2.25a.75.75 0 0 0 0 1.5.25.25 0 0 1 .25.25v2.586c0 .464.184.909.513 1.237l.176.177-.176.177a1.75 1.75 0 0 0-.513 1.237V12a.25.25 0 0 1-.25.25.75.75 0 0 0 0 1.5z" />
</svg>
