<svg xmlns="http://www.w3.org/2000/svg" fill="currentColor" viewBox="0 0 16 16"><path d="m 10.99395,13.748044 c -0.201365,-0.0018 -0.393841,-0.08883 -0.527344,-0.224609 v 0.0039 l -0.0059,-0.0059 -2.2050781,-2.205078 -0.28711,-0.28711 c -0.288693,-0.288693 -0.288688,-0.771829 0,-1.0605465 0.288707,-0.2887369 0.771834,-0.2886828 1.060547,0 L 10.249768,11.189404 V 3.9999999 c 0,-0.4082659 0.341777,-0.7499999 0.75,-0.7499999 0.408232,0 0.75,0.34171 0.75,0.7499999 V 11.18945 l 1.220704,-1.2207026 c 0.288712,-0.2886828 0.771839,-0.2887369 1.060546,0 0.288688,0.2887176 0.288693,0.7718536 0,1.0605466 l -0.287109,0.28711 -2.205078,2.205078 -0.0059,0.0059 v -0.0039 c -0.133424,0.135785 -0.325979,0.222778 -0.527344,0.224609 z"/><path d="m 4.9959499,2.252 c -0.201365,0.00183 -0.393841,0.088827 -0.527344,0.2246093 v -0.00391 l -0.0059,0.00586 -2.205078,2.2050782 -0.28711,0.2871094 c -0.288693,0.2886927 -0.288688,0.7718297 0,1.0605467 0.288707,0.288737 0.771834,0.288683 1.060547,0 l 1.220703,-1.220703 v 7.1894544 c 0,0.408266 0.341777,0.75 0.75,0.75 0.408232,0 0.75,-0.34171 0.75,-0.75 V 4.8105937 l 1.220704,1.2207029 c 0.288712,0.288683 0.771839,0.288737 1.060546,0 0.288688,-0.288717 0.288693,-0.771854 0,-1.0605466 l -0.287109,-0.2871094 -2.205078,-2.2050782 -0.0059,-0.00586 v 0.00391 C 5.4015069,2.3408269 5.2089519,2.2538338 5.0075869,2.2520031 Z"/></svg>