<svg viewBox="0 0 16 16" fill="currentColor" stroke="currentColor" xmlns="http://www.w3.org/2000/svg">
  <path d="M6.10439 4.45711L5.25086 3.60367V4.81068V12C5.25086 12.138 5.13893 12.25 5.00086 12.25C4.8628 12.25 4.75086 12.138 4.75086 12V4.81077V3.60366L3.89731 4.45722L2.67776 5.67677C2.67776 5.67677 2.67776 5.67678 2.67776 5.67678C2.58011 5.77441 2.42183 5.7744 2.3242 5.67678L2.3242 5.67677C2.22657 5.57914 2.22657 5.42086 2.3242 5.32323L2.3242 5.32322L4.81639 2.83104L4.81642 2.83108L4.82149 2.82587C4.86752 2.77847 4.93043 2.75 5.00086 2.75C5.07153 2.75 5.13463 2.77866 5.18068 2.82632L5.18063 2.82637L5.1867 2.83244L7.67775 5.32321C7.77538 5.42084 7.77539 5.57913 7.67776 5.67677C7.58013 5.77441 7.42184 5.7744 7.32422 5.67679L7.32421 5.67679L6.10439 4.45711Z" />
  <path d="M10.8214 13.1741L10.8215 13.174L10.8164 13.1689L8.32421 10.6768C8.3242 10.6768 8.3242 10.6768 8.3242 10.6768C8.22657 10.5792 8.22657 10.4209 8.32421 10.3232C8.42183 10.2256 8.58012 10.2256 8.67776 10.3232L9.89735 11.5428L10.7509 12.3964V11.1893V4C10.7509 3.86189 10.8628 3.75 11.0009 3.75C11.139 3.75 11.2509 3.86194 11.2509 4V11.1895V12.3966L12.1045 11.543L13.3241 10.3232C13.3242 10.3232 13.3242 10.3232 13.3242 10.3232C13.3242 10.3232 13.3242 10.3232 13.3242 10.3232C13.4218 10.2256 13.5801 10.2256 13.6778 10.3232C13.7754 10.4209 13.7754 10.5792 13.6777 10.6768L11.178 13.1766C11.1779 13.1767 11.1779 13.1767 11.1778 13.1767C11.1491 13.2054 11.1164 13.2249 11.0822 13.2366L11.0817 13.2367C11.0603 13.244 11.0381 13.2484 11.0148 13.2496L11.0133 13.2497C11.0121 13.2498 11.0106 13.2498 11.0088 13.2499C11.0066 13.2499 11.004 13.25 11.0009 13.25C10.9304 13.25 10.8675 13.2215 10.8214 13.1741Z" />
</svg>
