<svg viewBox="0 0 32 32" fill="currentcolor" xmlns="http://www.w3.org/2000/svg" xmlns:xlink="http://www.w3.org/1999/xlink">
  <path d="M16.483 9.754c.69-.684.69-1.825 0-2.567L9.821.513c-.69-.684-1.838-.684-2.585 0L.516 7.187c-.688.685-.688 1.825 0 2.567.69.684 1.839.684 2.585 0l3.561-3.537v23.958c0 .97.804 1.825 1.838 1.825.976 0 1.838-.799 1.838-1.825V6.217l3.56 3.537c.345.342.805.513 1.264.513.46 0 .976-.17 1.321-.513ZM31.512 22.246c-.651-.684-1.736-.684-2.44 0l-3.363 3.537V1.825c0-.97-.76-1.825-1.736-1.825-.976.057-1.736.856-1.736 1.882V25.84l-3.362-3.537a1.64 1.64 0 0 0-2.387 0c-.65.684-.65 1.825 0 2.567l6.292 6.617c.65.684 1.735.684 2.44 0l6.292-6.617c.65-.742.65-1.883 0-2.624Z" />
</svg>
