<svg viewBox="0 0 16 16" fill="currentcolor" xmlns="http://www.w3.org/2000/svg" xmlns:xlink="http://www.w3.org/1999/xlink">
  <path d="M12.2574 5.47474C11.984 5.20137 11.5408 5.20137 11.2674 5.47474C10.994 5.74811 10.994 6.19132 11.2674 6.46469L12.0874 7.28464H9.54984L9.5498 8.68464H12.0874L11.2674 9.50459C10.994 9.77796 10.994 10.2212 11.2674 10.4945C11.5408 10.7679 11.984 10.7679 12.2574 10.4945L14.2723 8.47961C14.5457 8.20625 14.5457 7.76303 14.2723 7.48966L12.2574 5.47474Z" />
  <path d="M11.9494 7.28907C12.336 7.28907 12.6494 7.60247 12.6494 7.98907C12.6494 8.37567 12.336 8.68907 11.9494 8.68907L10.9107 8.68906C10.3968 8.68911 9.88965 8.81655 9.43194 9.06172C8.97409 9.30696 8.57834 9.66338 8.2798 10.1021L7.87703 10.6937C7.45318 11.3166 6.88821 11.8271 6.22867 12.1804C5.56896 12.5337 4.83484 12.7189 4.08886 12.7189H2.24973C1.86313 12.7189 1.54973 12.4055 1.54973 12.0189C1.54973 11.6323 1.86313 11.3189 2.24973 11.3189H4.08886C4.60273 11.3189 5.10992 11.1914 5.56764 10.9463C6.02548 10.701 6.42123 10.3446 6.71978 9.90584L7.12244 9.3144C7.54631 8.69148 8.11131 8.1809 8.77091 7.82761C9.43061 7.47425 10.1647 7.28912 10.9107 7.28906L11.9494 7.28907Z" />
  <path d="M11.9494 8.67987C12.336 8.67987 12.6494 8.36647 12.6494 7.97987C12.6494 7.59327 12.336 7.27987 11.9494 7.27987L10.9107 7.27987C10.3968 7.27982 9.88965 7.15238 9.43194 6.90721C8.97409 6.66198 8.57834 6.30555 8.2798 5.86679L7.87703 5.27521C7.45318 4.65236 6.88821 4.14183 6.22867 3.78856C5.56896 3.4352 4.83484 3.25008 4.08886 3.25002H2.24973C1.86313 3.25002 1.54973 3.56342 1.54973 3.95002C1.54973 4.33662 1.86313 4.65002 2.24973 4.65002H4.08886C4.60273 4.65007 5.10992 4.77751 5.56764 5.02268C6.02548 5.26791 6.42123 5.62434 6.71978 6.0631L7.12244 6.65453C7.54631 7.27745 8.11131 7.78803 8.77091 8.14133C9.43061 8.49469 10.1647 8.67981 10.9107 8.67987L11.9494 8.67987Z" />
</svg>
