<svg viewBox="0 0 16 16" fill="currentcolor" fill-rule="evenodd" xmlns="http://www.w3.org/2000/svg" xmlns:xlink="http://www.w3.org/1999/xlink">
  <path d="M3 2.25A1.75 1.75 0 0 0 1.25 4v8c0 .966.784 1.75 1.75 1.75h4v-1.5H3a.25.25 0 0 1-.25-.25V6.04L8 7.79l5.25-1.75V8h1.5V4A1.75 1.75 0 0 0 13 2.25H3zm10.25 2.21V4a.25.25 0 0 0-.25-.25H3a.25.25 0 0 0-.25.25v.46L8 6.21l5.25-1.75zM10 10.25a.75.75 0 0 0 0 1.5h1.25V13a.75.75 0 0 0 1.5 0v-1.25H14a.75.75 0 0 0 0-1.5h-1.25V9a.75.75 0 0 0-1.5 0v1.25H10z" />
</svg>