<svg viewBox="0 0 16 16" fill="currentcolor" xmlns="http://www.w3.org/2000/svg" xmlns:xlink="http://www.w3.org/1999/xlink">
  <path d="M8 1.25a.75.75 0 0 1 .75.75v1a.75.75 0 1 1-1.5 0V2A.75.75 0 0 1 8 1.25zM11.227 3.97a.75.75 0 0 0 1.061 1.06l.742-.742a.75.75 0 0 0-1.06-1.06l-.743.742zM5.03 5.03a.75.75 0 0 1-1.06 0l-.743-.742a.75.75 0 1 1 1.06-1.06l.743.742a.75.75 0 0 1 0 1.06zM13.03 13.03a.75.75 0 0 1-1.06 0l-1-1a.75.75 0 0 1 1.06-1.06l1 1a.75.75 0 0 1 0 1.06zM5.03 12.03l-1 1a.75.75 0 0 1-1.06-1.06l1-1a.75.75 0 0 1 1.06 1.06z" /><path fill-rule="evenodd" clip-rule="evenodd" d="M8 4.5a3.5 3.5 0 1 0 0 7 3.5 3.5 0 0 0 0-7zM6 8a2 2 0 1 1 4 0 2 2 0 0 1-4 0z" /><path d="M8.75 13a.75.75 0 0 0-1.5 0v1a.75.75 0 0 0 1.5 0v-1zM14.75 8a.75.75 0 0 1-.75.75h-1a.75.75 0 0 1 0-1.5h1a.75.75 0 0 1 .75.75zM3 8.75a.75.75 0 1 0 0-1.5H2a.75.75 0 1 0 0 1.5h1z" />
</svg>
