<svg viewBox="0 0 16 16" fill="currentColor" xmlns="http://www.w3.org/2000/svg">
  <path d="M8.615 6.278a1.866 1.866 0 1 1 .702 3.597 2.346 2.346 0 0 0 1.829 1.83 1.869 1.869 0 1 1 1.73 2.57 1.867 1.867 0 0 1-1.766-1.26 3.665 3.665 0 0 1-1.845-.823v2.042a.65.65 0 0 1-1.301 0v-4.34a1.866 1.866 0 0 1 .651-3.616zM5.51 1.918a1.969 1.969 0 0 1 1.65.877l.493.731.005.007a.469.469 0 0 0 .39.21h4.829a1.97 1.97 0 0 1 1.968 1.968v3.044a.75.75 0 0 1-1.5 0V5.71a.468.468 0 0 0-.468-.468H8.049a1.97 1.97 0 0 1-1.644-.885l-.488-.723-.005-.007a.47.47 0 0 0-.395-.211H3.135a.47.47 0 0 0-.468.468V11.8a.468.468 0 0 0 .468.467H5.18a.75.75 0 0 1 0 1.5H3.135A1.968 1.968 0 0 1 1.167 11.8V3.885a1.969 1.969 0 0 1 1.968-1.968H5.51v.001zm7.366 9.923a.568.568 0 1 0 0 1.135.568.568 0 0 0 0-1.135zm-4.26-4.262a.568.568 0 1 0 0 1.135.568.568 0 0 0 0-1.135z" />
</svg>
