<svg viewBox="0 0 16 16" fill="currentcolor" xmlns="http://www.w3.org/2000/svg" xmlns:xlink="http://www.w3.org/1999/xlink">
    <path d="M8.644 5.697A1.986 1.986 0 0 1 9.42 9.51a2.41 2.41 0 0 0 1.844 1.842 1.986 1.986 0 1 1 1.827 2.764c-.861 0-1.593-.55-1.868-1.318a3.863 3.863 0 0 1-1.864-.817v2.055l-.004.073a.715.715 0 0 1-1.422 0l-.003-.073V9.534a1.985 1.985 0 0 1 .714-3.837zM5.404 1.25a1.986 1.986 0 0 1 1.666.887l.514.762.005.007a.557.557 0 0 0 .464.25h5.038a1.986 1.986 0 0 1 1.985 1.985V8a.715.715 0 0 1-1.429 0V5.14a.558.558 0 0 0-.556-.555H8.052a1.986 1.986 0 0 1-1.657-.894l-.51-.756-.005-.007a.557.557 0 0 0-.47-.25H2.926a.556.556 0 0 0-.555.556v8.26a.557.557 0 0 0 .555.556h2.36a.715.715 0 0 1 0 1.428h-2.36A1.985 1.985 0 0 1 .94 11.495v-8.26A1.986 1.986 0 0 1 2.925 1.25h2.479zm7.687 10.324a.556.556 0 1 0 .001 1.112.556.556 0 0 0 0-1.112zM8.644 7.127a.556.556 0 1 0 0 1.112.556.556 0 0 0 0-1.112z" />
</svg>
