<svg viewBox="0 0 16 16" fill="currentcolor" xmlns="http://www.w3.org/2000/svg" xmlns:xlink="http://www.w3.org/1999/xlink">
  <path d="M12.667 1.25c1.15 0 2.083.933 2.083 2.083v9.334c0 1.15-.933 2.083-2.083 2.083H3.333a2.083 2.083 0 0 1-2.083-2.083V3.333c0-1.15.933-2.083 2.083-2.083h9.334zm-9.917 9.5v1.917c0 .322.261.583.583.583H7.25v-2.5h-4.5zm6 0v2.5h3.917a.583.583 0 0 0 .583-.583V10.75h-4.5zm-6-1.5h4.5v-2.5h-4.5v2.5zm6 0h4.5v-2.5h-4.5v2.5zm-5.417-6.5a.583.583 0 0 0-.583.583V5.25h4.5v-2.5H3.333zm5.417 2.5h4.5V3.333a.583.583 0 0 0-.583-.583H8.75v2.5z" />
</svg>
