<svg width="12" height="12" viewBox="0 0 12 12" fill="none" xmlns="http://www.w3.org/2000/svg">
<path d="M2.6395 3.9481C2.15995 4.73343 1.9706 5.66191 2.10431 6.57231C2.22565 7.3985 2.60611 8.16248 3.1875 8.7558V7.87515C3.1875 7.5645 3.43934 7.31264 3.75 7.31264C4.06066 7.31264 4.3125 7.5645 4.3125 7.87515V10.1252C4.3125 10.4358 4.06066 10.6877 3.75 10.6877H1.5C1.18934 10.6877 0.9375 10.4358 0.9375 10.1252C0.9375 9.8145 1.18934 9.56265 1.5 9.56265H2.40313C1.6448 8.79705 1.1486 7.80713 0.991245 6.73579C0.81933 5.56527 1.06279 4.37151 1.67936 3.3618C2.29592 2.35209 3.24664 1.5902 4.36643 1.20845C5.48621 0.826688 6.70434 0.849166 7.8093 1.27199C8.9142 1.6948 9.83618 2.49124 10.4151 3.52301C10.994 4.55478 11.1932 5.75672 10.9782 6.92009C10.7632 8.0835 10.1476 9.13478 9.2382 9.89153C8.8353 10.2268 8.38605 10.4948 7.90777 10.6895C7.62 10.8065 7.29182 10.6682 7.17476 10.3804C7.05769 10.0926 7.19606 9.7644 7.48382 9.64733C7.85587 9.49598 8.20522 9.28755 8.51857 9.02678C9.2259 8.43818 9.70478 7.62053 9.87195 6.71566C10.0392 5.81081 9.88418 4.87598 9.43395 4.07348C8.98373 3.271 8.26665 2.65154 7.40722 2.32268C6.54782 1.99383 5.60039 1.97634 4.72944 2.27327C3.8585 2.57019 3.11905 3.16277 2.6395 3.9481Z" fill="currentColor"/>
<path d="M6 3.5625C6.31066 3.5625 6.5625 3.81434 6.5625 4.125V5.76715L7.89772 7.10223C8.1174 7.32189 8.1174 7.67805 7.8978 7.89772C7.67813 8.1174 7.32196 8.1174 7.10227 7.8978L5.60227 6.39794C5.49677 6.29245 5.4375 6.14936 5.4375 6.00017V4.125C5.4375 3.81434 5.68934 3.5625 6 3.5625Z" fill="currentColor"/>
</svg>
