<svg viewBox="0 0 16 16" fill="currentcolor" xmlns="http://www.w3.org/2000/svg">
    <path d="M7.24999 13V3C7.24999 2.58579 7.58578 2.25 7.99999 2.25C8.41421 2.25 8.74999 2.58579 8.74999 3V13C8.74999 13.4142 8.41421 13.75 7.99999 13.75C7.58578 13.75 7.24999 13.4142 7.24999 13Z" />
    <path d="M4.05237 4.84615L12.7126 9.84615C13.0713 10.0533 13.1943 10.5119 12.9871 10.8707C12.78 11.2294 12.3213 11.3523 11.9626 11.1452L3.30237 6.14518C2.94365 5.93808 2.82075 5.47939 3.02785 5.12067C3.23496 4.76195 3.69365 4.63904 4.05237 4.84615Z" />
    <path d="M12.7126 6.15385L4.05238 11.1539C3.69366 11.361 3.23497 11.2381 3.02786 10.8793C2.82075 10.5206 2.94366 10.0619 3.30238 9.85481L11.9626 4.85482C12.3214 4.64771 12.78 4.77061 12.9872 5.12933C13.1943 5.48805 13.0714 5.94675 12.7126 6.15385Z" />
</svg>
