<svg xmlns="http://www.w3.org/2000/svg" fill="none" viewBox="0 0 16 16"><mask id="path-1-inside-1_3424_2020" fill="#fff"><path d="M6.15224 2.11732C6.05173 2.23864 6 2.36868 6 2.5H10C10 2.36868 9.94827 2.23864 9.84776 2.11732C9.74725 1.99599 9.59993 1.88575 9.41421 1.79289C9.2285 1.70003 9.00802 1.62638 8.76537 1.57612C8.52272 1.52587 8.26264 1.5 8 1.5C7.73736 1.5 7.47728 1.52587 7.23463 1.57612C6.99198 1.62638 6.7715 1.70003 6.58579 1.79289C6.40007 1.88575 6.25275 1.99599 6.15224 2.11732Z"/></mask><path fill="currentColor" d="M6.15224 2.11732C6.05173 2.23864 6 2.36868 6 2.5H10C10 2.36868 9.94827 2.23864 9.84776 2.11732C9.74725 1.99599 9.59993 1.88575 9.41421 1.79289C9.2285 1.70003 9.00802 1.62638 8.76537 1.57612C8.52272 1.52587 8.26264 1.5 8 1.5C7.73736 1.5 7.47728 1.52587 7.23463 1.57612C6.99198 1.62638 6.7715 1.70003 6.58579 1.79289C6.40007 1.88575 6.25275 1.99599 6.15224 2.11732Z"/><path fill="currentColor" d="M6.15224 2.11732L6.9223 2.75529L6.92233 2.75526L6.15224 2.11732ZM6 2.5H5V3.5H6V2.5ZM10 2.5V3.5H11V2.5H10ZM9.84776 2.11732L9.07767 2.75526L9.0777 2.75529L9.84776 2.11732ZM9.41421 1.79289L8.96698 2.68731L8.967 2.68732L9.41421 1.79289ZM8.76537 1.57612L8.96819 0.596905L8.96816 0.596897L8.76537 1.57612ZM7.23463 1.57612L7.03184 0.596897L7.03181 0.596905L7.23463 1.57612ZM6.58579 1.79289L7.033 2.68732L7.03302 2.68731L6.58579 1.79289ZM5.38218 1.47935C5.16395 1.74276 5 2.0915 5 2.5H7C7 2.64586 6.93951 2.73452 6.9223 2.75529L5.38218 1.47935ZM6 3.5H10V1.5H6V3.5ZM11 2.5C11 2.0915 10.836 1.74276 10.6178 1.47935L9.0777 2.75529C9.06049 2.73452 9 2.64586 9 2.5H11ZM10.6178 1.47938C10.4053 1.22282 10.1338 1.03465 9.86142 0.898463L8.967 2.68732C9.0136 2.71062 9.04489 2.73092 9.06381 2.74508C9.08299 2.75944 9.08502 2.76413 9.07767 2.75526L10.6178 1.47938ZM9.86144 0.898472C9.58502 0.760253 9.27978 0.661444 8.96819 0.596905L8.56255 2.55534C8.73626 2.59132 8.87198 2.63981 8.96698 2.68731L9.86144 0.898472ZM8.96816 0.596897C8.65496 0.532037 8.32673 0.5 8 0.5V2.5C8.19855 2.5 8.39049 2.5197 8.56258 2.55534L8.96816 0.596897ZM8 0.5C7.67327 0.5 7.34504 0.532037 7.03184 0.596897L7.43742 2.55534C7.60952 2.5197 7.80145 2.5 8 2.5V0.5ZM7.03181 0.596905C6.72022 0.661444 6.41498 0.760253 6.13856 0.898472L7.03302 2.68731C7.12802 2.63981 7.26374 2.59132 7.43745 2.55534L7.03181 0.596905ZM6.13858 0.898463C5.86621 1.03465 5.59469 1.22282 5.38215 1.47938L6.92233 2.75526C6.91498 2.76413 6.91701 2.75944 6.93619 2.74508C6.95511 2.73092 6.9864 2.71062 7.033 2.68732L6.13858 0.898463Z" mask="url(#path-1-inside-1_3424_2020)"/><path fill="currentColor" stroke="currentColor" d="M3.76268 4.8208L3.84433 4.25H3.26772H2.5C2.36193 4.25 2.25 4.13807 2.25 4C2.25 3.86193 2.36193 3.75 2.5 3.75H13.5C13.6381 3.75 13.75 3.86194 13.75 4C13.75 4.13806 13.6381 4.25 13.5 4.25H12.7323H12.1555L12.2374 4.82092C12.2457 4.87894 12.25 4.93871 12.25 5V12.5C12.25 13.1904 11.6904 13.75 11 13.75H5C4.30964 13.75 3.75 13.1904 3.75 12.5V5C3.75 4.93887 3.75435 4.87906 3.76268 4.8208Z"/></svg>