<svg viewBox="0 0 16 16" fill="currentcolor" xmlns="http://www.w3.org/2000/svg" xmlns:xlink="http://www.w3.org/1999/xlink">
  <path d="M6.152 2.117A.6.6 0 0 0 6 2.5h4a.6.6 0 0 0-.152-.383 1.33 1.33 0 0 0-.434-.324 2.675 2.675 0 0 0-.649-.217A3.803 3.803 0 0 0 8 1.5c-.263 0-.523.026-.765.076-.243.05-.464.124-.65.217a1.33 1.33 0 0 0-.433.324z" /><path fill-rule="evenodd" clip-rule="evenodd" d="M1.75 4a.75.75 0 0 1 .75-.75h11a.75.75 0 0 1 0 1.5h-.75v7.75A1.75 1.75 0 0 1 11 14.25H5a1.75 1.75 0 0 1-1.75-1.75V4.75H2.5A.75.75 0 0 1 1.75 4zm3 8.5V4.75h6.5v7.75a.25.25 0 0 1-.25.25H5a.25.25 0 0 1-.25-.25z" />
</svg>
