<svg viewBox="0 0 16 16" fill="currentcolor" xmlns="http://www.w3.org/2000/svg" xmlns:xlink="http://www.w3.org/1999/xlink">
  <path fill-rule="evenodd" clip-rule="evenodd" d="M2 1.25A1.75 1.75 0 0 0 .25 3v3h1v7c0 .966.784 1.75 1.75 1.75h4v-1.5H3a.25.25 0 0 1-.25-.25V6h10.5v2h1.5V6h1V3A1.75 1.75 0 0 0 14 1.25H2zM14.25 4.5V3a.25.25 0 0 0-.25-.25H2a.25.25 0 0 0-.25.25v1.5h12.5z" /><path d="M9 9a1 1 0 1 1-2 0 1 1 0 0 1 2 0zM9.414 12.469a.75.75 0 0 1 .117-1.055l2.5-2a.75.75 0 0 1 .937 0l2.5 2a.75.75 0 1 1-.937 1.172L13.25 11.56v2.94a.75.75 0 0 1-1.5 0v-2.94l-1.282 1.026a.75.75 0 0 1-1.054-.117z" />
</svg>
