<svg viewBox="0 0 16 16" fill="currentcolor" xmlns="http://www.w3.org/2000/svg" xmlns:xlink="http://www.w3.org/1999/xlink">
  <path fill-rule="evenodd" clip-rule="evenodd" d="M1.646 1.646a.5.5 0 0 1 .708 0l12 12a.5.5 0 0 1-.708.708l-3.407-3.408a1.784 1.784 0 0 0-.118.639c0 1.421-1.719 2.133-2.724 1.128L3.214 8.53C2.208 7.524 2.92 5.805 4.342 5.805c.224 0 .44-.041.639-.117L1.646 2.354a.5.5 0 0 1 0-.708zM6.093 6.8l3.033 3.033a3.277 3.277 0 0 0-.505 1.752c0 .031-.008.046-.013.054a.104.104 0 0 1-.046.034.105.105 0 0 1-.056.008c-.01-.002-.026-.006-.048-.029L4.274 7.47c-.022-.023-.027-.038-.028-.048a.104.104 0 0 1 .008-.056.104.104 0 0 1 .034-.046c.008-.005.022-.014.054-.014.64 0 1.242-.184 1.751-.505z" /><path d="M10.989 8.428c.147-.043.3-.076.455-.098l.791-.113a.25.25 0 0 0 .142-.424L8.133 3.55a.25.25 0 0 0-.424.142l-.113.791a3.305 3.305 0 0 1-.098.455L6.202 3.64l.023-.161c.204-1.428 1.95-2.01 2.97-.99l4.242 4.242c1.02 1.02.438 2.766-.99 2.97l-.161.023-1.297-1.297zM5.25 11.677l-1-1-1.95 2.6c-.173.231.119.523.35.35l2.6-1.95z" />
</svg>
