<svg xmlns="http://www.w3.org/2000/svg" width="16" height="16" fill="currentcolor" viewBox="0 0 16 16"><path d="M8.99 13.117a.77.77 0 1 1 .292 1.51 6.8 6.8 0 0 1-2.565 0 .77.77 0 0 1 .293-1.51 5.2 5.2 0 0 0 1.98 0m3.325-2.194a.77.77 0 0 1 1.274.863 6.8 6.8 0 0 1-1.824 1.816.768.768 0 0 1-.857-1.278 5.2 5.2 0 0 0 1.407-1.401m-9.708-.225a.77.77 0 0 1 1.067.21c.372.555.85 1.032 1.402 1.406a.77.77 0 0 1-.863 1.274 6.8 6.8 0 0 1-1.815-1.823.77.77 0 0 1 .21-1.067zM1.373 6.717a.77.77 0 0 1 1.51.293 5.2 5.2 0 0 0 0 1.98.77.77 0 0 1-1.51.292 6.8 6.8 0 0 1 0-2.565m12.353-.609a.77.77 0 0 1 .9.609 6.8 6.8 0 0 1 0 2.565.77.77 0 0 1-1.509-.292 5.2 5.2 0 0 0 0-1.98.77.77 0 0 1 .608-.902zm-3.008-3.492a.77.77 0 0 1 1.068-.205 6.8 6.8 0 0 1 1.816 1.822.77.77 0 0 1-1.278.859 5.2 5.2 0 0 0-1.401-1.408.77.77 0 0 1-.205-1.068m-6.485-.218a.77.77 0 0 1 .859 1.276 5.2 5.2 0 0 0-1.408 1.402.77.77 0 0 1-1.273-.862 6.8 6.8 0 0 1 1.822-1.816m2.484-1.025a6.8 6.8 0 0 1 2.565 0 .77.77 0 1 1-.292 1.51 5.2 5.2 0 0 0-1.98 0 .77.77 0 0 1-.293-1.51"/></svg>
