<svg viewBox="0 0 32 32" fill="currentcolor" xmlns="http://www.w3.org/2000/svg" xmlns:xlink="http://www.w3.org/1999/xlink">
  <path d="M17.9212 4C13.4212 4 9.58341 7.1279 8.82185 11.3473C4.52316 11.5733 1 14.9877 1 19.3056C1 22.1628 2.5575 24.6406 4.84602 26.0392C5.57726 26.4861 6.53233 26.2554 6.97923 25.5243C7.4261 24.7931 7.19558 23.8381 6.46432 23.3912C5.0201 22.5086 4.10345 20.993 4.10345 19.3056C4.10345 16.685 6.35041 14.4389 9.27586 14.4389C9.53171 14.4389 9.78236 14.4563 10.0268 14.4896C10.472 14.5505 10.9218 14.4152 11.2597 14.119C11.5976 13.8227 11.7905 13.3945 11.7885 12.9451L11.7882 12.884C11.79 9.75834 14.4664 7.10345 17.9212 7.10345C21.3772 7.10345 24.0543 9.76015 24.0543 12.8871C24.0543 13.9287 23.7634 14.9048 23.2505 15.751C22.9592 16.2317 22.9505 16.8324 23.2281 17.3213C23.5056 17.8102 24.0257 18.1108 24.5879 18.107L24.6499 18.1066C26.512 18.109 27.8966 19.533 27.8966 21.1395C27.8966 22.3898 27.0719 23.5163 25.8177 23.9694C25.0116 24.2606 24.5943 25.15 24.8854 25.9561C25.1765 26.7619 26.0659 27.1794 26.872 26.8883C29.2453 26.031 31 23.811 31 21.1395C31 18.4359 29.217 16.2073 26.7936 15.3648C27.0305 14.5784 27.1577 13.7469 27.1577 12.8871C27.1577 7.91167 22.9536 4 17.9212 4ZM22.1413 19.8573C22.8106 20.3926 22.919 21.3692 22.3836 22.0383C21.8483 22.7076 20.8718 22.816 20.2027 22.2808L17.5517 20.1599V26.2414C17.5517 27.0983 16.857 27.7931 16 27.7931C15.143 27.7931 14.4483 27.0983 14.4483 26.2414V20.1592L11.7965 22.2808C11.1273 22.816 10.1508 22.7076 9.61544 22.0383C9.08008 21.3692 9.1886 20.3926 9.85778 19.8573L15.0302 15.7193C15.5969 15.266 16.4022 15.266 16.9689 15.7193L22.1413 19.8573Z" />
</svg>
