<svg viewBox="0 0 16 16" fill="currentcolor" xmlns="http://www.w3.org/2000/svg">
<path d="M11.5303 6.53033C11.8232 6.23744 11.8232 5.76256 11.5303 5.46967C11.2374 5.17678 10.7626 5.17678 10.4697 5.46967L7 8.93934L5.53033 7.46967C5.23744 7.17678 4.76256 7.17678 4.46967 7.46967C4.17678 7.76256 4.17678 8.23744 4.46967 8.53033L6.46967 10.5303C6.76256 10.8232 7.23744 10.8232 7.53033 10.5303L11.5303 6.53033Z" />
<path fill-rule="evenodd" clip-rule="evenodd" d="M8 1.25C4.27208 1.25 1.25 4.27208 1.25 8C1.25 11.7279 4.27208 14.75 8 14.75C11.7279 14.75 14.75 11.7279 14.75 8C14.75 4.27208 11.7279 1.25 8 1.25ZM2.75 8C2.75 5.10051 5.10051 2.75 8 2.75C10.8995 2.75 13.25 5.10051 13.25 8C13.25 10.8995 10.8995 13.25 8 13.25C5.10051 13.25 2.75 10.8995 2.75 8Z" />
</svg>
