<svg viewBox="0 0 16 16" fill="currentcolor" fill-rule="evenodd" xmlns="http://www.w3.org/2000/svg" xmlns:xlink="http://www.w3.org/1999/xlink">
  <path d="M9 9a1 1 0 1 1-2 0 1 1 0 0 1 2 0z" /><path fill-rule="evenodd" clip-rule="evenodd" d="M2 1.25A1.75 1.75 0 0 0 .25 3v3h1v7c0 .966.784 1.75 1.75 1.75h10A1.75 1.75 0 0 0 14.75 13V6h1V3A1.75 1.75 0 0 0 14 1.25H2zM14.25 4.5V3a.25.25 0 0 0-.25-.25H2a.25.25 0 0 0-.25.25v1.5h12.5zM2.75 6v7c0 .138.112.25.25.25h10a.25.25 0 0 0 .25-.25V6H2.75z" />
</svg>