<svg viewBox="0 0 16 16" fill="currentColor" xmlns="http://www.w3.org/2000/svg">
  <path d="M8 8.24994C7.58579 8.24994 7.25 7.91415 7.25 7.49994V4.49994C7.25 4.08573 7.58579 3.74994 8 3.74994C8.41421 3.74994 8.75 4.08573 8.75 4.49994V7.49994C8.75 7.91415 8.41421 8.24994 8 8.24994Z" />
  <path d="M7 10.5C7 9.94771 7.44772 9.5 8 9.5C8.55228 9.5 9 9.94772 9 10.5C9 11.0523 8.55228 11.5 8 11.5C7.44772 11.5 7 11.0523 7 10.5Z" />
  <path fill-rule="evenodd" clip-rule="evenodd" d="M8 1.25C4.27208 1.25 1.25 4.27208 1.25 8C1.25 11.7279 4.27208 14.75 8 14.75C11.7279 14.75 14.75 11.7279 14.75 8C14.75 4.27208 11.7279 1.25 8 1.25ZM2.75 8C2.75 5.10051 5.10051 2.75 8 2.75C10.8995 2.75 13.25 5.10051 13.25 8C13.25 10.8995 10.8995 13.25 8 13.25C5.10051 13.25 2.75 10.8995 2.75 8Z" />
</svg>
