<svg xmlns="http://www.w3.org/2000/svg" fill="currentcolor" viewBox="0 0 16 16"><path fill-rule="evenodd" d="M7.56108 6.96296C7.39985 7.23397 7.2405 7.50262 7.08226 7.7694C6.66889 8.46629 6.26308 9.15044 5.85119 9.83085C5.70492 10.0724 5.63254 10.2691 5.74941 10.5762C6.07201 11.4244 5.61692 12.2498 4.76154 12.4739C3.95489 12.6853 3.16895 12.1551 3.0089 11.2915C2.86708 10.527 3.4603 9.77768 4.30309 9.65821C4.34886 9.65167 4.39522 9.64887 4.45448 9.64529L4.45456 9.64528C4.48674 9.64334 4.52273 9.64116 4.56449 9.63803L5.84652 7.48825C5.04019 6.68647 4.56026 5.74917 4.66649 4.5878C4.74158 3.76682 5.06439 3.05739 5.65446 2.47589C6.78458 1.36237 8.50868 1.18203 9.83933 2.03675C11.1174 2.85773 11.7026 4.45694 11.2037 5.82567L10.0323 5.50785C10.1889 4.74688 10.0731 4.06349 9.55981 3.47808C9.22072 3.09157 8.7856 2.88898 8.2908 2.81433C7.29892 2.66448 6.32505 3.30175 6.03609 4.2753C5.70807 5.38024 6.20449 6.28282 7.56108 6.96296ZM9.22436 5.80532L10.4641 7.99178C12.5509 7.34615 14.1243 8.50133 14.6888 9.73812C15.3705 11.2321 14.9045 13.0015 13.5655 13.9232C12.1911 14.8694 10.453 14.7077 9.23532 13.4923L10.1907 12.6928C11.3935 13.4718 12.4453 13.4351 13.2263 12.5127C13.8922 11.7258 13.8778 10.5525 13.1925 9.78207C12.4017 8.89305 11.3425 8.86592 10.062 9.71935C9.91189 9.45295 9.76098 9.18714 9.61014 8.92145L9.61003 8.92126C9.22736 8.24722 8.84508 7.57385 8.47619 6.89312C8.30279 6.57324 8.11127 6.38769 7.72042 6.31998C7.06763 6.2068 6.64618 5.64624 6.6209 5.01819C6.59605 4.39709 6.96195 3.83566 7.5339 3.61691C8.10042 3.40021 8.76526 3.57513 9.14634 4.0568C9.45776 4.45036 9.55672 4.8933 9.39287 5.37866C9.36201 5.4703 9.32497 5.55995 9.28443 5.65809L9.28439 5.65817C9.26508 5.70492 9.24498 5.75359 9.22436 5.80532ZM7.69267 11.722H10.2049C10.2399 11.7687 10.2726 11.8148 10.3046 11.8599C10.3713 11.954 10.4346 12.0433 10.5086 12.1226C11.0406 12.6915 11.9391 12.7197 12.5078 12.1917C13.0972 11.6445 13.1239 10.7252 12.5669 10.1539C12.0219 9.5949 11.0904 9.54152 10.5843 10.1334C10.2769 10.4931 9.96192 10.5355 9.55392 10.5291C8.80835 10.5175 8.06239 10.5197 7.31663 10.522C7.01719 10.5229 6.71778 10.5237 6.41845 10.5237C6.48626 11.9937 5.93059 12.9096 4.82846 13.1271C3.74923 13.3401 2.75529 12.7894 2.40535 11.7847C2.00788 10.6431 2.49942 9.73011 3.9197 9.00548C3.81282 8.61832 3.70485 8.2265 3.59797 7.83836C2.04998 8.17571 0.888607 9.67759 1.00851 11.3672C1.11441 12.8587 2.31756 14.1833 3.78895 14.4206C4.58812 14.5496 5.339 14.4156 6.03563 14.0204C6.9318 13.512 7.45189 12.7124 7.69267 11.722Z" clip-rule="evenodd"/></svg>