<svg viewBox="0 0 16 16" fill="currentcolor" xmlns="http://www.w3.org/2000/svg" xmlns:xlink="http://www.w3.org/1999/xlink">
  <path d="M4.967 1.25c.495 0 .973.172 1.354.482l.158.143.786.786.004.003s0 .002.002.003l1.337 1.338.697-.697.03-.037c.012-.012.026-.021.038-.032l1.29-1.288a2.393 2.393 0 0 1 3.383 3.384L12.77 6.61c-.014.017-.027.036-.043.052-.016.016-.035.028-.052.042l-.683.684 2.131 2.13a2.14 2.14 0 0 1 0 3.028l-1.577 1.577a2.14 2.14 0 0 1-3.028 0l-2.13-2.13-1.439 1.44c-.22.218-.49.38-.786.47l-2.642.802a.993.993 0 0 1-.98-.246.99.99 0 0 1-.249-.98l.001-.003.802-2.64v-.002c.09-.297.253-.567.472-.786l1.438-1.439-2.13-2.13a2.144 2.144 0 0 1 0-3.026l1.578-1.578c.402-.4.947-.625 1.514-.625zm3.386 9.777l2.13 2.13a.774.774 0 0 0 1.097 0l1.577-1.577a.774.774 0 0 0 0-1.097l-.306-.306-.73.73a.683.683 0 0 1-.966-.965l.73-.731-.858-.858-2.674 2.674zm-4.82-.013a.535.535 0 0 0-.134.217l.001.001-.595 1.96 1.96-.594.061-.023a.535.535 0 0 0 .16-.11l6.29-6.29L9.82 4.72l-6.288 6.293zm1.434-8.399a.78.78 0 0 0-.55.227L2.841 4.418a.78.78 0 0 0 0 1.097L4.97 7.644 7.644 4.97l-.859-.86-.73.73a.682.682 0 0 1-.964-.964l.73-.73-.305-.305a.78.78 0 0 0-.55-.227zm7.388.001c-.273 0-.535.107-.728.3l-.84.84L12.24 5.21l.841-.84a1.029 1.029 0 0 0-.726-1.754z" />
</svg>
