<svg width="48" height="48" viewBox="0 0 48 48" fill="none" xmlns="http://www.w3.org/2000/svg">
<g clip-path="url(#clip0_2220_2816)">
<path d="M48 24C48 10.7452 37.2548 0 24 0C10.7452 0 0 10.7452 0 24C0 37.2548 10.7452 48 24 48C37.2548 48 48 37.2548 48 24Z" fill="#DCDFE0" fill-opacity="0.3"/>
<path d="M21.7997 23.3499L22.1497 22.9999L21.7897 22.6499L18.8197 19.6799C18.7719 19.6322 18.7451 19.5674 18.7451 19.4999C18.7451 19.4324 18.7719 19.3677 18.8197 19.3199C18.8674 19.2722 18.9322 19.2454 18.9997 19.2454C19.0672 19.2454 19.1319 19.2722 19.1797 19.3199L22.6797 22.8199C22.7797 22.9199 22.7797 23.0799 22.6797 23.1799L19.1797 26.6799C19.156 26.7036 19.128 26.7223 19.0971 26.7351C19.0662 26.7479 19.0331 26.7545 18.9997 26.7545C18.9662 26.7545 18.9331 26.7479 18.9023 26.7351C18.8714 26.7223 18.8433 26.7036 18.8197 26.6799C18.796 26.6563 18.7773 26.6282 18.7645 26.5973C18.7517 26.5665 18.7451 26.5333 18.7451 26.4999C18.7451 26.4665 18.7517 26.4334 18.7645 26.4025C18.7773 26.3716 18.796 26.3436 18.8197 26.3199L21.7897 23.3499H21.7997ZM22.7497 28.9999C22.7497 28.8599 22.8597 28.7499 22.9997 28.7499H28.9997C29.066 28.7499 29.1296 28.7763 29.1765 28.8231C29.2233 28.87 29.2497 28.9336 29.2497 28.9999C29.2497 29.0662 29.2233 29.1298 29.1765 29.1767C29.1296 29.2236 29.066 29.2499 28.9997 29.2499H22.9997C22.9334 29.2499 22.8698 29.2236 22.8229 29.1767C22.776 29.1298 22.7497 29.0662 22.7497 28.9999Z" stroke="#B7BCBF"/>
</g>
<defs>
<clipPath id="clip0_2220_2816">
<rect width="48" height="48" fill="white"/>
</clipPath>
</defs>
</svg>
