<svg width="96" height="96" viewBox="0 0 96 96" fill="none" xmlns="http://www.w3.org/2000/svg">
<g clip-path="url(#clip0_2220_2820)">
<path d="M48 96C74.5097 96 96 74.5097 96 48C96 21.4903 74.5097 0 48 0C21.4903 0 0 21.4903 0 48C0 74.5097 21.4903 96 48 96Z" fill="#DCDFE0" fill-opacity="0.3"/>
<path d="M44.5 32.375C44.6658 32.375 44.8252 32.4404 44.9424 32.5576L49.8984 37.5146H62.8398C63.8013 37.5146 64.7235 37.8973 65.4033 38.5771C66.0829 39.2569 66.4648 40.1785 66.4648 41.1396V43.9199H65.2148V41.1396C65.2148 40.51 64.9647 39.9062 64.5195 39.4609C64.0741 39.0155 63.4697 38.7646 62.8398 38.7646H49.6396C49.4741 38.7646 49.3154 38.6991 49.1982 38.582L44.2402 33.625H34C33.3701 33.625 32.7657 33.8749 32.3203 34.3203C31.8749 34.7657 31.625 35.3701 31.625 36V59.5303C31.625 60.0048 31.7258 60.4688 31.9141 60.8945C31.9237 60.9756 31.9359 61.0564 31.9521 61.1367C32.0434 61.586 32.2367 62.009 32.5166 62.3721C32.7966 62.7352 33.1569 63.029 33.5684 63.2314C33.9798 63.4339 34.4321 63.5397 34.8906 63.54H63.5508C63.807 63.5398 64.0599 63.5052 64.3047 63.4414C63.5721 63.903 62.7194 64.1553 61.8398 64.1553H35C33.7734 64.1553 32.5968 63.6681 31.7295 62.8008C30.8622 61.9335 30.3751 60.7568 30.375 59.5303V36C30.375 35.0386 30.7567 34.1163 31.4365 33.4365C32.1163 32.7567 33.0386 32.375 34 32.375H44.5Z" fill="#B7BCBF"/>
<path d="M35.5504 46.1599C35.7184 45.5186 36.094 44.951 36.6187 44.5457C37.1434 44.1405 37.7875 43.9204 38.4504 43.9199H68.4104C68.7151 43.9209 69.0156 43.9915 69.2888 44.1263C69.5621 44.2611 69.8009 44.4566 69.9871 44.6977C70.1733 44.9389 70.3019 45.2195 70.3631 45.5179C70.4244 45.8164 70.4166 46.1249 70.3404 46.4199L66.4504 61.2999C66.2825 61.9412 65.9068 62.5089 65.3822 62.9141C64.8575 63.3194 64.2134 63.5395 63.5504 63.5399H34.8904C34.4319 63.5396 33.9795 63.4342 33.5681 63.2317C33.1567 63.0293 32.7971 62.7352 32.5171 62.3721C32.237 62.009 32.0439 61.5866 31.9526 61.1372C31.8613 60.6878 31.8743 60.2235 31.9904 59.7799L35.5504 46.1699V46.1599Z" fill="#DCDFE0" fill-opacity="0.3" stroke="#B7BCBF" stroke-width="1.25" stroke-linejoin="round"/>
</g>
<defs>
<clipPath id="clip0_2220_2820">
<rect width="96" height="96" fill="white"/>
</clipPath>
</defs>
</svg>
