<svg xmlns="http://www.w3.org/2000/svg" width="96" height="96" fill="none"><g clip-path="url(#a)"><circle cx="48" cy="48" r="48" fill="#4C5773" fill-opacity=".05"/><path stroke="#949AAB" stroke-linejoin="round" stroke-width="1.25" d="M31 36a3 3 0 0 1 3-3h10.5l5.14 5.14h13.2a3 3 0 0 1 3 3v18.39a4 4 0 0 1-4 4H35a4 4 0 0 1-4-4V36Z"/><path fill="#fff" stroke="#949AAB" stroke-linejoin="round" stroke-width="1.25" d="M35.55 46.16a3 3 0 0 1 2.9-2.24h29.96a2 2 0 0 1 1.93 2.5L66.45 61.3a3 3 0 0 1-2.9 2.24H34.89a3 3 0 0 1-2.9-3.76l3.56-13.61Z"/></g><defs><clipPath id="a"><path fill="#fff" d="M0 0h96v96H0z"/></clipPath></defs></svg>