<svg xmlns="http://www.w3.org/2000/svg" fill="none" viewBox="0 0 48 62">
  <g clip-path="url(#a)">
    <path fill="#fff" d="M1 42.5h46v11.334c0 1.716-.627 3.366-2.173 4.11C42.083 59.265 36.165 61 24 61c-12.165 0-18.083-1.735-20.827-3.056C1.627 57.2 1 55.55 1 53.834V42.5Z"/>
    <path fill="#B7BCBF" d="M46.375 43.125H1.625v10.709c0 1.591.578 2.949 1.82 3.547 2.626 1.264 8.44 2.994 20.555 2.994 12.116 0 17.93-1.73 20.556-2.994 1.241-.598 1.819-1.956 1.819-3.547V43.125Zm1.25 10.709c0 1.84-.677 3.783-2.527 4.674-2.86 1.377-8.884 3.117-21.098 3.117-11.45 0-17.46-1.53-20.523-2.855l-.575-.262c-1.85-.891-2.527-2.834-2.527-4.674V41.875h47.25v11.959Z"/>
    <path fill="#fff" d="M47 42c0 2.761-10.297 5-23 5S1 44.761 1 42s10.297-5 23-5 23 2.239 23 5Z"/>
    <path fill="#B7BCBF" d="M46.375 42c0-.137-.061-.328-.298-.58-.24-.253-.622-.53-1.17-.81-1.094-.563-2.718-1.087-4.776-1.535-4.107-.893-9.81-1.45-16.131-1.45-6.32 0-12.024.557-16.13 1.45-2.06.448-3.683.972-4.777 1.534-.548.282-.93.558-1.17.812-.237.251-.298.442-.298.579 0 .137.061.328.298.58.24.253.622.53 1.17.81 1.094.563 2.718 1.087 4.776 1.535 4.107.893 9.81 1.45 16.131 1.45 6.32 0 12.024-.557 16.13-1.45 2.06-.448 3.683-.972 4.777-1.534.548-.282.93-.558 1.17-.812.237-.251.298-.442.298-.579Zm1.25 0c0 .554-.26 1.037-.637 1.437-.373.396-.894.748-1.51 1.065-1.233.634-2.978 1.187-5.081 1.645-4.218.916-10.015 1.478-16.397 1.478-6.382 0-12.179-.562-16.396-1.478-2.104-.458-3.849-1.01-5.083-1.645-.615-.317-1.136-.669-1.51-1.066-.376-.4-.636-.882-.636-1.436 0-.554.26-1.037.637-1.437.373-.396.894-.748 1.51-1.065 1.233-.634 2.978-1.187 5.082-1.645 4.217-.916 10.014-1.478 16.396-1.478 6.382 0 12.179.562 16.397 1.478 2.103.458 3.848 1.01 5.081 1.645.616.317 1.137.669 1.51 1.066.377.4.637.882.637 1.436Z"/>
    <path fill="#fff" d="M1 24.5h46v11.398c0 1.752-.654 3.428-2.245 4.162C41.981 41.341 36.06 43 24 43c-12.06 0-17.98-1.659-20.755-2.94C1.655 39.326 1 37.65 1 35.898V24.5Z"/>
    <path fill="#B7BCBF" d="M46.375 25.125H1.625v10.773c0 1.623.601 3.004 1.882 3.595l.537.234C6.92 40.922 12.738 42.376 24 42.376c12.013 0 17.833-1.653 20.493-2.882 1.28-.591 1.882-1.971 1.882-3.596V25.126Zm1.25 10.773c0 1.88-.708 3.852-2.608 4.73-2.889 1.333-8.91 2.997-21.017 2.997-11.351 0-17.353-1.463-20.438-2.744l-.579-.253c-1.9-.878-2.608-2.85-2.608-4.73V23.875h47.25v12.023Z"/>
    <path fill="#fff" d="M47 24c0 2.761-10.297 5-23 5S1 26.761 1 24s10.297-5 23-5 23 2.239 23 5Z"/>
    <path fill="#B7BCBF" d="M46.375 24c0-.137-.061-.328-.298-.58-.24-.253-.622-.53-1.17-.81-1.094-.563-2.718-1.087-4.776-1.535-4.107-.893-9.81-1.45-16.131-1.45-6.32 0-12.024.557-16.13 1.45-2.06.448-3.683.972-4.777 1.534-.548.282-.93.558-1.17.812-.237.251-.298.442-.298.579 0 .137.061.328.298.58.24.253.622.53 1.17.81 1.094.563 2.718 1.087 4.776 1.535 4.107.893 9.81 1.45 16.131 1.45 6.32 0 12.024-.557 16.13-1.45 2.06-.448 3.683-.972 4.777-1.534.548-.282.93-.558 1.17-.812.237-.251.298-.442.298-.579Zm1.25 0c0 .554-.26 1.037-.637 1.436-.373.397-.894.75-1.51 1.066-1.233.634-2.978 1.187-5.081 1.645-4.218.916-10.015 1.478-16.397 1.478-6.382 0-12.179-.562-16.396-1.479-2.104-.457-3.849-1.01-5.083-1.644-.615-.317-1.136-.669-1.51-1.066-.376-.4-.636-.882-.636-1.436 0-.554.26-1.037.637-1.436.373-.397.894-.75 1.51-1.066 1.233-.634 2.978-1.187 5.082-1.645 4.217-.916 10.014-1.478 16.396-1.478 6.382 0 12.179.562 16.397 1.479 2.103.457 3.848 1.01 5.081 1.644.616.317 1.137.669 1.51 1.066.377.4.637.882.637 1.436Z"/>
    <path fill="#fff" d="M1 6.5h46v11.334c0 1.716-.627 3.366-2.173 4.11C42.083 23.265 36.165 25 24 25c-12.165 0-18.083-1.735-20.827-3.056C1.627 21.2 1 19.55 1 17.834V6.5Z"/>
    <path fill="#B7BCBF" d="M25.78 25.612a122.448 122.448 0 0 1-3.56 0l.018-1.25a121.395 121.395 0 0 0 3.524 0l.017 1.25Zm-8.799-1.458a94.17 94.17 0 0 0 3.502.17l-.018.624-.02.624a95.552 95.552 0 0 1-3.549-.17l.043-.625.042-.623Zm14.08.623.043.624c-1.109.076-2.29.133-3.55.171l-.019-.624-.018-.625a94.17 94.17 0 0 0 3.502-.169l.042.623ZM11.758 23.61a63.65 63.65 0 0 0 3.477.407l-.056.622-.056.623a64.9 64.9 0 0 1-3.546-.414l.091-.618.09-.62Zm24.574.62.09.618a64.9 64.9 0 0 1-3.545.414l-.056-.623-.056-.622a63.65 63.65 0 0 0 3.477-.407l.09.62ZM6.653 22.558c.955.27 2.075.534 3.385.772l-.112.614-.112.616a37.527 37.527 0 0 1-3.502-.8l.171-.6.17-.602Zm34.864.601.17.602a37.53 37.53 0 0 1-3.502.799l-.11-.616-.113-.614a36.29 36.29 0 0 0 3.385-.772l.17.601ZM2.412 20.54c.266.348.606.635 1.032.84l.34.16c.357.16.765.325 1.23.493l-.212.588-.213.588c-.493-.178-.93-.356-1.317-.53l-.37-.171a4.078 4.078 0 0 1-1.483-1.21l.993-.758Zm44.17.759a4.1 4.1 0 0 1-1.484 1.209c-.473.227-1.03.464-1.687.701l-.213-.588-.212-.588a16.71 16.71 0 0 0 1.57-.652l.156-.08c.354-.198.643-.456.876-.761l.993.759ZM.374 17.834v-1.889h1.25v1.889c0 .508.06 1 .186 1.453l-.603.167-.603.166a6.737 6.737 0 0 1-.23-1.786Zm46 0v-1.889h1.25v1.889c0 .605-.072 1.21-.23 1.786l-.603-.166-.602-.167a5.49 5.49 0 0 0 .185-1.453Zm-44.75-7.556v3.778H.375v-3.778h1.25Zm46 0v3.778h-1.25v-3.778h1.25ZM2.917 5.875v1.25H1.625v1.264H.375V5.875h2.542Zm44.708 0v2.514h-1.25V7.125h-1.292v-1.25h2.542Zm-38.958 0v1.25H4.833v-1.25h3.834Zm5.75 0v1.25h-3.834v-1.25h3.834Zm5.75 0v1.25h-3.834v-1.25h3.834Zm5.75 0v1.25h-3.834v-1.25h3.834Zm5.75 0v1.25h-3.834v-1.25h3.834Zm5.75 0v1.25h-3.834v-1.25h3.834Zm5.75 0v1.25h-3.834v-1.25h3.834Z"/>
    <path fill="#fff" d="M47 6c0 2.761-10.297 5-23 5S1 8.761 1 6s10.297-5 23-5 23 2.239 23 5Z"/>
    <path fill="#B7BCBF" d="m26.03 10.98.011.625a108.121 108.121 0 0 1-4.082 0l.012-.625.012-.625a106.357 106.357 0 0 0 4.034 0l.012.625Zm-10.082-.922a95.04 95.04 0 0 0 4.02.24l-.025.625-.023.624a95.246 95.246 0 0 1-4.074-.243l.05-.623.052-.623Zm16.155.623.051.623a95.246 95.246 0 0 1-4.074.243l-.023-.624-.025-.625a93.857 93.857 0 0 0 4.02-.24l.051.623ZM9.963 9.327c1.23.209 2.563.39 3.981.542l-.065.622-.066.621a66.411 66.411 0 0 1-4.058-.552l.209-1.233Zm28.282 1.233a66.6 66.6 0 0 1-4.057.552l-.067-.62-.065-.623a65.356 65.356 0 0 0 3.98-.542l.21 1.233ZM4.193 7.876c1.021.392 2.304.756 3.807 1.077l-.262 1.223c-1.544-.33-2.893-.71-3.993-1.133l.448-1.167Zm40.062 1.167c-1.1.422-2.45.802-3.993 1.133L40 8.953c1.503-.321 2.786-.685 3.807-1.077l.448 1.167ZM.375 6c0-.876.64-1.566 1.434-2.089l.687 1.043c-.702.463-.871.827-.871 1.046 0 .219.169.583.871 1.046L1.81 8.089C1.015 7.566.375 6.876.375 6Zm46 0c0-.219-.169-.583-.871-1.046l.687-1.043c.794.523 1.434 1.213 1.434 2.089 0 .876-.64 1.566-1.434 2.089l-.687-1.043c.702-.463.871-.827.871-1.046ZM8 3.047c-1.503.321-2.786.685-3.807 1.077l-.448-1.167c1.1-.422 2.45-.802 3.993-1.133L8 3.047Zm32.262-1.223c1.544.33 2.893.71 3.993 1.133l-.448 1.167c-1.021-.392-2.304-.756-3.807-1.077l.262-1.223ZM13.879 1.51l.065.622a65.36 65.36 0 0 0-3.98.542l-.21-1.233a66.622 66.622 0 0 1 4.059-.552l.066.62ZM34.188.888c1.44.153 2.8.339 4.057.552l-.209 1.233a65.356 65.356 0 0 0-3.98-.542l.065-.622.066-.621Zm-14.245.19.025.624a93.827 93.827 0 0 0-4.02.24l-.052-.623-.05-.623A95.114 95.114 0 0 1 19.92.453l.023.624ZM28.08.452c1.405.054 2.768.136 4.074.243l-.05.623-.052.623a93.827 93.827 0 0 0-4.02-.24l.025-.625.023-.624ZM24 .375c.688 0 1.369.007 2.041.02l-.012.625-.012.625a106.189 106.189 0 0 0-4.034 0l-.012-.625-.012-.625c.672-.013 1.353-.02 2.041-.02Z"/>
  </g>
  <defs>
    <clipPath id="a">
      <path fill="#fff" d="M0 0h48v62H0z"/>
    </clipPath>
  </defs>
</svg>
