<svg width="48" height="62" viewBox="0 0 48 62" fill="none" xmlns="http://www.w3.org/2000/svg">
<g clip-path="url(#clip0_2225_1170)">
<g opacity="0.8">
<path d="M47.251 53.834C47.251 55.674 46.5736 57.6168 44.7236 58.5078C41.8635 59.8848 35.8397 61.625 23.626 61.625C12.176 61.625 6.16554 60.0945 3.10254 58.7695L2.52832 58.5078C0.67832 57.6168 0.000976562 55.674 0.000976562 53.834V41.875H0.633789C0.629092 41.9166 0.625977 41.9582 0.625977 42C0.625977 42.3998 0.843071 42.7874 1.25098 43.1602V53.834C1.25098 55.425 1.82929 56.7829 3.07129 57.3809C5.69738 58.6449 11.5113 60.375 23.626 60.375C35.7416 60.375 41.5555 58.6449 44.1816 57.3809C45.4226 56.7829 46.001 55.425 46.001 53.834V43.1602C46.4089 42.7874 46.626 42.3998 46.626 42C46.626 41.9582 46.6229 41.9166 46.6182 41.875H47.251V53.834Z" fill="#B7BCBF"/>
<path d="M45.1895 39.543C45.7681 39.8483 46.2587 40.186 46.6143 40.5645C46.9911 40.9644 47.251 41.4462 47.251 42C47.251 42.5538 46.9911 43.0366 46.6143 43.4365C46.2413 43.8325 45.7195 44.185 45.1035 44.502C43.8706 45.1358 42.1261 45.6895 40.0234 46.1475C35.8054 47.0635 30.008 47.625 23.626 47.625C17.244 47.625 11.4465 47.0635 7.22949 46.1475C5.12586 45.6895 3.38137 45.1368 2.14746 44.502C1.53246 44.185 1.01072 43.8325 0.636719 43.4355C0.260906 43.0356 0.000976562 42.5538 0.000976562 42C0.000976562 41.4462 0.260895 40.9634 0.637695 40.5635C0.993124 40.1861 1.48318 39.8482 2.06152 39.543C2.29868 39.7455 2.56787 39.9196 2.87109 40.0596C3.03751 40.1364 3.21559 40.2139 3.40527 40.293C3.15787 40.3974 2.92807 40.5018 2.71875 40.6094C2.17093 40.8913 1.78878 41.1669 1.54883 41.4209C1.31184 41.6719 1.25098 41.863 1.25098 42C1.25098 42.137 1.31185 42.3281 1.54883 42.5801C1.78878 42.833 2.17092 43.1097 2.71875 43.3896C3.81275 43.9526 5.43712 44.4768 7.49512 44.9248C11.6021 45.8178 17.305 46.375 23.626 46.375C29.9459 46.375 35.6499 45.8178 39.7559 44.9248C41.8159 44.4768 43.4392 43.9526 44.5332 43.3906C45.081 43.1087 45.4632 42.8331 45.7031 42.5791C45.9401 42.3281 46.001 42.137 46.001 42C46.001 41.863 45.9401 41.6719 45.7031 41.4199C45.4632 41.167 45.081 40.8903 44.5332 40.6104C44.3236 40.5025 44.0935 40.3977 43.8457 40.293C44.0357 40.2137 44.2142 40.1365 44.3809 40.0596C44.6839 39.9197 44.9524 39.7452 45.1895 39.543Z" fill="#B7BCBF"/>
<path d="M25.656 10.98L25.667 11.605C24.3064 11.6307 22.9455 11.6307 21.585 11.605L21.597 10.98L21.609 10.355C22.9535 10.3805 24.2984 10.3805 25.643 10.355L25.655 10.98H25.656ZM15.574 10.058C16.9121 10.1664 18.2524 10.2464 19.594 10.298L19.569 10.923L19.546 11.547C18.1864 11.4951 16.8281 11.4141 15.472 11.304L15.522 10.681L15.574 10.058ZM31.729 10.681L31.78 11.304C30.4239 11.4141 29.0656 11.4951 27.706 11.547L27.683 10.923L27.658 10.298C28.9995 10.2468 30.3398 10.1667 31.678 10.058L31.729 10.681ZM9.58898 9.327C10.819 9.536 12.152 9.717 13.57 9.869L13.505 10.491L13.439 11.112C12.081 10.9698 10.7276 10.7857 9.38098 10.56L9.58898 9.327ZM37.871 10.56C36.5246 10.7855 35.1716 10.9696 33.814 11.112L33.747 10.492L33.682 9.869C35.0139 9.72915 36.3412 9.5484 37.662 9.327L37.871 10.56ZM3.81898 7.876C4.83998 8.268 6.12298 8.632 7.62598 8.953L7.36398 10.176C5.81998 9.846 4.47098 9.466 3.37098 9.043L3.81898 7.876ZM43.881 9.043C42.781 9.465 41.431 9.845 39.888 10.176L39.626 8.953C41.129 8.632 42.412 8.268 43.433 7.876L43.881 9.043ZM0.000976562 6C0.000976562 5.124 0.640977 4.434 1.43498 3.911L2.12198 4.954C1.41998 5.417 1.25098 5.781 1.25098 6C1.25098 6.219 1.41998 6.583 2.12198 7.046L1.43598 8.089C0.640976 7.566 0.000976562 6.876 0.000976562 6ZM46.001 6C46.001 5.781 45.832 5.417 45.13 4.954L45.817 3.911C46.611 4.434 47.251 5.124 47.251 6C47.251 6.876 46.611 7.566 45.817 8.089L45.13 7.046C45.832 6.583 46.001 6.219 46.001 6ZM7.62598 3.047C6.12298 3.368 4.83998 3.732 3.81898 4.124L3.37098 2.957C4.47098 2.535 5.82098 2.155 7.36398 1.824L7.62598 3.047ZM39.888 1.824C41.432 2.154 42.781 2.534 43.881 2.957L43.433 4.124C42.412 3.732 41.129 3.368 39.626 3.047L39.888 1.824ZM13.505 1.51L13.57 2.132C12.2381 2.27185 10.9108 2.4526 9.58998 2.674L9.37998 1.441C10.727 1.21544 12.0806 1.03135 13.439 0.889L13.505 1.509V1.51ZM33.814 0.888C35.254 1.041 36.614 1.227 37.871 1.44L37.662 2.673C36.3412 2.4516 35.0139 2.27085 33.682 2.131L33.747 1.509L33.814 0.888ZM19.569 1.078L19.594 1.702C18.2524 1.75323 16.9121 1.83325 15.574 1.942L15.522 1.319L15.472 0.696C16.8281 0.585871 18.1864 0.504852 19.546 0.453L19.569 1.078ZM27.706 0.452C29.111 0.506 30.474 0.588 31.78 0.695L31.73 1.318L31.678 1.941C30.3398 1.83225 28.9995 1.75223 27.658 1.701L27.683 1.076L27.706 0.452ZM23.626 0.375C24.314 0.375 24.995 0.382 25.667 0.395L25.655 1.02L25.643 1.645C24.2984 1.61946 22.9535 1.61946 21.609 1.645L21.597 1.02L21.585 0.395C22.257 0.382 22.938 0.375 23.626 0.375Z" fill="#B7BCBF"/>
<path d="M25.4054 25.6123C24.2189 25.6296 23.0323 25.6296 21.8458 25.6123L21.8644 24.3623C23.0387 24.3794 24.2135 24.3793 25.3878 24.3623L25.4054 25.6123ZM16.6075 24.1543C17.7735 24.2327 18.9414 24.2893 20.1095 24.3242L20.0909 24.9482L20.0714 25.5723C18.8877 25.5376 17.7042 25.481 16.5226 25.4023L16.5655 24.7773L16.6075 24.1543ZM30.6876 24.7773L30.7306 25.4014C29.6217 25.4774 28.4397 25.5343 27.1798 25.5723L27.1613 24.9482L27.1437 24.3232C28.3117 24.2886 29.4797 24.2323 30.6456 24.1543L30.6876 24.7773ZM11.3839 23.6104C12.5389 23.7779 13.699 23.9128 14.8614 24.0166L14.8048 24.6387L14.7491 25.2617C13.5637 25.1563 12.3811 25.0181 11.2032 24.8477L11.2941 24.2305L11.3839 23.6104ZM36.048 24.8477C34.8705 25.0181 33.6881 25.1563 32.503 25.2617L32.3917 24.0166C33.554 23.9129 34.7135 23.7778 35.8683 23.6104L36.048 24.8477ZM6.27942 22.5576C7.23434 22.8276 8.35433 23.0921 9.66418 23.3301L9.55188 23.9443L9.44055 24.5596C8.26129 24.349 7.09233 24.0821 5.9386 23.7598L6.10949 23.1602L6.27942 22.5576ZM41.1437 23.1592L41.3136 23.7607C40.1599 24.0827 38.9908 24.3493 37.8116 24.5596L37.7013 23.9443L37.588 23.3301C38.7278 23.1269 39.8576 22.8687 40.9728 22.5576L41.1437 23.1592ZM2.03821 20.54C2.30416 20.888 2.64453 21.1749 3.07043 21.3799L3.41028 21.54C3.76712 21.7 4.17502 21.8653 4.63977 22.0332L4.42785 22.6211L4.21496 23.209C3.72222 23.0311 3.2854 22.8526 2.89856 22.6787L2.52844 22.5078C1.9452 22.2278 1.43634 21.8131 1.04504 21.2979L2.03821 20.54ZM46.2081 21.2988C45.8159 21.8131 45.3076 22.2276 44.7247 22.5078C44.2518 22.7348 43.6941 22.972 43.0372 23.209L42.8243 22.6211L42.6124 22.0332C43.1463 21.8427 43.67 21.6246 44.1818 21.3809L44.338 21.3008C44.6919 21.1028 44.981 20.8449 45.214 20.54L46.2081 21.2988ZM1.25012 17.834C1.25012 18.342 1.31065 18.8341 1.43664 19.2871L0.833127 19.4541L0.230588 19.6201C0.0743553 19.0378 -0.00348157 18.4369 0.000119456 17.834V15.9453H1.25012V17.834ZM47.2501 17.834C47.2501 18.439 47.1786 19.0441 47.0206 19.6201L46.4171 19.4541L45.8155 19.2871C45.9418 18.8132 46.0036 18.3244 46.0001 17.834V15.9453H47.2501V17.834ZM1.25012 14.0557H0.00109602V10.2783H1.25012V14.0557ZM47.2501 14.0557H46.0001V10.2783H47.2501V14.0557ZM1.2511 7.125V8.38867H0.00109602V5.875L1.2511 7.125ZM47.2511 8.38867H46.0011V7.125L47.2511 5.875V8.38867Z" fill="#B7BCBF"/>
<path d="M47.251 35.8984C47.2509 37.7783 46.5424 39.75 44.6426 40.6279C41.7535 41.9609 35.7326 43.625 23.626 43.625C12.275 43.625 6.2725 42.1619 3.1875 40.8809L2.60938 40.6279C0.709523 39.75 0.0010867 37.7783 0.000976562 35.8984V23.875H0.633789C0.629092 23.9166 0.625977 23.9582 0.625977 24C0.625977 24.3998 0.843071 24.7874 1.25098 25.1602V35.8984C1.25108 37.5212 1.85198 38.9022 3.13281 39.4932L3.66992 39.7266C6.54592 40.9216 12.364 42.376 23.626 42.376C35.639 42.376 41.4591 40.7231 44.1191 39.4941C45.399 38.9032 46.0009 37.5232 46.001 35.8984V25.1602C46.4089 24.7874 46.626 24.3998 46.626 24C46.626 23.9582 46.6229 23.9166 46.6182 23.875H47.251V35.8984Z" fill="#B7BCBF"/>
<path d="M45.1035 21.498C45.7195 21.815 46.2413 22.1675 46.6143 22.5645C46.9911 22.9644 47.251 23.4462 47.251 24C47.251 24.5538 46.9911 25.0366 46.6143 25.4355C46.2413 25.8325 45.7195 26.186 45.1035 26.502C43.8706 27.1358 42.1261 27.6895 40.0234 28.1475C35.8054 29.0635 30.008 29.625 23.626 29.625C17.244 29.625 11.4465 29.0635 7.22949 28.1465C5.12586 27.6895 3.38137 27.1358 2.14746 26.502C1.53246 26.185 1.01072 25.8325 0.636719 25.4355C0.260906 25.0356 0.000976562 24.5538 0.000976562 24C0.000976562 23.4462 0.260889 22.9634 0.637695 22.5645C0.958165 22.2234 1.3882 21.9144 1.89355 21.6338L3.30078 22.3369C3.09307 22.427 2.89835 22.5171 2.71875 22.6094C2.17093 22.8913 1.78878 23.1669 1.54883 23.4209C1.31184 23.6719 1.25098 23.863 1.25098 24C1.25098 24.137 1.31185 24.3281 1.54883 24.5801C1.78878 24.833 2.17092 25.1097 2.71875 25.3896C3.81275 25.9526 5.43712 26.4768 7.49512 26.9248C11.6021 27.8178 17.305 28.375 23.626 28.375C29.9459 28.375 35.6499 27.8178 39.7559 26.9248C41.8159 26.4768 43.4392 25.9526 44.5332 25.3906C45.081 25.1087 45.4632 24.8331 45.7031 24.5791C45.9401 24.3281 46.001 24.137 46.001 24C46.001 23.863 45.9401 23.6719 45.7031 23.4199C45.4632 23.167 45.081 22.8903 44.5332 22.6104C44.2625 22.471 43.9592 22.3332 43.625 22.1992L44.9326 21.415C44.9903 21.4433 45.0479 21.4695 45.1035 21.498Z" fill="#B7BCBF"/>
</g>
</g>
<defs>
<clipPath id="clip0_2225_1170">
<rect width="48" height="62" fill="white"/>
</clipPath>
</defs>
</svg>
