<svg width="116" height="130" fill="none" xmlns="http://www.w3.org/2000/svg">
  <circle cx="58" cy="82" r="48" fill="#4C5773" fill-opacity=".05"/>
  <path d="M34 95V84l12 6 12-15 12 7 12 1v12a4 4 0 0 1-4 4H38a4 4 0 0 1-4-4Z" fill="#fff"/>
  <path fill-rule="evenodd" clip-rule="evenodd" d="M57.51 74.61c.2-.24.54-.3.8-.15l11.88 6.93 11.86.99-.1 1.24-12-1a.63.63 0 0 1-.27-.08l-11.53-6.73L46.5 90.4c-.19.23-.5.3-.77.17l-12-6 .56-1.12 11.55 5.78L57.5 74.6Z" fill="#949AAB"/>
  <g filter="url(#a)">
    <rect x="11" y="8" width="94" height="46" rx="8" fill="#949AAB"/>
  </g>
  <path fill-rule="evenodd" clip-rule="evenodd" d="M58.63 79v2h-1.26v-2h1.26ZM58.63 69v2h-1.26v-2h1.26ZM58.63 73v2h-1.26v-2h1.26ZM58.63 65v2h-1.26v-2h1.26ZM58.63 83v2h-1.26v-2h1.26ZM58.63 87v2h-1.26v-2h1.26ZM58.63 91v2h-1.26v-2h1.26Z" fill="#949AAB"/>
  <path fill-rule="evenodd" clip-rule="evenodd" d="M33.38 69A4.63 4.63 0 0 1 38 64.37h40A4.63 4.63 0 0 1 82.63 69v26A4.63 4.63 0 0 1 78 99.63H38A4.63 4.63 0 0 1 33.37 95V69ZM38 65.62A3.37 3.37 0 0 0 34.62 69v26A3.37 3.37 0 0 0 38 98.38h40A3.37 3.37 0 0 0 81.38 95V69A3.37 3.37 0 0 0 78 65.62H38Z" fill="#949AAB"/>
  <path opacity=".25" fill-rule="evenodd" clip-rule="evenodd" d="M58 90.63a8.37 8.37 0 1 0 0 16.74 8.37 8.37 0 0 0 0-16.75ZM48.37 99a9.63 9.63 0 1 1 19.26 0 9.63 9.63 0 0 1-19.25 0Z" fill="#949AAB"/>
  <path d="M62.35 98.98a4.38 4.38 0 1 1-8.75 0 4.38 4.38 0 0 1 8.75 0Z" fill="#fff"/>
  <path opacity=".25" fill-rule="evenodd" clip-rule="evenodd" d="M58 94.63a4.38 4.38 0 1 0 0 8.75 4.38 4.38 0 0 0 0-8.75ZM52.37 99a5.63 5.63 0 1 1 11.26 0 5.63 5.63 0 0 1-11.26 0Z" fill="#949AAB"/>
  <circle cx="58" cy="99" r="2" fill="#949AAB"/>
  <path d="m92.1 20.76-3.34 7.85c-.05.1-.1.18-.18.23-.07.06-.17.09-.32.09h-1.1l1.15-2.48-2.49-5.69h1.3c.12 0 .2.03.27.08.07.06.12.12.15.2l1.31 3.19a7.94 7.94 0 0 1 .2.65 32.3 32.3 0 0 1 .23-.66l1.23-3.18a.44.44 0 0 1 .4-.28h1.2ZM85.04 18v8.92h-1.48V18h1.48ZM80.7 24.29a7.8 7.8 0 0 0-1.08.11c-.3.05-.53.12-.7.2a.92.92 0 0 0-.38.3.64.64 0 0 0-.12.37c0 .26.08.44.23.55.16.12.36.17.6.17.31 0 .57-.05.8-.16.22-.11.44-.28.65-.5v-1.04Zm-3.4-2.67c.71-.65 1.56-.97 2.56-.97.36 0 .68.06.96.18A1.99 1.99 0 0 1 82 22.07c.1.29.15.61.15.96v3.89h-.67a.7.7 0 0 1-.32-.06c-.08-.05-.14-.13-.18-.26l-.13-.45c-.16.14-.31.27-.46.38a2.8 2.8 0 0 1-.98.42 2.77 2.77 0 0 1-1.32-.04 1.62 1.62 0 0 1-.57-.32 1.41 1.41 0 0 1-.37-.52 1.85 1.85 0 0 1-.05-1.19c.05-.15.13-.3.25-.44s.27-.27.46-.4a3 3 0 0 1 .7-.32 9.19 9.19 0 0 1 2.2-.33v-.36c0-.41-.09-.72-.27-.91-.17-.2-.43-.3-.76-.3a1.84 1.84 0 0 0-1.01.27l-.33.19c-.1.05-.2.08-.33.08-.1 0-.19-.02-.26-.08a.72.72 0 0 1-.17-.19l-.27-.47ZM67.4 26.92v-6.16h.9c.19 0 .32.09.38.27l.1.46a2.34 2.34 0 0 1 .71-.59 2.02 2.02 0 0 1 .94-.24c.39 0 .7.11.95.32.25.21.44.49.57.84a1.93 1.93 0 0 1 1.38-1.09 2.68 2.68 0 0 1 1.49.09c.26.1.49.26.67.46.18.2.31.44.4.73.1.29.15.62.15.99v3.92h-1.48V23c0-.4-.09-.69-.26-.88-.17-.2-.43-.3-.76-.3-.15 0-.3.02-.42.07a1.03 1.03 0 0 0-.57.6c-.06.15-.09.32-.09.5v3.93h-1.49V23c0-.41-.08-.71-.25-.9-.16-.19-.4-.28-.72-.28-.22 0-.42.05-.61.16-.18.1-.36.25-.52.43v4.5H67.4ZM63.23 20.66c.45 0 .87.08 1.24.23a2.7 2.7 0 0 1 1.58 1.62c.14.4.21.83.21 1.32 0 .48-.07.92-.21 1.32-.15.39-.35.72-.62 1-.27.27-.59.49-.96.63-.37.15-.79.23-1.24.23a3.4 3.4 0 0 1-1.26-.23 2.71 2.71 0 0 1-1.58-1.63 3.8 3.8 0 0 1-.22-1.32c0-.49.07-.93.22-1.32s.35-.72.62-1c.26-.27.59-.48.96-.62.38-.15.8-.23 1.26-.23Zm0 5.2c.5 0 .89-.17 1.13-.51.25-.34.37-.85.37-1.51a2.6 2.6 0 0 0-.37-1.52c-.24-.35-.62-.52-1.13-.52-.52 0-.91.17-1.16.53-.25.34-.37.85-.37 1.5 0 .67.12 1.17.37 1.52.25.34.64.52 1.16.52ZM55.11 21.52a3.91 3.91 0 0 1 .83-.62 2.37 2.37 0 0 1 1.97-.07c.26.12.48.28.65.49.17.2.3.45.4.74.09.28.13.6.13.94v3.92h-1.48V23c0-.38-.09-.67-.26-.87-.17-.21-.43-.31-.78-.31-.26 0-.5.05-.72.17-.23.12-.44.27-.64.47v4.46h-1.48v-6.16h.9c.2 0 .32.09.38.27l.1.49ZM50.89 24.29a7.8 7.8 0 0 0-1.08.11c-.3.05-.53.12-.7.2a.92.92 0 0 0-.38.3.64.64 0 0 0-.12.37c0 .26.08.44.23.55.16.12.36.17.6.17.31 0 .57-.05.8-.16.22-.11.43-.28.65-.5v-1.04Zm-3.4-2.67c.7-.65 1.56-.97 2.56-.97.36 0 .68.06.96.18a1.99 1.99 0 0 1 1.17 1.24c.1.29.15.61.15.96v3.89h-.67a.7.7 0 0 1-.32-.06c-.08-.05-.14-.13-.18-.26l-.14-.45a2.8 2.8 0 0 1-1.43.8 2.77 2.77 0 0 1-1.32-.04 1.62 1.62 0 0 1-.57-.32 1.41 1.41 0 0 1-.37-.52 1.85 1.85 0 0 1-.06-1.19c.06-.15.14-.3.26-.44s.27-.27.46-.4a3 3 0 0 1 .69-.32 9.19 9.19 0 0 1 2.2-.33v-.36c0-.41-.08-.72-.26-.91-.17-.2-.43-.3-.76-.3a1.84 1.84 0 0 0-1.01.27l-.33.19c-.1.05-.2.08-.33.08-.1 0-.19-.02-.26-.08a.72.72 0 0 1-.18-.19l-.26-.47ZM42.27 23.13c0-.2-.03-.37-.08-.54a1.25 1.25 0 0 0-.24-.45 1.1 1.1 0 0 0-.42-.3 1.36 1.36 0 0 0-.57-.11c-.43 0-.77.12-1.02.36-.24.25-.4.6-.46 1.04h2.8Zm-2.82.9c.02.31.08.58.16.82.1.22.2.41.35.57.15.14.32.26.51.33.2.07.42.11.66.11a2 2 0 0 0 .62-.08 7.55 7.55 0 0 0 .8-.37c.1-.06.2-.09.29-.09.12 0 .21.05.27.14l.43.54a2.54 2.54 0 0 1-1.2.8A4.79 4.79 0 0 1 41 27c-.43 0-.83-.07-1.2-.21a2.73 2.73 0 0 1-1.6-1.67 4.02 4.02 0 0 1-.03-2.6 2.77 2.77 0 0 1 1.51-1.62c.37-.17.79-.25 1.25-.25.39 0 .74.07 1.07.19a2.32 2.32 0 0 1 1.4 1.42c.14.35.2.74.2 1.18 0 .23-.02.38-.07.46-.05.08-.14.11-.27.11h-3.81ZM33.01 21.42c.24-.22.5-.4.8-.55a2.3 2.3 0 0 1 1.01-.2c.34 0 .63.05.9.17.25.11.47.27.64.48.18.2.31.45.4.74.1.28.14.6.14.94v3.92H35.4V23c0-.38-.08-.67-.25-.87-.18-.21-.44-.31-.79-.31-.26 0-.5.05-.72.17-.22.12-.44.27-.64.47v4.46h-1.48V18h1.48v3.42ZM30.74 19.57h-2.62v7.35h-1.61v-7.35h-2.62v-1.33h6.85v1.33Z" fill="#fff"/>
  <path opacity=".7" d="M87.22 39.18v-3.25a4.92 4.92 0 0 1 .04-.66l-2.87 3.91h2.83Zm2.05 0v.56c0 .06-.02.11-.06.15-.03.04-.08.06-.16.06h-.97v2.08h-.86v-2.08h-3.5a.32.32 0 0 1-.2-.06.3.3 0 0 1-.1-.16l-.1-.5 3.84-5.08h.92v5.03h1.19ZM82.25 41.1c.1 0 .19.03.25.1.06.05.1.13.1.23v.6h-5.26v-.34c0-.07.01-.14.04-.21a.6.6 0 0 1 .14-.2l2.52-2.54.58-.61c.17-.2.32-.4.44-.6.12-.2.21-.4.28-.6.06-.2.1-.42.1-.65 0-.23-.04-.43-.11-.6a1.17 1.17 0 0 0-.75-.7 1.71 1.71 0 0 0-.56-.08c-.2 0-.38.03-.55.09a1.5 1.5 0 0 0-.78.61c-.09.15-.15.3-.19.48-.04.12-.1.21-.18.26-.07.04-.18.05-.31.03l-.51-.09c.05-.36.15-.68.3-.95.14-.28.33-.51.56-.7.22-.19.48-.33.77-.42.3-.1.6-.15.94-.15.34 0 .65.05.94.15.29.1.54.24.75.43.21.19.38.42.5.69a2.48 2.48 0 0 1 .05 1.74c-.09.25-.2.49-.36.72a5.4 5.4 0 0 1-.52.66l-.62.66-2.08 2.12a3.7 3.7 0 0 1 .88-.13h2.64ZM76.49 38.09c0 .69-.07 1.29-.22 1.8-.15.5-.35.91-.61 1.24-.26.33-.56.58-.91.74-.35.16-.73.24-1.13.24a2.46 2.46 0 0 1-2.03-.98 3.7 3.7 0 0 1-.6-1.25c-.15-.5-.22-1.1-.22-1.79s.07-1.29.22-1.8c.15-.5.35-.92.6-1.25a2.44 2.44 0 0 1 2.03-.98c.4 0 .78.08 1.13.24.35.16.65.4.91.74.26.33.46.75.6 1.26.16.5.23 1.1.23 1.79Zm-1.02 0c0-.6-.05-1.1-.15-1.51-.1-.41-.24-.74-.4-1a1.5 1.5 0 0 0-1.3-.7c-.24 0-.47.06-.7.17-.22.11-.41.29-.58.54-.17.25-.3.58-.4.99-.1.4-.16.9-.16 1.51 0 .6.05 1.1.15 1.51.1.4.24.74.4.99.18.25.37.43.6.54a1.6 1.6 0 0 0 1.4 0c.22-.11.41-.3.58-.54.17-.25.31-.58.4-.99.11-.4.16-.9.16-1.51ZM69.49 41.1c.1 0 .19.03.25.1.06.05.1.13.1.23v.6h-5.26v-.34c0-.07.01-.14.04-.21a.6.6 0 0 1 .14-.2l2.52-2.54c.21-.21.4-.42.57-.61.18-.2.32-.4.44-.6.13-.2.22-.4.28-.6.07-.2.1-.42.1-.65 0-.23-.03-.43-.1-.6a1.17 1.17 0 0 0-.75-.7 1.71 1.71 0 0 0-.56-.08c-.2 0-.39.03-.56.09a1.5 1.5 0 0 0-.77.61c-.09.15-.15.3-.19.48-.04.12-.1.21-.18.26-.07.04-.18.05-.31.03l-.51-.09c.05-.36.15-.68.3-.95.14-.28.33-.51.55-.7.23-.19.49-.33.78-.42.29-.1.6-.15.94-.15.33 0 .65.05.93.15.3.1.55.24.76.43.21.19.38.42.5.69a2.48 2.48 0 0 1 .05 1.74c-.09.25-.2.49-.36.72a5.4 5.4 0 0 1-.52.66l-.62.66-2.08 2.12a3.7 3.7 0 0 1 .88-.13h2.64ZM59.47 43.36a.25.25 0 0 1-.06-.07.18.18 0 0 1-.02-.09c0-.02 0-.05.02-.07a1.89 1.89 0 0 0 .64-1.1h-.07a.62.62 0 0 1-.46-.19.7.7 0 0 1-.18-.49.6.6 0 0 1 .66-.62c.1 0 .2.02.29.06.08.04.15.1.2.17.06.07.1.15.14.25.03.09.04.2.04.3a2.3 2.3 0 0 1-.27 1.04 3.07 3.07 0 0 1-.77.97l-.16-.16ZM56.39 39.18v-3.25a4.92 4.92 0 0 1 .04-.66l-2.87 3.91h2.83Zm2.05 0v.56c0 .06-.02.11-.06.15-.03.04-.08.06-.16.06h-.98v2.08h-.85v-2.08h-3.5a.32.32 0 0 1-.2-.06.3.3 0 0 1-.1-.16l-.1-.5 3.84-5.08h.91v5.03h1.2ZM48.75 33.93v8.1h-.98v-8.1h.98ZM46.12 36.46v5.57h-.97v-5.57h.97Zm.21-1.75c0 .1-.02.18-.06.27a.75.75 0 0 1-.15.22.69.69 0 0 1-.23.14.67.67 0 0 1-.54 0 .72.72 0 0 1-.36-.36.67.67 0 0 1 0-.54.69.69 0 0 1 .15-.23.68.68 0 0 1 .21-.15.67.67 0 0 1 .54 0c.1.03.17.09.23.15.07.06.12.14.15.23.04.08.06.17.06.27ZM42.01 37.57c.18-.38.4-.68.65-.89.26-.21.57-.32.94-.32.12 0 .23.01.34.04.1.02.2.06.29.12l-.07.73c-.02.09-.08.14-.17.14l-.22-.04a1.55 1.55 0 0 0-.81.05c-.14.05-.26.12-.37.23-.1.1-.2.22-.3.37l-.22.5v3.53h-.99v-5.57h.57c.1 0 .17.02.22.06.04.04.06.1.08.2l.06.85ZM35.9 40.69c.18.24.38.4.6.5.2.1.44.16.7.16.53 0 .93-.19 1.2-.56.28-.37.42-.9.42-1.58 0-.37-.03-.68-.1-.94a1.77 1.77 0 0 0-.27-.64c-.12-.17-.27-.29-.45-.37a1.48 1.48 0 0 0-.6-.11c-.31 0-.6.07-.84.22s-.46.35-.66.62v2.7Zm-.05-3.37c.24-.29.5-.52.82-.7.3-.18.66-.26 1.05-.26a2 2 0 0 1 .88.18c.26.12.48.3.66.55.19.24.33.53.43.89a4.59 4.59 0 0 1-.02 2.38c-.11.35-.27.65-.48.91a2.24 2.24 0 0 1-1.77.83c-.34 0-.63-.05-.87-.17a2.1 2.1 0 0 1-.65-.48v2.46h-.98v-7.45h.59c.14 0 .22.06.26.2l.08.66ZM31.89 39.1l-1.24-3.2a6.43 6.43 0 0 1-.23-.74c-.08.3-.15.54-.23.74l-1.24 3.2h2.94Zm2.22 2.93h-.82a.35.35 0 0 1-.23-.07.44.44 0 0 1-.14-.19l-.73-1.9h-3.54l-.74 1.9a.39.39 0 0 1-.12.18.35.35 0 0 1-.23.08h-.83l3.15-7.88h1.08l3.15 7.88Z" fill="#fff"/>
  <path d="M57.24 60.11a1 1 0 0 0 1.52 0L64 54H52l5.24 6.11Z" fill="#949AAB"/>
  <defs>
    <filter id="a" x="3" y="2" width="110" height="62" filterUnits="userSpaceOnUse" color-interpolation-filters="sRGB">
      <feFlood flood-opacity="0" result="BackgroundImageFix"/>
      <feColorMatrix in="SourceAlpha" values="0 0 0 0 0 0 0 0 0 0 0 0 0 0 0 0 0 0 127 0" result="hardAlpha"/>
      <feOffset dy="2"/>
      <feGaussianBlur stdDeviation="4"/>
      <feComposite in2="hardAlpha" operator="out"/>
      <feColorMatrix values="0 0 0 0 0 0 0 0 0 0 0 0 0 0 0 0 0 0 0.15 0"/>
      <feBlend in2="BackgroundImageFix" result="effect1_dropShadow_2090_1393"/>
      <feBlend in="SourceGraphic" in2="effect1_dropShadow_2090_1393" result="shape"/>
    </filter>
  </defs>
</svg>
