<svg xmlns="http://www.w3.org/2000/svg" width="96" height="96" fill="none"><circle cx="48" cy="48" r="48" fill="#4C5773" fill-opacity=".05"/><path fill="#fff" d="M24 61V50l12 6 12-15 12 7 12 1v12a4 4 0 0 1-4 4H28a4 4 0 0 1-4-4Z"/><path fill="#949AAB" fill-rule="evenodd" d="M47.51 40.61a.63.63 0 0 1 .8-.15l11.88 6.93 11.86.99-.1 1.24-12-1a.63.63 0 0 1-.27-.08l-11.53-6.73L36.5 56.4a.63.63 0 0 1-.77.17l-12-6 .56-1.12 11.55 5.77 11.68-14.6Z" clip-rule="evenodd"/><path fill="#949AAB" fill-rule="evenodd" d="M48.63 45v2h-1.26v-2h1.26Zm0-10v2h-1.26v-2h1.26Zm0 4v2h-1.26v-2h1.26Zm0-8v2h-1.26v-2h1.26Zm0 18v2h-1.26v-2h1.26Zm0 4v2h-1.26v-2h1.26Zm0 4v2h-1.26v-2h1.26Z" clip-rule="evenodd"/><path fill="#949AAB" fill-rule="evenodd" d="M23.38 35A4.63 4.63 0 0 1 28 30.37h40A4.63 4.63 0 0 1 72.63 35v26A4.63 4.63 0 0 1 68 65.63H28A4.63 4.63 0 0 1 23.37 61V35ZM28 31.62A3.38 3.38 0 0 0 24.62 35v26A3.38 3.38 0 0 0 28 64.38h40A3.38 3.38 0 0 0 71.38 61V35A3.38 3.38 0 0 0 68 31.62H28Z" clip-rule="evenodd"/><path fill="#949AAB" fill-rule="evenodd" d="M48 56.63a8.38 8.38 0 1 0 0 16.74 8.38 8.38 0 0 0 0-16.75ZM38.37 65a9.63 9.63 0 1 1 19.26 0 9.63 9.63 0 0 1-19.26 0Z" clip-rule="evenodd" opacity=".25"/><path fill="#fff" d="M52.35 64.97a4.38 4.38 0 1 1-8.75 0 4.38 4.38 0 0 1 8.75 0Z"/><path fill="#949AAB" fill-rule="evenodd" d="M48 60.63a4.38 4.38 0 1 0 0 8.74 4.38 4.38 0 0 0 0-8.75ZM42.37 65a5.63 5.63 0 1 1 11.26 0 5.63 5.63 0 0 1-11.26 0Z" clip-rule="evenodd" opacity=".25"/><circle cx="48" cy="65" r="2" fill="#949AAB"/></svg>