<svg width="96" height="96" viewBox="0 0 96 96" fill="none" xmlns="http://www.w3.org/2000/svg">
<g clip-path="url(#clip0_2220_2845)">
<path d="M48 96C74.5097 96 96 74.5097 96 48C96 21.4903 74.5097 0 48 0C21.4903 0 0 21.4903 0 48C0 74.5097 21.4903 96 48 96Z" fill="#DCDFE0" fill-opacity="0.3"/>
<path d="M24 61V50L36 56L48 41L60 48L72 49V61C72 62.0609 71.5786 63.0783 70.8284 63.8284C70.0783 64.5786 69.0609 65 68 65H28C26.9391 65 25.9217 64.5786 25.1716 63.8284C24.4214 63.0783 24 62.0609 24 61Z" fill="white"/>
<path fill-rule="evenodd" clip-rule="evenodd" d="M47.5105 40.61C47.6045 40.4944 47.7365 40.4159 47.883 40.3885C48.0295 40.361 48.1809 40.3864 48.3105 40.46L60.1905 47.39L72.0505 48.38L71.9505 49.62L59.9505 48.62C59.8556 48.6141 59.7633 48.5867 59.6805 48.54L48.1505 41.81L36.5005 56.4C36.4106 56.5117 36.2854 56.5895 36.1454 56.6204C36.0054 56.6513 35.859 56.6335 35.7305 56.57L23.7305 50.57L24.2905 49.45L35.8405 55.22L47.5205 40.62L47.5105 40.61Z" fill="#B7BCBF"/>
<path fill-rule="evenodd" clip-rule="evenodd" d="M48.6301 45V47H47.3701V45H48.6301ZM48.6301 35V37H47.3701V35H48.6301ZM48.6301 39V41H47.3701V39H48.6301ZM48.6301 31V33H47.3701V31H48.6301ZM48.6301 49V51H47.3701V49H48.6301ZM48.6301 53V55H47.3701V53H48.6301ZM48.6301 57V59H47.3701V57H48.6301Z" fill="#B7BCBF"/>
<path fill-rule="evenodd" clip-rule="evenodd" d="M23.3801 35.0001C23.3801 33.7739 23.8665 32.5977 24.7327 31.7297C25.5988 30.8617 26.7739 30.3728 28.0001 30.3701H68.0001C69.2281 30.3701 70.4057 30.8579 71.274 31.7262C72.1423 32.5945 72.6301 33.7722 72.6301 35.0001V61.0001C72.6301 62.2281 72.1423 63.4057 71.274 64.274C70.4057 65.1423 69.2281 65.6301 68.0001 65.6301H28.0001C26.7722 65.6301 25.5945 65.1423 24.7262 64.274C23.8579 63.4057 23.3701 62.2281 23.3701 61.0001V35.0001H23.3801ZM28.0001 31.6201C27.1037 31.6201 26.244 31.9762 25.6101 32.6101C24.9762 33.244 24.6201 34.1037 24.6201 35.0001V61.0001C24.6201 61.8965 24.9762 62.7563 25.6101 63.3901C26.244 64.024 27.1037 64.3801 28.0001 64.3801H68.0001C68.8965 64.3801 69.7563 64.024 70.3901 63.3901C71.024 62.7563 71.3801 61.8965 71.3801 61.0001V35.0001C71.3801 34.1037 71.024 33.244 70.3901 32.6101C69.7563 31.9762 68.8965 31.6201 68.0001 31.6201H28.0001Z" fill="#B7BCBF"/>
<path d="M52.3497 64.9701C52.378 65.5622 52.2859 66.1539 52.0788 66.7094C51.8717 67.2649 51.554 67.7725 51.145 68.2016C50.7359 68.6306 50.244 68.9722 49.6991 69.2056C49.1542 69.439 48.5675 69.5593 47.9747 69.5593C47.3819 69.5593 46.7953 69.439 46.2504 69.2056C45.7054 68.9722 45.2135 68.6306 44.8045 68.2016C44.3954 67.7725 44.0778 67.2649 43.8707 66.7094C43.6636 66.1539 43.5714 65.5622 43.5997 64.9701C43.6535 63.846 44.1379 62.7856 44.9525 62.0091C45.7671 61.2325 46.8493 60.7993 47.9747 60.7993C49.1002 60.7993 50.1824 61.2325 50.997 62.0091C51.8116 62.7856 52.296 63.846 52.3497 64.9701Z" fill="white"/>
<path d="M47.9746 60.2993C49.2284 60.2993 50.4342 60.7819 51.3418 61.647C52.2493 62.5121 52.7896 63.6935 52.8496 64.9458C52.8812 65.6055 52.7776 66.2654 52.5469 66.8843C52.3162 67.503 51.9625 68.0684 51.5068 68.5464C51.0511 69.0244 50.5026 69.4055 49.8955 69.6655C49.2885 69.9254 48.6349 70.0591 47.9746 70.0591C47.3143 70.0591 46.6607 69.9255 46.0537 69.6655C45.4466 69.4055 44.8981 69.0244 44.4424 68.5464C43.9868 68.0684 43.633 67.503 43.4023 66.8843C43.1716 66.2654 43.069 65.6055 43.1006 64.9458C43.1606 63.6935 43.7 62.5121 44.6074 61.647C45.515 60.7818 46.7208 60.2993 47.9746 60.2993Z" stroke="#B7BCBF" stroke-opacity="0.5"/>
<path d="M48 56.5C50.184 56.5 52.2844 57.3406 53.8652 58.8477C55.446 60.3546 56.3859 62.4123 56.4902 64.5938C56.5452 65.7429 56.3667 66.8918 55.9648 67.9697C55.563 69.0476 54.9461 70.0326 54.1523 70.8652C53.3586 71.6978 52.4041 72.3606 51.3467 72.8135C50.2892 73.2664 49.1504 73.5 48 73.5C46.8496 73.5 45.7108 73.2664 44.6533 72.8135C43.5959 72.3606 42.6414 71.6978 41.8477 70.8652C41.0539 70.0326 40.437 69.0476 40.0352 67.9697C39.6333 66.8918 39.4548 65.7429 39.5098 64.5938C39.6141 62.4123 40.554 60.3546 42.1348 58.8477C43.7156 57.3406 45.816 56.5 48 56.5Z" stroke="#B7BCBF" stroke-opacity="0.5"/>
<path d="M48 67C49.1046 67 50 66.1046 50 65C50 63.8954 49.1046 63 48 63C46.8954 63 46 63.8954 46 65C46 66.1046 46.8954 67 48 67Z" fill="#B7BCBF"/>
</g>
<defs>
<clipPath id="clip0_2220_2845">
<rect width="96" height="96" fill="white"/>
</clipPath>
</defs>
</svg>
