<svg width="96" height="96" fill="none" xmlns="http://www.w3.org/2000/svg">
  <circle cx="48" cy="48" r="48" fill="#4C5773" fill-opacity=".05"/>
  <path d="M24 61V50l12 6 12-15 12 7 12 1v12a4 4 0 0 1-4 4H28a4 4 0 0 1-4-4Z" fill="#fff"/>
  <path fill-rule="evenodd" clip-rule="evenodd" d="M47.51 40.61c.2-.24.54-.3.8-.15l11.88 6.93 11.86.99-.1 1.24-12-1a.63.63 0 0 1-.27-.08l-11.53-6.73L36.5 56.4c-.19.23-.5.3-.77.17l-12-6 .56-1.12 11.55 5.78L47.5 40.6Z" fill="#949AAB"/>
  <path fill-rule="evenodd" clip-rule="evenodd" d="M48.63 45v2h-1.26v-2h1.26ZM48.63 35v2h-1.26v-2h1.26ZM48.63 39v2h-1.26v-2h1.26ZM48.63 31v2h-1.26v-2h1.26ZM48.63 49v2h-1.26v-2h1.26ZM48.63 53v2h-1.26v-2h1.26ZM48.63 57v2h-1.26v-2h1.26Z" fill="#949AAB"/>
  <path fill-rule="evenodd" clip-rule="evenodd" d="M23.38 35A4.63 4.63 0 0 1 28 30.37h40A4.63 4.63 0 0 1 72.63 35v26A4.63 4.63 0 0 1 68 65.63H28A4.63 4.63 0 0 1 23.37 61V35ZM28 31.62A3.37 3.37 0 0 0 24.62 35v26A3.37 3.37 0 0 0 28 64.38h40A3.37 3.37 0 0 0 71.38 61V35A3.37 3.37 0 0 0 68 31.62H28Z" fill="#949AAB"/>
  <path opacity=".25" fill-rule="evenodd" clip-rule="evenodd" d="M48 56.63a8.37 8.37 0 1 0 0 16.74 8.37 8.37 0 0 0 0-16.75ZM38.37 65a9.63 9.63 0 1 1 19.26 0 9.63 9.63 0 0 1-19.26 0Z" fill="#949AAB"/>
  <path d="M52.35 64.98a4.38 4.38 0 1 1-8.75 0 4.38 4.38 0 0 1 8.75 0Z" fill="#fff"/>
  <path opacity=".25" fill-rule="evenodd" clip-rule="evenodd" d="M48 60.63a4.38 4.38 0 1 0 0 8.75 4.38 4.38 0 0 0 0-8.75ZM42.37 65a5.63 5.63 0 1 1 11.26 0 5.63 5.63 0 0 1-11.26 0Z" fill="#949AAB"/>
  <circle cx="48" cy="65" r="2" fill="#949AAB"/>
  <rect x="8" width="80" height="22" rx="8" fill="#949AAB"/>
  <path d="m82.1 8.76-3.34 7.85c-.05.1-.1.18-.18.23-.07.06-.17.09-.32.09h-1.1l1.15-2.48-2.49-5.69h1.3c.12 0 .2.03.27.08.07.06.12.12.15.2l1.31 3.19a7.94 7.94 0 0 1 .2.65 32.3 32.3 0 0 1 .23-.66l1.23-3.18a.44.44 0 0 1 .4-.28h1.2ZM75.04 6v8.92h-1.48V6h1.48ZM70.7 12.29a7.8 7.8 0 0 0-1.08.11c-.3.05-.53.12-.7.2a.92.92 0 0 0-.38.3.64.64 0 0 0-.12.37c0 .26.08.44.23.55.16.12.36.17.6.17.31 0 .57-.05.8-.16.22-.11.44-.28.65-.5v-1.04Zm-3.4-2.67c.71-.65 1.56-.97 2.56-.97.36 0 .68.06.96.18A1.99 1.99 0 0 1 72 10.07c.1.29.15.61.15.96v3.89h-.67a.7.7 0 0 1-.32-.06c-.08-.05-.14-.13-.18-.26l-.13-.45c-.16.14-.31.27-.46.38a2.8 2.8 0 0 1-.98.42 2.77 2.77 0 0 1-1.32-.04 1.62 1.62 0 0 1-.57-.32 1.41 1.41 0 0 1-.37-.52 1.85 1.85 0 0 1-.05-1.19c.05-.15.13-.3.25-.44s.27-.27.46-.4a3 3 0 0 1 .7-.32 9.19 9.19 0 0 1 2.2-.33v-.36c0-.41-.09-.72-.27-.91-.17-.2-.43-.3-.76-.3a1.84 1.84 0 0 0-1.01.27l-.33.19c-.1.05-.2.08-.33.08-.1 0-.19-.02-.26-.08a.72.72 0 0 1-.17-.19l-.27-.47ZM57.4 14.92V8.76h.9c.19 0 .32.09.38.27l.1.46a2.34 2.34 0 0 1 .71-.59 2.02 2.02 0 0 1 .94-.24c.39 0 .7.11.95.32.25.21.44.49.57.84a1.93 1.93 0 0 1 1.38-1.09 2.68 2.68 0 0 1 1.49.09c.26.1.49.26.67.46.18.2.31.44.4.73.1.29.15.62.15.99v3.92h-1.48V11c0-.4-.09-.69-.26-.88-.17-.2-.43-.3-.76-.3-.15 0-.3.02-.42.07a1.03 1.03 0 0 0-.57.6c-.06.15-.09.32-.09.5v3.93h-1.49V11c0-.41-.08-.71-.25-.9-.16-.19-.4-.28-.72-.28-.22 0-.42.05-.61.16-.18.1-.36.25-.52.43v4.5H57.4ZM53.23 8.66c.45 0 .87.08 1.24.23a2.7 2.7 0 0 1 1.58 1.62c.14.4.21.83.21 1.32 0 .48-.07.92-.21 1.32-.15.39-.35.72-.62 1-.27.27-.59.49-.96.63-.37.15-.79.23-1.24.23a3.4 3.4 0 0 1-1.26-.23 2.71 2.71 0 0 1-1.58-1.63 3.8 3.8 0 0 1-.22-1.32c0-.49.07-.93.22-1.32s.35-.72.62-1c.26-.27.59-.48.96-.62.38-.15.8-.23 1.26-.23Zm0 5.2c.5 0 .89-.17 1.13-.51.25-.34.37-.85.37-1.51a2.6 2.6 0 0 0-.37-1.52c-.24-.35-.62-.52-1.13-.52-.52 0-.91.17-1.16.53-.25.34-.37.85-.37 1.5 0 .67.12 1.17.37 1.52.25.34.64.52 1.16.52ZM45.11 9.52a3.91 3.91 0 0 1 .83-.62 2.37 2.37 0 0 1 1.97-.07c.26.12.48.28.65.49.17.2.3.45.4.74.09.28.13.6.13.94v3.92h-1.48V11c0-.38-.09-.67-.26-.87-.17-.21-.43-.31-.78-.31-.26 0-.5.05-.72.17-.23.12-.44.27-.64.47v4.46h-1.48V8.76h.9c.2 0 .32.09.38.27l.1.49ZM40.89 12.29a7.8 7.8 0 0 0-1.08.11c-.3.05-.53.12-.7.2a.92.92 0 0 0-.38.3.64.64 0 0 0-.12.37c0 .26.08.44.23.55.16.12.36.17.6.17.31 0 .57-.05.8-.16.22-.11.43-.28.65-.5v-1.04Zm-3.4-2.67c.7-.65 1.56-.97 2.56-.97.36 0 .68.06.96.18a1.99 1.99 0 0 1 1.17 1.24c.1.29.15.61.15.96v3.89h-.67a.7.7 0 0 1-.32-.06c-.08-.05-.14-.13-.18-.26l-.14-.45a2.8 2.8 0 0 1-1.43.8 2.77 2.77 0 0 1-1.32-.04 1.62 1.62 0 0 1-.57-.32 1.41 1.41 0 0 1-.37-.52 1.85 1.85 0 0 1-.06-1.19c.06-.15.14-.3.26-.44s.27-.27.46-.4a3 3 0 0 1 .69-.32 9.19 9.19 0 0 1 2.2-.33v-.36c0-.41-.08-.72-.26-.91-.17-.2-.43-.3-.76-.3a1.84 1.84 0 0 0-1.01.27l-.33.19c-.1.05-.2.08-.33.08-.1 0-.19-.02-.26-.08a.72.72 0 0 1-.18-.19l-.26-.47ZM32.27 11.13c0-.2-.03-.37-.08-.54a1.25 1.25 0 0 0-.24-.45 1.1 1.1 0 0 0-.42-.3 1.36 1.36 0 0 0-.57-.11c-.43 0-.77.12-1.02.36-.24.25-.4.6-.46 1.04h2.8Zm-2.82.9c.02.31.08.58.16.82.1.22.2.41.35.57.15.14.32.26.51.33.2.07.42.11.66.11a2 2 0 0 0 .62-.08 7.55 7.55 0 0 0 .8-.37c.1-.06.2-.09.29-.09.12 0 .21.05.27.14l.43.54a2.54 2.54 0 0 1-1.2.8A4.79 4.79 0 0 1 31 15c-.43 0-.83-.07-1.2-.21a2.73 2.73 0 0 1-1.6-1.67 4.02 4.02 0 0 1-.03-2.6 2.77 2.77 0 0 1 1.51-1.62c.37-.17.79-.25 1.25-.25.39 0 .74.07 1.07.19a2.32 2.32 0 0 1 1.4 1.42c.14.35.2.74.2 1.18 0 .23-.02.38-.07.46-.05.08-.14.11-.27.11h-3.81ZM23.01 9.42c.24-.22.5-.4.8-.55a2.3 2.3 0 0 1 1.01-.2c.34 0 .63.05.9.17.25.11.47.27.64.48.18.2.31.45.4.74.1.28.14.6.14.94v3.92H25.4V11c0-.38-.08-.67-.25-.87-.18-.21-.44-.31-.79-.31-.26 0-.5.05-.72.17-.22.12-.44.27-.64.47v4.46h-1.48V6h1.48v3.42ZM20.74 7.57h-2.62v7.35h-1.61V7.57h-2.62V6.24h6.85v1.33Z" fill="#fff"/>
  <path d="M47.24 26.11a1 1 0 0 0 1.52 0L54 20H42l5.24 6.11Z" fill="#949AAB"/>
</svg>
