<svg xmlns="http://www.w3.org/2000/svg" fill="none" viewBox="0 0 50 66">
  <g clip-path="url(#a)">
    <path fill="url(#b)" d="M29 1H7a6 6 0 0 0-6 6v52a6 6 0 0 0 6 6h36a6 6 0 0 0 6-6V21L29 1Z"/>
    <path stroke="#000" stroke-linejoin="round" stroke-opacity=".1" stroke-width=".5" d="M49.25 59A6.25 6.25 0 0 1 43 65.25H7A6.25 6.25 0 0 1 .75 59V7A6.25 6.25 0 0 1 7 .75h22l.049.005a.25.25 0 0 1 .128.068l20 20a.25.25 0 0 1 .073.177v38Z"/>
    <g filter="url(#c)">
      <path fill="#93D3B4" d="M48.83 20.83 29.17 1.17a.1.1 0 0 0-.17.071V17a4 4 0 0 0 4 4h15.759a.1.1 0 0 0 .07-.17Z"/>
    </g>
    <path fill="#fff" d="M33 31a2 2 0 0 1 2 2v16a2 2 0 0 1-2 2H17a2 2 0 0 1-2-2V33a2 2 0 0 1 2-2h16ZM17 49h7v-4h-7v4Zm9-4v4h7v-4h-7Zm-9-2h7v-4h-7v4Zm9 0h7v-4h-7v4Zm-9-6h7v-4h-7v4Zm9 0h7v-4h-7v4Z"/>
  </g>
  <defs>
    <linearGradient id="b" x1="25" x2="25" y1="1" y2="65" gradientUnits="userSpaceOnUse">
      <stop stop-color="#2BBB75"/>
      <stop offset="1" stop-color="#26A668"/>
    </linearGradient>
    <clipPath id="a">
      <path fill="#fff" d="M0 0h50v66H0z"/>
    </clipPath>
    <filter id="c" width="31.859" height="31.858" x="23" y="-2.858" color-interpolation-filters="sRGB" filterUnits="userSpaceOnUse">
      <feFlood flood-opacity="0" result="BackgroundImageFix"/>
      <feColorMatrix in="SourceAlpha" result="hardAlpha" values="0 0 0 0 0 0 0 0 0 0 0 0 0 0 0 0 0 0 127 0"/>
      <feOffset dy="2"/>
      <feGaussianBlur stdDeviation="3"/>
      <feComposite in2="hardAlpha" operator="out"/>
      <feColorMatrix values="0 0 0 0 0 0 0 0 0 0 0 0 0 0 0 0 0 0 0.2 0"/>
      <feBlend in2="BackgroundImageFix" result="effect1_dropShadow_10832_4937"/>
      <feColorMatrix in="SourceAlpha" result="hardAlpha" values="0 0 0 0 0 0 0 0 0 0 0 0 0 0 0 0 0 0 127 0"/>
      <feOffset dy=".5"/>
      <feComposite in2="hardAlpha" operator="out"/>
      <feColorMatrix values="0 0 0 0 0 0 0 0 0 0 0 0 0 0 0 0 0 0 0.05 0"/>
      <feBlend in2="effect1_dropShadow_10832_4937" result="effect2_dropShadow_10832_4937"/>
      <feBlend in="SourceGraphic" in2="effect2_dropShadow_10832_4937" result="shape"/>
    </filter>
  </defs>
</svg>