<svg xmlns="http://www.w3.org/2000/svg" width="96" height="96" fill="none"><g clip-path="url(#a)"><circle cx="48" cy="48" r="48" fill="#4C5773" fill-opacity=".05"/><path fill="#fff" d="M24 35a4 4 0 0 1 4-4h40a4 4 0 0 1 4 4v26a4 4 0 0 1-4 4H28a4 4 0 0 1-4-4V35Z"/><path fill="#949AAB" fill-rule="evenodd" d="M23.375 35A4.625 4.625 0 0 1 28 30.376h40a4.625 4.625 0 0 1 4.625 4.626v26A4.625 4.625 0 0 1 68 65.626H28A4.625 4.625 0 0 1 23.375 61V35ZM28 31.626a3.375 3.375 0 0 0-3.375 3.376v26A3.375 3.375 0 0 0 28 64.376h40A3.375 3.375 0 0 0 71.375 61V35A3.375 3.375 0 0 0 68 31.626H28Z" clip-rule="evenodd"/><path fill="#fff" d="M29.5 38a1.5 1.5 0 0 1 1.5-1.5h34a1.5 1.5 0 0 1 1.5 1.5v17a1.5 1.5 0 0 1-1.5 1.5H31a1.5 1.5 0 0 1-1.5-1.5V38Z"/><path fill="#949AAB" fill-rule="evenodd" d="M28.875 38c0-1.173.951-2.124 2.125-2.124h34c1.174 0 2.125.95 2.125 2.125v17A2.125 2.125 0 0 1 65 57.126H31A2.125 2.125 0 0 1 28.875 55V38ZM31 37.127a.875.875 0 0 0-.875.875v17c0 .483.392.875.875.875h34a.875.875 0 0 0 .875-.875V38a.875.875 0 0 0-.875-.875H31ZM61.071 61.18a.464.464 0 1 0 0-.93.464.464 0 0 0 0 .93Zm0 1.25a1.714 1.714 0 1 0 0-3.43 1.714 1.714 0 0 0 0 3.43ZM65.571 61.18a.464.464 0 1 0 0-.93.464.464 0 0 0 0 .93Zm0 1.25a1.714 1.714 0 1 0 0-3.43 1.714 1.714 0 0 0 0 3.43Z" clip-rule="evenodd"/><circle cx="41" cy="43.5" r="1.5" fill="#949AAB"/><circle cx="55" cy="43.5" r="1.5" fill="#949AAB"/><path fill="#949AAB" fill-rule="evenodd" d="M46.833 48.725c.27.249.67.4 1.167.4s.898-.151 1.167-.4c.261-.241.458-.628.458-1.225h1.25c0 .894-.307 1.633-.86 2.143-.545.504-1.27.732-2.015.732-.745 0-1.47-.228-2.015-.732-.553-.51-.86-1.249-.86-2.143h1.25c0 .597.197.984.458 1.225ZM15.375 42v2h1.25v-2h-1.25ZM13 45.625h2v-1.25h-2v1.25ZM15.375 48v-2h1.25v2h-1.25ZM17 45.625h2v-1.25h-2v1.25Z" clip-rule="evenodd"/><path fill="#949AAB" fill-rule="evenodd" d="M39.375 70v2h1.25v-2h-1.25ZM37 73.625h2v-1.25h-2v1.25ZM39.375 76v-2h1.25v2h-1.25ZM41 73.625h2v-1.25h-2v1.25Z" clip-rule="evenodd" opacity=".5"/><path fill="#000" fill-opacity=".1" d="m41.964 65.57-8 4.4a2 2 0 0 1-1.928 0l-8-4.4A2 2 0 0 1 23 63.818v-9.582a2 2 0 0 1 1.106-1.789l8-4a2 2 0 0 1 1.788 0l8 4A2 2 0 0 1 43 54.237v9.58a2 2 0 0 1-1.036 1.753Z"/><path fill="#fff" stroke="#949AAB" stroke-linejoin="round" stroke-width="1.25" d="m37.964 62.57-8 4.4a2 2 0 0 1-1.928 0l-8-4.4A2 2 0 0 1 19 60.818v-9.582a2 2 0 0 1 1.106-1.789l8-4a2 2 0 0 1 1.788 0l8 4A2 2 0 0 1 39 51.237v9.58a2 2 0 0 1-1.036 1.753Z"/><path fill="#949AAB" fill-rule="evenodd" d="m29.625 55.87 9.676-5.323-.602-1.095-10 5.5c-.2.11-.324.32-.324.548v12h1.25V55.87Z" clip-rule="evenodd"/><path fill="#949AAB" fill-rule="evenodd" d="m28.699 56.047-10-5.5.602-1.095 10 5.5-.602 1.095Z" clip-rule="evenodd"/></g><defs><clipPath id="a"><path fill="#fff" d="M0 0h96v96H0z"/></clipPath></defs></svg>