<svg width="96" height="96" viewBox="0 0 96 96" fill="none" xmlns="http://www.w3.org/2000/svg">
<g clip-path="url(#clip0_2220_2886)">
<mask id="mask0_2220_2886" style="mask-type:luminance" maskUnits="userSpaceOnUse" x="0" y="0" width="96" height="96">
<path d="M0 0H96V96H0V0Z" fill="white"/>
</mask>
<g mask="url(#mask0_2220_2886)">
<path d="M48 96C74.5097 96 96 74.5097 96 48C96 21.4903 74.5097 0 48 0C21.4903 0 0 21.4903 0 48C0 74.5097 21.4903 96 48 96Z" fill="#DCDFE0" fill-opacity="0.3"/>
<path d="M24 35C24 33.9391 24.4214 32.9217 25.1716 32.1716C25.9217 31.4214 26.9391 31 28 31H68C69.0609 31 70.0783 31.4214 70.8284 32.1716C71.5786 32.9217 72 33.9391 72 35V61C72 62.0609 71.5786 63.0783 70.8284 63.8284C70.0783 64.5786 69.0609 65 68 65H28C26.9391 65 25.9217 64.5786 25.1716 63.8284C24.4214 63.0783 24 62.0609 24 61V35Z" fill="white"/>
<path fill-rule="evenodd" clip-rule="evenodd" d="M23.375 35C23.3753 33.7735 23.8627 32.5974 24.73 31.7303C25.5973 30.8631 26.7735 30.376 28 30.376H68C68.6074 30.376 69.2089 30.4956 69.7701 30.7281C70.3313 30.9606 70.8412 31.3014 71.2707 31.731C71.7002 32.1605 72.0409 32.6705 72.2732 33.2318C72.5056 33.793 72.6251 34.3945 72.625 35.002V61.002C72.6247 62.2284 72.1373 63.4046 71.27 64.2717C70.4027 65.1388 69.2265 65.626 68 65.626H28C27.3926 65.626 26.7911 65.5063 26.2299 65.2738C25.6687 65.0413 25.1588 64.7006 24.7293 64.271C24.2998 63.8414 23.9591 63.3314 23.7268 62.7702C23.4944 62.2089 23.3749 61.6074 23.375 61V35ZM28 31.626C27.5567 31.626 27.1178 31.7133 26.7082 31.883C26.2987 32.0527 25.9266 32.3013 25.6132 32.6148C25.2998 32.9283 25.0512 33.3005 24.8816 33.7101C24.7121 34.1197 24.6249 34.5587 24.625 35.002V61.002C24.6253 61.8969 24.981 62.7551 25.6139 63.3878C26.2468 64.0205 27.1051 64.376 28 64.376H68C68.4433 64.376 68.8822 64.2886 69.2918 64.119C69.7013 63.9493 70.0734 63.7006 70.3868 63.3871C70.7003 63.0736 70.9488 62.7014 71.1184 62.2918C71.2879 61.8822 71.3751 61.4433 71.375 61V35C71.3747 34.105 71.019 33.2469 70.3861 32.6141C69.7532 31.9814 68.8949 31.626 68 31.626H28Z" fill="#949AAB"/>
<path d="M29.5 38C29.5 37.6022 29.658 37.2206 29.9393 36.9393C30.2206 36.658 30.6022 36.5 31 36.5H65C65.3978 36.5 65.7794 36.658 66.0607 36.9393C66.342 37.2206 66.5 37.6022 66.5 38V55C66.5 55.3978 66.342 55.7794 66.0607 56.0607C65.7794 56.342 65.3978 56.5 65 56.5H31C30.6022 56.5 30.2206 56.342 29.9393 56.0607C29.658 55.7794 29.5 55.3978 29.5 55V38Z" fill="white"/>
<path fill-rule="evenodd" clip-rule="evenodd" d="M28.875 38C28.875 36.827 29.826 35.876 31 35.876H65C66.174 35.876 67.125 36.826 67.125 38.001V55.001C67.125 55.5646 66.9011 56.1051 66.5026 56.5036C66.1041 56.9021 65.5636 57.126 65 57.126H31C30.7209 57.126 30.4444 57.071 30.1866 56.9641C29.9287 56.8573 29.6944 56.7007 29.497 56.5032C29.2997 56.3058 29.1432 56.0714 29.0365 55.8135C28.9297 55.5556 28.8749 55.2791 28.875 55V38ZM31 37.127C30.7679 37.127 30.5454 37.2192 30.3813 37.3833C30.2172 37.5474 30.125 37.7699 30.125 38.002V55.002C30.125 55.485 30.517 55.877 31 55.877H65C65.2321 55.877 65.4546 55.7848 65.6187 55.6207C65.7828 55.4566 65.875 55.234 65.875 55.002V38C65.875 37.7679 65.7828 37.5454 65.6187 37.3813C65.4546 37.2172 65.2321 37.125 65 37.125H31V37.127ZM61.071 61.18C61.1943 61.18 61.3126 61.131 61.3998 61.0438C61.487 60.9566 61.536 60.8383 61.536 60.715C61.536 60.5917 61.487 60.4734 61.3998 60.3862C61.3126 60.299 61.1943 60.25 61.071 60.25C60.9477 60.25 60.8294 60.299 60.7422 60.3862C60.655 60.4734 60.606 60.5917 60.606 60.715C60.606 60.8383 60.655 60.9566 60.7422 61.0438C60.8294 61.131 60.9477 61.18 61.071 61.18ZM61.071 62.43C61.5258 62.43 61.9621 62.2493 62.2837 61.9277C62.6053 61.606 62.786 61.1698 62.786 60.715C62.786 60.2601 62.6053 59.8239 62.2837 59.5023C61.9621 59.1807 61.5258 59 61.071 59C60.6162 59 60.1799 59.1807 59.8583 59.5023C59.5367 59.8239 59.356 60.2601 59.356 60.715C59.356 61.1698 59.5367 61.606 59.8583 61.9277C60.1799 62.2493 60.6162 62.43 61.071 62.43ZM65.571 61.18C65.6943 61.18 65.8126 61.131 65.8998 61.0438C65.987 60.9566 66.036 60.8383 66.036 60.715C66.036 60.5917 65.987 60.4734 65.8998 60.3862C65.8126 60.299 65.6943 60.25 65.571 60.25C65.4477 60.25 65.3294 60.299 65.2422 60.3862C65.155 60.4734 65.106 60.5917 65.106 60.715C65.106 60.8383 65.155 60.9566 65.2422 61.0438C65.3294 61.131 65.4477 61.18 65.571 61.18ZM65.571 62.43C66.0258 62.43 66.4621 62.2493 66.7837 61.9277C67.1053 61.606 67.286 61.1698 67.286 60.715C67.286 60.2601 67.1053 59.8239 66.7837 59.5023C66.4621 59.1807 66.0258 59 65.571 59C65.1162 59 64.6799 59.1807 64.3583 59.5023C64.0367 59.8239 63.856 60.2601 63.856 60.715C63.856 61.1698 64.0367 61.606 64.3583 61.9277C64.6799 62.2493 65.1162 62.43 65.571 62.43Z" fill="#949AAB"/>
<path d="M41 45C41.8284 45 42.5 44.3284 42.5 43.5C42.5 42.6716 41.8284 42 41 42C40.1716 42 39.5 42.6716 39.5 43.5C39.5 44.3284 40.1716 45 41 45Z" fill="#949AAB"/>
<path d="M55 45C55.8284 45 56.5 44.3284 56.5 43.5C56.5 42.6716 55.8284 42 55 42C54.1716 42 53.5 42.6716 53.5 43.5C53.5 44.3284 54.1716 45 55 45Z" fill="#949AAB"/>
<path fill-rule="evenodd" clip-rule="evenodd" d="M46.833 48.725C47.103 48.974 47.503 49.125 48 49.125C48.497 49.125 48.898 48.974 49.167 48.725C49.428 48.484 49.625 48.097 49.625 47.5H50.875C50.875 48.394 50.568 49.133 50.015 49.643C49.47 50.147 48.745 50.375 48 50.375C47.255 50.375 46.53 50.147 45.985 49.643C45.432 49.133 45.125 48.394 45.125 47.5H46.375C46.375 48.097 46.572 48.484 46.833 48.725ZM15.375 42V44H16.625V42H15.375ZM13 45.625H15V44.375H13V45.625ZM15.375 48V46H16.625V48H15.375ZM17 45.625H19V44.375H17V45.625Z" fill="#949AAB"/>
<path opacity="0.5" fill-rule="evenodd" clip-rule="evenodd" d="M39.375 70V72H40.625V70H39.375ZM37 73.625H39V72.375H37V73.625ZM39.375 76V74H40.625V76H39.375ZM41 73.625H43V72.375H41V73.625Z" fill="#949AAB"/>
<path d="M41.964 65.57L33.964 69.97C33.6687 70.1325 33.3371 70.2177 33 70.2177C32.6629 70.2177 32.3313 70.1325 32.036 69.97L24.036 65.57C23.7223 65.3974 23.4607 65.1438 23.2785 64.8357C23.0962 64.5275 23.0001 64.176 23 63.818V54.236C23 53.8645 23.1035 53.5004 23.2988 53.1844C23.4942 52.8684 23.7737 52.6131 24.106 52.447L32.106 48.447C32.3836 48.3083 32.6897 48.2361 33 48.2361C33.3103 48.2361 33.6164 48.3083 33.894 48.447L41.894 52.447C42.2265 52.6131 42.5061 52.8686 42.7014 53.1848C42.8968 53.501 43.0002 53.8654 43 54.237V63.817C43.0001 64.1752 42.904 64.5269 42.7218 64.8352C42.5396 65.1436 42.2778 65.3974 41.964 65.57Z" fill="black" fill-opacity="0.1"/>
<path d="M37.964 62.57L29.964 66.97C29.6687 67.1325 29.3371 67.2177 29 67.2177C28.6629 67.2177 28.3313 67.1325 28.036 66.97L20.036 62.57C19.7223 62.3974 19.4607 62.1438 19.2785 61.8357C19.0962 61.5275 19.0001 61.176 19 60.818V51.236C19 50.8645 19.1035 50.5004 19.2988 50.1844C19.4942 49.8684 19.7737 49.6131 20.106 49.447L28.106 45.447C28.3836 45.3083 28.6897 45.2361 29 45.2361C29.3103 45.2361 29.6164 45.3083 29.894 45.447L37.894 49.447C38.2265 49.6131 38.5061 49.8686 38.7014 50.1848C38.8968 50.501 39.0002 50.8654 39 51.237V60.817C39.0001 61.1752 38.904 61.5269 38.7218 61.8352C38.5396 62.1436 38.2778 62.3974 37.964 62.57Z" fill="white" stroke="#949AAB" stroke-width="1.25" stroke-linejoin="round"/>
<path fill-rule="evenodd" clip-rule="evenodd" d="M29.625 55.8699L39.301 50.5469L38.699 49.4519L28.699 54.9519C28.499 55.0619 28.375 55.2719 28.375 55.4999V67.4999H29.625V55.8699Z" fill="#949AAB"/>
<path fill-rule="evenodd" clip-rule="evenodd" d="M28.6992 56.0469L18.6992 50.5469L19.3012 49.4519L29.3012 54.9519L28.6992 56.0469Z" fill="#949AAB"/>
</g>
</g>
<defs>
<clipPath id="clip0_2220_2886">
<rect width="96" height="96" fill="white"/>
</clipPath>
</defs>
</svg>
