<svg xmlns="http://www.w3.org/2000/svg" width="96" height="96" fill="none"><g clip-path="url(#a)"><circle cx="48" cy="48" r="48" fill="#4C5773" fill-opacity=".05"/><path fill="#fff" d="M24 35a4 4 0 0 1 4-4h40a4 4 0 0 1 4 4v26a4 4 0 0 1-4 4H28a4 4 0 0 1-4-4V35Z"/><path fill="#949AAB" fill-rule="evenodd" d="M23.38 35A4.63 4.63 0 0 1 28 30.37h40A4.63 4.63 0 0 1 72.63 35v26A4.63 4.63 0 0 1 68 65.63H28A4.63 4.63 0 0 1 23.37 61V35ZM28 31.62A3.37 3.37 0 0 0 24.62 35v26A3.37 3.37 0 0 0 28 64.38h40A3.37 3.37 0 0 0 71.38 61V35A3.37 3.37 0 0 0 68 31.62H28Z" clip-rule="evenodd"/><path fill="#fff" d="M29.5 38c0-.83.67-1.5 1.5-1.5h34c.83 0 1.5.67 1.5 1.5v17c0 .83-.67 1.5-1.5 1.5H31a1.5 1.5 0 0 1-1.5-1.5V38Z"/><path fill="#949AAB" fill-rule="evenodd" d="M28.88 38c0-1.17.95-2.13 2.12-2.13h34c1.17 0 2.13.96 2.13 2.13v17c0 1.17-.96 2.13-2.13 2.13H31A2.13 2.13 0 0 1 28.87 55V38Zm2.12-.88c-.48 0-.88.4-.88.88v17c0 .48.4.88.88.88h34c.48 0 .88-.4.88-.88V38c0-.48-.4-.88-.88-.88H31ZM61.07 61.18a.46.46 0 1 0 0-.93.46.46 0 0 0 0 .93Zm0 1.25a1.71 1.71 0 1 0 0-3.43 1.71 1.71 0 0 0 0 3.43ZM65.57 61.18a.46.46 0 1 0 0-.93.46.46 0 0 0 0 .93Zm0 1.25a1.71 1.71 0 1 0 0-3.43 1.71 1.71 0 0 0 0 3.43Z" clip-rule="evenodd"/><circle cx="41" cy="43.5" r="1.5" fill="#949AAB"/><circle cx="55" cy="43.5" r="1.5" fill="#949AAB"/><path fill="#949AAB" fill-rule="evenodd" d="M46.83 48.72c.27.25.67.4 1.17.4.5 0 .9-.15 1.17-.4.26-.24.45-.62.45-1.22h1.25c0 .9-.3 1.63-.85 2.14-.55.5-1.27.73-2.02.73s-1.47-.22-2.02-.73a2.83 2.83 0 0 1-.86-2.14h1.25c0 .6.2.98.46 1.22Z" clip-rule="evenodd"/><path fill="#000" fill-opacity=".1" d="m58.48 26.67 23.18 6.21-4.14 15.46-23.18-6.22z"/><path fill="#fff" d="m58.48 22.67 23.18 6.2-4.14 15.46-23.18-6.2 4.14-15.46Z"/><path fill="#949AAB" fill-rule="evenodd" d="M57.88 22.5a.63.63 0 0 1 .76-.44l23.18 6.21c.34.1.53.44.45.77L78.12 44.5a.62.62 0 0 1-.76.44l-23.18-6.21a.62.62 0 0 1-.45-.77l4.15-15.45Zm1.04.93L55.1 37.68l21.98 5.89 3.82-14.25-21.98-5.89Z" clip-rule="evenodd"/><path fill="#949AAB" fill-rule="evenodd" d="M69.08 29.15c.22.03.41.18.5.4l1.45 3.6 1.82.49 3.53-2.32.69 1.05-3.77 2.46a.62.62 0 0 1-.5.09l-2.4-.65a.62.62 0 0 1-.41-.37l-1.16-2.86-3.42 4.6a.62.62 0 0 1-1.01-.02l-1.2-1.74-3.85 2.88-.75-1 4.37-3.27a.63.63 0 0 1 .89.15l1.07 1.55 3.57-4.79a.63.63 0 0 1 .58-.25Z" clip-rule="evenodd" opacity=".5"/><path fill="#000" fill-opacity=".1" d="m14.7 63.3 16.6-16.6a1 1 0 0 1 1.7.71V64a1 1 0 0 1-1 1H15.41a1 1 0 0 1-.7-1.7Z"/><path fill="#fff" d="m14.7 59.3 16.6-16.6a1 1 0 0 1 1.7.71V60a1 1 0 0 1-1 1H15.41a1 1 0 0 1-.7-1.7Z"/><path fill="#949AAB" fill-rule="evenodd" d="M32.38 43.41c0-.33-.4-.5-.65-.26L15.15 59.74a.38.38 0 0 0 .26.64H32c.2 0 .38-.17.38-.38V43.41Zm-1.53-1.14a1.63 1.63 0 0 1 2.77 1.14V60c0 .9-.72 1.63-1.62 1.63H15.41a1.63 1.63 0 0 1-1.14-2.78l16.58-16.58Z" clip-rule="evenodd"/><path fill="#949AAB" fill-rule="evenodd" d="M21.43 57.31 19.3 55.2l.88-.88 2.12 2.12-.88.88ZM24.96 53.78l-2.12-2.12.89-.89 2.12 2.12-.89.89ZM28.5 50.24l-2.12-2.12.88-.88 2.12 2.12-.88.88Z" clip-rule="evenodd"/></g><defs><clipPath id="a"><path fill="#fff" d="M0 0h96v96H0z"/></clipPath></defs></svg>