<svg width="96" height="96" viewBox="0 0 96 96" fill="none" xmlns="http://www.w3.org/2000/svg">
<g clip-path="url(#clip0_2220_2904)">
<mask id="mask0_2220_2904" style="mask-type:luminance" maskUnits="userSpaceOnUse" x="0" y="0" width="96" height="96">
<path d="M0 0H96V96H0V0Z" fill="white"/>
</mask>
<g mask="url(#mask0_2220_2904)">
<path d="M48 96C74.5097 96 96 74.5097 96 48C96 21.4903 74.5097 0 48 0C21.4903 0 0 21.4903 0 48C0 74.5097 21.4903 96 48 96Z" fill="#DCDFE0" fill-opacity="0.3"/>
<path d="M24 35C24 33.9391 24.4214 32.9217 25.1716 32.1716C25.9217 31.4214 26.9391 31 28 31H68C69.0609 31 70.0783 31.4214 70.8284 32.1716C71.5786 32.9217 72 33.9391 72 35V61C72 62.0609 71.5786 63.0783 70.8284 63.8284C70.0783 64.5786 69.0609 65 68 65H28C26.9391 65 25.9217 64.5786 25.1716 63.8284C24.4214 63.0783 24 62.0609 24 61V35Z" fill="white"/>
<path fill-rule="evenodd" clip-rule="evenodd" d="M23.3801 35.0001C23.3801 33.7739 23.8665 32.5977 24.7327 31.7297C25.5988 30.8617 26.7739 30.3728 28.0001 30.3701H68.0001C69.2281 30.3701 70.4057 30.8579 71.274 31.7262C72.1423 32.5945 72.6301 33.7722 72.6301 35.0001V61.0001C72.6301 62.2281 72.1423 63.4057 71.274 64.274C70.4057 65.1423 69.2281 65.6301 68.0001 65.6301H28.0001C26.7722 65.6301 25.5945 65.1423 24.7262 64.274C23.8579 63.4057 23.3701 62.2281 23.3701 61.0001V35.0001H23.3801ZM28.0001 31.6201C27.5559 31.6188 27.1158 31.7053 26.7051 31.8747C26.2944 32.0441 25.9213 32.293 25.6072 32.6072C25.293 32.9213 25.0441 33.2944 24.8747 33.7051C24.7053 34.1158 24.6188 34.5559 24.6201 35.0001V61.0001C24.6188 61.4444 24.7053 61.8845 24.8747 62.2951C25.0441 62.7058 25.293 63.079 25.6072 63.3931C25.9213 63.7072 26.2944 63.9561 26.7051 64.1255C27.1158 64.2949 27.5559 64.3814 28.0001 64.3801H68.0001C68.4444 64.3814 68.8845 64.2949 69.2951 64.1255C69.7058 63.9561 70.079 63.7072 70.3931 63.3931C70.7072 63.079 70.9561 62.7058 71.1255 62.2951C71.2949 61.8845 71.3814 61.4444 71.3801 61.0001V35.0001C71.3814 34.5559 71.2949 34.1158 71.1255 33.7051C70.9561 33.2944 70.7072 32.9213 70.3931 32.6072C70.079 32.293 69.7058 32.0441 69.2951 31.8747C68.8845 31.7053 68.4444 31.6188 68.0001 31.6201H28.0001Z" fill="#949AAB"/>
<path d="M29.5 38C29.5 37.17 30.17 36.5 31 36.5H65C65.83 36.5 66.5 37.17 66.5 38V55C66.5 55.83 65.83 56.5 65 56.5H31C30.6022 56.5 30.2206 56.342 29.9393 56.0607C29.658 55.7794 29.5 55.3978 29.5 55V38Z" fill="white"/>
<path fill-rule="evenodd" clip-rule="evenodd" d="M28.8801 38.0001C28.8801 36.8301 29.8301 35.8701 31.0001 35.8701H65.0001C66.1701 35.8701 67.1301 36.8301 67.1301 38.0001V55.0001C67.1301 56.1701 66.1701 57.1301 65.0001 57.1301H31.0001C30.4352 57.1301 29.8934 56.9057 29.494 56.5063C29.0945 56.1068 28.8701 55.565 28.8701 55.0001V38.0001H28.8801ZM31.0001 37.1201C30.5201 37.1201 30.1201 37.5201 30.1201 38.0001V55.0001C30.1201 55.4801 30.5201 55.8801 31.0001 55.8801H65.0001C65.4801 55.8801 65.8801 55.4801 65.8801 55.0001V38.0001C65.8801 37.5201 65.4801 37.1201 65.0001 37.1201H31.0001ZM61.0701 61.1801C61.1934 61.1801 61.3117 61.1311 61.3989 61.0439C61.4861 60.9567 61.5351 60.8384 61.5351 60.7151C61.5351 60.5918 61.4861 60.4735 61.3989 60.3863C61.3117 60.2991 61.1934 60.2501 61.0701 60.2501C60.9468 60.2501 60.8285 60.2991 60.7413 60.3863C60.6541 60.4735 60.6051 60.5918 60.6051 60.7151C60.6051 60.8384 60.6541 60.9567 60.7413 61.0439C60.8285 61.1311 60.9468 61.1801 61.0701 61.1801ZM61.0701 62.4301C61.525 62.4301 61.9612 62.2494 62.2828 61.9278C62.6044 61.6062 62.7851 61.17 62.7851 60.7151C62.7851 60.2603 62.6044 59.8241 62.2828 59.5024C61.9612 59.1808 61.525 59.0001 61.0701 59.0001C60.6153 59.0001 60.1791 59.1808 59.8574 59.5024C59.5358 59.8241 59.3551 60.2603 59.3551 60.7151C59.3551 61.17 59.5358 61.6062 59.8574 61.9278C60.1791 62.2494 60.6153 62.4301 61.0701 62.4301ZM65.5701 61.1801C65.6934 61.1801 65.8117 61.1311 65.8989 61.0439C65.9861 60.9567 66.0351 60.8384 66.0351 60.7151C66.0351 60.5918 65.9861 60.4735 65.8989 60.3863C65.8117 60.2991 65.6934 60.2501 65.5701 60.2501C65.4468 60.2501 65.3285 60.2991 65.2413 60.3863C65.1541 60.4735 65.1051 60.5918 65.1051 60.7151C65.1051 60.8384 65.1541 60.9567 65.2413 61.0439C65.3285 61.1311 65.4468 61.1801 65.5701 61.1801ZM65.5701 62.4301C66.025 62.4301 66.4612 62.2494 66.7828 61.9278C67.1044 61.6062 67.2851 61.17 67.2851 60.7151C67.2851 60.2603 67.1044 59.8241 66.7828 59.5024C66.4612 59.1808 66.025 59.0001 65.5701 59.0001C65.1153 59.0001 64.6791 59.1808 64.3574 59.5024C64.0358 59.8241 63.8551 60.2603 63.8551 60.7151C63.8551 61.17 64.0358 61.6062 64.3574 61.9278C64.6791 62.2494 65.1153 62.4301 65.5701 62.4301Z" fill="#949AAB"/>
<path d="M41 45C41.8284 45 42.5 44.3284 42.5 43.5C42.5 42.6716 41.8284 42 41 42C40.1716 42 39.5 42.6716 39.5 43.5C39.5 44.3284 40.1716 45 41 45Z" fill="#949AAB"/>
<path d="M55 45C55.8284 45 56.5 44.3284 56.5 43.5C56.5 42.6716 55.8284 42 55 42C54.1716 42 53.5 42.6716 53.5 43.5C53.5 44.3284 54.1716 45 55 45Z" fill="#949AAB"/>
<path fill-rule="evenodd" clip-rule="evenodd" d="M46.8302 48.72C47.1002 48.97 47.5002 49.12 48.0002 49.12C48.5002 49.12 48.9002 48.97 49.1702 48.72C49.4302 48.48 49.6202 48.1 49.6202 47.5H50.8702C50.8702 48.4 50.5702 49.13 50.0202 49.64C49.4702 50.14 48.7502 50.37 48.0002 50.37C47.2502 50.37 46.5302 50.15 45.9802 49.64C45.6946 49.3637 45.4704 49.0303 45.3223 48.6616C45.1741 48.2929 45.1052 47.8971 45.1202 47.5H46.3702C46.3702 48.1 46.5702 48.48 46.8302 48.72Z" fill="#949AAB"/>
<path d="M58.4798 26.6699L81.6598 32.8799L77.5198 48.3399L54.3398 42.1199L58.4798 26.6699Z" fill="black" fill-opacity="0.1"/>
<path d="M58.4798 22.6699L81.6598 28.8699L77.5198 44.3299L54.3398 38.1299L58.4798 22.6699Z" fill="white"/>
<path fill-rule="evenodd" clip-rule="evenodd" d="M57.8801 22.5C57.901 22.4211 57.9373 22.3472 57.9868 22.2824C58.0364 22.2175 58.0982 22.1631 58.1688 22.1223C58.2394 22.0814 58.3174 22.0548 58.3983 22.0442C58.4791 22.0335 58.5613 22.0389 58.6401 22.06L81.8201 28.27C82.1601 28.37 82.3501 28.71 82.2701 29.04L78.1201 44.5C78.0756 44.6578 77.9713 44.7921 77.8294 44.8742C77.6875 44.9564 77.5192 44.98 77.3601 44.94L54.1801 38.73C54.0993 38.7103 54.0232 38.6745 53.9565 38.6247C53.8898 38.575 53.8337 38.5123 53.7917 38.4405C53.7497 38.3686 53.7227 38.2891 53.7121 38.2065C53.7015 38.124 53.7076 38.0401 53.7301 37.96L57.8801 22.51V22.5ZM58.9201 23.43L55.1001 37.68L77.0801 43.57L80.9001 29.32L58.9201 23.43Z" fill="#949AAB"/>
<g opacity="0.5">
<path fill-rule="evenodd" clip-rule="evenodd" d="M60 36.66L62.59 27L63.79 27.32L61.21 36.98L60 36.66ZM64.1 37.76L65.66 31.96L66.86 32.29L65.31 38.09L64.11 37.76H64.1ZM68.21 38.86L69.25 35L70.45 35.32L69.42 39.18L68.21 38.86ZM72.32 39.96L73.87 34.16L75.07 34.49L73.52 40.29L72.32 39.96Z" fill="#949AAB"/>
</g>
<path fill-rule="evenodd" clip-rule="evenodd" d="M45.36 64.69L34 55V69.92C34 70.36 34.52 70.58 34.84 70.28L38 67.33L40.86 73.55C40.8879 73.61 40.9274 73.6639 40.9763 73.7086C41.0252 73.7532 41.0825 73.7877 41.1448 73.81C41.2072 73.8324 41.2733 73.8421 41.3394 73.8387C41.4055 73.8352 41.4703 73.8187 41.53 73.79L43.43 72.92C43.49 72.8921 43.5439 72.8526 43.5886 72.8037C43.6332 72.7548 43.6677 72.6975 43.69 72.6352C43.7124 72.5728 43.7221 72.5067 43.7187 72.4406C43.7152 72.3745 43.6987 72.3097 43.67 72.25L40.81 66.04L45.1 65.56C45.1954 65.5481 45.2853 65.5089 45.359 65.4472C45.4327 65.3855 45.487 65.3039 45.5155 65.2121C45.544 65.1203 45.5454 65.0222 45.5196 64.9296C45.4938 64.837 45.4419 64.7538 45.37 64.69H45.36Z" fill="black" fill-opacity="0.1"/>
<path fill-rule="evenodd" clip-rule="evenodd" d="M46.24 61.44L34 51V67.07L38 63.33L41.05 70L43.85 68.7L40.79 62.04L46.23 61.44H46.24Z" fill="white"/>
<path fill-rule="evenodd" clip-rule="evenodd" d="M33.7399 50.43C33.9599 50.33 34.2199 50.37 34.4099 50.53L46.6399 60.96C46.7362 61.0379 46.807 61.143 46.8431 61.2615C46.8792 61.3801 46.8789 61.5067 46.8423 61.6251C46.8057 61.7435 46.7345 61.8482 46.6378 61.9257C46.5411 62.0032 46.4234 62.05 46.2999 62.06L41.7299 62.56L44.4299 68.45C44.5799 68.76 44.4399 69.13 44.1299 69.28L41.3299 70.57C41.1798 70.6387 41.0088 70.6457 40.8536 70.5896C40.6984 70.5335 40.5714 70.4188 40.4999 70.27L37.7899 64.37L34.4299 67.53C34.3398 67.6106 34.2285 67.6635 34.1092 67.6826C33.9899 67.7017 33.8677 67.686 33.757 67.6375C33.6463 67.5891 33.552 67.5098 33.4851 67.4092C33.4182 67.3085 33.3817 67.1908 33.3799 67.07V51C33.3799 50.76 33.5199 50.53 33.7399 50.43ZM34.6199 52.35V65.63L37.5599 62.87C37.632 62.8003 37.7199 62.7492 37.8161 62.7209C37.9124 62.6927 38.014 62.6882 38.1123 62.7079C38.2106 62.7276 38.3027 62.7708 38.3807 62.8338C38.4586 62.8969 38.5201 62.9779 38.5599 63.07L41.3699 69.17L43.0399 68.4L40.2299 62.3C40.1901 62.21 40.172 62.1119 40.1769 62.0137C40.1819 61.9154 40.2098 61.8197 40.2584 61.7341C40.307 61.6486 40.3749 61.5756 40.4568 61.5211C40.5387 61.4665 40.6322 61.4319 40.7299 61.42L44.7299 60.97L34.6299 52.35H34.6199ZM50.3799 20V22H51.6199V20H50.3799ZM47.9999 23.63H49.9999V22.38H47.9999V23.63ZM50.3799 26V24H51.6199V26H50.3799ZM51.9999 23.62H53.9999V22.37H51.9999V23.62Z" fill="#949AAB"/>
<path opacity="0.5" fill-rule="evenodd" clip-rule="evenodd" d="M78.38 52V54H79.63V52H78.38ZM76 55.63H78V54.37H76V55.63ZM78.38 58V56H79.63V58H78.38ZM80 55.62H82V54.38H80V55.62Z" fill="#949AAB"/>
</g>
</g>
<defs>
<clipPath id="clip0_2220_2904">
<rect width="96" height="96" fill="white"/>
</clipPath>
</defs>
</svg>
