<svg width="96" height="96" viewBox="0 0 96 96" fill="none" xmlns="http://www.w3.org/2000/svg">
<g clip-path="url(#clip0_2220_2865)">
<mask id="mask0_2220_2865" style="mask-type:luminance" maskUnits="userSpaceOnUse" x="0" y="0" width="96" height="96">
<path d="M0 0H96V96H0V0Z" fill="white"/>
</mask>
<g mask="url(#mask0_2220_2865)">
<path d="M48 96C74.5097 96 96 74.5097 96 48C96 21.4903 74.5097 0 48 0C21.4903 0 0 21.4903 0 48C0 74.5097 21.4903 96 48 96Z" fill="#DCDFE0" fill-opacity="0.3"/>
<path d="M24 35C24 33.9391 24.4214 32.9217 25.1716 32.1716C25.9217 31.4214 26.9391 31 28 31H68C69.0609 31 70.0783 31.4214 70.8284 32.1716C71.5786 32.9217 72 33.9391 72 35V61C72 62.0609 71.5786 63.0783 70.8284 63.8284C70.0783 64.5786 69.0609 65 68 65H28C26.9391 65 25.9217 64.5786 25.1716 63.8284C24.4214 63.0783 24 62.0609 24 61V35Z" fill="white"/>
<path fill-rule="evenodd" clip-rule="evenodd" d="M23.3801 35.0001C23.3801 33.7739 23.8665 32.5977 24.7327 31.7297C25.5988 30.8617 26.7739 30.3728 28.0001 30.3701H68.0001C69.2281 30.3701 70.4057 30.8579 71.274 31.7262C72.1423 32.5945 72.6301 33.7722 72.6301 35.0001V61.0001C72.6301 62.2281 72.1423 63.4057 71.274 64.274C70.4057 65.1423 69.2281 65.6301 68.0001 65.6301H28.0001C26.7722 65.6301 25.5945 65.1423 24.7262 64.274C23.8579 63.4057 23.3701 62.2281 23.3701 61.0001V35.0001H23.3801ZM28.0001 31.6201C27.5559 31.6188 27.1158 31.7053 26.7051 31.8747C26.2944 32.0441 25.9213 32.293 25.6072 32.6072C25.293 32.9213 25.0441 33.2944 24.8747 33.7051C24.7053 34.1158 24.6188 34.5559 24.6201 35.0001V61.0001C24.6188 61.4444 24.7053 61.8845 24.8747 62.2951C25.0441 62.7058 25.293 63.079 25.6072 63.3931C25.9213 63.7072 26.2944 63.9561 26.7051 64.1255C27.1158 64.2949 27.5559 64.3814 28.0001 64.3801H68.0001C68.4444 64.3814 68.8845 64.2949 69.2951 64.1255C69.7058 63.9561 70.079 63.7072 70.3931 63.3931C70.7072 63.079 70.9561 62.7058 71.1255 62.2951C71.2949 61.8845 71.3814 61.4444 71.3801 61.0001V35.0001C71.3814 34.5559 71.2949 34.1158 71.1255 33.7051C70.9561 33.2944 70.7072 32.9213 70.3931 32.6072C70.079 32.293 69.7058 32.0441 69.2951 31.8747C68.8845 31.7053 68.4444 31.6188 68.0001 31.6201H28.0001Z" fill="#949AAB"/>
<path d="M29.5 38C29.5 37.17 30.17 36.5 31 36.5H65C65.83 36.5 66.5 37.17 66.5 38V55C66.5 55.83 65.83 56.5 65 56.5H31C30.6022 56.5 30.2206 56.342 29.9393 56.0607C29.658 55.7794 29.5 55.3978 29.5 55V38Z" fill="white"/>
<path fill-rule="evenodd" clip-rule="evenodd" d="M28.8801 38.0001C28.8801 36.8301 29.8301 35.8701 31.0001 35.8701H65.0001C66.1701 35.8701 67.1301 36.8301 67.1301 38.0001V55.0001C67.1301 56.1701 66.1701 57.1301 65.0001 57.1301H31.0001C30.4352 57.1301 29.8934 56.9057 29.494 56.5063C29.0945 56.1068 28.8701 55.565 28.8701 55.0001V38.0001H28.8801ZM31.0001 37.1201C30.5201 37.1201 30.1201 37.5201 30.1201 38.0001V55.0001C30.1201 55.4801 30.5201 55.8801 31.0001 55.8801H65.0001C65.4801 55.8801 65.8801 55.4801 65.8801 55.0001V38.0001C65.8801 37.5201 65.4801 37.1201 65.0001 37.1201H31.0001ZM61.0701 61.1801C61.1934 61.1801 61.3117 61.1311 61.3989 61.0439C61.4861 60.9567 61.5351 60.8384 61.5351 60.7151C61.5351 60.5918 61.4861 60.4735 61.3989 60.3863C61.3117 60.2991 61.1934 60.2501 61.0701 60.2501C60.9468 60.2501 60.8285 60.2991 60.7413 60.3863C60.6541 60.4735 60.6051 60.5918 60.6051 60.7151C60.6051 60.8384 60.6541 60.9567 60.7413 61.0439C60.8285 61.1311 60.9468 61.1801 61.0701 61.1801ZM61.0701 62.4301C61.525 62.4301 61.9612 62.2494 62.2828 61.9278C62.6044 61.6062 62.7851 61.17 62.7851 60.7151C62.7851 60.2603 62.6044 59.8241 62.2828 59.5024C61.9612 59.1808 61.525 59.0001 61.0701 59.0001C60.6153 59.0001 60.1791 59.1808 59.8574 59.5024C59.5358 59.8241 59.3551 60.2603 59.3551 60.7151C59.3551 61.17 59.5358 61.6062 59.8574 61.9278C60.1791 62.2494 60.6153 62.4301 61.0701 62.4301ZM65.5701 61.1801C65.6934 61.1801 65.8117 61.1311 65.8989 61.0439C65.9861 60.9567 66.0351 60.8384 66.0351 60.7151C66.0351 60.5918 65.9861 60.4735 65.8989 60.3863C65.8117 60.2991 65.6934 60.2501 65.5701 60.2501C65.4468 60.2501 65.3285 60.2991 65.2413 60.3863C65.1541 60.4735 65.1051 60.5918 65.1051 60.7151C65.1051 60.8384 65.1541 60.9567 65.2413 61.0439C65.3285 61.1311 65.4468 61.1801 65.5701 61.1801ZM65.5701 62.4301C66.025 62.4301 66.4612 62.2494 66.7828 61.9278C67.1044 61.6062 67.2851 61.17 67.2851 60.7151C67.2851 60.2603 67.1044 59.8241 66.7828 59.5024C66.4612 59.1808 66.025 59.0001 65.5701 59.0001C65.1153 59.0001 64.6791 59.1808 64.3574 59.5024C64.0358 59.8241 63.8551 60.2603 63.8551 60.7151C63.8551 61.17 64.0358 61.6062 64.3574 61.9278C64.6791 62.2494 65.1153 62.4301 65.5701 62.4301Z" fill="#949AAB"/>
<path d="M41 45C41.8284 45 42.5 44.3284 42.5 43.5C42.5 42.6716 41.8284 42 41 42C40.1716 42 39.5 42.6716 39.5 43.5C39.5 44.3284 40.1716 45 41 45Z" fill="#949AAB"/>
<path d="M55 45C55.8284 45 56.5 44.3284 56.5 43.5C56.5 42.6716 55.8284 42 55 42C54.1716 42 53.5 42.6716 53.5 43.5C53.5 44.3284 54.1716 45 55 45Z" fill="#949AAB"/>
<path fill-rule="evenodd" clip-rule="evenodd" d="M46.8302 48.72C47.1002 48.97 47.5002 49.12 48.0002 49.12C48.5002 49.12 48.9002 48.97 49.1702 48.72C49.4302 48.48 49.6202 48.1 49.6202 47.5H50.8702C50.8702 48.4 50.5702 49.13 50.0202 49.64C49.4702 50.14 48.7502 50.37 48.0002 50.37C47.2502 50.37 46.5302 50.15 45.9802 49.64C45.6946 49.3637 45.4704 49.0303 45.3223 48.6616C45.1741 48.2929 45.1052 47.8971 45.1202 47.5H46.3702C46.3702 48.1 46.5702 48.48 46.8302 48.72Z" fill="#949AAB"/>
<path d="M58.4798 26.6699L81.6598 32.8799L77.5198 48.3399L54.3398 42.1199L58.4798 26.6699Z" fill="black" fill-opacity="0.1"/>
<path d="M58.4798 22.6699L81.6598 28.8699L77.5198 44.3299L54.3398 38.1299L58.4798 22.6699Z" fill="white"/>
<path fill-rule="evenodd" clip-rule="evenodd" d="M57.8801 22.5C57.9246 22.3422 58.0289 22.208 58.1708 22.1258C58.3127 22.0436 58.4811 22.02 58.6401 22.06L81.8201 28.27C82.1601 28.37 82.3501 28.71 82.2701 29.04L78.1201 44.5C78.0992 44.5789 78.063 44.6529 78.0134 44.7177C77.9639 44.7825 77.9021 44.8369 77.8315 44.8778C77.7609 44.9187 77.6829 44.9452 77.602 44.9559C77.5211 44.9666 77.4389 44.9612 77.3601 44.94L54.1801 38.73C54.0993 38.7103 54.0232 38.6745 53.9565 38.6248C53.8898 38.575 53.8337 38.5124 53.7917 38.4405C53.7497 38.3687 53.7227 38.2891 53.7121 38.2065C53.7015 38.124 53.7076 38.0402 53.7301 37.96L57.8801 22.51V22.5ZM58.9201 23.43L55.1001 37.68L77.0801 43.57L80.9001 29.32L58.9201 23.43Z" fill="#949AAB"/>
<path opacity="0.5" fill-rule="evenodd" clip-rule="evenodd" d="M69.0796 29.1499C69.2996 29.1799 69.4896 29.3299 69.5796 29.5499L71.0296 33.1499L72.8496 33.6399L76.3796 31.3199L77.0696 32.3699L73.2996 34.8299C73.2274 34.8794 73.1454 34.9129 73.0592 34.9285C72.9731 34.944 72.8846 34.9411 72.7996 34.9199L70.3996 34.2699C70.3073 34.2441 70.2223 34.1973 70.1511 34.1331C70.08 34.0689 70.0247 33.9891 69.9896 33.8999L68.8296 31.0399L65.4096 35.6399C65.3507 35.7193 65.2737 35.7834 65.1849 35.827C65.0962 35.8705 64.9983 35.8923 64.8995 35.8903C64.8006 35.8883 64.7037 35.8628 64.6167 35.8157C64.5298 35.7687 64.4553 35.7016 64.3996 35.6199L63.1996 33.8799L59.3496 36.7599L58.5996 35.7599L62.9696 32.4899C63.0375 32.4402 63.1147 32.4047 63.1965 32.3853C63.2784 32.3659 63.3633 32.3632 63.4463 32.3771C63.5292 32.3911 63.6085 32.4216 63.6795 32.4667C63.7505 32.5118 63.8117 32.5707 63.8596 32.6399L64.9296 34.1899L68.4996 29.3999C68.5657 29.3109 68.6542 29.2409 68.756 29.197C68.8579 29.1531 68.9695 29.1368 69.0796 29.1499Z" fill="#949AAB"/>
<path d="M14.6998 63.2999L31.2998 46.6999C31.4402 46.5623 31.618 46.4691 31.811 46.432C32.0041 46.3949 32.2038 46.4155 32.3852 46.4913C32.5666 46.5671 32.7216 46.6946 32.8309 46.858C32.9402 47.0214 32.999 47.2134 32.9998 47.4099V63.9999C32.9998 64.2651 32.8944 64.5195 32.7069 64.707C32.5194 64.8946 32.265 64.9999 31.9998 64.9999H15.4098C15.2141 64.9972 15.0234 64.937 14.8616 64.827C14.6997 64.7169 14.5737 64.5618 14.4991 64.3808C14.4246 64.1998 14.4049 64.0009 14.4423 63.8087C14.4797 63.6166 14.5727 63.4397 14.7098 63.2999H14.6998Z" fill="black" fill-opacity="0.1"/>
<path d="M14.6998 59.2999L31.2998 42.6999C31.4402 42.5623 31.618 42.4691 31.811 42.432C32.0041 42.3949 32.2038 42.4155 32.3852 42.4913C32.5666 42.5671 32.7216 42.6946 32.8309 42.858C32.9402 43.0214 32.999 43.2134 32.9998 43.4099V59.9999C32.9998 60.2651 32.8944 60.5195 32.7069 60.707C32.5194 60.8946 32.265 60.9999 31.9998 60.9999H15.4098C15.2141 60.9972 15.0234 60.937 14.8616 60.827C14.6997 60.7169 14.5737 60.5618 14.4991 60.3808C14.4246 60.1998 14.4049 60.0009 14.4423 59.8087C14.4797 59.6166 14.5727 59.4397 14.7098 59.2999H14.6998Z" fill="white"/>
<path fill-rule="evenodd" clip-rule="evenodd" d="M32.3798 43.4101C32.3798 43.0801 31.9798 42.9101 31.7298 43.1501L15.1498 59.7401C15.1 59.7931 15.0664 59.8592 15.0531 59.9307C15.0397 60.0023 15.0472 60.0761 15.0746 60.1435C15.1019 60.2109 15.1481 60.269 15.2075 60.3109C15.2669 60.3529 15.3372 60.3769 15.4098 60.3801H31.9998C32.1998 60.3801 32.3798 60.2101 32.3798 60.0001V43.4101ZM30.8498 42.2701C31.0776 42.0471 31.3658 41.8958 31.6788 41.8349C31.9917 41.7741 32.3156 41.8063 32.6104 41.9276C32.9052 42.0489 33.1579 42.254 33.3373 42.5175C33.5168 42.781 33.615 43.0913 33.6198 43.4101V60.0001C33.6198 60.9001 32.8998 61.6301 31.9998 61.6301H15.4098C15.089 61.6271 14.7763 61.5296 14.5107 61.3496C14.2451 61.1697 14.0385 60.9154 13.9168 60.6186C13.7951 60.3218 13.7637 59.9957 13.8265 59.6811C13.8893 59.3665 14.0435 59.0774 14.2698 58.8501L30.8498 42.2701Z" fill="#949AAB"/>
<path fill-rule="evenodd" clip-rule="evenodd" d="M21.4298 57.31L19.2998 55.2L20.1798 54.32L22.2998 56.44L21.4198 57.32L21.4298 57.31ZM24.9598 53.78L22.8398 51.66L23.7298 50.77L25.8498 52.89L24.9598 53.78ZM28.4998 50.24L26.3798 48.12L27.2598 47.24L29.3798 49.36L28.4998 50.24Z" fill="#949AAB"/>
</g>
</g>
<defs>
<clipPath id="clip0_2220_2865">
<rect width="96" height="96" fill="white"/>
</clipPath>
</defs>
</svg>
