<svg xmlns="http://www.w3.org/2000/svg" width="96" height="96" fill="none"><g clip-path="url(#a)"><circle cx="48" cy="48" r="48" fill="#4C5773" fill-opacity=".05"/><path fill="#fff" d="M24 35a4 4 0 0 1 4-4h40a4 4 0 0 1 4 4v26a4 4 0 0 1-4 4H28a4 4 0 0 1-4-4V35Z"/><path fill="#949AAB" fill-rule="evenodd" d="M23.38 35A4.63 4.63 0 0 1 28 30.37h40A4.63 4.63 0 0 1 72.63 35v26A4.63 4.63 0 0 1 68 65.63H28A4.63 4.63 0 0 1 23.37 61V35ZM28 31.62A3.37 3.37 0 0 0 24.62 35v26A3.37 3.37 0 0 0 28 64.38h40A3.37 3.37 0 0 0 71.38 61V35A3.37 3.37 0 0 0 68 31.62H28Z" clip-rule="evenodd"/><path fill="#fff" d="M29.5 38c0-.83.67-1.5 1.5-1.5h34c.83 0 1.5.67 1.5 1.5v17c0 .83-.67 1.5-1.5 1.5H31a1.5 1.5 0 0 1-1.5-1.5V38Z"/><path fill="#949AAB" fill-rule="evenodd" d="M28.88 38c0-1.17.95-2.13 2.12-2.13h34c1.17 0 2.13.96 2.13 2.13v17c0 1.17-.96 2.13-2.13 2.13H31A2.13 2.13 0 0 1 28.87 55V38Zm2.12-.88c-.48 0-.88.4-.88.88v17c0 .48.4.88.88.88h34c.48 0 .88-.4.88-.88V38c0-.48-.4-.88-.88-.88H31ZM61.07 61.18a.46.46 0 1 0 0-.93.46.46 0 0 0 0 .93Zm0 1.25a1.71 1.71 0 1 0 0-3.43 1.71 1.71 0 0 0 0 3.43ZM65.57 61.18a.46.46 0 1 0 0-.93.46.46 0 0 0 0 .93Zm0 1.25a1.71 1.71 0 1 0 0-3.43 1.71 1.71 0 0 0 0 3.43Z" clip-rule="evenodd"/><circle cx="41" cy="43.5" r="1.5" fill="#949AAB"/><circle cx="55" cy="43.5" r="1.5" fill="#949AAB"/><path fill="#949AAB" fill-rule="evenodd" d="M46.83 48.72c.27.25.67.4 1.17.4.5 0 .9-.15 1.17-.4.26-.24.45-.62.45-1.22h1.25c0 .9-.3 1.63-.85 2.14-.55.5-1.27.73-2.02.73s-1.47-.22-2.02-.73a2.83 2.83 0 0 1-.86-2.14h1.25c0 .6.2.98.46 1.22Z" clip-rule="evenodd"/><path fill="#000" fill-opacity=".1" d="m58.48 26.67 23.18 6.21-4.14 15.46-23.18-6.22z"/><path fill="#fff" d="m58.48 22.67 23.18 6.2-4.14 15.46-23.18-6.2 4.14-15.46Z"/><path fill="#949AAB" fill-rule="evenodd" d="M57.88 22.5a.62.62 0 0 1 .76-.44l23.18 6.21c.34.1.53.44.45.77L78.12 44.5a.63.63 0 0 1-.76.44l-23.18-6.21a.62.62 0 0 1-.45-.77l4.15-15.45Zm1.04.93L55.1 37.68l21.98 5.89 3.82-14.25-21.98-5.89Z" clip-rule="evenodd"/><g fill="#949AAB" fill-rule="evenodd" clip-rule="evenodd" opacity=".5"><path d="M60 36.66 62.59 27l1.2.32-2.58 9.66-1.21-.32ZM64.1 37.76l1.56-5.8 1.2.33-1.55 5.8-1.2-.33ZM68.21 38.86 69.25 35l1.2.32-1.03 3.86-1.21-.32ZM72.32 39.96l1.55-5.8 1.2.33-1.55 5.8-1.2-.33Z"/></g><path fill="#000" fill-opacity=".1" fill-rule="evenodd" d="M45.36 64.69 34 55v14.92c0 .44.52.66.84.36L38 67.33l2.86 6.22a.5.5 0 0 0 .67.24l1.9-.87a.5.5 0 0 0 .24-.67l-2.86-6.21 4.29-.48a.5.5 0 0 0 .27-.87Z" clip-rule="evenodd"/><path fill="#fff" fill-rule="evenodd" d="M46.24 61.44 34 51v16.07l4-3.74L41.05 70l2.8-1.3-3.06-6.66 5.44-.6Z" clip-rule="evenodd"/><path fill="#949AAB" fill-rule="evenodd" d="M33.74 50.43c.22-.1.48-.06.67.1l12.23 10.43a.62.62 0 0 1-.34 1.1l-4.57.5 2.7 5.89c.15.31.01.68-.3.83l-2.8 1.29a.63.63 0 0 1-.83-.3l-2.71-5.9-3.36 3.16a.63.63 0 0 1-1.05-.46V51c0-.24.14-.47.36-.57Zm.88 1.92v13.28l2.94-2.76a.62.62 0 0 1 1 .2l2.81 6.1 1.67-.77-2.81-6.1a.63.63 0 0 1 .5-.88l4-.45-10.1-8.62ZM50.38 20v2h1.24v-2h-1.24ZM48 23.63h2v-1.25h-2v1.25ZM50.38 26v-2h1.24v2h-1.24ZM52 23.62h2v-1.25h-2v1.25Z" clip-rule="evenodd"/><path fill="#949AAB" fill-rule="evenodd" d="M78.38 52v2h1.25v-2h-1.25ZM76 55.63h2v-1.26h-2v1.26ZM78.38 58v-2h1.25v2h-1.25ZM80 55.62h2v-1.24h-2v1.24Z" clip-rule="evenodd" opacity=".5"/></g><defs><clipPath id="a"><path fill="#fff" d="M0 0h96v96H0z"/></clipPath></defs></svg>