<svg width="96" height="96" viewBox="0 0 96 96" fill="none" xmlns="http://www.w3.org/2000/svg">
<g clip-path="url(#clip0_2220_2926)">
<mask id="mask0_2220_2926" style="mask-type:luminance" maskUnits="userSpaceOnUse" x="0" y="0" width="96" height="96">
<path d="M0 0H96V96H0V0Z" fill="white"/>
</mask>
<g mask="url(#mask0_2220_2926)">
<path d="M48 96C74.5097 96 96 74.5097 96 48C96 21.4903 74.5097 0 48 0C21.4903 0 0 21.4903 0 48C0 74.5097 21.4903 96 48 96Z" fill="#DCDFE0" fill-opacity="0.3"/>
<path d="M24 35C24 33.9391 24.4214 32.9217 25.1716 32.1716C25.9217 31.4214 26.9391 31 28 31H68C69.0609 31 70.0783 31.4214 70.8284 32.1716C71.5786 32.9217 72 33.9391 72 35V61C72 62.0609 71.5786 63.0783 70.8284 63.8284C70.0783 64.5786 69.0609 65 68 65H28C26.9391 65 25.9217 64.5786 25.1716 63.8284C24.4214 63.0783 24 62.0609 24 61V35Z" fill="white"/>
<path fill-rule="evenodd" clip-rule="evenodd" d="M23.3799 35.0001C23.3799 33.7739 23.8663 32.5977 24.7324 31.7297C25.5986 30.8617 26.7737 30.3728 27.9999 30.3701H67.9999C69.2278 30.3701 70.4055 30.8579 71.2738 31.7262C72.1421 32.5945 72.6299 33.7722 72.6299 35.0001V61.0001C72.6299 62.2281 72.1421 63.4057 71.2738 64.274C70.4055 65.1423 69.2278 65.6301 67.9999 65.6301H27.9999C26.7737 65.6275 25.5986 65.1385 24.7324 64.2705C23.8663 63.4025 23.3799 62.2263 23.3799 61.0001V35.0001ZM27.9999 31.6201C27.1052 31.6228 26.248 31.98 25.6163 32.6136C24.9846 33.2472 24.6299 34.1054 24.6299 35.0001V61.0001C24.6299 61.8948 24.9846 62.753 25.6163 63.3866C26.248 64.0202 27.1052 64.3775 27.9999 64.3801H67.9999C68.4441 64.3814 68.8842 64.2949 69.2949 64.1255C69.7056 63.9561 70.0787 63.7072 70.3929 63.3931C70.707 63.079 70.9559 62.7058 71.1253 62.2951C71.2947 61.8845 71.3812 61.4444 71.3799 61.0001V35.0001C71.3812 34.5559 71.2947 34.1158 71.1253 33.7051C70.9559 33.2944 70.707 32.9213 70.3929 32.6072C70.0787 32.293 69.7056 32.0441 69.2949 31.8747C68.8842 31.7053 68.4441 31.6188 67.9999 31.6201H27.9999Z" fill="#949AAB"/>
<path d="M29.5 38C29.5 37.17 30.17 36.5 31 36.5H65C65.83 36.5 66.5 37.17 66.5 38V55C66.5 55.83 65.83 56.5 65 56.5H31C30.6022 56.5 30.2206 56.342 29.9393 56.0607C29.658 55.7794 29.5 55.3978 29.5 55V38Z" fill="white"/>
<path fill-rule="evenodd" clip-rule="evenodd" d="M28.8799 38.0001C28.8799 36.8301 29.8299 35.8701 30.9999 35.8701H64.9999C66.1699 35.8701 67.1299 36.8301 67.1299 38.0001V55.0001C67.1299 56.1701 66.1699 57.1301 64.9999 57.1301H30.9999C30.4367 57.1275 29.8975 56.9019 29.5002 56.5027C29.1029 56.1036 28.8799 55.5633 28.8799 55.0001V38.0001ZM30.9999 37.1201C30.5199 37.1201 30.1299 37.5201 30.1299 38.0001V55.0001C30.1299 55.4801 30.5199 55.8801 30.9999 55.8801H64.9999C65.4799 55.8801 65.8799 55.4801 65.8799 55.0001V38.0001C65.8799 37.5201 65.4799 37.1201 64.9999 37.1201H30.9999ZM61.0699 61.1801C61.1932 61.1801 61.3115 61.1311 61.3987 61.0439C61.4859 60.9567 61.5349 60.8384 61.5349 60.7151C61.5349 60.5918 61.4859 60.4735 61.3987 60.3863C61.3115 60.2991 61.1932 60.2501 61.0699 60.2501C60.9466 60.2501 60.8283 60.2991 60.7411 60.3863C60.6539 60.4735 60.6049 60.5918 60.6049 60.7151C60.6049 60.8384 60.6539 60.9567 60.7411 61.0439C60.8283 61.1311 60.9466 61.1801 61.0699 61.1801ZM61.0699 62.4301C61.5247 62.4301 61.9609 62.2494 62.2826 61.9278C62.6042 61.6062 62.7849 61.17 62.7849 60.7151C62.7849 60.2603 62.6042 59.8241 62.2826 59.5024C61.9609 59.1808 61.5247 59.0001 61.0699 59.0001C60.615 59.0001 60.1788 59.1808 59.8572 59.5024C59.5356 59.8241 59.3549 60.2603 59.3549 60.7151C59.3549 61.17 59.5356 61.6062 59.8572 61.9278C60.1788 62.2494 60.615 62.4301 61.0699 62.4301ZM65.5699 61.1801C65.6932 61.1801 65.8115 61.1311 65.8987 61.0439C65.9859 60.9567 66.0349 60.8384 66.0349 60.7151C66.0349 60.5918 65.9859 60.4735 65.8987 60.3863C65.8115 60.2991 65.6932 60.2501 65.5699 60.2501C65.4466 60.2501 65.3283 60.2991 65.2411 60.3863C65.1539 60.4735 65.1049 60.5918 65.1049 60.7151C65.1049 60.8384 65.1539 60.9567 65.2411 61.0439C65.3283 61.1311 65.4466 61.1801 65.5699 61.1801ZM65.5699 62.4301C66.0247 62.4301 66.4609 62.2494 66.7826 61.9278C67.1042 61.6062 67.2849 61.17 67.2849 60.7151C67.2849 60.2603 67.1042 59.8241 66.7826 59.5024C66.4609 59.1808 66.0247 59.0001 65.5699 59.0001C65.115 59.0001 64.6788 59.1808 64.3572 59.5024C64.0356 59.8241 63.8549 60.2603 63.8549 60.7151C63.8549 61.17 64.0356 61.6062 64.3572 61.9278C64.6788 62.2494 65.115 62.4301 65.5699 62.4301Z" fill="#949AAB"/>
<path d="M41 45C41.8284 45 42.5 44.3284 42.5 43.5C42.5 42.6716 41.8284 42 41 42C40.1716 42 39.5 42.6716 39.5 43.5C39.5 44.3284 40.1716 45 41 45Z" fill="#949AAB"/>
<path d="M55 45C55.8284 45 56.5 44.3284 56.5 43.5C56.5 42.6716 55.8284 42 55 42C54.1716 42 53.5 42.6716 53.5 43.5C53.5 44.3284 54.1716 45 55 45Z" fill="#949AAB"/>
<path fill-rule="evenodd" clip-rule="evenodd" d="M46.8303 48.73C47.1003 48.97 47.5003 49.13 48.0003 49.13C48.5003 49.13 48.9003 48.97 49.1703 48.73C49.4303 48.48 49.6203 48.1 49.6203 47.5H50.8803C50.8803 48.4 50.5703 49.13 50.0203 49.64C49.4703 50.14 48.7503 50.37 48.0003 50.37C47.2503 50.37 46.5303 50.15 45.9803 49.64C45.6965 49.3628 45.4742 49.029 45.3278 48.6604C45.1814 48.2917 45.1141 47.8964 45.1303 47.5H46.3703C46.3703 48.1 46.5703 48.48 46.8303 48.73Z" fill="#949AAB"/>
<path d="M69.4898 28H60.5498C60.3509 28 60.1601 28.079 60.0195 28.2197C59.8788 28.3603 59.7998 28.5511 59.7998 28.75V51.25C59.7998 51.66 60.1398 52 60.5498 52H77.0498C77.4598 52 77.7998 51.66 77.7998 51.25V36.31C77.7998 36.11 77.7198 35.92 77.5798 35.78L70.0198 28.22C69.8793 28.0793 69.6886 28.0002 69.4898 28Z" fill="black" fill-opacity="0.1"/>
<path d="M69.7998 23.9199H59.7998V47.9199H77.7998V31.9199L69.7998 23.9199Z" fill="white"/>
<path fill-rule="evenodd" clip-rule="evenodd" d="M59.17 23.92C59.17 23.58 59.45 23.3 59.8 23.3H69.8C69.97 23.3 70.12 23.36 70.24 23.48L78.24 31.48C78.36 31.6 78.42 31.76 78.42 31.92V47.92C78.42 48.27 78.14 48.55 77.8 48.55H59.8C59.7169 48.5514 59.6344 48.536 59.5573 48.5048C59.4803 48.4737 59.4103 48.4273 59.3515 48.3685C59.2927 48.3098 59.2464 48.2398 59.2152 48.1627C59.184 48.0857 59.1687 48.0032 59.17 47.92V23.92ZM60.42 24.55V47.3H77.17V32.18L69.54 24.55H60.42Z" fill="#949AAB"/>
<mask id="mask1_2220_2926" style="mask-type:luminance" maskUnits="userSpaceOnUse" x="62" y="32" width="13" height="13">
<path d="M62.7998 32.9199H74.7998V44.9199H62.7998V32.9199Z" fill="white"/>
</mask>
<g mask="url(#mask1_2220_2926)">
<g opacity="0.5">
<path d="M63.9995 38.5699L63.6395 38.9199L63.9895 39.2799L64.1195 39.4099C64.2795 39.5599 64.3595 39.7699 64.3595 39.9799V41.9199C64.3595 42.2999 64.6595 42.6099 65.0495 42.6099C65.0654 42.6099 65.0807 42.6162 65.0919 42.6274C65.1032 42.6387 65.1095 42.6539 65.1095 42.6699C65.1095 42.6858 65.1032 42.701 65.0919 42.7123C65.0807 42.7235 65.0654 42.7299 65.0495 42.7299C64.8364 42.7299 64.6319 42.6459 64.4802 42.4962C64.3286 42.3464 64.2421 42.143 64.2395 41.9299V39.9799C64.238 39.7999 64.1662 39.6277 64.0395 39.4999L63.4995 38.9699C63.4912 38.9644 63.4845 38.957 63.4798 38.9482C63.4751 38.9395 63.4727 38.9298 63.4727 38.9199C63.4727 38.91 63.4751 38.9002 63.4798 38.8915C63.4845 38.8828 63.4912 38.8753 63.4995 38.8699L64.0395 38.3499C64.1595 38.2199 64.2395 38.0499 64.2395 37.8599V35.9199C64.2395 35.4699 64.5995 35.1099 65.0395 35.1099C65.0554 35.1099 65.0707 35.1162 65.0819 35.1274C65.0932 35.1387 65.0995 35.1539 65.0995 35.1699C65.0995 35.1858 65.0932 35.201 65.0819 35.2123C65.0707 35.2235 65.0554 35.2299 65.0395 35.2299C64.6695 35.2299 64.3595 35.5399 64.3595 35.9299V37.8599C64.3595 38.0799 64.2795 38.2799 64.1195 38.4399L63.9895 38.5699H63.9995ZM66.8595 41.1699C66.8595 41.1399 66.8895 41.1099 66.9195 41.1099H68.7995C68.8154 41.1099 68.8307 41.1162 68.8419 41.1274C68.8532 41.1387 68.8595 41.1539 68.8595 41.1699C68.8595 41.1858 68.8532 41.201 68.8419 41.2123C68.8307 41.2235 68.8154 41.2299 68.7995 41.2299H66.9195C66.9036 41.2299 66.8883 41.2235 66.8771 41.2123C66.8658 41.201 66.8595 41.1858 66.8595 41.1699ZM66.8595 38.9199C66.8595 38.8899 66.8895 38.8599 66.9195 38.8599H71.0495C71.0654 38.8599 71.0807 38.8662 71.0919 38.8774C71.1032 38.8887 71.1095 38.9039 71.1095 38.9199C71.1095 38.9358 71.1032 38.951 71.0919 38.9623C71.0807 38.9735 71.0654 38.9799 71.0495 38.9799H66.9195C66.9036 38.9799 66.8883 38.9735 66.8771 38.9623C66.8658 38.951 66.8595 38.9358 66.8595 38.9199ZM66.8595 36.6699C66.8595 36.6399 66.8895 36.6099 66.9195 36.6099H69.9195C69.9354 36.6099 69.9507 36.6162 69.9619 36.6274C69.9732 36.6387 69.9795 36.6539 69.9795 36.6699C69.9795 36.6858 69.9732 36.701 69.9619 36.7123C69.9507 36.7235 69.9354 36.7299 69.9195 36.7299H66.9195C66.9036 36.7299 66.8883 36.7235 66.8771 36.7123C66.8658 36.701 66.8595 36.6858 66.8595 36.6699ZM74.0995 38.9699L73.5595 39.4999C73.4295 39.6299 73.3595 39.7999 73.3595 39.9799V41.9199C73.3595 42.3699 72.9995 42.7299 72.5495 42.7299C72.5336 42.7299 72.5183 42.7235 72.5071 42.7123C72.4958 42.701 72.4895 42.6858 72.4895 42.6699C72.4895 42.6539 72.4958 42.6387 72.5071 42.6274C72.5183 42.6162 72.5336 42.6099 72.5495 42.6099C72.9295 42.6099 73.2395 42.3099 73.2395 41.9199V39.9799C73.2395 39.7699 73.3195 39.5599 73.4695 39.4099L73.6095 39.2799L73.9595 38.9199L73.6095 38.5699L73.4695 38.4399C73.3947 38.3632 73.3359 38.2725 73.2964 38.1729C73.2569 38.0733 73.2376 37.9669 73.2395 37.8599V35.9199C73.2395 35.5399 72.9295 35.2299 72.5395 35.2299C72.5236 35.2299 72.5083 35.2235 72.4971 35.2123C72.4858 35.201 72.4795 35.1858 72.4795 35.1699C72.4795 35.1539 72.4858 35.1387 72.4971 35.1274C72.5083 35.1162 72.5236 35.1099 72.5395 35.1099C72.9995 35.1099 73.3595 35.4699 73.3595 35.9199V37.8599C73.3595 38.0399 73.4295 38.2199 73.5595 38.3499L74.0895 38.8799C74.0959 38.8855 74.101 38.8924 74.1045 38.9002C74.108 38.9079 74.1098 38.9163 74.1098 38.9249C74.1098 38.9334 74.108 38.9418 74.1045 38.9496C74.101 38.9573 74.0959 38.9642 74.0895 38.9699H74.0995Z" fill="#949AAB" stroke="#949AAB"/>
</g>
</g>
<path d="M77.2998 31.9199V38.9199L69.7998 31.9199H77.2998Z" fill="black" fill-opacity="0.1"/>
<path d="M69.7998 31.9199V23.9199L77.7998 31.9199H69.7998Z" fill="white"/>
<path fill-rule="evenodd" clip-rule="evenodd" d="M69.56 23.34C69.79 23.24 70.06 23.3 70.24 23.48L78.24 31.48C78.3309 31.5661 78.3936 31.6777 78.4199 31.8002C78.4461 31.9226 78.4347 32.0501 78.3871 32.1659C78.3394 32.2818 78.2579 32.3804 78.1531 32.449C78.0483 32.5175 77.9252 32.5528 77.8 32.55H69.8C69.7169 32.5514 69.6344 32.536 69.5573 32.5048C69.4803 32.4736 69.4103 32.4273 69.3515 32.3685C69.2927 32.3097 69.2464 32.2397 69.2152 32.1627C69.184 32.0856 69.1686 32.0031 69.17 31.92V23.92C69.17 23.67 69.33 23.44 69.56 23.34ZM70.42 25.44V31.3H76.29L70.42 25.43V25.44ZM52.38 23V21H53.62V23H52.38ZM52 24.63H50V23.38H52V24.63ZM52.38 27V25H53.62V27H52.38ZM56 24.63H54V23.38H56V24.63Z" fill="#949AAB"/>
<g opacity="0.5">
<path fill-rule="evenodd" clip-rule="evenodd" d="M30.38 71V69H31.63V71H30.38ZM30 72.63H28V71.38H30V72.63ZM30.38 75V73H31.63V75H30.38ZM34 72.63H32V71.38H34V72.63Z" fill="#949AAB"/>
</g>
</g>
</g>
<defs>
<clipPath id="clip0_2220_2926">
<rect width="96" height="96" fill="white"/>
</clipPath>
</defs>
</svg>
