<svg xmlns="http://www.w3.org/2000/svg" width="96" height="96" fill="none"><g clip-path="url(#a)"><circle cx="48" cy="48" r="48" fill="#4C5773" fill-opacity=".05"/><path fill="#fff" d="M24 35a4 4 0 0 1 4-4h40a4 4 0 0 1 4 4v26a4 4 0 0 1-4 4H28a4 4 0 0 1-4-4V35Z"/><path fill="#949AAB" fill-rule="evenodd" d="M23.38 35A4.63 4.63 0 0 1 28 30.37h40A4.63 4.63 0 0 1 72.63 35v26A4.63 4.63 0 0 1 68 65.63H28A4.63 4.63 0 0 1 23.38 61V35ZM28 31.62A3.38 3.38 0 0 0 24.63 35v26A3.38 3.38 0 0 0 28 64.38h40A3.37 3.37 0 0 0 71.38 61V35A3.37 3.37 0 0 0 68 31.62H28Z" clip-rule="evenodd"/><path fill="#fff" d="M29.5 38c0-.83.67-1.5 1.5-1.5h34c.83 0 1.5.67 1.5 1.5v17c0 .83-.67 1.5-1.5 1.5H31a1.5 1.5 0 0 1-1.5-1.5V38Z"/><path fill="#949AAB" fill-rule="evenodd" d="M28.88 38c0-1.17.95-2.13 2.12-2.13h34c1.17 0 2.13.96 2.13 2.13v17c0 1.17-.96 2.13-2.13 2.13H31A2.13 2.13 0 0 1 28.88 55V38Zm2.12-.88c-.48 0-.87.4-.87.88v17c0 .48.39.88.87.88h34c.48 0 .88-.4.88-.88V38c0-.48-.4-.88-.88-.88H31ZM61.07 61.18a.46.46 0 1 0 0-.93.46.46 0 0 0 0 .93Zm0 1.25a1.71 1.71 0 1 0 0-3.43 1.71 1.71 0 0 0 0 3.43ZM65.57 61.18a.46.46 0 1 0 0-.93.46.46 0 0 0 0 .93Zm0 1.25a1.71 1.71 0 1 0 0-3.43 1.71 1.71 0 0 0 0 3.43Z" clip-rule="evenodd"/><circle cx="41" cy="43.5" r="1.5" fill="#949AAB"/><circle cx="55" cy="43.5" r="1.5" fill="#949AAB"/><path fill="#949AAB" fill-rule="evenodd" d="M46.83 48.73c.27.24.67.4 1.17.4.5 0 .9-.16 1.17-.4.26-.25.45-.63.45-1.23h1.26c0 .9-.31 1.63-.86 2.14-.55.5-1.27.73-2.02.73s-1.47-.22-2.02-.73a2.83 2.83 0 0 1-.85-2.14h1.24c0 .6.2.98.46 1.23Z" clip-rule="evenodd"/><path fill="#000" fill-opacity=".1" d="M69.49 28h-8.94a.75.75 0 0 0-.75.75v22.5c0 .41.34.75.75.75h16.5c.41 0 .75-.34.75-.75V36.31c0-.2-.08-.39-.22-.53l-7.56-7.56a.75.75 0 0 0-.53-.22Z"/><path fill="#fff" d="M69.8 23.92h-10v24h18v-16l-8-8Z"/><path fill="#949AAB" fill-rule="evenodd" d="M59.17 23.92c0-.34.28-.62.63-.62h10c.17 0 .32.06.44.18l8 8c.12.12.18.28.18.44v16c0 .35-.28.63-.62.63h-18a.62.62 0 0 1-.63-.63v-24Zm1.25.63V47.3h16.75V32.18l-7.63-7.63h-9.12Z" clip-rule="evenodd"/><g fill="#949AAB" stroke="#949AAB" clip-path="url(#b)" opacity=".5"><path d="m64 38.57-.36.35.35.36.13.13c.16.15.24.36.24.57v1.94c0 .38.3.69.69.69a.06.06 0 0 1 0 .12.81.81 0 0 1-.81-.8v-1.95a.69.69 0 0 0-.2-.48l-.54-.53a.06.06 0 0 1 0-.1l.54-.52c.12-.13.2-.3.2-.49v-1.94c0-.45.36-.81.8-.81a.06.06 0 0 1 0 .12c-.37 0-.68.31-.68.7v1.93c0 .22-.08.42-.24.58l-.13.13ZM66.86 41.17c0-.03.03-.06.06-.06h1.88a.06.06 0 0 1 0 .12h-1.88a.06.06 0 0 1-.06-.06ZM66.86 38.92c0-.03.03-.06.06-.06h4.13a.06.06 0 0 1 0 .12h-4.13a.06.06 0 0 1-.06-.06ZM66.86 36.67c0-.03.03-.06.06-.06h3a.06.06 0 0 1 0 .12h-3a.06.06 0 0 1-.06-.06ZM74.1 38.97l-.54.53c-.13.13-.2.3-.2.48v1.94c0 .45-.36.81-.81.81a.06.06 0 0 1 0-.12c.38 0 .69-.3.69-.69v-1.94c0-.21.08-.42.23-.57l.14-.13.35-.36-.35-.35-.14-.13a.81.81 0 0 1-.23-.58v-1.94c0-.38-.31-.69-.7-.69a.06.06 0 0 1 0-.12c.46 0 .82.36.82.81v1.94c0 .18.07.36.2.49l.53.53a.06.06 0 0 1 0 .09Z"/></g><path fill="#000" fill-opacity=".1" d="M77.3 31.92v7l-7.5-7h7.5Z"/><path fill="#fff" d="M69.8 31.92v-8l8 8h-8Z"/><path fill="#949AAB" fill-rule="evenodd" d="M69.56 23.34c.23-.1.5-.04.68.14l8 8a.62.62 0 0 1-.44 1.07h-8a.62.62 0 0 1-.63-.63v-8c0-.25.16-.48.39-.58Zm.86 2.1v5.86h5.87l-5.87-5.87ZM52.38 23v-2h1.24v2h-1.24ZM52 24.63h-2v-1.25h2v1.25ZM52.38 27v-2h1.24v2h-1.24ZM56 24.63h-2v-1.25h2v1.25Z" clip-rule="evenodd"/><g fill="#949AAB" fill-rule="evenodd" clip-rule="evenodd" opacity=".5"><path d="M30.38 71v-2h1.25v2h-1.25ZM30 72.63h-2v-1.25h2v1.25ZM30.38 75v-2h1.25v2h-1.25ZM34 72.63h-2v-1.25h2v1.25Z"/></g></g><defs><clipPath id="a"><path fill="#fff" d="M0 0h96v96H0z"/></clipPath><clipPath id="b"><path fill="#fff" d="M0 0h12v12H0z" transform="translate(62.8 32.92)"/></clipPath></defs></svg>