<svg width="96" height="96" fill="none" xmlns="http://www.w3.org/2000/svg">
  <g clip-path="url(#a)">
    <circle cx="48" cy="48" r="48" fill="#4C5773" fill-opacity=".05"/>
    <path d="M24 61V50l12 6 12-15 12 7 12 1v12a4 4 0 0 1-4 4H28a4 4 0 0 1-4-4Z" fill="#fff"/>
    <path fill-rule="evenodd" clip-rule="evenodd" d="M47.51 40.61c.2-.24.54-.3.8-.15l11.88 6.93 11.86.99-.1 1.24-12-1a.63.63 0 0 1-.27-.08l-11.53-6.73L36.5 56.4c-.19.23-.5.3-.77.17l-12-6 .56-1.12 11.55 5.78L47.5 40.6Z" fill="#949AAB"/>
    <path fill-rule="evenodd" clip-rule="evenodd" d="M23.38 35A4.63 4.63 0 0 1 28 30.37h40A4.63 4.63 0 0 1 72.63 35v26A4.63 4.63 0 0 1 68 65.63H28A4.63 4.63 0 0 1 23.37 61V35ZM28 31.62A3.37 3.37 0 0 0 24.62 35v26A3.37 3.37 0 0 0 28 64.38h40A3.37 3.37 0 0 0 71.38 61V35A3.37 3.37 0 0 0 68 31.62H28Z" fill="#949AAB"/>
    <path d="M50 65a2 2 0 1 1-4 0 2 2 0 0 1 4 0Z" fill="#949AAB"/>
    <path fill-rule="evenodd" clip-rule="evenodd" d="M51.25 65a3.25 3.25 0 1 1-6.5 0 3.25 3.25 0 0 1 6.5 0ZM48 67a2 2 0 1 0 0-4 2 2 0 0 0 0 4Z" fill="#fff"/>
    <path d="M62 65a2 2 0 1 1-4 0 2 2 0 0 1 4 0Z" fill="#949AAB"/>
    <path fill-rule="evenodd" clip-rule="evenodd" d="M63.25 65a3.25 3.25 0 1 1-6.5 0 3.25 3.25 0 0 1 6.5 0ZM60 67a2 2 0 1 0 0-4 2 2 0 0 0 0 4Z" fill="#fff"/>
    <path d="M38 65a2 2 0 1 1-4 0 2 2 0 0 1 4 0Z" fill="#949AAB"/>
    <path fill-rule="evenodd" clip-rule="evenodd" d="M39.25 65a3.25 3.25 0 1 1-6.5 0 3.25 3.25 0 0 1 6.5 0ZM36 67a2 2 0 1 0 0-4 2 2 0 0 0 0 4Z" fill="#fff"/>
  </g>
  <defs>
    <clipPath id="a">
      <path fill="#fff" d="M0 0h96v96H0z"/>
    </clipPath>
  </defs>
</svg>
