<?xml version="1.0" encoding="UTF-8" standalone="no"?>
<svg width="105px" height="88px" viewBox="0 0 105 88" version="1.1" xmlns="http://www.w3.org/2000/svg" xmlns:xlink="http://www.w3.org/1999/xlink" xmlns:sketch="http://www.bohemiancoding.com/sketch/ns">
    <!-- Generator: Sketch 3.3.3 (12072) - http://www.bohemiancoding.com/sketch -->
    <title>Artboard 2</title>
    <desc>Created with Sketch.</desc>
    <defs>
        <rect id="path-1" x="18" y="9" width="45" height="58"></rect>
        <rect id="path-2" x="36" y="18" width="45" height="57.7"></rect>
        <rect id="path-3" x="56" y="27" width="45" height="57.7"></rect>
    </defs>
    <g id="Page-1" stroke="none" stroke-width="1" fill="none" fill-rule="evenodd" sketch:type="MSPage">
        <g id="Artboard-2" sketch:type="MSArtboardGroup">
            <g id="Group" sketch:type="MSLayerGroup">
                <rect id="Rectangle-252" stroke="#509EE3" stroke-width="3" fill="#88C2F5" sketch:type="MSShapeGroup" x="0" y="0" width="45" height="58"></rect>
                <g id="Group-Copy-3" transform="translate(8.000000, 9.000000)" fill="#57A3E5" sketch:type="MSShapeGroup">
                    <rect id="Rectangle-696" x="0" y="0" width="8" height="10"></rect>
                    <rect id="Rectangle-696-Copy" x="12" y="0" width="8" height="10"></rect>
                    <rect id="Rectangle-696-Copy-6" x="0" y="30" width="8" height="10"></rect>
                    <rect id="Rectangle-696-Copy-4" x="12" y="30" width="8" height="10"></rect>
                    <rect id="Rectangle-696-Copy-2" x="24" y="0" width="8" height="10"></rect>
                    <rect id="Rectangle-696-Copy-5" x="0" y="15" width="20" height="10"></rect>
                    <rect id="Rectangle-696-Copy-3" x="24" y="15" width="8" height="25"></rect>
                </g>
                <g id="Rectangle-252-Copy">
                    <use stroke="#509EE3" stroke-width="3" fill="#88C2F5" fill-rule="evenodd" sketch:type="MSShapeGroup" xlink:href="#path-1"></use>
                    <use stroke="#6FB0EB" stroke-width="4" fill="none" xlink:href="#path-1"></use>
                </g>
                <g id="Group-Copy-2" transform="translate(26.000000, 18.000000)" fill="#57A3E5" sketch:type="MSShapeGroup">
                    <rect id="Rectangle-696" x="0" y="0" width="8" height="10"></rect>
                    <rect id="Rectangle-696-Copy" x="12" y="0" width="8" height="10"></rect>
                    <rect id="Rectangle-696-Copy-6" x="0" y="30" width="8" height="10"></rect>
                    <rect id="Rectangle-696-Copy-4" x="12" y="30" width="8" height="10"></rect>
                    <rect id="Rectangle-696-Copy-2" x="24" y="0" width="8" height="10"></rect>
                    <rect id="Rectangle-696-Copy-5" x="0" y="15" width="20" height="10"></rect>
                    <rect id="Rectangle-696-Copy-3" x="24" y="15" width="8" height="25"></rect>
                </g>
                <g id="Rectangle-252-Copy-2">
                    <use stroke="#509EE3" stroke-width="3" fill="#88C2F5" fill-rule="evenodd" sketch:type="MSShapeGroup" xlink:href="#path-2"></use>
                    <use stroke="#6FB0EB" stroke-width="4" fill="none" xlink:href="#path-2"></use>
                </g>
                <g id="Group-Copy" transform="translate(44.000000, 27.000000)" fill="#57A3E5" sketch:type="MSShapeGroup">
                    <rect id="Rectangle-696" x="0" y="0" width="8" height="10"></rect>
                    <rect id="Rectangle-696-Copy" x="12" y="0" width="8" height="10"></rect>
                    <rect id="Rectangle-696-Copy-6" x="0" y="30" width="8" height="10"></rect>
                    <rect id="Rectangle-696-Copy-4" x="12" y="30" width="8" height="10"></rect>
                    <rect id="Rectangle-696-Copy-2" x="24" y="0" width="8" height="10"></rect>
                    <rect id="Rectangle-696-Copy-5" x="0" y="15" width="20" height="10"></rect>
                    <rect id="Rectangle-696-Copy-3" x="24" y="15" width="8" height="25"></rect>
                </g>
                <g id="Rectangle-252-Copy-3">
                    <use stroke="#509EE3" stroke-width="3" fill="#88C2F5" fill-rule="evenodd" sketch:type="MSShapeGroup" xlink:href="#path-3"></use>
                    <use stroke="#6FB0EB" stroke-width="4" fill="none" xlink:href="#path-3"></use>
                </g>
                <g transform="translate(63.000000, 36.000000)" fill="#57A3E5" sketch:type="MSShapeGroup">
                    <rect id="Rectangle-696" x="0" y="0" width="8" height="10"></rect>
                    <rect id="Rectangle-696-Copy" x="12" y="0" width="8" height="10"></rect>
                    <rect id="Rectangle-696-Copy-6" x="0" y="30" width="8" height="10"></rect>
                    <rect id="Rectangle-696-Copy-4" x="12" y="30" width="8" height="10"></rect>
                    <rect id="Rectangle-696-Copy-2" x="24" y="0" width="8" height="10"></rect>
                    <rect id="Rectangle-696-Copy-5" x="0" y="15" width="20" height="10"></rect>
                    <rect id="Rectangle-696-Copy-3" x="24" y="15" width="8" height="25"></rect>
                </g>
            </g>
        </g>
    </g>
</svg>