<svg viewBox="0 0 16 16" fill="currentcolor" xmlns="http://www.w3.org/2000/svg" xmlns:xlink="http://www.w3.org/1999/xlink">
  <path d="M1.413 6.036c.204 0 .402-.017.595-.051.193-.034.365-.09.518-.17.16-.08.292-.181.4-.306a.918.918 0 0 0 .221-.459h.79V11H2.875V6.801H1.413v-.765zM6.944 4.931c.425 0 .77.1 1.037.298.272.192.481.442.629.748.153.3.255.631.306.994.056.363.085.714.085 1.054 0 .34-.029.691-.085 1.054a3.233 3.233 0 0 1-.306 1.003c-.148.3-.357.55-.63.748-.266.193-.611.289-1.036.289-.425 0-.774-.096-1.046-.289a2.117 2.117 0 0 1-.629-.748 3.567 3.567 0 0 1-.306-1.003 7.569 7.569 0 0 1-.076-1.054c0-.34.025-.691.076-1.054.057-.363.159-.694.306-.994.153-.306.363-.556.63-.748.271-.199.62-.298 1.045-.298zm0 5.38c.21 0 .385-.059.527-.178.141-.125.252-.289.331-.493.085-.21.145-.453.179-.731.034-.278.05-.572.05-.884 0-.312-.016-.603-.05-.875a2.878 2.878 0 0 0-.179-.731c-.08-.21-.19-.374-.331-.493a.769.769 0 0 0-.527-.187.78.78 0 0 0-.536.187 1.28 1.28 0 0 0-.331.493c-.08.21-.136.453-.17.73a7.072 7.072 0 0 0-.051.876c0 .312.017.606.05.884.035.278.091.521.17.731.086.204.196.368.332.493.142.119.32.179.536.179zM9.865 4.931h1.062v2.763L13.63 4.93h1.31l-2.423 2.423L15.109 11h-1.326l-1.989-2.898-.867.858V11H9.865V4.931z" />
</svg>
