<svg viewBox="0 0 16 16" fill="currentcolor" xmlns="http://www.w3.org/2000/svg" xmlns:xlink="http://www.w3.org/1999/xlink">
  <path d="M7.076 2.117A1 1 0 0 0 7 2.5h2a1 1 0 0 0-1.924-.383z" /><path fill-rule="evenodd" clip-rule="evenodd" d="M2.75 7.5v2.75H2a.75.75 0 0 0 0 1.5h12a.75.75 0 0 0 0-1.5h-.75V7.5A4.75 4.75 0 0 0 8.5 2.75h-1A4.75 4.75 0 0 0 2.75 7.5zM7.5 4.25A3.25 3.25 0 0 0 4.25 7.5v2.75h7.5V7.5A3.25 3.25 0 0 0 8.5 4.25h-1z" /><path d="M9.945 14.116a2.75 2.75 0 0 1-3.89 0l-.085-.086a.75.75 0 0 1 .53-1.28h3a.75.75 0 0 1 .53 1.28l-.085.086z" />
</svg>
