<svg width="16" height="16" viewBox="0 0 16 16" fill="none" xmlns="http://www.w3.org/2000/svg">
<path fill-rule="evenodd" clip-rule="evenodd" d="M11.5297 1.45503C11.803 1.18166 12.2462 1.18166 12.5196 1.45503L14.5345 3.46995C14.6018 3.53723 14.6525 3.6148 14.6867 3.6976C14.72 3.77809 14.7387 3.86614 14.7395 3.95846L14.7396 3.96493L14.7395 3.97139C14.7379 4.14837 14.6696 4.32486 14.5345 4.4599L12.5196 6.47483C12.2462 6.74819 11.803 6.74819 11.5297 6.47483C11.2563 6.20146 11.2563 5.75824 11.5297 5.48488L12.3496 4.66493H9.81213H9.81209C9.29787 4.6649 8.79033 4.79244 8.33235 5.03786C7.87432 5.28331 7.47858 5.63989 7.18006 6.07898L7.17993 6.07918L6.78044 6.66734L6.7803 6.66754C6.41677 7.20234 5.94925 7.65444 5.40715 7.99542C5.94774 8.33584 6.41408 8.7868 6.77697 9.32012L7.17963 9.91155L7.17974 9.9117C7.47828 10.3505 7.87393 10.7067 8.33177 10.952C8.78949 11.1971 9.29668 11.3246 9.81056 11.3246H9.81061H12.3496L11.5297 10.5047C11.2563 10.2313 11.2563 9.78809 11.5297 9.51473C11.803 9.24136 12.2462 9.24136 12.5196 9.51473L14.5345 11.5297C14.6016 11.5968 14.6523 11.6741 14.6864 11.7567C14.7199 11.8373 14.7387 11.9256 14.7395 12.0182C14.7395 12.0203 14.7396 12.0225 14.7396 12.0246C14.7396 12.0268 14.7395 12.0289 14.7395 12.0311C14.7379 12.2081 14.6696 12.3846 14.5345 12.5196L12.5196 14.5345C12.2462 14.8079 11.803 14.8079 11.5297 14.5345C11.2563 14.2612 11.2563 13.8179 11.5297 13.5446L12.3496 12.7246H9.81056H9.8105C9.06452 12.7246 8.33045 12.5394 7.67074 12.1861C7.0112 11.8328 6.44623 11.3223 6.02238 10.6994L6.02228 10.6993L5.61962 10.1079L5.61952 10.1077C5.32097 9.66895 4.92532 9.31267 4.46748 9.06743C4.00976 8.82227 3.50257 8.69482 2.98869 8.69478H2.98864H1.95C1.5634 8.69478 1.25 8.38138 1.25 7.99478C1.25 7.60818 1.5634 7.29478 1.95 7.29478H2.98869H2.98875H2.99093H2.99104C3.50512 7.29467 4.01249 7.16708 4.47032 6.92168C4.92823 6.67625 5.32387 6.31972 5.62232 5.88072L5.62238 5.88064L5.62246 5.88052L6.02195 5.29236L6.02209 5.29216C6.44593 4.66863 7.01113 4.15752 7.67109 3.80387C8.33114 3.45017 9.06568 3.2649 9.81213 3.26493H9.81216H12.3496L11.5297 2.44497C11.2563 2.17161 11.2563 1.72839 11.5297 1.45503Z" fill="#0A1C2B"/>
</svg>
