<svg viewBox="0 0 16 16" fill="currentcolor" xmlns="http://www.w3.org/2000/svg"><path d="M12.52 1.455a.7.7 0 0 0-.99.99l.82.82H9.812a4.53 4.53 0 0 0-2.14.539 4.655 4.655 0 0 0-1.65 1.488l-.4.589A3.254 3.254 0 0 1 4.47 6.92a3.131 3.131 0 0 1-1.48.374H1.95a.7.7 0 1 0 0 1.4h1.041a4.53 4.53 0 0 0 2.14-.54 4.656 4.656 0 0 0 1.65-1.488l.4-.588c.298-.44.693-.796 1.151-1.041a3.13 3.13 0 0 1 1.48-.373h2.538l-.82.82a.7.7 0 0 0 .99.99l2.015-2.015a.7.7 0 0 0 0-.99L12.52 1.455z" /><path d="M1.95 7.295a.7.7 0 1 0 0 1.4h1.039a3.13 3.13 0 0 1 1.478.372c.458.246.854.602 1.153 1.04l.402.592a4.654 4.654 0 0 0 1.649 1.487 4.53 4.53 0 0 0 2.14.539h2.539l-.82.82a.7.7 0 0 0 .99.99l2.015-2.015a.7.7 0 0 0 0-.99L12.52 9.515a.7.7 0 0 0-.99.99l.82.82H9.81a3.13 3.13 0 0 1-1.478-.373 3.256 3.256 0 0 1-1.152-1.04l-.403-.592a4.654 4.654 0 0 0-1.648-1.487 4.53 4.53 0 0 0-2.14-.538H1.95z" /></svg>