<svg viewBox="0 0 16 16" fill="none" xmlns="http://www.w3.org/2000/svg"><path clip-rule="evenodd" d="M11.53 1.455a.7.7 0 0 1 .99 0l2.014 2.015a.698.698 0 0 1 .205.488V3.971a.697.697 0 0 1-.205.489L12.52 6.475a.7.7 0 1 1-.99-.99l.82-.82H9.812a3.13 3.13 0 0 0-1.48.373A3.255 3.255 0 0 0 7.18 6.079l-.4.588a4.666 4.666 0 0 1-1.373 1.328c.54.34 1.007.792 1.37 1.325l.403.592c.298.438.694.795 1.152 1.04a3.13 3.13 0 0 0 1.479.373h2.539l-.82-.82a.7.7 0 1 1 .99-.99l2.014 2.015a.696.696 0 0 1 .205.488V12.031a.697.697 0 0 1-.205.489l-2.014 2.014a.7.7 0 1 1-.99-.99l.82-.82H9.81a4.53 4.53 0 0 1-2.14-.538A4.654 4.654 0 0 1 6.023 10.7l-.402-.591a3.255 3.255 0 0 0-1.153-1.04 3.13 3.13 0 0 0-1.478-.373H1.95a.7.7 0 1 1 0-1.4h1.041a3.13 3.13 0 0 0 1.48-.373A3.254 3.254 0 0 0 5.621 5.88l.4-.589a4.654 4.654 0 0 1 1.65-1.488 4.53 4.53 0 0 1 2.14-.54h2.538l-.82-.819a.7.7 0 0 1 0-.99z"/></svg>