<svg fill="currentcolor" viewBox="0 0 14 15" xmlns="http://www.w3.org/2000/svg" xmlns:xlink="http://www.w3.org/1999/xlink" style="fill: none; stroke-width:1.4; stroke-linecap: round; stroke-linejoin: round; stroke: currentcolor">
  <path d="M13 11.5H8.80233C8.17706 11.5 7.56102 11.3448 7.00644 11.0478C6.45185 10.7507 5.97509 10.3205 5.61656 9.7936L5.21678 9.2064C4.85825 8.67949 4.38148 8.24928 3.8269 7.95223C3.27232 7.65517 2.65627 7.50005 2.031 7.5H1, M13 3.5H8.80389C8.17822 3.49997 7.56177 3.65522 7.00689 3.95257C6.45201 4.24991 5.97507 4.68058 5.61656 5.208L5.21989 5.792C4.86145 6.31931 4.38464 6.74991 3.8299 7.04725C3.27516 7.34459 2.65887 7.4999 2.03333 7.5H1, M11 5.5L13 3.5L11 1.5, M11 13.5L13 11.5L11 9.5" />
</svg>
