<svg viewBox="0 0 32 32" fill="currentcolor" fill-rule="nonzero" xmlns="http://www.w3.org/2000/svg" xmlns:xlink="http://www.w3.org/1999/xlink">
  <path d="M22.162 8.704c.029 8.782-.038 14.123-.194 15.926-.184 2.114-2.922 4.322-5.9 4.322-3.06 0-5.542-1.98-5.836-4.376-.294-2.392-.195-14.266.01-18.699.077-1.661 1.422-2.83 3.548-2.83 2.067 0 3.488 1.335 3.594 3.164.06 1.052.074 3.49.053 7.107-.006.928-.013 1.891-.023 3.072l-.023 2.527c-.006.824-.01 1.358-.01 1.718 0 1.547-.39 2.011-1.475 2.011-.804 0-1.202-.522-1.202-1.38V8.699a1.524 1.524 0 0 0-3.048 0v12.567c0 2.389 1.554 4.428 4.25 4.428 2.897 0 4.523-1.934 4.523-5.06 0-.348.003-.875.01-1.691l.022-2.526c.01-1.184.018-2.15.024-3.082.021-3.697.008-6.155-.058-7.3C20.227 2.592 17.469 0 13.79 0c-3.695 0-6.438 2.382-6.593 5.737-.213 4.613-.312 16.585.01 19.21C7.697 28.94 11.53 32 16.067 32c4.482 0 8.61-3.327 8.937-7.106.168-1.935.235-7.302.206-16.2a1.524 1.524 0 0 0-3.048.01z" />
</svg>