<svg viewBox="0 0 16 16" fill="currentcolor" xmlns="http://www.w3.org/2000/svg" xmlns:xlink="http://www.w3.org/1999/xlink">
  <path d="M4.783 2.375a.25.25 0 0 1 .433 0l.433.75a.25.25 0 0 1-.216.375h-.866a.25.25 0 0 1-.217-.375l.433-.75zM5.5 11a.5.5 0 1 0 0-1 .5.5 0 0 0 0 1zM8.5 10.5a.5.5 0 1 1-1 0 .5.5 0 0 1 1 0zM10.5 11a.5.5 0 1 0 0-1 .5.5 0 0 0 0 1z" /><path fill-rule="evenodd" clip-rule="evenodd" d="M5.75 5a.75.75 0 0 0-1.5 0v2.25H4A1.75 1.75 0 0 0 2.25 9v3.5h-.5a.75.75 0 0 0 0 1.5h12.5a.75.75 0 0 0 0-1.5h-.5V9A1.75 1.75 0 0 0 12 7.25h-.25V5a.75.75 0 0 0-1.5 0v2.25h-1.5V5a.75.75 0 0 0-1.5 0v2.25h-1.5V5zM4 8.75a.25.25 0 0 0-.25.25v3.5h8.5V9a.25.25 0 0 0-.25-.25H4z" /><path d="M8.216 2.375a.25.25 0 0 0-.433 0l-.433.75a.25.25 0 0 0 .217.375h.866a.25.25 0 0 0 .216-.375l-.433-.75zM10.783 2.375a.25.25 0 0 1 .433 0l.433.75a.25.25 0 0 1-.216.375h-.866a.25.25 0 0 1-.217-.375l.433-.75z" />
</svg>
