<svg viewBox="0 0 16 16" fill="currentcolor" xmlns="http://www.w3.org/2000/svg" xmlns:xlink="http://www.w3.org/1999/xlink">
  <path d="M5.25 9.5V8h1.5v1.5h-1.5z" /><path fill-rule="evenodd" clip-rule="evenodd" d="M11.75 2.25H12c.966 0 1.75.784 1.75 1.75v8A1.75 1.75 0 0 1 12 13.75H4A1.75 1.75 0 0 1 2.25 12V4c0-.966.784-1.75 1.75-1.75h.25V1h1.5v1.25h4.5V1h1.5v1.25zM4 3.75a.25.25 0 0 0-.25.25v1.25h8.5V4a.25.25 0 0 0-.25-.25H4zM3.75 12V6.75h8.5V12a.25.25 0 0 1-.25.25H4a.25.25 0 0 1-.25-.25z" />
</svg>
