<svg viewBox="0 0 32 32" fill="currentcolor" xmlns="http://www.w3.org/2000/svg" xmlns:xlink="http://www.w3.org/1999/xlink">
  <path d="M8.54667751,5.50894675 L6.00494659,5.50894675 C4.89702623,5.50894675 4,6.40070914 4,7.50075379 L4,30.0171397 C4,31.1120596 4.89764516,32.0089468 6.00494659,32.0089468 L25.9950534,32.0089468 C27.1029738,32.0089468 28,31.1171844 28,30.0171397 L28,7.50075379 C28,6.40583387 27.1023548,5.50894675 25.9950534,5.50894675 L23.5373296,5.50894675 L23.5373296,3.0446713 L19.9106557,3.0446713 C19.9106557,3.0446713 19.6485834,8.05825522e-08 16.0837607,0 C12.518938,-8.05825523e-08 12.1644547,3.04776207 12.1644547,3.04776207 L8.57253264,3.04776207 L8.54667751,5.50894675 Z M23.5373296,7.50894675 L26,7.50894675 L26,30.0089468 L6,30.0089468 L6,7.50894675 L8.52566721,7.50894675 L8.4996301,9.98745456 L23.5373296,9.98745456 L23.5373296,7.50894675 Z M10.573037,5.01478303 L13.9861608,5.01478303 L13.9861608,3.76128231 C13.9861608,3.76128231 14.0254332,1.94834752 16.0135743,1.94834752 C18.0017155,1.94834752 18.0017156,3.7055821 18.0017156,3.7055821 L18.0017156,4.94060459 L21.4955568,4.94060459 L21.4955568,8.03924122 L10.5173901,8.03924122 L10.573037,5.01478303 Z M16,5.00894675 C16.5522847,5.00894675 17,4.5612315 17,4.00894675 C17,3.456662 16.5522847,3.00894675 16,3.00894675 C15.4477153,3.00894675 15,3.456662 15,4.00894675 C15,4.5612315 15.4477153,5.00894675 16,5.00894675 Z M8.5,18.0089468 L8.5,21.0082323 L11.5,21.0082323 L11.5,18.0446111 L8.5,18.0089468 Z M8.5,23.0089468 L8.5,26.0082323 L11.5,26.0082323 L11.5,23.0446111 L8.5,23.0089468 Z M8.5,13.0089468 L8.5,16.0082323 L11.5,16.0082323 L11.5,13.0446111 L8.5,13.0089468 Z M13.5,13.0193041 L13.5,16 L23.5,16 L23.5,13 L13.5,13.0193041 Z M13.5,23.0193041 L13.5,26 L23.5,26 L23.5,23 L13.5,23.0193041 Z M13.5,18.0193041 L13.5,21 L23.5,21 L23.5,18 L13.5,18.0193041 Z" />
</svg>
