<svg width="64" height="64" viewBox="0 0 64 64" fill="none" xmlns="http://www.w3.org/2000/svg">
<path d="M55.2982 11.5346C59.6669 17.2834 59.2271 25.519 53.979 30.7671L48.7933 35.9529C48.0122 36.734 46.7458 36.734 45.9647 35.9529L28.0502 18.0384C27.2691 17.2573 27.2691 15.9909 28.0502 15.2098L33.2359 10.024C38.4844 4.77553 46.7209 4.33614 52.4697 8.70585L60.5889 0.585892C61.37 -0.195243 62.6364 -0.195305 63.4175 0.585754C64.1987 1.36681 64.1987 2.63322 63.4177 3.41436L55.2982 11.5346ZM28.7309 27.3983C29.512 26.6172 29.5121 25.3508 28.731 24.5697C27.9499 23.7886 26.6835 23.7885 25.9024 24.5696L20.2318 30.24L18.0388 28.0469C17.2577 27.2658 15.9912 27.2658 15.2101 28.0469L10.0244 33.2327C4.77624 38.4809 4.33654 46.7166 8.70528 52.4653L0.585754 60.5856C-0.195305 61.3668 -0.195243 62.6332 0.585892 63.4142C1.36703 64.1953 2.63344 64.1952 3.41449 63.4141L11.5338 55.2941C17.2826 59.6637 25.519 59.2243 30.7675 53.9758L35.9532 48.79C36.7343 48.0089 36.7343 46.7425 35.9532 45.9614L33.7473 43.7555L39.4152 38.0879C40.1963 37.3068 40.1963 36.0404 39.4152 35.2593C38.6342 34.4782 37.3678 34.4782 36.5866 35.2593L30.9187 40.9269L23.0604 33.0686L28.7309 27.3983Z" fill="#F88011"/>
</svg>
