<svg viewBox="0 0 16 16" fill="currentcolor" xmlns="http://www.w3.org/2000/svg" xmlns:xlink="http://www.w3.org/1999/xlink">
  <path d="M5.5 10.5h4v1h-4v-1zM10.5 8.5h-5v1h5v-1z" /><path fill-rule="evenodd" clip-rule="evenodd" d="M4 1.25A1.75 1.75 0 0 0 2.25 3v10c0 .966.784 1.75 1.75 1.75h8A1.75 1.75 0 0 0 13.75 13V6.414c0-.464-.184-.909-.513-1.237L9.823 1.763a1.75 1.75 0 0 0-1.237-.513H4zM3.75 3A.25.25 0 0 1 4 2.75h4.5V6.5h3.75V13a.25.25 0 0 1-.25.25H4a.25.25 0 0 1-.25-.25V3zm7.69 2.5L9.5 3.56V5.5h1.94z" />
</svg>
