<svg fill="currentcolor" viewBox="0 0 32 32" xmlns="http://www.w3.org/2000/svg" xmlns:xlink="http://www.w3.org/1999/xlink">
  <path d="M5.76 5C3.935 5 2.718 6.5 2.337 7.25.056 7.25-.134 8.375.056 8.938c0 .187.342.675 1.711 1.124 1.711.563 2.282 0 3.423.563 0 1.125-1.712 7.875-1.712 11.813 0 3.15 2.662 5.437 3.993 6.187.38.75.913 2.25 0 2.25-.912 0-.76.75-.57 1.125h2.282c.456 0 .95-1.5 1.14-2.25.19-.375.571-.9.571 0s-.38 1.875-.57 2.25h2.852c.912 0 1.14-1.875 1.14-2.813.19-.187.571-.337.571.563 0 .9-.76 1.875-1.14 2.25h4.561c1.712 0 1.712-1.688 1.712-2.813C25.155 31.438 32 31.438 32 30.313c-3.194-.9-8.556-5.625-10.838-7.875-1.712-1.687-4.678-3.937-7.416-3.937-2.738 0-5.704 3-6.845 4.5v-1.688C7.28 18.125 8.04 11.3 8.04 9.5c1.37 0 1.142-1.125 1.142-2.25S7.585 5 5.76 5Z" />
</svg>