<svg viewBox="0 0 16 16" fill="currentcolor" xmlns="http://www.w3.org/2000/svg" xmlns:xlink="http://www.w3.org/1999/xlink">
  <path d="M8 9.75a1.75 1.75 0 1 0 0-3.5 1.75 1.75 0 0 0 0 3.5z" /><path fill-rule="evenodd" clip-rule="evenodd" d="M14.67 7.664a.751.751 0 0 1 0 .671L14 8c.67.335.67.337.67.337v.001l-.003.005-.006.012-.023.043a8.522 8.522 0 0 1-.39.643c-.27.406-.675.946-1.218 1.49C11.95 11.611 10.27 12.75 8 12.75c-2.27 0-3.949-1.138-5.03-2.22a9.865 9.865 0 0 1-1.527-1.986 5.789 5.789 0 0 1-.104-.189l-.006-.012-.002-.005-.002-.003a.75.75 0 0 1 0-.67L2 8c-.67-.335-.67-.337-.67-.337v-.001l.003-.005.006-.012a3.659 3.659 0 0 1 .104-.189A9.867 9.867 0 0 1 2.97 5.47C4.05 4.388 5.73 3.25 8 3.25c2.27 0 3.949 1.138 5.03 2.22a9.866 9.866 0 0 1 1.527 1.986 5.414 5.414 0 0 1 .104.189l.006.012.002.005.002.002zM3 8.209A7.693 7.693 0 0 1 2.864 8c.04-.063.084-.133.135-.209.23-.344.574-.804 1.031-1.26C4.95 5.611 6.27 4.75 8 4.75s3.051.862 3.97 1.78A8.369 8.369 0 0 1 13.135 8a8.368 8.368 0 0 1-1.166 1.47c-.918.918-2.238 1.78-3.969 1.78-1.73 0-3.051-.862-3.97-1.78A8.367 8.367 0 0 1 3 8.209zM14 8l.67-.336L14 8z" />
</svg>
