<svg viewBox="0 0 16 16" fill="currentcolor" xmlns="http://www.w3.org/2000/svg" xmlns:xlink="http://www.w3.org/1999/xlink">
  <path fill-rule="evenodd" clip-rule="evenodd" d="M1.647 1.646a.5.5 0 0 1 .707 0l12 12a.5.5 0 0 1-.707.708l-2.438-2.438A6.59 6.59 0 0 1 8 12.75c-2.269 0-3.948-1.138-5.03-2.22a9.865 9.865 0 0 1-1.527-1.986 5.75 5.75 0 0 1-.103-.189l-.007-.012-.002-.005-.002-.003a.752.752 0 0 1 0-.671L2 8l-.67-.336v-.001l.002-.003.003-.007.012-.022.04-.077c.036-.064.086-.153.153-.263.133-.22.33-.521.59-.862a9.215 9.215 0 0 1 1.801-1.791L1.647 2.354a.5.5 0 0 1 0-.708zm7.18 7.888l1.265 1.264A5.04 5.04 0 0 1 8 11.25c-1.73 0-3.051-.862-3.97-1.78A8.367 8.367 0 0 1 2.866 8c.108-.174.26-.403.456-.658a7.59 7.59 0 0 1 1.685-1.629l1.082 1.081a2 2 0 0 0 2.74 2.74z" /><path d="M7.25 4A.75.75 0 0 1 8 3.25c2.27 0 3.949 1.138 5.03 2.22a9.872 9.872 0 0 1 1.528 1.986 5.65 5.65 0 0 1 .103.189l.006.012.003.005v.001s.001.002-.67.337l.67.336v.002l-.002.003-.005.01-.016.03-.057.105a9.887 9.887 0 0 1-1.058 1.502.75.75 0 0 1-1.14-.976c.319-.371.557-.716.715-.965L13.136 8a8.369 8.369 0 0 0-1.166-1.47C11.052 5.612 9.73 4.75 8 4.75A.75.75 0 0 1 7.25 4z" /><path d="M14.67 8.336a.75.75 0 0 0 .001-.671l-.67.335.67.336z" />
</svg>
