<svg xmlns="http://www.w3.org/2000/svg" width="16" height="16" viewBox="0 0 25 24" fill="none">
  <path d="M24.5 12C24.5 18.6274 19.1274 24 12.5 24C5.87258 24 0.5 18.6274 0.5 12C0.5 5.37258 5.87258 0 12.5 0C19.1274 0 24.5 5.37258 24.5 12Z" fill="white"/>
  <path fill-rule="evenodd" clip-rule="evenodd" d="M16.9669 23.1411C21.3822 21.3692 24.5 17.0487 24.5 12C24.5 5.37258 19.1274 0 12.5 0C5.87258 0 0.5 5.37258 0.5 12C0.5 17.0542 3.62459 21.3785 8.04746 23.1468L8.50453 18.3476H8.01952C7.57579 18.3476 7.21608 17.9879 7.21608 17.5442C7.21608 17.1248 7.53737 16.7764 7.95582 16.7475C9.04873 16.6721 11.1265 16.5439 12.6205 16.5434L12.6289 16.5397L12.6899 16.5435C14.1798 16.5469 16.2218 16.673 17.3019 16.7475C17.7203 16.7764 18.0416 17.1248 18.0416 17.5442C18.0416 17.9879 17.6819 18.3476 17.2382 18.3476H16.7524C16.6835 18.9116 16.7839 20.7535 16.9669 23.1411ZM13.2981 23.9739C13.3627 23.7792 13.3837 23.4588 13.4127 22.9179C13.4825 21.7779 13.4127 21.5685 12.9939 21.3359C12.1796 20.8938 11.598 21.4057 11.598 22.6154C11.598 23.1449 11.6608 23.7371 11.7268 23.9755C11.9824 23.9917 12.2403 24 12.5 24C12.7682 24 13.0343 23.9912 13.2981 23.9739ZM15.8865 14.8389C17.1955 14.1773 18.0416 13.0019 18.0416 11.2088C18.0416 8.17432 15.6182 5.71435 12.6288 5.71435C9.63946 5.71435 7.21608 8.17432 7.21608 11.2088C7.21608 13.0118 8.07152 14.1902 9.39286 14.8498C9.6278 13.8201 9.88724 11.7499 10.0613 10.096L12.6388 9.065L15.2163 10.096C15.2163 10.096 15.6172 13.5034 15.8865 14.8389ZM13.9175 12.415C13.9175 13.1267 13.3405 13.7037 12.6288 13.7037C11.917 13.7037 11.34 13.1267 11.34 12.415C11.34 11.7032 11.917 11.1262 12.6288 11.1262C13.3405 11.1262 13.9175 11.7032 13.9175 12.415Z" fill="white"/>
  <path fill-rule="evenodd" clip-rule="evenodd" d="M16.9669 23.1411C21.3822 21.3692 24.5 17.0487 24.5 12C24.5 5.37258 19.1274 0 12.5 0C5.87258 0 0.5 5.37258 0.5 12C0.5 17.0542 3.62459 21.3785 8.04746 23.1468L8.50453 18.3476H8.01952C7.57579 18.3476 7.21608 17.9879 7.21608 17.5442C7.21608 17.1248 7.53737 16.7764 7.95582 16.7475C9.04873 16.6721 11.1265 16.5439 12.6205 16.5434L12.6289 16.5397L12.6899 16.5435C14.1798 16.5469 16.2218 16.673 17.3019 16.7475C17.7203 16.7764 18.0416 17.1248 18.0416 17.5442C18.0416 17.9879 17.6819 18.3476 17.2382 18.3476H16.7524C16.6835 18.9116 16.7839 20.7535 16.9669 23.1411ZM13.2981 23.9739C13.3627 23.7792 13.3837 23.4588 13.4127 22.9179C13.4825 21.7779 13.4127 21.5685 12.9939 21.3359C12.1796 20.8938 11.598 21.4057 11.598 22.6154C11.598 23.1449 11.6608 23.7371 11.7268 23.9755C11.9824 23.9917 12.2403 24 12.5 24C12.7682 24 13.0343 23.9912 13.2981 23.9739ZM15.8865 14.8389C17.1955 14.1773 18.0416 13.0019 18.0416 11.2088C18.0416 8.17432 15.6182 5.71435 12.6288 5.71435C9.63946 5.71435 7.21608 8.17432 7.21608 11.2088C7.21608 13.0118 8.07152 14.1902 9.39286 14.8498C9.6278 13.8201 9.88724 11.7499 10.0613 10.096L12.6388 9.065L15.2163 10.096C15.2163 10.096 15.6172 13.5034 15.8865 14.8389ZM13.9175 12.415C13.9175 13.1267 13.3405 13.7037 12.6288 13.7037C11.917 13.7037 11.34 13.1267 11.34 12.415C11.34 11.7032 11.917 11.1262 12.6288 11.1262C13.3405 11.1262 13.9175 11.7032 13.9175 12.415Z" fill="#E9560D"/>
</svg>