<svg viewBox="0 0 16 16" fill="currentcolor" xmlns="http://www.w3.org/2000/svg" xmlns:xlink="http://www.w3.org/1999/xlink">
  <path d="M8.5 2.75a.75.75 0 0 0-.712.513L5.47 10.22 4.205 6.744A.75.75 0 0 0 3.5 6.25H2a.75.75 0 0 0 0 1.5h.975l1.82 5.006a.75.75 0 0 0 1.417-.019L9.04 4.25H13.5a.75.75 0 0 0 0-1.5h-5z" /><path d="M10.03 7.97a.75.75 0 1 0-1.06 1.06l1.47 1.47-1.47 1.47a.75.75 0 1 0 1.06 1.06l1.47-1.47 1.47 1.47a.75.75 0 1 0 1.06-1.06l-1.47-1.47 1.47-1.47a.75.75 0 0 0-1.06-1.06L11.5 9.44l-1.47-1.47z" />
</svg>
