<svg viewBox="0 0 16 16" fill="currentcolor" xmlns="http://www.w3.org/2000/svg" xmlns:xlink="http://www.w3.org/1999/xlink">
  <path d="M8 3.75c-1.042 0-2.06.302-2.924.865A5.14 5.14 0 0 0 3.147 6.91a4.98 4.98 0 0 0-.297 2.942 5.067 5.067 0 0 0 1.431 2.612.75.75 0 1 1-1.048 1.074A6.566 6.566 0 0 1 1.38 10.15a6.48 6.48 0 0 1 .386-3.827 6.64 6.64 0 0 1 2.49-2.964A6.854 6.854 0 0 1 8 2.25c1.331 0 2.634.385 3.743 1.11a6.64 6.64 0 0 1 2.49 2.963 6.479 6.479 0 0 1 .387 3.827 6.565 6.565 0 0 1-1.853 3.387.75.75 0 1 1-1.048-1.074 5.067 5.067 0 0 0 1.43-2.612 4.979 4.979 0 0 0-.296-2.942 5.14 5.14 0 0 0-1.93-2.294A5.354 5.354 0 0 0 8 3.75z" /><path d="M9.25 9a1.25 1.25 0 1 1-1.073-1.238L9.97 5.97a.75.75 0 1 1 1.06 1.06L9.238 8.823c.008.058.012.117.012.177z" />
</svg>
