<svg viewBox="0 0 16 16" fill="currentcolor" xmlns="http://www.w3.org/2000/svg" xmlns:xlink="http://www.w3.org/1999/xlink">
  <path d="M16.044 7.903A9.955 9.955 0 0 1 22 5.936c5.523 0 10 4.477 10 10s-4.477 10-10 10a9.955 9.955 0 0 1-5.903-1.928l-.097.065-.051-.034A9.955 9.955 0 0 1 10 26C4.477 26 0 21.523 0 16S4.477 6 10 6c2.211 0 4.255.718 5.911 1.933l.089-.06.044.03zm0 0l-.087.064-.046-.034-.25.168c-2.648 1.78-4.261 4.695-4.261 7.872 0 3.177 1.613 6.092 4.262 7.873l.287.193.094-.07.054.04.241-.163c2.649-1.781 4.262-4.696 4.262-7.873 0-3.177-1.613-6.091-4.262-7.872l-.294-.198zm-3.444 8.07c0-2.643 1.276-5.08 3.4-6.657 2.124 1.578 3.4 4.014 3.4 6.657 0 2.644-1.276 5.08-3.4 6.658-2.124-1.578-3.4-4.014-3.4-6.658z" />
</svg>
