<svg viewBox="0 0 16 16" fill="currentcolor" xmlns="http://www.w3.org/2000/svg" xmlns:xlink="http://www.w3.org/1999/xlink">
  <path d="M28 10.105v18.728A3.166 3.166 0 0 1 24.834 32H6.166A3.163 3.163 0 0 1 3 28.844V3.156A3.163 3.163 0 0 1 6.16 0h13.553V10.105H28zm-.215-1.684h-6.4V.311l6.4 8.11zM10.894 19.233v-.218c1.162-.13 1.79-.718 1.79-1.703v-1.394c0-.964.322-1.333 1.19-1.333h.3v-1.45h-.505c-2.03 0-2.885.766-2.885 2.55v1.094c0 1.005-.451 1.388-1.613 1.395v1.9c1.169.007 1.613.39 1.613 1.395v1.066c0 1.805.862 2.584 2.885 2.584h.506v-1.45h-.301c-.861 0-1.19-.361-1.19-1.332v-1.401c0-.992-.628-1.573-1.79-1.703zm8.184-.212v.22c-1.162.122-1.791.71-1.791 1.701v1.395c0 .964-.321 1.333-1.19 1.333h-.3v1.45h.505c2.03 0 2.892-.766 2.892-2.55v-1.094c0-1.012.444-1.388 1.607-1.395v-1.9c-1.17-.014-1.607-.39-1.607-1.395v-1.073c0-1.798-.861-2.577-2.892-2.577h-.505v1.449h.3c.862 0 1.19.362 1.19 1.326v1.408c0 .985.629 1.573 1.79 1.702z" />
</svg>
