<svg viewBox="0 0 32 32" fill="currentcolor" fill-rule="evenodd" xmlns="http://www.w3.org/2000/svg" xmlns:xlink="http://www.w3.org/1999/xlink">
  <path d="M11.5035746,7.9975248 C10.8617389,5.26208051 13.0105798,1.44695394 16.9897081,1.44695394 C20.919315,1.44695394 23.1811258,5.37076315 22.2565255,8.42469226 C21.3223229,7.86427598 20.2283376,7.54198814 19.0589133,7.54198814 C17.3567818,7.54198814 15.8144729,8.22477622 14.6920713,9.33083544 C14.4930673,9.31165867 14.2913185,9.30184676 14.087273,9.30184676 C10.654935,9.30184676 7.87247532,12.0782325 7.87247532,15.5030779 C7.87247532,17.1058665 8.48187104,18.5666337 9.48208198,19.6672763 L8.98356958,20.658345 L9.19925633,22.7713505 L7.5350473,23.4587525 C7.37507672,23.5248284 7.30219953,23.707739 7.37031308,23.8681037 L7.95501877,25.2447188 L6.28291833,25.7863476 C6.10329817,25.8445303 6.01548404,26.0233452 6.06755757,26.1919683 L6.54426059,27.7356153 L5.02460911,28.2609385 C4.86686602,28.3154681 4.7743984,28.501653 4.83652351,28.6704172 L6.04508836,31.95351 C6.10987939,32.1295162 6.29662279,32.2151174 6.46814592,32.160881 L9.48965349,31.2054672 C9.66187554,31.1510098 9.86840241,30.9790422 9.95250524,30.8208731 L14.8228902,21.6613229 C15.8820565,21.5366928 16.8596786,21.1462953 17.6869404,20.558796 C17.5652123,20.567429 17.4424042,20.5718139 17.318643,20.5718139 C14.2753735,20.5718139 11.8083161,17.9204625 11.8083161,14.6498548 C11.8083161,12.518229 12.8562751,10.6496514 14.428709,9.60671162 C13.4433608,10.7041074 12.8441157,12.1538355 12.8441157,13.7432193 C12.8441157,16.9974306 15.3562245,19.6661883 18.5509945,19.9240384 L19.1273026,21.5699573 L20.7971002,22.8826221 L20.1355191,24.5572635 C20.0719252,24.7182369 20.1528753,24.8977207 20.3155476,24.9601226 L21.7119724,25.4957977 L20.9400489,27.0748531 C20.8571275,27.2444782 20.9247553,27.4318616 21.082226,27.5115385 L22.5237784,28.2409344 L21.8460256,29.6990003 C21.7756734,29.8503507 21.8453702,30.0462011 22.0099247,30.1187455 L25.2111237,31.5300046 C25.3827397,31.6056621 25.5740388,31.5307937 25.6541745,31.3697345 L27.0658228,28.5325576 C27.1462849,28.3708422 27.1660474,28.1028205 27.1106928,27.9324485 L23.8023823,17.7500271 C24.7201964,16.6692906 25.273711,15.270754 25.273711,13.7432193 C25.273711,12.0364592 24.582689,10.4907436 23.4645818,9.36943333 C25.0880384,5.38579616 22.187534,0 16.9897081,0 C12.1196563,0 9.42801686,4.46934651 10.0266074,7.9975248 L11.5035746,7.9975248 Z M19.0589133,14.7767578 C20.203026,14.7767578 21.1305126,13.8512959 21.1305126,12.7096808 C21.1305126,11.5680656 20.203026,10.6426037 19.0589133,10.6426037 C17.9148007,10.6426037 16.9873141,11.5680656 16.9873141,12.7096808 C16.9873141,13.8512959 17.9148007,14.7767578 19.0589133,14.7767578 Z" />
</svg>