<svg viewBox="0 0 32 32" fill="currentcolor" xmlns="http://www.w3.org/2000/svg" xmlns:xlink="http://www.w3.org/1999/xlink">
  <path d="M16.1 11.594L18.756 8.9a1.03 1.03 0 0 1 1.446-.018c.404.39.412 1.03.018 1.43l-3.193 3.24v4.975c0 .559-.458 1.011-1.022 1.011a1.017 1.017 0 0 1-1.023-1.01v-5.17l-3.003-3.046c-.394-.4-.386-1.04.018-1.43a1.03 1.03 0 0 1 1.446.018l2.657 2.695zM11.03 28.815h9.938a1.01 1.01 0 1 1 0 2.02 376.72 376.72 0 0 0-2.964.002C18.005 31.857 16.767 32 16 32c-.767 0-1.993-.139-1.993-1.163H11.03a1.011 1.011 0 0 1 0-2.022zm0-3.033h9.938a1.011 1.011 0 0 1 0 2.022H11.03a1.011 1.011 0 1 1 0-2.022zM8.487 20.43A11.659 11.659 0 0 1 4.5 11.627C4.5 5.214 9.64 0 16 0s11.5 5.214 11.5 11.627c0 3.43-1.481 6.617-3.987 8.803v1.308c0 1.954-1.601 3.538-3.577 3.538h-7.872c-1.976 0-3.577-1.584-3.577-3.538V20.43zm2.469-1.915l.597.455v2.768c0 .279.23.505.511.505h7.872a.508.508 0 0 0 .51-.505V18.97l.598-.455a8.632 8.632 0 0 0 3.39-6.888c0-4.755-3.785-8.594-8.434-8.594-4.649 0-8.433 3.84-8.433 8.594a8.632 8.632 0 0 0 3.389 6.888z" />
</svg>
