<svg viewBox="0 0 16 16" fill="currentcolor" xmlns="http://www.w3.org/2000/svg" xmlns:xlink="http://www.w3.org/1999/xlink">
  <path d="M3.5 3a.5.5 0 0 1 .5.5V5a.5.5 0 0 1-.5.5H2a.5.5 0 0 1-.5-.5V3.5A.5.5 0 0 1 2 3h1.5zM11.5 3.5A.5.5 0 0 0 11 3H6a.5.5 0 0 0-.5.5V5a.5.5 0 0 0 .5.5h5a.5.5 0 0 0 .5-.5V3.5zM14.5 7.25a.5.5 0 0 0-.5-.5H6a.5.5 0 0 0-.5.5v1.5a.5.5 0 0 0 .5.5h8a.5.5 0 0 0 .5-.5v-1.5zM4 7.25a.5.5 0 0 0-.5-.5H2a.5.5 0 0 0-.5.5v1.5a.5.5 0 0 0 .5.5h1.5a.5.5 0 0 0 .5-.5v-1.5zM3.5 10.5a.5.5 0 0 1 .5.5v1.5a.5.5 0 0 1-.5.5H2a.5.5 0 0 1-.5-.5V11a.5.5 0 0 1 .5-.5h1.5zM10 11a.5.5 0 0 0-.5-.5H6a.5.5 0 0 0-.5.5v1.5a.5.5 0 0 0 .5.5h3.5a.5.5 0 0 0 .5-.5V11z" />
</svg>
