<svg viewBox="0 0 32 32" fill="currentcolor" xmlns="http://www.w3.org/2000/svg" xmlns:xlink="http://www.w3.org/1999/xlink">
  <path d="M0.595961814,24.9588734 C-0.196619577,24.166292 -0.200005392,22.8846495 0.593926984,22.0907171 L22.0908075,0.593836573 C22.8822651,-0.197621013 24.1641442,-0.198948234 24.9589638,0.595871404 L31.4040382,7.04094576 C32.1966196,7.83352715 32.2000054,9.11516967 31.406073,9.90910205 L9.90919246,31.4059826 C9.11773487,32.1974402 7.83585581,32.1987674 7.04103617,31.4039478 L0.595961814,24.9588734 Z M17.8319792,7.8001489 L16.3988585,9.23326963 L18.548673,11.3830842 C18.9443414,11.7787526 18.9470387,12.4175604 18.5485351,12.816064 C18.1527906,13.2118086 17.5140271,13.2146738 17.1155553,12.816202 L14.9657407,10.6663874 L13.5326229,12.0995052 L15.6824375,14.2493198 C16.0781059,14.6449881 16.0808032,15.283796 15.6822996,15.6822996 C15.286555,16.0780441 14.6477916,16.0809094 14.2493198,15.6824375 L12.0995052,13.5326229 L10.6663845,14.9657436 C10.6670858,14.9664411 10.6677865,14.9671398 10.6684864,14.9678397 L14.2470828,18.5464361 C14.6439866,18.9433399 14.6476854,19.5831493 14.2491818,19.9816529 C13.8534373,20.3773974 13.2188552,20.384444 12.813965,19.9795538 L9.23536867,16.4009575 C9.23466875,16.4002576 9.23397006,16.3995569 9.2332726,16.3988555 L7.80015186,17.8319762 L9.94996646,19.9817908 C10.3456348,20.3774592 10.3483321,21.016267 9.94982851,21.4147706 C9.55408397,21.8105152 8.91532053,21.8133804 8.51684869,21.4149086 L6.3670341,19.265094 L4.93391633,20.6982118 L7.08373093,22.8480263 C7.47939928,23.2436947 7.48209658,23.8825026 7.08359298,24.2810062 C6.68784844,24.6767507 6.049085,24.6796159 5.65061316,24.2811441 L3.50079857,22.1313295 L2.02673458,23.6053935 L8.47576453,30.0544235 L30.0544235,8.47576453 L23.6053935,2.02673458 L22.1313295,3.50079857 L24.2811441,5.65061316 C24.6768125,6.04628152 24.6795098,6.68508938 24.2810062,7.08359298 C23.8852616,7.47933752 23.2464982,7.48220276 22.8480263,7.08373093 L20.6982118,4.93391633 L19.2650911,6.36703697 C19.2657924,6.36773446 19.2664931,6.36843318 19.267193,6.36913314 L22.8457894,9.94772948 C23.2426932,10.3446333 23.246392,10.9844427 22.8478884,11.3829463 C22.4521439,11.7786908 21.8175617,11.7857374 21.4126716,11.3808472 L17.8340753,7.8022509 C17.8333753,7.80155099 17.8326767,7.80085032 17.8319792,7.8001489 Z" />
</svg>
