<svg fill="currentcolor" viewBox="0 0 32 32" xmlns="http://www.w3.org/2000/svg" xmlns:xlink="http://www.w3.org/1999/xlink">
  <path d="M20.209 0a3.374 3.374 0 0 0-3.374 3.374v8.417a3.374 3.374 0 1 0 6.748 0V3.374A3.374 3.374 0 0 0 20.209 0zm0 16.835a3.374 3.374 0 1 0 0 6.748h8.417a3.374 3.374 0 1 0 0-6.748H20.21zM0 11.79a3.374 3.374 0 0 1 3.374-3.374h8.417a3.374 3.374 0 1 1 0 6.748H3.374A3.374 3.374 0 0 1 0 11.791zM11.791 0a3.374 3.374 0 1 0 0 6.748h3.374V3.374A3.374 3.374 0 0 0 11.791 0zm13.461 11.791a3.374 3.374 0 1 1 3.374 3.374h-3.374v-3.374zM3.374 16.835a3.374 3.374 0 1 0 3.374 3.374v-3.374H3.374zm13.46 8.417h3.375a3.374 3.374 0 1 1-3.374 3.374v-3.374zm-5.043-8.417a3.374 3.374 0 0 0-3.374 3.374v8.417a3.374 3.374 0 1 0 6.748 0V20.21a3.374 3.374 0 0 0-3.374-3.374z" />
</svg>