<svg viewBox="0 0 16 16" fill="currentcolor" xmlns="http://www.w3.org/2000/svg" xmlns:xlink="http://www.w3.org/1999/xlink">
  <path d="M11.07 6.988a.75.75 0 1 0-1.14-.976L7.458 8.897 6.03 7.47a.75.75 0 0 0-1.06 1.06l2 2a.75.75 0 0 0 1.1-.042l3-3.5z" /><path fill-rule="evenodd" clip-rule="evenodd" d="M8.492 1.433a.75.75 0 0 0-.984 0l-1.028.893-1.338-.259a.75.75 0 0 0-.85.492l-.446 1.287-1.287.445a.75.75 0 0 0-.492.851l.26 1.338-.894 1.028a.75.75 0 0 0 0 .984l.893 1.028-.259 1.338a.75.75 0 0 0 .492.85l1.287.446.445 1.287a.75.75 0 0 0 .851.491l1.338-.258 1.028.893a.75.75 0 0 0 .984 0l1.028-.893 1.338.258a.75.75 0 0 0 .85-.491l.446-1.287 1.287-.445a.75.75 0 0 0 .491-.851l-.258-1.338.893-1.028a.75.75 0 0 0 0-.984l-.893-1.028.258-1.338a.75.75 0 0 0-.491-.85l-1.287-.446-.445-1.287a.75.75 0 0 0-.851-.492l-1.338.26-1.028-.894zM7.187 3.698L8 2.993l.813.705a.75.75 0 0 0 .634.17l1.057-.204.35 1.017a.75.75 0 0 0 .465.464l1.017.351-.204 1.057a.75.75 0 0 0 .17.634l.705.813-.705.813a.75.75 0 0 0-.17.634l.204 1.057-1.017.35a.75.75 0 0 0-.464.465l-.351 1.017-1.057-.204a.75.75 0 0 0-.634.17L8 13.007l-.813-.705a.75.75 0 0 0-.634-.17l-1.057.204-.35-1.017a.75.75 0 0 0-.465-.464l-1.017-.351.204-1.057a.75.75 0 0 0-.17-.634L2.993 8l.705-.813a.75.75 0 0 0 .17-.634l-.204-1.057 1.017-.35a.75.75 0 0 0 .464-.465l.351-1.017 1.057.204a.75.75 0 0 0 .634-.17z" />
</svg>
