<svg width="130" height="32" viewBox="0 0 130 32" fill="none" xmlns="http://www.w3.org/2000/svg">
<path d="M53.85 7.98408V24.2246H50.8849V14.252C50.8849 14.043 50.8887 13.8192 50.8961 13.5804C50.911 13.3416 50.9334 13.0991 50.9633 12.8529L46.3199 21.6615C46.0662 22.1465 45.6746 22.389 45.145 22.389H44.6751C44.414 22.389 44.1828 22.3293 43.9814 22.2099C43.78 22.0831 43.6196 21.9002 43.5003 21.6615L38.8345 12.8193C38.8569 13.0805 38.8755 13.3342 38.8904 13.5804C38.9054 13.8192 38.9128 14.043 38.9128 14.252V24.2246H35.9478V7.98408H38.4988C38.6405 7.98408 38.7674 7.98781 38.8792 7.99527C38.9911 8.00274 39.0881 8.02512 39.1702 8.06243C39.2597 8.09228 39.338 8.14451 39.4051 8.21913C39.4797 8.28628 39.5506 8.38329 39.6177 8.51014L44.1604 17.1732C44.3021 17.4344 44.4327 17.703 44.552 17.9791C44.6788 18.2552 44.7982 18.5387 44.9101 18.8297C45.022 18.5313 45.1376 18.2403 45.2569 17.9567C45.3837 17.6732 45.518 17.4008 45.6597 17.1397L50.1688 8.51014C50.236 8.38329 50.3068 8.28628 50.3814 8.21913C50.456 8.14451 50.5343 8.09228 50.6164 8.06243C50.7059 8.02512 50.8029 8.00274 50.9073 7.99527C51.0192 7.98781 51.1497 7.98408 51.2989 7.98408H53.85Z" fill="#5A6072"/>
<path d="M63.328 17.0949C63.328 16.774 63.2833 16.4681 63.1938 16.1771C63.1117 15.8861 62.9775 15.6286 62.791 15.4048C62.6045 15.1809 62.3695 15.0056 62.0861 14.8787C61.8026 14.7444 61.4632 14.6773 61.0679 14.6773C60.3294 14.6773 59.7513 14.8862 59.3336 15.3041C58.9159 15.7219 58.6436 16.3189 58.5168 17.0949H63.328ZM58.4721 18.9305C58.569 20.0124 58.8749 20.8034 59.3895 21.3033C59.9117 21.8032 60.5905 22.0532 61.4259 22.0532C61.8511 22.0532 62.2166 22.0047 62.5224 21.9077C62.8357 21.8032 63.108 21.6913 63.3392 21.5719C63.5779 21.4451 63.7905 21.3332 63.977 21.2362C64.1709 21.1317 64.3611 21.0795 64.5476 21.0795C64.7863 21.0795 64.9728 21.169 65.1071 21.3481L66.0022 22.4673C65.674 22.8479 65.3122 23.165 64.9169 23.4187C64.5215 23.665 64.1113 23.8627 63.6861 24.0119C63.2609 24.1537 62.832 24.2507 62.3994 24.3029C61.9667 24.3626 61.549 24.3925 61.1462 24.3925C60.3406 24.3925 59.5872 24.2619 58.886 24.0007C58.1923 23.7321 57.5844 23.3404 57.0623 22.8255C56.5476 22.3032 56.141 21.6577 55.8427 20.8892C55.5443 20.1206 55.3951 19.2289 55.3951 18.2141C55.3951 17.4307 55.5219 16.6919 55.7755 15.998C56.0366 15.3041 56.4096 14.6997 56.8944 14.1848C57.3793 13.6699 57.9686 13.2633 58.6623 12.9648C59.356 12.6589 60.1392 12.5059 61.0119 12.5059C61.7504 12.5059 62.4292 12.6253 63.0483 12.8641C63.6749 13.0954 64.212 13.4349 64.6595 13.8826C65.1145 14.3303 65.4651 14.8825 65.7113 15.5391C65.9649 16.1883 66.0917 16.9307 66.0917 17.7664C66.0917 17.9978 66.0805 18.188 66.0581 18.3373C66.0358 18.4865 65.9985 18.6059 65.9462 18.6954C65.894 18.785 65.8232 18.8484 65.7337 18.8857C65.6441 18.9155 65.5285 18.9305 65.3868 18.9305H58.4721Z" fill="#5A6072"/>
<path d="M71.4125 24.4037C70.8904 24.4037 70.4279 24.3291 70.0251 24.1798C69.6223 24.0231 69.2829 23.803 69.0069 23.5194C68.7309 23.2359 68.5221 22.8927 68.3804 22.4897C68.2386 22.0868 68.1678 21.6316 68.1678 21.1242V14.9011H67.0824C66.9183 14.9011 66.7766 14.8489 66.6573 14.7444C66.5454 14.64 66.4894 14.4833 66.4894 14.2743V13.0655L68.3356 12.7298L68.9622 9.74132C69.0442 9.40555 69.2717 9.23766 69.6447 9.23766H71.2559V12.7521H74.2322V14.9011H71.2559V20.9228C71.2559 21.2436 71.3305 21.4973 71.4797 21.6839C71.6363 21.8704 71.8564 21.9637 72.1398 21.9637C72.289 21.9637 72.4158 21.9487 72.5202 21.9189C72.6247 21.8816 72.7142 21.8443 72.7888 21.807C72.8634 21.7622 72.9305 21.7249 72.9902 21.6951C73.0573 21.6577 73.1244 21.6391 73.1916 21.6391C73.2811 21.6391 73.3557 21.6615 73.4154 21.7062C73.475 21.7436 73.5347 21.8107 73.5944 21.9077L74.5231 23.3851C74.0979 23.7209 73.6168 23.9746 73.0797 24.1462C72.5426 24.3179 71.9869 24.4037 71.4125 24.4037Z" fill="#5A6072"/>
<path d="M81.4698 19.4006C80.7164 19.4379 80.0898 19.505 79.5901 19.602C79.0903 19.6916 78.6912 19.811 78.3928 19.9602C78.1019 20.1094 77.8931 20.281 77.7663 20.4751C77.6469 20.6616 77.5872 20.8668 77.5872 21.0906C77.5872 21.5384 77.7103 21.8555 77.9565 22.042C78.2101 22.2286 78.5607 22.3218 79.0082 22.3218C79.5229 22.3218 79.9668 22.2323 80.3397 22.0532C80.7201 21.8667 81.0968 21.5794 81.4698 21.1914V19.4006ZM75.1816 14.2855C75.8604 13.6737 76.6101 13.2185 77.4306 12.92C78.2511 12.6141 79.1388 12.4611 80.0936 12.4611C80.7798 12.4611 81.3915 12.5731 81.9285 12.7969C82.4731 13.0208 82.9318 13.3342 83.3048 13.7371C83.6852 14.1326 83.9761 14.6064 84.1775 15.1586C84.3789 15.7107 84.4796 16.3151 84.4796 16.9718V24.2246H83.0698C82.7789 24.2246 82.5551 24.1835 82.3985 24.1015C82.2493 24.0194 82.1262 23.8478 82.0292 23.5866L81.7831 22.8479C81.4922 23.1016 81.2087 23.3254 80.9327 23.5194C80.6642 23.7135 80.3845 23.8776 80.0936 24.0119C79.8027 24.1388 79.4894 24.2358 79.1537 24.3029C78.8255 24.3701 78.4563 24.4037 78.046 24.4037C77.5388 24.4037 77.0763 24.3365 76.6586 24.2022C76.2409 24.0679 75.8791 23.8702 75.5732 23.609C75.2749 23.3404 75.0436 23.0083 74.8795 22.6128C74.7154 22.2174 74.6334 21.7622 74.6334 21.2473C74.6334 20.822 74.7415 20.3967 74.9579 19.9714C75.1742 19.5461 75.5434 19.1618 76.0656 18.8185C76.5952 18.4678 77.2963 18.1806 78.1691 17.9567C79.0493 17.7254 80.1495 17.5948 81.4698 17.565V16.9718C81.4698 16.248 81.3169 15.7182 81.0111 15.3824C80.7052 15.0392 80.2651 14.8675 79.6908 14.8675C79.2656 14.8675 78.9113 14.9198 78.6278 15.0242C78.3444 15.1212 78.0945 15.2294 77.8782 15.3488C77.6693 15.4608 77.4716 15.569 77.2851 15.6734C77.0987 15.7704 76.8823 15.8189 76.6362 15.8189C76.4199 15.8189 76.2371 15.7667 76.0879 15.6622C75.9462 15.5503 75.8269 15.4197 75.7299 15.2705L75.1816 14.2855Z" fill="#5A6072"/>
<path d="M89.5307 21.1802C89.8216 21.516 90.1349 21.751 90.4706 21.8853C90.8137 22.0196 91.168 22.0868 91.5335 22.0868C91.9139 22.0868 92.2571 22.0196 92.5629 21.8853C92.8762 21.7436 93.1447 21.5234 93.3685 21.225C93.5923 20.919 93.7638 20.5236 93.8832 20.0385C94.0025 19.5535 94.0622 18.9678 94.0622 18.2813C94.0622 17.6694 94.0137 17.1508 93.9167 16.7255C93.8198 16.2927 93.6743 15.9383 93.4804 15.6622C93.2939 15.3861 93.0627 15.1847 92.7867 15.0578C92.5107 14.931 92.1899 14.8675 91.8244 14.8675C91.3396 14.8675 90.9181 14.9757 90.5601 15.1921C90.2095 15.4011 89.8664 15.7107 89.5307 16.1211V21.1802ZM89.5307 14.0169C89.9857 13.5617 90.4892 13.1961 91.0412 12.92C91.5932 12.6439 92.2123 12.5059 92.8986 12.5059C93.5624 12.5059 94.1592 12.6402 94.6888 12.9088C95.2258 13.17 95.6809 13.5468 96.0538 14.0393C96.4342 14.5318 96.7252 15.1287 96.9266 15.8301C97.1354 16.5241 97.2398 17.3038 97.2398 18.1694C97.2398 19.1021 97.1205 19.9527 96.8818 20.7213C96.6506 21.4824 96.3186 22.1353 95.886 22.68C95.4534 23.2247 94.9349 23.6463 94.3307 23.9448C93.734 24.2432 93.0664 24.3925 92.3279 24.3925C91.9699 24.3925 91.6491 24.3552 91.3657 24.2805C91.0822 24.2134 90.8212 24.1164 90.5825 23.9895C90.3438 23.8627 90.1237 23.7135 89.9223 23.5418C89.7209 23.3628 89.5307 23.165 89.3517 22.9486L89.2286 23.6426C89.1764 23.859 89.0906 24.0119 88.9713 24.1015C88.8519 24.1835 88.6915 24.2246 88.4901 24.2246H86.4426V7.53638H89.5307V14.0169Z" fill="#5A6072"/>
<path d="M104.81 19.4006C104.057 19.4379 103.43 19.505 102.93 19.602C102.431 19.6916 102.031 19.811 101.733 19.9602C101.442 20.1094 101.233 20.281 101.106 20.4751C100.987 20.6616 100.927 20.8668 100.927 21.0906C100.927 21.5384 101.051 21.8555 101.297 22.042C101.55 22.2286 101.901 22.3218 102.348 22.3218C102.863 22.3218 103.307 22.2323 103.68 22.0532C104.06 21.8667 104.437 21.5794 104.81 21.1914V19.4006ZM98.5219 14.2855C99.2006 13.6737 99.9503 13.2185 100.771 12.92C101.591 12.6141 102.479 12.4611 103.434 12.4611C104.12 12.4611 104.732 12.5731 105.269 12.7969C105.813 13.0208 106.272 13.3342 106.645 13.7371C107.025 14.1326 107.316 14.6064 107.518 15.1586C107.719 15.7107 107.82 16.3151 107.82 16.9718V24.2246H106.41C106.119 24.2246 105.895 24.1835 105.739 24.1015C105.59 24.0194 105.466 23.8478 105.369 23.5866L105.123 22.8479C104.832 23.1016 104.549 23.3254 104.273 23.5194C104.004 23.7135 103.725 23.8776 103.434 24.0119C103.143 24.1388 102.83 24.2358 102.494 24.3029C102.166 24.3701 101.796 24.4037 101.386 24.4037C100.879 24.4037 100.417 24.3365 99.9988 24.2022C99.5811 24.0679 99.2193 23.8702 98.9135 23.609C98.6151 23.3404 98.3839 23.0083 98.2198 22.6128C98.0556 22.2174 97.9736 21.7622 97.9736 21.2473C97.9736 20.822 98.0818 20.3967 98.2981 19.9714C98.5144 19.5461 98.8836 19.1618 99.4058 18.8185C99.9354 18.4678 100.637 18.1806 101.509 17.9567C102.389 17.7254 103.49 17.5948 104.81 17.565V16.9718C104.81 16.248 104.657 15.7182 104.351 15.3824C104.045 15.0392 103.605 14.8675 103.031 14.8675C102.606 14.8675 102.251 14.9198 101.968 15.0242C101.685 15.1212 101.435 15.2294 101.218 15.3488C101.01 15.4608 100.812 15.569 100.625 15.6734C100.439 15.7704 100.223 15.8189 99.9764 15.8189C99.7601 15.8189 99.5773 15.7667 99.4282 15.6622C99.2864 15.5503 99.1671 15.4197 99.0701 15.2705L98.5219 14.2855Z" fill="#5A6072"/>
<path d="M116.955 15.0578C116.873 15.1847 116.787 15.2779 116.698 15.3376C116.615 15.3899 116.5 15.416 116.351 15.416C116.201 15.416 116.049 15.3787 115.892 15.3041C115.735 15.2294 115.56 15.1511 115.366 15.069C115.172 14.9795 114.948 14.8974 114.695 14.8228C114.449 14.7482 114.161 14.7109 113.833 14.7109C113.333 14.7109 112.946 14.8153 112.67 15.0242C112.394 15.2257 112.256 15.4943 112.256 15.8301C112.256 16.0614 112.334 16.2554 112.49 16.4121C112.647 16.5688 112.852 16.7069 113.106 16.8263C113.367 16.9382 113.662 17.0464 113.99 17.1508C114.318 17.2478 114.654 17.356 114.997 17.4754C115.347 17.5948 115.687 17.7329 116.015 17.8896C116.343 18.0463 116.634 18.244 116.888 18.4828C117.149 18.7141 117.358 18.9976 117.514 19.3334C117.671 19.6617 117.749 20.0609 117.749 20.531C117.749 21.0906 117.645 21.6092 117.436 22.0868C117.235 22.5569 116.936 22.9635 116.541 23.3068C116.146 23.65 115.653 23.9187 115.064 24.1127C114.475 24.3067 113.796 24.4037 113.028 24.4037C112.632 24.4037 112.241 24.3664 111.853 24.2917C111.465 24.2246 111.096 24.1276 110.745 24.0007C110.394 23.8664 110.066 23.7135 109.76 23.5418C109.455 23.3702 109.19 23.1837 108.966 22.9822L109.682 21.8294C109.764 21.6951 109.865 21.5906 109.984 21.516C110.111 21.4414 110.271 21.404 110.465 21.404C110.652 21.404 110.823 21.4525 110.98 21.5495C111.137 21.6391 111.312 21.7398 111.506 21.8517C111.7 21.9562 111.927 22.0569 112.188 22.1539C112.457 22.2435 112.789 22.2883 113.184 22.2883C113.483 22.2883 113.74 22.2547 113.956 22.1875C114.173 22.1204 114.348 22.0308 114.482 21.9189C114.616 21.7995 114.713 21.6689 114.773 21.5272C114.84 21.3779 114.874 21.225 114.874 21.0683C114.874 20.8146 114.792 20.6094 114.628 20.4527C114.471 20.2885 114.262 20.1467 114.001 20.0273C113.747 19.908 113.453 19.7998 113.117 19.7028C112.781 19.6058 112.438 19.4976 112.088 19.3782C111.745 19.2588 111.405 19.117 111.07 18.9529C110.741 18.7887 110.447 18.5835 110.186 18.3373C109.932 18.0836 109.723 17.7739 109.559 17.4083C109.402 17.0426 109.324 16.5987 109.324 16.0764C109.324 15.5988 109.417 15.1474 109.604 14.722C109.79 14.2893 110.07 13.9087 110.443 13.5804C110.816 13.2521 111.278 12.9909 111.83 12.7969C112.39 12.6029 113.035 12.5059 113.766 12.5059C114.587 12.5059 115.332 12.6402 116.004 12.9088C116.675 13.1775 117.227 13.5282 117.66 13.9609L116.955 15.0578Z" fill="#5A6072"/>
<path d="M126.552 17.0949C126.552 16.774 126.508 16.4681 126.418 16.1771C126.336 15.8861 126.202 15.6286 126.015 15.4048C125.829 15.1809 125.594 15.0056 125.31 14.8787C125.027 14.7444 124.688 14.6773 124.292 14.6773C123.554 14.6773 122.976 14.8862 122.558 15.3041C122.14 15.7219 121.868 16.3189 121.741 17.0949H126.552ZM121.696 18.9305C121.793 20.0124 122.099 20.8034 122.614 21.3033C123.136 21.8032 123.815 22.0532 124.65 22.0532C125.075 22.0532 125.441 22.0047 125.747 21.9077C126.06 21.8032 126.332 21.6913 126.564 21.5719C126.802 21.4451 127.015 21.3332 127.201 21.2362C127.395 21.1317 127.585 21.0795 127.772 21.0795C128.011 21.0795 128.197 21.169 128.331 21.3481L129.226 22.4673C128.898 22.8479 128.536 23.165 128.141 23.4187C127.746 23.665 127.336 23.8627 126.91 24.0119C126.485 24.1537 126.056 24.2507 125.624 24.3029C125.191 24.3626 124.773 24.3925 124.37 24.3925C123.565 24.3925 122.812 24.2619 122.11 24.0007C121.417 23.7321 120.809 23.3404 120.287 22.8255C119.772 22.3032 119.365 21.6577 119.067 20.8892C118.769 20.1206 118.619 19.2289 118.619 18.2141C118.619 17.4307 118.746 16.6919 119 15.998C119.261 15.3041 119.634 14.6997 120.119 14.1848C120.604 13.6699 121.193 13.2633 121.887 12.9648C122.58 12.6589 123.363 12.5059 124.236 12.5059C124.975 12.5059 125.653 12.6253 126.273 12.8641C126.899 13.0954 127.436 13.4349 127.884 13.8826C128.339 14.3303 128.689 14.8825 128.936 15.5391C129.189 16.1883 129.316 16.9307 129.316 17.7664C129.316 17.9978 129.305 18.188 129.282 18.3373C129.26 18.4865 129.223 18.6059 129.171 18.6954C129.118 18.785 129.047 18.8484 128.958 18.8857C128.868 18.9155 128.753 18.9305 128.611 18.9305H121.696Z" fill="#5A6072"/>
<path fill-rule="evenodd" clip-rule="evenodd" d="M1.94393 9.51017C3.01753 9.51017 3.88785 8.63984 3.88785 7.56624C3.88785 6.49264 3.01753 5.62231 1.94393 5.62231C0.870325 5.62231 0 6.49264 0 7.56624C0 8.63984 0.870325 9.51017 1.94393 9.51017Z" fill="#509EE3"/>
<path fill-rule="evenodd" clip-rule="evenodd" d="M1.94393 15.1327C3.01753 15.1327 3.88785 14.2624 3.88785 13.1888C3.88785 12.1152 3.01753 11.2449 1.94393 11.2449C0.870325 11.2449 0 12.1152 0 13.1888C0 14.2624 0.870325 15.1327 1.94393 15.1327Z" fill="#509EE3"/>
<path fill-rule="evenodd" clip-rule="evenodd" d="M7.56648 15.1327C8.64008 15.1327 9.51041 14.2624 9.51041 13.1888C9.51041 12.1152 8.64008 11.2449 7.56648 11.2449C6.49288 11.2449 5.62256 12.1152 5.62256 13.1888C5.62256 14.2624 6.49288 15.1327 7.56648 15.1327Z" fill="#509EE3"/>
<path fill-rule="evenodd" clip-rule="evenodd" d="M24.4337 9.51017C25.5073 9.51017 26.3776 8.63984 26.3776 7.56624C26.3776 6.49264 25.5073 5.62231 24.4337 5.62231C23.3601 5.62231 22.4897 6.49264 22.4897 7.56624C22.4897 8.63984 23.3601 9.51017 24.4337 9.51017Z" fill="#509EE3"/>
<path fill-rule="evenodd" clip-rule="evenodd" d="M18.8111 15.1327C19.8847 15.1327 20.755 14.2624 20.755 13.1888C20.755 12.1152 19.8847 11.2449 18.8111 11.2449C17.7375 11.2449 16.8672 12.1152 16.8672 13.1888C16.8672 14.2624 17.7375 15.1327 18.8111 15.1327Z" fill="#509EE3"/>
<path fill-rule="evenodd" clip-rule="evenodd" d="M13.1886 20.755C14.2622 20.755 15.1325 19.8847 15.1325 18.8111C15.1325 17.7375 14.2622 16.8672 13.1886 16.8672C12.115 16.8672 11.2446 17.7375 11.2446 18.8111C11.2446 19.8847 12.115 20.755 13.1886 20.755Z" fill="#509EE3"/>
<path fill-rule="evenodd" clip-rule="evenodd" d="M24.4337 15.1327C25.5073 15.1327 26.3776 14.2624 26.3776 13.1888C26.3776 12.1152 25.5073 11.2449 24.4337 11.2449C23.3601 11.2449 22.4897 12.1152 22.4897 13.1888C22.4897 14.2624 23.3601 15.1327 24.4337 15.1327Z" fill="#509EE3"/>
<path fill-rule="evenodd" clip-rule="evenodd" d="M1.94393 20.755C3.01753 20.755 3.88785 19.8847 3.88785 18.8111C3.88785 17.7375 3.01753 16.8672 1.94393 16.8672C0.870325 16.8672 0 17.7375 0 18.8111C0 19.8847 0.870325 20.755 1.94393 20.755Z" fill="#509EE3"/>
<path fill-rule="evenodd" clip-rule="evenodd" d="M24.4337 20.755C25.5073 20.755 26.3776 19.8847 26.3776 18.8111C26.3776 17.7375 25.5073 16.8672 24.4337 16.8672C23.3601 16.8672 22.4897 17.7375 22.4897 18.8111C22.4897 19.8847 23.3601 20.755 24.4337 20.755Z" fill="#509EE3"/>
<path fill-rule="evenodd" clip-rule="evenodd" d="M1.94393 26.3776C3.01753 26.3776 3.88785 25.5073 3.88785 24.4337C3.88785 23.3601 3.01753 22.4897 1.94393 22.4897C0.870325 22.4897 0 23.3601 0 24.4337C0 25.5073 0.870325 26.3776 1.94393 26.3776Z" fill="#509EE3"/>
<path fill-rule="evenodd" clip-rule="evenodd" d="M24.4337 26.3776C25.5073 26.3776 26.3776 25.5073 26.3776 24.4337C26.3776 23.3601 25.5073 22.4897 24.4337 22.4897C23.3601 22.4897 22.4897 23.3601 22.4897 24.4337C22.4897 25.5073 23.3601 26.3776 24.4337 26.3776Z" fill="#509EE3"/>
<path fill-rule="evenodd" clip-rule="evenodd" d="M7.56648 9.51017C8.64008 9.51017 9.51041 8.63984 9.51041 7.56624C9.51041 6.49264 8.64008 5.62231 7.56648 5.62231C6.49288 5.62231 5.62256 6.49264 5.62256 7.56624C5.62256 8.63984 6.49288 9.51017 7.56648 9.51017Z" fill="#C2DAF0"/>
<path fill-rule="evenodd" clip-rule="evenodd" d="M13.1886 9.51017C14.2622 9.51017 15.1325 8.63984 15.1325 7.56624C15.1325 6.49264 14.2622 5.62231 13.1886 5.62231C12.115 5.62231 11.2446 6.49264 11.2446 7.56624C11.2446 8.63984 12.115 9.51017 13.1886 9.51017Z" fill="#C2DAF0"/>
<path fill-rule="evenodd" clip-rule="evenodd" d="M13.1886 3.88785C14.2622 3.88785 15.1325 3.01753 15.1325 1.94393C15.1325 0.870325 14.2622 0 13.1886 0C12.115 0 11.2446 0.870325 11.2446 1.94393C11.2446 3.01753 12.115 3.88785 13.1886 3.88785Z" fill="#C2DAF0"/>
<path fill-rule="evenodd" clip-rule="evenodd" d="M13.1886 15.1327C14.2622 15.1327 15.1325 14.2624 15.1325 13.1888C15.1325 12.1152 14.2622 11.2449 13.1886 11.2449C12.115 11.2449 11.2446 12.1152 11.2446 13.1888C11.2446 14.2624 12.115 15.1327 13.1886 15.1327Z" fill="#C2DAF0"/>
<path fill-rule="evenodd" clip-rule="evenodd" d="M18.8111 9.51017C19.8847 9.51017 20.755 8.63984 20.755 7.56624C20.755 6.49264 19.8847 5.62231 18.8111 5.62231C17.7375 5.62231 16.8672 6.49264 16.8672 7.56624C16.8672 8.63984 17.7375 9.51017 18.8111 9.51017Z" fill="#C2DAF0"/>
<path fill-rule="evenodd" clip-rule="evenodd" d="M7.56648 20.755C8.64008 20.755 9.51041 19.8847 9.51041 18.8111C9.51041 17.7375 8.64008 16.8672 7.56648 16.8672C6.49288 16.8672 5.62256 17.7375 5.62256 18.8111C5.62256 19.8847 6.49288 20.755 7.56648 20.755Z" fill="#C2DAF0"/>
<path fill-rule="evenodd" clip-rule="evenodd" d="M18.8111 20.755C19.8847 20.755 20.755 19.8847 20.755 18.8111C20.755 17.7375 19.8847 16.8672 18.8111 16.8672C17.7375 16.8672 16.8672 17.7375 16.8672 18.8111C16.8672 19.8847 17.7375 20.755 18.8111 20.755Z" fill="#C2DAF0"/>
<path fill-rule="evenodd" clip-rule="evenodd" d="M7.56648 26.3776C8.64008 26.3776 9.51041 25.5073 9.51041 24.4337C9.51041 23.3601 8.64008 22.4897 7.56648 22.4897C6.49288 22.4897 5.62256 23.3601 5.62256 24.4337C5.62256 25.5073 6.49288 26.3776 7.56648 26.3776Z" fill="#C2DAF0"/>
<path fill-rule="evenodd" clip-rule="evenodd" d="M13.1886 26.3776C14.2622 26.3776 15.1325 25.5073 15.1325 24.4337C15.1325 23.3601 14.2622 22.4897 13.1886 22.4897C12.115 22.4897 11.2446 23.3601 11.2446 24.4337C11.2446 25.5073 12.115 26.3776 13.1886 26.3776Z" fill="#C2DAF0"/>
<path fill-rule="evenodd" clip-rule="evenodd" d="M13.1886 31.9999C14.2622 31.9999 15.1325 31.1296 15.1325 30.056C15.1325 28.9824 14.2622 28.1121 13.1886 28.1121C12.115 28.1121 11.2446 28.9824 11.2446 30.056C11.2446 31.1296 12.115 31.9999 13.1886 31.9999Z" fill="#C2DAF0"/>
<path fill-rule="evenodd" clip-rule="evenodd" d="M18.8111 26.3776C19.8847 26.3776 20.755 25.5073 20.755 24.4337C20.755 23.3601 19.8847 22.4897 18.8111 22.4897C17.7375 22.4897 16.8672 23.3601 16.8672 24.4337C16.8672 25.5073 17.7375 26.3776 18.8111 26.3776Z" fill="#C2DAF0"/>
</svg>
