<?xml version="1.0" encoding="UTF-8" standalone="no"?>
<svg width="50px" height="50px" viewBox="0 0 50 50" version="1.1" xmlns="http://www.w3.org/2000/svg" xmlns:xlink="http://www.w3.org/1999/xlink" xmlns:sketch="http://www.bohemiancoding.com/sketch/ns">
    <g stroke="none" stroke-width="1" fill="none" fill-rule="evenodd">
        <g fill="#509EE3">
            <ellipse id="Oval-7" sketch:type="MSShapeGroup" cx="10.5757576" cy="13.9911029" rx="2.57575758" ry="2.61692926"></ellipse>
            <ellipse id="Oval-7" sketch:type="MSShapeGroup" cx="10.5757576" cy="21.3185048" rx="2.57575758" ry="2.61692926"></ellipse>
            <ellipse id="Oval-7" opacity="0.2" sketch:type="MSShapeGroup" cx="17.7878788" cy="13.9911029" rx="2.57575758" ry="2.61692926"></ellipse>
            <ellipse id="Oval-7" sketch:type="MSShapeGroup" cx="17.7878788" cy="21.3896853" rx="2.57575758" ry="2.61692926"></ellipse>
            <ellipse id="Oval-8" opacity="0.2" sketch:type="MSShapeGroup" cx="25" cy="13.9911029" rx="2.57575758" ry="2.61692926"></ellipse>
            <ellipse id="Oval-8" opacity="0.2" sketch:type="MSShapeGroup" cx="25" cy="5.61692926" rx="2.57575758" ry="2.61692926"></ellipse>
            <ellipse id="Oval-8" opacity="0.2" sketch:type="MSShapeGroup" cx="25" cy="21.3896853" rx="2.57575758" ry="2.61692926"></ellipse>
            <ellipse id="Oval-9" opacity="0.2" sketch:type="MSShapeGroup" cx="32.2121212" cy="13.9911029" rx="2.57575758" ry="2.61692926"></ellipse>
            <ellipse id="Oval-9" sketch:type="MSShapeGroup" cx="39.4242424" cy="13.9911029" rx="2.57575758" ry="2.61692926"></ellipse>
            <ellipse id="Oval-9" sketch:type="MSShapeGroup" cx="32.2121212" cy="21.3896853" rx="2.57575758" ry="2.61692926"></ellipse>
            <ellipse id="Oval-9" sketch:type="MSShapeGroup" cx="39.4242424" cy="21.3896853" rx="2.57575758" ry="2.61692926"></ellipse>
            <ellipse id="Oval-13" sketch:type="MSShapeGroup" cx="10.5757576" cy="28.6459067" rx="2.57575758" ry="2.61692926"></ellipse>
            <ellipse id="Oval-12" opacity="0.2" sketch:type="MSShapeGroup" cx="17.7878788" cy="28.7170872" rx="2.57575758" ry="2.61692926"></ellipse>
            <ellipse id="Oval-11" sketch:type="MSShapeGroup" cx="25" cy="28.7170872" rx="2.57575758" ry="2.61692926"></ellipse>
            <ellipse id="Oval-10" opacity="0.2" sketch:type="MSShapeGroup" cx="32.2121212" cy="28.7170872" rx="2.57575758" ry="2.61692926"></ellipse>
            <ellipse id="Oval-10" sketch:type="MSShapeGroup" cx="39.4242424" cy="28.7170872" rx="2.57575758" ry="2.61692926"></ellipse>
            <ellipse id="Oval-17" sketch:type="MSShapeGroup" cx="10.5757576" cy="35.9733086" rx="2.57575758" ry="2.61692926"></ellipse>
            <ellipse id="Oval-16" opacity="0.2" sketch:type="MSShapeGroup" cx="17.7878788" cy="36.0444891" rx="2.57575758" ry="2.61692926"></ellipse>
            <ellipse id="Oval-15" opacity="0.2" sketch:type="MSShapeGroup" cx="25" cy="36.0444891" rx="2.57575758" ry="2.61692926"></ellipse>
            <ellipse id="Oval-15" opacity="0.2" sketch:type="MSShapeGroup" cx="25" cy="43.371891" rx="2.57575758" ry="2.61692926"></ellipse>
            <ellipse id="Oval-14" opacity="0.2" sketch:type="MSShapeGroup" cx="32.2121212" cy="36.0444891" rx="2.57575758" ry="2.61692926"></ellipse>
            <ellipse id="Oval-14" sketch:type="MSShapeGroup" cx="39.4242424" cy="36.0444891" rx="2.57575758" ry="2.61692926"></ellipse>
        </g>
    </g>
</svg>
