<svg width="16" height="16" viewBox="0 0 16 16" fill="none" xmlns="http://www.w3.org/2000/svg">
  <path d="M1.79978 6.86661C1.65041 7.01583 1.53192 7.19302 1.45107 7.38806C1.37023 7.58309 1.32861 7.79215 1.32861 8.00328C1.32861 8.21441 1.37023 8.42347 1.45107 8.61851C1.53192 8.81354 1.65041 8.99073 1.79978 9.13995L6.85978 14.1999C7.00899 14.3493 7.18618 14.4678 7.38122 14.5487C7.57626 14.6295 7.78531 14.6711 7.99644 14.6711C8.20757 14.6711 8.41663 14.6295 8.61167 14.5487C8.80671 14.4678 8.9839 14.3493 9.13311 14.1999L14.1931 9.13995C14.3425 8.99073 14.461 8.81354 14.5418 8.61851C14.6227 8.42347 14.6643 8.21441 14.6643 8.00328C14.6643 7.79215 14.6227 7.58309 14.5418 7.38806C14.461 7.19302 14.3425 7.01583 14.1931 6.86661L9.13311 1.80661C8.9839 1.65725 8.80671 1.53875 8.61167 1.45791C8.41663 1.37706 8.20757 1.33545 7.99644 1.33545C7.78531 1.33545 7.57626 1.37706 7.38122 1.45791C7.18618 1.53875 7.00899 1.65725 6.85978 1.80661L1.79978 6.86661Z" stroke="black" stroke-width="1.33333" stroke-linecap="round" stroke-linejoin="round"/>
</svg>
