<svg xmlns="http://www.w3.org/2000/svg" width="96" height="96" fill="none" viewBox="0 0 96 96"><rect width="96" height="96" fill="#071722" fill-opacity=".02" rx="48"/><path fill="#92999E" fill-rule="evenodd" d="M34 33.625C32.6883 33.625 31.625 34.6883 31.625 36V59.5284C31.625 61.3924 33.136 62.9034 35 62.9034H61.8361C63.7001 62.9034 65.2111 61.3924 65.2111 59.5284V41.1371C65.2111 39.8254 64.1478 38.7621 62.8361 38.7621H49.6421C49.4764 38.7621 49.3174 38.6963 49.2002 38.5791L44.2461 33.625H34ZM30.375 36C30.375 33.998 31.998 32.375 34 32.375H44.505C44.6708 32.375 44.8298 32.4408 44.947 32.5581L49.901 37.5121H62.8361C64.8382 37.5121 66.4611 39.1351 66.4611 41.1371V59.5284C66.4611 62.0827 64.3904 64.1534 61.8361 64.1534H35C32.4457 64.1534 30.375 62.0827 30.375 59.5284V36Z" clip-rule="evenodd"/><path fill="#fff" d="M35.5504 46.1558C35.8961 44.8363 37.0884 43.916 38.4525 43.916H68.4087C69.7191 43.916 70.6754 45.1552 70.3434 46.4228L66.4496 61.2882C66.1039 62.6078 64.9116 63.5281 63.5475 63.5281H34.887C32.9214 63.5281 31.4869 61.6694 31.9849 59.7679L35.5504 46.1558Z"/><path fill="#92999E" fill-rule="evenodd" d="M34.9458 45.9975C35.3635 44.403 36.8042 43.291 38.4525 43.291H68.4086C70.1285 43.291 71.3838 44.9174 70.948 46.5812L67.0541 61.4466C66.6365 63.0411 65.1957 64.1531 63.5475 64.1531H34.887C32.5119 64.1531 30.7785 61.9071 31.3803 59.6095L34.9458 45.9975ZM38.4525 44.541C37.3726 44.541 36.4286 45.2696 36.155 46.3142L32.5895 59.9263C32.1952 61.4316 33.3309 62.9031 34.887 62.9031H63.5475C64.6274 62.9031 65.5713 62.1745 65.8449 61.1299L69.7388 46.2644C69.967 45.3929 69.3095 44.541 68.4086 44.541H38.4525Z" clip-rule="evenodd"/><circle cx="66" cy="60" r="9" fill="#fff" stroke="#fff" stroke-width="2"/><path fill="var(--mb-color-error)" fill-rule="evenodd" d="M72 60C72 63.3137 69.3137 66 66 66C64.7042 66 63.5044 65.5892 62.5236 64.8908L70.8908 56.5236C71.5892 57.5044 72 58.7042 72 60ZM61.1093 63.4766L69.4766 55.1093C68.4958 54.4108 67.2959 54 66 54C62.6863 54 60 56.6863 60 60C60 61.2959 60.4108 62.4958 61.1093 63.4766ZM74 60C74 64.4183 70.4183 68 66 68C61.5817 68 58 64.4183 58 60C58 55.5817 61.5817 52 66 52C70.4183 52 74 55.5817 74 60Z" clip-rule="evenodd"/></svg>