<svg height="202" viewBox="0 0 198 202" width="198" xmlns="http://www.w3.org/2000/svg"><g fill="none" fill-rule="evenodd" transform="translate(2 2)"><g transform="translate(10)"><path d="m113.382413 151.888668 26.779141 46.520875" stroke="#dce1e4" stroke-width="3.976143"/><rect fill="#f8f9fa" height="118.88668" rx="1.590457" stroke="#dce1e4" stroke-width="1.192843" width="174.959714" x="-.281493" y="18.091451"/><g fill="#edf0f1"><path d="m164.335086 81.2732123 2.654651 4.1237479h-5.309301z" transform="matrix(-.70710678 -.70710678 .70710678 -.70710678 221.610735 258.464344)"/><path d="m154.335086 128.273212 2.654651 4.123748h-5.309301z" transform="matrix(-.70710678 -.70710678 .70710678 -.70710678 171.305649 331.627295)"/><path d="m9.33984893 113.149924 5.30506977 5.608204h-10.61013951z" transform="matrix(.57357644 -.81915204 .81915204 .57357644 -91.001246 57.096285)"/><path d="m33.3398489 35.1499235 5.3050698 5.6082041h-10.6101395z" transform="matrix(-.22495105 .97437006 -.97437006 -.22495105 77.82095 14.006473)"/><path d="m156.339849 69.1499235 5.30507 5.6082041h-10.61014z" transform="matrix(.70710678 .70710678 -.70710678 .70710678 96.670061 -89.474121)"/><path d="m57.5271892 121.713152 2.6546502 4.123748h-5.3093005z" transform="matrix(-.70710678 -.70710678 .70710678 -.70710678 10.682894 251.975052)"/></g><path d="m56.8486708 154.671968-23.605317 44.333996" stroke="#dce1e4" stroke-width="3.976143"/><path d="m86.9880716 155.467197v38.137197" stroke="#dce1e4" stroke-width="3.976143"/><path d="m113.382413 151.888668 6.824761 11.856013" opacity=".5" stroke="#bcc5ca" stroke-width="3.976143"/><path d="m56.8486708 154.671968-5.2778319 9.912486" opacity=".5" stroke="#bcc5ca" stroke-width="3.976143"/><path d="m86.9880716 155.467197v18.139999" opacity=".5" stroke="#bcc5ca" stroke-width="3.976143"/><rect fill="#edf0f1" height="80.715706" rx=".795229" width="134.887526" x="21.754601" y="41.568589"/><rect fill="#fff" height="81.908549" rx=".795229" stroke="#dce1e4" stroke-width="1.192843" width="136.080369" x="19.15818" y="37.972167"/><rect fill="#dce1e4" height="13.916501" rx=".795229" stroke="#dce1e4" stroke-width="1.192843" width="5.953579" x="84.221574" y="-.596421"/><rect fill="#dce1e4" height="18.687873" rx="2.385686" width="49.194274" x="62.601227" y="13.133201"/><rect fill="#f8f9fa" height="19.880716" rx="2.385686" stroke="#dce1e4" stroke-width="1.192843" width="50.387117" x="62.004806" y="10.536779"/></g><g stroke="#dce1e4"><rect fill="#f8f9fa" height="19.085487" rx=".795229" stroke-width="1.192843" width="195.192843" x="-.596421" y="135.785288"/><path d="m78.5 15.5h15.0332964" stroke-linecap="square" stroke-width="2"/><path d="m97.125 15.5h3.758324" stroke-linecap="square" stroke-width="2"/></g></g></svg>