<svg width="31" height="41" viewBox="0 0 31 41" fill="none" xmlns="http://www.w3.org/2000/svg">
<path d="M30.336 0.169922C24.866 0.169922 18.769 4.56392 18.769 9.98392V11.1199C17.6041 10.8303 16.4093 10.6773 15.209 10.6639C12.2073 10.6558 9.27065 11.5385 6.77087 13.2003C4.2711 14.8621 2.3206 17.2282 1.16631 19.9991C0.01202 22.7701 -0.294158 25.8212 0.286546 28.7662C0.867249 31.7112 2.30871 34.4177 4.42846 36.5431C6.5482 38.6684 9.2509 40.1171 12.1944 40.7055C15.1379 41.294 18.1898 40.9959 20.9637 39.8489C23.7377 38.702 26.109 36.7577 27.7773 34.2623C29.4457 31.767 30.3362 28.8327 30.336 25.8309C30.336 25.6309 30.344 25.4309 30.336 25.2309V0.169922ZM15.196 32.2759C13.9393 32.2651 12.714 31.8825 11.6744 31.1764C10.6347 30.4703 9.82735 29.4724 9.35395 28.3082C8.88054 27.1441 8.7623 25.8658 9.01411 24.6346C9.26592 23.4034 9.87652 22.2742 10.769 21.3894C11.6614 20.5046 12.7958 19.9037 14.0291 19.6625C15.2625 19.4213 16.5397 19.5505 17.6997 20.034C18.8597 20.5174 19.8507 21.3333 20.5478 22.3789C21.2449 23.4246 21.617 24.6532 21.617 25.9099C21.608 27.6051 20.9269 29.2274 19.7231 30.4209C18.5193 31.6144 16.8911 32.2815 15.196 32.2759Z" fill="url(#paint0_linear)"/>
<defs>
<linearGradient id="paint0_linear" x1="30.643" y1="31.7723" x2="5.20568" y2="17.5758" gradientUnits="userSpaceOnUse">
<stop stop-color="#00C8FF"/>
<stop offset="0.3" stop-color="#078BE2"/>
<stop offset="1" stop-color="#1700A2"/>
</linearGradient>
</defs>
</svg>
