<svg width="97" height="98" viewBox="0 0 97 98" fill="none" xmlns="http://www.w3.org/2000/svg"><path opacity=".1" fill-rule="evenodd" clip-rule="evenodd" d="M25 2a2 2 0 0 1 2-2h16a2 2 0 0 1 2 2v16a2 2 0 0 1-2 2H27a2 2 0 0 1-2-2V2zm0 26a2 2 0 0 1 2-2h16a2 2 0 0 1 2 2v16a2 2 0 0 1-2 2H27a2 2 0 0 1-2-2V28zm28-2a2 2 0 0 0-2 2v16a2 2 0 0 0 2 2h16a2 2 0 0 0 2-2V28a2 2 0 0 0-2-2H53zM25 54a2 2 0 0 1 2-2h16a2 2 0 0 1 2 2v16a2 2 0 0 1-2 2H27a2 2 0 0 1-2-2V54zm2 24a2 2 0 0 0-2 2v16a2 2 0 0 0 2 2h16a2 2 0 0 0 2-2V80a2 2 0 0 0-2-2H27zM0 80a2 2 0 0 1 2-2h16a2 2 0 0 1 2 2v16a2 2 0 0 1-2 2H2a2 2 0 0 1-2-2V80zm2-28a2 2 0 0 0-2 2v16a2 2 0 0 0 2 2h16a2 2 0 0 0 2-2V54a2 2 0 0 0-2-2H2zM0 28a2 2 0 0 1 2-2h16a2 2 0 0 1 2 2v16a2 2 0 0 1-2 2H2a2 2 0 0 1-2-2V28zm53 50a2 2 0 0 0-2 2v16a2 2 0 0 0 2 2h16a2 2 0 0 0 2-2V80a2 2 0 0 0-2-2H53zm24 2a2 2 0 0 1 2-2h16a2 2 0 0 1 2 2v16a2 2 0 0 1-2 2H79a2 2 0 0 1-2-2V80zm2-28a2 2 0 0 0-2 2v16a2 2 0 0 0 2 2h16a2 2 0 0 0 2-2V54a2 2 0 0 0-2-2H79zm-2-24a2 2 0 0 1 2-2h16a2 2 0 0 1 2 2v16a2 2 0 0 1-2 2H79a2 2 0 0 1-2-2V28zm2-28a2 2 0 0 0-2 2v16a2 2 0 0 0 2 2h16a2 2 0 0 0 2-2V2a2 2 0 0 0-2-2H79zM51 54a2 2 0 0 1 2-2h16a2 2 0 0 1 2 2v16a2 2 0 0 1-2 2H53a2 2 0 0 1-2-2V54zm2-54a2 2 0 0 0-2 2v16a2 2 0 0 0 2 2h16a2 2 0 0 0 2-2V2a2 2 0 0 0-2-2H53z" fill="#509EE3"/><path fill-rule="evenodd" clip-rule="evenodd" d="M7.5 1a2 2 0 0 0-2 2v4.438a2 2 0 0 0 2 2h4.438a2 2 0 0 0 2-2V3a2 2 0 0 0-2-2H7.5zm2.219 5.625a1.406 1.406 0 1 0 0-2.813 1.406 1.406 0 0 0 0 2.813zM3 10.563a2 2 0 0 0-2 2V17a2 2 0 0 0 2 2h4.438a2 2 0 0 0 2-2v-4.438a2 2 0 0 0-2-2H3zm2.219 5.624a1.406 1.406 0 1 0 0-2.812 1.406 1.406 0 0 0 0 2.813zm5.343-3.625a2 2 0 0 1 2-2H17a2 2 0 0 1 2 2V17a2 2 0 0 1-2 2h-4.438a2 2 0 0 1-2-2v-4.438zm5.626 2.22a1.406 1.406 0 1 1-2.813 0 1.406 1.406 0 0 1 2.813 0z" fill="#509EE3"/></svg>
