<svg width="97" height="98" viewBox="0 0 97 98" fill="none" xmlns="http://www.w3.org/2000/svg"><path fill="#509EE3" fill-rule="evenodd" d="M27 4a2 2 0 0 1 2-2h16a2 2 0 0 1 2 2v16a2 2 0 0 1-2 2H29a2 2 0 0 1-2-2V4Zm0 26a2 2 0 0 1 2-2h16a2 2 0 0 1 2 2v16a2 2 0 0 1-2 2H29a2 2 0 0 1-2-2V30Zm28-2a2 2 0 0 0-2 2v16a2 2 0 0 0 2 2h16a2 2 0 0 0 2-2V30a2 2 0 0 0-2-2H55ZM27 56a2 2 0 0 1 2-2h16a2 2 0 0 1 2 2v16a2 2 0 0 1-2 2H29a2 2 0 0 1-2-2V56Zm2 24a2 2 0 0 0-2 2v16a2 2 0 0 0 2 2h16a2 2 0 0 0 2-2V82a2 2 0 0 0-2-2H29ZM2 82a2 2 0 0 1 2-2h16a2 2 0 0 1 2 2v16a2 2 0 0 1-2 2H4a2 2 0 0 1-2-2V82Zm2-28a2 2 0 0 0-2 2v16a2 2 0 0 0 2 2h16a2 2 0 0 0 2-2V56a2 2 0 0 0-2-2H4ZM2 30a2 2 0 0 1 2-2h16a2 2 0 0 1 2 2v16a2 2 0 0 1-2 2H4a2 2 0 0 1-2-2V30Zm53 50a2 2 0 0 0-2 2v16a2 2 0 0 0 2 2h16a2 2 0 0 0 2-2V82a2 2 0 0 0-2-2H55Zm24 2a2 2 0 0 1 2-2h16a2 2 0 0 1 2 2v16a2 2 0 0 1-2 2H81a2 2 0 0 1-2-2V82Zm2-28a2 2 0 0 0-2 2v16a2 2 0 0 0 2 2h16a2 2 0 0 0 2-2V56a2 2 0 0 0-2-2H81Zm-2-24a2 2 0 0 1 2-2h16a2 2 0 0 1 2 2v16a2 2 0 0 1-2 2H81a2 2 0 0 1-2-2V30Zm2-28a2 2 0 0 0-2 2v16a2 2 0 0 0 2 2h16a2 2 0 0 0 2-2V4a2 2 0 0 0-2-2H81ZM53 56a2 2 0 0 1 2-2h16a2 2 0 0 1 2 2v16a2 2 0 0 1-2 2H55a2 2 0 0 1-2-2V56Zm2-54a2 2 0 0 0-2 2v16a2 2 0 0 0 2 2h16a2 2 0 0 0 2-2V4a2 2 0 0 0-2-2H55Z" clip-rule="evenodd" opacity=".1"/><path fill="#509EE3" fill-rule="evenodd" d="M12.75 2.134a1.5 1.5 0 0 0-1.5 0L3.83 6.418a1.5 1.5 0 0 0-.75 1.299v8.567a1.5 1.5 0 0 0 .75 1.299l7.42 4.283a1.5 1.5 0 0 0 1.5 0l7.419-4.283a1.5 1.5 0 0 0 .75-1.3V7.718a1.5 1.5 0 0 0-.75-1.3l-7.42-4.283ZM5.33 9.31v6.54l5.545 3.202v-6.415L5.33 9.31Zm7.795 9.741 5.544-3.2V9.31l-5.544 3.326v6.414Zm4.301-11.619L12 4.3 6.573 7.432 12 10.688l5.426-3.256Z" clip-rule="evenodd"/></svg>
