<svg width="97" height="98" viewBox="0 0 97 98" fill="none" xmlns="http://www.w3.org/2000/svg">
<g clip-path="url(#clip0_2249_127)">
<path opacity="0.3" fill-rule="evenodd" clip-rule="evenodd" d="M25 2C25 1.46957 25.2107 0.960859 25.5858 0.585786C25.9609 0.210714 26.4696 0 27 0H43C43.5304 0 44.0391 0.210714 44.4142 0.585786C44.7893 0.960859 45 1.46957 45 2V18C45 18.5304 44.7893 19.0391 44.4142 19.4142C44.0391 19.7893 43.5304 20 43 20H27C26.4696 20 25.9609 19.7893 25.5858 19.4142C25.2107 19.0391 25 18.5304 25 18V2ZM25 28C25 27.4696 25.2107 26.9609 25.5858 26.5858C25.9609 26.2107 26.4696 26 27 26H43C43.5304 26 44.0391 26.2107 44.4142 26.5858C44.7893 26.9609 45 27.4696 45 28V44C45 44.5304 44.7893 45.0391 44.4142 45.4142C44.0391 45.7893 43.5304 46 43 46H27C26.4696 46 25.9609 45.7893 25.5858 45.4142C25.2107 45.0391 25 44.5304 25 44V28ZM53 26C52.4696 26 51.9609 26.2107 51.5858 26.5858C51.2107 26.9609 51 27.4696 51 28V44C51 44.5304 51.2107 45.0391 51.5858 45.4142C51.9609 45.7893 52.4696 46 53 46H69C69.5304 46 70.0391 45.7893 70.4142 45.4142C70.7893 45.0391 71 44.5304 71 44V28C71 27.4696 70.7893 26.9609 70.4142 26.5858C70.0391 26.2107 69.5304 26 69 26H53ZM25 54C25 53.4696 25.2107 52.9609 25.5858 52.5858C25.9609 52.2107 26.4696 52 27 52H43C43.5304 52 44.0391 52.2107 44.4142 52.5858C44.7893 52.9609 45 53.4696 45 54V70C45 70.5304 44.7893 71.0391 44.4142 71.4142C44.0391 71.7893 43.5304 72 43 72H27C26.4696 72 25.9609 71.7893 25.5858 71.4142C25.2107 71.0391 25 70.5304 25 70V54ZM27 78C26.4696 78 25.9609 78.2107 25.5858 78.5858C25.2107 78.9609 25 79.4696 25 80V96C25 96.5304 25.2107 97.0391 25.5858 97.4142C25.9609 97.7893 26.4696 98 27 98H43C43.5304 98 44.0391 97.7893 44.4142 97.4142C44.7893 97.0391 45 96.5304 45 96V80C45 79.4696 44.7893 78.9609 44.4142 78.5858C44.0391 78.2107 43.5304 78 43 78H27ZM0 80C0 79.4696 0.210714 78.9609 0.585786 78.5858C0.960859 78.2107 1.46957 78 2 78H18C18.5304 78 19.0391 78.2107 19.4142 78.5858C19.7893 78.9609 20 79.4696 20 80V96C20 96.5304 19.7893 97.0391 19.4142 97.4142C19.0391 97.7893 18.5304 98 18 98H2C1.46957 98 0.960859 97.7893 0.585786 97.4142C0.210714 97.0391 0 96.5304 0 96V80ZM2 52C1.46957 52 0.960859 52.2107 0.585786 52.5858C0.210714 52.9609 0 53.4696 0 54V70C0 70.5304 0.210714 71.0391 0.585786 71.4142C0.960859 71.7893 1.46957 72 2 72H18C18.5304 72 19.0391 71.7893 19.4142 71.4142C19.7893 71.0391 20 70.5304 20 70V54C20 53.4696 19.7893 52.9609 19.4142 52.5858C19.0391 52.2107 18.5304 52 18 52H2ZM0 28C0 27.4696 0.210714 26.9609 0.585786 26.5858C0.960859 26.2107 1.46957 26 2 26H18C18.5304 26 19.0391 26.2107 19.4142 26.5858C19.7893 26.9609 20 27.4696 20 28V44C20 44.5304 19.7893 45.0391 19.4142 45.4142C19.0391 45.7893 18.5304 46 18 46H2C1.46957 46 0.960859 45.7893 0.585786 45.4142C0.210714 45.0391 0 44.5304 0 44V28ZM53 78C52.4696 78 51.9609 78.2107 51.5858 78.5858C51.2107 78.9609 51 79.4696 51 80V96C51 96.5304 51.2107 97.0391 51.5858 97.4142C51.9609 97.7893 52.4696 98 53 98H69C69.5304 98 70.0391 97.7893 70.4142 97.4142C70.7893 97.0391 71 96.5304 71 96V80C71 79.4696 70.7893 78.9609 70.4142 78.5858C70.0391 78.2107 69.5304 78 69 78H53ZM77 80C77 79.4696 77.2107 78.9609 77.5858 78.5858C77.9609 78.2107 78.4696 78 79 78H95C95.5304 78 96.0391 78.2107 96.4142 78.5858C96.7893 78.9609 97 79.4696 97 80V96C97 96.5304 96.7893 97.0391 96.4142 97.4142C96.0391 97.7893 95.5304 98 95 98H79C78.4696 98 77.9609 97.7893 77.5858 97.4142C77.2107 97.0391 77 96.5304 77 96V80ZM79 52C78.4696 52 77.9609 52.2107 77.5858 52.5858C77.2107 52.9609 77 53.4696 77 54V70C77 70.5304 77.2107 71.0391 77.5858 71.4142C77.9609 71.7893 78.4696 72 79 72H95C95.5304 72 96.0391 71.7893 96.4142 71.4142C96.7893 71.0391 97 70.5304 97 70V54C97 53.4696 96.7893 52.9609 96.4142 52.5858C96.0391 52.2107 95.5304 52 95 52H79ZM77 28C77 27.4696 77.2107 26.9609 77.5858 26.5858C77.9609 26.2107 78.4696 26 79 26H95C95.5304 26 96.0391 26.2107 96.4142 26.5858C96.7893 26.9609 97 27.4696 97 28V44C97 44.5304 96.7893 45.0391 96.4142 45.4142C96.0391 45.7893 95.5304 46 95 46H79C78.4696 46 77.9609 45.7893 77.5858 45.4142C77.2107 45.0391 77 44.5304 77 44V28ZM79 0C78.4696 0 77.9609 0.210714 77.5858 0.585786C77.2107 0.960859 77 1.46957 77 2V18C77 18.5304 77.2107 19.0391 77.5858 19.4142C77.9609 19.7893 78.4696 20 79 20H95C95.5304 20 96.0391 19.7893 96.4142 19.4142C96.7893 19.0391 97 18.5304 97 18V2C97 1.46957 96.7893 0.960859 96.4142 0.585786C96.0391 0.210714 95.5304 0 95 0H79ZM51 54C51 53.4696 51.2107 52.9609 51.5858 52.5858C51.9609 52.2107 52.4696 52 53 52H69C69.5304 52 70.0391 52.2107 70.4142 52.5858C70.7893 52.9609 71 53.4696 71 54V70C71 70.5304 70.7893 71.0391 70.4142 71.4142C70.0391 71.7893 69.5304 72 69 72H53C52.4696 72 51.9609 71.7893 51.5858 71.4142C51.2107 71.0391 51 70.5304 51 70V54ZM53 0C52.4696 0 51.9609 0.210714 51.5858 0.585786C51.2107 0.960859 51 1.46957 51 2V18C51 18.5304 51.2107 19.0391 51.5858 19.4142C51.9609 19.7893 52.4696 20 53 20H69C69.5304 20 70.0391 19.7893 70.4142 19.4142C70.7893 19.0391 71 18.5304 71 18V2C71 1.46957 70.7893 0.960859 70.4142 0.585786C70.0391 0.210714 69.5304 0 69 0H53Z" fill="#B7BCBF"/>
<path fill-rule="evenodd" clip-rule="evenodd" d="M10.7501 0.134006C10.522 0.00235388 10.2634 -0.0669556 10.0001 -0.0669556C9.73677 -0.0669556 9.47811 0.00235388 9.25008 0.134006L1.83008 4.41801C1.60205 4.54966 1.4127 4.73901 1.28105 4.96703C1.1494 5.19505 1.08008 5.45371 1.08008 5.71701V14.284C1.08008 14.5473 1.1494 14.806 1.28105 15.034C1.4127 15.262 1.60205 15.4514 1.83008 15.583L9.25008 19.866C9.47811 19.9977 9.73677 20.067 10.0001 20.067C10.2634 20.067 10.522 19.9977 10.7501 19.866L18.1691 15.583C18.3972 15.4513 18.5867 15.2618 18.7184 15.0336C18.85 14.8053 18.9192 14.5465 18.9191 14.283V5.71801C18.9192 5.45454 18.85 5.19567 18.7184 4.96746C18.5867 4.73925 18.3972 4.54974 18.1691 4.41801L10.7491 0.135006L10.7501 0.134006ZM3.33008 7.31001V13.85L8.87508 17.052V10.637L3.33008 7.31001ZM11.1251 17.051L16.6691 13.851V7.31001L11.1251 10.636V17.05V17.051ZM15.4261 5.43201L10.0001 2.30001L4.57308 5.43201L10.0001 8.68801L15.4261 5.43201Z" fill="#509EE3"/>
</g>
<defs>
<clipPath id="clip0_2249_127">
<rect width="97" height="98" fill="white"/>
</clipPath>
</defs>
</svg>
