<svg width="97" height="98" viewBox="0 0 97 98" fill="none" xmlns="http://www.w3.org/2000/svg"><path opacity=".1" fill-rule="evenodd" clip-rule="evenodd" d="M25 2a2 2 0 0 1 2-2h16a2 2 0 0 1 2 2v16a2 2 0 0 1-2 2H27a2 2 0 0 1-2-2V2zm0 26a2 2 0 0 1 2-2h16a2 2 0 0 1 2 2v16a2 2 0 0 1-2 2H27a2 2 0 0 1-2-2V28zm28-2a2 2 0 0 0-2 2v16a2 2 0 0 0 2 2h16a2 2 0 0 0 2-2V28a2 2 0 0 0-2-2H53zM25 54a2 2 0 0 1 2-2h16a2 2 0 0 1 2 2v16a2 2 0 0 1-2 2H27a2 2 0 0 1-2-2V54zm2 24a2 2 0 0 0-2 2v16a2 2 0 0 0 2 2h16a2 2 0 0 0 2-2V80a2 2 0 0 0-2-2H27zM0 80a2 2 0 0 1 2-2h16a2 2 0 0 1 2 2v16a2 2 0 0 1-2 2H2a2 2 0 0 1-2-2V80zm2-28a2 2 0 0 0-2 2v16a2 2 0 0 0 2 2h16a2 2 0 0 0 2-2V54a2 2 0 0 0-2-2H2zM0 28a2 2 0 0 1 2-2h16a2 2 0 0 1 2 2v16a2 2 0 0 1-2 2H2a2 2 0 0 1-2-2V28zm53 50a2 2 0 0 0-2 2v16a2 2 0 0 0 2 2h16a2 2 0 0 0 2-2V80a2 2 0 0 0-2-2H53zm24 2a2 2 0 0 1 2-2h16a2 2 0 0 1 2 2v16a2 2 0 0 1-2 2H79a2 2 0 0 1-2-2V80zm2-28a2 2 0 0 0-2 2v16a2 2 0 0 0 2 2h16a2 2 0 0 0 2-2V54a2 2 0 0 0-2-2H79zm-2-24a2 2 0 0 1 2-2h16a2 2 0 0 1 2 2v16a2 2 0 0 1-2 2H79a2 2 0 0 1-2-2V28zm2-28a2 2 0 0 0-2 2v16a2 2 0 0 0 2 2h16a2 2 0 0 0 2-2V2a2 2 0 0 0-2-2H79zM51 54a2 2 0 0 1 2-2h16a2 2 0 0 1 2 2v16a2 2 0 0 1-2 2H53a2 2 0 0 1-2-2V54zm2-54a2 2 0 0 0-2 2v16a2 2 0 0 0 2 2h16a2 2 0 0 0 2-2V2a2 2 0 0 0-2-2H53z" fill="#509EE3"/><path fill-rule="evenodd" clip-rule="evenodd" d="M15.715.286H4.286a4 4 0 0 0-4 4v11.428a4 4 0 0 0 4 4h11.429a4 4 0 0 0 4-4V4.286a4 4 0 0 0-4-4zm-13.429 4a2 2 0 0 1 2-2h11.429a2 2 0 0 1 2 2v11.428a2 2 0 0 1-2 2H4.286a2 2 0 0 1-2-2V4.286zm5.143-.072H4.215v3.214h3.214V4.214zm4.178 0H8.393v3.214h3.214V4.214zm.965 0h3.214v3.214h-3.214V4.214zM7.429 8.393H4.215v3.214h3.214V8.393zm.964 0h3.214v3.214H8.393V8.393zm7.393 0h-3.214v3.214h3.214V8.393zM4.215 12.57h3.214v3.215H4.215V12.57zm7.393 0H8.393v3.215h3.214V12.57zm.964 0h3.214v3.215h-3.214V12.57z" fill="#509EE3"/></svg>