<svg width="122" height="120" viewBox="0 0 122 120" fill="none" xmlns="http://www.w3.org/2000/svg">
<path d="M121 95L1 95" stroke="#F0F0F0" stroke-width="2" stroke-linecap="round" stroke-linejoin="round"/>
<path d="M7 91L7 95" stroke="#F0F0F0" stroke-width="2" stroke-linecap="round" stroke-linejoin="round"/>
<path d="M33 91L33 95" stroke="#F0F0F0" stroke-width="2" stroke-linecap="round" stroke-linejoin="round"/>
<path d="M36 93L36 95" stroke="#F0F0F0" stroke-width="2" stroke-linecap="round" stroke-linejoin="round"/>
<path d="M68 93L68 95" stroke="#F0F0F0" stroke-width="2" stroke-linecap="round" stroke-linejoin="round"/>
<path d="M48 93L48 95" stroke="#F0F0F0" stroke-width="2" stroke-linecap="round" stroke-linejoin="round"/>
<path d="M71 92L71 95" stroke="#F0F0F0" stroke-width="2" stroke-linecap="round" stroke-linejoin="round"/>
<path d="M30 92L30 95" stroke="#F0F0F0" stroke-width="2" stroke-linecap="round" stroke-linejoin="round"/>
<path d="M11 93L11 95" stroke="#F0F0F0" stroke-width="2" stroke-linecap="round" stroke-linejoin="round"/>
<path d="M24 93L24 95" stroke="#F0F0F0" stroke-width="2" stroke-linecap="round" stroke-linejoin="round"/>
<path d="M84.35 78.49L80.4 93.99L113.38 94.14L84.35 78.49Z" fill="white"/>
<path d="M103.5 89L80.4 93.99L113.38 94.14L103.5 89Z" fill="#F4F4F4" stroke="#F4F4F4" stroke-width="2" stroke-linecap="round" stroke-linejoin="round"/>
<path d="M84.35 78.49L80.4 93.99L113.38 94.14L84.35 78.49Z" stroke="#DCDCDC" stroke-width="2" stroke-linecap="round" stroke-linejoin="round"/>
<path d="M90.12 88.21L74.62 84.26" stroke="#DCDCDC" stroke-width="2" stroke-linecap="round" stroke-linejoin="round"/>
<path d="M42 85.6H61.2L51.6 47.2L42 85.6Z" fill="white"/>
<path d="M56.4 85.6H61.2L51.6 47.2L56.4 85.6Z" fill="#F4F4F4" stroke="#F4F4F4" stroke-width="2.4" stroke-linecap="round" stroke-linejoin="round"/>
<path d="M42 85.6H61.2L51.6 47.2L42 85.6Z" stroke="#DCDCDC" stroke-width="2" stroke-linecap="round" stroke-linejoin="round"/>
<path d="M51.6 76V95.2" stroke="#DCDCDC" stroke-width="2" stroke-linecap="round" stroke-linejoin="round"/>
<path d="M11 87.2H27L19 55.2L11 87.2Z" fill="white"/>
<path d="M23 87.2H27L19 55.2L23 87.2Z" fill="#F4F4F4" stroke="#F4F4F4" stroke-width="2" stroke-linecap="round" stroke-linejoin="round"/>
<path d="M11 87.2H27L19 55.2L11 87.2Z" stroke="#DCDCDC" stroke-width="2" stroke-linecap="round" stroke-linejoin="round"/>
<path d="M19 79.2V95.2" stroke="#DCDCDC" stroke-width="2" stroke-linecap="round" stroke-linejoin="round"/>
</svg>
