<svg width="148" height="109" fill="none" xmlns="http://www.w3.org/2000/svg"><path d="M5 104C1.4 76.4 24.167 51.167 36 42H7.5l-1 .5c-.4 2.8-2.833 3.833-4 4v57l2.5.5Z" fill="#E9F4FE"/><path d="M45.5 42h-35a8 8 0 0 0-8 8v50a8 8 0 0 0 8 8h50a8 8 0 0 0 8-8V71.5" stroke="#509EE3" stroke-width="1.5"/><path d="M68.75 105a3.25 3.25 0 1 1-6.5 0 3.25 3.25 0 0 1 6.5 0ZM7.25 105a3.25 3.25 0 1 1-6.5 0 3.25 3.25 0 0 1 6.5 0ZM8.25 45.5a3.25 3.25 0 1 1-6.5 0 3.25 3.25 0 0 1 6.5 0Z" fill="#fff" stroke="#509EE3" stroke-width="1.5"/><path d="M18.5 41.5v66M52 58H2M68 75H2M35 41.5v66M51 56v52m18-17H2" stroke="#509EE3"/><path d="M21.75 58a3.25 3.25 0 1 1-6.5 0 3.25 3.25 0 0 1 6.5 0Z" fill="#509EE3" stroke="#509EE3" stroke-width="1.5"/><path d="M38.25 91a3.25 3.25 0 1 1-6.5 0 3.25 3.25 0 0 1 6.5 0Z" fill="#fff" stroke="#509EE3" stroke-width="1.5"/><circle cx="51" cy="75" r="3.25" fill="#509EE3" stroke="#509EE3" stroke-width="1.5"/><path d="M53.5 49H85M66 65h19" stroke="#509EE3" stroke-width="1.3" stroke-linecap="round"/><path d="M66 33v32" stroke="#509EE3" stroke-width="1.3"/><path d="M71 64a4 4 0 0 0-7.924-.78l6.57 3.78A3.99 3.99 0 0 0 71 64Z" fill="#509EE3"/><path d="M69.646 67a4 4 0 1 0-6.52-4l-.126.5" stroke="#509EE3" stroke-width="1.5"/><path opacity=".16" d="M43 40c0 20.434 16.79 37 37.5 37 9.917 0 18.794-4.298 25.5-10.5-5.88 4-19.7 10.5-30.5 6.5-3.731-.167-12.555-2.1-20-10.5-3.833-3.667-11.6-14.6-10-29l3.125-13A36.465 36.465 0 0 0 43 40Z" fill="#509EE3"/><path d="m107.436 65.634 4.081-4.233 34.282 32.301a2.89 2.89 0 0 1 .099 4.121 2.992 2.992 0 0 1-4.193.1l-34.269-32.29Z" stroke="#509EE3" stroke-width="1.5" stroke-linejoin="round"/><path d="M119.859 37.37c0 20.217-16.582 36.62-37.054 36.62-20.473 0-37.055-16.403-37.055-36.62C45.75 17.154 62.332.75 82.805.75c20.472 0 37.054 16.404 37.054 36.62Z" stroke="#509EE3" stroke-width="1.5" stroke-linejoin="round"/><path d="M114.751 37.875c0 17.717-14.306 32.075-31.946 32.075S50.86 55.592 50.86 37.875C50.86 20.157 65.165 5.8 82.805 5.8s31.946 14.357 31.946 32.075Z" stroke="#509EE3" stroke-width="1.5" stroke-linejoin="round"/><path d="M108 29c1.307 4.72 1.856 10.608.305 17" stroke="#509EE3" stroke-width="1.5" stroke-linecap="round" stroke-linejoin="round"/><path d="M51 33h26a8 8 0 0 1 8 8v28.5" stroke="#509EE3" stroke-width="1.5"/><path d="M85.75 36a3.25 3.25 0 1 1-6.5 0 3.25 3.25 0 0 1 6.5 0Z" fill="#fff" stroke="#509EE3" stroke-width="1.5"/></svg>
