<svg xmlns="http://www.w3.org/2000/svg" width="121" height="96" fill="none"><g clip-path="url(#a)"><rect width="112.5" height="88.5" x="4.084" y="3.75" stroke="#EEE" stroke-width="7.5" rx="8.25"/><path fill="#C5C7D0" d="M60.334 42.332c3.09 0 5.61 2.52 5.61 5.67 0 3-2.52 5.55-5.61 5.55-3.09 0-5.61-2.55-5.61-5.55 0-3.15 2.52-5.67 5.61-5.67Zm-13.89 29.67c1.89 1.14 6.03-.6 10.8-5.1a72.673 72.673 0 0 1-4.53-5.7 68.977 68.977 0 0 1-7.2-1.08c-1.53 6.42-.96 10.83.93 11.88Zm2.13-17.22-.87-1.53c-.33.87-.66 1.74-.87 2.58.81.18 1.71.33 2.64.48l-.9-1.53Zm19.62-2.28 2.43-4.5-2.43-4.5c-.9-1.59-1.86-3-2.73-4.41-1.62-.09-3.33-.09-5.13-.09-1.8 0-3.51 0-5.13.09-.87 1.41-1.83 2.82-2.73 4.41l-2.43 4.5 2.43 4.5c.9 1.59 1.86 3 2.73 4.41 1.62.09 3.33.09 5.13.09 1.8 0 3.51 0 5.13-.09.87-1.41 1.83-2.82 2.73-4.41Zm-7.86-20.16c-.57.66-1.17 1.35-1.77 2.16h3.54c-.6-.81-1.2-1.5-1.77-2.16Zm0 31.32c.57-.66 1.17-1.35 1.77-2.16h-3.54c.6.81 1.2 1.5 1.77 2.16Zm13.86-39.66c-1.86-1.14-6 .6-10.77 5.1 1.56 1.77 3.09 3.69 4.53 5.7 2.46.24 4.89.6 7.2 1.08 1.53-6.42.96-10.83-.96-11.88Zm-2.1 17.22.87 1.53c.33-.87.66-1.74.87-2.58-.81-.18-1.71-.33-2.64-.48l.9 1.53Zm4.35-21.15c4.41 2.52 4.89 9.15 3.03 16.89 7.62 2.25 13.11 5.97 13.11 11.04 0 5.07-5.49 8.79-13.11 11.04 1.86 7.74 1.38 14.37-3.03 16.89-4.38 2.52-10.35-.36-16.11-5.85-5.76 5.49-11.73 8.37-16.14 5.85-4.38-2.52-4.86-9.15-3-16.89-7.62-2.25-13.11-5.97-13.11-11.04 0-5.07 5.49-8.79 13.11-11.04-1.86-7.74-1.38-14.37 3-16.89 4.41-2.52 10.38.36 16.14 5.85 5.76-5.49 11.73-8.37 16.11-5.85Zm-.87 27.93c1.02 2.25 1.92 4.5 2.67 6.78 6.3-1.89 9.84-4.59 9.84-6.78 0-2.19-3.54-4.89-9.84-6.78-.75 2.28-1.65 4.53-2.67 6.78Zm-30.48 0c-1.02-2.25-1.92-4.5-2.67-6.78-6.3 1.89-9.84 4.59-9.84 6.78 0 2.19 3.54 4.89 9.84 6.78.75-2.28 1.65-4.53 2.67-6.78Zm27 6.78-.9 1.53c.93-.15 1.83-.3 2.64-.48-.21-.84-.54-1.71-.87-2.58l-.87 1.53Zm-8.67 12.12c4.77 4.5 8.91 6.24 10.77 5.1 1.92-1.05 2.49-5.46.96-11.88-2.31.48-4.74.84-7.2 1.08a72.673 72.673 0 0 1-4.53 5.7Zm-14.85-25.68.9-1.53c-.93.15-1.83.3-2.64.48.21.84.54 1.71.87 2.58l.87-1.53Zm8.67-12.12c-4.77-4.5-8.91-6.24-10.8-5.1-1.89 1.05-2.46 5.46-.93 11.88a69.03 69.03 0 0 1 7.2-1.08c1.44-2.01 2.97-3.93 4.53-5.7Z"/></g><defs><clipPath id="a"><path fill="#fff" d="M.334 0h120v96h-120z"/></clipPath></defs></svg>