<svg width="121" height="96" viewBox="0 0 121 96" fill="none" xmlns="http://www.w3.org/2000/svg">
<g clip-path="url(#clip0_17201_1069)">
<rect x="4.08398" y="3.75" width="112.5" height="88.5" rx="8.25" stroke="#EEEEEE" stroke-width="7.5"/>
<g clip-path="url(#clip1_17201_1069)">
<path d="M33.8695 68.9095C32.7775 68.9485 31.9195 68.656 31.2955 68.032C30.6715 67.408 30.3595 66.6085 30.3595 65.6335C30.3595 64.8925 30.5935 64.249 31.0615 63.703C31.4905 63.118 32.134 62.806 32.992 62.767L34.747 62.65C36.463 62.533 37.75 62.0065 38.608 61.0705C39.505 60.0955 39.9535 58.711 39.9535 56.917V30.592C39.9535 29.344 40.2655 28.408 40.8895 27.784C41.5525 27.121 42.4885 26.7895 43.6975 26.7895C44.9065 26.7895 45.823 27.121 46.447 27.784C47.11 28.408 47.4415 29.344 47.4415 30.592V56.8585C47.4415 59.3155 46.993 61.402 46.096 63.118C45.238 64.834 43.951 66.1795 42.235 67.1545C40.519 68.0905 38.3935 68.6365 35.8585 68.7925L33.8695 68.9095ZM70.6363 69.085C68.9203 69.085 67.2043 68.9485 65.4883 68.6755C63.7723 68.4415 62.1538 68.071 60.6328 67.564C59.1118 67.018 57.7468 66.355 56.5378 65.575C55.8358 65.107 55.3483 64.5415 55.0753 63.8785C54.8023 63.2155 54.7048 62.572 54.7828 61.948C54.8998 61.285 55.1533 60.7195 55.5433 60.2515C55.9723 59.7445 56.4988 59.4325 57.1228 59.3155C57.7468 59.1985 58.4293 59.374 59.1703 59.842C60.8863 60.856 62.6998 61.597 64.6108 62.065C66.5218 62.533 68.5303 62.767 70.6363 62.767C73.7173 62.767 75.9598 62.26 77.3638 61.246C78.7678 60.193 79.4698 58.8475 79.4698 57.2095C79.4698 55.8445 78.9628 54.772 77.9488 53.992C76.9738 53.212 75.2773 52.5685 72.8593 52.0615L66.4243 50.716C62.7193 49.936 59.9503 48.6295 58.1173 46.7965C56.3233 44.9245 55.4263 42.4675 55.4263 39.4255C55.4263 37.5145 55.8163 35.779 56.5963 34.219C57.3763 32.659 58.4683 31.3135 59.8723 30.1825C61.3153 29.0515 63.0118 28.1935 64.9618 27.6085C66.9508 26.9845 69.1348 26.6725 71.5138 26.6725C73.8538 26.6725 76.0768 26.965 78.1828 27.55C80.2888 28.135 82.1803 28.993 83.8573 30.124C84.4813 30.553 84.8908 31.0795 85.0858 31.7035C85.3198 32.3275 85.3783 32.9515 85.2613 33.5755C85.1443 34.1605 84.8713 34.6675 84.4423 35.0965C84.0133 35.5255 83.4673 35.779 82.8043 35.857C82.1803 35.935 81.4588 35.74 80.6398 35.272C79.1968 34.453 77.7343 33.868 76.2523 33.517C74.7703 33.166 73.1713 32.9905 71.4553 32.9905C69.6613 32.9905 68.1208 33.244 66.8338 33.751C65.5468 34.258 64.5523 34.9795 63.8503 35.9155C63.1873 36.8125 62.8558 37.885 62.8558 39.133C62.8558 40.537 63.3238 41.668 64.2598 42.526C65.1958 43.345 66.7948 43.9885 69.0568 44.4565L75.4333 45.802C79.2943 46.621 82.1608 47.908 84.0328 49.663C85.9438 51.418 86.8993 53.758 86.8993 56.683C86.8993 58.555 86.5093 60.2515 85.7293 61.7725C84.9883 63.2935 83.8963 64.6 82.4533 65.692C81.0493 66.784 79.3528 67.6225 77.3638 68.2075C75.3748 68.7925 73.1323 69.085 70.6363 69.085Z" fill="#C5C7D0"/>
</g>
</g>
<defs>
<clipPath id="clip0_17201_1069">
<rect width="120" height="96" fill="white" transform="translate(0.333984)"/>
</clipPath>
<clipPath id="clip1_17201_1069">
<rect width="72" height="72" fill="white" transform="translate(24.334 12)"/>
</clipPath>
</defs>
</svg>
