<svg xmlns="http://www.w3.org/2000/svg" width="120" height="96" fill="none"><g clip-path="url(#a)"><rect width="112.5" height="88.5" x="3.75" y="3.75" stroke="#F1F1F1" stroke-width="7.5" rx="8.25"/><path fill="#C5C7D0" d="M60.445 67.868c.61 0 1.055-.446 1.172-1.079C63.281 53.946 65.086 52 77.789 50.594c.656-.07 1.102-.562 1.102-1.172 0-.61-.446-1.078-1.102-1.172-12.703-1.406-14.508-3.351-16.172-16.195C61.5 31.422 61.055 31 60.445 31c-.61 0-1.054.422-1.148 1.055-1.664 12.844-3.492 14.789-16.172 16.195-.68.094-1.125.563-1.125 1.172 0 .61.445 1.102 1.125 1.172 12.656 1.664 14.414 3.375 16.172 16.195.094.633.539 1.079 1.148 1.079ZM90 34c.264 0 .457-.194.508-.468.722-5.574 1.505-6.418 7.014-7.029.285-.03.478-.244.478-.508 0-.265-.193-.468-.478-.509-5.51-.61-6.292-1.454-7.014-7.028-.05-.275-.244-.458-.508-.458-.265 0-.457.183-.498.458-.722 5.574-1.515 6.418-7.014 7.028-.295.041-.488.244-.488.509 0 .264.193.478.488.508 5.489.723 6.251 1.465 7.014 7.029.04.274.234.468.498.468ZM92 77c.198 0 .343-.145.381-.351.541-4.18 1.129-4.814 5.26-5.271a.383.383 0 0 0 .359-.382c0-.198-.145-.35-.359-.381-4.132-.458-4.719-1.091-5.26-5.272-.038-.206-.183-.343-.381-.343-.199 0-.343.137-.374.343-.54 4.18-1.136 4.814-5.26 5.272-.221.03-.366.183-.366.381 0 .199.145.359.366.382 4.117.541 4.689 1.098 5.26 5.27.031.207.176.352.374.352ZM28 39c.198 0 .343-.145.381-.351.541-4.18 1.128-4.814 5.26-5.271a.383.383 0 0 0 .359-.382c0-.199-.145-.35-.358-.381-4.133-.458-4.72-1.091-5.26-5.272-.039-.206-.184-.343-.382-.343-.199 0-.343.137-.374.343-.54 4.18-1.136 4.814-5.26 5.272-.221.03-.366.183-.366.381 0 .199.145.359.366.382 4.117.541 4.689 1.098 5.26 5.27.031.207.176.352.374.352Z"/></g><defs><clipPath id="a"><path fill="#fff" d="M0 0h120v96H0z"/></clipPath></defs></svg>