<svg xmlns="http://www.w3.org/2000/svg" width="120" height="96" fill="none"><g clip-path="url(#a)"><rect width="112.5" height="88.5" x="3.75" y="3.75" stroke="#F1F1F1" stroke-width="7.5" rx="8.25"/><path fill="#D0D0D0" d="M42 57h27v27H48a6 6 0 0 1-6-6V57ZM75 57h30v21a6 6 0 0 1-6 6H75V57ZM42 36a6 6 0 0 1 6-6h51a6 6 0 0 1 6 6v15H42V36Z"/><path fill="#F1F1F1" d="M15 18a6 6 0 0 1 6-6h78a6 6 0 0 1 6 6v6H15v-6ZM15 30h18v54H21a6 6 0 0 1-6-6V30Z"/></g><defs><clipPath id="a"><path fill="#fff" d="M0 0h120v96H0z"/></clipPath></defs></svg>