<svg xmlns="http://www.w3.org/2000/svg" viewBox="0 0 819 819"><g clip-path="url(#a)"><path fill-rule="evenodd" d="M401.85 812.36c2.04.02 4.07.5 6.09 1.43 2.02.94 3.94 2.32 5.77 4.14a20.3 20.3 0 0 1 4.16 5.8 15 15 0 0 1 1.45 6.1c.05 2.04-.36 4.04-1.22 6.02a17.8 17.8 0 0 1-3.85 5.52 18.1 18.1 0 0 1-5.57 3.9 14.5 14.5 0 0 1-6.04 1.24 15.6 15.6 0 0 1-6.1-1.45 20.3 20.3 0 0 1-5.8-4.16 20.2 20.2 0 0 1-4.14-5.77 15.3 15.3 0 0 1-1.43-6.09c-.01-2.04.41-4.04 1.27-6.02a18.1 18.1 0 0 1 3.9-5.56c1.71-1.72 3.55-3 5.52-3.85a14.3 14.3 0 0 1 6-1.25Zm-1 7.06c-2.23-.39-4.3.38-6.24 2.31-1.96 1.96-2.75 4.08-2.38 6.36.38 2.25 1.81 4.62 4.3 7.1 2.5 2.5 4.86 3.93 7.1 4.3 2.26.35 4.36-.46 6.32-2.42 1.93-1.93 2.71-4 2.33-6.22-.36-2.23-1.8-4.6-4.3-7.1s-4.88-3.95-7.13-4.33m-408.41-7.76c2.03.01 4.06.49 6.08 1.42 2.02.94 3.95 2.32 5.77 4.14a20.3 20.3 0 0 1 4.17 5.8 15 15 0 0 1 1.44 6.1c.05 2.04-.36 4.05-1.22 6.02a17.8 17.8 0 0 1-3.84 5.52 18.1 18.1 0 0 1-5.57 3.9c-1.98.86-3.99 1.27-6.04 1.24a15.6 15.6 0 0 1-6.11-1.45 20.3 20.3 0 0 1-5.8-4.16 20.2 20.2 0 0 1-4.13-5.77 15.2 15.2 0 0 1-1.43-6.09c-.01-2.03.4-4.04 1.27-6.01a18.1 18.1 0 0 1 3.89-5.57c1.72-1.72 3.56-3 5.52-3.85a14.3 14.3 0 0 1 6-1.24m-1 7.06c-2.23-.4-4.31.37-6.24 2.3-1.97 1.97-2.76 4.09-2.38 6.36.38 2.25 1.81 4.62 4.3 7.1 2.49 2.5 4.86 3.93 7.1 4.3 2.25.35 4.36-.45 6.32-2.41 1.93-1.93 2.7-4 2.33-6.23-.36-2.23-1.8-4.6-4.3-7.1s-4.88-3.95-7.13-4.32m819.83-7.06c2.03.01 4.06.49 6.08 1.42 2.02.94 3.95 2.32 5.77 4.14a20.3 20.3 0 0 1 4.17 5.8 15 15 0 0 1 1.45 6.1c.04 2.04-.37 4.05-1.23 6.02a17.8 17.8 0 0 1-3.84 5.52 18.1 18.1 0 0 1-5.57 3.9 14.5 14.5 0 0 1-6.04 1.24 15.6 15.6 0 0 1-6.11-1.45 20.3 20.3 0 0 1-5.8-4.16 20.2 20.2 0 0 1-4.13-5.77 15.3 15.3 0 0 1-1.43-6.09c-.02-2.03.4-4.04 1.27-6.02a18.1 18.1 0 0 1 3.89-5.56c1.72-1.72 3.56-3 5.52-3.85a14.35 14.35 0 0 1 6-1.24m-1 7.06c-2.23-.4-4.31.37-6.25 2.3-1.96 1.97-2.75 4.08-2.37 6.36.38 2.25 1.81 4.62 4.3 7.1 2.49 2.5 4.86 3.93 7.1 4.3 2.25.35 4.36-.45 6.32-2.41 1.93-1.94 2.7-4.01 2.33-6.23-.36-2.23-1.8-4.6-4.3-7.1s-4.88-3.95-7.13-4.32m-386.8-32.95c1.58-.53 3.26-.67 5.02-.41 1.77.23 3.6.88 5.48 1.95a25.8 25.8 0 0 1 5.68 4.4 22.5 22.5 0 0 1 4.12 5.53 16.5 16.5 0 0 1 1.83 5.86c.23 1.95.03 3.85-.59 5.7a13 13 0 0 1-3.21 5.03c-1.3 1.3-2.6 2.2-3.92 2.73-1.32.52-2.7.78-4.14.8l9.5 9.5-5.58 5.59-30.8-30.8 3.42-3.41c.72-.73 1.54-.87 2.44-.41l2.6 1.7c-.12-2.03.1-3.97.64-5.84a12.3 12.3 0 0 1 3.26-5.25 10.7 10.7 0 0 1 4.25-2.67m3.4 7.24c-1-.18-1.93-.12-2.79.2q-1.26.45-2.37 1.56a7.9 7.9 0 0 0-2.22 3.71c-.33 1.3-.42 2.76-.25 4.37l10.4 10.4c1.41.14 2.64 0 3.7-.42a8.8 8.8 0 0 0 2.92-1.97 7.6 7.6 0 0 0 1.8-2.76c.37-1 .46-2.05.28-3.17a10 10 0 0 0-1.34-3.55 20 20 0 0 0-3.12-3.9 21 21 0 0 0-3.78-3.1 9.2 9.2 0 0 0-3.24-1.37Zm-412.81-7.95c1.58-.53 3.25-.66 5.02-.4a15 15 0 0 1 5.47 1.94 25.8 25.8 0 0 1 5.68 4.41 22.5 22.5 0 0 1 4.12 5.52 16.5 16.5 0 0 1 1.84 5.86c.22 1.95.03 3.85-.6 5.7a13 13 0 0 1-3.2 5.03c-1.3 1.3-2.6 2.2-3.92 2.74-1.33.5-2.7.77-4.14.79l9.5 9.5-5.59 5.6-30.8-30.8 3.42-3.42c.73-.73 1.54-.86 2.45-.41l2.6 1.7c-.12-2.02.1-3.97.63-5.84a12.3 12.3 0 0 1 3.26-5.25 10.7 10.7 0 0 1 4.26-2.67m3.39 7.24c-1-.18-1.92-.11-2.78.2-.85.3-1.64.83-2.38 1.57a7.9 7.9 0 0 0-2.22 3.7c-.33 1.3-.41 2.76-.25 4.37l10.41 10.41c1.4.14 2.64 0 3.7-.43a8.8 8.8 0 0 0 2.91-1.97 7.6 7.6 0 0 0 1.81-2.76c.36-1 .45-2.05.27-3.16a10 10 0 0 0-1.33-3.56 20 20 0 0 0-3.13-3.89 21 21 0 0 0-3.77-3.1 9.2 9.2 0 0 0-3.24-1.38m815.43-7.24c1.59-.53 3.26-.66 5.03-.4a15 15 0 0 1 5.48 1.94 25.8 25.8 0 0 1 5.67 4.41 22.5 22.5 0 0 1 4.12 5.52 16.5 16.5 0 0 1 1.84 5.86q.33 2.925-.6 5.7a13 13 0 0 1-3.2 5.03c-1.3 1.3-2.6 2.2-3.92 2.74-1.33.5-2.7.77-4.14.79l9.5 9.5-5.59 5.59-30.8-30.8 3.42-3.41c.73-.73 1.54-.86 2.45-.41l2.6 1.7c-.12-2.03.1-3.97.63-5.84a12.3 12.3 0 0 1 3.26-5.25 10.7 10.7 0 0 1 4.25-2.67m3.4 7.24c-1-.18-1.92-.11-2.78.2-.85.3-1.64.83-2.38 1.57a7.9 7.9 0 0 0-2.22 3.7c-.33 1.3-.41 2.76-.25 4.37l10.41 10.41c1.4.14 2.64 0 3.7-.43a8.8 8.8 0 0 0 2.91-1.97 7.6 7.6 0 0 0 1.81-2.76c.36-1 .45-2.05.27-3.16a10 10 0 0 0-1.33-3.56 20 20 0 0 0-3.13-3.89 21 21 0 0 0-3.77-3.1 9.2 9.2 0 0 0-3.24-1.38" clip-rule="evenodd"/><path d="M461.27 747.7c1.4-.61 2.8-.88 4.24-.8 1.43.07 2.86.48 4.3 1.22 1.44.73 2.87 1.79 4.27 3.2l14.78 14.77-5.6 5.59-14.77-14.78c-1.48-1.48-2.9-2.26-4.3-2.35-1.4-.1-2.73.47-3.98 1.72a5.5 5.5 0 0 0-1.74 4.05c0 .72.17 1.47.52 2.24s.88 1.51 1.6 2.24l14.78 14.77-5.61 5.61-14.78-14.77c-1.55-1.55-3-2.37-4.34-2.44-1.33-.1-2.6.46-3.8 1.67a6.4 6.4 0 0 0-1.68 2.9c-.3 1.08-.4 2.28-.31 3.57l16.99 17-5.59 5.58-23.21-23.21 3.41-3.42c.73-.72 1.54-.86 2.45-.4l2.08 1.35c-.05-.86-.04-1.7.02-2.51a10.77 10.77 0 0 1 3.12-6.83 7.56 7.56 0 0 1 4.8-2.4c1.73-.17 3.5.17 5.27 1.01a10.3 10.3 0 0 1-.18-6.47c.3-1 .73-1.93 1.29-2.82a14.3 14.3 0 0 1 5.97-5.3Zm-409.41-.72c1.39-.6 2.8-.86 4.23-.79 1.43.08 2.87.48 4.3 1.22 1.45.73 2.87 1.8 4.28 3.2l14.77 14.77-5.59 5.59-14.77-14.78c-1.48-1.48-2.91-2.26-4.3-2.35-1.4-.1-2.73.47-3.98 1.72a5.47 5.47 0 0 0-1.74 4.05c0 .72.17 1.47.51 2.24.35.77.89 1.52 1.61 2.24l14.78 14.78-5.62 5.6-14.77-14.77c-1.55-1.55-3-2.37-4.35-2.44-1.32-.1-2.59.47-3.8 1.67a6.4 6.4 0 0 0-1.67 2.9c-.3 1.08-.4 2.28-.32 3.57l17 17-5.6 5.59-23.2-23.22 3.4-3.42c.73-.72 1.55-.86 2.45-.4l2.08 1.35c-.04-.86-.03-1.7.03-2.5a10.78 10.78 0 0 1 3.12-6.83 7.56 7.56 0 0 1 4.8-2.4c1.73-.18 3.49.16 5.27 1a10.3 10.3 0 0 1-.18-6.47q.45-1.485 1.29-2.82c.57-.9 1.23-1.73 1.96-2.47a13.1 13.1 0 0 1 4-2.83Z"/><path fill-rule="evenodd" d="M490.93 722.38c1.78 0 3.58.4 5.39 1.22 1.8.78 3.55 2.01 5.23 3.69.84.84 1.32 1.5 1.44 1.99.11.47-.1.96-.6 1.47L488 745.12a15.8 15.8 0 0 0 3.74 2.46c1.19.53 2.34.81 3.46.84 1.1.01 2.17-.2 3.2-.66 1.02-.48 1.98-1.17 2.89-2.08.9-.9 1.57-1.79 2.01-2.65.45-.87.8-1.68 1.02-2.42.24-.75.44-1.41.59-1.99.16-.59.42-1.05.77-1.4.46-.47.99-.64 1.56-.52l3.64.43c.1 1.34.02 2.65-.25 3.91a17.5 17.5 0 0 1-3.19 6.77 26 26 0 0 1-2.33 2.7 17.8 17.8 0 0 1-5.3 3.7 14.54 14.54 0 0 1-12.3-.22 21.4 21.4 0 0 1-6.27-4.5 18 18 0 0 1-3.69-5.23 15.1 15.1 0 0 1-1.45-5.84c-.07-2 .27-4 1.04-5.97.79-2 2.05-3.86 3.78-5.6a16.1 16.1 0 0 1 4.75-3.34c1.7-.77 3.46-1.15 5.25-1.13Zm-.58 6.2a5.84 5.84 0 0 0-2.7.43c-.9.33-1.77.9-2.6 1.74-1.61 1.61-2.43 3.35-2.44 5.2 0 1.84.71 3.74 2.15 5.68l10.54-10.54a9 9 0 0 0-2.35-1.72 6.7 6.7 0 0 0-2.6-.8Zm-408.83-6.91c1.78 0 3.57.4 5.38 1.22 1.81.78 3.56 2.01 5.23 3.69.85.84 1.33 1.5 1.45 2 .1.46-.1.95-.61 1.46L78.6 744.41a15.7 15.7 0 0 0 3.73 2.47c1.2.52 2.35.8 3.47.83 1.1.02 2.16-.2 3.19-.65 1.02-.49 1.99-1.18 2.9-2.08.9-.91 1.57-1.8 2-2.65.46-.88.8-1.68 1.02-2.42.25-.76.44-1.42.6-2s.42-1.05.76-1.4c.47-.47.99-.64 1.56-.52l3.65.43c.1 1.34.02 2.65-.25 3.92a17.5 17.5 0 0 1-3.2 6.76c-.73.98-1.5 1.88-2.32 2.7a17.8 17.8 0 0 1-5.3 3.7 14.54 14.54 0 0 1-12.3-.22 21.5 21.5 0 0 1-6.28-4.5 18 18 0 0 1-3.68-5.23 15.1 15.1 0 0 1-1.45-5.84c-.08-2 .27-4 1.04-5.97.78-2 2.04-3.86 3.78-5.6a16.1 16.1 0 0 1 4.75-3.34c1.7-.77 3.45-1.15 5.25-1.13m-.59 6.2a5.85 5.85 0 0 0-2.7.43c-.9.33-1.76.91-2.6 1.74-1.6 1.62-2.42 3.35-2.44 5.2 0 1.85.72 3.74 2.15 5.68l10.55-10.54a9 9 0 0 0-2.36-1.72 6.7 6.7 0 0 0-2.6-.8Z" clip-rule="evenodd"/><path d="M512.1 697a9.1 9.1 0 0 1 4.25-.63c1.43.1 2.86.53 4.28 1.29 1.42.72 2.77 1.73 4.07 3.03l14.78 14.78-5.6 5.59-14.77-14.78c-1.41-1.42-2.83-2.19-4.25-2.3-1.43-.14-2.81.45-4.14 1.78a8.2 8.2 0 0 0-2.06 3.37c-.4 1.28-.61 2.68-.61 4.19l16.79 16.79-5.6 5.59-23.2-23.22 3.41-3.42c.72-.72 1.54-.86 2.44-.4l2.22 1.44q0-1.395.18-2.76a12.8 12.8 0 0 1 1.86-5.2c.5-.83 1.14-1.64 1.92-2.42a11.6 11.6 0 0 1 4.03-2.72m-409.42-.7a9.1 9.1 0 0 1 4.26-.64c1.43.1 2.86.54 4.28 1.3 1.41.72 2.77 1.73 4.07 3.02l14.77 14.78-5.59 5.59-14.77-14.78c-1.42-1.41-2.84-2.18-4.26-2.3-1.43-.14-2.8.46-4.14 1.78a8.2 8.2 0 0 0-2.06 3.37c-.4 1.29-.6 2.68-.6 4.2l16.78 16.78-5.59 5.59-23.21-23.22 3.41-3.41c.73-.73 1.54-.86 2.45-.41l2.22 1.45q0-1.41.18-2.76a12.8 12.8 0 0 1 1.85-5.2c.5-.84 1.14-1.65 1.93-2.43a11.6 11.6 0 0 1 4.02-2.71m426.3-16.36 6.2-6.2 3.99 3.98-6.2 6.2 12.58 12.58a3.6 3.6 0 0 0 2.22 1.18c.76.04 1.46-.25 2.08-.86a3.9 3.9 0 0 0 1.08-1.86c.1-.27.17-.51.23-.72a1 1 0 0 1 .27-.55.85.85 0 0 1 .54-.27c.18-.03.42-.02.7.03l4.4 1.04c-.14 1.49-.56 2.94-1.27 4.34s-1.63 2.67-2.76 3.8q-3.03 3.03-6.36 2.97c-2.22-.08-4.33-1.12-6.34-3.13l-12.96-12.96-2.38 2.37c-.3.3-.65.46-1.06.48q-.6.015-1.2-.57l-2.22-2.21 3.12-4.35-5.15-7.51a1.75 1.75 0 0 1-.28-1.13c.05-.38.24-.73.57-1.07l2.9-2.9zm-409.41-.71 6.2-6.2 3.98 3.98-6.2 6.2 12.58 12.58a3.6 3.6 0 0 0 2.22 1.18c.77.04 1.46-.24 2.08-.86a3.9 3.9 0 0 0 1.09-1.86l.22-.72c.05-.23.14-.4.28-.54a.85.85 0 0 1 .54-.27c.18-.04.41-.03.7.02l4.39 1.04c-.14 1.5-.56 2.94-1.27 4.34-.7 1.4-1.63 2.67-2.76 3.8-2.02 2.03-4.14 3.01-6.36 2.97q-3.315-.12-6.33-3.12l-12.97-12.97-2.37 2.38c-.3.3-.66.46-1.07.47-.4.02-.8-.17-1.2-.56l-2.21-2.22 3.12-4.35-5.16-7.5a1.76 1.76 0 0 1-.27-1.14c.05-.38.23-.73.56-1.06l2.9-2.9 7.31 7.3Z"/><path fill-rule="evenodd" d="M282.3 506.27c2.88-.01 5.72.59 8.53 1.8q4.2 1.8 7.8 5.4c2.4 2.4 4.2 5 5.41 7.8 1.2 2.81 1.81 5.66 1.81 8.56s-.62 5.76-1.85 8.6a26.1 26.1 0 0 1-5.6 7.99l-12.46 12.46-32.72-32.72 12.47-12.46a25.7 25.7 0 0 1 8-5.57 21.3 21.3 0 0 1 8.6-1.86Zm-1.13 7.79c-1.9-.1-3.74.22-5.55.97-1.8.74-3.5 1.91-5.09 3.5l-6.36 6.37 23.04 23.03 6.35-6.36c1.6-1.6 2.77-3.3 3.51-5.09a12.6 12.6 0 0 0 1-5.52c-.1-1.9-.61-3.8-1.56-5.68a21.4 21.4 0 0 0-4.12-5.56 21.1 21.1 0 0 0-5.55-4.1q-2.85-1.455-5.67-1.56m411.25-7.79c2.88-.01 5.72.59 8.53 1.8q4.2 1.8 7.8 5.4a25 25 0 0 1 5.41 7.8c1.21 2.81 1.81 5.66 1.81 8.56s-.62 5.76-1.85 8.6a26.1 26.1 0 0 1-5.6 7.99l-12.46 12.46-32.72-32.72 12.47-12.46a25.7 25.7 0 0 1 8.01-5.57 21.3 21.3 0 0 1 8.6-1.86m-1.13 7.79c-1.89-.1-3.74.22-5.55.97-1.8.74-3.49 1.91-5.09 3.5l-6.36 6.37 23.04 23.03 6.36-6.36c1.6-1.6 2.76-3.3 3.5-5.09a12.6 12.6 0 0 0 1-5.52c-.1-1.9-.61-3.8-1.56-5.68a21.4 21.4 0 0 0-4.12-5.56 21.1 21.1 0 0 0-5.54-4.1c-1.9-.97-3.8-1.49-5.68-1.56m-375.35-26.81c1.78 0 3.57.4 5.38 1.22 1.81.78 3.56 2.01 5.23 3.69.84.84 1.33 1.5 1.45 2 .1.46-.1.95-.61 1.46L313.02 510a15.8 15.8 0 0 0 3.73 2.47c1.2.52 2.35.8 3.46.83 1.1.02 2.17-.2 3.2-.65 1.02-.49 1.99-1.18 2.9-2.08.9-.91 1.57-1.8 2-2.65.46-.88.8-1.68 1.02-2.42.25-.76.44-1.42.6-2s.42-1.05.76-1.4c.47-.46.99-.64 1.56-.52l3.65.43c.1 1.35.02 2.65-.25 3.92a17.5 17.5 0 0 1-3.2 6.76 26 26 0 0 1-2.32 2.7 17.8 17.8 0 0 1-5.3 3.7 14.54 14.54 0 0 1-12.3-.22 21.5 21.5 0 0 1-6.28-4.5 18 18 0 0 1-3.68-5.23 15.1 15.1 0 0 1-1.45-5.84c-.08-2 .27-4 1.04-5.97.78-2 2.04-3.86 3.78-5.6a16.1 16.1 0 0 1 4.75-3.34c1.7-.77 3.45-1.15 5.25-1.13Zm-.59 6.2a5.84 5.84 0 0 0-2.7.43c-.9.33-1.76.91-2.6 1.74-1.6 1.62-2.42 3.35-2.44 5.2 0 1.85.72 3.74 2.15 5.69l10.55-10.55a9 9 0 0 0-2.36-1.72 6.65 6.65 0 0 0-2.6-.8Zm410.71-6.2c1.78 0 3.58.4 5.39 1.22 1.8.78 3.55 2.01 5.22 3.69.85.84 1.33 1.5 1.45 1.99.1.47-.1.96-.61 1.47L723.14 510a15.8 15.8 0 0 0 3.74 2.47c1.19.52 2.34.8 3.46.83 1.1.02 2.16-.2 3.19-.65 1.02-.49 1.99-1.18 2.9-2.08.9-.91 1.57-1.8 2-2.65.46-.88.8-1.68 1.03-2.42.24-.76.43-1.42.58-2 .17-.58.43-1.05.77-1.4.47-.46 1-.64 1.57-.52l3.64.43c.1 1.35.02 2.65-.25 3.92a17.5 17.5 0 0 1-3.2 6.76c-.73.98-1.5 1.88-2.32 2.7a17.8 17.8 0 0 1-5.3 3.7 14.54 14.54 0 0 1-12.3-.22 21.5 21.5 0 0 1-6.27-4.5 18 18 0 0 1-3.7-5.23 15.1 15.1 0 0 1-1.44-5.84c-.08-2 .27-4 1.04-5.97.79-2 2.05-3.86 3.78-5.6a16.1 16.1 0 0 1 4.75-3.34c1.7-.77 3.46-1.15 5.25-1.13Zm-.59 6.2a5.84 5.84 0 0 0-2.69.43c-.9.33-1.77.91-2.6 1.74-1.62 1.62-2.43 3.35-2.45 5.2 0 1.85.72 3.74 2.15 5.69l10.55-10.55a9 9 0 0 0-2.35-1.72 6.65 6.65 0 0 0-2.6-.8Z" clip-rule="evenodd"/><path d="m355.4 489.42-5.07 5.07-32.42-14 4.61-4.62c.43-.42.87-.67 1.34-.75.48-.09.92-.03 1.31.18l16.88 7.92a47 47 0 0 1 5.32 3.1c-.55-.84-1.07-1.7-1.59-2.58-.5-.87-1-1.8-1.47-2.78l-7.83-16.97c-.2-.4-.25-.85-.18-1.31.08-.47.3-.9.68-1.27l4.41-4.41zm410.12 0-5.07 5.07-32.42-14 4.62-4.62c.42-.43.86-.67 1.33-.75.48-.09.92-.03 1.31.18l16.88 7.92a47 47 0 0 1 5.32 3.1c-.54-.84-1.07-1.7-1.58-2.58-.52-.87-1-1.8-1.48-2.78l-7.82-16.97c-.2-.4-.26-.85-.19-1.31.08-.47.3-.9.68-1.27l4.42-4.41z"/><path fill-rule="evenodd" d="M363.64 439.54c1.79 0 3.58.4 5.4 1.22 1.8.79 3.54 2.02 5.22 3.7.84.84 1.32 1.5 1.45 1.98.1.47-.1.96-.61 1.47l-14.37 14.37a15.7 15.7 0 0 0 3.73 2.47c1.2.53 2.35.8 3.46.84 1.1.01 2.17-.2 3.2-.66 1.02-.48 1.98-1.18 2.89-2.08.9-.9 1.58-1.79 2.01-2.65.46-.87.8-1.68 1.02-2.42.24-.75.44-1.42.59-2 .17-.58.42-1.05.77-1.4q.705-.69 1.56-.51l3.64.43c.1 1.34.03 2.64-.25 3.91a17.5 17.5 0 0 1-3.19 6.77c-.74.98-1.51 1.87-2.33 2.69a17.8 17.8 0 0 1-5.3 3.7 14.54 14.54 0 0 1-12.3-.22 21.5 21.5 0 0 1-6.27-4.5 18 18 0 0 1-3.69-5.23 15.1 15.1 0 0 1-1.44-5.84c-.08-2 .27-4 1.04-5.97.78-1.99 2.04-3.85 3.77-5.59a16.1 16.1 0 0 1 4.76-3.35c1.7-.77 3.45-1.14 5.25-1.13Zm-.58 6.2a5.85 5.85 0 0 0-2.7.43c-.9.33-1.77.91-2.6 1.74-1.61 1.62-2.43 3.35-2.44 5.2 0 1.85.72 3.74 2.15 5.69L368 448.25a9 9 0 0 0-2.35-1.72 6.7 6.7 0 0 0-2.6-.79Zm410.71-6.2c1.78 0 3.57.4 5.38 1.22 1.81.79 3.56 2.02 5.23 3.7.84.84 1.33 1.5 1.45 1.98.1.47-.1.96-.61 1.47l-14.37 14.37a15.8 15.8 0 0 0 3.73 2.47c1.2.53 2.35.8 3.46.84 1.1.01 2.17-.2 3.2-.66 1.02-.48 1.99-1.18 2.89-2.08s1.58-1.79 2.01-2.65c.46-.87.8-1.68 1.02-2.42.24-.75.44-1.42.6-2s.41-1.05.76-1.4q.705-.69 1.56-.51l3.64.43c.11 1.34.03 2.64-.24 3.91a17.5 17.5 0 0 1-3.2 6.77c-.73.98-1.51 1.87-2.32 2.69a17.8 17.8 0 0 1-5.3 3.7 14.54 14.54 0 0 1-12.31-.22 21.4 21.4 0 0 1-6.27-4.5 18 18 0 0 1-3.69-5.23 15.1 15.1 0 0 1-1.44-5.84c-.08-2 .27-4 1.04-5.97.78-1.99 2.04-3.85 3.78-5.59a16.1 16.1 0 0 1 4.75-3.35c1.7-.77 3.45-1.14 5.25-1.13m-.6 6.2a5.85 5.85 0 0 0-2.68.43c-.9.33-1.78.91-2.6 1.74-1.62 1.62-2.43 3.35-2.45 5.2 0 1.85.72 3.74 2.15 5.69l10.54-10.55a9 9 0 0 0-2.35-1.72 6.7 6.7 0 0 0-2.6-.79Z" clip-rule="evenodd"/><path d="m397.62 447.2-5.6 5.6-33.62-33.63 5.6-5.59 33.62 33.63Zm410.12 0-5.59 5.6-33.62-33.63 5.59-5.59z"/><path fill-rule="evenodd" d="M-8.27 402.24c2.04.02 4.06.5 6.09 1.43 2.02.93 3.94 2.31 5.77 4.14a20.3 20.3 0 0 1 4.16 5.8 15 15 0 0 1 1.45 6.1c.04 2.04-.36 4.04-1.22 6.02a17.8 17.8 0 0 1-3.85 5.52 18.1 18.1 0 0 1-5.57 3.9c-1.97.85-3.99 1.27-6.04 1.24a15.6 15.6 0 0 1-6.1-1.45 20.3 20.3 0 0 1-5.8-4.17 20.2 20.2 0 0 1-4.14-5.76 15.2 15.2 0 0 1-1.43-6.1c-.01-2.03.41-4.03 1.27-6.01a18.1 18.1 0 0 1 3.9-5.57c1.71-1.72 3.55-3 5.51-3.84a14.4 14.4 0 0 1 6-1.25m-1 7.06q-3.345-.585-6.24 2.31c-1.96 1.96-2.75 4.08-2.38 6.36.38 2.24 1.81 4.61 4.3 7.1 2.5 2.5 4.86 3.93 7.1 4.3 2.25.35 4.36-.46 6.32-2.42 1.93-1.93 2.7-4 2.33-6.22-.36-2.23-1.8-4.6-4.3-7.1-2.5-2.51-4.88-3.95-7.13-4.33m411.12-7.06c2.04.02 4.07.5 6.09 1.43s3.94 2.31 5.77 4.14a20.3 20.3 0 0 1 4.16 5.8 15 15 0 0 1 1.45 6.1c.04 2.04-.36 4.04-1.22 6.02a17.8 17.8 0 0 1-3.85 5.52 18.1 18.1 0 0 1-5.57 3.9 14.5 14.5 0 0 1-6.04 1.24 15.6 15.6 0 0 1-6.1-1.45 20.3 20.3 0 0 1-5.8-4.17 20.2 20.2 0 0 1-4.14-5.76 15.3 15.3 0 0 1-1.43-6.1c-.01-2.03.41-4.03 1.27-6.01a18.1 18.1 0 0 1 3.9-5.57c1.71-1.72 3.55-3 5.51-3.84a14.4 14.4 0 0 1 6-1.25m-1 7.06c-2.23-.39-4.3.38-6.24 2.31-1.96 1.96-2.75 4.08-2.38 6.36.38 2.24 1.81 4.61 4.3 7.1 2.5 2.5 4.86 3.93 7.1 4.3 2.26.35 4.36-.46 6.32-2.42 1.93-1.93 2.7-4 2.33-6.22-.36-2.23-1.8-4.6-4.3-7.1-2.5-2.51-4.88-3.95-7.13-4.33m411.12-7.06c2.04.02 4.07.5 6.09 1.43s3.94 2.31 5.77 4.14a20.3 20.3 0 0 1 4.16 5.8 15 15 0 0 1 1.45 6.1c.05 2.04-.36 4.04-1.22 6.02a17.8 17.8 0 0 1-3.85 5.52 18.1 18.1 0 0 1-5.56 3.9 14.5 14.5 0 0 1-6.04 1.24 15.6 15.6 0 0 1-6.12-1.45 20.3 20.3 0 0 1-5.79-4.17 20.2 20.2 0 0 1-4.14-5.76 15.2 15.2 0 0 1-1.42-6.1c-.02-2.03.4-4.04 1.26-6.01a18.1 18.1 0 0 1 3.9-5.57c1.71-1.72 3.56-3 5.52-3.84a14.4 14.4 0 0 1 6-1.25Zm-1 7.06c-2.23-.4-4.3.38-6.24 2.31q-2.94 2.94-2.37 6.36c.37 2.24 1.8 4.61 4.3 7.1 2.48 2.5 4.85 3.93 7.1 4.3 2.25.35 4.35-.46 6.31-2.42 1.93-1.93 2.71-4 2.33-6.22-.36-2.24-1.8-4.6-4.3-7.1-2.5-2.51-4.88-3.95-7.12-4.33ZM13.35 375.64c1.58-.52 3.26-.66 5.02-.4a15 15 0 0 1 5.48 1.94 25.8 25.8 0 0 1 5.68 4.42 22.5 22.5 0 0 1 4.12 5.52 16.5 16.5 0 0 1 1.83 5.86c.22 1.94.03 3.84-.59 5.7a13 13 0 0 1-3.21 5.02c-1.3 1.3-2.6 2.21-3.92 2.74-1.33.51-2.7.78-4.14.8l9.5 9.5-5.58 5.58-30.8-30.79 3.42-3.42c.72-.72 1.54-.86 2.44-.4l2.6 1.7c-.12-2.03.1-3.98.64-5.85a12.3 12.3 0 0 1 3.25-5.25 10.7 10.7 0 0 1 4.26-2.67m3.4 7.25c-1-.19-1.93-.12-2.79.2-.85.3-1.64.82-2.38 1.56a7.9 7.9 0 0 0-2.21 3.71c-.34 1.3-.42 2.75-.25 4.37l10.4 10.4c1.4.14 2.64 0 3.7-.42a8.8 8.8 0 0 0 2.91-1.97 7.6 7.6 0 0 0 1.81-2.76c.36-1 .46-2.05.27-3.17a10 10 0 0 0-1.33-3.55 20 20 0 0 0-3.12-3.9 21 21 0 0 0-3.78-3.1 9.2 9.2 0 0 0-3.24-1.37Zm406.72-7.25c1.58-.52 3.26-.66 5.02-.4a15 15 0 0 1 5.48 1.94 25.8 25.8 0 0 1 5.68 4.42 22.5 22.5 0 0 1 4.12 5.52 16.5 16.5 0 0 1 1.83 5.86c.22 1.94.03 3.84-.59 5.7a12.96 12.96 0 0 1-3.21 5.02c-1.3 1.3-2.6 2.21-3.92 2.74-1.32.51-2.7.78-4.14.8l9.5 9.5-5.58 5.58-30.8-30.79 3.42-3.42c.72-.72 1.54-.86 2.44-.4l2.6 1.7c-.12-2.03.1-3.98.64-5.85a12.3 12.3 0 0 1 3.26-5.25 10.7 10.7 0 0 1 4.25-2.67m3.4 7.25c-1-.19-1.93-.12-2.79.2-.84.3-1.64.82-2.38 1.56a7.9 7.9 0 0 0-2.21 3.71c-.33 1.3-.42 2.75-.25 4.37l10.4 10.4c1.41.14 2.64 0 3.7-.42a8.85 8.85 0 0 0 2.92-1.97 7.6 7.6 0 0 0 1.8-2.76c.37-1 .46-2.05.28-3.17a10 10 0 0 0-1.34-3.55 20 20 0 0 0-3.12-3.9 21 21 0 0 0-3.78-3.1 9.2 9.2 0 0 0-3.24-1.37Zm406.73-7.25c1.57-.52 3.25-.66 5.01-.4 1.77.22 3.6.87 5.48 1.94a25.8 25.8 0 0 1 5.68 4.42 22.5 22.5 0 0 1 4.12 5.52 16.5 16.5 0 0 1 1.83 5.86c.23 1.94.03 3.84-.59 5.7a13 13 0 0 1-3.21 5.02c-1.3 1.3-2.6 2.21-3.91 2.74-1.33.51-2.71.78-4.14.8l9.5 9.5-5.6 5.58-30.79-30.79 3.42-3.42c.72-.72 1.54-.86 2.44-.4l2.6 1.7c-.12-2.03.1-3.98.64-5.85a12.3 12.3 0 0 1 3.26-5.25 10.66 10.66 0 0 1 4.25-2.67Zm3.39 7.25c-1-.19-1.93-.12-2.79.2q-1.26.45-2.37 1.56a7.9 7.9 0 0 0-2.22 3.71c-.33 1.3-.42 2.75-.25 4.37l10.4 10.4c1.41.14 2.64 0 3.7-.42a8.8 8.8 0 0 0 2.92-1.97 7.6 7.6 0 0 0 1.8-2.76c.37-1 .46-2.05.28-3.17a10 10 0 0 0-1.34-3.55 20 20 0 0 0-3.12-3.9 21 21 0 0 0-3.78-3.1 9.2 9.2 0 0 0-3.23-1.38Z" clip-rule="evenodd"/><path d="M51.15 337.57c1.39-.6 2.8-.87 4.23-.8 1.44.08 2.87.49 4.3 1.23 1.45.72 2.88 1.79 4.28 3.19l14.77 14.77-5.58 5.6-14.78-14.78c-1.48-1.48-2.91-2.26-4.3-2.35-1.4-.1-2.73.46-3.98 1.71a5.48 5.48 0 0 0-1.74 4.05c0 .73.17 1.48.52 2.25.34.76.88 1.51 1.6 2.24l14.78 14.77-5.61 5.61-14.78-14.77c-1.55-1.56-3-2.37-4.34-2.45-1.33-.09-2.6.47-3.8 1.68a6.4 6.4 0 0 0-1.68 2.9c-.3 1.08-.4 2.27-.31 3.57l16.99 17-5.59 5.58-23.22-23.21 3.42-3.42c.72-.73 1.54-.86 2.44-.4l2.09 1.35c-.05-.86-.04-1.7.02-2.51a10.75 10.75 0 0 1 3.12-6.83 7.56 7.56 0 0 1 4.8-2.4c1.73-.17 3.49.17 5.27 1.01a10.3 10.3 0 0 1-.18-6.47q.45-1.5 1.29-2.82c.57-.91 1.23-1.73 1.97-2.47a13.1 13.1 0 0 1 4-2.83m410.12 0c1.4-.6 2.8-.87 4.24-.8 1.43.08 2.86.49 4.3 1.23 1.44.72 2.87 1.79 4.27 3.19l14.78 14.77-5.6 5.6-14.77-14.78c-1.48-1.48-2.9-2.26-4.3-2.35-1.4-.1-2.73.46-3.98 1.71a5.48 5.48 0 0 0-1.74 4.05c0 .73.17 1.48.52 2.25.35.76.88 1.51 1.6 2.24l14.78 14.77-5.61 5.61-14.78-14.77c-1.55-1.56-3-2.37-4.34-2.45-1.33-.09-2.6.47-3.8 1.68a6.37 6.37 0 0 0-1.68 2.9c-.3 1.08-.4 2.27-.31 3.57l16.99 17-5.59 5.58-23.21-23.21 3.41-3.42c.73-.73 1.54-.86 2.44-.4l2.09 1.35c-.05-.86-.04-1.7.02-2.51a10.77 10.77 0 0 1 3.12-6.83 7.56 7.56 0 0 1 4.8-2.4c1.73-.17 3.5.17 5.27 1.01a10.32 10.32 0 0 1-.18-6.47q.45-1.5 1.29-2.82a14.33 14.33 0 0 1 5.97-5.3"/><path fill-rule="evenodd" d="M80.81 312.25c1.78 0 3.58.41 5.39 1.23 1.8.78 3.55 2.01 5.22 3.68.85.85 1.33 1.51 1.45 2q.15.69-.6 1.47l-14.38 14.36a15.8 15.8 0 0 0 3.74 2.47c1.19.53 2.34.8 3.46.84 1.1.01 2.16-.2 3.19-.66 1.02-.48 1.99-1.18 2.9-2.08.9-.9 1.57-1.79 2-2.65.46-.87.8-1.68 1.03-2.42.24-.75.43-1.42.59-1.99.16-.59.42-1.06.77-1.4.46-.47.98-.64 1.56-.52l3.64.43c.1 1.34.02 2.64-.25 3.91a17.5 17.5 0 0 1-3.19 6.77c-.74.98-1.52 1.88-2.33 2.69a17.8 17.8 0 0 1-5.3 3.71 14.54 14.54 0 0 1-12.3-.22 21.5 21.5 0 0 1-6.27-4.5 18 18 0 0 1-3.7-5.24A15.1 15.1 0 0 1 66 328.3c-.07-2 .27-4 1.04-5.98.79-1.99 2.05-3.85 3.78-5.59a16 16 0 0 1 4.75-3.35c1.7-.76 3.46-1.14 5.25-1.13Zm-.59 6.2a5.85 5.85 0 0 0-2.69.43c-.9.34-1.77.92-2.6 1.75-1.62 1.61-2.43 3.35-2.45 5.2 0 1.84.72 3.73 2.15 5.68l10.55-10.55a9 9 0 0 0-2.35-1.71 6.7 6.7 0 0 0-2.6-.8Zm410.71-6.2c1.78 0 3.58.41 5.39 1.23 1.8.78 3.55 2.01 5.23 3.68.84.85 1.32 1.51 1.44 2q.15.69-.6 1.47L488 334.99a15.7 15.7 0 0 0 3.74 2.47c1.19.53 2.35.8 3.46.84 1.1.01 2.17-.2 3.2-.66 1.02-.48 1.98-1.18 2.89-2.08.9-.9 1.57-1.79 2.01-2.65.45-.87.8-1.68 1.02-2.42.24-.75.44-1.42.59-1.99.16-.59.42-1.06.77-1.4.46-.47.99-.64 1.56-.52l3.64.43c.1 1.34.02 2.64-.25 3.91a17.5 17.5 0 0 1-3.19 6.77 26 26 0 0 1-2.33 2.69 17.8 17.8 0 0 1-5.3 3.71 14.54 14.54 0 0 1-12.3-.22 21.5 21.5 0 0 1-6.27-4.5 18 18 0 0 1-3.69-5.24 15.1 15.1 0 0 1-1.45-5.83c-.07-2 .27-4 1.04-5.98.79-1.99 2.05-3.85 3.78-5.59a16.1 16.1 0 0 1 4.75-3.35c1.7-.76 3.46-1.14 5.25-1.13Zm-.58 6.2a5.85 5.85 0 0 0-2.7.43c-.9.34-1.77.92-2.6 1.75-1.61 1.61-2.43 3.35-2.44 5.2 0 1.84.71 3.73 2.15 5.68l10.54-10.55a9 9 0 0 0-2.35-1.71 6.7 6.7 0 0 0-2.6-.8" clip-rule="evenodd"/><path d="M101.98 286.88a9.1 9.1 0 0 1 4.25-.63c1.43.1 2.86.53 4.28 1.29 1.41.72 2.77 1.73 4.07 3.03l14.78 14.78-5.6 5.58L109 296.16c-1.42-1.42-2.83-2.19-4.25-2.31-1.44-.14-2.82.46-4.14 1.79a8.2 8.2 0 0 0-2.06 3.37c-.41 1.28-.61 2.68-.61 4.19l16.79 16.79-5.6 5.58-23.2-23.21 3.4-3.42c.73-.72 1.55-.86 2.45-.4l2.22 1.44q0-1.395.18-2.76a12.8 12.8 0 0 1 1.86-5.2c.5-.83 1.13-1.64 1.92-2.42a11.6 11.6 0 0 1 4.03-2.72Zm410.12 0a9.1 9.1 0 0 1 4.25-.63c1.43.1 2.86.53 4.28 1.29 1.42.72 2.77 1.73 4.07 3.03l14.78 14.78-5.6 5.58-14.77-14.77c-1.41-1.42-2.83-2.19-4.25-2.31-1.43-.14-2.81.46-4.14 1.79a8.2 8.2 0 0 0-2.06 3.37c-.4 1.28-.61 2.68-.61 4.19l16.79 16.79-5.6 5.58-23.2-23.21 3.41-3.42c.72-.72 1.54-.86 2.44-.4l2.22 1.44q0-1.395.18-2.76a12.8 12.8 0 0 1 1.86-5.2c.5-.83 1.14-1.64 1.92-2.42a11.6 11.6 0 0 1 4.03-2.72m-393.24-17.07 6.2-6.2 3.98 3.99-6.2 6.2 12.59 12.58a3.6 3.6 0 0 0 2.21 1.17c.77.05 1.47-.24 2.08-.86a3.9 3.9 0 0 0 1.09-1.85c.1-.27.17-.51.23-.72a1 1 0 0 1 .27-.55.85.85 0 0 1 .54-.27c.18-.03.42-.02.7.02l4.4 1.04c-.14 1.5-.57 2.94-1.27 4.35-.71 1.4-1.63 2.67-2.77 3.8-2.02 2.02-4.14 3-6.35 2.96-2.22-.07-4.33-1.11-6.34-3.12l-12.96-12.96-2.38 2.37c-.3.3-.66.46-1.06.48q-.615.015-1.2-.57l-2.22-2.22 3.12-4.34-5.16-7.51a1.76 1.76 0 0 1-.27-1.14c.05-.37.23-.73.57-1.06l2.9-2.9zm410.12 0 6.2-6.2 3.99 3.99-6.2 6.2 12.58 12.58a3.6 3.6 0 0 0 2.21 1.17c.77.05 1.47-.24 2.09-.86a3.9 3.9 0 0 0 1.08-1.85c.1-.27.17-.51.23-.72a1 1 0 0 1 .27-.55.85.85 0 0 1 .54-.27c.18-.03.42-.02.7.02l4.4 1.04c-.14 1.5-.56 2.95-1.27 4.35s-1.63 2.67-2.76 3.8c-2.02 2.02-4.14 3-6.36 2.96-2.22-.07-4.33-1.11-6.34-3.12l-12.96-12.96-2.38 2.37c-.3.3-.65.46-1.06.48q-.6.015-1.2-.57l-2.22-2.22 3.12-4.34-5.15-7.51a1.75 1.75 0 0 1-.28-1.14c.05-.37.24-.73.57-1.06l2.9-2.9z"/><path fill-rule="evenodd" d="M691.71 96.86c2.88-.02 5.73.58 8.53 1.79q4.2 1.8 7.8 5.4c2.4 2.4 4.2 5 5.42 7.81 1.2 2.8 1.8 5.66 1.8 8.55 0 2.9-.61 5.77-1.85 8.6a26.1 26.1 0 0 1-5.59 7.99l-12.47 12.47-32.72-32.72 12.47-12.47a25.6 25.6 0 0 1 8.01-5.57 21.3 21.3 0 0 1 8.6-1.85m-1.13 7.78c-1.89-.1-3.73.22-5.54.98-1.8.73-3.5 1.9-5.1 3.5l-6.35 6.36 23.03 23.04 6.36-6.36c1.6-1.6 2.77-3.3 3.5-5.1a12.6 12.6 0 0 0 1-5.52c-.09-1.9-.6-3.79-1.56-5.67a21.4 21.4 0 0 0-4.12-5.57 21.1 21.1 0 0 0-5.54-4.1c-1.9-.96-3.8-1.48-5.68-1.56M282.3 96.15c2.88-.01 5.72.58 8.53 1.79 2.8 1.2 5.4 3.01 7.8 5.4a25 25 0 0 1 5.41 7.81c1.2 2.8 1.81 5.66 1.81 8.56s-.62 5.76-1.85 8.6a26.1 26.1 0 0 1-5.6 7.98l-12.46 12.47-32.72-32.72 12.47-12.47a25.6 25.6 0 0 1 8-5.56 21.3 21.3 0 0 1 8.6-1.86Zm-1.13 7.79c-1.9-.11-3.74.21-5.55.97-1.8.74-3.5 1.9-5.09 3.5l-6.36 6.37 23.04 23.03 6.35-6.36c1.6-1.6 2.77-3.3 3.51-5.09a12.6 12.6 0 0 0 1-5.52c-.1-1.9-.61-3.8-1.56-5.68a21.4 21.4 0 0 0-4.12-5.57 21.1 21.1 0 0 0-5.55-4.1c-1.9-.96-3.79-1.48-5.67-1.55m444.18-26.11c1.78 0 3.58.41 5.39 1.23 1.8.78 3.55 2.01 5.23 3.68.84.85 1.32 1.51 1.44 2q.15.69-.6 1.47l-14.38 14.37a15.8 15.8 0 0 0 3.74 2.46c1.19.53 2.34.8 3.46.84 1.1.01 2.16-.2 3.2-.66a10.3 10.3 0 0 0 2.89-2.08c.9-.9 1.57-1.79 2.01-2.65.45-.87.8-1.68 1.02-2.42.24-.75.44-1.42.59-1.99.16-.59.42-1.06.77-1.4.47-.47.99-.64 1.56-.52l3.64.43c.1 1.34.02 2.64-.25 3.91a17.5 17.5 0 0 1-3.19 6.77 26 26 0 0 1-2.33 2.69 17.8 17.8 0 0 1-5.3 3.71 14.54 14.54 0 0 1-12.3-.23 21.5 21.5 0 0 1-6.27-4.5 18 18 0 0 1-3.69-5.22 15.1 15.1 0 0 1-1.45-5.84c-.07-2 .27-4 1.04-5.98.79-1.99 2.05-3.85 3.78-5.59a16.1 16.1 0 0 1 4.75-3.34c1.7-.77 3.46-1.15 5.25-1.14m-.59 6.2a5.85 5.85 0 0 0-2.69.43c-.9.34-1.77.92-2.6 1.75-1.61 1.61-2.43 3.35-2.44 5.2 0 1.84.71 3.73 2.15 5.68l10.54-10.54a9 9 0 0 0-2.35-1.72 6.7 6.7 0 0 0-2.6-.8Zm-408.82-6.9c1.78 0 3.57.4 5.38 1.22 1.81.78 3.56 2.01 5.23 3.69.84.84 1.33 1.5 1.45 1.99.1.47-.1.96-.61 1.47l-14.37 14.37a15.7 15.7 0 0 0 3.73 2.46c1.2.53 2.35.81 3.46.84 1.1.02 2.17-.2 3.2-.66a10.3 10.3 0 0 0 2.9-2.08c.9-.9 1.57-1.78 2-2.64q.69-1.32 1.02-2.43c.25-.75.44-1.41.6-1.99s.42-1.05.76-1.4c.47-.47.99-.64 1.56-.52l3.65.43c.1 1.34.02 2.65-.25 3.91a17.5 17.5 0 0 1-3.2 6.77 26 26 0 0 1-2.32 2.7 17.8 17.8 0 0 1-5.3 3.7 14.54 14.54 0 0 1-12.3-.22 21.5 21.5 0 0 1-6.28-4.5 18 18 0 0 1-3.68-5.23 15.1 15.1 0 0 1-1.45-5.84c-.08-2 .27-4 1.04-5.97.78-2 2.04-3.86 3.78-5.6a16.1 16.1 0 0 1 4.75-3.34c1.7-.77 3.45-1.15 5.25-1.13m-.59 6.2a5.85 5.85 0 0 0-2.7.43c-.9.33-1.76.91-2.6 1.74-1.6 1.61-2.42 3.35-2.44 5.2 0 1.84.72 3.74 2.15 5.68l10.55-10.54a9 9 0 0 0-2.36-1.72 6.7 6.7 0 0 0-2.6-.8Z" clip-rule="evenodd"/><path d="m764.82 80-5.07 5.08-32.43-14.01 4.62-4.62c.42-.42.86-.67 1.33-.74.49-.1.92-.03 1.32.18l16.87 7.92a47 47 0 0 1 5.32 3.1 74 74 0 0 1-1.58-2.58c-.51-.88-1-1.8-1.47-2.79l-7.83-16.97c-.2-.4-.26-.84-.18-1.3.07-.48.3-.9.68-1.28l4.4-4.4L764.83 80Zm-409.42-.7-5.07 5.07-32.42-14 4.61-4.62c.43-.43.87-.68 1.34-.75.48-.1.92-.03 1.31.18l16.88 7.92a47 47 0 0 1 5.32 3.1c-.55-.85-1.07-1.7-1.59-2.58-.5-.87-1-1.8-1.47-2.78l-7.83-16.97c-.2-.41-.25-.85-.18-1.32.08-.46.3-.89.68-1.26l4.41-4.42z"/><path fill-rule="evenodd" d="M773.06 30.13c1.78 0 3.58.4 5.39 1.22 1.8.78 3.55 2.01 5.22 3.69.85.84 1.33 1.5 1.45 1.99.1.47-.1.96-.61 1.47l-14.37 14.37a15.8 15.8 0 0 0 3.74 2.46c1.19.53 2.34.81 3.46.84 1.1.02 2.16-.2 3.19-.66 1.02-.48 1.99-1.17 2.9-2.08.9-.9 1.57-1.78 2-2.64.46-.88.8-1.69 1.03-2.43.24-.75.43-1.41.58-1.99.17-.58.43-1.05.77-1.4.47-.47 1-.64 1.57-.52l3.64.43c.1 1.34.02 2.65-.25 3.91a17.5 17.5 0 0 1-3.2 6.77c-.73.98-1.5 1.88-2.32 2.7a17.8 17.8 0 0 1-5.3 3.7 14.55 14.55 0 0 1-12.3-.22 21.4 21.4 0 0 1-6.27-4.5 18 18 0 0 1-3.7-5.23 15.1 15.1 0 0 1-1.44-5.84c-.08-2 .27-4 1.04-5.97.78-2 2.05-3.86 3.78-5.6a16.1 16.1 0 0 1 4.75-3.34c1.7-.77 3.46-1.15 5.25-1.13m-.59 6.2a5.85 5.85 0 0 0-2.7.43c-.9.33-1.76.91-2.6 1.74-1.6 1.61-2.42 3.35-2.44 5.2 0 1.84.72 3.74 2.15 5.68l10.55-10.54a9 9 0 0 0-2.36-1.72 6.7 6.7 0 0 0-2.6-.8Zm-408.83-6.91c1.79 0 3.58.4 5.4 1.22q2.7 1.185 5.22 3.69c.84.85 1.32 1.5 1.45 2 .1.46-.1.95-.61 1.46l-14.37 14.37a15.8 15.8 0 0 0 3.73 2.47c1.2.52 2.35.8 3.46.83 1.1.02 2.17-.2 3.2-.65 1.02-.48 1.98-1.18 2.89-2.08.9-.9 1.58-1.8 2.01-2.65.46-.88.8-1.68 1.02-2.42.24-.76.44-1.42.59-2 .17-.58.42-1.05.77-1.4.47-.46.99-.64 1.56-.52l3.64.43c.1 1.35.03 2.65-.25 3.92a17.5 17.5 0 0 1-3.19 6.76c-.74.98-1.51 1.88-2.33 2.7a17.8 17.8 0 0 1-5.3 3.7 14.55 14.55 0 0 1-12.3-.22 21.4 21.4 0 0 1-6.27-4.5 18 18 0 0 1-3.69-5.23 15.1 15.1 0 0 1-1.44-5.84c-.08-2 .27-4 1.04-5.97.78-2 2.04-3.85 3.77-5.59a16.1 16.1 0 0 1 4.76-3.35c1.7-.77 3.45-1.14 5.25-1.13Zm-.58 6.2a5.85 5.85 0 0 0-2.7.43c-.9.33-1.77.91-2.6 1.74-1.61 1.62-2.43 3.35-2.44 5.2 0 1.85.72 3.74 2.15 5.69L368 38.13a9 9 0 0 0-2.35-1.72 6.7 6.7 0 0 0-2.6-.79Z" clip-rule="evenodd"/><path d="m807.03 37.79-5.59 5.59-33.62-33.63 5.59-5.58zm-409.41-.71-5.6 5.6L358.4 9.04l5.6-5.6 33.62 33.63Z"/><path fill-rule="evenodd" d="M-7.56-7.17c2.03.01 4.06.49 6.08 1.42C.54-4.8 2.47-3.43 4.3-1.6a20.3 20.3 0 0 1 4.17 5.8 15 15 0 0 1 1.44 6.1c.05 2.04-.36 4.05-1.22 6.02a17.8 17.8 0 0 1-3.84 5.53 18.1 18.1 0 0 1-5.57 3.89c-1.98.86-3.99 1.27-6.04 1.24a15.6 15.6 0 0 1-6.11-1.45 20.3 20.3 0 0 1-5.8-4.16 20.2 20.2 0 0 1-4.13-5.77 15.25 15.25 0 0 1-1.43-6.09c-.01-2.03.4-4.04 1.27-6.02a18.1 18.1 0 0 1 3.89-5.56c1.72-1.72 3.56-3 5.52-3.85a14.4 14.4 0 0 1 6-1.24Zm-1 7.06c-2.23-.4-4.31.37-6.24 2.3-1.97 1.97-2.76 4.09-2.38 6.36.38 2.25 1.81 4.62 4.3 7.1 2.49 2.5 4.86 3.93 7.1 4.3 2.25.35 4.36-.45 6.32-2.41 1.93-1.93 2.7-4 2.33-6.23-.36-2.23-1.8-4.6-4.3-7.1S-6.31.26-8.56-.11m819.83-7.06c2.03.01 4.06.49 6.08 1.42 2.02.94 3.95 2.32 5.77 4.14a20.3 20.3 0 0 1 4.17 5.8 15 15 0 0 1 1.44 6.1c.05 2.04-.36 4.05-1.22 6.02a17.8 17.8 0 0 1-3.84 5.53 18.1 18.1 0 0 1-5.57 3.89 14.5 14.5 0 0 1-6.04 1.24 15.6 15.6 0 0 1-6.11-1.45 20.3 20.3 0 0 1-5.8-4.16 20.2 20.2 0 0 1-4.13-5.77 15.3 15.3 0 0 1-1.43-6.09c-.02-2.03.4-4.04 1.27-6.02a18.1 18.1 0 0 1 3.89-5.56c1.72-1.72 3.56-3 5.52-3.85a14.4 14.4 0 0 1 6-1.24m-1 7.06c-2.23-.4-4.31.37-6.25 2.3q-2.94 2.955-2.37 6.36c.38 2.25 1.8 4.62 4.3 7.1 2.49 2.5 4.86 3.93 7.1 4.3 2.25.35 4.36-.45 6.32-2.41 1.93-1.93 2.7-4 2.33-6.23s-1.8-4.6-4.3-7.1-4.88-3.95-7.13-4.32M401.85-7.88c2.04.01 4.07.49 6.09 1.43 2.02.93 3.94 2.31 5.77 4.14a20.3 20.3 0 0 1 4.16 5.79 15 15 0 0 1 1.45 6.1c.04 2.04-.36 4.05-1.22 6.03a17.8 17.8 0 0 1-3.85 5.52 18.1 18.1 0 0 1-5.57 3.89 14.5 14.5 0 0 1-6.04 1.24 15.6 15.6 0 0 1-6.1-1.44 20.3 20.3 0 0 1-5.8-4.17 20.2 20.2 0 0 1-4.14-5.77 15.3 15.3 0 0 1-1.43-6.08c-.01-2.04.41-4.05 1.27-6.02a18.1 18.1 0 0 1 3.9-5.57c1.71-1.72 3.55-3 5.51-3.85a14.4 14.4 0 0 1 6-1.24m-1 7.06c-2.23-.4-4.3.38-6.24 2.3-1.96 1.97-2.75 4.09-2.38 6.37.38 2.24 1.81 4.61 4.3 7.1 2.5 2.49 4.86 3.92 7.1 4.3 2.26.35 4.36-.46 6.32-2.42 1.93-1.93 2.7-4 2.33-6.22-.36-2.24-1.8-4.6-4.3-7.1-2.5-2.51-4.88-3.95-7.13-4.33M14.06-33.77c1.58-.53 3.25-.66 5.02-.4a15 15 0 0 1 5.47 1.94 25.8 25.8 0 0 1 5.68 4.41 22.5 22.5 0 0 1 4.12 5.52 16.5 16.5 0 0 1 1.84 5.86c.22 1.95.03 3.85-.6 5.7a13 13 0 0 1-3.2 5.03c-1.3 1.3-2.6 2.2-3.92 2.74-1.33.5-2.7.77-4.14.79l9.5 9.5-5.59 5.59-30.8-30.8L.87-21.3c.73-.73 1.54-.86 2.45-.41l2.6 1.7c-.12-2.02.1-3.97.63-5.84A12.3 12.3 0 0 1 9.8-31.1a10.7 10.7 0 0 1 4.26-2.67m3.39 7.24c-1-.18-1.92-.11-2.78.2-.85.3-1.64.83-2.38 1.57a7.9 7.9 0 0 0-2.22 3.7c-.33 1.3-.41 2.76-.25 4.37L20.23-6.28c1.4.14 2.64 0 3.7-.43a8.8 8.8 0 0 0 2.91-1.97 7.55 7.55 0 0 0 1.81-2.76c.36-1 .45-2.05.27-3.17a10 10 0 0 0-1.33-3.55 20 20 0 0 0-3.13-3.89 21 21 0 0 0-3.77-3.1 9.2 9.2 0 0 0-3.24-1.38m406.02-7.95c1.58-.53 3.26-.66 5.02-.4a15 15 0 0 1 5.48 1.94 25.8 25.8 0 0 1 5.68 4.41 22.5 22.5 0 0 1 4.12 5.52 16.5 16.5 0 0 1 1.83 5.87c.22 1.94.03 3.84-.59 5.7a12.96 12.96 0 0 1-3.21 5.02c-1.3 1.3-2.6 2.21-3.92 2.74-1.32.51-2.7.78-4.14.8l9.5 9.5-5.58 5.58-30.8-30.8 3.42-3.4c.72-.73 1.54-.87 2.44-.42l2.6 1.7c-.12-2.02.1-3.97.64-5.84a12.3 12.3 0 0 1 3.26-5.25 10.7 10.7 0 0 1 4.25-2.67m3.4 7.24c-1-.18-1.93-.11-2.79.2-.84.3-1.64.83-2.38 1.57a7.9 7.9 0 0 0-2.21 3.7c-.33 1.3-.42 2.76-.25 4.38L429.64-7c1.41.14 2.64 0 3.7-.42a8.8 8.8 0 0 0 2.92-1.97 7.6 7.6 0 0 0 1.8-2.76c.37-1 .46-2.06.28-3.17a10 10 0 0 0-1.34-3.55 20 20 0 0 0-3.12-3.9 21 21 0 0 0-3.78-3.1 9.2 9.2 0 0 0-3.24-1.38Z" clip-rule="evenodd"/></g><defs><clipPath id="a"><path d="M0 0h819v819H0z"/></clipPath></defs></svg>