<svg xmlns="http://www.w3.org/2000/svg" width="320" height="200" fill="none"><g clip-path="url(#a)"><path fill="url(#b)" fill-rule="evenodd" d="M314 7h-48v160h48V7ZM210 47h48v120h-48V47Zm-8 40h-48v80h48V87ZM98 127h48v40H98v-40Zm-56 20h48v20H42v-20Z" clip-rule="evenodd"/><path fill="#92999E" fill-rule="evenodd" d="M68.22 188.96a.39.39 0 0 1-.1.11.22.22 0 0 1-.12.03.3.3 0 0 1-.2-.08 3 3 0 0 0-.7-.38 1.75 1.75 0 0 0-.6-.08c-.21 0-.4.03-.57.09-.16.06-.3.13-.41.23a1.1 1.1 0 0 0-.33.79c0 .2.04.37.14.5.1.14.23.25.39.34.16.1.34.18.55.25l.63.2.63.25c.2.1.39.21.55.35.16.14.29.31.39.51.1.2.15.46.15.75 0 .32-.06.61-.16.89a2.3 2.3 0 0 1-.47.72c-.2.2-.46.36-.76.47a3.12 3.12 0 0 1-2.28-.07 3 3 0 0 1-.98-.69l.28-.45a.34.34 0 0 1 .1-.1.23.23 0 0 1 .13-.03c.04 0 .09.01.14.05l.2.13a7.92 7.92 0 0 0 .54.35 2.26 2.26 0 0 0 1.5.09 1.24 1.24 0 0 0 .75-.68c.06-.16.1-.34.1-.53 0-.22-.05-.4-.15-.53a1.1 1.1 0 0 0-.39-.35 2.6 2.6 0 0 0-.55-.24l-.63-.2a7.18 7.18 0 0 1-.63-.24c-.2-.09-.39-.2-.55-.35a1.64 1.64 0 0 1-.53-1.34 1.93 1.93 0 0 1 .57-1.36c.2-.18.42-.33.7-.44a2.99 2.99 0 0 1 2.04.03c.33.12.62.3.87.55l-.24.46Zm5.44 3.38-1.12-2.91a6.24 6.24 0 0 1-.21-.68c-.07.28-.14.5-.22.68L71 192.34h2.67Zm2.02 2.66h-.75a.32.32 0 0 1-.2-.06.4.4 0 0 1-.13-.17l-.67-1.73h-3.21l-.67 1.73a.35.35 0 0 1-.12.16.32.32 0 0 1-.2.07h-.76l2.87-7.16h.98l2.86 7.16Zm-14.92-.92a2 2 0 0 1-.8.15c-.29 0-.56-.05-.8-.15a1.74 1.74 0 0 1-.96-1.07 2.6 2.6 0 0 1-.12-.82v-4.35h-.97v4.35c0 .41.07.8.2 1.15a2.63 2.63 0 0 0 1.47 1.53 3.23 3.23 0 0 0 2.38 0 2.58 2.58 0 0 0 1.46-1.53c.13-.35.2-.74.2-1.15v-4.35h-.97v4.35c0 .3-.04.57-.13.82a1.67 1.67 0 0 1-.96 1.07Zm48.47-2.95v-2.5h3.45v-.8h-4.42V195h.97v-3.08h2.95v-.79h-2.95Zm4.9-.18c.15-.35.35-.62.58-.81a1.27 1.27 0 0 1 1.16-.26c.1.02.19.06.27.11l-.07.66c-.02.09-.07.13-.15.13l-.2-.03a1.4 1.4 0 0 0-.74.04c-.12.05-.23.12-.33.21s-.19.2-.27.34a3.1 3.1 0 0 0-.2.46v3.2h-.9v-5.06h.5c.1 0 .17.01.2.05.04.04.07.1.08.19l.06.77Zm4.4 1.87a7.2 7.2 0 0 1 1.06-.1v1.05a2.64 2.64 0 0 1-.64.5 1.63 1.63 0 0 1-1.13.14.8.8 0 0 1-.26-.13.67.67 0 0 1-.18-.24.85.85 0 0 1-.06-.34c0-.14.04-.27.12-.38a1 1 0 0 1 .4-.3c.17-.08.4-.15.7-.2Zm-.91-2.78c-.33.14-.63.34-.9.61l.15.28c.03.05.07.1.11.13.04.03.1.04.16.04a.4.4 0 0 0 .23-.08l.28-.19c.1-.07.23-.13.38-.18.15-.06.34-.09.56-.09.32 0 .57.1.74.31.17.2.26.5.26.89v.4a5.96 5.96 0 0 0-2.43.5c-.25.15-.42.31-.53.5a1.1 1.1 0 0 0-.17.58c0 .22.04.42.11.6a1.2 1.2 0 0 0 .76.66 2.3 2.3 0 0 0 1.93-.36c.13-.1.26-.2.4-.33l.1.48c.02.08.05.14.1.17a.4.4 0 0 0 .2.04h.4v-3.24c0-.28-.04-.54-.12-.78a1.54 1.54 0 0 0-.9-1 2.62 2.62 0 0 0-1.82.07Zm5.03.63a2.98 2.98 0 0 1 .74-.59 1.91 1.91 0 0 1 .95-.23 1.7 1.7 0 0 1 1.26.53c.14.17.25.37.32.61.08.24.11.5.11.78V195h-.9v-3.22c0-.39-.08-.69-.26-.9-.17-.2-.44-.31-.8-.31-.26 0-.5.06-.73.19-.23.12-.44.3-.63.51V195h-.9v-5.06h.54c.12 0 .2.06.23.18l.07.55Zm8.18.25a.41.41 0 0 0 .08-.08l.24-.33a2.21 2.21 0 0 0-1.67-.66c-.38 0-.72.07-1.02.2-.3.13-.54.31-.74.54-.2.23-.36.51-.46.83a3.5 3.5 0 0 0 .01 2.15c.12.32.27.6.47.82a2.04 2.04 0 0 0 1.6.68 3.23 3.23 0 0 0 1.04-.19 1.95 1.95 0 0 0 .83-.59l-.25-.32a.2.2 0 0 0-.17-.09.3.3 0 0 0-.19.08l-.23.17c-.09.06-.2.12-.34.18-.14.04-.32.07-.54.07a1.35 1.35 0 0 1-1.08-.5 1.79 1.79 0 0 1-.3-.6 3.26 3.26 0 0 1 0-1.61c.06-.24.16-.44.29-.6.13-.17.29-.3.48-.38.19-.1.4-.14.66-.14a1.6 1.6 0 0 1 1.02.34.3.3 0 0 0 .16.06c.05 0 .09-.01.11-.03Zm4.54.43c.06.17.1.36.1.56h-2.78c.06-.44.22-.78.47-1.03.25-.25.58-.37 1.01-.37.2 0 .39.03.55.1.16.07.29.17.4.3.11.12.2.27.25.44Zm.42 3.29c.15-.1.28-.22.4-.35l-.25-.32a.2.2 0 0 0-.18-.09.4.4 0 0 0-.2.08 3.32 3.32 0 0 1-.71.33c-.16.06-.35.08-.57.08-.25 0-.46-.04-.66-.12-.19-.07-.36-.2-.5-.35a1.73 1.73 0 0 1-.33-.6 3.02 3.02 0 0 1-.13-.83h3.39c.08 0 .14-.02.17-.07s.04-.14.04-.28c0-.36-.05-.68-.16-.96a1.98 1.98 0 0 0-1.11-1.15 2.42 2.42 0 0 0-1.83.04c-.3.13-.54.3-.75.53-.2.22-.35.49-.47.8a3.45 3.45 0 0 0 .02 2.15c.13.33.3.62.5.84.22.23.48.4.77.53.3.11.62.17.97.17a3.19 3.19 0 0 0 1.59-.43Zm28.96-.34v-2.75h-2.2v.55c0 .06.02.1.05.14.05.04.1.05.16.05h1.12v1.58a3.25 3.25 0 0 1-1.65.42c-.42 0-.8-.06-1.15-.19a2.38 2.38 0 0 1-1.42-1.47 3.6 3.6 0 0 1-.19-1.21c0-.43.07-.82.19-1.17a2.4 2.4 0 0 1 1.37-1.46 3.44 3.44 0 0 1 2.34.03c.14.06.27.12.37.19l.27.17c.09.05.16.07.23.05a.3.3 0 0 0 .17-.13l.28-.44a3.35 3.35 0 0 0-1.75-.84 4.54 4.54 0 0 0-2.31.2 3.25 3.25 0 0 0-1.89 1.9 4.2 4.2 0 0 0-.25 1.5c0 .54.08 1.04.26 1.49a3.31 3.31 0 0 0 1.94 1.9c.47.18.99.27 1.56.27a4.06 4.06 0 0 0 2.5-.78Zm7.93-4.16c-.23.2-.43.46-.59.81l-.06-.77a.26.26 0 0 0-.07-.19c-.04-.04-.1-.06-.2-.06h-.51V195h.9v-3.2c.06-.17.13-.33.2-.46.08-.14.17-.25.27-.34a1.03 1.03 0 0 1 .76-.28c.12 0 .22.01.3.03l.21.03c.08 0 .13-.04.15-.13l.07-.66a.82.82 0 0 0-.27-.11l-.3-.03c-.34 0-.62.1-.86.29Zm12.13 2.68a7.2 7.2 0 0 1 1.05-.1v1.05a2.64 2.64 0 0 1-.64.5 1.63 1.63 0 0 1-1.13.14.8.8 0 0 1-.26-.13.68.68 0 0 1-.18-.24.85.85 0 0 1-.06-.34c0-.14.04-.27.12-.38a1 1 0 0 1 .4-.3 3 3 0 0 1 .7-.2Zm-.92-2.78c-.32.14-.63.34-.9.61l.15.28c.03.05.07.1.11.13.05.03.1.04.16.04a.4.4 0 0 0 .23-.08l.28-.19a1.68 1.68 0 0 1 .94-.27c.33 0 .57.1.74.31.17.2.26.5.26.89v.4a6.02 6.02 0 0 0-2.43.5c-.24.15-.42.31-.53.5a1.1 1.1 0 0 0-.17.58c0 .22.04.42.11.6a1.22 1.22 0 0 0 .76.66 2.28 2.28 0 0 0 1.93-.36c.13-.1.26-.2.4-.33l.1.48a.3.3 0 0 0 .1.17.4.4 0 0 0 .2.04h.4v-3.24c0-.28-.04-.54-.12-.78a1.54 1.54 0 0 0-.9-1 2.65 2.65 0 0 0-1.82.07Zm5.04.63a3.06 3.06 0 0 1 .73-.59 1.93 1.93 0 0 1 .95-.23 1.67 1.67 0 0 1 1.26.53c.14.17.25.37.32.61.08.24.12.5.12.78V195h-.9v-3.22c0-.39-.09-.69-.26-.9-.18-.2-.44-.31-.8-.31-.26 0-.51.06-.74.19-.23.12-.44.3-.63.51V195h-.9v-5.06h.54c.13 0 .2.06.23.18l.08.55Zm8.97-.73-2.82 6.56a.44.44 0 0 1-.12.16.32.32 0 0 1-.2.06h-.66l.92-2.01-2.09-4.78h.77a.3.3 0 0 1 .28.19l1.35 3.19c.06.14.1.29.14.44l.15-.44 1.31-3.19c.02-.05.06-.1.1-.13.05-.04.1-.06.17-.06h.7Zm-23 5.06v-5.06h.53c.12 0 .2.06.23.18l.07.52c.18-.23.4-.42.63-.56.23-.15.5-.23.8-.23.35 0 .62.1.83.29.22.19.37.45.46.77a1.65 1.65 0 0 1 1.13-1 2.07 2.07 0 0 1 1.2.08c.21.08.39.2.53.36.15.17.26.37.34.61.07.24.11.5.11.81V195h-.9v-3.22c0-.4-.08-.7-.25-.9a.93.93 0 0 0-.75-.31.98.98 0 0 0-.42.08.98.98 0 0 0-.35.22c-.1.1-.18.23-.24.38s-.08.32-.08.53V195h-.9v-3.22c0-.41-.08-.72-.24-.91-.17-.2-.4-.3-.72-.3-.22 0-.42.06-.6.18-.2.11-.37.27-.52.47V195h-.9Zm-5.54-3.09c0-.2-.03-.39-.1-.56a1.2 1.2 0 0 0-.65-.73 1.23 1.23 0 0 0-.55-.11c-.43 0-.76.13-1.01.38-.25.24-.4.59-.46 1.03h2.77Zm.72 2.38c-.11.13-.25.25-.4.35a2.97 2.97 0 0 1-1.59.43c-.35 0-.67-.06-.97-.17a2.18 2.18 0 0 1-1.26-1.38 3.45 3.45 0 0 1-.02-2.15c.1-.3.26-.57.47-.79.2-.23.45-.4.74-.53a2.42 2.42 0 0 1 1.83-.04 1.98 1.98 0 0 1 1.12 1.15c.1.28.16.6.16.96 0 .14-.02.23-.05.28-.03.05-.09.07-.17.07h-3.38c0 .32.05.6.13.84.08.23.19.43.33.59.14.16.3.28.5.35a1.94 1.94 0 0 0 1.65-.13l.28-.16a.4.4 0 0 1 .2-.08.2.2 0 0 1 .18.09l.25.32Zm69.35-4.35V195h-.9v-5.06h.9Zm.19-1.6c0 .1-.02.17-.06.25a.68.68 0 0 1-.14.2.61.61 0 0 1-.2.14.61.61 0 0 1-.5 0 .66.66 0 0 1-.32-.34.61.61 0 0 1 0-.49.65.65 0 0 1 .33-.34.62.62 0 0 1 .49 0c.08.03.15.08.2.14.06.05.1.12.14.2.04.08.06.16.06.25Zm4.71 2.58a.41.41 0 0 0 .08-.08l.24-.33a2.21 2.21 0 0 0-1.67-.66c-.38 0-.72.07-1.02.2a2.12 2.12 0 0 0-1.2 1.37 3.5 3.5 0 0 0 .01 2.15c.12.32.27.6.47.82a2.04 2.04 0 0 0 1.6.68 3.23 3.23 0 0 0 1.04-.19 1.95 1.95 0 0 0 .83-.59l-.25-.32a.2.2 0 0 0-.17-.09.3.3 0 0 0-.19.08l-.23.17c-.09.06-.2.12-.34.18-.14.04-.32.07-.54.07a1.35 1.35 0 0 1-1.08-.5 1.79 1.79 0 0 1-.3-.6 3.26 3.26 0 0 1 0-1.61c.06-.24.16-.44.29-.6.13-.17.29-.3.48-.38.19-.1.4-.14.66-.14a1.6 1.6 0 0 1 1.02.34.3.3 0 0 0 .16.06c.05 0 .09-.01.11-.03Zm4.38-.88a2.66 2.66 0 0 0-2 0 2.13 2.13 0 0 0-1.25 1.35 3.3 3.3 0 0 0-.17 1.08c0 .4.06.75.17 1.07a2.13 2.13 0 0 0 1.25 1.34c.3.13.63.19 1 .19s.7-.06 1-.18a2.13 2.13 0 0 0 1.24-1.34 3.41 3.41 0 0 0 0-2.16 2.13 2.13 0 0 0-1.24-1.35Zm.12 3.84c-.25.33-.62.5-1.12.5-.5 0-.88-.17-1.13-.5a2.34 2.34 0 0 1-.37-1.41c0-.3.03-.57.09-.8.06-.24.15-.45.28-.61.12-.16.28-.29.47-.38.19-.08.4-.13.66-.13.5 0 .87.17 1.12.51.25.34.37.8.37 1.41 0 .6-.12 1.07-.37 1.4ZM236.81 195h.86l-1.78-2.65 1.7-2.41h-.81a.2.2 0 0 0-.13.04.46.46 0 0 0-.1.11l-1.09 1.6a.77.77 0 0 0-.12.28l-1.25-1.9a.34.34 0 0 0-.09-.1.29.29 0 0 0-.16-.03H233l1.7 2.46-1.77 2.6h.8c.06 0 .1-.02.15-.06a.98.98 0 0 0 .1-.13l1.19-1.72a.4.4 0 0 0 .06-.12l.04-.14 1.28 1.98c.02.05.06.1.1.13.04.04.1.06.17.06Zm-5.13-3.09c0-.2-.03-.39-.09-.56a1.2 1.2 0 0 0-.66-.73 1.19 1.19 0 0 0-.54-.11c-.43 0-.77.13-1.02.38-.25.24-.4.59-.46 1.03h2.77Zm.72 2.38c-.1.13-.24.25-.4.35a2.93 2.93 0 0 1-1.03.38 2.74 2.74 0 0 1-1.52-.12 2.2 2.2 0 0 1-1.27-1.38 3.45 3.45 0 0 1-.02-2.15c.11-.3.27-.57.47-.79.2-.23.45-.4.75-.53a2.42 2.42 0 0 1 1.83-.04 1.98 1.98 0 0 1 1.12 1.15c.1.28.15.6.15.96 0 .14-.01.23-.04.28-.03.05-.1.07-.17.07h-3.39c.01.32.05.6.13.84.08.23.2.43.33.59.14.16.3.28.5.35a1.94 1.94 0 0 0 1.64-.13l.3-.16a.4.4 0 0 1 .2-.08.2.2 0 0 1 .17.09l.25.32Zm-5.58.71v-7.16h-.71c-.09 0-.16 0-.2.02a.23.23 0 0 0-.13.14l-2.44 4.4a2.73 2.73 0 0 0-.22.53 3.6 3.6 0 0 0-.22-.52l-2.48-4.41a.3.3 0 0 0-.13-.14.61.61 0 0 0-.2-.03h-.72V195h.85v-5.26l-.03-.5 2.51 4.5c.08.16.2.23.35.23h.14c.16 0 .27-.07.35-.22l2.46-4.49-.02.25V195h.84Zm72.96-4.32c.2.08.37.24.54.46v2.45a2.2 2.2 0 0 1-.6.56c-.22.13-.48.2-.77.2-.2 0-.38-.03-.54-.1a.99.99 0 0 1-.4-.34 1.5 1.5 0 0 1-.26-.57 3.68 3.68 0 0 1-.08-.85c0-.63.12-1.1.38-1.45.25-.33.61-.5 1.08-.5.24 0 .46.05.65.14Zm1.43 4.32v-7.37h-.89v2.81a1.8 1.8 0 0 0-1.39-.6 2.02 2.02 0 0 0-1.6.76c-.2.24-.33.52-.43.84a4.17 4.17 0 0 0-.02 2.16c.1.32.22.6.39.81a1.65 1.65 0 0 0 1.4.66c.35 0 .67-.08.95-.24.28-.16.52-.37.74-.63l.08.62c.03.12.11.18.24.18h.53Zm3.1-2.18a7.2 7.2 0 0 1 1.05-.1v1.05a2.64 2.64 0 0 1-.64.5 1.63 1.63 0 0 1-1.12.14.8.8 0 0 1-.27-.13.68.68 0 0 1-.17-.24.85.85 0 0 1-.07-.34c0-.14.04-.27.12-.38a1 1 0 0 1 .4-.3 3 3 0 0 1 .7-.2Zm-.92-2.78c-.32.14-.62.34-.9.61l.16.28c.03.05.06.1.1.13.05.03.1.04.16.04a.4.4 0 0 0 .23-.08l.28-.19a1.76 1.76 0 0 1 .94-.27c.33 0 .58.1.75.31.17.2.25.5.25.89v.4c-.57 0-1.06.06-1.46.16-.4.09-.72.2-.96.34-.25.15-.43.31-.54.5a1.1 1.1 0 0 0-.16.58c0 .22.03.42.1.6a1.22 1.22 0 0 0 .77.66 2.28 2.28 0 0 0 1.93-.36l.39-.33.1.48a.3.3 0 0 0 .1.17.4.4 0 0 0 .2.04h.4v-3.24c0-.28-.04-.54-.11-.78a1.54 1.54 0 0 0-.9-1 2.67 2.67 0 0 0-1.83.07Zm-8.6 2.68a7.2 7.2 0 0 0-1.05.1c-.28.05-.52.12-.7.2a1 1 0 0 0-.4.3.64.64 0 0 0-.12.38c0 .13.03.24.07.34.04.1.1.18.18.24.07.06.16.1.26.13s.21.05.33.05a1.63 1.63 0 0 0 .8-.19 2.64 2.64 0 0 0 .64-.5v-1.05Zm-2.87-2.07a2.73 2.73 0 0 1 1.98-.8c.28 0 .54.04.75.14a1.54 1.54 0 0 1 .9.99c.08.24.12.5.12.78V195h-.4a.4.4 0 0 1-.2-.04c-.05-.03-.08-.09-.11-.17l-.1-.48-.39.33a2.15 2.15 0 0 1-.85.39 2.3 2.3 0 0 1-1.08-.03 1.2 1.2 0 0 1-.76-.66 1.51 1.51 0 0 1-.11-.6c0-.2.06-.4.16-.58.12-.19.3-.35.54-.5.25-.14.57-.25.96-.34.4-.1.89-.15 1.47-.16v-.4c0-.4-.09-.69-.26-.89-.17-.2-.42-.3-.75-.3-.22 0-.4.02-.55.08a5.72 5.72 0 0 0-.67.37.4.4 0 0 1-.22.08.26.26 0 0 1-.16-.04.47.47 0 0 1-.11-.13l-.16-.28Zm-4.26-.31c-.12.1-.24.2-.35.33l-.07-.55c-.03-.12-.1-.19-.23-.19h-.54V195h.9v-3.73c.2-.22.4-.39.63-.52.23-.12.48-.19.74-.19.36 0 .62.11.8.32.17.22.26.51.26.9V195h.9v-3.22c0-.3-.04-.55-.12-.79a1.69 1.69 0 0 0-.32-.6c-.14-.17-.32-.3-.53-.4a2.03 2.03 0 0 0-2.06.34Zm-3.41 2.38a7.2 7.2 0 0 0-1.05.1c-.29.05-.52.12-.7.2a1 1 0 0 0-.4.3.64.64 0 0 0-.12.38c0 .13.02.24.06.34a.63.63 0 0 0 .44.37c.1.03.22.05.33.05a1.63 1.63 0 0 0 .8-.19 2.64 2.64 0 0 0 .64-.5v-1.05Zm-2.88-2.07a2.73 2.73 0 0 1 1.98-.8c.29 0 .54.04.76.14a1.54 1.54 0 0 1 .9.99c.07.24.1.5.1.78V195h-.39a.4.4 0 0 1-.2-.04.3.3 0 0 1-.1-.17l-.1-.48-.4.33a2.15 2.15 0 0 1-.85.39A2.3 2.3 0 0 1 282 195a1.2 1.2 0 0 1-.76-.66 1.51 1.51 0 0 1-.1-.6c0-.2.05-.4.16-.58.1-.19.29-.35.53-.5.25-.14.57-.25.97-.34.4-.1.88-.15 1.46-.16v-.4c0-.4-.09-.69-.26-.89-.17-.2-.42-.3-.74-.3-.22 0-.4.02-.56.08a5.72 5.72 0 0 0-.66.37.4.4 0 0 1-.23.08.26.26 0 0 1-.16-.04.47.47 0 0 1-.1-.13l-.17-.28Zm-1.17 2.94a.19.19 0 0 0-.14-.07.26.26 0 0 0-.17.07 1.96 1.96 0 0 1-.78.5c-.14.05-.3.1-.47.12a4.3 4.3 0 0 1-.58.03c-.35 0-.67-.06-.98-.19-.3-.12-.56-.3-.78-.55-.22-.24-.4-.53-.53-.88a3.51 3.51 0 0 1-.19-1.2c0-.44.06-.83.19-1.18a2.23 2.23 0 0 1 1.31-1.45c.3-.13.64-.2 1.01-.2a2.58 2.58 0 0 1 1.64.54c.09.06.16.1.22.1s.1-.01.13-.03a.27.27 0 0 0 .08-.09l.32-.45a3.38 3.38 0 0 0-2.38-.9c-.52 0-1 .09-1.43.27a3.21 3.21 0 0 0-1.82 1.9 4.33 4.33 0 0 0-.01 2.97 3.13 3.13 0 0 0 1.76 1.91c.42.18.89.27 1.4.27.6 0 1.1-.1 1.52-.29.42-.19.78-.45 1.07-.79l-.39-.41ZM12.19 8.66c0 .63-.07 1.18-.2 1.63-.14.46-.33.84-.56 1.14-.23.3-.5.52-.83.67a2.4 2.4 0 0 1-1.02.22 2.24 2.24 0 0 1-1.85-.89 3.4 3.4 0 0 1-.54-1.13c-.14-.46-.2-1-.2-1.64 0-.62.06-1.17.2-1.63.13-.46.31-.83.55-1.14A2.22 2.22 0 0 1 9.58 5c.36 0 .7.07 1.02.22.32.15.6.37.83.67.23.3.42.69.55 1.15.14.46.2 1 .2 1.62Zm-.93 0c0-.54-.05-1-.14-1.37a2.69 2.69 0 0 0-.37-.9 1.36 1.36 0 0 0-1.17-.63 1.36 1.36 0 0 0-1.17.63 2.9 2.9 0 0 0-.37.9c-.09.37-.13.83-.13 1.37 0 .55.04 1.01.13 1.38.1.37.22.67.37.9.15.22.33.38.54.49a1.46 1.46 0 0 0 1.27 0c.2-.1.38-.27.53-.5.16-.22.28-.52.37-.89.1-.37.14-.83.14-1.38Zm6.73 0c0 .63-.07 1.18-.2 1.63-.14.46-.32.84-.56 1.14-.23.3-.5.52-.83.67a2.4 2.4 0 0 1-1.02.22 2.24 2.24 0 0 1-1.85-.89 3.4 3.4 0 0 1-.54-1.13c-.14-.46-.2-1-.2-1.64 0-.62.06-1.17.2-1.63.13-.46.31-.83.55-1.14A2.22 2.22 0 0 1 15.38 5c.36 0 .7.07 1.02.22.32.15.6.37.83.67.23.3.42.69.55 1.15.14.46.2 1 .2 1.62Zm-.93 0c0-.54-.04-1-.14-1.37a2.69 2.69 0 0 0-.37-.9 1.36 1.36 0 0 0-1.17-.63 1.36 1.36 0 0 0-1.17.63 2.9 2.9 0 0 0-.37.9c-.09.37-.13.83-.13 1.37 0 .55.04 1.01.13 1.38.1.37.22.67.37.9.15.22.33.38.54.49a1.46 1.46 0 0 0 1.27 0c.2-.1.38-.27.53-.5.16-.22.28-.52.37-.89.1-.37.14-.83.14-1.38ZM4.54 6.7v2.96H1.96l2.62-3.55a5.29 5.29 0 0 0-.04.6Zm1.86 3.47v-.51H5.32V5.08h-.83L1 9.71l.09.45c.01.06.04.1.09.14.05.04.1.06.18.06h3.17v1.88h.79v-1.88h.88c.07 0 .12-.02.15-.05a.2.2 0 0 0 .05-.14Zm-4.91 35.8a2.6 2.6 0 0 0-.27.87l.47.08c.12.02.21 0 .28-.03a.47.47 0 0 0 .16-.23 1.35 1.35 0 0 1 .47-.77c.11-.1.25-.17.4-.23.16-.05.33-.07.51-.07s.35.02.5.07c.16.05.3.13.4.23.12.1.2.22.27.38.07.15.1.33.1.53s-.03.36-.1.52a.94.94 0 0 1-.29.39c-.13.11-.3.2-.52.26-.22.06-.48.1-.79.1v.65c.38 0 .68.03.92.1.24.06.43.15.57.27.13.12.22.25.27.41.05.16.08.34.08.53a1.28 1.28 0 0 1-.38.91c-.12.14-.28.24-.47.33-.19.07-.4.11-.66.11-.27 0-.49-.04-.67-.12a1.44 1.44 0 0 1-.7-.68l-.16-.34a.29.29 0 0 0-.2-.16.47.47 0 0 0-.3.04l-.38.16c.08.26.19.51.3.74a2.05 2.05 0 0 0 1.15.98c.27.1.6.15.97.15.33 0 .64-.05.93-.15.29-.1.54-.24.76-.42a2 2 0 0 0 .7-1.57c0-.44-.12-.8-.35-1.09a1.9 1.9 0 0 0-1.05-.62c.18-.06.36-.14.51-.23a1.48 1.48 0 0 0 .64-.8 2.02 2.02 0 0 0-.07-1.37c-.1-.23-.24-.42-.43-.58-.18-.16-.4-.28-.66-.37a2.67 2.67 0 0 0-1.7 0 2.08 2.08 0 0 0-1.21 1.02Zm10.38 2.52a6.1 6.1 0 0 1-.2 1.63 3.6 3.6 0 0 1-.55 1.13c-.24.3-.51.52-.83.67a2.4 2.4 0 0 1-1.02.22 2.24 2.24 0 0 1-1.85-.89 3.4 3.4 0 0 1-.55-1.13 6 6 0 0 1-.2-1.63c0-.63.07-1.18.2-1.64.13-.45.32-.84.55-1.13a2.22 2.22 0 0 1 1.85-.9c.36 0 .7.07 1.02.22.32.15.6.37.83.68.23.3.41.68.55 1.13a6 6 0 0 1 .2 1.63Zm-.92 0c0-.55-.05-1.01-.14-1.38a2.7 2.7 0 0 0-.37-.9 1.36 1.36 0 0 0-1.17-.63 1.36 1.36 0 0 0-1.17.63c-.16.23-.28.53-.37.9-.1.37-.14.83-.14 1.38 0 .54.05 1 .14 1.37.09.37.21.67.37.9.15.22.33.39.53.48a1.46 1.46 0 0 0 1.27 0c.2-.1.38-.26.54-.48.15-.23.28-.53.37-.9.09-.37.14-.83.14-1.38Zm6.72 0a6.1 6.1 0 0 1-.2 1.63 3.6 3.6 0 0 1-.55 1.13c-.24.3-.51.52-.83.67a2.4 2.4 0 0 1-1.02.22 2.24 2.24 0 0 1-1.85-.89 3.6 3.6 0 0 1-.55-1.13 6 6 0 0 1-.2-1.63c0-.63.07-1.18.2-1.64.13-.45.32-.84.55-1.13a2.22 2.22 0 0 1 1.85-.9c.36 0 .7.07 1.02.22.32.15.6.37.83.68.23.3.41.68.55 1.13a6 6 0 0 1 .2 1.63Zm-.92 0c0-.55-.05-1.01-.14-1.38a2.7 2.7 0 0 0-.37-.9 1.36 1.36 0 0 0-1.17-.63 1.36 1.36 0 0 0-1.17.63c-.16.23-.28.53-.37.9-.1.37-.14.83-.14 1.38 0 .54.05 1 .14 1.37.09.37.21.67.37.9.15.22.33.39.53.48a1.46 1.46 0 0 0 1.27 0c.2-.1.38-.26.54-.48.15-.23.28-.53.37-.9.09-.37.14-.83.14-1.38ZM5.46 91.03c.1 0 .18.03.24.09a.3.3 0 0 1 .08.22v.54H1v-.3a.55.55 0 0 1 .17-.38l2.29-2.31.52-.56c.16-.17.29-.36.4-.53a2.42 2.42 0 0 0 .35-1.15c0-.2-.04-.39-.1-.55a1.06 1.06 0 0 0-.69-.62 1.56 1.56 0 0 0-.5-.08c-.18 0-.35.03-.5.08a1.36 1.36 0 0 0-.71.56c-.08.13-.14.27-.17.43-.04.12-.1.2-.17.23-.06.04-.16.05-.28.04l-.47-.08c.05-.33.14-.62.28-.87.13-.25.3-.47.5-.63.21-.17.45-.3.71-.39a2.61 2.61 0 0 1 1.7 0c.27.09.5.22.69.4.2.16.35.37.46.62a2.25 2.25 0 0 1 .04 1.59c-.08.22-.19.44-.32.64-.14.21-.3.41-.48.61l-.56.6-1.9 1.93a3.36 3.36 0 0 1 .8-.13h2.4Zm6.17-1.1a6 6 0 0 0 .2-1.63 6 6 0 0 0-.2-1.63 3.37 3.37 0 0 0-.55-1.14 2.2 2.2 0 0 0-.83-.68 2.4 2.4 0 0 0-1.02-.22 2.22 2.22 0 0 0-1.85.9c-.23.3-.42.68-.55 1.14a6 6 0 0 0-.2 1.63 6 6 0 0 0 .2 1.63c.13.46.32.84.55 1.14a2.24 2.24 0 0 0 1.85.89 2.32 2.32 0 0 0 1.85-.89c.23-.3.41-.68.55-1.14Zm-.86-3c.09.37.14.82.14 1.37 0 .55-.05 1-.14 1.38a2.7 2.7 0 0 1-.37.89 1.4 1.4 0 0 1-.54.49 1.46 1.46 0 0 1-1.27 0 1.4 1.4 0 0 1-.53-.49 2.84 2.84 0 0 1-.37-.9 5.93 5.93 0 0 1-.14-1.37c0-.55.05-1 .14-1.38.09-.37.21-.67.37-.9a1.36 1.36 0 0 1 1.17-.63 1.36 1.36 0 0 1 1.17.63c.15.23.28.53.37.9Zm6.66 3a6 6 0 0 0 .2-1.63 6 6 0 0 0-.2-1.63 3.36 3.36 0 0 0-.55-1.14 2.2 2.2 0 0 0-.83-.68 2.4 2.4 0 0 0-1.02-.22 2.22 2.22 0 0 0-1.85.9c-.23.3-.41.68-.55 1.14a6 6 0 0 0-.2 1.63 6 6 0 0 0 .2 1.63c.13.46.32.84.55 1.14a2.24 2.24 0 0 0 1.85.89 2.32 2.32 0 0 0 1.85-.89c.23-.3.41-.68.55-1.14Zm-.86-3c.09.37.14.82.14 1.37 0 .55-.05 1-.14 1.38-.1.37-.22.66-.37.89a1.4 1.4 0 0 1-.54.49 1.46 1.46 0 0 1-1.27 0 1.4 1.4 0 0 1-.53-.49 2.84 2.84 0 0 1-.37-.9 5.93 5.93 0 0 1-.14-1.37c0-.55.05-1 .14-1.38.09-.37.21-.67.37-.9a1.36 1.36 0 0 1 1.17-.63 1.36 1.36 0 0 1 1.17.63c.15.23.28.53.37.9Zm-5.09 41.19a6 6 0 0 1-.2 1.63c-.14.46-.32.84-.55 1.14-.24.3-.51.52-.83.66a2.4 2.4 0 0 1-1.02.22 2.24 2.24 0 0 1-1.84-.89c-.24-.3-.43-.67-.56-1.13a6 6 0 0 1-.2-1.63 6 6 0 0 1 .2-1.63c.13-.46.32-.84.55-1.14a2.23 2.23 0 0 1 1.85-.9 2.38 2.38 0 0 1 1.85.9c.23.3.41.68.55 1.14a6 6 0 0 1 .2 1.63Zm-.92 0c0-.55-.05-1-.14-1.38a2.7 2.7 0 0 0-.37-.9 1.36 1.36 0 0 0-1.17-.63 1.36 1.36 0 0 0-1.17.64c-.16.22-.28.52-.37.9-.1.36-.14.82-.14 1.37 0 .55.05 1 .14 1.38.09.37.21.66.37.89.15.23.33.39.53.49a1.46 1.46 0 0 0 1.27 0c.2-.1.38-.26.54-.49.15-.23.28-.53.37-.9.09-.37.14-.82.14-1.37Zm6.72 0a6 6 0 0 1-.2 1.63c-.14.46-.32.84-.55 1.14-.24.3-.51.52-.83.66a2.4 2.4 0 0 1-1.02.22 2.24 2.24 0 0 1-1.85-.89c-.23-.3-.42-.67-.55-1.13a6 6 0 0 1-.2-1.63 6 6 0 0 1 .2-1.63c.13-.46.32-.84.55-1.14a2.23 2.23 0 0 1 1.85-.9 2.38 2.38 0 0 1 1.85.9c.23.3.41.68.55 1.14a6 6 0 0 1 .2 1.63Zm-.92 0c0-.55-.05-1-.14-1.38a2.7 2.7 0 0 0-.37-.9 1.36 1.36 0 0 0-1.17-.63 1.36 1.36 0 0 0-1.17.64c-.16.22-.28.52-.37.9-.1.36-.14.82-.14 1.37 0 .55.05 1 .14 1.38.09.37.21.66.37.89.15.23.33.39.53.49a1.46 1.46 0 0 0 1.27 0c.2-.1.38-.26.54-.49.15-.23.28-.53.37-.9.09-.37.14-.82.14-1.37ZM5.27 131.7v-.68H3.86v-6.5h-.73L1 126.37l.28.39a.27.27 0 0 0 .18.1h.11a.3.3 0 0 0 .14-.06l1.27-1.1-.02.44v4.89H1.43v.68h3.84ZM6 169.58a6 6 0 0 0 .2-1.63 6 6 0 0 0-.2-1.63 3.36 3.36 0 0 0-.55-1.14 2.2 2.2 0 0 0-.83-.68 2.4 2.4 0 0 0-1.02-.22 2.23 2.23 0 0 0-1.85.9c-.23.3-.42.68-.55 1.14a6 6 0 0 0-.2 1.63 6 6 0 0 0 .2 1.63c.13.46.32.83.55 1.13a2.24 2.24 0 0 0 1.85.9 2.38 2.38 0 0 0 1.85-.89c.23-.3.41-.68.54-1.14Zm-.87-3c.1.36.15.82.15 1.37 0 .55-.05 1-.15 1.38a2.7 2.7 0 0 1-.37.89 1.4 1.4 0 0 1-.53.49 1.46 1.46 0 0 1-1.27 0 1.4 1.4 0 0 1-.54-.49 2.84 2.84 0 0 1-.36-.9 5.93 5.93 0 0 1-.14-1.37c0-.55.05-1 .14-1.38.09-.37.21-.67.36-.9a1.36 1.36 0 0 1 1.18-.63 1.36 1.36 0 0 1 1.17.64c.15.22.27.52.36.9Z" clip-rule="evenodd"/><g clip-path="url(#c)"><path fill="#92999E" fill-rule="evenodd" d="M34 176v-1h-1v1h1Zm96 0v-1h-1v1h1Zm96-1v1h-1v-1h1Zm-189 1v-1h-1v1h1Zm96-1v1h-1v-1h1Zm96 1v-1h-1v1h1Zm-189-1v1h-1v-1h1Zm96 1v-1h-1v1h1Zm96-1v1h-1v-1h1Zm-189 1v-1h-1v1h1Zm96-1v1h-1v-1h1Zm96 1v-1h-1v1h1Zm-189-1v1h-1v-1h1Zm96 1v-1h-1v1h1Zm96-1v1h-1v-1h1Zm-189 1v-1h-1v1h1Zm96-1v1h-1v-1h1Zm96 1v-1h-1v1h1Zm-189-1v1h-1v-1h1Zm96 1v-1h-1v1h1Zm96-1v1h-1v-1h1Zm-189 1v-1h-1v1h1Zm96-1v1h-1v-1h1Zm96 1v-1h-1v1h1Zm-189-1v1h-1v-1h1Zm96 1v-1h-1v1h1Zm96-1v1h-1v-1h1Zm-189 1v-1h-1v1h1Zm96-1v1h-1v-1h1Zm96 1v-1h-1v1h1Zm-189-1v1h-1v-1h1Zm96 1v-1h-1v1h1Zm96-1v1h-1v-1h1Zm-189 1v-1h-1v1h1Zm96-1v1h-1v-1h1Zm96 1v-1h-1v1h1Zm-189-1v1h-1v-1h1Zm96 1v-1h-1v1h1Zm96-1v1h-1v-1h1Zm-189 1v-1h-1v1h1Zm96-1v1h-1v-1h1Zm96 1v-1h-1v1h1Zm-189-1v1h-1v-1h1Zm96 1v-1h-1v1h1Zm96-1v1h-1v-1h1Zm-189 1v-1h-1v1h1Zm96-1v1h-1v-1h1Zm96 1v-1h-1v1h1Zm-189-1v1h-1v-1h1Zm96 1v-1h-1v1h1Zm96-1v1h-1v-1h1Zm-189 1v-1h-1v1h1Zm96-1v1h-1v-1h1Zm96 1v-1h-1v1h1Zm-189-1v1h-1v-1h1Zm96 1v-1h-1v1h1Zm96-1v1h-1v-1h1Zm-189 1v-1h-1v1h1Zm96-1v1h-1v-1h1Zm96 1v-1h-1v1h1Zm39-1v1h-1v-1h1Zm-228 1v-1h-1v1h1Zm96-1v1h-1v-1h1Zm96 1v-1h-1v1h1Zm39-1v1h-1v-1h1Zm-228 1v-1h-1v1h1Zm96-1v1h-1v-1h1Zm96 1v-1h-1v1h1Zm39-1v1h-1v-1h1Zm-228 1v-1h-1v1h1Zm96-1v1h-1v-1h1Zm96 1v-1h-1v1h1Zm39-1v1h-1v-1h1Zm-228 1v-1h-1v1h1Zm96-1v1h-1v-1h1Zm96 1v-1h-1v1h1Zm39-1v1h-1v-1h1Zm-228 1v-1h-1v1h1Zm96-1v1h-1v-1h1Zm96 1v-1h-1v1h1Zm39-1v1h-1v-1h1Zm-228 1v-1h-1v1h1Zm96-1v1h-1v-1h1Zm96 1v-1h-1v1h1Zm39-1v1h-1v-1h1Zm-228 1v-1h-1v1h1Zm96-1v1h-1v-1h1Zm96 1v-1h-1v1h1Zm39-1v1h-1v-1h1Zm-228 1v-1h-1v1h1Zm96-1v1h-1v-1h1Zm96 1v-1h-1v1h1Zm39-1v1h-1v-1h1Zm-228 1v-1h-1v1h1Zm96-1v1h-1v-1h1Zm96 1v-1h-1v1h1Zm39-1v1h-1v-1h1Zm-228 1v-1h-1v1h1Zm96-1v1h-1v-1h1Zm96 1v-1h-1v1h1Zm39-1v1h-1v-1h1Zm-228 1v-1h-1v1h1Zm96-1v1h-1v-1h1Zm96 1v-1h-1v1h1Zm39-1v1h-1v-1h1Zm-228 1v-1h-1v1h1Zm96-1v1h-1v-1h1Zm96 1v-1h-1v1h1Z" clip-rule="evenodd"/></g><g clip-path="url(#d)"><path fill="#92999E" fill-rule="evenodd" d="M34 175h-1v1h1v-1Zm0-96h-1v1h1v-1Zm-1-96h1v1h-1v-1Zm1 189h-1v1h1v-1Zm-1-96h1v1h-1v-1Zm1-96h-1v1h1v-1Zm-1 189h1v1h-1v-1Zm1-96h-1v1h1v-1Zm-1-96h1v1h-1v-1Zm1 189h-1v1h1v-1Zm-1-96h1v1h-1v-1Zm1-96h-1v1h1v-1Zm-1 189h1v1h-1v-1Zm1-96h-1v1h1v-1Zm-1-96h1v1h-1v-1Zm1 189h-1v1h1v-1Zm-1-96h1v1h-1v-1Zm1-96h-1v1h1v-1Zm-1 189h1v1h-1v-1Zm1-96h-1v1h1v-1Zm-1-96h1v1h-1v-1Zm1 189h-1v1h1v-1Zm-1-96h1v1h-1v-1Zm1-96h-1v1h1v-1Zm-1 189h1v1h-1v-1Zm1-96h-1v1h1v-1Zm-1-96h1v1h-1v-1Zm1 189h-1v1h1v-1Zm-1-96h1v1h-1v-1Zm1-96h-1v1h1v-1Zm-1 189h1v1h-1v-1Zm1-96h-1v1h1v-1Zm-1-96h1v1h-1v-1Zm1 189h-1v1h1v-1Zm-1-96h1v1h-1v-1Zm1-96h-1v1h1v-1Zm-1 189h1v1h-1v-1Zm1-96h-1v1h1v-1Zm-1-96h1v1h-1v-1Zm1 189h-1v1h1v-1Zm-1-96h1v1h-1v-1Zm1-96h-1v1h1v-1Zm-1 189h1v1h-1v-1Zm1-96h-1v1h1v-1Zm-1-96h1v1h-1v-1Zm1 189h-1v1h1v-1Zm-1-96h1v1h-1v-1Zm1-96h-1v1h1v-1Zm-1 189h1v1h-1v-1Zm1-96h-1v1h1v-1Zm-1-96h1v1h-1v-1Zm1 189h-1v1h1v-1Zm-1-96h1v1h-1v-1Zm1-96h-1v1h1v-1Zm-1 189h1v1h-1v-1Zm1-96h-1v1h1v-1Zm-1-96h1v1h-1v-1Zm1 189h-1v1h1v-1Zm-1-96h1v1h-1v-1Zm1-96h-1v1h1v-1Zm-1-39h1v1h-1v-1Zm1 228h-1v1h1v-1Zm-1-96h1v1h-1v-1Zm1-96h-1v1h1v-1Zm-1-39h1v1h-1v-1Zm1 228h-1v1h1v-1Zm-1-96h1v1h-1v-1Zm1-96h-1v1h1v-1Zm-1-39h1v1h-1v-1Zm1 228h-1v1h1v-1Zm-1-96h1v1h-1v-1Zm1-96h-1v1h1v-1Zm-1-39h1v1h-1v-1Zm1 228h-1v1h1v-1Zm-1-96h1v1h-1v-1Zm1-96h-1v1h1v-1Zm-1-39h1v1h-1v-1Zm1 228h-1v1h1v-1ZM33 7h1v1h-1V7Zm1-96h-1v1h1v-1Zm-1-39h1v1h-1v-1Zm1 228h-1v1h1v-1ZM33 4h1v1h-1V4Zm1-96h-1v1h1v-1Zm-1-39h1v1h-1v-1Zm1 228h-1v1h1v-1ZM33 1h1v1h-1V1Zm1-96h-1v1h1v-1Zm-1-39h1v1h-1v-1Zm1 228h-1v1h1v-1ZM33-2h1v1h-1v-1Zm1-96h-1v1h1v-1Zm-1-39h1v1h-1v-1Zm1 228h-1v1h1v-1ZM33-5h1v1h-1v-1Zm1-96h-1v1h1v-1Zm-1-39h1v1h-1v-1Zm1 228h-1v1h1v-1ZM33-8h1v1h-1v-1Zm1-96h-1v1h1v-1Zm-1-39h1v1h-1v-1Zm1 228h-1v1h1v-1Zm-1-96h1v1h-1v-1Zm1-96h-1v1h1v-1Zm-1-39h1v1h-1v-1Zm1 228h-1v1h1v-1Zm-1-96h1v1h-1v-1Zm1-96h-1v1h1v-1Z" clip-rule="evenodd"/></g></g><defs><clipPath id="a"><path fill="#fff" d="M0 0h320v200H0z"/></clipPath><clipPath id="c"><path fill="#fff" d="M0 0h322v1H0z" transform="translate(33 175)"/></clipPath><clipPath id="d"><path fill="#fff" d="M0 0h322v1H0z" transform="rotate(-90 104.5 71.5)"/></clipPath><linearGradient id="b" x1="178" x2="178" y1="7" y2="167" gradientUnits="userSpaceOnUse"><stop stop-color="#FAFAFB"/><stop offset="1" stop-color="#F3F3F4"/></linearGradient></defs></svg>