<svg xmlns="http://www.w3.org/2000/svg" width="320" height="200" fill="none"><path fill="url(#a)" fill-rule="evenodd" d="M80 35 0 28v145l80-8 80-7 80-28 80-15V86l-80-14-80-30-80-7Z" clip-rule="evenodd"/><g clip-path="url(#b)"><g clip-path="url(#c)"><path fill="#92999E" fill-rule="evenodd" d="M1 349H0v1h1v-1Zm0-96H0v1h1v-1Zm-1-96h1v1H0v-1Zm1 189H0v1h1v-1Zm-1-96h1v1H0v-1Zm1-96H0v1h1v-1ZM0 343h1v1H0v-1Zm1-96H0v1h1v-1Zm-1-96h1v1H0v-1Zm1 189H0v1h1v-1Zm-1-96h1v1H0v-1Zm1-96H0v1h1v-1ZM0 337h1v1H0v-1Zm1-96H0v1h1v-1Zm-1-96h1v1H0v-1Zm1 189H0v1h1v-1Zm-1-96h1v1H0v-1Zm1-96H0v1h1v-1ZM0 331h1v1H0v-1Zm1-96H0v1h1v-1Zm-1-96h1v1H0v-1Zm1 189H0v1h1v-1Zm-1-96h1v1H0v-1Zm1-96H0v1h1v-1ZM0 325h1v1H0v-1Zm1-96H0v1h1v-1Zm-1-96h1v1H0v-1Zm1 189H0v1h1v-1Zm-1-96h1v1H0v-1Zm1-96H0v1h1v-1ZM0 319h1v1H0v-1Zm1-96H0v1h1v-1Zm-1-96h1v1H0v-1Zm1 189H0v1h1v-1Zm-1-96h1v1H0v-1Zm1-96H0v1h1v-1ZM0 313h1v1H0v-1Zm1-96H0v1h1v-1Zm-1-96h1v1H0v-1Zm1 189H0v1h1v-1Zm-1-96h1v1H0v-1Zm1-96H0v1h1v-1ZM0 307h1v1H0v-1Zm1-96H0v1h1v-1Zm-1-96h1v1H0v-1Zm1 189H0v1h1v-1Zm-1-96h1v1H0v-1Zm1-96H0v1h1v-1ZM0 301h1v1H0v-1Zm1-96H0v1h1v-1Zm-1-96h1v1H0v-1Zm1 189H0v1h1v-1Zm-1-96h1v1H0v-1Zm1-96H0v1h1v-1ZM0 295h1v1H0v-1Zm1-96H0v1h1v-1Zm-1-96h1v1H0v-1Zm1 189H0v1h1v-1Zm-1-96h1v1H0v-1Zm1-96H0v1h1v-1ZM0 61h1v1H0v-1Zm1 228H0v1h1v-1Zm-1-96h1v1H0v-1Zm1-96H0v1h1v-1ZM0 58h1v1H0v-1Zm1 228H0v1h1v-1Zm-1-96h1v1H0v-1Zm1-96H0v1h1v-1ZM0 55h1v1H0v-1Zm1 228H0v1h1v-1Zm-1-96h1v1H0v-1Zm1-96H0v1h1v-1ZM0 52h1v1H0v-1Zm1 228H0v1h1v-1Zm-1-96h1v1H0v-1Zm1-96H0v1h1v-1ZM0 49h1v1H0v-1Zm1 228H0v1h1v-1Zm-1-96h1v1H0v-1Zm1-96H0v1h1v-1ZM0 46h1v1H0v-1Zm1 228H0v1h1v-1Zm-1-96h1v1H0v-1Zm1-96H0v1h1v-1ZM0 43h1v1H0v-1Zm1 228H0v1h1v-1Zm-1-96h1v1H0v-1Zm1-96H0v1h1v-1ZM0 40h1v1H0v-1Zm1 228H0v1h1v-1Zm-1-96h1v1H0v-1Zm1-96H0v1h1v-1ZM0 37h1v1H0v-1Zm1 228H0v1h1v-1Zm-1-96h1v1H0v-1Zm1-96H0v1h1v-1ZM0 34h1v1H0v-1Zm1 228H0v1h1v-1Zm-1-96h1v1H0v-1Zm1-96H0v1h1v-1ZM0 31h1v1H0v-1Zm1 228H0v1h1v-1Zm-1-96h1v1H0v-1Zm1-96H0v1h1v-1ZM0 28h1v1H0v-1Zm1 228H0v1h1v-1Zm-1-96h1v1H0v-1Zm1-96H0v1h1v-1Z" clip-rule="evenodd"/></g><g clip-path="url(#d)"><path fill="#92999E" fill-rule="evenodd" d="M81 349h-1v1h1v-1Zm0-96h-1v1h1v-1Zm-1-96h1v1h-1v-1Zm1 189h-1v1h1v-1Zm-1-96h1v1h-1v-1Zm1-96h-1v1h1v-1Zm-1 189h1v1h-1v-1Zm1-96h-1v1h1v-1Zm-1-96h1v1h-1v-1Zm1 189h-1v1h1v-1Zm-1-96h1v1h-1v-1Zm1-96h-1v1h1v-1Zm-1 189h1v1h-1v-1Zm1-96h-1v1h1v-1Zm-1-96h1v1h-1v-1Zm1 189h-1v1h1v-1Zm-1-96h1v1h-1v-1Zm1-96h-1v1h1v-1Zm-1 189h1v1h-1v-1Zm1-96h-1v1h1v-1Zm-1-96h1v1h-1v-1Zm1 189h-1v1h1v-1Zm-1-96h1v1h-1v-1Zm1-96h-1v1h1v-1Zm-1 189h1v1h-1v-1Zm1-96h-1v1h1v-1Zm-1-96h1v1h-1v-1Zm1 189h-1v1h1v-1Zm-1-96h1v1h-1v-1Zm1-96h-1v1h1v-1Zm-1 189h1v1h-1v-1Zm1-96h-1v1h1v-1Zm-1-96h1v1h-1v-1Zm1 189h-1v1h1v-1Zm-1-96h1v1h-1v-1Zm1-96h-1v1h1v-1Zm-1 189h1v1h-1v-1Zm1-96h-1v1h1v-1Zm-1-96h1v1h-1v-1Zm1 189h-1v1h1v-1Zm-1-96h1v1h-1v-1Zm1-96h-1v1h1v-1Zm-1 189h1v1h-1v-1Zm1-96h-1v1h1v-1Zm-1-96h1v1h-1v-1Zm1 189h-1v1h1v-1Zm-1-96h1v1h-1v-1Zm1-96h-1v1h1v-1Zm-1 189h1v1h-1v-1Zm1-96h-1v1h1v-1Zm-1-96h1v1h-1v-1Zm1 189h-1v1h1v-1Zm-1-96h1v1h-1v-1Zm1-96h-1v1h1v-1Zm-1 189h1v1h-1v-1Zm1-96h-1v1h1v-1Zm-1-96h1v1h-1v-1Zm1 189h-1v1h1v-1Zm-1-96h1v1h-1v-1Zm1-96h-1v1h1v-1Zm-1-39h1v1h-1v-1Zm1 228h-1v1h1v-1Zm-1-96h1v1h-1v-1Zm1-96h-1v1h1v-1Zm-1-39h1v1h-1v-1Zm1 228h-1v1h1v-1Zm-1-96h1v1h-1v-1Zm1-96h-1v1h1v-1Zm-1-39h1v1h-1v-1Zm1 228h-1v1h1v-1Zm-1-96h1v1h-1v-1Zm1-96h-1v1h1v-1Zm-1-39h1v1h-1v-1Zm1 228h-1v1h1v-1Zm-1-96h1v1h-1v-1Zm1-96h-1v1h1v-1Zm-1-39h1v1h-1v-1Zm1 228h-1v1h1v-1Zm-1-96h1v1h-1v-1Zm1-96h-1v1h1v-1Zm-1-39h1v1h-1v-1Zm1 228h-1v1h1v-1Zm-1-96h1v1h-1v-1Zm1-96h-1v1h1v-1Zm-1-39h1v1h-1v-1Zm1 228h-1v1h1v-1Zm-1-96h1v1h-1v-1Zm1-96h-1v1h1v-1Zm-1-39h1v1h-1v-1Zm1 228h-1v1h1v-1Zm-1-96h1v1h-1v-1Zm1-96h-1v1h1v-1Zm-1-39h1v1h-1v-1Zm1 228h-1v1h1v-1Zm-1-96h1v1h-1v-1Zm1-96h-1v1h1v-1Zm-1-39h1v1h-1v-1Zm1 228h-1v1h1v-1Zm-1-96h1v1h-1v-1Zm1-96h-1v1h1v-1Zm-1-39h1v1h-1v-1Zm1 228h-1v1h1v-1Zm-1-96h1v1h-1v-1Zm1-96h-1v1h1v-1Zm-1-39h1v1h-1v-1Zm1 228h-1v1h1v-1Zm-1-96h1v1h-1v-1Zm1-96h-1v1h1v-1Z" clip-rule="evenodd"/></g><g clip-path="url(#e)"><path fill="#92999E" fill-rule="evenodd" d="M161 349h-1v1h1v-1Zm0-96h-1v1h1v-1Zm-1-96h1v1h-1v-1Zm1 189h-1v1h1v-1Zm-1-96h1v1h-1v-1Zm1-96h-1v1h1v-1Zm-1 189h1v1h-1v-1Zm1-96h-1v1h1v-1Zm-1-96h1v1h-1v-1Zm1 189h-1v1h1v-1Zm-1-96h1v1h-1v-1Zm1-96h-1v1h1v-1Zm-1 189h1v1h-1v-1Zm1-96h-1v1h1v-1Zm-1-96h1v1h-1v-1Zm1 189h-1v1h1v-1Zm-1-96h1v1h-1v-1Zm1-96h-1v1h1v-1Zm-1 189h1v1h-1v-1Zm1-96h-1v1h1v-1Zm-1-96h1v1h-1v-1Zm1 189h-1v1h1v-1Zm-1-96h1v1h-1v-1Zm1-96h-1v1h1v-1Zm-1 189h1v1h-1v-1Zm1-96h-1v1h1v-1Zm-1-96h1v1h-1v-1Zm1 189h-1v1h1v-1Zm-1-96h1v1h-1v-1Zm1-96h-1v1h1v-1Zm-1 189h1v1h-1v-1Zm1-96h-1v1h1v-1Zm-1-96h1v1h-1v-1Zm1 189h-1v1h1v-1Zm-1-96h1v1h-1v-1Zm1-96h-1v1h1v-1Zm-1 189h1v1h-1v-1Zm1-96h-1v1h1v-1Zm-1-96h1v1h-1v-1Zm1 189h-1v1h1v-1Zm-1-96h1v1h-1v-1Zm1-96h-1v1h1v-1Zm-1 189h1v1h-1v-1Zm1-96h-1v1h1v-1Zm-1-96h1v1h-1v-1Zm1 189h-1v1h1v-1Zm-1-96h1v1h-1v-1Zm1-96h-1v1h1v-1Zm-1 189h1v1h-1v-1Zm1-96h-1v1h1v-1Zm-1-96h1v1h-1v-1Zm1 189h-1v1h1v-1Zm-1-96h1v1h-1v-1Zm1-96h-1v1h1v-1Zm-1 189h1v1h-1v-1Zm1-96h-1v1h1v-1Zm-1-96h1v1h-1v-1Zm1 189h-1v1h1v-1Zm-1-96h1v1h-1v-1Zm1-96h-1v1h1v-1Zm-1-39h1v1h-1v-1Zm1 228h-1v1h1v-1Zm-1-96h1v1h-1v-1Zm1-96h-1v1h1v-1Zm-1-39h1v1h-1v-1Zm1 228h-1v1h1v-1Zm-1-96h1v1h-1v-1Zm1-96h-1v1h1v-1Zm-1-39h1v1h-1v-1Zm1 228h-1v1h1v-1Zm-1-96h1v1h-1v-1Zm1-96h-1v1h1v-1Zm-1-39h1v1h-1v-1Zm1 228h-1v1h1v-1Zm-1-96h1v1h-1v-1Zm1-96h-1v1h1v-1Zm-1-39h1v1h-1v-1Zm1 228h-1v1h1v-1Zm-1-96h1v1h-1v-1Zm1-96h-1v1h1v-1Zm-1-39h1v1h-1v-1Zm1 228h-1v1h1v-1Zm-1-96h1v1h-1v-1Zm1-96h-1v1h1v-1Zm-1-39h1v1h-1v-1Zm1 228h-1v1h1v-1Zm-1-96h1v1h-1v-1Zm1-96h-1v1h1v-1Zm-1-39h1v1h-1v-1Zm1 228h-1v1h1v-1Zm-1-96h1v1h-1v-1Zm1-96h-1v1h1v-1Zm-1-39h1v1h-1v-1Zm1 228h-1v1h1v-1Zm-1-96h1v1h-1v-1Zm1-96h-1v1h1v-1Zm-1-39h1v1h-1v-1Zm1 228h-1v1h1v-1Zm-1-96h1v1h-1v-1Zm1-96h-1v1h1v-1Zm-1-39h1v1h-1v-1Zm1 228h-1v1h1v-1Zm-1-96h1v1h-1v-1Zm1-96h-1v1h1v-1Zm-1-39h1v1h-1v-1Zm1 228h-1v1h1v-1Zm-1-96h1v1h-1v-1Zm1-96h-1v1h1v-1Z" clip-rule="evenodd"/></g><g clip-path="url(#f)"><path fill="#92999E" fill-rule="evenodd" d="M241 349h-1v1h1v-1Zm0-96h-1v1h1v-1Zm-1-96h1v1h-1v-1Zm1 189h-1v1h1v-1Zm-1-96h1v1h-1v-1Zm1-96h-1v1h1v-1Zm-1 189h1v1h-1v-1Zm1-96h-1v1h1v-1Zm-1-96h1v1h-1v-1Zm1 189h-1v1h1v-1Zm-1-96h1v1h-1v-1Zm1-96h-1v1h1v-1Zm-1 189h1v1h-1v-1Zm1-96h-1v1h1v-1Zm-1-96h1v1h-1v-1Zm1 189h-1v1h1v-1Zm-1-96h1v1h-1v-1Zm1-96h-1v1h1v-1Zm-1 189h1v1h-1v-1Zm1-96h-1v1h1v-1Zm-1-96h1v1h-1v-1Zm1 189h-1v1h1v-1Zm-1-96h1v1h-1v-1Zm1-96h-1v1h1v-1Zm-1 189h1v1h-1v-1Zm1-96h-1v1h1v-1Zm-1-96h1v1h-1v-1Zm1 189h-1v1h1v-1Zm-1-96h1v1h-1v-1Zm1-96h-1v1h1v-1Zm-1 189h1v1h-1v-1Zm1-96h-1v1h1v-1Zm-1-96h1v1h-1v-1Zm1 189h-1v1h1v-1Zm-1-96h1v1h-1v-1Zm1-96h-1v1h1v-1Zm-1 189h1v1h-1v-1Zm1-96h-1v1h1v-1Zm-1-96h1v1h-1v-1Zm1 189h-1v1h1v-1Zm-1-96h1v1h-1v-1Zm1-96h-1v1h1v-1Zm-1 189h1v1h-1v-1Zm1-96h-1v1h1v-1Zm-1-96h1v1h-1v-1Zm1 189h-1v1h1v-1Zm-1-96h1v1h-1v-1Zm1-96h-1v1h1v-1Zm-1 189h1v1h-1v-1Zm1-96h-1v1h1v-1Zm-1-96h1v1h-1v-1Zm1 189h-1v1h1v-1Zm-1-96h1v1h-1v-1Zm1-96h-1v1h1v-1Zm-1 189h1v1h-1v-1Zm1-96h-1v1h1v-1Zm-1-96h1v1h-1v-1Zm1 189h-1v1h1v-1Zm-1-96h1v1h-1v-1Zm1-96h-1v1h1v-1Zm-1-39h1v1h-1v-1Zm1 228h-1v1h1v-1Zm-1-96h1v1h-1v-1Zm1-96h-1v1h1v-1Zm-1-39h1v1h-1v-1Zm1 228h-1v1h1v-1Zm-1-96h1v1h-1v-1Zm1-96h-1v1h1v-1Zm-1-39h1v1h-1v-1Zm1 228h-1v1h1v-1Zm-1-96h1v1h-1v-1Zm1-96h-1v1h1v-1Zm-1-39h1v1h-1v-1Zm1 228h-1v1h1v-1Zm-1-96h1v1h-1v-1Zm1-96h-1v1h1v-1Zm-1-39h1v1h-1v-1Zm1 228h-1v1h1v-1Zm-1-96h1v1h-1v-1Zm1-96h-1v1h1v-1Zm-1-39h1v1h-1v-1Zm1 228h-1v1h1v-1Zm-1-96h1v1h-1v-1Zm1-96h-1v1h1v-1Zm-1-39h1v1h-1v-1Zm1 228h-1v1h1v-1Zm-1-96h1v1h-1v-1Zm1-96h-1v1h1v-1Zm-1-39h1v1h-1v-1Zm1 228h-1v1h1v-1Zm-1-96h1v1h-1v-1Zm1-96h-1v1h1v-1Zm-1-39h1v1h-1v-1Zm1 228h-1v1h1v-1Zm-1-96h1v1h-1v-1Zm1-96h-1v1h1v-1Zm-1-39h1v1h-1v-1Zm1 228h-1v1h1v-1Zm-1-96h1v1h-1v-1Zm1-96h-1v1h1v-1Zm-1-39h1v1h-1v-1Zm1 228h-1v1h1v-1Zm-1-96h1v1h-1v-1Zm1-96h-1v1h1v-1Zm-1-39h1v1h-1v-1Zm1 228h-1v1h1v-1Zm-1-96h1v1h-1v-1Zm1-96h-1v1h1v-1Z" clip-rule="evenodd"/></g><g clip-path="url(#g)"><path fill="#92999E" fill-rule="evenodd" d="M320 349h-1v1h1v-1Zm0-96h-1v1h1v-1Zm-1-96h1v1h-1v-1Zm1 189h-1v1h1v-1Zm-1-96h1v1h-1v-1Zm1-96h-1v1h1v-1Zm-1 189h1v1h-1v-1Zm1-96h-1v1h1v-1Zm-1-96h1v1h-1v-1Zm1 189h-1v1h1v-1Zm-1-96h1v1h-1v-1Zm1-96h-1v1h1v-1Zm-1 189h1v1h-1v-1Zm1-96h-1v1h1v-1Zm-1-96h1v1h-1v-1Zm1 189h-1v1h1v-1Zm-1-96h1v1h-1v-1Zm1-96h-1v1h1v-1Zm-1 189h1v1h-1v-1Zm1-96h-1v1h1v-1Zm-1-96h1v1h-1v-1Zm1 189h-1v1h1v-1Zm-1-96h1v1h-1v-1Zm1-96h-1v1h1v-1Zm-1 189h1v1h-1v-1Zm1-96h-1v1h1v-1Zm-1-96h1v1h-1v-1Zm1 189h-1v1h1v-1Zm-1-96h1v1h-1v-1Zm1-96h-1v1h1v-1Zm-1 189h1v1h-1v-1Zm1-96h-1v1h1v-1Zm-1-96h1v1h-1v-1Zm1 189h-1v1h1v-1Zm-1-96h1v1h-1v-1Zm1-96h-1v1h1v-1Zm-1 189h1v1h-1v-1Zm1-96h-1v1h1v-1Zm-1-96h1v1h-1v-1Zm1 189h-1v1h1v-1Zm-1-96h1v1h-1v-1Zm1-96h-1v1h1v-1Zm-1 189h1v1h-1v-1Zm1-96h-1v1h1v-1Zm-1-96h1v1h-1v-1Zm1 189h-1v1h1v-1Zm-1-96h1v1h-1v-1Zm1-96h-1v1h1v-1Zm-1 189h1v1h-1v-1Zm1-96h-1v1h1v-1Zm-1-96h1v1h-1v-1Zm1 189h-1v1h1v-1Zm-1-96h1v1h-1v-1Zm1-96h-1v1h1v-1Zm-1 189h1v1h-1v-1Zm1-96h-1v1h1v-1Zm-1-96h1v1h-1v-1Zm1 189h-1v1h1v-1Zm-1-96h1v1h-1v-1Zm1-96h-1v1h1v-1Zm-1-39h1v1h-1v-1Zm1 228h-1v1h1v-1Zm-1-96h1v1h-1v-1Zm1-96h-1v1h1v-1Zm-1-39h1v1h-1v-1Zm1 228h-1v1h1v-1Zm-1-96h1v1h-1v-1Zm1-96h-1v1h1v-1Zm-1-39h1v1h-1v-1Zm1 228h-1v1h1v-1Zm-1-96h1v1h-1v-1Zm1-96h-1v1h1v-1Zm-1-39h1v1h-1v-1Zm1 228h-1v1h1v-1Zm-1-96h1v1h-1v-1Zm1-96h-1v1h1v-1Zm-1-39h1v1h-1v-1Zm1 228h-1v1h1v-1Zm-1-96h1v1h-1v-1Zm1-96h-1v1h1v-1Zm-1-39h1v1h-1v-1Zm1 228h-1v1h1v-1Zm-1-96h1v1h-1v-1Zm1-96h-1v1h1v-1Zm-1-39h1v1h-1v-1Zm1 228h-1v1h1v-1Zm-1-96h1v1h-1v-1Zm1-96h-1v1h1v-1Zm-1-39h1v1h-1v-1Zm1 228h-1v1h1v-1Zm-1-96h1v1h-1v-1Zm1-96h-1v1h1v-1Zm-1-39h1v1h-1v-1Zm1 228h-1v1h1v-1Zm-1-96h1v1h-1v-1Zm1-96h-1v1h1v-1Zm-1-39h1v1h-1v-1Zm1 228h-1v1h1v-1Zm-1-96h1v1h-1v-1Zm1-96h-1v1h1v-1Zm-1-39h1v1h-1v-1Zm1 228h-1v1h1v-1Zm-1-96h1v1h-1v-1Zm1-96h-1v1h1v-1Zm-1-39h1v1h-1v-1Zm1 228h-1v1h1v-1Zm-1-96h1v1h-1v-1Zm1-96h-1v1h1v-1Z" clip-rule="evenodd"/></g></g><path fill="#071722" fill-opacity=".05" d="m160 42 80 30v58l-80 28V42ZM0 28l80 7v130l-80 8V28Z"/><path fill="#92999E" fill-rule="evenodd" d="M61.9 191.55a1.83 1.83 0 0 1 0-1.19 1.29 1.29 0 0 1 .77-.75 1.64 1.64 0 0 1 1.17-.01 1.27 1.27 0 0 1 .75.76 1.6 1.6 0 0 1 .01 1.13 1.34 1.34 0 0 1-.76.77 1.75 1.75 0 0 1-1.23.02 1.2 1.2 0 0 1-.72-.73Zm2.18 1.32-.2.28L61.7 196h.82c.1 0 .2-.02.27-.06a.47.47 0 0 0 .19-.15l1.74-2.52a3.89 3.89 0 0 0 .78-1.61 2.81 2.81 0 0 0-.1-1.53 2.06 2.06 0 0 0-1.19-1.2 2.53 2.53 0 0 0-1.89 0 2.17 2.17 0 0 0-1.41 2.07 1.98 1.98 0 0 0 .6 1.53c.18.17.4.3.63.4a2.28 2.28 0 0 0 1.5.02 2 2 0 0 0 .62-.34l-.18.26Zm7.6-.45a6 6 0 0 1-.2 1.63 3.5 3.5 0 0 1-.55 1.13c-.24.3-.51.53-.83.67a2.4 2.4 0 0 1-1.02.22 2.24 2.24 0 0 1-1.85-.89c-.23-.3-.42-.67-.55-1.13a6 6 0 0 1-.2-1.63 6 6 0 0 1 .2-1.63c.13-.46.32-.84.55-1.14a2.23 2.23 0 0 1 1.85-.9 2.25 2.25 0 0 1 1.85.9c.23.3.41.68.55 1.14a6 6 0 0 1 .2 1.63Zm-.92 0c0-.55-.05-1-.14-1.38a2.7 2.7 0 0 0-.37-.9 1.36 1.36 0 0 0-1.17-.63 1.36 1.36 0 0 0-1.17.64c-.16.22-.28.52-.37.9-.1.36-.14.82-.14 1.37 0 .55.05 1 .14 1.38.09.36.21.66.37.89.15.23.33.39.53.49a1.46 1.46 0 0 0 1.27 0c.2-.1.38-.26.54-.49.15-.23.28-.53.37-.9.09-.36.14-.82.14-1.37Zm72.52 2.95c.23 0 .44-.03.63-.1a1.18 1.18 0 0 0 .76-.7c.07-.16.1-.34.1-.54 0-.25-.04-.46-.12-.63a1.12 1.12 0 0 0-.33-.44 1.3 1.3 0 0 0-.47-.24 2 2 0 0 0-1.13 0c-.18.06-.34.13-.48.25-.14.1-.25.25-.33.43a1.5 1.5 0 0 0-.12.63 1.26 1.26 0 0 0 .4.97c.12.12.28.2.46.28.19.06.4.09.63.09Zm0-5.93c-.21 0-.4.04-.56.1a1.12 1.12 0 0 0-.65.65 1.61 1.61 0 0 0-.01.94c.04.15.12.29.22.41s.24.21.4.28c.17.08.37.11.6.11.23 0 .43-.03.6-.1.16-.08.3-.17.4-.29a1.27 1.27 0 0 0 .3-.88c0-.17-.03-.33-.09-.47a1.12 1.12 0 0 0-.65-.65 1.6 1.6 0 0 0-.56-.1Zm1.03 2.82c.44.13.79.34 1.03.64s.36.68.36 1.14c0 .31-.06.6-.18.85s-.29.46-.5.64c-.2.18-.46.31-.76.41a3.36 3.36 0 0 1-1.96 0 2.3 2.3 0 0 1-.76-.41 1.8 1.8 0 0 1-.5-.64 2 2 0 0 1-.17-.85c0-.46.12-.84.36-1.14.24-.3.58-.5 1.03-.64a1.74 1.74 0 0 1-.86-.62 1.74 1.74 0 0 1-.28-1 1.78 1.78 0 0 1 .6-1.34c.18-.17.4-.3.67-.4.27-.1.56-.15.9-.15.31 0 .6.05.88.15.26.1.5.23.68.4a1.78 1.78 0 0 1 .6 1.34 1.67 1.67 0 0 1-1.14 1.63Zm7.17 1.79a6 6 0 0 0 .2-1.63 6 6 0 0 0-.2-1.63 3.35 3.35 0 0 0-.55-1.14 2.2 2.2 0 0 0-.83-.68 2.39 2.39 0 0 0-1.02-.22 2.23 2.23 0 0 0-1.84.9c-.24.3-.43.68-.56 1.14a6 6 0 0 0-.2 1.63 6 6 0 0 0 .2 1.63c.13.46.32.83.55 1.13a2.25 2.25 0 0 0 1.85.9 2.38 2.38 0 0 0 1.85-.89c.23-.3.41-.68.55-1.14Zm-.86-3c.09.36.14.82.14 1.37 0 .55-.05 1-.14 1.38-.1.36-.22.66-.37.89-.16.23-.34.39-.54.49a1.46 1.46 0 0 1-1.27 0 1.4 1.4 0 0 1-.53-.49 2.86 2.86 0 0 1-.37-.9 5.93 5.93 0 0 1-.14-1.37c0-.55.05-1 .14-1.38.09-.37.21-.67.37-.9a1.37 1.37 0 0 1 1.17-.63 1.35 1.35 0 0 1 1.17.64c.15.22.28.52.37.9Zm81.06 1.37a6 6 0 0 1-.2 1.63 3.5 3.5 0 0 1-.55 1.13c-.24.3-.51.53-.83.67-.32.15-.66.22-1.02.22a2.25 2.25 0 0 1-1.84-.89c-.24-.3-.43-.67-.56-1.13a6 6 0 0 1-.2-1.63 6 6 0 0 1 .2-1.63c.13-.46.32-.84.55-1.14a2.23 2.23 0 0 1 1.85-.9 2.25 2.25 0 0 1 1.85.9c.23.3.41.68.55 1.14a6 6 0 0 1 .2 1.63Zm-.92 0c0-.55-.05-1-.14-1.38a2.69 2.69 0 0 0-.37-.9 1.35 1.35 0 0 0-1.17-.63 1.37 1.37 0 0 0-1.17.64c-.16.22-.28.52-.37.9-.1.36-.14.82-.14 1.37 0 .55.05 1 .14 1.38.09.36.21.66.37.89.15.23.33.39.53.49a1.46 1.46 0 0 0 1.27 0c.2-.1.38-.26.54-.49.15-.23.28-.53.37-.9.09-.36.14-.82.14-1.37Zm73.56 2.74c.1 0 .17.02.23.08a.3.3 0 0 1 .08.22v.54h-4.78v-.3a.55.55 0 0 1 .17-.38l2.3-2.31.51-.55c.16-.19.3-.37.4-.55a1.93 1.93 0 0 0 .35-1.14c0-.2-.04-.39-.1-.55a1.06 1.06 0 0 0-.68-.62 1.57 1.57 0 0 0-1.42.22 1.28 1.28 0 0 0-.47.77c-.04.12-.1.2-.16.23a.44.44 0 0 1-.29.03l-.46-.07a2.34 2.34 0 0 1 .77-1.5c.21-.18.45-.3.71-.39.26-.09.55-.13.86-.13.3 0 .58.04.85.13.26.09.49.22.68.4.2.17.35.37.46.62a2.25 2.25 0 0 1 .04 1.59 3.56 3.56 0 0 1-.8 1.25l-.56.6-1.9 1.93a3.27 3.27 0 0 1 .8-.13h2.4Zm6.16-1.11a6 6 0 0 0 .2-1.63 6 6 0 0 0-.2-1.63 3.35 3.35 0 0 0-.55-1.14 2.2 2.2 0 0 0-.83-.68 2.39 2.39 0 0 0-1.02-.22 2.23 2.23 0 0 0-1.85.9c-.23.3-.42.68-.55 1.14a6 6 0 0 0-.2 1.63 6 6 0 0 0 .2 1.63c.13.46.32.83.55 1.13a2.25 2.25 0 0 0 1.85.9 2.38 2.38 0 0 0 1.85-.89c.23-.3.41-.68.55-1.14Zm-.86-3c.09.36.14.82.14 1.37 0 .55-.05 1-.14 1.38-.1.36-.22.66-.37.89-.16.23-.33.39-.54.49a1.46 1.46 0 0 1-1.27 0 1.4 1.4 0 0 1-.53-.49 2.86 2.86 0 0 1-.37-.9 5.93 5.93 0 0 1-.14-1.37c0-.55.05-1 .14-1.38.09-.37.21-.67.37-.9a1.37 1.37 0 0 1 1.17-.63 1.35 1.35 0 0 1 1.17.64c.15.22.28.52.37.9Zm4.84.27c.09-.22.13-.47.13-.75 0-.3-.04-.55-.12-.77a1.6 1.6 0 0 0-.33-.56 1.43 1.43 0 0 0-.5-.36 1.6 1.6 0 0 0-1.26.01 1.45 1.45 0 0 0-.84.91c-.08.22-.12.48-.12.76s.04.54.12.76c.08.22.2.4.33.56.15.15.31.27.5.34a1.62 1.62 0 0 0 1.24 0c.2-.07.36-.19.5-.34.15-.15.27-.34.35-.56Zm-.63-1.31c.05.15.07.34.07.56 0 .21-.02.4-.07.55a1 1 0 0 1-.2.37.72.72 0 0 1-.28.2 1.01 1.01 0 0 1-.7 0 .73.73 0 0 1-.27-.2c-.08-.1-.15-.22-.2-.37a1.94 1.94 0 0 1-.06-.56c0-.22.02-.4.07-.56.04-.15.1-.27.19-.37a.7.7 0 0 1 .28-.22.95.95 0 0 1 .7 0c.1.05.2.12.28.22a1 1 0 0 1 .2.38Zm3.41-1.13a.6.6 0 0 0-.11.1l-5.24 7.02h.66a.33.33 0 0 0 .28-.15l5.24-7.01h-.64a.34.34 0 0 0-.19.04Zm1.19 6.18c.08-.22.13-.47.13-.75 0-.29-.04-.54-.13-.77a1.63 1.63 0 0 0-.33-.56 1.34 1.34 0 0 0-.5-.35 1.64 1.64 0 0 0-1.25 0 1.46 1.46 0 0 0-.84.91 2.3 2.3 0 0 0-.12.77c0 .28.04.53.12.75.08.22.19.4.33.56a1.48 1.48 0 0 0 1.13.47 1.54 1.54 0 0 0 1.46-1.03Zm-.63-1.31a2.19 2.19 0 0 1 0 1.11 1 1 0 0 1-.2.37.72.72 0 0 1-.28.2 1.01 1.01 0 0 1-.7 0 .73.73 0 0 1-.28-.2c-.08-.1-.15-.22-.2-.37a2.02 2.02 0 0 1-.06-.55c0-.22.02-.4.07-.56.04-.16.1-.28.19-.38a.7.7 0 0 1 .28-.21.95.95 0 0 1 .7 0c.1.04.2.11.28.21a1 1 0 0 1 .2.38Zm-82.34-2.43c.09-.22.13-.47.13-.75 0-.3-.04-.55-.12-.77a1.6 1.6 0 0 0-.33-.56 1.43 1.43 0 0 0-.5-.36 1.6 1.6 0 0 0-1.26.01 1.45 1.45 0 0 0-.84.91c-.08.22-.12.48-.12.76s.04.54.12.76c.08.22.2.4.33.56.15.15.31.27.5.34a1.62 1.62 0 0 0 1.24 0c.2-.07.36-.19.5-.34.15-.15.27-.34.35-.56Zm-.63-1.31c.05.15.07.34.07.56 0 .21-.02.4-.07.55a1 1 0 0 1-.2.37.72.72 0 0 1-.28.2 1.01 1.01 0 0 1-.7 0 .73.73 0 0 1-.27-.2c-.08-.1-.15-.22-.2-.37a1.94 1.94 0 0 1-.06-.56c0-.22.02-.4.07-.56.04-.15.1-.27.19-.37a.7.7 0 0 1 .28-.22.95.95 0 0 1 .7 0c.1.05.2.12.28.22a1 1 0 0 1 .2.38Zm3.41-1.13a.6.6 0 0 0-.11.1l-5.24 7.02h.66a.33.33 0 0 0 .28-.15l5.24-7.01h-.64a.34.34 0 0 0-.19.04Zm1.19 6.18c.08-.22.13-.47.13-.75 0-.29-.04-.54-.13-.77a1.63 1.63 0 0 0-.33-.56 1.34 1.34 0 0 0-.5-.35 1.64 1.64 0 0 0-1.26 0 1.46 1.46 0 0 0-.83.91 2.3 2.3 0 0 0-.12.77c0 .28.04.53.12.75.08.22.19.4.33.56a1.48 1.48 0 0 0 1.13.47 1.54 1.54 0 0 0 1.46-1.03Zm-.63-1.31a2.19 2.19 0 0 1 0 1.11 1 1 0 0 1-.2.37.72.72 0 0 1-.28.2 1.01 1.01 0 0 1-.7 0 .73.73 0 0 1-.28-.2c-.08-.1-.15-.22-.2-.37a2.02 2.02 0 0 1-.06-.55c0-.22.02-.4.07-.56.04-.16.1-.28.19-.38a.7.7 0 0 1 .28-.21.95.95 0 0 1 .7 0c.1.04.2.11.28.21a1 1 0 0 1 .2.38Zm-14.77-3.29v2.95h-2.57l2.61-3.55a5.97 5.97 0 0 0-.04.6Zm1.87 3.47v-.52h-1.09v-4.57h-.83l-3.48 4.62.09.45c0 .06.04.11.09.15.05.04.1.06.17.06h3.18V196h.78v-1.88h.9c.06 0 .1-.02.14-.06a.2.2 0 0 0 .05-.13Zm-70.3-3.37c0 .28-.05.54-.14.76-.08.22-.2.4-.35.56a1.54 1.54 0 0 1-1.11.47c-.22 0-.43-.04-.62-.13-.2-.07-.36-.19-.5-.34a1.66 1.66 0 0 1-.34-.56 2.23 2.23 0 0 1-.12-.75c0-.3.04-.55.12-.77a1.45 1.45 0 0 1 .84-.92 1.61 1.61 0 0 1 1.25.01 1.5 1.5 0 0 1 .84.91c.08.22.12.48.12.76Zm-.7 0c0-.22-.02-.4-.07-.56a1 1 0 0 0-.2-.37.68.68 0 0 0-.28-.22.95.95 0 0 0-.7 0 .7.7 0 0 0-.27.22c-.08.1-.15.22-.2.38-.04.15-.06.34-.06.56 0 .21.02.4.07.55.04.15.1.27.19.37.08.1.17.16.28.2.1.05.22.06.34.06a.8.8 0 0 0 .35-.06.7.7 0 0 0 .29-.2 1 1 0 0 0 .2-.37c.04-.15.06-.34.06-.56Zm3.23-1.57a.6.6 0 0 1 .11-.11.36.36 0 0 1 .19-.04h.64l-5.24 7.01a.33.33 0 0 1-.28.15h-.66l5.24-7.01Zm1.43 5.32c0 .28-.05.53-.13.75-.09.22-.2.4-.35.56a1.54 1.54 0 0 1-1.11.47c-.23 0-.44-.05-.63-.13a1.48 1.48 0 0 1-.83-.9 2.19 2.19 0 0 1-.12-.75c0-.29.04-.54.12-.77a1.46 1.46 0 0 1 1.46-1.04c.22 0 .43.04.62.13.2.08.37.2.5.34.15.16.26.35.34.57.09.23.13.48.13.77Zm-.7 0c0-.22-.02-.4-.06-.56a1 1 0 0 0-.2-.38.7.7 0 0 0-.28-.21.95.95 0 0 0-.7 0 .7.7 0 0 0-.28.21c-.08.1-.15.22-.2.38a2.1 2.1 0 0 0-.06.56c0 .22.02.4.07.55.04.15.1.27.19.37.08.1.17.16.28.2a1.02 1.02 0 0 0 .7 0c.1-.04.2-.1.28-.2a1 1 0 0 0 .2-.37c.04-.15.07-.33.07-.55Zm-83.4-2.99c.09-.22.13-.47.13-.75 0-.3-.04-.55-.12-.77a1.44 1.44 0 0 0-.84-.92 1.6 1.6 0 0 0-1.25.01 1.44 1.44 0 0 0-.84.91c-.08.22-.12.48-.12.76s.04.54.12.76c.08.22.2.4.33.56.15.15.31.27.5.34a1.62 1.62 0 0 0 1.24 0c.2-.07.36-.19.5-.34.15-.15.27-.34.35-.56Zm-.63-1.31c.05.15.07.34.07.56 0 .21-.02.4-.07.55a.78.78 0 0 1-.2.37.72.72 0 0 1-.28.2 1.02 1.02 0 0 1-.7 0 .73.73 0 0 1-.27-.2c-.08-.1-.15-.22-.2-.37a1.92 1.92 0 0 1-.06-.56c0-.22.02-.4.07-.56.04-.15.1-.27.19-.37.08-.1.17-.17.28-.22a.95.95 0 0 1 .7 0c.1.05.2.12.28.22.08.1.15.22.2.38Zm3.41-1.13a.57.57 0 0 0-.11.1L72.89 196h.66a.33.33 0 0 0 .28-.15l5.24-7.01h-.64a.34.34 0 0 0-.19.04Zm1.19 6.18c.08-.22.13-.47.13-.75 0-.29-.04-.54-.13-.77a1.6 1.6 0 0 0-.33-.56 1.34 1.34 0 0 0-.5-.35 1.63 1.63 0 0 0-1.25 0 1.45 1.45 0 0 0-.84.91 2.3 2.3 0 0 0-.12.77c0 .28.04.53.12.75a1.48 1.48 0 0 0 1.46 1.03 1.54 1.54 0 0 0 1.46-1.03Zm-.63-1.31a2.19 2.19 0 0 1 0 1.11 1 1 0 0 1-.2.37.72.72 0 0 1-.28.2 1.02 1.02 0 0 1-.7 0 .73.73 0 0 1-.28-.2c-.08-.1-.15-.22-.2-.37a2 2 0 0 1-.06-.55c0-.22.02-.4.07-.56.04-.16.1-.28.19-.38a.7.7 0 0 1 .28-.21.95.95 0 0 1 .7 0c.1.04.2.11.28.21.09.1.15.22.2.38ZM159.26 12V4.64h-.89V12h.9Zm-91.68 0h.9V7.03h-3.5V5.3h-.46a.2.2 0 0 0-.14.05.21.21 0 0 0-.06.12l-.2 1.56-.84.11v.35c0 .07.02.12.06.15a.2.2 0 0 0 .13.05h.61v3.1c0 .42.1.74.32.96.22.23.53.34.93.34.23 0 .45-.04.67-.12.21-.08.4-.2.55-.34l-.26-.43c-.04-.05-.08-.08-.12-.08-.03 0-.06.01-.1.04a2.15 2.15 0 0 1-.3.16.73.73 0 0 1-.24.04.54.54 0 0 1-.4-.16c-.1-.1-.16-.26-.16-.47V7.68h2.61V12Zm1.06-6.45a.56.56 0 0 0 0-.49.59.59 0 0 0-.14-.2.6.6 0 0 0-.45-.19.6.6 0 0 0-.24.05.62.62 0 0 0-.2.14.63.63 0 0 0-.13.2.6.6 0 0 0 0 .5.66.66 0 0 0 .33.32.6.6 0 0 0 .49 0 .64.64 0 0 0 .2-.13c.06-.06.1-.12.14-.2Zm8.63 3.98c.18 0 .34-.03.48-.08a.97.97 0 0 0 .34-.21c.1-.09.17-.2.21-.32.05-.13.07-.26.07-.41a.97.97 0 0 0-.28-.74c-.19-.19-.46-.28-.82-.28-.36 0-.63.1-.82.28a.99.99 0 0 0-.28.74c0 .15.02.28.07.41a.92.92 0 0 0 .56.53c.14.05.3.08.47.08Zm1.61 2.75a.43.43 0 0 0-.1-.3.7.7 0 0 0-.29-.18 1.7 1.7 0 0 0-.41-.1 7.14 7.14 0 0 0-1.03-.07 6.27 6.27 0 0 1-.52-.05c-.19.09-.34.2-.46.33a.67.67 0 0 0-.09.78c.06.1.15.18.27.25.12.07.27.13.45.17a2.91 2.91 0 0 0 1.29 0c.19-.04.35-.1.48-.18a.9.9 0 0 0 .3-.29.66.66 0 0 0 .11-.36Zm.9-5.14v.33c0 .1-.07.18-.2.2l-.58.08c.11.22.17.46.17.73A1.55 1.55 0 0 1 78.03 10a2.56 2.56 0 0 1-1.43.03.88.88 0 0 0-.24.22.37.37 0 0 0-.09.22c0 .12.05.21.15.28.1.06.23.1.39.13l.54.05a13.8 13.8 0 0 1 1.26.1c.21.04.4.1.55.19.16.08.3.2.39.34a1 1 0 0 1 .15.57c0 .22-.06.43-.17.63-.1.2-.26.38-.46.54-.2.16-.45.29-.75.38a3.81 3.81 0 0 1-1.97.04c-.27-.08-.5-.18-.69-.3a1.3 1.3 0 0 1-.41-.43 1.02 1.02 0 0 1-.14-.5.9.9 0 0 1 .24-.64c.16-.17.37-.31.64-.41a.96.96 0 0 1-.36-.27.73.73 0 0 1-.13-.45c0-.08.02-.15.04-.23a.93.93 0 0 1 .12-.23 1.3 1.3 0 0 1 .49-.41 1.56 1.56 0 0 1-.59-.56c-.14-.23-.2-.5-.2-.81 0-.25.04-.47.13-.67a1.64 1.64 0 0 1 1.01-.84 2.5 2.5 0 0 1 1.91.17h1.37Zm-9 .53a3 3 0 0 1 .73-.59 1.9 1.9 0 0 1 .95-.23c.28 0 .52.05.73.14a1.57 1.57 0 0 1 .85 1c.08.24.11.5.11.78V12h-.9V8.77c0-.38-.08-.68-.26-.89-.17-.2-.43-.32-.8-.32-.25 0-.5.07-.73.2-.23.12-.44.3-.63.51V12h-.9V6.93h.54c.13 0 .2.07.23.19l.07.55Zm-8.26.16a.4.4 0 0 1-.08.09.18.18 0 0 1-.1.03.3.3 0 0 1-.17-.06 2.28 2.28 0 0 0-.55-.28 1.47 1.47 0 0 0-.47-.06c-.25 0-.47.04-.66.13-.2.1-.35.22-.48.38a1.8 1.8 0 0 0-.3.61 3.26 3.26 0 0 0 .01 1.61c.08.24.17.44.3.6.13.16.29.29.47.38.18.08.38.12.61.12.22 0 .4-.03.54-.08s.25-.1.34-.17c.1-.06.17-.12.23-.17a.3.3 0 0 1 .19-.08.2.2 0 0 1 .17.08l.25.33a1.8 1.8 0 0 1-.38.35 2.39 2.39 0 0 1-.96.38 2.47 2.47 0 0 1-1.42-.13c-.27-.11-.5-.28-.7-.5a2.4 2.4 0 0 1-.48-.82 3.43 3.43 0 0 1-.01-2.15 2.12 2.12 0 0 1 1.2-1.37c.3-.13.64-.2 1.02-.2a2.28 2.28 0 0 1 1.67.66l-.24.32Zm-5.5.52a2 2 0 0 1 .08.56h-2.77c.06-.44.22-.78.46-1.03.25-.25.6-.37 1.02-.37.2 0 .38.03.54.1a1 1 0 0 1 .4.3c.12.12.2.27.26.44Zm.4 3.29c.16-.1.3-.22.4-.35l-.25-.32a.2.2 0 0 0-.17-.09.4.4 0 0 0-.2.08 3.34 3.34 0 0 1-.71.33c-.16.06-.35.08-.58.08-.24 0-.45-.04-.65-.11-.2-.08-.36-.2-.5-.36a1.74 1.74 0 0 1-.33-.6 3.03 3.03 0 0 1-.13-.83h3.39c.08 0 .14-.02.17-.07s.04-.14.04-.28c0-.36-.05-.68-.16-.96a1.97 1.97 0 0 0-1.95-1.3c-.37 0-.7.06-1 .19a2.18 2.18 0 0 0-1.21 1.33 3.45 3.45 0 0 0 .02 2.15 2.2 2.2 0 0 0 1.27 1.37c.3.11.62.17.97.17a3.16 3.16 0 0 0 1.59-.43ZM49 10.78a1.38 1.38 0 0 0 1.19.6c.47 0 .83-.17 1.09-.5.25-.34.38-.82.38-1.45 0-.33-.03-.6-.1-.85a1.6 1.6 0 0 0-.24-.58.98.98 0 0 0-.4-.33c-.17-.07-.35-.1-.55-.1-.3 0-.55.06-.77.2a2.4 2.4 0 0 0-.6.56v2.45Zm-.04-3.06c.21-.26.46-.48.74-.64.28-.16.6-.24.96-.24a1.68 1.68 0 0 1 1.4.67c.16.22.3.49.38.81a4.17 4.17 0 0 1-.01 2.16c-.1.32-.25.6-.44.83a1.9 1.9 0 0 1-.69.56c-.27.13-.57.2-.91.2a1.9 1.9 0 0 1-.8-.16c-.22-.1-.42-.25-.59-.44v2.24h-.9V6.93h.54c.13 0 .2.07.24.19l.08.6Zm-2.41.16a.2.2 0 0 0 .18-.11l.2-.33a2.37 2.37 0 0 0-1.59-.59c-.28 0-.54.04-.76.12a1.7 1.7 0 0 0-.56.33 1.34 1.34 0 0 0-.47 1.02c0 .22.03.4.1.56.08.15.18.28.3.38.13.1.27.19.43.26l.48.18.49.15c.16.05.3.1.42.18a1 1 0 0 1 .3.23c.07.09.11.2.11.35a.8.8 0 0 1-.25.58.99.99 0 0 1-.33.19c-.13.04-.28.06-.45.06a1.6 1.6 0 0 1-.86-.22l-.24-.16a.33.33 0 0 0-.2-.07c-.05 0-.1.01-.13.04a.3.3 0 0 0-.1.1l-.2.33a2.47 2.47 0 0 0 1.68.62 2.31 2.31 0 0 0 1.42-.46c.16-.15.29-.32.37-.52.08-.2.13-.42.13-.65a1.09 1.09 0 0 0-.41-.89c-.13-.1-.27-.18-.42-.25a5.57 5.57 0 0 0-.97-.34c-.16-.05-.3-.1-.42-.17a1.01 1.01 0 0 1-.3-.22.49.49 0 0 1-.1-.33c0-.1.01-.2.06-.28a.73.73 0 0 1 .2-.24.97.97 0 0 1 .3-.15 1.5 1.5 0 0 1 .85 0l.33.12.24.12c.06.04.12.06.17.06Zm-6.3-1.03c.36 0 .7.07 1 .19a2.14 2.14 0 0 1 1.23 1.35c.12.32.17.68.17 1.07 0 .4-.05.76-.17 1.08a2.15 2.15 0 0 1-1.24 1.35c-.3.12-.63.18-1 .18a2.7 2.7 0 0 1-1-.18 2.14 2.14 0 0 1-1.25-1.35 3.31 3.31 0 0 1-.17-1.08c0-.4.06-.75.17-1.07a2.14 2.14 0 0 1 1.25-1.35c.3-.12.63-.19 1-.19Zm0 4.53c.5 0 .87-.17 1.11-.5.25-.34.37-.81.37-1.41 0-.6-.12-1.07-.37-1.41-.24-.34-.62-.5-1.12-.5-.25 0-.47.04-.66.12-.19.1-.35.22-.47.38-.13.16-.22.36-.28.6-.06.24-.1.51-.1.81 0 .6.13 1.07.38 1.4.25.34.63.5 1.13.5ZM36.1 7.13c-.23.2-.43.46-.59.81l-.06-.77a.26.26 0 0 0-.07-.19c-.04-.04-.1-.06-.2-.06h-.51V12h.9V8.8c.06-.17.13-.33.2-.46.08-.14.17-.25.27-.34.1-.1.21-.16.33-.21a1.41 1.41 0 0 1 .74-.04l.2.03c.08 0 .13-.04.15-.13l.07-.66a.82.82 0 0 0-.27-.11 1.3 1.3 0 0 0-.3-.04c-.34 0-.62.1-.86.3Zm-5 1.42c.27 0 .52-.04.73-.11.21-.07.39-.18.53-.3.15-.14.26-.3.33-.48.08-.18.11-.39.11-.6 0-.46-.14-.82-.42-1.08-.28-.25-.71-.38-1.28-.38h-1.15v2.95h1.15Zm0-3.72c.45 0 .84.06 1.18.16.33.1.61.26.83.45.22.2.38.43.5.7a2.63 2.63 0 0 1-.02 1.83 1.9 1.9 0 0 1-.51.71c-.23.2-.5.36-.84.47a3.6 3.6 0 0 1-1.14.17h-1.15V12h-.97V4.83h2.12Zm125.03 4.89a7.2 7.2 0 0 0-1.05.1c-.29.05-.53.12-.7.2a1 1 0 0 0-.4.3.64.64 0 0 0-.12.38c0 .13.02.24.06.34a.63.63 0 0 0 .44.37 1.9 1.9 0 0 0 .76 0c.13-.03.25-.08.37-.14l.33-.21.3-.29V9.72Zm-2.88-2.07a2.8 2.8 0 0 1 1.98-.8c.28 0 .54.04.76.13a1.55 1.55 0 0 1 .9 1c.07.24.1.5.1.78V12h-.39a.41.41 0 0 1-.2-.04.3.3 0 0 1-.1-.17l-.1-.48a5.3 5.3 0 0 1-.4.33 2.16 2.16 0 0 1-.85.38 2.3 2.3 0 0 1-1.08-.02 1.22 1.22 0 0 1-.76-.66 1.51 1.51 0 0 1-.1-.6c0-.2.05-.4.16-.58.1-.19.28-.35.53-.5.25-.14.57-.26.97-.35.4-.09.88-.14 1.46-.16v-.39c0-.4-.09-.69-.26-.89-.17-.2-.42-.3-.74-.3a1.58 1.58 0 0 0-.94.26l-.28.19a.4.4 0 0 1-.23.08.27.27 0 0 1-.16-.05.48.48 0 0 1-.1-.12l-.17-.28Zm-1.43.23a.2.2 0 0 0 .19-.11l.2-.33a2.1 2.1 0 0 0-.7-.43 2.48 2.48 0 0 0-1.66-.04c-.22.08-.4.2-.56.33a1.33 1.33 0 0 0-.47 1.02c0 .22.04.4.11.56.08.15.18.28.3.38.12.1.26.19.42.26.16.07.32.13.49.18l.48.15c.16.05.3.1.42.18a.8.8 0 0 1 .3.23c.08.09.11.2.11.35a.8.8 0 0 1-.25.58 1 1 0 0 1-.32.19 1.6 1.6 0 0 1-.46.06 1.6 1.6 0 0 1-.86-.22l-.24-.16a.34.34 0 0 0-.19-.07c-.06 0-.1.01-.14.04a.3.3 0 0 0-.1.1l-.2.33a2.47 2.47 0 0 0 1.69.62 2.26 2.26 0 0 0 1.41-.46c.17-.15.3-.32.38-.52.08-.2.12-.42.12-.65a1.1 1.1 0 0 0-.41-.89c-.12-.1-.26-.18-.42-.25a5.7 5.7 0 0 0-.96-.34 2.4 2.4 0 0 1-.43-.17 1 1 0 0 1-.3-.22.48.48 0 0 1-.1-.33c0-.1.02-.2.06-.28a.71.71 0 0 1 .2-.24.96.96 0 0 1 .3-.15 1.5 1.5 0 0 1 .86 0l.33.12.23.12c.06.04.12.06.17.06Zm-6.3-1.03c.37 0 .7.07 1 .19a2.14 2.14 0 0 1 1.24 1.35 3.58 3.58 0 0 1 0 2.15 2.14 2.14 0 0 1-1.24 1.35c-.3.12-.63.18-1 .18a2.7 2.7 0 0 1-1.01-.18 2.14 2.14 0 0 1-1.25-1.35 3.31 3.31 0 0 1-.16-1.08c0-.4.05-.75.16-1.07.11-.32.28-.6.49-.83.2-.22.46-.4.76-.52s.63-.19 1-.19Zm0 4.53c.5 0 .87-.17 1.12-.5.24-.34.37-.81.37-1.41 0-.6-.13-1.07-.37-1.41-.25-.34-.62-.5-1.12-.5-.26 0-.48.04-.67.12-.19.1-.34.22-.47.38-.12.16-.22.36-.28.6-.06.24-.09.51-.09.81 0 .6.12 1.07.37 1.4.25.34.63.5 1.14.5Zm-6.31-.14c-.2-.09-.38-.24-.54-.46V8.33c.18-.24.38-.43.6-.57a1.5 1.5 0 0 1 1.31-.09c.16.07.3.18.4.33.12.15.2.35.26.58.06.24.09.52.09.85 0 .63-.13 1.1-.38 1.45-.26.33-.62.5-1.1.5-.23 0-.45-.04-.64-.14Zm.16-4.16c-.28.16-.53.38-.74.64l-.08-.6c-.03-.12-.11-.19-.24-.19h-.53v6.79h.9v-2.25c.16.2.36.34.58.44.22.1.49.16.8.16a2.04 2.04 0 0 0 1.6-.76c.2-.23.34-.51.44-.83a4.17 4.17 0 0 0 .01-2.16c-.09-.32-.22-.6-.38-.81a1.6 1.6 0 0 0-.6-.5c-.25-.1-.51-.17-.8-.17-.36 0-.68.08-.96.24Zm-5.13-.23c.37 0 .7.07 1 .19a2.15 2.15 0 0 1 1.24 1.35c.11.32.17.68.17 1.07 0 .4-.06.76-.17 1.08a2.15 2.15 0 0 1-1.24 1.35c-.3.12-.63.18-1 .18a2.7 2.7 0 0 1-1.01-.18 2.14 2.14 0 0 1-1.25-1.35 3.31 3.31 0 0 1-.16-1.08c0-.4.05-.75.16-1.07.12-.32.28-.6.49-.83.2-.22.46-.4.76-.52s.63-.19 1-.19Zm0 4.53c.5 0 .87-.17 1.12-.5.24-.34.37-.81.37-1.41 0-.6-.13-1.07-.37-1.41-.25-.34-.62-.5-1.12-.5-.26 0-.48.04-.67.12-.19.1-.34.22-.47.38a1.7 1.7 0 0 0-.28.6c-.06.24-.09.51-.09.81 0 .6.13 1.07.37 1.4.25.34.63.5 1.14.5Zm-4.14-4.24c-.23.2-.43.46-.6.81l-.05-.77a.3.3 0 0 0-.08-.19c-.03-.04-.1-.06-.2-.06h-.5V12h.89V8.8c.06-.17.13-.33.2-.46.09-.14.18-.25.27-.34.1-.1.22-.16.34-.21a1.4 1.4 0 0 1 .73-.04l.2.03c.09 0 .14-.04.16-.13l.06-.66a.82.82 0 0 0-.26-.11c-.1-.02-.2-.04-.3-.04-.34 0-.63.1-.86.3Zm-5.02 1.41c.28 0 .52-.04.73-.11.21-.07.4-.18.54-.3.14-.14.25-.3.33-.48.07-.18.1-.39.1-.6 0-.46-.14-.82-.42-1.08-.28-.25-.7-.38-1.28-.38h-1.15v2.95h1.15Zm0-3.72c.45 0 .85.06 1.18.16.34.1.62.26.84.45.22.2.38.43.49.7a2.63 2.63 0 0 1-.01 1.83c-.12.28-.3.51-.52.71-.22.2-.5.36-.83.47-.33.11-.72.17-1.15.17h-1.15V12h-.96V4.83h2.11Zm111.25 2.5c-.12.1-.24.22-.35.34l-.07-.55c-.03-.12-.1-.19-.24-.19h-.53V12h.9V8.27c.19-.22.4-.39.62-.52.23-.12.48-.19.74-.19.36 0 .63.11.8.32.18.21.26.51.26.9V12h.9V8.77c0-.28-.04-.54-.11-.78a1.67 1.67 0 0 0-.33-.6c-.14-.18-.31-.3-.53-.4a2.04 2.04 0 0 0-2.06.34Zm-4.73-.48c.37 0 .7.07 1 .19a2.14 2.14 0 0 1 1.24 1.35c.11.32.17.68.17 1.07 0 .4-.06.76-.17 1.08a2.14 2.14 0 0 1-1.24 1.35c-.3.12-.63.18-1 .18a2.7 2.7 0 0 1-1.01-.18 2.14 2.14 0 0 1-1.25-1.35 3.31 3.31 0 0 1-.16-1.08c0-.4.06-.75.17-1.07a2.14 2.14 0 0 1 1.25-1.35c.29-.12.63-.19 1-.19Zm0 4.53c.5 0 .87-.17 1.12-.5.25-.34.37-.81.37-1.41 0-.6-.12-1.07-.37-1.41-.25-.34-.62-.5-1.12-.5-.25 0-.47.04-.66.12-.2.1-.35.22-.47.38-.13.16-.22.36-.28.6-.06.24-.1.51-.1.81 0 .6.13 1.07.38 1.4.25.34.62.5 1.13.5Zm-4.49.62h.9V7.03h-3.5V5.3h-.46a.2.2 0 0 0-.2.17l-.2 1.56-.84.11v.35c0 .07.02.12.06.15a.2.2 0 0 0 .13.05h.61v3.1c0 .42.1.74.32.96.22.23.53.34.93.34.23 0 .45-.04.67-.12.21-.08.4-.2.55-.34l-.26-.43c-.03-.05-.08-.08-.12-.08a.17.17 0 0 0-.1.04 2.38 2.38 0 0 1-.3.16.73.73 0 0 1-.24.04.54.54 0 0 1-.4-.16c-.1-.1-.16-.26-.16-.47V7.68h2.61V12Zm1.06-6.45a.57.57 0 0 0 0-.49.6.6 0 0 0-.14-.2.61.61 0 0 0-1.02.2.6.6 0 0 0-.05.25.6.6 0 0 0 .18.44c.06.06.12.1.2.13a.61.61 0 0 0 .69-.13c.06-.06.1-.12.14-.2Zm-7.02 4.17a7.2 7.2 0 0 0-1.05.1c-.3.05-.53.12-.7.2a1 1 0 0 0-.4.3.64.64 0 0 0-.12.38c0 .13.02.24.06.34.04.1.1.18.18.24.07.06.16.1.26.13s.21.04.33.04a1.66 1.66 0 0 0 .8-.18l.33-.21.3-.29V9.72Zm-2.88-2.07a2.8 2.8 0 0 1 1.98-.8c.28 0 .54.04.76.13a1.55 1.55 0 0 1 .9 1c.07.24.1.5.1.78V12h-.39a.4.4 0 0 1-.2-.04c-.05-.03-.08-.09-.1-.17l-.1-.48-.4.33a2.16 2.16 0 0 1-.85.38 2.32 2.32 0 0 1-1.08-.02 1.2 1.2 0 0 1-.76-.66 1.5 1.5 0 0 1-.1-.6c0-.2.05-.4.16-.58.1-.19.28-.35.53-.5.25-.14.57-.26.97-.35.4-.09.88-.14 1.46-.16v-.39c0-.4-.09-.69-.26-.89-.17-.2-.42-.3-.74-.3a1.58 1.58 0 0 0-.94.26l-.28.19a.4.4 0 0 1-.23.08.26.26 0 0 1-.16-.05.46.46 0 0 1-.1-.12l-.17-.28ZM216.04 12h.89V7.03h-3.5V5.3h-.45a.2.2 0 0 0-.14.05.21.21 0 0 0-.07.12l-.2 1.56-.83.11v.35c0 .07.02.12.05.15a.2.2 0 0 0 .14.05h.6v3.1c0 .42.12.74.33.96.21.23.52.34.92.34a1.9 1.9 0 0 0 1.23-.46l-.26-.43c-.04-.05-.08-.08-.13-.08a.19.19 0 0 0-.1.04 2.02 2.02 0 0 1-.3.16.72.72 0 0 1-.24.04.54.54 0 0 1-.4-.16c-.1-.1-.15-.26-.15-.47V7.68h2.6V12Zm1.05-6.45a.56.56 0 0 0 .06-.24.56.56 0 0 0-.06-.25.59.59 0 0 0-.14-.2.6.6 0 0 0-.44-.19.61.61 0 0 0-.25.05.65.65 0 0 0-.33.83.68.68 0 0 0 .33.33.61.61 0 0 0 .5 0 .63.63 0 0 0 .2-.13c.05-.06.1-.12.13-.2Zm-8.31 1.3c.37 0 .7.07 1 .19a2.14 2.14 0 0 1 1.24 1.35c.11.32.17.68.17 1.07 0 .4-.06.76-.17 1.08a2.14 2.14 0 0 1-1.24 1.35c-.3.12-.63.18-1 .18a2.7 2.7 0 0 1-1.01-.18 2.15 2.15 0 0 1-1.25-1.35 3.31 3.31 0 0 1-.16-1.08c0-.4.05-.75.16-1.07a2.15 2.15 0 0 1 1.25-1.35c.3-.12.63-.19 1-.19Zm0 4.53c.5 0 .87-.17 1.12-.5.24-.34.37-.81.37-1.41 0-.6-.13-1.07-.37-1.41-.25-.34-.62-.5-1.12-.5-.26 0-.48.04-.67.12-.18.1-.34.22-.47.38-.12.16-.21.36-.28.6-.06.24-.09.51-.09.81 0 .6.13 1.07.37 1.4.25.34.63.5 1.14.5Zm-5.02-1.93c-.13.05-.29.08-.47.08s-.34-.03-.47-.08a.92.92 0 0 1-.56-.53 1.2 1.2 0 0 1-.07-.41 1 1 0 0 1 .28-.74c.19-.19.46-.28.82-.28.36 0 .63.1.81.28.2.18.29.43.29.74 0 .15-.02.28-.07.41a.85.85 0 0 1-.21.32c-.1.09-.2.16-.35.21Zm1.03 2.53c.07.07.1.17.1.3 0 .13-.03.25-.1.36a.9.9 0 0 1-.3.29c-.14.08-.3.14-.49.18a2.91 2.91 0 0 1-1.28 0c-.19-.04-.34-.1-.46-.17a.74.74 0 0 1-.26-.25.67.67 0 0 1 .09-.78c.12-.13.27-.24.45-.33a6.28 6.28 0 0 0 1.06.08l.5.05c.15.01.29.04.4.09.13.04.22.1.29.18Zm1.01-4.51v-.33h-1.38c-.15-.1-.32-.17-.51-.21a2.5 2.5 0 0 0-1.39.04 1.8 1.8 0 0 0-.61.33 1.49 1.49 0 0 0-.54 1.18c0 .3.07.58.21.81.14.23.33.42.58.56a1.33 1.33 0 0 0-.48.4.95.95 0 0 0-.12.24.7.7 0 0 0-.04.23c0 .19.04.34.13.45a1 1 0 0 0 .36.27c-.27.1-.49.24-.64.41a.92.92 0 0 0-.24.64c0 .17.05.34.13.5.1.16.24.3.42.43.18.12.41.22.69.3a3.81 3.81 0 0 0 1.97-.04c.3-.1.54-.22.75-.38.2-.16.35-.34.46-.54.11-.2.16-.41.16-.63a1 1 0 0 0-.15-.57 1 1 0 0 0-.38-.34 1.9 1.9 0 0 0-.55-.18 13.75 13.75 0 0 0-1.26-.11l-.55-.05a1.12 1.12 0 0 1-.38-.13.31.31 0 0 1-.15-.28c0-.08.03-.15.09-.22a.9.9 0 0 1 .24-.22 2.56 2.56 0 0 0 1.43-.03c.23-.08.43-.19.6-.33a1.51 1.51 0 0 0 .53-1.19c0-.27-.05-.51-.17-.73l.58-.07c.14-.03.21-.1.21-.21Zm-6.17 1.44c0-.2-.03-.39-.09-.56a1.2 1.2 0 0 0-.66-.74c-.16-.07-.34-.1-.54-.1-.43 0-.77.12-1.02.37s-.4.6-.46 1.03h2.77Zm.72 2.38c-.1.13-.24.25-.4.35a2.9 2.9 0 0 1-1.03.38c-.19.03-.37.05-.55.05-.35 0-.68-.06-.97-.18a2.2 2.2 0 0 1-1.27-1.37 3.45 3.45 0 0 1-.02-2.15c.11-.3.27-.57.47-.79.2-.23.45-.4.75-.53a2.42 2.42 0 0 1 1.83-.04 1.97 1.97 0 0 1 1.11 1.15c.1.28.16.6.16.96 0 .14-.01.23-.04.28-.03.05-.09.07-.17.07h-3.39c.01.32.05.6.13.83.08.24.2.44.33.6.14.16.3.28.5.36.2.07.41.11.65.11a1.94 1.94 0 0 0 1-.24l.29-.17a.4.4 0 0 1 .2-.08.2.2 0 0 1 .17.08l.25.33Zm-5.57.71V4.83h-.85v5.31l.02.25L189.81 5a.64.64 0 0 0-.08-.08.24.24 0 0 0-.07-.05.52.52 0 0 0-.19-.04h-.5V12h.85V6.9a6.07 6.07 0 0 0-.02-.48l4.15 5.4c.05.07.1.11.15.14a.4.4 0 0 0 .2.04h.48ZM317.4 8.14a1.4 1.4 0 0 0-.54-.46 1.4 1.4 0 0 0-.65-.14c-.47 0-.83.17-1.09.5a2.4 2.4 0 0 0-.38 1.45c0 .33.03.6.09.85.06.23.14.42.25.57.1.15.24.27.4.33.16.07.35.11.55.11.3 0 .55-.07.76-.2.22-.13.43-.32.6-.56V8.14Zm.89-3.5V12h-.53c-.13 0-.2-.06-.24-.19l-.08-.61c-.22.26-.46.47-.74.63-.28.16-.6.24-.96.24a1.67 1.67 0 0 1-1.4-.66c-.16-.22-.3-.49-.38-.81a4.17 4.17 0 0 1 .01-2.15c.1-.33.25-.6.43-.84a1.98 1.98 0 0 1 1.6-.76 1.8 1.8 0 0 1 1.4.59v-2.8h.89Zm-6.17 3.71c.06.17.09.36.09.56h-2.77c.06-.44.2-.78.46-1.03.25-.25.58-.37 1.01-.37.2 0 .39.03.55.1a1 1 0 0 1 .4.3c.11.12.2.27.26.44Zm.41 3.29c.15-.1.29-.22.4-.35l-.25-.32a.2.2 0 0 0-.17-.09.4.4 0 0 0-.2.08 3.32 3.32 0 0 1-.72.33c-.16.06-.35.08-.57.08-.24 0-.46-.04-.65-.11-.2-.08-.36-.2-.5-.36a1.74 1.74 0 0 1-.33-.6 3.02 3.02 0 0 1-.13-.83h3.38c.08 0 .14-.02.17-.07s.05-.14.05-.28c0-.36-.06-.68-.16-.96a1.97 1.97 0 0 0-1.96-1.3c-.37 0-.7.06-.99.19a2 2 0 0 0-.74.53c-.2.22-.36.49-.47.8a3.45 3.45 0 0 0 .02 2.15 2.2 2.2 0 0 0 1.26 1.37c.3.11.62.17.97.17a3.16 3.16 0 0 0 1.6-.43Zm-5.09-3.87a.2.2 0 0 1-.19.11.35.35 0 0 1-.16-.06 2.99 2.99 0 0 0-.56-.24 1.5 1.5 0 0 0-.86 0 .97.97 0 0 0-.31.15.63.63 0 0 0-.26.52c0 .13.04.24.11.33.08.09.18.16.3.22.12.07.26.12.42.17a11.05 11.05 0 0 1 .96.34c.16.07.3.15.43.25a1.1 1.1 0 0 1 .4.89c0 .23-.04.45-.12.65-.08.2-.2.37-.37.52a1.8 1.8 0 0 1-.6.34c-.24.08-.51.12-.82.12a2.47 2.47 0 0 1-1.69-.62l.21-.34a.3.3 0 0 1 .1-.1.26.26 0 0 1 .13-.03c.06 0 .13.02.2.07a1.93 1.93 0 0 0 .59.31c.13.05.3.07.5.07.18 0 .33-.02.46-.06a1 1 0 0 0 .32-.19.8.8 0 0 0 .25-.58.51.51 0 0 0-.1-.35.88.88 0 0 0-.3-.23 2.16 2.16 0 0 0-.43-.18l-.48-.15a6.59 6.59 0 0 1-.48-.18c-.16-.07-.3-.16-.43-.26-.12-.1-.22-.23-.3-.38a1.28 1.28 0 0 1-.1-.56 1.33 1.33 0 0 1 .47-1.02c.15-.14.34-.25.56-.33.22-.08.48-.12.76-.12a2.37 2.37 0 0 1 1.59.6l-.2.32Zm-5.49-.73a2.66 2.66 0 0 0-2 0 2.14 2.14 0 0 0-1.25 1.35 3.3 3.3 0 0 0-.17 1.07c0 .4.06.76.17 1.08a2.14 2.14 0 0 0 1.25 1.35c.3.12.63.18 1 .18s.7-.06 1-.18a2.14 2.14 0 0 0 1.24-1.35c.11-.31.17-.68.17-1.08s-.06-.75-.17-1.07a2.14 2.14 0 0 0-1.24-1.35Zm.12 3.83c-.25.34-.62.5-1.12.5-.5 0-.88-.16-1.13-.5-.25-.33-.37-.8-.37-1.4 0-.3.03-.57.09-.8.06-.25.15-.45.28-.61.12-.16.28-.29.47-.38.19-.08.4-.13.66-.13.5 0 .87.17 1.12.51.25.34.37.8.37 1.41 0 .6-.12 1.07-.37 1.4Zm-4.7-6.23V12h-.89V4.64h.9Zm-2.22 5.94a.18.18 0 0 0-.14-.06.26.26 0 0 0-.17.07 1.97 1.97 0 0 1-.78.5c-.14.05-.3.1-.47.12-.17.02-.36.03-.58.03-.35 0-.67-.06-.98-.19-.3-.12-.56-.3-.78-.55a2.7 2.7 0 0 1-.53-.89 3.51 3.51 0 0 1-.19-1.19c0-.44.06-.84.19-1.19.12-.35.3-.64.51-.89a2.44 2.44 0 0 1 1.81-.75 2.59 2.59 0 0 1 1.64.54c.09.06.16.1.22.1s.1-.02.13-.04a.27.27 0 0 0 .08-.08l.32-.45a3.39 3.39 0 0 0-2.38-.9c-.52 0-1 .08-1.43.26a3.2 3.2 0 0 0-1.82 1.91 4.33 4.33 0 0 0-.01 2.97 3.13 3.13 0 0 0 1.76 1.91c.42.18.89.27 1.4.27.6 0 1.1-.1 1.52-.29a3.1 3.1 0 0 0 1.07-.79l-.39-.42Z" clip-rule="evenodd"/><defs><clipPath id="b"><path fill="#fff" d="M0 0h320v145H0z" transform="translate(0 28)"/></clipPath><clipPath id="c"><path fill="#fff" d="M0 0h322v1H0z" transform="rotate(-90 175 175)"/></clipPath><clipPath id="d"><path fill="#fff" d="M0 0h322v1H0z" transform="rotate(-90 215 135)"/></clipPath><clipPath id="e"><path fill="#fff" d="M0 0h322v1H0z" transform="rotate(-90 255 95)"/></clipPath><clipPath id="f"><path fill="#fff" d="M0 0h322v1H0z" transform="rotate(-90 295 55)"/></clipPath><clipPath id="g"><path fill="#fff" d="M0 0h322v1H0z" transform="rotate(-90 334.5 15.5)"/></clipPath><linearGradient id="a" x1="160" x2="160" y1="33.8" y2="167.2" gradientUnits="userSpaceOnUse"><stop stop-color="#FAFAFB"/><stop offset="1" stop-color="#F3F3F4"/></linearGradient></defs></svg>