<svg width="320" height="200" viewBox="0 0 320 200" fill="none" xmlns="http://www.w3.org/2000/svg">
<g clip-path="url(#clip0_2220_3101)">
<path fill-rule="evenodd" clip-rule="evenodd" d="M80 35L0 28V173L80 165L160 158L240 130L320 115V86L240 72L160 42L80 35Z" fill="url(#paint0_linear_2220_3101)" fill-opacity="0.25"/>
<mask id="mask0_2220_3101" style="mask-type:luminance" maskUnits="userSpaceOnUse" x="0" y="28" width="1" height="322">
<path d="M0 350L0 28H1L1 350H0Z" fill="white"/>
</mask>
<g mask="url(#mask0_2220_3101)">
<path fill-rule="evenodd" clip-rule="evenodd" d="M1 349H0V350H1V349ZM1 253H0V254H1V253ZM0 157H1V158H0V157ZM1 346H0V347H1V346ZM0 250H1V251H0V250ZM1 154H0V155H1V154ZM0 343H1V344H0V343ZM1 247H0V248H1V247ZM0 151H1V152H0V151ZM1 340H0V341H1V340ZM0 244H1V245H0V244ZM1 148H0V149H1V148ZM0 337H1V338H0V337ZM1 241H0V242H1V241ZM0 145H1V146H0V145ZM1 334H0V335H1V334ZM0 238H1V239H0V238ZM1 142H0V143H1V142ZM0 331H1V332H0V331ZM1 235H0V236H1V235ZM0 139H1V140H0V139ZM1 328H0V329H1V328ZM0 232H1V233H0V232ZM1 136H0V137H1V136ZM0 325H1V326H0V325ZM1 229H0V230H1V229ZM0 133H1V134H0V133ZM1 322H0V323H1V322ZM0 226H1V227H0V226ZM1 130H0V131H1V130ZM0 319H1V320H0V319ZM1 223H0V224H1V223ZM0 127H1V128H0V127ZM1 316H0V317H1V316ZM0 220H1V221H0V220ZM1 124H0V125H1V124ZM0 313H1V314H0V313ZM1 217H0V218H1V217ZM0 121H1V122H0V121ZM1 310H0V311H1V310ZM0 214H1V215H0V214ZM1 118H0V119H1V118ZM0 307H1V308H0V307ZM1 211H0V212H1V211ZM0 115H1V116H0V115ZM1 304H0V305H1V304ZM0 208H1V209H0V208ZM1 112H0V113H1V112ZM0 301H1V302H0V301ZM1 205H0V206H1V205ZM0 109H1V110H0V109ZM1 298H0V299H1V298ZM0 202H1V203H0V202ZM1 106H0V107H1V106ZM0 295H1V296H0V295ZM1 199H0V200H1V199ZM0 103H1V104H0V103ZM1 292H0V293H1V292ZM0 196H1V197H0V196ZM1 100H0V101H1V100ZM0 61H1V62H0V61ZM1 289H0V290H1V289ZM0 193H1V194H0V193ZM1 97H0V98H1V97ZM0 58H1V59H0V58ZM1 286H0V287H1V286ZM0 190H1V191H0V190ZM1 94H0V95H1V94ZM0 55H1V56H0V55ZM1 283H0V284H1V283ZM0 187H1V188H0V187ZM1 91H0V92H1V91ZM0 52H1V53H0V52ZM1 280H0V281H1V280ZM0 184H1V185H0V184ZM1 88H0V89H1V88ZM0 49H1V50H0V49ZM1 277H0V278H1V277ZM0 181H1V182H0V181ZM1 85H0V86H1V85ZM0 46H1V47H0V46ZM1 274H0V275H1V274ZM0 178H1V179H0V178ZM1 82H0V83H1V82ZM0 43H1V44H0V43ZM1 271H0V272H1V271ZM0 175H1V176H0V175ZM1 79H0V80H1V79ZM0 40H1V41H0V40ZM1 268H0V269H1V268ZM0 172H1V173H0V172ZM1 76H0V77H1V76ZM0 37H1V38H0V37ZM1 265H0V266H1V265ZM0 169H1V170H0V169ZM1 73H0V74H1V73ZM0 34H1V35H0V34ZM1 262H0V263H1V262ZM0 166H1V167H0V166ZM1 70H0V71H1V70ZM0 31H1V32H0V31ZM1 259H0V260H1V259ZM0 163H1V164H0V163ZM1 67H0V68H1V67ZM0 28H1V29H0V28ZM1 256H0V257H1V256ZM0 160H1V161H0V160ZM1 64H0V65H1V64Z" fill="#92999E"/>
</g>
<mask id="mask1_2220_3101" style="mask-type:luminance" maskUnits="userSpaceOnUse" x="80" y="28" width="1" height="322">
<path d="M80 350L80 28H81L81 350H80Z" fill="white"/>
</mask>
<g mask="url(#mask1_2220_3101)">
<path fill-rule="evenodd" clip-rule="evenodd" d="M81 349H80V350H81V349ZM81 253H80V254H81V253ZM80 157H81V158H80V157ZM81 346H80V347H81V346ZM80 250H81V251H80V250ZM81 154H80V155H81V154ZM80 343H81V344H80V343ZM81 247H80V248H81V247ZM80 151H81V152H80V151ZM81 340H80V341H81V340ZM80 244H81V245H80V244ZM81 148H80V149H81V148ZM80 337H81V338H80V337ZM81 241H80V242H81V241ZM80 145H81V146H80V145ZM81 334H80V335H81V334ZM80 238H81V239H80V238ZM81 142H80V143H81V142ZM80 331H81V332H80V331ZM81 235H80V236H81V235ZM80 139H81V140H80V139ZM81 328H80V329H81V328ZM80 232H81V233H80V232ZM81 136H80V137H81V136ZM80 325H81V326H80V325ZM81 229H80V230H81V229ZM80 133H81V134H80V133ZM81 322H80V323H81V322ZM80 226H81V227H80V226ZM81 130H80V131H81V130ZM80 319H81V320H80V319ZM81 223H80V224H81V223ZM80 127H81V128H80V127ZM81 316H80V317H81V316ZM80 220H81V221H80V220ZM81 124H80V125H81V124ZM80 313H81V314H80V313ZM81 217H80V218H81V217ZM80 121H81V122H80V121ZM81 310H80V311H81V310ZM80 214H81V215H80V214ZM81 118H80V119H81V118ZM80 307H81V308H80V307ZM81 211H80V212H81V211ZM80 115H81V116H80V115ZM81 304H80V305H81V304ZM80 208H81V209H80V208ZM81 112H80V113H81V112ZM80 301H81V302H80V301ZM81 205H80V206H81V205ZM80 109H81V110H80V109ZM81 298H80V299H81V298ZM80 202H81V203H80V202ZM81 106H80V107H81V106ZM80 295H81V296H80V295ZM81 199H80V200H81V199ZM80 103H81V104H80V103ZM81 292H80V293H81V292ZM80 196H81V197H80V196ZM81 100H80V101H81V100ZM80 61H81V62H80V61ZM81 289H80V290H81V289ZM80 193H81V194H80V193ZM81 97H80V98H81V97ZM80 58H81V59H80V58ZM81 286H80V287H81V286ZM80 190H81V191H80V190ZM81 94H80V95H81V94ZM80 55H81V56H80V55ZM81 283H80V284H81V283ZM80 187H81V188H80V187ZM81 91H80V92H81V91ZM80 52H81V53H80V52ZM81 280H80V281H81V280ZM80 184H81V185H80V184ZM81 88H80V89H81V88ZM80 49H81V50H80V49ZM81 277H80V278H81V277ZM80 181H81V182H80V181ZM81 85H80V86H81V85ZM80 46H81V47H80V46ZM81 274H80V275H81V274ZM80 178H81V179H80V178ZM81 82H80V83H81V82ZM80 43H81V44H80V43ZM81 271H80V272H81V271ZM80 175H81V176H80V175ZM81 79H80V80H81V79ZM80 40H81V41H80V40ZM81 268H80V269H81V268ZM80 172H81V173H80V172ZM81 76H80V77H81V76ZM80 37H81V38H80V37ZM81 265H80V266H81V265ZM80 169H81V170H80V169ZM81 73H80V74H81V73ZM80 34H81V35H80V34ZM81 262H80V263H81V262ZM80 166H81V167H80V166ZM81 70H80V71H81V70ZM80 31H81V32H80V31ZM81 259H80V260H81V259ZM80 163H81V164H80V163ZM81 67H80V68H81V67ZM80 28H81V29H80V28ZM81 256H80V257H81V256ZM80 160H81V161H80V160ZM81 64H80V65H81V64Z" fill="#92999E"/>
</g>
<mask id="mask2_2220_3101" style="mask-type:luminance" maskUnits="userSpaceOnUse" x="160" y="28" width="1" height="322">
<path d="M160 350L160 28H161L161 350H160Z" fill="white"/>
</mask>
<g mask="url(#mask2_2220_3101)">
<path fill-rule="evenodd" clip-rule="evenodd" d="M161 349H160V350H161V349ZM161 253H160V254H161V253ZM160 157H161V158H160V157ZM161 346H160V347H161V346ZM160 250H161V251H160V250ZM161 154H160V155H161V154ZM160 343H161V344H160V343ZM161 247H160V248H161V247ZM160 151H161V152H160V151ZM161 340H160V341H161V340ZM160 244H161V245H160V244ZM161 148H160V149H161V148ZM160 337H161V338H160V337ZM161 241H160V242H161V241ZM160 145H161V146H160V145ZM161 334H160V335H161V334ZM160 238H161V239H160V238ZM161 142H160V143H161V142ZM160 331H161V332H160V331ZM161 235H160V236H161V235ZM160 139H161V140H160V139ZM161 328H160V329H161V328ZM160 232H161V233H160V232ZM161 136H160V137H161V136ZM160 325H161V326H160V325ZM161 229H160V230H161V229ZM160 133H161V134H160V133ZM161 322H160V323H161V322ZM160 226H161V227H160V226ZM161 130H160V131H161V130ZM160 319H161V320H160V319ZM161 223H160V224H161V223ZM160 127H161V128H160V127ZM161 316H160V317H161V316ZM160 220H161V221H160V220ZM161 124H160V125H161V124ZM160 313H161V314H160V313ZM161 217H160V218H161V217ZM160 121H161V122H160V121ZM161 310H160V311H161V310ZM160 214H161V215H160V214ZM161 118H160V119H161V118ZM160 307H161V308H160V307ZM161 211H160V212H161V211ZM160 115H161V116H160V115ZM161 304H160V305H161V304ZM160 208H161V209H160V208ZM161 112H160V113H161V112ZM160 301H161V302H160V301ZM161 205H160V206H161V205ZM160 109H161V110H160V109ZM161 298H160V299H161V298ZM160 202H161V203H160V202ZM161 106H160V107H161V106ZM160 295H161V296H160V295ZM161 199H160V200H161V199ZM160 103H161V104H160V103ZM161 292H160V293H161V292ZM160 196H161V197H160V196ZM161 100H160V101H161V100ZM160 61H161V62H160V61ZM161 289H160V290H161V289ZM160 193H161V194H160V193ZM161 97H160V98H161V97ZM160 58H161V59H160V58ZM161 286H160V287H161V286ZM160 190H161V191H160V190ZM161 94H160V95H161V94ZM160 55H161V56H160V55ZM161 283H160V284H161V283ZM160 187H161V188H160V187ZM161 91H160V92H161V91ZM160 52H161V53H160V52ZM161 280H160V281H161V280ZM160 184H161V185H160V184ZM161 88H160V89H161V88ZM160 49H161V50H160V49ZM161 277H160V278H161V277ZM160 181H161V182H160V181ZM161 85H160V86H161V85ZM160 46H161V47H160V46ZM161 274H160V275H161V274ZM160 178H161V179H160V178ZM161 82H160V83H161V82ZM160 43H161V44H160V43ZM161 271H160V272H161V271ZM160 175H161V176H160V175ZM161 79H160V80H161V79ZM160 40H161V41H160V40ZM161 268H160V269H161V268ZM160 172H161V173H160V172ZM161 76H160V77H161V76ZM160 37H161V38H160V37ZM161 265H160V266H161V265ZM160 169H161V170H160V169ZM161 73H160V74H161V73ZM160 34H161V35H160V34ZM161 262H160V263H161V262ZM160 166H161V167H160V166ZM161 70H160V71H161V70ZM160 31H161V32H160V31ZM161 259H160V260H161V259ZM160 163H161V164H160V163ZM161 67H160V68H161V67ZM160 28H161V29H160V28ZM161 256H160V257H161V256ZM160 160H161V161H160V160ZM161 64H160V65H161V64Z" fill="#92999E"/>
</g>
<mask id="mask3_2220_3101" style="mask-type:luminance" maskUnits="userSpaceOnUse" x="240" y="28" width="1" height="322">
<path d="M240 350L240 28H241L241 350H240Z" fill="white"/>
</mask>
<g mask="url(#mask3_2220_3101)">
<path fill-rule="evenodd" clip-rule="evenodd" d="M241 349H240V350H241V349ZM241 253H240V254H241V253ZM240 157H241V158H240V157ZM241 346H240V347H241V346ZM240 250H241V251H240V250ZM241 154H240V155H241V154ZM240 343H241V344H240V343ZM241 247H240V248H241V247ZM240 151H241V152H240V151ZM241 340H240V341H241V340ZM240 244H241V245H240V244ZM241 148H240V149H241V148ZM240 337H241V338H240V337ZM241 241H240V242H241V241ZM240 145H241V146H240V145ZM241 334H240V335H241V334ZM240 238H241V239H240V238ZM241 142H240V143H241V142ZM240 331H241V332H240V331ZM241 235H240V236H241V235ZM240 139H241V140H240V139ZM241 328H240V329H241V328ZM240 232H241V233H240V232ZM241 136H240V137H241V136ZM240 325H241V326H240V325ZM241 229H240V230H241V229ZM240 133H241V134H240V133ZM241 322H240V323H241V322ZM240 226H241V227H240V226ZM241 130H240V131H241V130ZM240 319H241V320H240V319ZM241 223H240V224H241V223ZM240 127H241V128H240V127ZM241 316H240V317H241V316ZM240 220H241V221H240V220ZM241 124H240V125H241V124ZM240 313H241V314H240V313ZM241 217H240V218H241V217ZM240 121H241V122H240V121ZM241 310H240V311H241V310ZM240 214H241V215H240V214ZM241 118H240V119H241V118ZM240 307H241V308H240V307ZM241 211H240V212H241V211ZM240 115H241V116H240V115ZM241 304H240V305H241V304ZM240 208H241V209H240V208ZM241 112H240V113H241V112ZM240 301H241V302H240V301ZM241 205H240V206H241V205ZM240 109H241V110H240V109ZM241 298H240V299H241V298ZM240 202H241V203H240V202ZM241 106H240V107H241V106ZM240 295H241V296H240V295ZM241 199H240V200H241V199ZM240 103H241V104H240V103ZM241 292H240V293H241V292ZM240 196H241V197H240V196ZM241 100H240V101H241V100ZM240 61H241V62H240V61ZM241 289H240V290H241V289ZM240 193H241V194H240V193ZM241 97H240V98H241V97ZM240 58H241V59H240V58ZM241 286H240V287H241V286ZM240 190H241V191H240V190ZM241 94H240V95H241V94ZM240 55H241V56H240V55ZM241 283H240V284H241V283ZM240 187H241V188H240V187ZM241 91H240V92H241V91ZM240 52H241V53H240V52ZM241 280H240V281H241V280ZM240 184H241V185H240V184ZM241 88H240V89H241V88ZM240 49H241V50H240V49ZM241 277H240V278H241V277ZM240 181H241V182H240V181ZM241 85H240V86H241V85ZM240 46H241V47H240V46ZM241 274H240V275H241V274ZM240 178H241V179H240V178ZM241 82H240V83H241V82ZM240 43H241V44H240V43ZM241 271H240V272H241V271ZM240 175H241V176H240V175ZM241 79H240V80H241V79ZM240 40H241V41H240V40ZM241 268H240V269H241V268ZM240 172H241V173H240V172ZM241 76H240V77H241V76ZM240 37H241V38H240V37ZM241 265H240V266H241V265ZM240 169H241V170H240V169ZM241 73H240V74H241V73ZM240 34H241V35H240V34ZM241 262H240V263H241V262ZM240 166H241V167H240V166ZM241 70H240V71H241V70ZM240 31H241V32H240V31ZM241 259H240V260H241V259ZM240 163H241V164H240V163ZM241 67H240V68H241V67ZM240 28H241V29H240V28ZM241 256H240V257H241V256ZM240 160H241V161H240V160ZM241 64H240V65H241V64Z" fill="#92999E"/>
</g>
<mask id="mask4_2220_3101" style="mask-type:luminance" maskUnits="userSpaceOnUse" x="319" y="28" width="1" height="322">
<path d="M319 350V28H320V350H319Z" fill="white"/>
</mask>
<g mask="url(#mask4_2220_3101)">
<path fill-rule="evenodd" clip-rule="evenodd" d="M320 349H319V350H320V349ZM320 253H319V254H320V253ZM319 157H320V158H319V157ZM320 346H319V347H320V346ZM319 250H320V251H319V250ZM320 154H319V155H320V154ZM319 343H320V344H319V343ZM320 247H319V248H320V247ZM319 151H320V152H319V151ZM320 340H319V341H320V340ZM319 244H320V245H319V244ZM320 148H319V149H320V148ZM319 337H320V338H319V337ZM320 241H319V242H320V241ZM319 145H320V146H319V145ZM320 334H319V335H320V334ZM319 238H320V239H319V238ZM320 142H319V143H320V142ZM319 331H320V332H319V331ZM320 235H319V236H320V235ZM319 139H320V140H319V139ZM320 328H319V329H320V328ZM319 232H320V233H319V232ZM320 136H319V137H320V136ZM319 325H320V326H319V325ZM320 229H319V230H320V229ZM319 133H320V134H319V133ZM320 322H319V323H320V322ZM319 226H320V227H319V226ZM320 130H319V131H320V130ZM319 319H320V320H319V319ZM320 223H319V224H320V223ZM319 127H320V128H319V127ZM320 316H319V317H320V316ZM319 220H320V221H319V220ZM320 124H319V125H320V124ZM319 313H320V314H319V313ZM320 217H319V218H320V217ZM319 121H320V122H319V121ZM320 310H319V311H320V310ZM319 214H320V215H319V214ZM320 118H319V119H320V118ZM319 307H320V308H319V307ZM320 211H319V212H320V211ZM319 115H320V116H319V115ZM320 304H319V305H320V304ZM319 208H320V209H319V208ZM320 112H319V113H320V112ZM319 301H320V302H319V301ZM320 205H319V206H320V205ZM319 109H320V110H319V109ZM320 298H319V299H320V298ZM319 202H320V203H319V202ZM320 106H319V107H320V106ZM319 295H320V296H319V295ZM320 199H319V200H320V199ZM319 103H320V104H319V103ZM320 292H319V293H320V292ZM319 196H320V197H319V196ZM320 100H319V101H320V100ZM319 61H320V62H319V61ZM320 289H319V290H320V289ZM319 193H320V194H319V193ZM320 97H319V98H320V97ZM319 58H320V59H319V58ZM320 286H319V287H320V286ZM319 190H320V191H319V190ZM320 94H319V95H320V94ZM319 55H320V56H319V55ZM320 283H319V284H320V283ZM319 187H320V188H319V187ZM320 91H319V92H320V91ZM319 52H320V53H319V52ZM320 280H319V281H320V280ZM319 184H320V185H319V184ZM320 88H319V89H320V88ZM319 49H320V50H319V49ZM320 277H319V278H320V277ZM319 181H320V182H319V181ZM320 85H319V86H320V85ZM319 46H320V47H319V46ZM320 274H319V275H320V274ZM319 178H320V179H319V178ZM320 82H319V83H320V82ZM319 43H320V44H319V43ZM320 271H319V272H320V271ZM319 175H320V176H319V175ZM320 79H319V80H320V79ZM319 40H320V41H319V40ZM320 268H319V269H320V268ZM319 172H320V173H319V172ZM320 76H319V77H320V76ZM319 37H320V38H319V37ZM320 265H319V266H320V265ZM319 169H320V170H319V169ZM320 73H319V74H320V73ZM319 34H320V35H319V34ZM320 262H319V263H320V262ZM319 166H320V167H319V166ZM320 70H319V71H320V70ZM319 31H320V32H319V31ZM320 259H319V260H320V259ZM319 163H320V164H319V163ZM320 67H319V68H320V67ZM319 28H320V29H319V28ZM320 256H319V257H320V256ZM319 160H320V161H319V160ZM320 64H319V65H320V64Z" fill="#92999E"/>
</g>
<path d="M160 42L240 72V130L160 158V42ZM0 28L80 35V165L0 173V28Z" fill="#B7BCBF" fill-opacity="0.15"/>
<path fill-rule="evenodd" clip-rule="evenodd" d="M61.9005 191.55C61.7679 191.164 61.7679 190.746 61.9005 190.36C61.9673 190.187 62.0708 190.03 62.2036 189.901C62.3365 189.772 62.4957 189.672 62.6705 189.61C63.046 189.463 63.4625 189.459 63.8405 189.6C64.0132 189.665 64.1697 189.766 64.2992 189.897C64.4287 190.029 64.5281 190.186 64.5905 190.36C64.7311 190.723 64.7347 191.125 64.6005 191.49C64.5343 191.664 64.4325 191.823 64.3016 191.955C64.1708 192.088 64.0137 192.192 63.8405 192.26C63.4464 192.415 63.0094 192.422 62.6105 192.28C62.444 192.219 62.2931 192.122 62.1686 191.996C62.0441 191.87 61.9491 191.717 61.8905 191.55H61.9005ZM64.0805 192.87L63.8805 193.15L61.7005 196H62.5205C62.6205 196 62.7205 195.98 62.7905 195.94C62.8658 195.907 62.9313 195.856 62.9805 195.79L64.7205 193.27C65.102 192.801 65.3691 192.25 65.5005 191.66C65.6096 191.151 65.575 190.621 65.4005 190.13C65.2982 189.857 65.1393 189.609 64.9342 189.402C64.7291 189.196 64.4824 189.035 64.2105 188.93C63.6041 188.686 62.9268 188.686 62.3205 188.93C61.9003 189.087 61.5392 189.37 61.2867 189.741C61.0342 190.112 60.9028 190.552 60.9105 191C60.8951 191.283 60.9407 191.566 61.0442 191.83C61.1477 192.094 61.3067 192.333 61.5105 192.53C61.6905 192.7 61.9105 192.83 62.1405 192.93C62.6239 193.106 63.1525 193.113 63.6405 192.95C63.8657 192.874 64.0756 192.759 64.2605 192.61L64.0805 192.87ZM71.6805 192.42C71.6888 192.97 71.6215 193.518 71.4805 194.05C71.3668 194.457 71.1805 194.84 70.9305 195.18C70.6905 195.48 70.4205 195.71 70.1005 195.85C69.7807 195.997 69.4325 196.072 69.0805 196.07C68.7235 196.08 68.3693 196.004 68.0475 195.849C67.7257 195.695 67.4456 195.465 67.2305 195.18C67.0005 194.88 66.8105 194.51 66.6805 194.05C66.5394 193.518 66.4721 192.97 66.4805 192.42C66.4721 191.87 66.5394 191.322 66.6805 190.79C66.8105 190.33 67.0005 189.95 67.2305 189.65C67.4439 189.362 67.7235 189.131 68.0455 188.974C68.3675 188.817 68.7225 188.74 69.0805 188.75C69.4382 188.742 69.7926 188.82 70.1144 188.976C70.4361 189.133 70.7159 189.364 70.9305 189.65C71.1605 189.95 71.3405 190.33 71.4805 190.79C71.6215 191.322 71.6888 191.87 71.6805 192.42ZM70.7605 192.42C70.7605 191.87 70.7105 191.42 70.6205 191.04C70.5527 190.72 70.4273 190.415 70.2505 190.14C70.1256 189.944 69.9525 189.783 69.7477 189.672C69.5428 189.562 69.3131 189.506 69.0805 189.51C68.8469 189.507 68.6166 189.565 68.4116 189.677C68.2067 189.789 68.0341 189.952 67.9105 190.15C67.7505 190.37 67.6305 190.67 67.5405 191.05C67.4405 191.41 67.4005 191.87 67.4005 192.42C67.4005 192.97 67.4505 193.42 67.5405 193.8C67.6305 194.16 67.7505 194.46 67.9105 194.69C68.0605 194.92 68.2405 195.08 68.4405 195.18C68.6385 195.276 68.8556 195.325 69.0755 195.325C69.2954 195.325 69.5124 195.276 69.7105 195.18C69.9105 195.08 70.0905 194.92 70.2505 194.69C70.4005 194.46 70.5305 194.16 70.6205 193.79C70.7105 193.43 70.7605 192.97 70.7605 192.42ZM143.28 195.37C143.51 195.37 143.72 195.34 143.91 195.27C144.082 195.219 144.239 195.129 144.371 195.008C144.503 194.886 144.605 194.737 144.67 194.57C144.74 194.41 144.77 194.23 144.77 194.03C144.77 193.78 144.73 193.57 144.65 193.4C144.579 193.228 144.465 193.077 144.32 192.96C144.182 192.849 144.022 192.767 143.85 192.72C143.482 192.611 143.089 192.611 142.72 192.72C142.54 192.78 142.38 192.85 142.24 192.97C142.1 193.07 141.99 193.22 141.91 193.4C141.826 193.599 141.785 193.814 141.79 194.03C141.784 194.211 141.816 194.391 141.885 194.559C141.954 194.726 142.058 194.877 142.19 195C142.31 195.12 142.47 195.2 142.65 195.28C142.84 195.34 143.05 195.37 143.28 195.37ZM143.28 189.44C143.07 189.44 142.88 189.48 142.72 189.54C142.572 189.596 142.438 189.683 142.326 189.795C142.214 189.907 142.127 190.042 142.07 190.19C141.974 190.495 141.97 190.823 142.06 191.13C142.1 191.28 142.18 191.42 142.28 191.54C142.38 191.66 142.52 191.75 142.68 191.82C142.85 191.9 143.05 191.93 143.28 191.93C143.51 191.93 143.71 191.9 143.88 191.83C144.04 191.75 144.18 191.66 144.28 191.54C144.488 191.295 144.595 190.981 144.58 190.66C144.58 190.49 144.55 190.33 144.49 190.19C144.434 190.042 144.347 189.907 144.235 189.795C144.123 189.683 143.989 189.596 143.84 189.54C143.661 189.473 143.472 189.44 143.28 189.44ZM144.31 192.26C144.75 192.39 145.1 192.6 145.34 192.9C145.58 193.2 145.7 193.58 145.7 194.04C145.7 194.35 145.64 194.64 145.52 194.89C145.4 195.14 145.23 195.35 145.02 195.53C144.82 195.71 144.56 195.84 144.26 195.94C143.622 196.135 142.939 196.135 142.3 195.94C142.024 195.853 141.766 195.713 141.54 195.53C141.327 195.358 141.156 195.139 141.04 194.89C140.922 194.623 140.864 194.332 140.87 194.04C140.87 193.58 140.99 193.2 141.23 192.9C141.47 192.6 141.81 192.4 142.26 192.26C141.916 192.148 141.616 191.931 141.4 191.64C141.208 191.343 141.11 190.994 141.12 190.64C141.119 190.387 141.172 190.136 141.276 189.905C141.379 189.674 141.531 189.468 141.72 189.3C141.9 189.13 142.12 189 142.39 188.9C142.66 188.8 142.95 188.75 143.29 188.75C143.6 188.75 143.89 188.8 144.17 188.9C144.43 189 144.67 189.13 144.85 189.3C145.04 189.468 145.192 189.674 145.295 189.905C145.399 190.136 145.452 190.387 145.45 190.64C145.46 190.998 145.355 191.35 145.15 191.643C144.944 191.937 144.65 192.156 144.31 192.27V192.26ZM151.48 194.05C151.622 193.518 151.689 192.97 151.68 192.42C151.689 191.87 151.622 191.322 151.48 190.79C151.371 190.379 151.185 189.992 150.93 189.65C150.714 189.358 150.429 189.125 150.1 188.97C149.781 188.822 149.433 188.747 149.08 188.75C148.724 188.742 148.371 188.82 148.051 188.976C147.731 189.133 147.453 189.364 147.24 189.65C147 189.95 146.81 190.33 146.68 190.79C146.539 191.322 146.472 191.87 146.48 192.42C146.472 192.97 146.539 193.518 146.68 194.05C146.81 194.51 147 194.88 147.23 195.18C147.445 195.466 147.725 195.697 148.047 195.854C148.368 196.01 148.723 196.088 149.08 196.08C149.436 196.079 149.786 195.999 150.106 195.845C150.426 195.691 150.708 195.467 150.93 195.19C151.16 194.89 151.34 194.51 151.48 194.05ZM150.62 191.05C150.71 191.41 150.76 191.87 150.76 192.42C150.76 192.97 150.71 193.42 150.62 193.8C150.52 194.16 150.4 194.46 150.25 194.69C150.09 194.92 149.91 195.08 149.71 195.18C149.512 195.276 149.295 195.325 149.075 195.325C148.856 195.325 148.638 195.276 148.44 195.18C148.224 195.066 148.041 194.897 147.91 194.69C147.737 194.413 147.611 194.109 147.54 193.79C147.441 193.34 147.394 192.881 147.4 192.42C147.4 191.87 147.45 191.42 147.54 191.04C147.63 190.67 147.75 190.37 147.91 190.14C148.036 189.944 148.209 189.784 148.414 189.674C148.619 189.563 148.848 189.507 149.08 189.51C149.314 189.506 149.545 189.563 149.75 189.675C149.955 189.788 150.128 189.951 150.25 190.15C150.4 190.37 150.53 190.67 150.62 191.05ZM231.68 192.42C231.689 192.97 231.622 193.518 231.48 194.05C231.367 194.457 231.18 194.84 230.93 195.18C230.69 195.48 230.42 195.71 230.1 195.85C229.78 196 229.44 196.07 229.08 196.07C228.725 196.077 228.373 196.001 228.054 195.846C227.734 195.691 227.455 195.463 227.24 195.18C227 194.88 226.81 194.51 226.68 194.05C226.539 193.518 226.472 192.97 226.48 192.42C226.472 191.87 226.539 191.322 226.68 190.79C226.81 190.33 227 189.95 227.23 189.65C227.444 189.362 227.723 189.131 228.045 188.974C228.367 188.817 228.723 188.74 229.08 188.75C229.438 188.742 229.793 188.82 230.114 188.976C230.436 189.133 230.716 189.364 230.93 189.65C231.16 189.95 231.34 190.33 231.48 190.79C231.622 191.322 231.689 191.87 231.68 192.42ZM230.76 192.42C230.76 191.87 230.71 191.42 230.62 191.04C230.553 190.72 230.427 190.415 230.25 190.14C230.126 189.943 229.953 189.781 229.748 189.671C229.543 189.561 229.313 189.505 229.08 189.51C228.847 189.508 228.617 189.566 228.412 189.678C228.208 189.79 228.035 189.952 227.91 190.15C227.75 190.37 227.63 190.67 227.54 191.05C227.44 191.41 227.4 191.87 227.4 192.42C227.4 192.97 227.45 193.42 227.54 193.8C227.63 194.16 227.75 194.46 227.91 194.69C228.06 194.92 228.24 195.08 228.44 195.18C228.638 195.276 228.856 195.325 229.075 195.325C229.295 195.325 229.512 195.276 229.71 195.18C229.91 195.08 230.09 194.92 230.25 194.69C230.4 194.46 230.53 194.16 230.62 193.79C230.71 193.43 230.76 192.97 230.76 192.42ZM304.32 195.16C304.42 195.16 304.49 195.18 304.55 195.24C304.578 195.269 304.599 195.304 304.613 195.342C304.627 195.38 304.633 195.42 304.63 195.46V196H299.85V195.7C299.855 195.556 299.916 195.42 300.02 195.32L302.32 193.01L302.83 192.46C302.99 192.27 303.13 192.09 303.23 191.91C303.465 191.576 303.587 191.177 303.58 190.77C303.58 190.57 303.54 190.38 303.48 190.22C303.421 190.072 303.329 189.94 303.211 189.832C303.094 189.725 302.953 189.646 302.8 189.6C302.563 189.521 302.311 189.5 302.064 189.538C301.817 189.576 301.583 189.673 301.38 189.82C301.136 190.011 300.969 190.285 300.91 190.59C300.87 190.71 300.81 190.79 300.75 190.82C300.66 190.863 300.558 190.873 300.46 190.85L300 190.78C300.062 190.202 300.336 189.667 300.77 189.28C300.98 189.1 301.22 188.98 301.48 188.89C301.74 188.8 302.03 188.76 302.34 188.76C302.64 188.76 302.92 188.8 303.19 188.89C303.45 188.98 303.68 189.11 303.87 189.29C304.07 189.46 304.22 189.66 304.33 189.91C304.537 190.417 304.551 190.983 304.37 191.5C304.195 191.968 303.922 192.394 303.57 192.75L303.01 193.35L301.11 195.28C301.371 195.204 301.639 195.16 301.91 195.15H304.31L304.32 195.16ZM310.48 194.05C310.622 193.518 310.689 192.97 310.68 192.42C310.689 191.87 310.622 191.322 310.48 190.79C310.371 190.379 310.185 189.992 309.93 189.65C309.714 189.358 309.429 189.125 309.1 188.97C308.781 188.822 308.432 188.747 308.08 188.75C307.722 188.74 307.367 188.817 307.045 188.974C306.723 189.131 306.444 189.362 306.23 189.65C306 189.95 305.81 190.33 305.68 190.79C305.539 191.322 305.472 191.87 305.48 192.42C305.472 192.97 305.539 193.518 305.68 194.05C305.81 194.51 306 194.88 306.23 195.18C306.445 195.466 306.725 195.697 307.047 195.854C307.368 196.01 307.723 196.088 308.08 196.08C308.436 196.079 308.786 195.999 309.106 195.845C309.426 195.691 309.708 195.467 309.93 195.19C310.16 194.89 310.34 194.51 310.48 194.05ZM309.62 191.05C309.71 191.41 309.76 191.87 309.76 192.42C309.76 192.97 309.71 193.42 309.62 193.8C309.52 194.16 309.4 194.46 309.25 194.69C309.09 194.92 308.92 195.08 308.71 195.18C308.512 195.276 308.295 195.325 308.075 195.325C307.856 195.325 307.638 195.276 307.44 195.18C307.224 195.066 307.041 194.897 306.91 194.69C306.737 194.413 306.611 194.109 306.54 193.79C306.441 193.34 306.394 192.881 306.4 192.42C306.4 191.87 306.45 191.42 306.54 191.04C306.63 190.67 306.75 190.37 306.91 190.14C307.036 189.944 307.209 189.784 307.414 189.674C307.619 189.563 307.848 189.507 308.08 189.51C308.314 189.506 308.545 189.563 308.75 189.675C308.955 189.788 309.128 189.951 309.25 190.15C309.4 190.37 309.53 190.67 309.62 191.05ZM314.46 191.32C314.55 191.1 314.59 190.85 314.59 190.57C314.59 190.27 314.55 190.02 314.47 189.8C314.4 189.593 314.288 189.402 314.14 189.24C314.002 189.085 313.831 188.962 313.64 188.88C313.441 188.796 313.226 188.754 313.009 188.756C312.793 188.757 312.579 188.803 312.38 188.89C312.182 188.97 312.004 189.093 311.858 189.251C311.713 189.408 311.605 189.596 311.54 189.8C311.46 190.02 311.42 190.28 311.42 190.56C311.42 190.84 311.46 191.1 311.54 191.32C311.62 191.54 311.74 191.72 311.87 191.88C312.02 192.03 312.18 192.15 312.37 192.22C312.567 192.301 312.778 192.343 312.99 192.343C313.203 192.343 313.414 192.301 313.61 192.22C313.81 192.15 313.97 192.03 314.11 191.88C314.26 191.73 314.38 191.54 314.46 191.32ZM313.83 190.01C313.88 190.16 313.9 190.35 313.9 190.57C313.9 190.78 313.88 190.97 313.83 191.12C313.791 191.256 313.723 191.382 313.63 191.49C313.555 191.578 313.459 191.647 313.35 191.69C313.125 191.773 312.876 191.773 312.65 191.69C312.546 191.645 312.454 191.577 312.38 191.49C312.3 191.39 312.23 191.27 312.18 191.12C312.133 190.937 312.113 190.749 312.12 190.56C312.12 190.34 312.14 190.16 312.19 190C312.23 189.85 312.29 189.73 312.38 189.63C312.453 189.534 312.55 189.458 312.66 189.41C312.885 189.321 313.136 189.321 313.36 189.41C313.46 189.46 313.56 189.53 313.64 189.63C313.734 189.741 313.802 189.87 313.84 190.01H313.83ZM317.24 188.88C317.2 188.909 317.163 188.942 317.13 188.98L311.89 196H312.55C312.606 196.001 312.661 195.987 312.71 195.961C312.759 195.935 312.8 195.897 312.83 195.85L318.07 188.84H317.43C317.365 188.835 317.299 188.848 317.24 188.88ZM318.43 195.06C318.51 194.84 318.56 194.59 318.56 194.31C318.56 194.02 318.52 193.77 318.43 193.54C318.359 193.333 318.247 193.143 318.1 192.98C317.963 192.826 317.792 192.707 317.6 192.63C317.2 192.465 316.751 192.465 316.35 192.63C316.152 192.711 315.974 192.834 315.829 192.992C315.684 193.149 315.575 193.336 315.51 193.54C315.427 193.788 315.386 194.048 315.39 194.31C315.39 194.59 315.43 194.84 315.51 195.06C315.59 195.28 315.7 195.46 315.84 195.62C315.984 195.774 316.16 195.896 316.355 195.977C316.549 196.058 316.759 196.097 316.97 196.09C317.291 196.091 317.603 195.993 317.865 195.808C318.127 195.624 318.324 195.362 318.43 195.06ZM317.8 193.75C317.896 194.114 317.896 194.496 317.8 194.86C317.761 194.996 317.693 195.122 317.6 195.23C317.525 195.318 317.429 195.387 317.32 195.43C317.095 195.513 316.846 195.513 316.62 195.43C316.513 195.387 316.417 195.318 316.34 195.23C316.26 195.13 316.19 195.01 316.14 194.86C316.095 194.68 316.075 194.495 316.08 194.31C316.08 194.09 316.1 193.91 316.15 193.75C316.19 193.59 316.25 193.47 316.34 193.37C316.414 193.277 316.511 193.205 316.62 193.16C316.845 193.071 317.096 193.071 317.32 193.16C317.42 193.2 317.52 193.27 317.6 193.37C317.694 193.481 317.762 193.61 317.8 193.75ZM235.46 191.32C235.55 191.1 235.59 190.85 235.59 190.57C235.59 190.27 235.55 190.02 235.47 189.8C235.4 189.593 235.288 189.402 235.14 189.24C235.002 189.085 234.831 188.962 234.64 188.88C234.441 188.796 234.226 188.754 234.009 188.756C233.793 188.757 233.579 188.803 233.38 188.89C233.182 188.97 233.004 189.093 232.858 189.251C232.713 189.408 232.605 189.596 232.54 189.8C232.46 190.02 232.42 190.28 232.42 190.56C232.42 190.84 232.46 191.1 232.54 191.32C232.62 191.54 232.74 191.72 232.87 191.88C233.02 192.03 233.18 192.15 233.37 192.22C233.567 192.301 233.778 192.343 233.99 192.343C234.203 192.343 234.414 192.301 234.61 192.22C234.81 192.15 234.97 192.03 235.11 191.88C235.26 191.73 235.38 191.54 235.46 191.32ZM234.83 190.01C234.88 190.16 234.9 190.35 234.9 190.57C234.9 190.78 234.88 190.97 234.83 191.12C234.791 191.256 234.723 191.382 234.63 191.49C234.555 191.578 234.459 191.647 234.35 191.69C234.125 191.773 233.876 191.773 233.65 191.69C233.546 191.645 233.454 191.577 233.38 191.49C233.3 191.39 233.23 191.27 233.18 191.12C233.133 190.937 233.113 190.749 233.12 190.56C233.12 190.34 233.14 190.16 233.19 190C233.23 189.85 233.29 189.73 233.38 189.63C233.453 189.534 233.55 189.458 233.66 189.41C233.885 189.321 234.136 189.321 234.36 189.41C234.46 189.46 234.56 189.53 234.64 189.63C234.734 189.741 234.802 189.87 234.84 190.01H234.83ZM238.24 188.88C238.2 188.909 238.163 188.942 238.13 188.98L232.89 196H233.55C233.606 196.001 233.661 195.987 233.71 195.961C233.759 195.935 233.8 195.897 233.83 195.85L239.07 188.84H238.43C238.365 188.835 238.299 188.848 238.24 188.88ZM239.43 195.06C239.51 194.84 239.56 194.59 239.56 194.31C239.56 194.02 239.52 193.77 239.43 193.54C239.359 193.333 239.247 193.143 239.1 192.98C238.963 192.826 238.792 192.707 238.6 192.63C238.401 192.547 238.187 192.504 237.97 192.504C237.754 192.504 237.54 192.547 237.34 192.63C237.144 192.712 236.968 192.836 236.825 192.993C236.681 193.15 236.574 193.337 236.51 193.54C236.427 193.788 236.386 194.048 236.39 194.31C236.39 194.59 236.43 194.84 236.51 195.06C236.59 195.28 236.7 195.46 236.84 195.62C236.984 195.774 237.16 195.896 237.355 195.977C237.55 196.058 237.76 196.097 237.97 196.09C238.291 196.091 238.603 195.993 238.865 195.808C239.127 195.624 239.324 195.362 239.43 195.06ZM238.8 193.75C238.896 194.114 238.896 194.496 238.8 194.86C238.761 194.996 238.693 195.122 238.6 195.23C238.525 195.318 238.429 195.387 238.32 195.43C238.095 195.513 237.846 195.513 237.62 195.43C237.513 195.387 237.417 195.318 237.34 195.23C237.26 195.13 237.19 195.01 237.14 194.86C237.095 194.68 237.075 194.495 237.08 194.31C237.08 194.09 237.1 193.91 237.15 193.75C237.19 193.59 237.25 193.47 237.34 193.37C237.415 193.277 237.511 193.205 237.62 193.16C237.845 193.071 238.096 193.071 238.32 193.16C238.42 193.2 238.52 193.27 238.6 193.37C238.694 193.481 238.762 193.61 238.8 193.75ZM224.03 190.46V193.41H221.46L224.07 189.86C224.047 190.059 224.034 190.259 224.03 190.46ZM225.9 193.93V193.41H224.81V188.84H223.98L220.5 193.46L220.59 193.91C220.59 193.97 220.63 194.02 220.68 194.06C220.73 194.1 220.78 194.12 220.85 194.12H224.03V196H224.81V194.12H225.71C225.77 194.12 225.81 194.1 225.85 194.06C225.882 194.024 225.9 193.978 225.9 193.93ZM155.6 190.56C155.6 190.84 155.55 191.1 155.46 191.32C155.38 191.54 155.26 191.72 155.11 191.88C154.967 192.029 154.794 192.147 154.603 192.228C154.413 192.309 154.208 192.35 154 192.35C153.78 192.35 153.57 192.31 153.38 192.22C153.18 192.15 153.02 192.03 152.88 191.88C152.731 191.718 152.615 191.527 152.54 191.32C152.458 191.079 152.417 190.825 152.42 190.57C152.42 190.27 152.46 190.02 152.54 189.8C152.603 189.594 152.711 189.404 152.857 189.245C153.002 189.086 153.181 188.961 153.38 188.88C153.579 188.798 153.792 188.757 154.006 188.759C154.221 188.76 154.433 188.805 154.63 188.89C154.827 188.973 155.004 189.097 155.149 189.254C155.294 189.411 155.403 189.597 155.47 189.8C155.55 190.02 155.59 190.28 155.59 190.56H155.6ZM154.9 190.56C154.9 190.34 154.88 190.16 154.83 190C154.791 189.864 154.723 189.738 154.63 189.63C154.558 189.533 154.462 189.457 154.35 189.41C154.126 189.321 153.875 189.321 153.65 189.41C153.543 189.459 153.451 189.535 153.38 189.63C153.3 189.73 153.23 189.85 153.18 190.01C153.14 190.16 153.12 190.35 153.12 190.57C153.12 190.78 153.14 190.97 153.19 191.12C153.23 191.27 153.29 191.39 153.38 191.49C153.46 191.59 153.55 191.65 153.66 191.69C153.76 191.74 153.88 191.75 154 191.75C154.12 191.756 154.24 191.736 154.35 191.69C154.463 191.649 154.562 191.58 154.64 191.49C154.733 191.382 154.801 191.256 154.84 191.12C154.88 190.97 154.9 190.78 154.9 190.56ZM158.13 188.99C158.162 188.949 158.199 188.912 158.24 188.88C158.299 188.85 158.365 188.836 158.43 188.84H159.07L153.83 195.85C153.8 195.897 153.759 195.935 153.71 195.961C153.661 195.987 153.606 196.001 153.55 196H152.89L158.13 188.99ZM159.56 194.31C159.56 194.59 159.51 194.84 159.43 195.06C159.34 195.28 159.23 195.46 159.08 195.62C158.937 195.769 158.764 195.887 158.573 195.968C158.383 196.049 158.178 196.09 157.97 196.09C157.74 196.09 157.53 196.04 157.34 195.96C157.146 195.878 156.971 195.755 156.828 195.6C156.685 195.445 156.577 195.261 156.51 195.06C156.427 194.819 156.386 194.565 156.39 194.31C156.39 194.02 156.43 193.77 156.51 193.54C156.604 193.229 156.798 192.958 157.062 192.77C157.326 192.581 157.646 192.486 157.97 192.5C158.19 192.5 158.4 192.54 158.59 192.63C158.79 192.71 158.96 192.83 159.09 192.97C159.24 193.13 159.35 193.32 159.43 193.54C159.52 193.77 159.56 194.02 159.56 194.31ZM158.86 194.31C158.86 194.09 158.84 193.91 158.8 193.75C158.762 193.61 158.694 193.481 158.6 193.37C158.526 193.277 158.43 193.205 158.32 193.16C158.096 193.071 157.845 193.071 157.62 193.16C157.511 193.205 157.415 193.277 157.34 193.37C157.26 193.47 157.19 193.59 157.14 193.75C157.095 193.933 157.075 194.122 157.08 194.31C157.08 194.53 157.1 194.71 157.15 194.86C157.19 195.01 157.25 195.13 157.34 195.23C157.42 195.33 157.51 195.39 157.62 195.43C157.846 195.513 158.094 195.513 158.32 195.43C158.42 195.39 158.52 195.33 158.6 195.23C158.693 195.122 158.761 194.996 158.8 194.86C158.84 194.71 158.87 194.53 158.87 194.31H158.86ZM75.4605 191.32C75.5505 191.1 75.5905 190.85 75.5905 190.57C75.5905 190.27 75.5505 190.02 75.4705 189.8C75.4083 189.594 75.3005 189.404 75.1551 189.244C75.0097 189.085 74.8304 188.961 74.6305 188.88C74.4321 188.798 74.2192 188.756 74.0045 188.758C73.7897 188.76 73.5775 188.805 73.3805 188.89C73.1816 188.97 73.003 189.093 72.8576 189.25C72.7123 189.408 72.604 189.595 72.5405 189.8C72.4605 190.02 72.4205 190.28 72.4205 190.56C72.4205 190.84 72.4605 191.1 72.5405 191.32C72.6205 191.54 72.7405 191.72 72.8705 191.88C73.0205 192.03 73.1805 192.15 73.3705 192.22C73.567 192.301 73.7777 192.343 73.9905 192.343C74.2032 192.343 74.4139 192.301 74.6105 192.22C74.8105 192.15 74.9705 192.03 75.1105 191.88C75.2605 191.73 75.3805 191.54 75.4605 191.32ZM74.8305 190.01C74.8805 190.16 74.9005 190.35 74.9005 190.57C74.9005 190.78 74.8805 190.97 74.8305 191.12C74.7989 191.259 74.7298 191.387 74.6305 191.49C74.5547 191.578 74.4586 191.647 74.3505 191.69C74.1244 191.773 73.8765 191.773 73.6505 191.69C73.5461 191.645 73.4537 191.577 73.3805 191.49C73.3005 191.39 73.2305 191.27 73.1805 191.12C73.1331 190.937 73.1128 190.749 73.1205 190.56C73.1205 190.34 73.1405 190.16 73.1905 190C73.2305 189.85 73.2905 189.73 73.3805 189.63C73.4605 189.53 73.5505 189.46 73.6605 189.41C73.8853 189.321 74.1356 189.321 74.3605 189.41C74.4605 189.46 74.5605 189.53 74.6405 189.63C74.7205 189.73 74.7905 189.85 74.8405 190.01H74.8305ZM78.2405 188.88C78.1996 188.908 78.1626 188.942 78.1305 188.98L72.8905 196H73.5505C73.606 196.001 73.6608 195.987 73.7097 195.961C73.7586 195.935 73.8002 195.897 73.8305 195.85L79.0705 188.84H78.4305C78.3646 188.835 78.2986 188.848 78.2405 188.88ZM79.4305 195.06C79.5105 194.84 79.5605 194.59 79.5605 194.31C79.5605 194.02 79.5205 193.77 79.4305 193.54C79.3599 193.333 79.2476 193.142 79.1005 192.98C78.9629 192.826 78.7918 192.707 78.6005 192.63C78.4024 192.548 78.19 192.505 77.9755 192.505C77.761 192.505 77.5486 192.548 77.3505 192.63C77.1519 192.71 76.9737 192.833 76.8284 192.991C76.6832 193.148 76.5746 193.336 76.5105 193.54C76.427 193.788 76.3864 194.048 76.3905 194.31C76.3905 194.59 76.4305 194.84 76.5105 195.06C76.6084 195.367 76.804 195.634 77.0675 195.82C77.3311 196.006 77.6481 196.101 77.9705 196.09C78.2907 196.091 78.6034 195.993 78.8651 195.808C79.1268 195.624 79.3244 195.362 79.4305 195.06ZM78.8005 193.75C78.8958 194.114 78.8958 194.496 78.8005 194.86C78.7608 194.996 78.6926 195.122 78.6005 195.23C78.5247 195.318 78.4286 195.387 78.3205 195.43C78.0944 195.513 77.8465 195.513 77.6205 195.43C77.5125 195.387 77.4165 195.318 77.3405 195.23C77.2605 195.13 77.1905 195.01 77.1405 194.86C77.0951 194.68 77.0749 194.495 77.0805 194.31C77.0805 194.09 77.1005 193.91 77.1505 193.75C77.1905 193.59 77.2505 193.47 77.3405 193.37C77.4145 193.277 77.5109 193.205 77.6205 193.16C77.8453 193.071 78.0956 193.071 78.3205 193.16C78.4205 193.2 78.5205 193.27 78.6005 193.37C78.6905 193.47 78.7505 193.59 78.8005 193.75ZM159.26 12V4.64001H158.37V12H159.27H159.26ZM67.5805 12H68.4805V7.03001H64.9805V5.30001H64.5205C64.4691 5.29807 64.419 5.31598 64.3805 5.35001C64.3479 5.38238 64.3268 5.42453 64.3205 5.47001L64.1205 7.03001L63.2805 7.14001V7.49001C63.2805 7.56001 63.3005 7.61001 63.3405 7.64001C63.3764 7.67172 63.4225 7.68946 63.4705 7.69001H64.0805V10.79C64.0805 11.21 64.1805 11.53 64.4005 11.75C64.6205 11.98 64.9305 12.09 65.3305 12.09C65.5605 12.09 65.7805 12.05 66.0005 11.97C66.2105 11.89 66.4005 11.77 66.5505 11.63L66.2905 11.2C66.2505 11.15 66.2105 11.12 66.1705 11.12C66.1405 11.12 66.1105 11.13 66.0705 11.16C65.9748 11.2212 65.8745 11.2747 65.7705 11.32C65.6933 11.3467 65.6121 11.3602 65.5305 11.36C65.4564 11.3622 65.3826 11.3492 65.3138 11.3216C65.245 11.2941 65.1826 11.2527 65.1305 11.2C65.0305 11.1 64.9705 10.94 64.9705 10.73V7.68001H67.5805V12ZM68.6405 5.55001C68.6776 5.47368 68.6969 5.3899 68.6969 5.30501C68.6969 5.22013 68.6776 5.13635 68.6405 5.06001C68.6083 4.98432 68.5606 4.91619 68.5005 4.86001C68.443 4.79856 68.3732 4.74988 68.2957 4.71715C68.2182 4.68441 68.1346 4.66836 68.0505 4.67001C67.9679 4.66999 67.8862 4.68701 67.8105 4.72001C67.7352 4.75296 67.6672 4.80055 67.6105 4.86001C67.5548 4.91779 67.5107 4.98568 67.4805 5.06001C67.4445 5.13846 67.4259 5.22373 67.4259 5.31001C67.4259 5.3963 67.4445 5.48157 67.4805 5.56001C67.5486 5.70278 67.6657 5.81634 67.8105 5.88001C67.8875 5.91449 67.971 5.93231 68.0555 5.93231C68.1399 5.93231 68.2234 5.91449 68.3005 5.88001C68.3747 5.8496 68.4425 5.8055 68.5005 5.75001C68.5605 5.69001 68.6005 5.63001 68.6405 5.55001ZM77.2705 9.53001C77.4505 9.53001 77.6105 9.50001 77.7505 9.45001C77.8772 9.40437 77.9929 9.33285 78.0905 9.24001C78.1905 9.15001 78.2605 9.04001 78.3005 8.92001C78.3505 8.79001 78.3705 8.66002 78.3705 8.51002C78.3784 8.37392 78.3576 8.23767 78.3093 8.11017C78.2611 7.98266 78.1865 7.86676 78.0905 7.77001C77.9005 7.58001 77.6305 7.49001 77.2705 7.49001C76.9105 7.49001 76.6405 7.59001 76.4505 7.77001C76.3554 7.86748 76.2815 7.9835 76.2333 8.11083C76.1852 8.23815 76.1638 8.37405 76.1705 8.51002C76.1705 8.66002 76.1905 8.79001 76.2405 8.92001C76.2899 9.04361 76.3656 9.15501 76.4623 9.24651C76.559 9.33801 76.6743 9.40745 76.8005 9.45001C76.9405 9.50001 77.1005 9.53001 77.2705 9.53001ZM78.8805 12.28C78.8864 12.1709 78.8507 12.0637 78.7805 11.98C78.7001 11.897 78.6005 11.8352 78.4905 11.8C78.3585 11.7498 78.2208 11.7162 78.0805 11.7C77.7393 11.6519 77.395 11.6285 77.0505 11.63C76.8765 11.6206 76.703 11.6039 76.5305 11.58C76.3405 11.67 76.1905 11.78 76.0705 11.91C75.9753 12.014 75.9154 12.1454 75.8992 12.2854C75.8831 12.4255 75.9115 12.5671 75.9805 12.69C76.0405 12.79 76.1305 12.87 76.2505 12.94C76.3705 13.01 76.5205 13.07 76.7005 13.11C77.125 13.2065 77.5659 13.2065 77.9905 13.11C78.1805 13.07 78.3405 13.01 78.4705 12.93C78.5918 12.8582 78.6946 12.7588 78.7705 12.64C78.8413 12.5332 78.8795 12.4081 78.8805 12.28ZM79.7805 7.14001V7.47001C79.7805 7.57001 79.7105 7.65001 79.5805 7.67001L79.0005 7.75001C79.1105 7.97001 79.1705 8.21001 79.1705 8.48001C79.176 8.82395 79.0671 9.15998 78.8607 9.43517C78.6543 9.71036 78.3622 9.90907 78.0305 10C77.5663 10.1457 77.0703 10.1561 76.6005 10.03C76.5075 10.0878 76.4261 10.1624 76.3605 10.25C76.3071 10.3115 76.2755 10.3888 76.2705 10.47C76.2705 10.59 76.3205 10.68 76.4205 10.75C76.5205 10.81 76.6505 10.85 76.8105 10.88L77.3505 10.93C77.7718 10.9441 78.1922 10.9775 78.6105 11.03C78.8205 11.07 79.0105 11.13 79.1605 11.22C79.3205 11.3 79.4605 11.42 79.5505 11.56C79.6566 11.7306 79.7089 11.9293 79.7005 12.13C79.7005 12.35 79.6405 12.56 79.5305 12.76C79.4305 12.96 79.2705 13.14 79.0705 13.3C78.8705 13.46 78.6205 13.59 78.3205 13.68C77.6787 13.8659 76.9993 13.8797 76.3505 13.72C76.0805 13.64 75.8505 13.54 75.6605 13.42C75.4924 13.3103 75.3521 13.1631 75.2505 12.99C75.1615 12.8382 75.1132 12.666 75.1105 12.49C75.1032 12.2534 75.1894 12.0235 75.3505 11.85C75.5105 11.68 75.7205 11.54 75.9905 11.44C75.8508 11.3798 75.7274 11.2873 75.6305 11.17C75.5389 11.0384 75.4932 10.8802 75.5005 10.72C75.5005 10.64 75.5205 10.57 75.5405 10.49C75.5695 10.4081 75.6099 10.3307 75.6605 10.26C75.7872 10.0847 75.9556 9.94379 76.1505 9.85002C75.9077 9.71881 75.7041 9.52557 75.5605 9.29001C75.4205 9.06001 75.3605 8.79001 75.3605 8.48001C75.3605 8.23001 75.4005 8.01001 75.4905 7.81001C75.5918 7.60795 75.7339 7.42902 75.9077 7.28447C76.0815 7.13992 76.2833 7.03286 76.5005 6.97001C76.8144 6.87126 77.1447 6.83544 77.4724 6.86461C77.8002 6.89378 78.119 6.98737 78.4105 7.14001H79.7805ZM70.7805 7.67001C70.9913 7.43626 71.2377 7.23716 71.5105 7.08001C71.8017 6.92181 72.1292 6.84252 72.4605 6.85001C72.7405 6.85001 72.9805 6.90001 73.1905 6.99001C73.3959 7.0855 73.5782 7.22432 73.725 7.39693C73.8717 7.56955 73.9793 7.77187 74.0405 7.99001C74.1205 8.23001 74.1505 8.49002 74.1505 8.77002V12H73.2505V8.77002C73.2505 8.39002 73.1705 8.09001 72.9905 7.88001C72.8205 7.68001 72.5605 7.56001 72.1905 7.56001C71.9405 7.56001 71.6905 7.63001 71.4605 7.76002C71.2305 7.88001 71.0205 8.06002 70.8305 8.27002V12H69.9305V6.93001H70.4705C70.6005 6.93001 70.6705 7.00001 70.7005 7.12001L70.7705 7.67001H70.7805ZM62.5205 7.83001C62.4985 7.86388 62.4715 7.89422 62.4405 7.92001C62.4108 7.93967 62.376 7.95011 62.3405 7.95001C62.279 7.94792 62.2196 7.92697 62.1705 7.89001C62.0007 7.77218 61.8156 7.67799 61.6205 7.61001C61.4681 7.56473 61.3094 7.54447 61.1505 7.55001C60.9005 7.55001 60.6805 7.59001 60.4905 7.68001C60.2905 7.78001 60.1405 7.90002 60.0105 8.06002C59.8726 8.24245 59.7708 8.44947 59.7105 8.67001C59.5791 9.19908 59.5826 9.75262 59.7205 10.28C59.8005 10.52 59.8905 10.72 60.0205 10.88C60.1505 11.04 60.3105 11.17 60.4905 11.26C60.6705 11.34 60.8705 11.38 61.1005 11.38C61.3205 11.38 61.5005 11.35 61.6405 11.3C61.7805 11.25 61.8905 11.2 61.9805 11.13C62.0805 11.07 62.1505 11.01 62.2105 10.96C62.2624 10.9117 62.3297 10.8834 62.4005 10.88C62.4332 10.8784 62.4658 10.8849 62.4954 10.8988C62.5251 10.9128 62.5509 10.9338 62.5705 10.96L62.8205 11.29C62.7113 11.4243 62.5833 11.5422 62.4405 11.64C62.152 11.8351 61.8243 11.9648 61.4805 12.02C61.0046 12.1172 60.5107 12.072 60.0605 11.89C59.7905 11.78 59.5605 11.61 59.3605 11.39C59.1474 11.1514 58.9842 10.8726 58.8805 10.57C58.6468 9.87294 58.6433 9.11923 58.8705 8.42001C58.9561 8.11684 59.1083 7.83657 59.3159 7.59959C59.5234 7.3626 59.7812 7.17486 60.0705 7.05001C60.3705 6.92001 60.7105 6.85001 61.0905 6.85001C61.399 6.84125 61.7061 6.89524 61.9932 7.00869C62.2802 7.12213 62.5413 7.29269 62.7605 7.51002L62.5205 7.83001ZM57.0205 8.35002C57.0735 8.53195 57.1005 8.7205 57.1005 8.91001H54.3305C54.3905 8.47001 54.5505 8.13001 54.7905 7.88001C55.0405 7.63001 55.3905 7.51002 55.8105 7.51002C56.0105 7.51002 56.1905 7.54001 56.3505 7.61001C56.5071 7.67453 56.6447 7.77776 56.7505 7.91001C56.8705 8.03001 56.9505 8.18002 57.0105 8.35002H57.0205ZM57.4205 11.64C57.5805 11.54 57.7205 11.42 57.8205 11.29L57.5705 10.97C57.552 10.9419 57.5267 10.919 57.497 10.9032C57.4673 10.8875 57.4341 10.8795 57.4005 10.88C57.3277 10.8879 57.2586 10.9156 57.2005 10.96C56.9776 11.0975 56.7393 11.2082 56.4905 11.29C56.3305 11.35 56.1405 11.37 55.9105 11.37C55.6705 11.37 55.4605 11.33 55.2605 11.26C55.0605 11.18 54.9005 11.06 54.7605 10.9C54.6118 10.7238 54.4996 10.5199 54.4305 10.3C54.3488 10.0307 54.305 9.75138 54.3005 9.47002H57.6905C57.7705 9.47002 57.8305 9.45001 57.8605 9.40001C57.8905 9.35001 57.9005 9.26001 57.9005 9.12001C57.9005 8.76001 57.8505 8.44001 57.7405 8.16001C57.5975 7.76308 57.3309 7.42254 56.9798 7.18851C56.6288 6.95448 56.2119 6.83933 55.7905 6.86001C55.4205 6.86001 55.0905 6.92001 54.7905 7.05001C54.5058 7.1729 54.2506 7.3551 54.042 7.58445C53.8333 7.8138 53.676 8.08503 53.5805 8.38001C53.3579 9.08052 53.365 9.83378 53.6005 10.53C53.6987 10.8376 53.8634 11.1197 54.0828 11.3565C54.3023 11.5933 54.5712 11.7788 54.8705 11.9C55.1705 12.01 55.4905 12.07 55.8405 12.07C56.3992 12.0698 56.9478 11.9214 57.4305 11.64H57.4205ZM49.0005 10.78C49.132 10.9724 49.3102 11.1283 49.5182 11.2332C49.7263 11.3381 49.9576 11.3886 50.1905 11.38C50.6605 11.38 51.0205 11.21 51.2805 10.88C51.5305 10.54 51.6605 10.06 51.6605 9.43002C51.6605 9.10002 51.6305 8.83001 51.5605 8.58001C51.5196 8.37273 51.438 8.17561 51.3205 8.00001C51.2192 7.85609 51.081 7.7421 50.9205 7.67001C50.7505 7.60001 50.5705 7.57001 50.3705 7.57001C50.0705 7.57001 49.8205 7.63001 49.6005 7.77001C49.3698 7.92085 49.1668 8.11028 49.0005 8.33001V10.78ZM48.9605 7.72001C49.1705 7.46001 49.4205 7.24001 49.7005 7.08001C49.9805 6.92001 50.3005 6.84001 50.6605 6.84001C50.9305 6.83088 51.1988 6.88702 51.4425 7.00365C51.6862 7.12029 51.8982 7.29399 52.0605 7.51002C52.2205 7.73002 52.3605 8.00001 52.4405 8.32001C52.6269 9.0284 52.6235 9.77339 52.4305 10.48C52.3305 10.8 52.1805 11.08 51.9905 11.31C51.808 11.5486 51.5715 11.7405 51.3005 11.87C51.0305 12 50.7305 12.07 50.3905 12.07C50.1154 12.0752 49.8424 12.0206 49.5905 11.91C49.3705 11.81 49.1705 11.66 49.0005 11.47V13.71H48.1005V6.93001H48.6405C48.7705 6.93001 48.8405 7.00001 48.8805 7.12001L48.9605 7.72001ZM46.5505 7.88001C46.5877 7.88027 46.6243 7.87011 46.6562 7.85068C46.688 7.83124 46.7137 7.8033 46.7305 7.77001L46.9305 7.44001C46.4914 7.05396 45.9251 6.84383 45.3405 6.85001C45.0605 6.85001 44.8005 6.89001 44.5805 6.97001C44.3743 7.04297 44.1842 7.15502 44.0205 7.30001C43.873 7.4259 43.7546 7.5823 43.6735 7.7584C43.5923 7.9345 43.5503 8.12612 43.5505 8.32001C43.5505 8.54001 43.5805 8.72002 43.6505 8.88001C43.7305 9.03001 43.8305 9.16002 43.9505 9.26002C44.0805 9.36001 44.2205 9.45002 44.3805 9.52002L44.8605 9.70001L45.3505 9.85002C45.5105 9.90002 45.6505 9.95001 45.7705 10.03C45.8842 10.0869 45.986 10.165 46.0705 10.26C46.1405 10.35 46.1805 10.46 46.1805 10.61C46.1803 10.7186 46.1581 10.826 46.1151 10.9257C46.0721 11.0254 46.0093 11.1154 45.9305 11.19C45.8338 11.2741 45.7217 11.3386 45.6005 11.38C45.4705 11.42 45.3205 11.44 45.1505 11.44C44.8488 11.4493 44.5506 11.373 44.2905 11.22L44.0505 11.06C43.9933 11.0153 43.923 10.9907 43.8505 10.99C43.8005 10.99 43.7505 11 43.7205 11.03C43.6796 11.0549 43.6454 11.0892 43.6205 11.13L43.4205 11.46C43.8832 11.8696 44.4826 12.0908 45.1005 12.08C45.6117 12.088 46.1111 11.9263 46.5205 11.62C46.6805 11.47 46.8105 11.3 46.8905 11.1C46.9705 10.9 47.0205 10.68 47.0205 10.45C47.0263 10.28 46.9923 10.1109 46.9211 9.95635C46.8499 9.8018 46.7435 9.66607 46.6105 9.56002C46.4805 9.46002 46.3405 9.38002 46.1905 9.31002C45.8783 9.16703 45.5536 9.05321 45.2205 8.97002C45.0605 8.92001 44.9205 8.87002 44.8005 8.80001C44.6877 8.74589 44.586 8.67129 44.5005 8.58001C44.4283 8.48576 44.3927 8.3685 44.4005 8.25001C44.4005 8.15001 44.4105 8.05001 44.4605 7.97001C44.509 7.87652 44.5773 7.79465 44.6605 7.73001C44.751 7.66297 44.8525 7.61222 44.9605 7.58001C45.2379 7.49806 45.5331 7.49806 45.8105 7.58001L46.1405 7.70001L46.3805 7.82001C46.4405 7.86001 46.5005 7.88001 46.5505 7.88001ZM40.2505 6.85001C40.6105 6.85001 40.9505 6.92001 41.2505 7.04001C41.5424 7.16036 41.8041 7.34381 42.0167 7.57721C42.2294 7.81062 42.3877 8.08819 42.4805 8.39002C42.6005 8.71002 42.6505 9.07001 42.6505 9.46001C42.6505 9.86001 42.6005 10.22 42.4805 10.54C42.386 10.8425 42.2259 11.1204 42.0116 11.3538C41.7972 11.5872 41.5339 11.7703 41.2405 11.89C40.9405 12.01 40.6105 12.07 40.2405 12.07C39.8988 12.0738 39.5594 12.0128 39.2405 11.89C38.9448 11.7721 38.6792 11.5897 38.463 11.3562C38.2467 11.1227 38.0853 10.8438 37.9905 10.54C37.8743 10.1919 37.8169 9.82695 37.8205 9.46001C37.8205 9.06001 37.8805 8.71002 37.9905 8.39002C38.0853 8.0862 38.2467 7.80737 38.463 7.57383C38.6792 7.34029 38.9448 7.15792 39.2405 7.04001C39.5405 6.92001 39.8705 6.85001 40.2405 6.85001H40.2505ZM40.2505 11.38C40.7505 11.38 41.1205 11.21 41.3605 10.88C41.6105 10.54 41.7305 10.07 41.7305 9.47002C41.7305 8.87002 41.6105 8.40002 41.3605 8.06002C41.1205 7.72002 40.7405 7.56001 40.2405 7.56001C39.9905 7.56001 39.7705 7.60001 39.5805 7.68001C39.3905 7.78001 39.2305 7.90002 39.1105 8.06002C38.9805 8.22002 38.8905 8.42001 38.8305 8.66001C38.7705 8.90001 38.7305 9.17001 38.7305 9.47002C38.7305 10.07 38.8605 10.54 39.1105 10.87C39.3605 11.21 39.7405 11.37 40.2405 11.37L40.2505 11.38ZM36.1005 7.13001C35.8705 7.33001 35.6705 7.59001 35.5105 7.94001L35.4505 7.17001C35.4521 7.13527 35.4468 7.10056 35.4347 7.06792C35.4227 7.03528 35.4043 7.00539 35.3805 6.98001C35.3405 6.94001 35.2805 6.92001 35.1805 6.92001H34.6705V12H35.5705V8.80001C35.6305 8.63001 35.7005 8.47002 35.7705 8.34001C35.8505 8.20001 35.9405 8.09001 36.0405 8.00001C36.1405 7.90001 36.2505 7.84001 36.3705 7.79001C36.6092 7.71094 36.8646 7.69713 37.1105 7.75001L37.3105 7.78001C37.3905 7.78001 37.4405 7.74001 37.4605 7.65001L37.5305 6.99001C37.4478 6.93751 37.3563 6.90026 37.2605 6.88001C37.1624 6.85505 37.0617 6.84162 36.9605 6.84001C36.6205 6.84001 36.3405 6.94001 36.1005 7.14001V7.13001ZM31.1005 8.55001C31.3705 8.55001 31.6205 8.51001 31.8305 8.44001C32.0405 8.37001 32.2205 8.26002 32.3605 8.14002C32.5105 8.00002 32.6205 7.84001 32.6905 7.66001C32.7705 7.48001 32.8005 7.27001 32.8005 7.06001C32.8005 6.60001 32.6605 6.24001 32.3805 5.98001C32.1005 5.73001 31.6705 5.60001 31.1005 5.60001H29.9505V8.55001H31.1005ZM31.1005 4.83001C31.5505 4.83001 31.9405 4.89001 32.2805 4.99001C32.6105 5.09001 32.8905 5.25001 33.1105 5.44001C33.3305 5.64001 33.4905 5.87001 33.6105 6.14001C33.8231 6.73274 33.816 7.38208 33.5905 7.97001C33.478 8.2431 33.3033 8.48621 33.0805 8.68002C32.8505 8.88001 32.5805 9.04001 32.2405 9.15001C31.8721 9.26754 31.4871 9.32494 31.1005 9.32001H29.9505V12H28.9805V4.83001H31.1005ZM156.13 9.72002C155.779 9.72763 155.428 9.76105 155.08 9.82001C154.79 9.87001 154.55 9.94002 154.38 10.02C154.224 10.0845 154.086 10.1878 153.98 10.32C153.901 10.4307 153.859 10.5638 153.86 10.7C153.86 10.83 153.88 10.94 153.92 11.04C153.959 11.1322 154.019 11.2138 154.096 11.2781C154.172 11.3425 154.263 11.3877 154.36 11.41C154.611 11.4612 154.87 11.4612 155.12 11.41C155.25 11.38 155.37 11.33 155.49 11.27L155.82 11.06L156.12 10.77V9.72002H156.13ZM153.25 7.65001C153.779 7.13225 154.491 6.84464 155.23 6.85001C155.51 6.85001 155.77 6.89001 155.99 6.98001C156.206 7.06837 156.399 7.20415 156.555 7.37728C156.71 7.5504 156.825 7.75642 156.89 7.98001C156.96 8.22001 156.99 8.48002 156.99 8.76002V12H156.6C156.532 12.0037 156.463 11.99 156.4 11.96C156.349 11.9162 156.314 11.8563 156.3 11.79L156.2 11.31C156.073 11.4265 155.939 11.5366 155.8 11.64C155.548 11.827 155.258 11.9566 154.95 12.02C154.594 12.0992 154.224 12.0923 153.87 12C153.704 11.9504 153.55 11.8659 153.419 11.752C153.288 11.6382 153.183 11.4978 153.11 11.34C153.037 11.1489 153.003 10.9447 153.01 10.74C153.01 10.54 153.06 10.34 153.17 10.16C153.27 9.97001 153.45 9.81001 153.7 9.66001C153.95 9.52001 154.27 9.40002 154.67 9.31002C155.07 9.22002 155.55 9.17001 156.13 9.15001V8.76002C156.13 8.36001 156.04 8.07001 155.87 7.87001C155.7 7.67001 155.45 7.57001 155.13 7.57001C154.798 7.55539 154.469 7.64639 154.19 7.83001L153.91 8.02002C153.844 8.06994 153.764 8.0979 153.68 8.10002C153.623 8.10075 153.567 8.08324 153.52 8.05001C153.481 8.01574 153.447 7.97521 153.42 7.93001L153.25 7.65001ZM151.82 7.88001C151.859 7.88221 151.898 7.87296 151.932 7.85342C151.966 7.83387 151.993 7.80488 152.01 7.77001L152.21 7.44001C152.008 7.25199 151.77 7.10587 151.51 7.01002C150.978 6.80633 150.392 6.79221 149.85 6.97001C149.63 7.05001 149.45 7.17001 149.29 7.30001C149.142 7.42546 149.024 7.58177 148.943 7.75797C148.861 7.93418 148.82 8.12601 148.82 8.32001C148.82 8.54001 148.86 8.72002 148.93 8.88001C149.01 9.03001 149.11 9.16002 149.23 9.26002C149.35 9.36001 149.49 9.45002 149.65 9.52002C149.81 9.59002 149.97 9.65001 150.14 9.70001L150.62 9.85002C150.78 9.90002 150.92 9.95001 151.04 10.03C151.157 10.0816 151.26 10.1605 151.34 10.26C151.42 10.35 151.45 10.46 151.45 10.61C151.45 10.7186 151.428 10.826 151.385 10.9257C151.342 11.0254 151.279 11.1154 151.2 11.19C151.107 11.2728 150.998 11.3373 150.88 11.38C150.731 11.4223 150.576 11.4425 150.42 11.44C150.119 11.4493 149.821 11.373 149.56 11.22L149.32 11.06C149.266 11.0179 149.199 10.9935 149.13 10.99C149.07 10.99 149.03 11 148.99 11.03C148.95 11.0549 148.915 11.0892 148.89 11.13L148.69 11.46C149.156 11.8719 149.759 12.0933 150.38 12.08C150.889 12.0897 151.386 11.9276 151.79 11.62C151.96 11.47 152.09 11.3 152.17 11.1C152.25 10.9 152.29 10.68 152.29 10.45C152.296 10.2801 152.261 10.1113 152.19 9.95684C152.119 9.80242 152.013 9.66659 151.88 9.56002C151.76 9.46002 151.62 9.38002 151.46 9.31002C151.151 9.16826 150.83 9.05448 150.5 8.97002C150.352 8.92732 150.208 8.87039 150.07 8.80001C149.958 8.74609 149.856 8.67147 149.77 8.58001C149.697 8.4862 149.662 8.3686 149.67 8.25001C149.67 8.15001 149.69 8.05001 149.73 7.97001C149.778 7.87616 149.847 7.79417 149.93 7.73001C150.021 7.6628 150.122 7.61202 150.23 7.58001C150.511 7.49608 150.81 7.49608 151.09 7.58001L151.42 7.70001L151.65 7.82001C151.71 7.86001 151.77 7.88001 151.82 7.88001ZM145.52 6.85001C145.89 6.85001 146.22 6.92001 146.52 7.04001C146.814 7.15914 147.078 7.34206 147.292 7.57553C147.507 7.809 147.667 8.0872 147.76 8.39002C147.981 9.08975 147.981 9.84028 147.76 10.54C147.667 10.8428 147.507 11.121 147.292 11.3545C147.078 11.588 146.814 11.7709 146.52 11.89C146.22 12.01 145.89 12.07 145.52 12.07C145.175 12.0751 144.833 12.014 144.51 11.89C144.215 11.7721 143.949 11.5897 143.733 11.3562C143.517 11.1227 143.355 10.8438 143.26 10.54C143.148 10.1914 143.094 9.82639 143.1 9.46001C143.1 9.06001 143.15 8.71002 143.26 8.39002C143.37 8.07002 143.54 7.79001 143.75 7.56001C143.95 7.34001 144.21 7.16001 144.51 7.04001C144.81 6.92001 145.14 6.85001 145.51 6.85001H145.52ZM145.52 11.38C146.02 11.38 146.39 11.21 146.64 10.88C146.88 10.54 147.01 10.07 147.01 9.47002C147.01 8.87002 146.88 8.40002 146.64 8.06002C146.39 7.72002 146.02 7.56001 145.52 7.56001C145.26 7.56001 145.04 7.60001 144.85 7.68001C144.66 7.78001 144.51 7.90002 144.38 8.06002C144.26 8.22002 144.16 8.42001 144.1 8.66001C144.04 8.90001 144.01 9.17001 144.01 9.47002C144.01 10.07 144.13 10.54 144.38 10.87C144.63 11.21 145.01 11.37 145.52 11.37V11.38ZM139.21 11.24C139.01 11.15 138.83 11 138.67 10.78V8.33001C138.85 8.09001 139.05 7.90002 139.27 7.76002C139.468 7.64666 139.688 7.57965 139.915 7.56405C140.142 7.54846 140.37 7.5847 140.58 7.67001C140.74 7.74001 140.88 7.85001 140.98 8.00001C141.1 8.15001 141.18 8.35001 141.24 8.58001C141.3 8.82001 141.33 9.10002 141.33 9.43002C141.33 10.06 141.2 10.53 140.95 10.88C140.69 11.21 140.33 11.38 139.85 11.38C139.62 11.38 139.4 11.34 139.21 11.24ZM139.37 7.08001C139.09 7.24001 138.84 7.46001 138.63 7.72001L138.55 7.12001C138.52 7.00001 138.44 6.93001 138.31 6.93001H137.78V13.72H138.68V11.47C138.84 11.67 139.04 11.81 139.26 11.91C139.48 12.01 139.75 12.07 140.06 12.07C140.367 12.0717 140.67 12.0043 140.947 11.8727C141.224 11.7412 141.468 11.5488 141.66 11.31C141.86 11.08 142 10.8 142.1 10.48C142.293 9.77339 142.297 9.0284 142.11 8.32001C142.02 8.00001 141.89 7.72002 141.73 7.51002C141.575 7.29634 141.369 7.12456 141.13 7.01002C140.88 6.91002 140.62 6.84001 140.33 6.84001C139.97 6.84001 139.65 6.92001 139.37 7.08001ZM134.24 6.85001C134.61 6.85001 134.94 6.92001 135.24 7.04001C135.534 7.15975 135.797 7.34286 136.012 7.57624C136.226 7.80963 136.386 8.08752 136.48 8.39002C136.59 8.71002 136.65 9.07001 136.65 9.46001C136.65 9.86001 136.59 10.22 136.48 10.54C136.386 10.8425 136.226 11.1204 136.012 11.3538C135.797 11.5872 135.534 11.7703 135.24 11.89C134.94 12.01 134.61 12.07 134.24 12.07C133.895 12.0751 133.553 12.014 133.23 11.89C132.935 11.7721 132.669 11.5897 132.453 11.3562C132.237 11.1227 132.075 10.8438 131.98 10.54C131.868 10.1914 131.814 9.82639 131.82 9.46001C131.82 9.06001 131.87 8.71002 131.98 8.39002C132.1 8.07002 132.26 7.79001 132.47 7.56001C132.67 7.34001 132.93 7.16001 133.23 7.04001C133.53 6.92001 133.86 6.85001 134.23 6.85001H134.24ZM134.24 11.38C134.74 11.38 135.11 11.21 135.36 10.88C135.6 10.54 135.73 10.07 135.73 9.47002C135.73 8.87002 135.6 8.40002 135.36 8.06002C135.11 7.72002 134.74 7.56001 134.24 7.56001C133.98 7.56001 133.76 7.60001 133.57 7.68001C133.38 7.78001 133.23 7.90002 133.1 8.06002C132.969 8.23973 132.874 8.4436 132.82 8.66001C132.76 8.90001 132.73 9.17001 132.73 9.47002C132.73 10.07 132.86 10.54 133.1 10.87C133.35 11.21 133.73 11.37 134.24 11.37V11.38ZM130.1 7.14001C129.87 7.34001 129.67 7.60001 129.5 7.95001L129.45 7.18001C129.447 7.10922 129.419 7.04191 129.37 6.99001C129.34 6.95001 129.27 6.93001 129.17 6.93001H128.67V12H129.56V8.80001C129.62 8.63001 129.69 8.47002 129.76 8.34001C129.85 8.20001 129.94 8.09001 130.03 8.00001C130.13 7.90001 130.25 7.84001 130.37 7.79001C130.606 7.71226 130.858 7.69846 131.1 7.75001L131.3 7.78001C131.39 7.78001 131.44 7.74001 131.46 7.65001L131.52 6.99001C131.441 6.93859 131.353 6.90137 131.26 6.88001C131.16 6.86001 131.06 6.84001 130.96 6.84001C130.62 6.84001 130.33 6.94001 130.1 7.14001ZM125.08 8.55001C125.36 8.55001 125.6 8.51001 125.81 8.44001C126.02 8.37001 126.21 8.26002 126.35 8.14002C126.49 8.00002 126.6 7.84001 126.68 7.66001C126.75 7.48001 126.78 7.27001 126.78 7.06001C126.78 6.60001 126.64 6.24001 126.36 5.98001C126.08 5.73001 125.66 5.60001 125.08 5.60001H123.93V8.55001H125.08ZM125.08 4.83001C125.53 4.83001 125.93 4.89001 126.26 4.99001C126.6 5.09001 126.88 5.25001 127.1 5.44001C127.32 5.64001 127.48 5.87001 127.59 6.14001C127.806 6.73154 127.803 7.38088 127.58 7.97001C127.46 8.25001 127.28 8.48002 127.06 8.68002C126.84 8.88001 126.56 9.04001 126.23 9.15001C125.9 9.26001 125.51 9.32001 125.08 9.32001H123.93V12H122.97V4.83001H125.08ZM236.33 7.33001C236.21 7.43001 236.09 7.55001 235.98 7.67001L235.91 7.12001C235.88 7.00001 235.81 6.93001 235.67 6.93001H235.14V12H236.04V8.27002C236.23 8.05002 236.44 7.88001 236.66 7.75001C236.89 7.63001 237.14 7.56001 237.4 7.56001C237.76 7.56001 238.03 7.67001 238.2 7.88001C238.38 8.09001 238.46 8.39001 238.46 8.78001V12H239.36V8.77002C239.36 8.49002 239.32 8.23001 239.25 7.99001C239.183 7.76937 239.071 7.56507 238.92 7.39001C238.78 7.21001 238.61 7.09001 238.39 6.99001C238.048 6.85588 237.676 6.81666 237.314 6.87651C236.951 6.93635 236.611 7.09304 236.33 7.33001ZM231.6 6.85001C231.97 6.85001 232.3 6.92001 232.6 7.04001C232.894 7.15914 233.158 7.34206 233.372 7.57553C233.587 7.809 233.747 8.0872 233.84 8.39002C233.95 8.71002 234.01 9.07001 234.01 9.46001C234.01 9.86001 233.95 10.22 233.84 10.54C233.747 10.8428 233.587 11.121 233.372 11.3545C233.158 11.588 232.894 11.7709 232.6 11.89C232.3 12.01 231.97 12.07 231.6 12.07C231.255 12.0751 230.913 12.014 230.59 11.89C230.295 11.7721 230.029 11.5897 229.813 11.3562C229.597 11.1227 229.435 10.8438 229.34 10.54C229.228 10.1914 229.174 9.82639 229.18 9.46001C229.18 9.06001 229.24 8.71002 229.35 8.39002C229.445 8.0862 229.607 7.80737 229.823 7.57383C230.039 7.34029 230.305 7.15792 230.6 7.04001C230.89 6.92001 231.23 6.85001 231.6 6.85001ZM231.6 11.38C232.1 11.38 232.47 11.21 232.72 10.88C232.97 10.54 233.09 10.07 233.09 9.47002C233.09 8.87002 232.97 8.40002 232.72 8.06002C232.47 7.72002 232.1 7.56001 231.6 7.56001C231.35 7.56001 231.13 7.60001 230.94 7.68001C230.74 7.78001 230.59 7.90002 230.47 8.06002C230.34 8.22002 230.25 8.42001 230.19 8.66001C230.13 8.90001 230.09 9.17001 230.09 9.47002C230.09 10.07 230.22 10.54 230.47 10.87C230.72 11.21 231.09 11.37 231.6 11.37V11.38ZM227.11 12H228.01V7.03001H224.51V5.30001H224.05C224.002 5.29947 223.955 5.31637 223.919 5.34761C223.882 5.37885 223.858 5.42232 223.85 5.47001L223.65 7.03001L222.81 7.14001V7.49001C222.81 7.56001 222.83 7.61001 222.87 7.64001C222.906 7.67172 222.953 7.68946 223 7.69001H223.61V10.79C223.61 11.21 223.71 11.53 223.93 11.75C224.15 11.98 224.46 12.09 224.86 12.09C225.09 12.09 225.31 12.05 225.53 11.97C225.74 11.89 225.93 11.77 226.08 11.63L225.82 11.2C225.79 11.15 225.74 11.12 225.7 11.12C225.664 11.1222 225.629 11.1362 225.6 11.16C225.504 11.2204 225.404 11.2739 225.3 11.32C225.223 11.3467 225.142 11.3602 225.06 11.36C224.986 11.3622 224.913 11.3492 224.844 11.3216C224.775 11.2941 224.713 11.2527 224.66 11.2C224.56 11.1 224.5 10.94 224.5 10.73V7.68001H227.11V12ZM228.17 5.55001C228.207 5.47348 228.226 5.38978 228.226 5.30501C228.226 5.22025 228.207 5.13655 228.17 5.06001C228.138 4.98446 228.09 4.91638 228.03 4.86001C227.96 4.78336 227.871 4.7261 227.772 4.69367C227.673 4.66125 227.567 4.65476 227.465 4.67482C227.362 4.69488 227.267 4.74081 227.187 4.80825C227.108 4.87568 227.047 4.96236 227.01 5.06001C226.976 5.1388 226.959 5.22406 226.96 5.31001C226.959 5.39175 226.974 5.47294 227.005 5.5486C227.036 5.62427 227.082 5.6928 227.14 5.75001C227.2 5.81001 227.26 5.85001 227.34 5.88001C227.455 5.93207 227.583 5.94751 227.706 5.92424C227.83 5.90098 227.943 5.84013 228.03 5.75001C228.09 5.69001 228.13 5.63001 228.17 5.55001ZM221.15 9.72002C220.798 9.72763 220.448 9.76105 220.1 9.82001C219.8 9.87001 219.57 9.94002 219.4 10.02C219.244 10.0845 219.106 10.1878 219 10.32C218.921 10.4307 218.879 10.5638 218.88 10.7C218.88 10.83 218.9 10.94 218.94 11.04C218.98 11.14 219.04 11.22 219.12 11.28C219.19 11.34 219.28 11.38 219.38 11.41C219.48 11.44 219.59 11.45 219.71 11.45C219.988 11.4579 220.263 11.396 220.51 11.27L220.84 11.06L221.14 10.77V9.72002H221.15ZM218.27 7.65001C218.799 7.13225 219.511 6.84464 220.25 6.85001C220.53 6.85001 220.79 6.89001 221.01 6.98001C221.226 7.06837 221.419 7.20415 221.575 7.37728C221.73 7.5504 221.845 7.75642 221.91 7.98001C221.98 8.22001 222.01 8.48002 222.01 8.76002V12H221.62C221.551 12.0042 221.483 11.9904 221.42 11.96C221.37 11.93 221.34 11.87 221.32 11.79L221.22 11.31L220.82 11.64C220.568 11.827 220.278 11.9566 219.97 12.02C219.614 12.0984 219.244 12.0916 218.89 12C218.724 11.9516 218.569 11.8675 218.438 11.7536C218.307 11.6396 218.202 11.4985 218.13 11.34C218.057 11.1489 218.022 10.9447 218.03 10.74C218.03 10.54 218.08 10.34 218.19 10.16C218.29 9.97001 218.47 9.81001 218.72 9.66001C218.97 9.52001 219.29 9.40002 219.69 9.31002C220.09 9.22002 220.57 9.17001 221.15 9.15001V8.76002C221.15 8.36001 221.06 8.07001 220.89 7.87001C220.72 7.67001 220.47 7.57001 220.15 7.57001C219.818 7.55539 219.489 7.64639 219.21 7.83001L218.93 8.02002C218.864 8.06994 218.784 8.0979 218.7 8.10002C218.643 8.10147 218.587 8.08389 218.54 8.05001C218.501 8.01601 218.467 7.97542 218.44 7.93001L218.27 7.65001ZM216.04 12H216.93V7.03001H213.43V5.30001H212.98C212.929 5.29807 212.879 5.31598 212.84 5.35001C212.804 5.38091 212.78 5.42323 212.77 5.47001L212.57 7.03001L211.74 7.14001V7.49001C211.74 7.56001 211.76 7.61001 211.79 7.64001C211.829 7.67405 211.879 7.69196 211.93 7.69001H212.53V10.79C212.53 11.21 212.65 11.53 212.86 11.75C213.07 11.98 213.38 12.09 213.78 12.09C214.232 12.0877 214.668 11.9247 215.01 11.63L214.75 11.2C214.71 11.15 214.67 11.12 214.62 11.12C214.584 11.1234 214.549 11.1373 214.52 11.16C214.425 11.2217 214.325 11.2752 214.22 11.32C214.143 11.3469 214.062 11.3604 213.98 11.36C213.906 11.3622 213.833 11.3492 213.764 11.3216C213.695 11.2941 213.633 11.2527 213.58 11.2C213.48 11.1 213.43 10.94 213.43 10.73V7.68001H216.03V12H216.04ZM217.09 5.55001C217.128 5.47549 217.149 5.39349 217.15 5.31001C217.15 5.22316 217.13 5.13757 217.09 5.06001C217.058 4.98432 217.011 4.91619 216.95 4.86001C216.894 4.79981 216.826 4.75186 216.75 4.71917C216.675 4.68648 216.593 4.66975 216.51 4.67001C216.425 4.66889 216.339 4.68592 216.26 4.72001C216.11 4.79 215.992 4.915 215.93 5.06936C215.869 5.22371 215.869 5.3957 215.93 5.55001C215.998 5.6955 216.115 5.81239 216.26 5.88001C216.339 5.91534 216.424 5.9336 216.51 5.9336C216.597 5.9336 216.682 5.91534 216.76 5.88001C216.835 5.84981 216.903 5.80569 216.96 5.75001C217.01 5.69001 217.06 5.63001 217.09 5.55001ZM208.78 6.85001C209.15 6.85001 209.48 6.92001 209.78 7.04001C210.074 7.15914 210.338 7.34206 210.552 7.57553C210.767 7.809 210.927 8.0872 211.02 8.39002C211.13 8.71002 211.19 9.07001 211.19 9.46001C211.19 9.86001 211.13 10.22 211.02 10.54C210.927 10.8428 210.767 11.121 210.552 11.3545C210.338 11.588 210.074 11.7709 209.78 11.89C209.48 12.01 209.15 12.07 208.78 12.07C208.435 12.0751 208.093 12.014 207.77 11.89C207.475 11.7715 207.21 11.5889 206.994 11.3555C206.778 11.122 206.616 10.8435 206.52 10.54C206.408 10.1914 206.354 9.82639 206.36 9.46001C206.36 9.06001 206.41 8.71002 206.52 8.39002C206.616 8.08652 206.778 7.80801 206.994 7.57455C207.21 7.3411 207.475 7.15853 207.77 7.04001C208.07 6.92001 208.4 6.85001 208.77 6.85001H208.78ZM208.78 11.38C209.28 11.38 209.65 11.21 209.9 10.88C210.14 10.54 210.27 10.07 210.27 9.47002C210.27 8.87002 210.14 8.40002 209.9 8.06002C209.65 7.72002 209.28 7.56001 208.78 7.56001C208.52 7.56001 208.3 7.60001 208.11 7.68001C207.93 7.78001 207.77 7.90002 207.64 8.06002C207.52 8.22002 207.43 8.42001 207.36 8.66001C207.3 8.90001 207.27 9.17001 207.27 9.47002C207.27 10.07 207.4 10.54 207.64 10.87C207.89 11.21 208.27 11.37 208.78 11.37V11.38ZM203.76 9.45001C203.63 9.50001 203.47 9.53001 203.29 9.53001C203.11 9.53001 202.95 9.50001 202.82 9.45001C202.694 9.40745 202.579 9.33801 202.482 9.24651C202.386 9.15501 202.31 9.04361 202.26 8.92001C202.213 8.78846 202.19 8.64971 202.19 8.51002C202.184 8.37411 202.206 8.23838 202.254 8.11115C202.302 7.98391 202.376 7.86783 202.47 7.77001C202.66 7.58001 202.93 7.49001 203.29 7.49001C203.65 7.49001 203.92 7.59001 204.1 7.77001C204.3 7.95001 204.39 8.20002 204.39 8.51002C204.39 8.66002 204.37 8.79001 204.32 8.92001C204.276 9.04126 204.204 9.1507 204.11 9.24001C204.01 9.33001 203.91 9.40001 203.76 9.45001ZM204.79 11.98C204.86 12.05 204.89 12.15 204.89 12.28C204.89 12.41 204.86 12.53 204.79 12.64C204.715 12.7588 204.612 12.8582 204.49 12.93C204.35 13.01 204.19 13.07 204 13.11C203.579 13.205 203.142 13.205 202.72 13.11C202.53 13.07 202.38 13.01 202.26 12.94C202.155 12.8794 202.065 12.7935 202 12.69C201.932 12.5671 201.903 12.4255 201.919 12.2854C201.935 12.1454 201.995 12.014 202.09 11.91C202.21 11.78 202.36 11.67 202.54 11.58C202.891 11.6366 203.246 11.6634 203.6 11.66L204.1 11.71C204.25 11.72 204.39 11.75 204.5 11.8C204.63 11.84 204.72 11.9 204.79 11.98ZM205.8 7.47001V7.14001H204.42C204.27 7.04001 204.1 6.97001 203.91 6.93001C203.453 6.81163 202.971 6.8255 202.52 6.97001C202.298 7.03943 202.09 7.15151 201.91 7.30001C201.737 7.44325 201.599 7.62379 201.505 7.82814C201.412 8.03249 201.366 8.25534 201.37 8.48001C201.37 8.78001 201.44 9.06001 201.58 9.29001C201.72 9.52001 201.91 9.71002 202.16 9.85002C201.971 9.94334 201.806 10.0805 201.68 10.25C201.629 10.3239 201.589 10.4047 201.56 10.49C201.534 10.5639 201.521 10.6416 201.52 10.72C201.52 10.91 201.56 11.06 201.65 11.17C201.748 11.2862 201.872 11.3785 202.01 11.44C201.74 11.54 201.52 11.68 201.37 11.85C201.211 12.0246 201.125 12.2538 201.13 12.49C201.13 12.66 201.18 12.83 201.26 12.99C201.36 13.15 201.5 13.29 201.68 13.42C201.86 13.54 202.09 13.64 202.37 13.72C203.019 13.8797 203.699 13.8659 204.34 13.68C204.64 13.58 204.88 13.46 205.09 13.3C205.29 13.14 205.44 12.96 205.55 12.76C205.66 12.56 205.71 12.35 205.71 12.13C205.719 11.9293 205.667 11.7306 205.56 11.56C205.465 11.4157 205.334 11.2986 205.18 11.22C205.007 11.1323 204.822 11.0716 204.63 11.04C204.212 10.984 203.792 10.9473 203.37 10.93L202.82 10.88C202.687 10.8599 202.558 10.8159 202.44 10.75C202.393 10.7212 202.353 10.68 202.327 10.6307C202.3 10.5814 202.288 10.5259 202.29 10.47C202.29 10.39 202.32 10.32 202.38 10.25C202.446 10.1627 202.528 10.0881 202.62 10.03C203.09 10.1561 203.586 10.1457 204.05 10C204.28 9.92001 204.48 9.81001 204.65 9.67001C204.822 9.5238 204.959 9.34103 205.05 9.13511C205.142 8.92919 205.187 8.70535 205.18 8.48001C205.18 8.21001 205.13 7.97001 205.01 7.75001L205.59 7.68001C205.73 7.65001 205.8 7.58001 205.8 7.47001ZM199.63 8.91001C199.63 8.71001 199.6 8.52002 199.54 8.35002C199.49 8.18676 199.404 8.03628 199.29 7.90866C199.177 7.78103 199.037 7.67921 198.88 7.61001C198.72 7.54001 198.54 7.51002 198.34 7.51002C197.91 7.51002 197.57 7.63001 197.32 7.88001C197.07 8.13001 196.92 8.48001 196.86 8.91001H199.63ZM200.35 11.29C200.25 11.42 200.11 11.54 199.95 11.64C199.634 11.8311 199.285 11.9601 198.92 12.02C198.73 12.05 198.55 12.07 198.37 12.07C198.02 12.07 197.69 12.01 197.4 11.89C197.101 11.7688 196.832 11.5833 196.613 11.3465C196.393 11.1097 196.229 10.8276 196.13 10.52C195.895 9.82378 195.888 9.07052 196.11 8.37001C196.22 8.07001 196.38 7.80001 196.58 7.58001C196.78 7.35001 197.03 7.18002 197.33 7.05001C197.912 6.7976 198.569 6.78324 199.16 7.01002C199.416 7.1135 199.646 7.26931 199.837 7.46739C200.029 7.66546 200.176 7.90141 200.27 8.16001C200.37 8.44001 200.43 8.76001 200.43 9.12001C200.43 9.26001 200.42 9.35001 200.39 9.40001C200.36 9.45001 200.3 9.47002 200.22 9.47002H196.83C196.84 9.79002 196.88 10.07 196.96 10.3C197.04 10.54 197.16 10.74 197.29 10.9C197.43 11.06 197.59 11.18 197.79 11.26C197.99 11.33 198.2 11.37 198.44 11.37C198.789 11.3814 199.135 11.2985 199.44 11.13L199.73 10.96C199.789 10.9156 199.858 10.8879 199.93 10.88C199.963 10.8784 199.996 10.8849 200.025 10.8988C200.055 10.9128 200.081 10.9338 200.1 10.96L200.35 11.29ZM194.78 12V4.83001H193.93V10.14L193.95 10.39L189.81 5.00001C189.786 4.97104 189.759 4.94427 189.73 4.92001C189.71 4.89927 189.687 4.88233 189.66 4.87001C189.6 4.84487 189.536 4.8313 189.47 4.83001H188.97V12H189.82V6.90001C189.82 6.73981 189.813 6.57969 189.8 6.42001L193.95 11.82C194 11.89 194.05 11.93 194.1 11.96C194.163 11.9904 194.231 12.0042 194.3 12H194.78ZM317.4 8.14002C317.263 7.94287 317.077 7.78445 316.86 7.68001C316.658 7.58183 316.435 7.53381 316.21 7.54001C315.74 7.54001 315.38 7.71001 315.12 8.04001C314.842 8.47038 314.709 8.97851 314.74 9.49001C314.74 9.82001 314.77 10.09 314.83 10.34C314.89 10.57 314.97 10.76 315.08 10.91C315.18 11.06 315.32 11.18 315.48 11.24C315.64 11.31 315.83 11.35 316.03 11.35C316.33 11.35 316.58 11.28 316.79 11.15C317.01 11.02 317.22 10.83 317.39 10.59V8.14002H317.4ZM318.29 4.64001V12H317.76C317.63 12 317.56 11.94 317.52 11.81L317.44 11.2C317.22 11.46 316.98 11.67 316.7 11.83C316.42 11.99 316.1 12.07 315.74 12.07C315.471 12.0811 315.203 12.0269 314.959 11.912C314.716 11.7971 314.503 11.6248 314.34 11.41C314.18 11.19 314.04 10.92 313.96 10.6C313.776 9.89479 313.779 9.15349 313.97 8.45001C314.07 8.12001 314.22 7.85001 314.4 7.61001C314.59 7.36781 314.833 7.17303 315.111 7.04112C315.388 6.9092 315.693 6.84377 316 6.85001C316.263 6.84035 316.524 6.88816 316.766 6.99007C317.008 7.09199 317.224 7.24556 317.4 7.44001V4.64001H318.29ZM312.12 8.35002C312.18 8.52002 312.21 8.71001 312.21 8.91001H309.44C309.5 8.47001 309.64 8.13001 309.9 7.88001C310.15 7.63001 310.48 7.51002 310.91 7.51002C311.11 7.51002 311.3 7.54001 311.46 7.61001C311.617 7.67453 311.755 7.77776 311.86 7.91001C311.97 8.03001 312.06 8.18002 312.12 8.35002ZM312.53 11.64C312.68 11.54 312.82 11.42 312.93 11.29L312.68 10.97C312.662 10.9419 312.637 10.919 312.607 10.9032C312.577 10.8875 312.544 10.8795 312.51 10.88C312.438 10.8879 312.369 10.9156 312.31 10.96C312.084 11.0984 311.843 11.2091 311.59 11.29C311.43 11.35 311.24 11.37 311.02 11.37C310.78 11.37 310.56 11.33 310.37 11.26C310.17 11.18 310.01 11.06 309.87 10.9C309.722 10.7238 309.61 10.5199 309.54 10.3C309.459 10.0308 309.415 9.75139 309.41 9.47002H312.79C312.87 9.47002 312.93 9.45001 312.96 9.40001C312.99 9.35001 313.01 9.26001 313.01 9.12001C313.01 8.76001 312.95 8.44001 312.85 8.16001C312.707 7.76137 312.439 7.41961 312.086 7.18543C311.733 6.95125 311.314 6.83713 310.89 6.86001C310.52 6.86001 310.19 6.92001 309.9 7.05001C309.616 7.16746 309.363 7.34882 309.16 7.58001C308.96 7.80001 308.8 8.07001 308.69 8.38001C308.468 9.08052 308.475 9.83378 308.71 10.53C308.808 10.8366 308.971 11.1181 309.188 11.3548C309.406 11.5915 309.673 11.7776 309.97 11.9C310.27 12.01 310.59 12.07 310.94 12.07C311.503 12.0715 312.055 11.9231 312.54 11.64H312.53ZM307.44 7.77001C307.423 7.80488 307.396 7.83387 307.362 7.85342C307.328 7.87296 307.289 7.88221 307.25 7.88001C307.193 7.87354 307.138 7.85293 307.09 7.82001C306.912 7.72116 306.725 7.64074 306.53 7.58001C306.25 7.49608 305.951 7.49608 305.67 7.58001C305.559 7.61112 305.454 7.66192 305.36 7.73001C305.279 7.78944 305.212 7.86772 305.167 7.95823C305.122 8.04874 305.099 8.14883 305.1 8.25001C305.1 8.38001 305.14 8.49001 305.21 8.58001C305.29 8.67001 305.39 8.74002 305.51 8.80001C305.63 8.87002 305.77 8.92001 305.93 8.97002C306.255 9.06853 306.576 9.18199 306.89 9.31002C307.05 9.38002 307.19 9.46002 307.32 9.56002C307.451 9.6676 307.555 9.80387 307.625 9.95824C307.694 10.1126 307.727 10.2809 307.72 10.45C307.72 10.68 307.68 10.9 307.6 11.1C307.52 11.3 307.4 11.47 307.23 11.62C307.054 11.771 306.85 11.8864 306.63 11.96C306.39 12.04 306.12 12.08 305.81 12.08C305.189 12.0933 304.586 11.8719 304.12 11.46L304.33 11.12C304.355 11.0792 304.39 11.0449 304.43 11.02C304.47 10.9989 304.515 10.9885 304.56 10.99C304.62 10.99 304.69 11.01 304.76 11.06C304.938 11.1968 305.137 11.3017 305.35 11.37C305.48 11.42 305.65 11.44 305.85 11.44C306.03 11.44 306.18 11.42 306.31 11.38C306.428 11.3373 306.537 11.2728 306.63 11.19C306.709 11.1154 306.772 11.0254 306.815 10.9257C306.858 10.826 306.88 10.7186 306.88 10.61C306.891 10.485 306.856 10.3604 306.78 10.26C306.698 10.1625 306.596 10.084 306.48 10.03C306.344 9.95468 306.2 9.89433 306.05 9.85002L305.57 9.70001C305.408 9.64626 305.248 9.58622 305.09 9.52002C304.93 9.45002 304.79 9.36001 304.66 9.26002C304.54 9.16002 304.44 9.03001 304.36 8.88001C304.286 8.70321 304.251 8.51182 304.26 8.32001C304.26 8.12601 304.301 7.93418 304.383 7.75797C304.464 7.58177 304.582 7.42546 304.73 7.30001C304.88 7.16001 305.07 7.05001 305.29 6.97001C305.51 6.89001 305.77 6.85001 306.05 6.85001C306.636 6.84658 307.203 7.06034 307.64 7.45001L307.44 7.77001ZM301.95 7.04001C301.309 6.77985 300.592 6.77985 299.95 7.04001C299.655 7.15792 299.389 7.34029 299.173 7.57383C298.957 7.80737 298.795 8.0862 298.7 8.39002C298.585 8.73488 298.528 9.09642 298.53 9.46001C298.53 9.86001 298.59 10.22 298.7 10.54C298.795 10.8438 298.957 11.1227 299.173 11.3562C299.389 11.5897 299.655 11.7721 299.95 11.89C300.25 12.01 300.58 12.07 300.95 12.07C301.32 12.07 301.65 12.01 301.95 11.89C302.244 11.7709 302.508 11.588 302.722 11.3545C302.937 11.121 303.097 10.8428 303.19 10.54C303.3 10.23 303.36 9.86001 303.36 9.46001C303.36 9.06001 303.3 8.71002 303.19 8.39002C303.097 8.0872 302.937 7.809 302.722 7.57553C302.508 7.34206 302.244 7.15914 301.95 7.04001ZM302.07 10.87C301.82 11.21 301.45 11.37 300.95 11.37C300.45 11.37 300.07 11.21 299.82 10.87C299.57 10.54 299.45 10.07 299.45 9.47002C299.45 9.17001 299.48 8.90001 299.54 8.67001C299.6 8.42001 299.69 8.22002 299.82 8.06002C299.94 7.90002 300.1 7.77001 300.29 7.68001C300.48 7.60001 300.69 7.55001 300.95 7.55001C301.45 7.55001 301.82 7.72002 302.07 8.06002C302.32 8.40002 302.44 8.86001 302.44 9.47002C302.44 10.07 302.32 10.54 302.07 10.87ZM297.37 4.64001V12H296.48V4.64001H297.38H297.37ZM295.15 10.58C295.133 10.5604 295.111 10.5448 295.087 10.5345C295.063 10.5241 295.037 10.5192 295.01 10.52C294.947 10.5219 294.887 10.5468 294.84 10.59C294.624 10.8163 294.357 10.9877 294.06 11.09C293.92 11.14 293.76 11.19 293.59 11.21C293.42 11.23 293.23 11.24 293.01 11.24C292.66 11.24 292.34 11.18 292.03 11.05C291.73 10.93 291.47 10.75 291.25 10.5C291.018 10.2403 290.838 9.93811 290.72 9.61001C290.589 9.22727 290.525 8.82467 290.53 8.42001C290.53 7.98001 290.59 7.58001 290.72 7.23001C290.84 6.88001 291.02 6.59001 291.23 6.34001C291.464 6.09671 291.745 5.90445 292.057 5.77537C292.368 5.64628 292.703 5.58317 293.04 5.59001C293.633 5.57714 294.212 5.76773 294.68 6.13001C294.77 6.19001 294.84 6.23001 294.9 6.23001C294.96 6.23001 295 6.21001 295.03 6.19001C295.062 6.1693 295.09 6.14203 295.11 6.11001L295.43 5.66001C294.784 5.06237 293.931 4.73961 293.05 4.76002C292.53 4.76002 292.05 4.84001 291.62 5.02001C291.199 5.19071 290.818 5.44937 290.504 5.77872C290.191 6.10808 289.951 6.50057 289.8 6.93001C289.447 7.88788 289.444 8.9398 289.79 9.90001C289.93 10.3258 290.159 10.7167 290.463 11.0462C290.767 11.3757 291.137 11.6362 291.55 11.81C291.97 11.99 292.44 12.08 292.95 12.08C293.55 12.08 294.05 11.98 294.47 11.79C294.88 11.6072 295.245 11.3377 295.54 11L295.15 10.58Z" fill="#92999E"/>
</g>
<defs>
<linearGradient id="paint0_linear_2220_3101" x1="160" y1="33.8" x2="160" y2="167.2" gradientUnits="userSpaceOnUse">
<stop stop-color="#B7BCBF" stop-opacity="0.8"/>
<stop offset="1" stop-color="#B7BCBF"/>
</linearGradient>
<clipPath id="clip0_2220_3101">
<rect width="320" height="200" fill="white"/>
</clipPath>
</defs>
</svg>
