<svg xmlns="http://www.w3.org/2000/svg" width="320" height="200" fill="none"><path fill="url(#a)" fill-rule="evenodd" d="M44 116c0 32.37 13.26 61.64 34.64 82.68l19.76-19.84a88 88 0 1 1 142.47-97.6l24.42 6.55-17.89 17.88a87.73 87.73 0 0 1-25.8 73.17l19.76 19.84A115.65 115.65 0 0 0 276 116C276 51.94 224.06 0 160 0S44 51.94 44 116Z" clip-rule="evenodd"/><path fill="#071722" fill-opacity=".05" fill-rule="evenodd" d="M160 28V0C95.94 0 44 51.94 44 116c0 32.37 13.26 61.64 34.64 82.68l19.76-19.84A88 88 0 0 1 160 28Z" clip-rule="evenodd"/><path fill="#071722" fill-opacity=".05" fill-rule="evenodd" d="M78.97 81.62 53.1 70.88A115.63 115.63 0 0 0 44 116c0 32.37 13.26 61.64 34.64 82.68l19.76-19.84A87.73 87.73 0 0 1 72 116c0-12.2 2.48-23.82 6.97-34.38Z" clip-rule="evenodd"/><path fill="#071722" fill-opacity=".14" d="m259.49 89.34-12.25 12.25-4.48-16.73 16.73 4.48Z"/><path fill="url(#b)" fill-opacity=".1" d="M178.66 121.75a7.4 7.4 0 0 0 2.56-.4 5.3 5.3 0 0 0 1.85-1.18c.51-.5.9-1.09 1.15-1.78.26-.69.39-1.43.39-2.23 0-1.9-.53-3.34-1.59-4.32-1.05-.98-2.5-1.46-4.37-1.46-1.85 0-3.3.48-4.36 1.46-1.06.98-1.59 2.42-1.59 4.32 0 .8.13 1.54.39 2.23a4.89 4.89 0 0 0 3 2.95c.73.28 1.59.41 2.56.41Zm0-26.37a5.8 5.8 0 0 0-2.28.4 4.42 4.42 0 0 0-2.54 2.66c-.2.6-.3 1.22-.3 1.88 0 .69.08 1.36.24 2.02a4.33 4.33 0 0 0 2.45 2.93c.66.3 1.46.45 2.42.45.97 0 1.77-.15 2.43-.46a4.2 4.2 0 0 0 2.42-2.92c.18-.66.27-1.33.27-2.02 0-.66-.1-1.28-.31-1.87a4.42 4.42 0 0 0-2.53-2.67 5.8 5.8 0 0 0-2.28-.4Zm5.85 12.52c2.11.7 3.67 1.75 4.68 3.17a8.75 8.75 0 0 1 1.51 5.19 9.8 9.8 0 0 1-.88 4.17 9.03 9.03 0 0 1-2.45 3.2 11.3 11.3 0 0 1-3.82 2.03c-1.47.48-3.1.72-4.9.72-1.79 0-3.43-.24-4.91-.72a11.34 11.34 0 0 1-3.8-2.04 9.29 9.29 0 0 1-2.47-3.19 9.85 9.85 0 0 1-.86-4.17c0-2.05.5-3.78 1.5-5.19a8.98 8.98 0 0 1 4.69-3.17 8.12 8.12 0 0 1-3.8-3 8.48 8.48 0 0 1-1.24-4.68 8.6 8.6 0 0 1 3.05-6.62c.96-.85 2.1-1.5 3.43-1.97 1.34-.48 2.81-.72 4.41-.72s3.07.24 4.4.72c1.34.47 2.5 1.12 3.45 1.97a8.75 8.75 0 0 1 3.05 6.62c0 1.83-.42 3.39-1.27 4.68a7.97 7.97 0 0 1-3.77 3Z"/><path fill="url(#c)" fill-opacity=".1" d="M156.37 122.74c0-.5.09-.97.26-1.42a3.63 3.63 0 0 1 1.92-1.92 3.62 3.62 0 0 1 2.86 0 3.63 3.63 0 0 1 1.94 4.78 3.5 3.5 0 0 1-1.94 1.87 3.62 3.62 0 0 1-2.86 0 3.33 3.33 0 0 1-1.15-.75 3.7 3.7 0 0 1-.77-1.12 3.9 3.9 0 0 1-.26-1.44Z"/><path fill="url(#d)" fill-opacity=".1" d="M130.01 100.97c.24-1.67.7-3.12 1.4-4.37a10.4 10.4 0 0 1 6.12-5.04c1.34-.43 2.78-.65 4.31-.65 1.6 0 3.04.23 4.32.7a9.6 9.6 0 0 1 3.32 1.9 8.4 8.4 0 0 1 2.83 6.36c0 1.1-.13 2.07-.38 2.92a6.3 6.3 0 0 1-2.78 3.77c-.7.43-1.47.8-2.34 1.08a9.06 9.06 0 0 1 4.66 3 8.11 8.11 0 0 1 1.53 5.06 9.97 9.97 0 0 1-3.55 7.94 11.4 11.4 0 0 1-3.79 2.05c-1.42.46-2.94.7-4.53.7-1.75 0-3.27-.2-4.56-.6a9.9 9.9 0 0 1-5.84-4.66 19.44 19.44 0 0 1-1.72-3.94l2.61-1.08a3.04 3.04 0 0 1 1.92-.21c.6.12 1.05.44 1.32.96.29.56.6 1.1.94 1.65a6.31 6.31 0 0 0 2.93 2.5 6.4 6.4 0 0 0 2.32.38c1.01 0 1.9-.16 2.64-.48a5.74 5.74 0 0 0 3-3.05c.26-.65.39-1.3.39-1.96 0-.84-.1-1.59-.27-2.26a3.36 3.36 0 0 0-1.1-1.75 6 6 0 0 0-2.43-1.13c-1.03-.27-2.44-.4-4.2-.4v-4.23a15 15 0 0 0 3.63-.41c.96-.26 1.72-.6 2.28-1.06.57-.46.97-1.01 1.2-1.65.22-.64.34-1.35.34-2.11 0-1.64-.46-2.88-1.37-3.72a5.14 5.14 0 0 0-3.65-1.28 5.83 5.83 0 0 0-3.55 1.16 5.13 5.13 0 0 0-1.9 2.83c-.27.73-.63 1.22-1.08 1.46-.43.24-1.05.3-1.85.17l-3.12-.55Z"/><defs><linearGradient id="a" x1="160" x2="160" y1="7.95" y2="190.74" gradientUnits="userSpaceOnUse"><stop stop-color="#FAFAFB"/><stop offset="1" stop-color="#F3F3F4"/></linearGradient><linearGradient id="b" x1="178.66" x2="178.66" y1="90.91" y2="126.38" gradientUnits="userSpaceOnUse"><stop stop-color="#2F3C45" stop-opacity=".5"/><stop offset="1" stop-color="#2F3C45"/></linearGradient><linearGradient id="c" x1="160" x2="160" y1="119.11" y2="126.34" gradientUnits="userSpaceOnUse"><stop stop-color="#2F3C45" stop-opacity=".5"/><stop offset="1" stop-color="#2F3C45"/></linearGradient><linearGradient id="d" x1="141" x2="141" y1="90.91" y2="126.38" gradientUnits="userSpaceOnUse"><stop stop-color="#2F3C45" stop-opacity=".5"/><stop offset="1" stop-color="#2F3C45"/></linearGradient></defs></svg>