<svg width="320" height="200" viewBox="0 0 320 200" fill="none" xmlns="http://www.w3.org/2000/svg">
<path fill-rule="evenodd" clip-rule="evenodd" d="M44 116C44 148.37 57.26 177.64 78.64 198.68L98.4 178.84C89.1255 169.737 81.9822 158.693 77.4833 146.501C72.9844 134.309 71.2416 121.273 72.38 108.327C73.5185 95.3817 77.51 82.8491 84.0677 71.6296C90.6255 60.4102 99.5867 50.7824 110.308 43.4379C121.029 36.0934 133.243 31.2146 146.074 29.1519C158.904 27.0892 172.033 27.8938 184.515 31.508C196.998 35.1222 208.525 41.4561 218.269 50.0549C228.013 58.6536 235.731 69.3037 240.87 81.24L265.29 87.79L247.4 105.67C248.998 119.028 247.502 132.574 243.028 145.262C238.554 157.95 231.223 169.438 221.6 178.84L241.36 198.68C252.346 187.897 261.068 175.03 267.017 160.833C272.965 146.635 276.019 131.393 276 116C276 51.94 224.06 0 160 0C95.94 0 44 51.94 44 116Z" fill="#B7BCBF" fill-opacity="0.2"/>
<path fill-rule="evenodd" clip-rule="evenodd" d="M160 28V0C95.94 0 44 51.94 44 116C44 148.37 57.26 177.64 78.64 198.68L98.4 178.84C85.9186 166.604 77.3637 150.928 73.826 133.811C70.2883 116.694 71.9281 98.9114 78.5362 82.7299C85.1444 66.5485 96.4216 52.7015 110.93 42.9542C125.439 33.2069 142.521 28.0009 160 28Z" fill="#B7BCBF" fill-opacity="0.2"/>
<path fill-rule="evenodd" clip-rule="evenodd" d="M78.9701 81.62L53.1001 70.88C47.0737 85.1582 43.9791 100.502 44.0001 116C44.0001 148.37 57.2601 177.64 78.6401 198.68L98.4001 178.84C90.0298 170.657 83.3818 160.881 78.8479 150.089C74.3139 139.296 71.9856 127.706 72.0001 116C72.0001 103.8 74.4801 92.18 78.9701 81.62Z" fill="#B7BCBF" fill-opacity="0.3"/>
<path d="M259.49 89.34L247.24 101.59L242.76 84.86L259.49 89.34Z" fill="#B7BCBF" fill-opacity="0.5"/>
<path d="M178.66 121.75C179.531 121.768 180.397 121.633 181.22 121.35C181.913 121.09 182.543 120.688 183.07 120.17C183.58 119.67 183.97 119.08 184.22 118.39C184.48 117.7 184.61 116.96 184.61 116.16C184.61 114.26 184.08 112.82 183.02 111.84C181.97 110.86 180.52 110.38 178.65 110.38C176.8 110.38 175.35 110.86 174.29 111.84C173.23 112.82 172.7 114.26 172.7 116.16C172.7 116.96 172.83 117.7 173.09 118.39C173.339 119.074 173.738 119.694 174.257 120.204C174.776 120.715 175.402 121.103 176.09 121.34C176.82 121.62 177.68 121.75 178.65 121.75H178.66ZM178.66 95.38C177.881 95.3588 177.106 95.4948 176.38 95.78C175.791 96.0151 175.259 96.3743 174.821 96.8333C174.382 97.2923 174.048 97.8403 173.84 98.44C173.64 99.04 173.54 99.66 173.54 100.32C173.54 101.01 173.62 101.68 173.78 102.34C173.938 102.983 174.24 103.582 174.665 104.09C175.09 104.598 175.625 105.001 176.23 105.27C176.89 105.57 177.69 105.72 178.65 105.72C179.62 105.72 180.42 105.57 181.08 105.26C181.685 104.997 182.218 104.596 182.639 104.089C183.059 103.581 183.354 102.982 183.5 102.34C183.68 101.68 183.77 101.01 183.77 100.32C183.77 99.66 183.67 99.04 183.46 98.45C183.255 97.8494 182.923 97.3001 182.486 96.8393C182.05 96.3786 181.519 96.0173 180.93 95.78C180.205 95.4948 179.43 95.3588 178.65 95.38H178.66ZM184.51 107.9C186.62 108.6 188.18 109.65 189.19 111.07C190.229 112.597 190.757 114.414 190.7 116.26C190.717 117.698 190.416 119.121 189.82 120.43C189.255 121.668 188.418 122.762 187.37 123.63C186.24 124.546 184.943 125.236 183.55 125.66C182.08 126.14 180.45 126.38 178.65 126.38C176.86 126.38 175.22 126.14 173.74 125.66C172.355 125.229 171.065 124.537 169.94 123.62C168.893 122.75 168.05 121.661 167.47 120.43C166.883 119.119 166.59 117.696 166.61 116.26C166.61 114.21 167.11 112.48 168.11 111.07C169.291 109.535 170.936 108.423 172.8 107.9C171.258 107.31 169.933 106.263 169 104.9C168.141 103.494 167.71 101.867 167.76 100.22C167.753 98.9606 168.022 97.7148 168.549 96.5709C169.076 95.427 169.848 94.4128 170.81 93.6C171.77 92.75 172.91 92.1 174.24 91.63C175.58 91.15 177.05 90.91 178.65 90.91C180.25 90.91 181.72 91.15 183.05 91.63C184.39 92.1 185.55 92.75 186.5 93.6C187.455 94.4194 188.221 95.4349 188.748 96.5773C189.274 97.7197 189.548 98.9622 189.55 100.22C189.55 102.05 189.13 103.61 188.28 104.9C187.363 106.265 186.046 107.313 184.51 107.9Z" fill="url(#paint0_linear_2227_3480)" fill-opacity="0.3"/>
<path d="M156.37 122.74C156.37 122.24 156.46 121.77 156.63 121.32C156.998 120.456 157.686 119.768 158.55 119.4C159.002 119.206 159.489 119.106 159.98 119.106C160.472 119.106 160.959 119.206 161.41 119.4C161.853 119.585 162.255 119.855 162.592 120.196C162.93 120.537 163.197 120.941 163.377 121.385C163.558 121.83 163.648 122.306 163.643 122.785C163.639 123.265 163.539 123.739 163.35 124.18C163.167 124.604 162.9 124.988 162.567 125.309C162.235 125.63 161.841 125.882 161.41 126.05C160.959 126.244 160.472 126.344 159.98 126.344C159.489 126.344 159.002 126.244 158.55 126.05C158.119 125.883 157.727 125.627 157.4 125.3C157.077 124.977 156.816 124.598 156.63 124.18C156.454 123.721 156.365 123.232 156.37 122.74Z" fill="url(#paint1_linear_2227_3480)" fill-opacity="0.3"/>
<path d="M130.01 100.97C130.25 99.3 130.71 97.85 131.41 96.6C132.704 94.1779 134.904 92.3661 137.53 91.56C138.87 91.13 140.31 90.91 141.84 90.91C143.44 90.91 144.88 91.14 146.16 91.61C147.383 92.0142 148.512 92.6604 149.48 93.51C150.379 94.3063 151.096 95.286 151.585 96.3831C152.073 97.4802 152.32 98.6692 152.31 99.87C152.31 100.97 152.18 101.94 151.93 102.79C151.522 104.357 150.527 105.707 149.15 106.56C148.45 106.99 147.68 107.36 146.81 107.64C148.638 108.129 150.268 109.178 151.47 110.64C152.531 112.108 153.069 113.89 153 115.7C153.046 117.206 152.751 118.702 152.136 120.078C151.521 121.453 150.603 122.671 149.45 123.64C148.328 124.558 147.042 125.254 145.66 125.69C144.24 126.15 142.72 126.39 141.13 126.39C139.38 126.39 137.86 126.19 136.57 125.79C134.089 125.059 131.993 123.386 130.73 121.13C130.013 119.884 129.436 118.563 129.01 117.19L131.62 116.11C132.22 115.833 132.894 115.759 133.54 115.9C134.14 116.02 134.59 116.34 134.86 116.86C135.15 117.42 135.46 117.96 135.8 118.51C136.492 119.628 137.516 120.502 138.73 121.01C139.473 121.279 140.26 121.408 141.05 121.39C142.06 121.39 142.95 121.23 143.69 120.91C145.045 120.318 146.12 119.225 146.69 117.86C146.95 117.21 147.08 116.56 147.08 115.9C147.08 115.06 146.98 114.31 146.81 113.64C146.636 112.956 146.251 112.343 145.71 111.89C144.995 111.335 144.165 110.949 143.28 110.76C142.25 110.49 140.84 110.36 139.08 110.36V106.13C140.302 106.142 141.521 106.004 142.71 105.72C143.67 105.46 144.43 105.12 144.99 104.66C145.56 104.2 145.96 103.65 146.19 103.01C146.41 102.37 146.53 101.66 146.53 100.9C146.53 99.26 146.07 98.02 145.16 97.18C144.156 96.2944 142.847 95.8352 141.51 95.9C140.231 95.887 138.984 96.2945 137.96 97.06C137.022 97.7592 136.352 98.7577 136.06 99.89C135.79 100.62 135.43 101.11 134.98 101.35C134.55 101.59 133.93 101.65 133.13 101.52L130.01 100.97Z" fill="url(#paint2_linear_2227_3480)" fill-opacity="0.3"/>
<defs>
<linearGradient id="paint0_linear_2227_3480" x1="178.649" y1="90.91" x2="178.649" y2="126.37" gradientUnits="userSpaceOnUse">
<stop stop-color="#B7BCBF" stop-opacity="0.7"/>
<stop offset="1" stop-color="#B7BCBF"/>
</linearGradient>
<linearGradient id="paint1_linear_2227_3480" x1="160.004" y1="119.106" x2="160.004" y2="126.342" gradientUnits="userSpaceOnUse">
<stop stop-color="#B7BCBF" stop-opacity="0.7"/>
<stop offset="1" stop-color="#B7BCBF"/>
</linearGradient>
<linearGradient id="paint2_linear_2227_3480" x1="141" y1="90.91" x2="141" y2="126.38" gradientUnits="userSpaceOnUse">
<stop stop-color="#B7BCBF" stop-opacity="0.7"/>
<stop offset="1" stop-color="#B7BCBF"/>
</linearGradient>
</defs>
</svg>
