<svg width="320" height="200" viewBox="0 0 320 200" fill="none" xmlns="http://www.w3.org/2000/svg">
<g clip-path="url(#clip0_2226_1834)">
<mask id="mask0_2226_1834" style="mask-type:luminance" maskUnits="userSpaceOnUse" x="0" y="0" width="320" height="200">
<path d="M0 0H320V200H0V0Z" fill="white"/>
</mask>
<g mask="url(#mask0_2226_1834)">
<mask id="mask1_2226_1834" style="mask-type:luminance" maskUnits="userSpaceOnUse" x="33" y="175" width="322" height="1">
<path d="M33 175H355V176H33V175Z" fill="white"/>
</mask>
<g mask="url(#mask1_2226_1834)">
<path fill-rule="evenodd" clip-rule="evenodd" d="M34 176V175H33V176H34ZM130 176V175H129V176H130ZM226 175V176H225V175H226ZM37 176V175H36V176H37ZM133 175V176H132V175H133ZM229 176V175H228V176H229ZM40 175V176H39V175H40ZM136 176V175H135V176H136ZM232 175V176H231V175H232ZM43 176V175H42V176H43ZM139 175V176H138V175H139ZM235 176V175H234V176H235ZM46 175V176H45V175H46ZM142 176V175H141V176H142ZM238 175V176H237V175H238ZM49 176V175H48V176H49ZM145 175V176H144V175H145ZM241 176V175H240V176H241ZM52 175V176H51V175H52ZM148 176V175H147V176H148ZM244 175V176H243V175H244ZM55 176V175H54V176H55ZM151 175V176H150V175H151ZM247 176V175H246V176H247ZM58 175V176H57V175H58ZM154 176V175H153V176H154ZM250 175V176H249V175H250ZM61 176V175H60V176H61ZM157 175V176H156V175H157ZM253 176V175H252V176H253ZM64 175V176H63V175H64ZM160 176V175H159V176H160ZM256 175V176H255V175H256ZM67 176V175H66V176H67ZM163 175V176H162V175H163ZM259 176V175H258V176H259ZM70 175V176H69V175H70ZM166 176V175H165V176H166ZM262 175V176H261V175H262ZM73 176V175H72V176H73ZM169 175V176H168V175H169ZM265 176V175H264V176H265ZM76 175V176H75V175H76ZM172 176V175H171V176H172ZM268 175V176H267V175H268ZM79 176V175H78V176H79ZM175 175V176H174V175H175ZM271 176V175H270V176H271ZM82 175V176H81V175H82ZM178 176V175H177V176H178ZM274 175V176H273V175H274ZM85 176V175H84V176H85ZM181 175V176H180V175H181ZM277 176V175H276V176H277ZM88 175V176H87V175H88ZM184 176V175H183V176H184ZM280 175V176H279V175H280ZM91 176V175H90V176H91ZM187 175V176H186V175H187ZM283 176V175H282V176H283ZM322 175V176H321V175H322ZM94 176V175H93V176H94ZM190 175V176H189V175H190ZM286 176V175H285V176H286ZM325 175V176H324V175H325ZM97 176V175H96V176H97ZM193 175V176H192V175H193ZM289 176V175H288V176H289ZM328 175V176H327V175H328ZM100 176V175H99V176H100ZM196 175V176H195V175H196ZM292 176V175H291V176H292ZM331 175V176H330V175H331ZM103 176V175H102V176H103ZM199 175V176H198V175H199ZM295 176V175H294V176H295ZM334 175V176H333V175H334ZM106 176V175H105V176H106ZM202 175V176H201V175H202ZM298 176V175H297V176H298ZM337 175V176H336V175H337ZM109 176V175H108V176H109ZM205 175V176H204V175H205ZM301 176V175H300V176H301ZM340 175V176H339V175H340ZM112 176V175H111V176H112ZM208 175V176H207V175H208ZM304 176V175H303V176H304ZM343 175V176H342V175H343ZM115 176V175H114V176H115ZM211 175V176H210V175H211ZM307 176V175H306V176H307ZM346 175V176H345V175H346ZM118 176V175H117V176H118ZM214 175V176H213V175H214ZM310 176V175H309V176H310ZM349 175V176H348V175H349ZM121 176V175H120V176H121ZM217 175V176H216V175H217ZM313 176V175H312V176H313ZM352 175V176H351V175H352ZM124 176V175H123V176H124ZM220 175V176H219V175H220ZM316 176V175H315V176H316ZM355 175V176H354V175H355ZM127 176V175H126V176H127ZM223 175V176H222V175H223ZM319 176V175H318V176H319Z" fill="#92999E"/>
</g>
<mask id="mask2_2226_1834" style="mask-type:luminance" maskUnits="userSpaceOnUse" x="33" y="127" width="322" height="1">
<path d="M33 127H355V128H33V127Z" fill="white"/>
</mask>
<g mask="url(#mask2_2226_1834)">
<path fill-rule="evenodd" clip-rule="evenodd" d="M34 128V127H33V128H34ZM130 128V127H129V128H130ZM226 127V128H225V127H226ZM37 128V127H36V128H37ZM133 127V128H132V127H133ZM229 128V127H228V128H229ZM40 127V128H39V127H40ZM136 128V127H135V128H136ZM232 127V128H231V127H232ZM43 128V127H42V128H43ZM139 127V128H138V127H139ZM235 128V127H234V128H235ZM46 127V128H45V127H46ZM142 128V127H141V128H142ZM238 127V128H237V127H238ZM49 128V127H48V128H49ZM145 127V128H144V127H145ZM241 128V127H240V128H241ZM52 127V128H51V127H52ZM148 128V127H147V128H148ZM244 127V128H243V127H244ZM55 128V127H54V128H55ZM151 127V128H150V127H151ZM247 128V127H246V128H247ZM58 127V128H57V127H58ZM154 128V127H153V128H154ZM250 127V128H249V127H250ZM61 128V127H60V128H61ZM157 127V128H156V127H157ZM253 128V127H252V128H253ZM64 127V128H63V127H64ZM160 128V127H159V128H160ZM256 127V128H255V127H256ZM67 128V127H66V128H67ZM163 127V128H162V127H163ZM259 128V127H258V128H259ZM70 127V128H69V127H70ZM166 128V127H165V128H166ZM262 127V128H261V127H262ZM73 128V127H72V128H73ZM169 127V128H168V127H169ZM265 128V127H264V128H265ZM76 127V128H75V127H76ZM172 128V127H171V128H172ZM268 127V128H267V127H268ZM79 128V127H78V128H79ZM175 127V128H174V127H175ZM271 128V127H270V128H271ZM82 127V128H81V127H82ZM178 128V127H177V128H178ZM274 127V128H273V127H274ZM85 128V127H84V128H85ZM181 127V128H180V127H181ZM277 128V127H276V128H277ZM88 127V128H87V127H88ZM184 128V127H183V128H184ZM280 127V128H279V127H280ZM91 128V127H90V128H91ZM187 127V128H186V127H187ZM283 128V127H282V128H283ZM322 127V128H321V127H322ZM94 128V127H93V128H94ZM190 127V128H189V127H190ZM286 128V127H285V128H286ZM325 127V128H324V127H325ZM97 128V127H96V128H97ZM193 127V128H192V127H193ZM289 128V127H288V128H289ZM328 127V128H327V127H328ZM100 128V127H99V128H100ZM196 127V128H195V127H196ZM292 128V127H291V128H292ZM331 127V128H330V127H331ZM103 128V127H102V128H103ZM199 127V128H198V127H199ZM295 128V127H294V128H295ZM334 127V128H333V127H334ZM106 128V127H105V128H106ZM202 127V128H201V127H202ZM298 128V127H297V128H298ZM337 127V128H336V127H337ZM109 128V127H108V128H109ZM205 127V128H204V127H205ZM301 128V127H300V128H301ZM340 127V128H339V127H340ZM112 128V127H111V128H112ZM208 127V128H207V127H208ZM304 128V127H303V128H304ZM343 127V128H342V127H343ZM115 128V127H114V128H115ZM211 127V128H210V127H211ZM307 128V127H306V128H307ZM346 127V128H345V127H346ZM118 128V127H117V128H118ZM214 127V128H213V127H214ZM310 128V127H309V128H310ZM349 127V128H348V127H349ZM121 128V127H120V128H121ZM217 127V128H216V127H217ZM313 128V127H312V128H313ZM352 127V128H351V127H352ZM124 128V127H123V128H124ZM220 127V128H219V127H220ZM316 128V127H315V128H316ZM355 127V128H354V127H355ZM127 128V127H126V128H127ZM223 127V128H222V127H223ZM319 128V127H318V128H319Z" fill="#A6ADB0" fill-opacity="0.4"/>
</g>
<mask id="mask3_2226_1834" style="mask-type:luminance" maskUnits="userSpaceOnUse" x="33" y="88" width="322" height="1">
<path d="M33 88H355V89H33V88Z" fill="white"/>
</mask>
<g mask="url(#mask3_2226_1834)">
<path fill-rule="evenodd" clip-rule="evenodd" d="M34 89V88H33V89H34ZM130 89V88H129V89H130ZM226 88V89H225V88H226ZM37 89V88H36V89H37ZM133 88V89H132V88H133ZM229 89V88H228V89H229ZM40 88V89H39V88H40ZM136 89V88H135V89H136ZM232 88V89H231V88H232ZM43 89V88H42V89H43ZM139 88V89H138V88H139ZM235 89V88H234V89H235ZM46 88V89H45V88H46ZM142 89V88H141V89H142ZM238 88V89H237V88H238ZM49 89V88H48V89H49ZM145 88V89H144V88H145ZM241 89V88H240V89H241ZM52 88V89H51V88H52ZM148 89V88H147V89H148ZM244 88V89H243V88H244ZM55 89V88H54V89H55ZM151 88V89H150V88H151ZM247 89V88H246V89H247ZM58 88V89H57V88H58ZM154 89V88H153V89H154ZM250 88V89H249V88H250ZM61 89V88H60V89H61ZM157 88V89H156V88H157ZM253 89V88H252V89H253ZM64 88V89H63V88H64ZM160 89V88H159V89H160ZM256 88V89H255V88H256ZM67 89V88H66V89H67ZM163 88V89H162V88H163ZM259 89V88H258V89H259ZM70 88V89H69V88H70ZM166 89V88H165V89H166ZM262 88V89H261V88H262ZM73 89V88H72V89H73ZM169 88V89H168V88H169ZM265 89V88H264V89H265ZM76 88V89H75V88H76ZM172 89V88H171V89H172ZM268 88V89H267V88H268ZM79 89V88H78V89H79ZM175 88V89H174V88H175ZM271 89V88H270V89H271ZM82 88V89H81V88H82ZM178 89V88H177V89H178ZM274 88V89H273V88H274ZM85 89V88H84V89H85ZM181 88V89H180V88H181ZM277 89V88H276V89H277ZM88 88V89H87V88H88ZM184 89V88H183V89H184ZM280 88V89H279V88H280ZM91 89V88H90V89H91ZM187 88V89H186V88H187ZM283 89V88H282V89H283ZM322 88V89H321V88H322ZM94 89V88H93V89H94ZM190 88V89H189V88H190ZM286 89V88H285V89H286ZM325 88V89H324V88H325ZM97 89V88H96V89H97ZM193 88V89H192V88H193ZM289 89V88H288V89H289ZM328 88V89H327V88H328ZM100 89V88H99V89H100ZM196 88V89H195V88H196ZM292 89V88H291V89H292ZM331 88V89H330V88H331ZM103 89V88H102V89H103ZM199 88V89H198V88H199ZM295 89V88H294V89H295ZM334 88V89H333V88H334ZM106 89V88H105V89H106ZM202 88V89H201V88H202ZM298 89V88H297V89H298ZM337 88V89H336V88H337ZM109 89V88H108V89H109ZM205 88V89H204V88H205ZM301 89V88H300V89H301ZM340 88V89H339V88H340ZM112 89V88H111V89H112ZM208 88V89H207V88H208ZM304 89V88H303V89H304ZM343 88V89H342V88H343ZM115 89V88H114V89H115ZM211 88V89H210V88H211ZM307 89V88H306V89H307ZM346 88V89H345V88H346ZM118 89V88H117V89H118ZM214 88V89H213V88H214ZM310 89V88H309V89H310ZM349 88V89H348V88H349ZM121 89V88H120V89H121ZM217 88V89H216V88H217ZM313 89V88H312V89H313ZM352 88V89H351V88H352ZM124 89V88H123V89H124ZM220 88V89H219V88H220ZM316 89V88H315V89H316ZM355 88V89H354V88H355ZM127 89V88H126V89H127ZM223 88V89H222V88H223ZM319 89V88H318V89H319Z" fill="#A6ADB0" fill-opacity="0.4"/>
</g>
<mask id="mask4_2226_1834" style="mask-type:luminance" maskUnits="userSpaceOnUse" x="33" y="48" width="322" height="1">
<path d="M33 48H355V49H33V48Z" fill="white"/>
</mask>
<g mask="url(#mask4_2226_1834)">
<path fill-rule="evenodd" clip-rule="evenodd" d="M34 49V48H33V49H34ZM130 49V48H129V49H130ZM226 48V49H225V48H226ZM37 49V48H36V49H37ZM133 48V49H132V48H133ZM229 49V48H228V49H229ZM40 48V49H39V48H40ZM136 49V48H135V49H136ZM232 48V49H231V48H232ZM43 49V48H42V49H43ZM139 48V49H138V48H139ZM235 49V48H234V49H235ZM46 48V49H45V48H46ZM142 49V48H141V49H142ZM238 48V49H237V48H238ZM49 49V48H48V49H49ZM145 48V49H144V48H145ZM241 49V48H240V49H241ZM52 48V49H51V48H52ZM148 49V48H147V49H148ZM244 48V49H243V48H244ZM55 49V48H54V49H55ZM151 48V49H150V48H151ZM247 49V48H246V49H247ZM58 48V49H57V48H58ZM154 49V48H153V49H154ZM250 48V49H249V48H250ZM61 49V48H60V49H61ZM157 48V49H156V48H157ZM253 49V48H252V49H253ZM64 48V49H63V48H64ZM160 49V48H159V49H160ZM256 48V49H255V48H256ZM67 49V48H66V49H67ZM163 48V49H162V48H163ZM259 49V48H258V49H259ZM70 48V49H69V48H70ZM166 49V48H165V49H166ZM262 48V49H261V48H262ZM73 49V48H72V49H73ZM169 48V49H168V48H169ZM265 49V48H264V49H265ZM76 48V49H75V48H76ZM172 49V48H171V49H172ZM268 48V49H267V48H268ZM79 49V48H78V49H79ZM175 48V49H174V48H175ZM271 49V48H270V49H271ZM82 48V49H81V48H82ZM178 49V48H177V49H178ZM274 48V49H273V48H274ZM85 49V48H84V49H85ZM181 48V49H180V48H181ZM277 49V48H276V49H277ZM88 48V49H87V48H88ZM184 49V48H183V49H184ZM280 48V49H279V48H280ZM91 49V48H90V49H91ZM187 48V49H186V48H187ZM283 49V48H282V49H283ZM322 48V49H321V48H322ZM94 49V48H93V49H94ZM190 48V49H189V48H190ZM286 49V48H285V49H286ZM325 48V49H324V48H325ZM97 49V48H96V49H97ZM193 48V49H192V48H193ZM289 49V48H288V49H289ZM328 48V49H327V48H328ZM100 49V48H99V49H100ZM196 48V49H195V48H196ZM292 49V48H291V49H292ZM331 48V49H330V48H331ZM103 49V48H102V49H103ZM199 48V49H198V48H199ZM295 49V48H294V49H295ZM334 48V49H333V48H334ZM106 49V48H105V49H106ZM202 48V49H201V48H202ZM298 49V48H297V49H298ZM337 48V49H336V48H337ZM109 49V48H108V49H109ZM205 48V49H204V48H205ZM301 49V48H300V49H301ZM340 48V49H339V48H340ZM112 49V48H111V49H112ZM208 48V49H207V48H208ZM304 49V48H303V49H304ZM343 48V49H342V48H343ZM115 49V48H114V49H115ZM211 48V49H210V48H211ZM307 49V48H306V49H307ZM346 48V49H345V48H346ZM118 49V48H117V49H118ZM214 48V49H213V48H214ZM310 49V48H309V49H310ZM349 48V49H348V48H349ZM121 49V48H120V49H121ZM217 48V49H216V48H217ZM313 49V48H312V49H313ZM352 48V49H351V48H352ZM124 49V48H123V49H124ZM220 48V49H219V48H220ZM316 49V48H315V49H316ZM355 48V49H354V48H355ZM127 49V48H126V49H127ZM223 48V49H222V48H223ZM319 49V48H318V49H319Z" fill="#A6ADB0" fill-opacity="0.4"/>
</g>
<mask id="mask5_2226_1834" style="mask-type:luminance" maskUnits="userSpaceOnUse" x="33" y="7" width="322" height="1">
<path d="M33 7H355V8H33V7Z" fill="white"/>
</mask>
<g mask="url(#mask5_2226_1834)">
<path fill-rule="evenodd" clip-rule="evenodd" d="M34 8V7H33V8H34ZM130 8V7H129V8H130ZM226 7V8H225V7H226ZM37 8V7H36V8H37ZM133 7V8H132V7H133ZM229 8V7H228V8H229ZM40 7V8H39V7H40ZM136 8V7H135V8H136ZM232 7V8H231V7H232ZM43 8V7H42V8H43ZM139 7V8H138V7H139ZM235 8V7H234V8H235ZM46 7V8H45V7H46ZM142 8V7H141V8H142ZM238 7V8H237V7H238ZM49 8V7H48V8H49ZM145 7V8H144V7H145ZM241 8V7H240V8H241ZM52 7V8H51V7H52ZM148 8V7H147V8H148ZM244 7V8H243V7H244ZM55 8V7H54V8H55ZM151 7V8H150V7H151ZM247 8V7H246V8H247ZM58 7V8H57V7H58ZM154 8V7H153V8H154ZM250 7V8H249V7H250ZM61 8V7H60V8H61ZM157 7V8H156V7H157ZM253 8V7H252V8H253ZM64 7V8H63V7H64ZM160 8V7H159V8H160ZM256 7V8H255V7H256ZM67 8V7H66V8H67ZM163 7V8H162V7H163ZM259 8V7H258V8H259ZM70 7V8H69V7H70ZM166 8V7H165V8H166ZM262 7V8H261V7H262ZM73 8V7H72V8H73ZM169 7V8H168V7H169ZM265 8V7H264V8H265ZM76 7V8H75V7H76ZM172 8V7H171V8H172ZM268 7V8H267V7H268ZM79 8V7H78V8H79ZM175 7V8H174V7H175ZM271 8V7H270V8H271ZM82 7V8H81V7H82ZM178 8V7H177V8H178ZM274 7V8H273V7H274ZM85 8V7H84V8H85ZM181 7V8H180V7H181ZM277 8V7H276V8H277ZM88 7V8H87V7H88ZM184 8V7H183V8H184ZM280 7V8H279V7H280ZM91 8V7H90V8H91ZM187 7V8H186V7H187ZM283 8V7H282V8H283ZM322 7V8H321V7H322ZM94 8V7H93V8H94ZM190 7V8H189V7H190ZM286 8V7H285V8H286ZM325 7V8H324V7H325ZM97 8V7H96V8H97ZM193 7V8H192V7H193ZM289 8V7H288V8H289ZM328 7V8H327V7H328ZM100 8V7H99V8H100ZM196 7V8H195V7H196ZM292 8V7H291V8H292ZM331 7V8H330V7H331ZM103 8V7H102V8H103ZM199 7V8H198V7H199ZM295 8V7H294V8H295ZM334 7V8H333V7H334ZM106 8V7H105V8H106ZM202 7V8H201V7H202ZM298 8V7H297V8H298ZM337 7V8H336V7H337ZM109 8V7H108V8H109ZM205 7V8H204V7H205ZM301 8V7H300V8H301ZM340 7V8H339V7H340ZM112 8V7H111V8H112ZM208 7V8H207V7H208ZM304 8V7H303V8H304ZM343 7V8H342V7H343ZM115 8V7H114V8H115ZM211 7V8H210V7H211ZM307 8V7H306V8H307ZM346 7V8H345V7H346ZM118 8V7H117V8H118ZM214 7V8H213V7H214ZM310 8V7H309V8H310ZM349 7V8H348V7H349ZM121 8V7H120V8H121ZM217 7V8H216V7H217ZM313 8V7H312V8H313ZM352 7V8H351V7H352ZM124 8V7H123V8H124ZM220 7V8H219V7H220ZM316 8V7H315V8H316ZM355 7V8H354V7H355ZM127 8V7H126V8H127ZM223 7V8H222V7H223ZM319 8V7H318V8H319Z" fill="#A6ADB0" fill-opacity="0.4"/>
</g>
<mask id="mask6_2226_1834" style="mask-type:luminance" maskUnits="userSpaceOnUse" x="33" y="-146" width="1" height="322">
<path d="M33 176L33 -146H34L34 176H33Z" fill="white"/>
</mask>
<g mask="url(#mask6_2226_1834)">
<path fill-rule="evenodd" clip-rule="evenodd" d="M34 175H33V176H34V175ZM34 79H33V80H34V79ZM33 -17H34V-16H33V-17ZM34 172H33V173H34V172ZM33 76H34V77H33V76ZM34 -20H33V-19H34V-20ZM33 169H34V170H33V169ZM34 73H33V74H34V73ZM33 -23H34V-22H33V-23ZM34 166H33V167H34V166ZM33 70H34V71H33V70ZM34 -26H33V-25H34V-26ZM33 163H34V164H33V163ZM34 67H33V68H34V67ZM33 -29H34V-28H33V-29ZM34 160H33V161H34V160ZM33 64H34V65H33V64ZM34 -32H33V-31H34V-32ZM33 157H34V158H33V157ZM34 61H33V62H34V61ZM33 -35H34V-34H33V-35ZM34 154H33V155H34V154ZM33 58H34V59H33V58ZM34 -38H33V-37H34V-38ZM33 151H34V152H33V151ZM34 55H33V56H34V55ZM33 -41H34V-40H33V-41ZM34 148H33V149H34V148ZM33 52H34V53H33V52ZM34 -44H33V-43H34V-44ZM33 145H34V146H33V145ZM34 49H33V50H34V49ZM33 -47H34V-46H33V-47ZM34 142H33V143H34V142ZM33 46H34V47H33V46ZM34 -50H33V-49H34V-50ZM33 139H34V140H33V139ZM34 43H33V44H34V43ZM33 -53H34V-52H33V-53ZM34 136H33V137H34V136ZM33 40H34V41H33V40ZM34 -56H33V-55H34V-56ZM33 133H34V134H33V133ZM34 37H33V38H34V37ZM33 -59H34V-58H33V-59ZM34 130H33V131H34V130ZM33 34H34V35H33V34ZM34 -62H33V-61H34V-62ZM33 127H34V128H33V127ZM34 31H33V32H34V31ZM33 -65H34V-64H33V-65ZM34 124H33V125H34V124ZM33 28H34V29H33V28ZM34 -68H33V-67H34V-68ZM33 121H34V122H33V121ZM34 25H33V26H34V25ZM33 -71H34V-70H33V-71ZM34 118H33V119H34V118ZM33 22H34V23H33V22ZM34 -74H33V-73H34V-74ZM33 -113H34V-112H33V-113ZM34 115H33V116H34V115ZM33 19H34V20H33V19ZM34 -77H33V-76H34V-77ZM33 -116H34V-115H33V-116ZM34 112H33V113H34V112ZM33 16H34V17H33V16ZM34 -80H33V-79H34V-80ZM33 -119H34V-118H33V-119ZM34 109H33V110H34V109ZM33 13H34V14H33V13ZM34 -83H33V-82H34V-83ZM33 -122H34V-121H33V-122ZM34 106H33V107H34V106ZM33 10H34V11H33V10ZM34 -86H33V-85H34V-86ZM33 -125H34V-124H33V-125ZM34 103H33V104H34V103ZM33 7H34V8H33V7ZM34 -89H33V-88H34V-89ZM33 -128H34V-127H33V-128ZM34 100H33V101H34V100ZM33 4H34V5H33V4ZM34 -92H33V-91H34V-92ZM33 -131H34V-130H33V-131ZM34 97H33V98H34V97ZM33 1H34V2H33V1ZM34 -95H33V-94H34V-95ZM33 -134H34V-133H33V-134ZM34 94H33V95H34V94ZM33 -2H34V-1H33V-2ZM34 -98H33V-97H34V-98ZM33 -137H34V-136H33V-137ZM34 91H33V92H34V91ZM33 -5H34V-4H33V-5ZM34 -101H33V-100H34V-101ZM33 -140H34V-139H33V-140ZM34 88H33V89H34V88ZM33 -8H34V-7H33V-8ZM34 -104H33V-103H34V-104ZM33 -143H34V-142H33V-143ZM34 85H33V86H34V85ZM33 -11H34V-10H33V-11ZM34 -107H33V-106H34V-107ZM33 -146H34V-145H33V-146ZM34 82H33V83H34V82ZM33 -14H34V-13H33V-14ZM34 -110H33V-109H34V-110Z" fill="#92999E"/>
</g>
<path fill-rule="evenodd" clip-rule="evenodd" d="M261.6 47.3799H290V48.6199H262.4L234.4 110.62H205.78L178 88.7999L149.89 110.9L122.1 74.1799L94.5096 128.38L66.4396 156.45L65.5596 155.57L93.4896 127.64L121.89 71.8399L150.11 109.12L178 87.2199L206.22 109.39H233.6L261.6 47.3899V47.3799Z" fill="#BFB7B7"/>
<path d="M69 156C69 156.796 68.6839 157.559 68.1213 158.121C67.5587 158.684 66.7956 159 66 159C65.2044 159 64.4413 158.684 63.8787 158.121C63.3161 157.559 63 156.796 63 156C63 155.204 63.3161 154.441 63.8787 153.879C64.4413 153.316 65.2044 153 66 153C66.7956 153 67.5587 153.316 68.1213 153.879C68.6839 154.441 69 155.204 69 156Z" fill="white"/>
<path fill-rule="evenodd" clip-rule="evenodd" d="M66 157.75C66.4641 157.75 66.9092 157.566 67.2374 157.237C67.5656 156.909 67.75 156.464 67.75 156C67.75 155.536 67.5656 155.091 67.2374 154.763C66.9092 154.434 66.4641 154.25 66 154.25C65.5359 154.25 65.0908 154.434 64.7626 154.763C64.4344 155.091 64.25 155.536 64.25 156C64.25 156.464 64.4344 156.909 64.7626 157.237C65.0908 157.566 65.5359 157.75 66 157.75ZM66 159C66.7956 159 67.5587 158.684 68.1213 158.121C68.6839 157.559 69 156.796 69 156C69 155.204 68.6839 154.441 68.1213 153.879C67.5587 153.316 66.7956 153 66 153C65.2044 153 64.4413 153.316 63.8787 153.879C63.3161 154.441 63 155.204 63 156C63 156.796 63.3161 157.559 63.8787 158.121C64.4413 158.684 65.2044 159 66 159Z" fill="#BFB7B7"/>
<path d="M97 128C97 128.394 96.9224 128.784 96.7716 129.148C96.6209 129.512 96.3999 129.843 96.1213 130.121C95.8427 130.4 95.512 130.621 95.148 130.772C94.7841 130.922 94.394 131 94 131C93.606 131 93.2159 130.922 92.852 130.772C92.488 130.621 92.1573 130.4 91.8787 130.121C91.6001 129.843 91.3791 129.512 91.2284 129.148C91.0776 128.784 91 128.394 91 128C91 127.204 91.3161 126.441 91.8787 125.879C92.4413 125.316 93.2044 125 94 125C94.7956 125 95.5587 125.316 96.1213 125.879C96.6839 126.441 97 127.204 97 128Z" fill="white"/>
<path fill-rule="evenodd" clip-rule="evenodd" d="M94 129.75C94.4641 129.75 94.9092 129.566 95.2374 129.237C95.5656 128.909 95.75 128.464 95.75 128C95.75 127.536 95.5656 127.091 95.2374 126.763C94.9092 126.434 94.4641 126.25 94 126.25C93.5359 126.25 93.0908 126.434 92.7626 126.763C92.4344 127.091 92.25 127.536 92.25 128C92.25 128.464 92.4344 128.909 92.7626 129.237C93.0908 129.566 93.5359 129.75 94 129.75ZM94 131C94.7956 131 95.5587 130.684 96.1213 130.121C96.6839 129.559 97 128.796 97 128C97 127.204 96.6839 126.441 96.1213 125.879C95.5587 125.316 94.7956 125 94 125C93.2044 125 92.4413 125.316 91.8787 125.879C91.3161 126.441 91 127.204 91 128C91 128.796 91.3161 129.559 91.8787 130.121C92.4413 130.684 93.2044 131 94 131Z" fill="#BFB7B7"/>
<path d="M125 73C125 73.7956 124.684 74.5587 124.121 75.1213C123.559 75.6839 122.796 76 122 76C121.204 76 120.441 75.6839 119.879 75.1213C119.316 74.5587 119 73.7956 119 73C119 72.2044 119.316 71.4413 119.879 70.8787C120.441 70.3161 121.204 70 122 70C122.796 70 123.559 70.3161 124.121 70.8787C124.684 71.4413 125 72.2044 125 73Z" fill="white"/>
<path fill-rule="evenodd" clip-rule="evenodd" d="M122 74.75C122.464 74.75 122.909 74.5656 123.237 74.2374C123.566 73.9092 123.75 73.4641 123.75 73C123.75 72.5359 123.566 72.0908 123.237 71.7626C122.909 71.4344 122.464 71.25 122 71.25C121.536 71.25 121.091 71.4344 120.763 71.7626C120.434 72.0908 120.25 72.5359 120.25 73C120.25 73.4641 120.434 73.9092 120.763 74.2374C121.091 74.5656 121.536 74.75 122 74.75ZM122 76C122.796 76 123.559 75.6839 124.121 75.1213C124.684 74.5587 125 73.7956 125 73C125 72.2044 124.684 71.4413 124.121 70.8787C123.559 70.3161 122.796 70 122 70C121.204 70 120.441 70.3161 119.879 70.8787C119.316 71.4413 119 72.2044 119 73C119 73.7956 119.316 74.5587 119.879 75.1213C120.441 75.6839 121.204 76 122 76Z" fill="#BFB7B7"/>
<path d="M153 110C153 110.796 152.684 111.559 152.121 112.121C151.559 112.684 150.796 113 150 113C149.204 113 148.441 112.684 147.879 112.121C147.316 111.559 147 110.796 147 110C147 109.204 147.316 108.441 147.879 107.879C148.441 107.316 149.204 107 150 107C150.796 107 151.559 107.316 152.121 107.879C152.684 108.441 153 109.204 153 110Z" fill="white"/>
<path fill-rule="evenodd" clip-rule="evenodd" d="M150 111.75C150.464 111.75 150.909 111.566 151.237 111.237C151.566 110.909 151.75 110.464 151.75 110C151.75 109.536 151.566 109.091 151.237 108.763C150.909 108.434 150.464 108.25 150 108.25C149.536 108.25 149.091 108.434 148.763 108.763C148.434 109.091 148.25 109.536 148.25 110C148.25 110.464 148.434 110.909 148.763 111.237C149.091 111.566 149.536 111.75 150 111.75ZM150 113C150.796 113 151.559 112.684 152.121 112.121C152.684 111.559 153 110.796 153 110C153 109.204 152.684 108.441 152.121 107.879C151.559 107.316 150.796 107 150 107C149.204 107 148.441 107.316 147.879 107.879C147.316 108.441 147 109.204 147 110C147 110.796 147.316 111.559 147.879 112.121C148.441 112.684 149.204 113 150 113Z" fill="#BFB7B7"/>
<path d="M181 88C181 88.7956 180.684 89.5587 180.121 90.1213C179.559 90.6839 178.796 91 178 91C177.204 91 176.441 90.6839 175.879 90.1213C175.316 89.5587 175 88.7956 175 88C175 87.2044 175.316 86.4413 175.879 85.8787C176.441 85.3161 177.204 85 178 85C178.796 85 179.559 85.3161 180.121 85.8787C180.684 86.4413 181 87.2044 181 88Z" fill="white"/>
<path fill-rule="evenodd" clip-rule="evenodd" d="M178 89.75C178.464 89.75 178.909 89.5656 179.237 89.2374C179.566 88.9092 179.75 88.4641 179.75 88C179.75 87.5359 179.566 87.0908 179.237 86.7626C178.909 86.4344 178.464 86.25 178 86.25C177.536 86.25 177.091 86.4344 176.763 86.7626C176.434 87.0908 176.25 87.5359 176.25 88C176.25 88.4641 176.434 88.9092 176.763 89.2374C177.091 89.5656 177.536 89.75 178 89.75ZM178 91C178.796 91 179.559 90.6839 180.121 90.1213C180.684 89.5587 181 88.7956 181 88C181 87.2044 180.684 86.4413 180.121 85.8787C179.559 85.3161 178.796 85 178 85C177.204 85 176.441 85.3161 175.879 85.8787C175.316 86.4413 175 87.2044 175 88C175 88.7956 175.316 89.5587 175.879 90.1213C176.441 90.6839 177.204 91 178 91Z" fill="#BFB7B7"/>
<path d="M209 110C209 110.796 208.684 111.559 208.121 112.121C207.559 112.684 206.796 113 206 113C205.204 113 204.441 112.684 203.879 112.121C203.316 111.559 203 110.796 203 110C203 109.204 203.316 108.441 203.879 107.879C204.441 107.316 205.204 107 206 107C206.796 107 207.559 107.316 208.121 107.879C208.684 108.441 209 109.204 209 110Z" fill="white"/>
<path fill-rule="evenodd" clip-rule="evenodd" d="M206 111.75C206.464 111.75 206.909 111.566 207.237 111.237C207.566 110.909 207.75 110.464 207.75 110C207.75 109.536 207.566 109.091 207.237 108.763C206.909 108.434 206.464 108.25 206 108.25C205.536 108.25 205.091 108.434 204.763 108.763C204.434 109.091 204.25 109.536 204.25 110C204.25 110.464 204.434 110.909 204.763 111.237C205.091 111.566 205.536 111.75 206 111.75ZM206 113C206.796 113 207.559 112.684 208.121 112.121C208.684 111.559 209 110.796 209 110C209 109.204 208.684 108.441 208.121 107.879C207.559 107.316 206.796 107 206 107C205.204 107 204.441 107.316 203.879 107.879C203.316 108.441 203 109.204 203 110C203 110.796 203.316 111.559 203.879 112.121C204.441 112.684 205.204 113 206 113Z" fill="#BFB7B7"/>
<path d="M237 110C237 110.796 236.684 111.559 236.121 112.121C235.559 112.684 234.796 113 234 113C233.204 113 232.441 112.684 231.879 112.121C231.316 111.559 231 110.796 231 110C231 109.204 231.316 108.441 231.879 107.879C232.441 107.316 233.204 107 234 107C234.796 107 235.559 107.316 236.121 107.879C236.684 108.441 237 109.204 237 110Z" fill="white"/>
<path fill-rule="evenodd" clip-rule="evenodd" d="M234 111.75C234.464 111.75 234.909 111.566 235.237 111.237C235.566 110.909 235.75 110.464 235.75 110C235.75 109.536 235.566 109.091 235.237 108.763C234.909 108.434 234.464 108.25 234 108.25C233.536 108.25 233.091 108.434 232.763 108.763C232.434 109.091 232.25 109.536 232.25 110C232.25 110.464 232.434 110.909 232.763 111.237C233.091 111.566 233.536 111.75 234 111.75ZM234 113C234.796 113 235.559 112.684 236.121 112.121C236.684 111.559 237 110.796 237 110C237 109.204 236.684 108.441 236.121 107.879C235.559 107.316 234.796 107 234 107C233.204 107 232.441 107.316 231.879 107.879C231.316 108.441 231 109.204 231 110C231 110.796 231.316 111.559 231.879 112.121C232.441 112.684 233.204 113 234 113Z" fill="#BFB7B7"/>
<path d="M265 48C265 48.7956 264.684 49.5587 264.121 50.1213C263.559 50.6839 262.796 51 262 51C261.204 51 260.441 50.6839 259.879 50.1213C259.316 49.5587 259 48.7956 259 48C259 47.2044 259.316 46.4413 259.879 45.8787C260.441 45.3161 261.204 45 262 45C262.796 45 263.559 45.3161 264.121 45.8787C264.684 46.4413 265 47.2044 265 48Z" fill="white"/>
<path fill-rule="evenodd" clip-rule="evenodd" d="M262 49.75C262.464 49.75 262.909 49.5656 263.237 49.2374C263.566 48.9092 263.75 48.4641 263.75 48C263.75 47.5359 263.566 47.0908 263.237 46.7626C262.909 46.4344 262.464 46.25 262 46.25C261.536 46.25 261.091 46.4344 260.763 46.7626C260.434 47.0908 260.25 47.5359 260.25 48C260.25 48.4641 260.434 48.9092 260.763 49.2374C261.091 49.5656 261.536 49.75 262 49.75ZM262 51C262.796 51 263.559 50.6839 264.121 50.1213C264.684 49.5587 265 48.7956 265 48C265 47.2044 264.684 46.4413 264.121 45.8787C263.559 45.3161 262.796 45 262 45C261.204 45 260.441 45.3161 259.879 45.8787C259.316 46.4413 259 47.2044 259 48C259 48.7956 259.316 49.5587 259.879 50.1213C260.441 50.6839 261.204 51 262 51Z" fill="#BFB7B7"/>
<path d="M293 48C293 48.7956 292.684 49.5587 292.121 50.1213C291.559 50.6839 290.796 51 290 51C289.204 51 288.441 50.6839 287.879 50.1213C287.316 49.5587 287 48.7956 287 48C287 47.2044 287.316 46.4413 287.879 45.8787C288.441 45.3161 289.204 45 290 45C290.796 45 291.559 45.3161 292.121 45.8787C292.684 46.4413 293 47.2044 293 48Z" fill="white"/>
<path fill-rule="evenodd" clip-rule="evenodd" d="M290 49.75C290.464 49.75 290.909 49.5656 291.237 49.2374C291.566 48.9092 291.75 48.4641 291.75 48C291.75 47.5359 291.566 47.0908 291.237 46.7626C290.909 46.4344 290.464 46.25 290 46.25C289.536 46.25 289.091 46.4344 288.763 46.7626C288.434 47.0908 288.25 47.5359 288.25 48C288.25 48.4641 288.434 48.9092 288.763 49.2374C289.091 49.5656 289.536 49.75 290 49.75ZM290 51C290.796 51 291.559 50.6839 292.121 50.1213C292.684 49.5587 293 48.7956 293 48C293 47.2044 292.684 46.4413 292.121 45.8787C291.559 45.3161 290.796 45 290 45C289.204 45 288.441 45.3161 287.879 45.8787C287.316 46.4413 287 47.2044 287 48C287 48.7956 287.316 49.5587 287.879 50.1213C288.441 50.6839 289.204 51 290 51Z" fill="#BFB7B7"/>
<path fill-rule="evenodd" clip-rule="evenodd" d="M234.09 92.22L205.82 109.38H177.9L149.72 119.44L121.81 139.38H94.27L66.46 109.58L65.54 110.43L93.73 140.63H122.2L150.3 120.56L178.1 110.62H206.18L233.91 93.78L261.6 120.48L289.64 140.51L290.36 139.49L262.4 119.52L234.09 92.22Z" fill="#888888"/>
<path d="M287 140C287 140.796 287.316 141.559 287.879 142.121C288.441 142.684 289.204 143 290 143C290.796 143 291.559 142.684 292.121 142.121C292.684 141.559 293 140.796 293 140C293 139.204 292.684 138.441 292.121 137.879C291.559 137.316 290.796 137 290 137C289.204 137 288.441 137.316 287.879 137.879C287.316 138.441 287 139.204 287 140Z" fill="white"/>
<path fill-rule="evenodd" clip-rule="evenodd" d="M290 141.75C289.536 141.75 289.091 141.566 288.763 141.237C288.434 140.909 288.25 140.464 288.25 140C288.25 139.536 288.434 139.091 288.763 138.763C289.091 138.434 289.536 138.25 290 138.25C290.464 138.25 290.909 138.434 291.237 138.763C291.566 139.091 291.75 139.536 291.75 140C291.75 140.464 291.566 140.909 291.237 141.237C290.909 141.566 290.464 141.75 290 141.75ZM290 143C289.204 143 288.441 142.684 287.879 142.121C287.316 141.559 287 140.796 287 140C287 139.204 287.316 138.441 287.879 137.879C288.441 137.316 289.204 137 290 137C290.796 137 291.559 137.316 292.121 137.879C292.684 138.441 293 139.204 293 140C293 140.796 292.684 141.559 292.121 142.121C291.559 142.684 290.796 143 290 143Z" fill="#888888"/>
<path d="M259 120C259 120.796 259.316 121.559 259.879 122.121C260.441 122.684 261.204 123 262 123C262.796 123 263.559 122.684 264.121 122.121C264.684 121.559 265 120.796 265 120C265 119.204 264.684 118.441 264.121 117.879C263.559 117.316 262.796 117 262 117C261.204 117 260.441 117.316 259.879 117.879C259.316 118.441 259 119.204 259 120Z" fill="white"/>
<path fill-rule="evenodd" clip-rule="evenodd" d="M262 121.75C261.536 121.75 261.091 121.566 260.763 121.237C260.434 120.909 260.25 120.464 260.25 120C260.25 119.536 260.434 119.091 260.763 118.763C261.091 118.434 261.536 118.25 262 118.25C262.464 118.25 262.909 118.434 263.237 118.763C263.566 119.091 263.75 119.536 263.75 120C263.75 120.464 263.566 120.909 263.237 121.237C262.909 121.566 262.464 121.75 262 121.75ZM262 123C261.204 123 260.441 122.684 259.879 122.121C259.316 121.559 259 120.796 259 120C259 119.204 259.316 118.441 259.879 117.879C260.441 117.316 261.204 117 262 117C262.796 117 263.559 117.316 264.121 117.879C264.684 118.441 265 119.204 265 120C265 120.796 264.684 121.559 264.121 122.121C263.559 122.684 262.796 123 262 123Z" fill="#888888"/>
<path d="M231 93C231 93.7956 231.316 94.5587 231.879 95.1213C232.441 95.6839 233.204 96 234 96C234.796 96 235.559 95.6839 236.121 95.1213C236.684 94.5587 237 93.7956 237 93C237 92.2044 236.684 91.4413 236.121 90.8787C235.559 90.3161 234.796 90 234 90C233.204 90 232.441 90.3161 231.879 90.8787C231.316 91.4413 231 92.2044 231 93Z" fill="white"/>
<path fill-rule="evenodd" clip-rule="evenodd" d="M234 94.75C233.536 94.75 233.091 94.5656 232.763 94.2374C232.434 93.9092 232.25 93.4641 232.25 93C232.25 92.5359 232.434 92.0908 232.763 91.7626C233.091 91.4344 233.536 91.25 234 91.25C234.464 91.25 234.909 91.4344 235.237 91.7626C235.566 92.0908 235.75 92.5359 235.75 93C235.75 93.4641 235.566 93.9092 235.237 94.2374C234.909 94.5656 234.464 94.75 234 94.75ZM234 96C233.204 96 232.441 95.6839 231.879 95.1213C231.316 94.5587 231 93.7956 231 93C231 92.2044 231.316 91.4413 231.879 90.8787C232.441 90.3161 233.204 90 234 90C234.796 90 235.559 90.3161 236.121 90.8787C236.684 91.4413 237 92.2044 237 93C237 93.7956 236.684 94.5587 236.121 95.1213C235.559 95.6839 234.796 96 234 96Z" fill="#888888"/>
<path d="M203 110C203 110.796 203.316 111.559 203.879 112.121C204.441 112.684 205.204 113 206 113C206.796 113 207.559 112.684 208.121 112.121C208.684 111.559 209 110.796 209 110C209 109.204 208.684 108.441 208.121 107.879C207.559 107.316 206.796 107 206 107C205.204 107 204.441 107.316 203.879 107.879C203.316 108.441 203 109.204 203 110Z" fill="white"/>
<path fill-rule="evenodd" clip-rule="evenodd" d="M206 111.75C205.536 111.75 205.091 111.566 204.763 111.237C204.434 110.909 204.25 110.464 204.25 110C204.25 109.536 204.434 109.091 204.763 108.763C205.091 108.434 205.536 108.25 206 108.25C206.464 108.25 206.909 108.434 207.237 108.763C207.566 109.091 207.75 109.536 207.75 110C207.75 110.464 207.566 110.909 207.237 111.237C206.909 111.566 206.464 111.75 206 111.75ZM206 113C205.204 113 204.441 112.684 203.879 112.121C203.316 111.559 203 110.796 203 110C203 109.204 203.316 108.441 203.879 107.879C204.441 107.316 205.204 107 206 107C206.796 107 207.559 107.316 208.121 107.879C208.684 108.441 209 109.204 209 110C209 110.796 208.684 111.559 208.121 112.121C207.559 112.684 206.796 113 206 113Z" fill="#888888"/>
<path d="M175 110C175 110.796 175.316 111.559 175.879 112.121C176.441 112.684 177.204 113 178 113C178.796 113 179.559 112.684 180.121 112.121C180.684 111.559 181 110.796 181 110C181 109.204 180.684 108.441 180.121 107.879C179.559 107.316 178.796 107 178 107C177.204 107 176.441 107.316 175.879 107.879C175.316 108.441 175 109.204 175 110Z" fill="white"/>
<path fill-rule="evenodd" clip-rule="evenodd" d="M178 111.75C177.536 111.75 177.091 111.566 176.763 111.237C176.434 110.909 176.25 110.464 176.25 110C176.25 109.536 176.434 109.091 176.763 108.763C177.091 108.434 177.536 108.25 178 108.25C178.464 108.25 178.909 108.434 179.237 108.763C179.566 109.091 179.75 109.536 179.75 110C179.75 110.464 179.566 110.909 179.237 111.237C178.909 111.566 178.464 111.75 178 111.75ZM178 113C177.204 113 176.441 112.684 175.879 112.121C175.316 111.559 175 110.796 175 110C175 109.204 175.316 108.441 175.879 107.879C176.441 107.316 177.204 107 178 107C178.796 107 179.559 107.316 180.121 107.879C180.684 108.441 181 109.204 181 110C181 110.796 180.684 111.559 180.121 112.121C179.559 112.684 178.796 113 178 113Z" fill="#888888"/>
<path d="M147 120C147 120.796 147.316 121.559 147.879 122.121C148.441 122.684 149.204 123 150 123C150.796 123 151.559 122.684 152.121 122.121C152.684 121.559 153 120.796 153 120C153 119.204 152.684 118.441 152.121 117.879C151.559 117.316 150.796 117 150 117C149.204 117 148.441 117.316 147.879 117.879C147.316 118.441 147 119.204 147 120Z" fill="white"/>
<path fill-rule="evenodd" clip-rule="evenodd" d="M150 121.75C149.536 121.75 149.091 121.566 148.763 121.237C148.434 120.909 148.25 120.464 148.25 120C148.25 119.536 148.434 119.091 148.763 118.763C149.091 118.434 149.536 118.25 150 118.25C150.464 118.25 150.909 118.434 151.237 118.763C151.566 119.091 151.75 119.536 151.75 120C151.75 120.464 151.566 120.909 151.237 121.237C150.909 121.566 150.464 121.75 150 121.75ZM150 123C149.204 123 148.441 122.684 147.879 122.121C147.316 121.559 147 120.796 147 120C147 119.204 147.316 118.441 147.879 117.879C148.441 117.316 149.204 117 150 117C150.796 117 151.559 117.316 152.121 117.879C152.684 118.441 153 119.204 153 120C153 120.796 152.684 121.559 152.121 122.121C151.559 122.684 150.796 123 150 123Z" fill="#888888"/>
<path d="M119 140C119 140.796 119.316 141.559 119.879 142.121C120.441 142.684 121.204 143 122 143C122.796 143 123.559 142.684 124.121 142.121C124.684 141.559 125 140.796 125 140C125 139.204 124.684 138.441 124.121 137.879C123.559 137.316 122.796 137 122 137C121.204 137 120.441 137.316 119.879 137.879C119.316 138.441 119 139.204 119 140Z" fill="white"/>
<path fill-rule="evenodd" clip-rule="evenodd" d="M122 141.75C121.536 141.75 121.091 141.566 120.763 141.237C120.434 140.909 120.25 140.464 120.25 140C120.25 139.536 120.434 139.091 120.763 138.763C121.091 138.434 121.536 138.25 122 138.25C122.464 138.25 122.909 138.434 123.237 138.763C123.566 139.091 123.75 139.536 123.75 140C123.75 140.464 123.566 140.909 123.237 141.237C122.909 141.566 122.464 141.75 122 141.75ZM122 143C121.204 143 120.441 142.684 119.879 142.121C119.316 141.559 119 140.796 119 140C119 139.204 119.316 138.441 119.879 137.879C120.441 137.316 121.204 137 122 137C122.796 137 123.559 137.316 124.121 137.879C124.684 138.441 125 139.204 125 140C125 140.796 124.684 141.559 124.121 142.121C123.559 142.684 122.796 143 122 143Z" fill="#888888"/>
<path d="M91 140C91 140.394 91.0776 140.784 91.2284 141.148C91.3791 141.512 91.6001 141.843 91.8787 142.121C92.1573 142.4 92.488 142.621 92.852 142.772C93.2159 142.922 93.606 143 94 143C94.394 143 94.7841 142.922 95.148 142.772C95.512 142.621 95.8427 142.4 96.1213 142.121C96.3999 141.843 96.6209 141.512 96.7716 141.148C96.9224 140.784 97 140.394 97 140C97 139.204 96.6839 138.441 96.1213 137.879C95.5587 137.316 94.7956 137 94 137C93.2044 137 92.4413 137.316 91.8787 137.879C91.3161 138.441 91 139.204 91 140Z" fill="white"/>
<path fill-rule="evenodd" clip-rule="evenodd" d="M94 141.75C93.5359 141.75 93.0908 141.566 92.7626 141.237C92.4344 140.909 92.25 140.464 92.25 140C92.25 139.536 92.4344 139.091 92.7626 138.763C93.0908 138.434 93.5359 138.25 94 138.25C94.4641 138.25 94.9092 138.434 95.2374 138.763C95.5656 139.091 95.75 139.536 95.75 140C95.75 140.464 95.5656 140.909 95.2374 141.237C94.9092 141.566 94.4641 141.75 94 141.75ZM94 143C93.2044 143 92.4413 142.684 91.8787 142.121C91.3161 141.559 91 140.796 91 140C91 139.204 91.3161 138.441 91.8787 137.879C92.4413 137.316 93.2044 137 94 137C94.7956 137 95.5587 137.316 96.1213 137.879C96.6839 138.441 97 139.204 97 140C97 140.796 96.6839 141.559 96.1213 142.121C95.5587 142.684 94.7956 143 94 143Z" fill="#888888"/>
<path d="M63 110C63 110.796 63.3161 111.559 63.8787 112.121C64.4413 112.684 65.2044 113 66 113C66.7956 113 67.5587 112.684 68.1213 112.121C68.6839 111.559 69 110.796 69 110C69 109.204 68.6839 108.441 68.1213 107.879C67.5587 107.316 66.7956 107 66 107C65.2044 107 64.4413 107.316 63.8787 107.879C63.3161 108.441 63 109.204 63 110Z" fill="white"/>
<path fill-rule="evenodd" clip-rule="evenodd" d="M66 111.75C65.5359 111.75 65.0908 111.566 64.7626 111.237C64.4344 110.909 64.25 110.464 64.25 110C64.25 109.536 64.4344 109.091 64.7626 108.763C65.0908 108.434 65.5359 108.25 66 108.25C66.4641 108.25 66.9092 108.434 67.2374 108.763C67.5656 109.091 67.75 109.536 67.75 110C67.75 110.464 67.5656 110.909 67.2374 111.237C66.9092 111.566 66.4641 111.75 66 111.75ZM66 113C65.2044 113 64.4413 112.684 63.8787 112.121C63.3161 111.559 63 110.796 63 110C63 109.204 63.3161 108.441 63.8787 107.879C64.4413 107.316 65.2044 107 66 107C66.7956 107 67.5587 107.316 68.1213 107.879C68.6839 108.441 69 109.204 69 110C69 110.796 68.6839 111.559 68.1213 112.121C67.5587 112.684 66.7956 113 66 113Z" fill="#888888"/>
<path fill-rule="evenodd" clip-rule="evenodd" d="M12.1897 8.65989C12.1897 9.28989 12.1197 9.83989 11.9897 10.2899C11.8497 10.7499 11.6597 11.1299 11.4297 11.4299C11.1997 11.7299 10.9297 11.9499 10.5997 12.0999C10.28 12.2471 9.93174 12.3222 9.57972 12.3199C9.22273 12.3297 8.86857 12.2541 8.54675 12.0993C8.22494 11.9445 7.94481 11.715 7.72972 11.4299C7.4813 11.0899 7.29819 10.7067 7.18972 10.2999C7.04972 9.83989 6.98972 9.29989 6.98972 8.65989C6.98972 8.03989 7.04972 7.48989 7.18972 7.02989C7.31972 6.56989 7.49972 6.19989 7.73972 5.88989C7.95268 5.60498 8.23099 5.37542 8.5512 5.22053C8.87141 5.06565 9.22415 4.98997 9.57972 4.99989C9.93972 4.99989 10.2797 5.06989 10.5997 5.21989C10.9197 5.36989 11.1997 5.58989 11.4297 5.88989C11.6597 6.18989 11.8497 6.57989 11.9797 7.03989C12.1197 7.49989 12.1797 8.03989 12.1797 8.65989H12.1897ZM11.2597 8.65989C11.2597 8.11989 11.2097 7.65989 11.1197 7.28989C11.0521 6.96989 10.9267 6.6649 10.7497 6.38989C10.6249 6.19357 10.4517 6.03256 10.2469 5.92226C10.0421 5.81196 9.81234 5.75605 9.57972 5.75989C9.34709 5.75605 9.11738 5.81196 8.91253 5.92226C8.70769 6.03256 8.53456 6.19357 8.40972 6.38989C8.23657 6.6669 8.11148 6.97119 8.03972 7.28989C7.94972 7.65989 7.90972 8.11989 7.90972 8.65989C7.90972 9.20989 7.94972 9.66989 8.03972 10.0399C8.13972 10.4099 8.25972 10.7099 8.40972 10.9399C8.55972 11.1599 8.73972 11.3199 8.94972 11.4299C9.14774 11.5255 9.36481 11.5752 9.58472 11.5752C9.80463 11.5752 10.0217 11.5255 10.2197 11.4299C10.4197 11.3299 10.5997 11.1599 10.7497 10.9299C10.9097 10.7099 11.0297 10.4099 11.1197 10.0399C11.2197 9.66989 11.2597 9.20989 11.2597 8.65989ZM17.9897 8.65989C17.9897 9.28989 17.9197 9.83989 17.7897 10.2899C17.6497 10.7499 17.4697 11.1299 17.2297 11.4299C16.9997 11.7299 16.7297 11.9499 16.3997 12.0999C16.08 12.2471 15.7317 12.3222 15.3797 12.3199C15.0227 12.3297 14.6686 12.2541 14.3468 12.0993C14.0249 11.9445 13.7448 11.715 13.5297 11.4299C13.2813 11.0899 13.0982 10.7067 12.9897 10.2999C12.8497 9.83989 12.7897 9.29989 12.7897 8.65989C12.7897 8.03989 12.8497 7.48989 12.9897 7.02989C13.1197 6.56989 13.2997 6.19989 13.5397 5.88989C13.7527 5.60498 14.031 5.37542 14.3512 5.22053C14.6714 5.06565 15.0242 4.98997 15.3797 4.99989C15.7397 4.99989 16.0797 5.06989 16.3997 5.21989C16.7197 5.36989 16.9997 5.58989 17.2297 5.88989C17.4597 6.18989 17.6497 6.57989 17.7797 7.03989C17.9197 7.49989 17.9797 8.03989 17.9797 8.65989H17.9897ZM17.0597 8.65989C17.0597 8.11989 17.0197 7.65989 16.9197 7.28989C16.8521 6.96989 16.7267 6.6649 16.5497 6.38989C16.4249 6.19357 16.2517 6.03256 16.0469 5.92226C15.8421 5.81196 15.6123 5.75605 15.3797 5.75989C15.1471 5.75605 14.9174 5.81196 14.7125 5.92226C14.5077 6.03256 14.3346 6.19357 14.2097 6.38989C14.0366 6.6669 13.9115 6.97119 13.8397 7.28989C13.7497 7.65989 13.7097 8.11989 13.7097 8.65989C13.7097 9.20989 13.7497 9.66989 13.8397 10.0399C13.9397 10.4099 14.0597 10.7099 14.2097 10.9399C14.3597 11.1599 14.5397 11.3199 14.7497 11.4299C14.9477 11.5255 15.1648 11.5752 15.3847 11.5752C15.6046 11.5752 15.8217 11.5255 16.0197 11.4299C16.2197 11.3299 16.3997 11.1599 16.5497 10.9299C16.7097 10.7099 16.8297 10.4099 16.9197 10.0399C17.0197 9.66989 17.0597 9.20989 17.0597 8.65989ZM4.53972 6.69989V9.65989H1.95972L4.57972 6.10989C4.55502 6.30897 4.54166 6.50929 4.53972 6.70989V6.69989ZM6.39972 10.1699V9.65989H5.31972V5.07989H4.48972L0.999716 9.70989L1.08972 10.1599C1.09972 10.2199 1.12972 10.2599 1.17972 10.2999C1.22972 10.3399 1.27972 10.3599 1.35972 10.3599H4.52972V12.2399H5.31972V10.3599H6.19972C6.26972 10.3599 6.31972 10.3399 6.34972 10.3099C6.38375 10.2714 6.40166 10.2212 6.39972 10.1699ZM1.48972 45.9699C1.34922 46.2417 1.25782 46.5363 1.21972 46.8399L1.68972 46.9199C1.80972 46.9399 1.89972 46.9199 1.96972 46.8899C2.04519 46.8313 2.10101 46.751 2.12972 46.6599C2.19345 46.3569 2.35939 46.0851 2.59972 45.8899C2.70972 45.7899 2.84972 45.7199 2.99972 45.6599C3.15972 45.6099 3.32972 45.5899 3.50972 45.5899C3.68972 45.5899 3.85972 45.6099 4.00972 45.6599C4.16972 45.7099 4.30972 45.7899 4.40972 45.8899C4.52972 45.9899 4.60972 46.1099 4.67972 46.2699C4.74972 46.4199 4.77972 46.5999 4.77972 46.7999C4.77972 46.9999 4.74972 47.1599 4.67972 47.3199C4.61891 47.4731 4.5189 47.6076 4.38972 47.7099C4.25972 47.8199 4.08972 47.9099 3.86972 47.9699C3.64972 48.0299 3.38972 48.0699 3.07972 48.0699V48.7199C3.45972 48.7199 3.75972 48.7499 3.99972 48.8199C4.23972 48.8799 4.42972 48.9699 4.56972 49.0899C4.69972 49.2099 4.78972 49.3399 4.83972 49.4999C4.88972 49.6599 4.91972 49.8399 4.91972 50.0299C4.91969 50.1992 4.8861 50.3667 4.82087 50.5229C4.75564 50.6792 4.66008 50.8209 4.53972 50.9399C4.41972 51.0799 4.25972 51.1799 4.06972 51.2699C3.87972 51.3399 3.66972 51.3799 3.40972 51.3799C3.13972 51.3799 2.91972 51.3399 2.73972 51.2599C2.43435 51.1216 2.18679 50.8811 2.03972 50.5799L1.87972 50.2399C1.86085 50.1997 1.83301 50.1643 1.79834 50.1366C1.76366 50.1089 1.72308 50.0895 1.67972 50.0799C1.57804 50.0598 1.47257 50.0738 1.37972 50.1199L0.999716 50.2799C1.07972 50.5399 1.18972 50.7899 1.29972 51.0199C1.54429 51.4811 1.95559 51.8316 2.44972 51.9999C2.71972 52.0999 3.04972 52.1499 3.41972 52.1499C3.74972 52.1499 4.05972 52.0999 4.34972 51.9999C4.63972 51.8999 4.88972 51.7599 5.10972 51.5799C5.33577 51.3867 5.5159 51.1455 5.63699 50.8739C5.75809 50.6023 5.81709 50.3072 5.80972 50.0099C5.80972 49.5699 5.68972 49.2099 5.45972 48.9199C5.18734 48.6035 4.81833 48.3856 4.40972 48.2999C4.58972 48.2399 4.76972 48.1599 4.91972 48.0699C5.22149 47.8879 5.44843 47.6042 5.55972 47.2699C5.69691 46.819 5.67214 46.3344 5.48972 45.8999C5.38972 45.6699 5.24972 45.4799 5.05972 45.3199C4.87972 45.1599 4.65972 45.0399 4.39972 44.9499C3.84818 44.7647 3.25125 44.7647 2.69972 44.9499C2.17774 45.1172 1.7429 45.4837 1.48972 45.9699ZM11.8697 48.4899C11.8768 49.0398 11.8095 49.588 11.6697 50.1199C11.5541 50.5259 11.3679 50.9084 11.1197 51.2499C10.8797 51.5499 10.6097 51.7699 10.2897 51.9199C9.96997 52.0671 9.62174 52.1422 9.26972 52.1399C8.91273 52.1497 8.55857 52.0741 8.23675 51.9193C7.91494 51.7645 7.63481 51.535 7.41972 51.2499C7.16776 50.9107 6.98124 50.5275 6.86972 50.1199C6.72866 49.5883 6.66136 49.0398 6.66972 48.4899C6.66972 47.8599 6.73972 47.3099 6.86972 46.8499C6.99972 46.3999 7.18972 46.0099 7.41972 45.7199C7.63258 45.4317 7.91202 45.1994 8.23417 45.0426C8.55632 44.8859 8.91162 44.8095 9.26972 44.8199C9.62972 44.8199 9.96972 44.8899 10.2897 45.0399C10.6097 45.1899 10.8897 45.4099 11.1197 45.7199C11.3497 46.0199 11.5297 46.3999 11.6697 46.8499C11.8108 47.3815 11.8781 47.93 11.8697 48.4799V48.4899ZM10.9497 48.4899C10.9497 47.9399 10.8997 47.4799 10.8097 47.1099C10.7419 46.79 10.6165 46.485 10.4397 46.2099C10.3149 46.0136 10.1417 45.8526 9.9369 45.7423C9.73205 45.632 9.50234 45.5761 9.26972 45.5799C9.03709 45.5761 8.80738 45.632 8.60253 45.7423C8.39769 45.8526 8.22456 46.0136 8.09972 46.2099C7.93972 46.4399 7.81972 46.7399 7.72972 47.1099C7.62972 47.4799 7.58972 47.9399 7.58972 48.4899C7.58972 49.0299 7.63972 49.4899 7.72972 49.8599C7.81972 50.2299 7.93972 50.5299 8.09972 50.7599C8.24972 50.9799 8.42972 51.1499 8.62972 51.2399C8.82774 51.3355 9.04481 51.3852 9.26472 51.3852C9.48463 51.3852 9.70169 51.3355 9.89972 51.2399C10.0997 51.1399 10.2797 50.9799 10.4397 50.7599C10.5897 50.5299 10.7197 50.2299 10.8097 49.8599C10.8997 49.4899 10.9497 49.0299 10.9497 48.4799V48.4899ZM17.6697 48.4899C17.6768 49.0398 17.6095 49.588 17.4697 50.1199C17.3541 50.5259 17.1679 50.9084 16.9197 51.2499C16.6797 51.5499 16.4097 51.7699 16.0897 51.9199C15.77 52.0671 15.4217 52.1422 15.0697 52.1399C14.7127 52.1497 14.3586 52.0741 14.0368 51.9193C13.7149 51.7645 13.4348 51.535 13.2197 51.2499C12.9715 50.9084 12.7854 50.5259 12.6697 50.1199C12.5287 49.5883 12.4614 49.0398 12.4697 48.4899C12.4697 47.8599 12.5397 47.3099 12.6697 46.8499C12.7997 46.3999 12.9897 46.0099 13.2197 45.7199C13.4326 45.4317 13.712 45.1994 14.0342 45.0426C14.3563 44.8859 14.7116 44.8095 15.0697 44.8199C15.4297 44.8199 15.7697 44.8899 16.0897 45.0399C16.4097 45.1899 16.6897 45.4099 16.9197 45.7199C17.1497 46.0199 17.3297 46.3999 17.4697 46.8499C17.6108 47.3815 17.6781 47.93 17.6697 48.4799V48.4899ZM16.7497 48.4899C16.7497 47.9399 16.6997 47.4799 16.6097 47.1099C16.5419 46.79 16.4165 46.485 16.2397 46.2099C16.1149 46.0136 15.9417 45.8526 15.7369 45.7423C15.5321 45.632 15.3023 45.5761 15.0697 45.5799C14.8371 45.5761 14.6074 45.632 14.4025 45.7423C14.1977 45.8526 14.0246 46.0136 13.8997 46.2099C13.7397 46.4399 13.6197 46.7399 13.5297 47.1099C13.4297 47.4799 13.3897 47.9399 13.3897 48.4899C13.3897 49.0299 13.4397 49.4899 13.5297 49.8599C13.6197 50.2299 13.7397 50.5299 13.8997 50.7599C14.0497 50.9799 14.2297 51.1499 14.4297 51.2399C14.6277 51.3355 14.8448 51.3852 15.0647 51.3852C15.2846 51.3852 15.5017 51.3355 15.6997 51.2399C15.8997 51.1399 16.0797 50.9799 16.2397 50.7599C16.3897 50.5299 16.5197 50.2299 16.6097 49.8599C16.6997 49.4899 16.7497 49.0299 16.7497 48.4799V48.4899ZM5.45972 91.0299C5.55972 91.0299 5.63972 91.0599 5.69972 91.1199C5.72712 91.1493 5.74832 91.184 5.76206 91.2218C5.7758 91.2596 5.78181 91.2997 5.77972 91.3399V91.8799H0.999716V91.5799C1.00441 91.4358 1.06545 91.2994 1.16972 91.1999L3.45972 88.8899L3.97972 88.3299C4.13972 88.1599 4.26972 87.9699 4.37972 87.7999C4.59125 87.4521 4.71163 87.0566 4.72972 86.6499C4.72972 86.4499 4.68972 86.2599 4.62972 86.0999C4.56923 85.951 4.47568 85.8178 4.35614 85.7104C4.2366 85.603 4.0942 85.5242 3.93972 85.4799C3.77852 85.4262 3.60963 85.3991 3.43972 85.3999C3.25972 85.3999 3.08972 85.4299 2.93972 85.4799C2.6461 85.5801 2.39558 85.7777 2.22972 86.0399C2.14972 86.1699 2.08972 86.3099 2.05972 86.4699C2.01972 86.5899 1.95972 86.6699 1.88972 86.6999C1.82972 86.7399 1.72972 86.7499 1.60972 86.7399L1.13972 86.6599C1.18972 86.3299 1.27972 86.0399 1.41972 85.7899C1.54972 85.5399 1.71972 85.3199 1.91972 85.1599C2.12972 84.9899 2.36972 84.8599 2.62972 84.7699C3.1805 84.5802 3.77893 84.5802 4.32972 84.7699C4.59972 84.8599 4.82972 84.9899 5.01972 85.1699C5.21972 85.3299 5.36972 85.5399 5.47972 85.7899C5.68618 86.2973 5.7004 86.8627 5.51972 87.3799C5.43972 87.5999 5.32972 87.8199 5.19972 88.0199C5.05972 88.2299 4.89972 88.4299 4.71972 88.6299L4.15972 89.2299L2.25972 91.1599C2.52016 91.0844 2.78878 91.0408 3.05972 91.0299H5.45972ZM11.6297 89.9299C11.7708 89.3983 11.8381 88.8498 11.8297 88.2999C11.8381 87.75 11.7708 87.2015 11.6297 86.6699C11.52 86.2586 11.3334 85.8717 11.0797 85.5299C10.8634 85.2382 10.5783 85.0046 10.2497 84.8499C9.92997 84.7026 9.58174 84.6275 9.22972 84.6299C8.87162 84.6195 8.51632 84.6959 8.19417 84.8527C7.87202 85.0094 7.59258 85.2417 7.37972 85.5299C7.14972 85.8299 6.95972 86.2099 6.82972 86.6699C6.68866 87.2015 6.62136 87.75 6.62972 88.2999C6.62136 88.8498 6.68866 89.3983 6.82972 89.9299C6.95972 90.3899 7.14972 90.7699 7.37972 91.0699C7.59481 91.355 7.87494 91.5845 8.19675 91.7393C8.51857 91.8941 8.87273 91.9697 9.22972 91.9599C9.58569 91.9634 9.93771 91.885 10.2585 91.7307C10.5793 91.5763 10.8603 91.3502 11.0797 91.0699C11.3097 90.7699 11.4897 90.3899 11.6297 89.9299ZM10.7697 86.9299C10.8597 87.2999 10.9097 87.7499 10.9097 88.2999C10.9097 88.8499 10.8597 89.2999 10.7697 89.6799C10.7008 89.9963 10.5754 90.2978 10.3997 90.5699C10.2662 90.778 10.0798 90.9471 9.85972 91.0599C9.66169 91.1555 9.44463 91.2052 9.22472 91.2052C9.00481 91.2052 8.78774 91.1555 8.58972 91.0599C8.37326 90.9457 8.19052 90.7767 8.05972 90.5699C7.88552 90.2934 7.76035 89.9889 7.68972 89.6699C7.59 89.2202 7.54302 88.7604 7.54972 88.2999C7.54972 87.7499 7.59972 87.2999 7.68972 86.9199C7.77972 86.5499 7.89972 86.2499 8.05972 86.0199C8.18456 85.8236 8.35769 85.6626 8.56253 85.5523C8.76738 85.442 8.99709 85.3861 9.22972 85.3899C9.46234 85.3861 9.69205 85.442 9.8969 85.5523C10.1017 85.6626 10.2749 85.8236 10.3997 86.0199C10.5497 86.2499 10.6797 86.5499 10.7697 86.9199V86.9299ZM17.4297 89.9299C17.5708 89.3983 17.6381 88.8498 17.6297 88.2999C17.6381 87.75 17.5708 87.2015 17.4297 86.6699C17.3203 86.2585 17.1336 85.8716 16.8797 85.5299C16.6634 85.2382 16.3783 85.0046 16.0497 84.8499C15.73 84.7026 15.3817 84.6275 15.0297 84.6299C14.6716 84.6195 14.3163 84.6959 13.9942 84.8527C13.672 85.0094 13.3926 85.2417 13.1797 85.5299C12.9497 85.8299 12.7697 86.2099 12.6297 86.6699C12.4887 87.2015 12.4214 87.75 12.4297 88.2999C12.4214 88.8498 12.4887 89.3983 12.6297 89.9299C12.7597 90.3899 12.9497 90.7699 13.1797 91.0699C13.3948 91.355 13.6749 91.5845 13.9968 91.7393C14.3186 91.8941 14.6727 91.9697 15.0297 91.9599C15.3857 91.9634 15.7377 91.885 16.0585 91.7307C16.3793 91.5763 16.6603 91.3502 16.8797 91.0699C17.1097 90.7699 17.2897 90.3899 17.4297 89.9299ZM16.5697 86.9299C16.6597 87.2999 16.7097 87.7499 16.7097 88.2999C16.7097 88.8499 16.6597 89.2999 16.5697 89.6799C16.4697 90.0499 16.3497 90.3399 16.1997 90.5699C16.0662 90.778 15.8798 90.9471 15.6597 91.0599C15.4617 91.1555 15.2446 91.2052 15.0247 91.2052C14.8048 91.2052 14.5877 91.1555 14.3897 91.0599C14.1733 90.9457 13.9905 90.7767 13.8597 90.5699C13.6855 90.2934 13.5604 89.9889 13.4897 89.6699C13.39 89.2202 13.343 88.7604 13.3497 88.2999C13.3497 87.7499 13.3997 87.2999 13.4897 86.9199C13.5797 86.5499 13.6997 86.2499 13.8597 86.0199C13.9846 85.8236 14.1577 85.6626 14.3625 85.5523C14.5674 85.442 14.7971 85.3861 15.0297 85.3899C15.2623 85.3861 15.4921 85.442 15.6969 85.5523C15.9017 85.6626 16.0749 85.8236 16.1997 86.0199C16.3497 86.2499 16.4797 86.5499 16.5697 86.9199V86.9299ZM11.4797 128.12C11.4881 128.67 11.4208 129.218 11.2797 129.75C11.1397 130.21 10.9597 130.59 10.7297 130.89C10.4897 131.19 10.2197 131.41 9.89972 131.55C9.57996 131.697 9.23174 131.772 8.87972 131.77C8.52441 131.778 8.17223 131.702 7.85229 131.547C7.53234 131.392 7.25382 131.164 7.03972 130.88C6.79972 130.58 6.60972 130.21 6.47972 129.75C6.33866 129.218 6.27136 128.67 6.27972 128.12C6.27136 127.57 6.33866 127.021 6.47972 126.49C6.60972 126.03 6.79972 125.65 7.02972 125.35C7.24316 125.062 7.52271 124.83 7.84473 124.674C8.16674 124.517 8.52175 124.44 8.87972 124.45C9.23576 124.452 9.58681 124.534 9.90699 124.69C10.2272 124.845 10.5083 125.071 10.7297 125.35C10.9597 125.65 11.1397 126.03 11.2797 126.49C11.4208 127.021 11.4881 127.57 11.4797 128.12ZM10.5597 128.12C10.5597 127.57 10.5097 127.12 10.4197 126.74C10.3519 126.42 10.2265 126.115 10.0497 125.84C9.92487 125.644 9.75174 125.483 9.5469 125.372C9.34205 125.262 9.11234 125.206 8.87972 125.21C8.64615 125.207 8.41581 125.265 8.21089 125.377C8.00596 125.489 7.83336 125.652 7.70972 125.85C7.54972 126.07 7.42972 126.37 7.33972 126.75C7.23972 127.11 7.19972 127.57 7.19972 128.12C7.19972 128.67 7.24972 129.12 7.33972 129.5C7.42972 129.87 7.54972 130.16 7.70972 130.39C7.85972 130.62 8.03972 130.78 8.23972 130.88C8.43774 130.976 8.65481 131.025 8.87472 131.025C9.09463 131.025 9.3117 130.976 9.50972 130.88C9.70972 130.78 9.88972 130.62 10.0497 130.39C10.1997 130.16 10.3297 129.86 10.4197 129.49C10.5097 129.12 10.5597 128.67 10.5597 128.12ZM17.2797 128.12C17.2881 128.67 17.2208 129.218 17.0797 129.75C16.9397 130.21 16.7597 130.59 16.5297 130.89C16.2897 131.19 16.0197 131.41 15.6997 131.55C15.38 131.697 15.0317 131.772 14.6797 131.77C14.3227 131.78 13.9686 131.704 13.6468 131.549C13.3249 131.394 13.0448 131.165 12.8297 130.88C12.5997 130.58 12.4097 130.21 12.2797 129.75C12.1387 129.218 12.0714 128.67 12.0797 128.12C12.0714 127.57 12.1387 127.021 12.2797 126.49C12.4097 126.03 12.5997 125.65 12.8297 125.35C13.0432 125.062 13.3227 124.83 13.6447 124.674C13.9667 124.517 14.3217 124.44 14.6797 124.45C15.0358 124.452 15.3868 124.534 15.707 124.69C16.0272 124.845 16.3083 125.071 16.5297 125.35C16.7597 125.65 16.9397 126.03 17.0797 126.49C17.2208 127.021 17.2881 127.57 17.2797 128.12ZM16.3597 128.12C16.3597 127.57 16.3097 127.12 16.2197 126.74C16.1519 126.42 16.0265 126.115 15.8497 125.84C15.7249 125.644 15.5517 125.483 15.3469 125.372C15.1421 125.262 14.9123 125.206 14.6797 125.21C14.4462 125.207 14.2158 125.265 14.0109 125.377C13.806 125.489 13.6334 125.652 13.5097 125.85C13.3497 126.07 13.2297 126.37 13.1397 126.75C13.0397 127.11 12.9997 127.57 12.9997 128.12C12.9997 128.67 13.0497 129.12 13.1397 129.5C13.2297 129.87 13.3497 130.16 13.5097 130.39C13.6597 130.62 13.8397 130.78 14.0397 130.88C14.2377 130.976 14.4548 131.025 14.6747 131.025C14.8946 131.025 15.1117 130.976 15.3097 130.88C15.5097 130.78 15.6897 130.62 15.8497 130.39C15.9997 130.16 16.1297 129.86 16.2197 129.49C16.3097 129.12 16.3597 128.67 16.3597 128.12ZM5.26972 131.7V131.02H3.85972V124.52H3.12972L0.999716 126.37L1.27972 126.76C1.32415 126.816 1.38886 126.852 1.45972 126.86H1.56972C1.62077 126.852 1.66899 126.832 1.70972 126.8L2.97972 125.7L2.95972 126.14V131.03H1.42972V131.71H5.26972V131.7ZM5.99972 169.58C6.14078 169.048 6.20807 168.5 6.19972 167.95C6.20807 167.4 6.14078 166.851 5.99972 166.32C5.89026 165.908 5.70361 165.522 5.44972 165.18C5.23341 164.888 4.94826 164.655 4.61972 164.5C4.29997 164.353 3.95174 164.278 3.59972 164.28C3.24175 164.27 2.88674 164.347 2.56473 164.504C2.24271 164.66 1.96316 164.892 1.74972 165.18C1.51972 165.48 1.32972 165.86 1.19972 166.32C1.05866 166.851 0.99136 167.4 0.999716 167.95C0.99136 168.5 1.05866 169.048 1.19972 169.58C1.32972 170.04 1.51972 170.41 1.74972 170.71C1.96374 170.997 2.2434 171.228 2.56528 171.385C2.88716 171.541 3.24188 171.619 3.59972 171.61C3.95495 171.609 4.30549 171.529 4.62561 171.375C4.94573 171.221 5.22732 170.997 5.44972 170.72C5.67972 170.42 5.85972 170.04 5.98972 169.58H5.99972ZM5.12972 166.58C5.22972 166.94 5.27972 167.4 5.27972 167.95C5.27972 168.5 5.22972 168.95 5.12972 169.33C5.06076 169.646 4.93543 169.948 4.75972 170.22C4.62892 170.427 4.44617 170.596 4.22972 170.71C4.0317 170.806 3.81463 170.855 3.59472 170.855C3.37481 170.855 3.15774 170.806 2.95972 170.71C2.73959 170.597 2.55327 170.428 2.41972 170.22C2.24903 169.943 2.12725 169.638 2.05972 169.32C1.96 168.87 1.91302 168.41 1.91972 167.95C1.91972 167.4 1.96972 166.95 2.05972 166.57C2.14972 166.2 2.26972 165.9 2.41972 165.67C2.54545 165.472 2.72016 165.31 2.92691 165.2C3.13365 165.089 3.36542 165.034 3.59972 165.04C3.83328 165.037 4.06362 165.095 4.26855 165.207C4.47347 165.319 4.64607 165.482 4.76972 165.68C4.91972 165.9 5.03972 166.2 5.12972 166.58ZM59.5597 194.24C59.5296 194.21 59.4936 194.186 59.4541 194.171C59.4145 194.156 59.3722 194.148 59.3297 194.15H56.9297C56.8097 194.15 56.6797 194.17 56.5297 194.19C56.3946 194.212 56.2611 194.242 56.1297 194.28L58.0297 192.34L58.5897 191.75C58.7697 191.55 58.9297 191.35 59.0597 191.15C59.1997 190.94 59.3097 190.72 59.3897 190.49C59.5647 189.975 59.5469 189.413 59.3397 188.91C59.2375 188.67 59.0839 188.455 58.8897 188.28C58.6897 188.11 58.4697 187.98 58.1997 187.89C57.9255 187.8 57.6383 187.756 57.3497 187.76C57.0497 187.76 56.7597 187.8 56.4997 187.89C55.9791 188.064 55.5434 188.428 55.2797 188.91C55.1392 189.182 55.0478 189.476 55.0097 189.78L55.4797 189.85C55.5997 189.87 55.6997 189.86 55.7597 189.82C55.8297 189.79 55.8897 189.71 55.9297 189.59C55.9908 189.288 56.1531 189.017 56.3897 188.82C56.6534 188.626 56.9722 188.521 57.2997 188.52C57.4897 188.52 57.6597 188.55 57.8097 188.6C57.9627 188.648 58.1031 188.729 58.2207 188.838C58.3384 188.947 58.4302 189.081 58.4897 189.23C58.5597 189.38 58.5897 189.57 58.5897 189.78C58.5897 189.98 58.5597 190.18 58.4997 190.37C58.4373 190.559 58.3534 190.74 58.2497 190.91C58.1397 191.1 58.0097 191.28 57.8497 191.46L57.3297 192.01L55.0297 194.31C54.9291 194.411 54.8718 194.547 54.8697 194.69V195H59.6497V194.46C59.6505 194.419 59.6429 194.378 59.6274 194.341C59.612 194.303 59.5889 194.268 59.5597 194.24ZM65.6997 191.42C65.7081 191.97 65.6408 192.518 65.4997 193.05C65.3597 193.51 65.1797 193.88 64.9397 194.18C64.7097 194.48 64.4397 194.71 64.1097 194.85C63.79 194.997 63.4417 195.072 63.0897 195.07C62.7344 195.078 62.3822 195.002 62.0623 194.847C61.7423 194.692 61.4638 194.464 61.2497 194.18C61.0197 193.88 60.8297 193.51 60.6997 193.05C60.5587 192.518 60.4914 191.97 60.4997 191.42C60.4914 190.87 60.5587 190.321 60.6997 189.79C60.8297 189.33 61.0197 188.95 61.2497 188.65C61.4622 188.364 61.7401 188.133 62.0603 187.976C62.3804 187.82 62.7334 187.742 63.0897 187.75C63.4474 187.742 63.8019 187.82 64.1236 187.976C64.4453 188.133 64.7251 188.364 64.9397 188.65C65.1797 188.95 65.3597 189.33 65.4897 189.79C65.6297 190.25 65.6897 190.79 65.6897 191.42H65.6997ZM64.7697 191.42C64.7697 190.87 64.7297 190.42 64.6297 190.04C64.5619 189.72 64.4365 189.415 64.2597 189.14C64.1349 188.944 63.9617 188.783 63.7569 188.672C63.5521 188.562 63.3223 188.506 63.0897 188.51C62.8562 188.507 62.6258 188.565 62.4209 188.677C62.216 188.789 62.0434 188.952 61.9197 189.15C61.7697 189.37 61.6497 189.67 61.5497 190.05C61.4597 190.41 61.4197 190.87 61.4197 191.42C61.4197 191.97 61.4597 192.42 61.5497 192.8C61.6497 193.16 61.7697 193.46 61.9197 193.69C62.0797 193.92 62.2597 194.08 62.4597 194.18C62.6577 194.276 62.8748 194.325 63.0947 194.325C63.3146 194.325 63.5317 194.276 63.7297 194.18C63.9297 194.08 64.1097 193.92 64.2597 193.69C64.4197 193.46 64.5397 193.16 64.6297 192.79C64.7297 192.43 64.7697 191.97 64.7697 191.42ZM71.0997 195V194.32H69.6897V187.82H68.9597L66.8297 189.66L67.1097 190.05C67.1517 190.103 67.2125 190.139 67.2797 190.15H67.3997C67.4473 190.141 67.4919 190.12 67.5297 190.09L68.8097 188.99L68.7897 189.43V194.32H67.2597V195H71.0997ZM77.2197 188.24V187.84H72.3497V188.44C72.3497 188.498 72.3729 188.554 72.4142 188.595C72.4554 188.637 72.5114 188.66 72.5697 188.66H76.3097C76.1964 188.791 76.0991 188.936 76.0197 189.09L73.0197 195H73.6497C73.7797 195 73.8797 194.97 73.9497 194.91C74.0282 194.851 74.093 194.776 74.1397 194.69L77.1097 188.7L77.1797 188.51C77.2079 188.423 77.2214 188.331 77.2197 188.24ZM115.56 194.24C115.53 194.21 115.494 194.186 115.454 194.171C115.415 194.156 115.372 194.148 115.33 194.15H112.93C112.659 194.157 112.39 194.197 112.13 194.27L114.03 192.34L114.59 191.75C114.77 191.55 114.93 191.35 115.06 191.15C115.196 190.944 115.307 190.723 115.39 190.49C115.565 189.975 115.547 189.413 115.34 188.91C115.237 188.67 115.084 188.455 114.89 188.28C114.69 188.11 114.47 187.98 114.2 187.89C113.925 187.8 113.638 187.756 113.35 187.76C113.05 187.76 112.76 187.8 112.5 187.89C111.98 188.061 111.546 188.426 111.29 188.91C111.15 189.16 111.06 189.45 111.01 189.78L111.48 189.85C111.6 189.87 111.7 189.86 111.76 189.82C111.83 189.79 111.89 189.71 111.93 189.59C111.994 189.276 112.168 188.996 112.421 188.799C112.675 188.603 112.99 188.504 113.31 188.52C113.49 188.52 113.66 188.55 113.81 188.6C113.962 188.649 114.102 188.731 114.219 188.84C114.337 188.949 114.429 189.082 114.49 189.23C114.56 189.38 114.59 189.57 114.59 189.78C114.59 189.98 114.56 190.18 114.5 190.37C114.437 190.559 114.353 190.74 114.25 190.91C114.14 191.1 114 191.28 113.85 191.46L113.33 192.01L111.03 194.31C110.928 194.41 110.871 194.547 110.87 194.69V195H115.65V194.46C115.65 194.419 115.643 194.378 115.627 194.341C115.612 194.303 115.589 194.268 115.56 194.24ZM121.7 191.42C121.708 191.97 121.641 192.518 121.5 193.05C121.36 193.51 121.18 193.88 120.94 194.18C120.71 194.48 120.44 194.71 120.11 194.85C119.79 194.997 119.442 195.072 119.09 195.07C118.734 195.078 118.382 195.002 118.062 194.847C117.742 194.692 117.464 194.464 117.25 194.18C117.02 193.88 116.83 193.51 116.7 193.05C116.559 192.518 116.491 191.97 116.5 191.42C116.491 190.87 116.559 190.321 116.7 189.79C116.83 189.33 117.02 188.95 117.25 188.65C117.462 188.364 117.74 188.133 118.06 187.976C118.38 187.82 118.733 187.742 119.09 187.75C119.447 187.742 119.802 187.82 120.124 187.976C120.445 188.133 120.725 188.364 120.94 188.65C121.18 188.95 121.36 189.33 121.49 189.79C121.63 190.25 121.69 190.79 121.69 191.42H121.7ZM120.77 191.42C120.77 190.87 120.73 190.42 120.63 190.04C120.562 189.72 120.437 189.415 120.26 189.14C120.135 188.944 119.962 188.783 119.757 188.672C119.552 188.562 119.322 188.506 119.09 188.51C118.856 188.507 118.626 188.565 118.421 188.677C118.216 188.789 118.043 188.952 117.92 189.15C117.77 189.37 117.65 189.67 117.55 190.05C117.46 190.41 117.42 190.87 117.42 191.42C117.42 191.97 117.46 192.42 117.55 192.8C117.65 193.16 117.77 193.46 117.92 193.69C118.08 193.92 118.26 194.08 118.46 194.18C118.658 194.276 118.875 194.325 119.095 194.325C119.315 194.325 119.532 194.276 119.73 194.18C119.93 194.08 120.11 193.92 120.26 193.69C120.42 193.46 120.54 193.16 120.63 192.79C120.73 192.43 120.77 191.97 120.77 191.42ZM131.33 194.28C130.919 194.407 130.479 194.403 130.07 194.27C129.897 194.211 129.738 194.119 129.6 194C129.467 193.876 129.363 193.726 129.294 193.559C129.225 193.391 129.193 193.211 129.2 193.03C129.2 192.78 129.25 192.57 129.33 192.4C129.402 192.233 129.512 192.085 129.651 191.967C129.789 191.849 129.953 191.764 130.13 191.72C130.502 191.609 130.898 191.609 131.27 191.72C131.45 191.78 131.6 191.85 131.74 191.97C131.88 192.07 131.99 192.22 132.07 192.4C132.234 192.77 132.245 193.191 132.1 193.57C132.02 193.74 131.93 193.88 131.8 194C131.67 194.12 131.51 194.2 131.33 194.28ZM130.13 188.54C130.495 188.411 130.894 188.411 131.26 188.54C131.408 188.596 131.542 188.683 131.654 188.795C131.767 188.907 131.854 189.042 131.91 189.19C131.97 189.33 132 189.49 132 189.66C132.015 189.981 131.907 190.295 131.7 190.54C131.6 190.66 131.46 190.75 131.3 190.82C131.11 190.9 130.905 190.938 130.7 190.93C130.47 190.93 130.27 190.9 130.1 190.83C129.949 190.767 129.815 190.672 129.706 190.551C129.597 190.43 129.516 190.286 129.47 190.13C129.383 189.822 129.39 189.494 129.49 189.19C129.546 189.042 129.633 188.907 129.745 188.795C129.857 188.683 129.992 188.596 130.14 188.54H130.13ZM132.76 191.9C132.52 191.6 132.17 191.4 131.73 191.26C132.1 191.13 132.39 190.92 132.58 190.64C132.77 190.36 132.87 190.03 132.87 189.64C132.869 189.387 132.816 189.137 132.713 188.906C132.609 188.675 132.458 188.469 132.27 188.3C132.08 188.13 131.85 188 131.59 187.9C131.32 187.8 131.02 187.75 130.7 187.75C130.37 187.75 130.08 187.8 129.81 187.9C129.55 188 129.32 188.13 129.13 188.3C128.94 188.467 128.788 188.674 128.684 188.905C128.581 189.136 128.528 189.387 128.53 189.64C128.52 189.999 128.627 190.352 128.835 190.645C129.042 190.939 129.338 191.158 129.68 191.27C129.23 191.39 128.88 191.6 128.65 191.9C128.41 192.2 128.29 192.58 128.29 193.04C128.276 193.323 128.33 193.606 128.446 193.865C128.562 194.124 128.738 194.352 128.96 194.53C129.16 194.71 129.42 194.84 129.72 194.94C130.359 195.135 131.041 195.135 131.68 194.94C131.98 194.84 132.23 194.71 132.44 194.53C132.65 194.35 132.82 194.14 132.94 193.89C133.06 193.64 133.12 193.35 133.12 193.04C133.12 192.58 133 192.2 132.76 191.9ZM127.09 195V194.32H125.68V187.82H124.95L122.82 189.66L123.1 190.05L123.17 190.11C123.236 190.15 123.314 190.164 123.39 190.15C123.441 190.142 123.489 190.121 123.53 190.09L124.8 188.99L124.78 189.43V194.32H123.25V195H127.09ZM171.56 194.24C171.53 194.21 171.494 194.186 171.454 194.171C171.414 194.156 171.372 194.148 171.33 194.15H168.93C168.81 194.15 168.68 194.17 168.53 194.19L168.13 194.28L170.03 192.34L170.59 191.75C170.77 191.55 170.93 191.35 171.06 191.15C171.196 190.944 171.307 190.723 171.39 190.49C171.565 189.975 171.547 189.413 171.34 188.91C171.237 188.67 171.084 188.455 170.89 188.28C170.69 188.11 170.47 187.98 170.2 187.89C169.925 187.8 169.638 187.756 169.35 187.76C169.05 187.76 168.76 187.8 168.5 187.89C168.093 188.024 167.735 188.275 167.47 188.611C167.205 188.947 167.045 189.353 167.01 189.78L167.48 189.85C167.6 189.87 167.7 189.86 167.76 189.82C167.83 189.79 167.89 189.71 167.93 189.59C167.994 189.276 168.168 188.996 168.421 188.799C168.675 188.603 168.99 188.504 169.31 188.52C169.49 188.52 169.66 188.55 169.81 188.6C169.962 188.649 170.102 188.731 170.219 188.84C170.337 188.949 170.429 189.082 170.49 189.23C170.56 189.38 170.59 189.57 170.59 189.78C170.59 189.98 170.56 190.18 170.5 190.37C170.437 190.559 170.353 190.74 170.25 190.91C170.14 191.1 170 191.28 169.85 191.46L169.33 192.01L167.03 194.31C166.928 194.41 166.871 194.547 166.87 194.69V195H171.65V194.46C171.65 194.419 171.643 194.378 171.627 194.341C171.612 194.303 171.589 194.268 171.56 194.24ZM177.7 191.42C177.708 191.97 177.641 192.518 177.5 193.05C177.36 193.51 177.18 193.88 176.94 194.18C176.71 194.48 176.44 194.71 176.11 194.85C175.79 194.997 175.442 195.072 175.09 195.07C174.734 195.078 174.382 195.002 174.062 194.847C173.742 194.692 173.464 194.464 173.25 194.18C173.02 193.88 172.83 193.51 172.7 193.05C172.559 192.518 172.491 191.97 172.5 191.42C172.491 190.87 172.559 190.321 172.7 189.79C172.83 189.33 173.02 188.95 173.25 188.65C173.462 188.364 173.74 188.133 174.06 187.976C174.38 187.82 174.733 187.742 175.09 187.75C175.447 187.742 175.802 187.82 176.124 187.976C176.445 188.133 176.725 188.364 176.94 188.65C177.18 188.95 177.36 189.33 177.49 189.79C177.63 190.25 177.69 190.79 177.69 191.42H177.7ZM176.77 191.42C176.77 190.87 176.73 190.42 176.63 190.04C176.562 189.72 176.437 189.415 176.26 189.14C176.135 188.944 175.962 188.783 175.757 188.672C175.552 188.562 175.322 188.506 175.09 188.51C174.856 188.507 174.626 188.565 174.421 188.677C174.216 188.789 174.043 188.952 173.92 189.15C173.77 189.37 173.65 189.67 173.55 190.05C173.46 190.41 173.42 190.87 173.42 191.42C173.42 191.97 173.46 192.42 173.55 192.8C173.65 193.16 173.77 193.46 173.92 193.69C174.08 193.92 174.26 194.08 174.46 194.18C174.658 194.276 174.875 194.325 175.095 194.325C175.315 194.325 175.532 194.276 175.73 194.18C175.93 194.08 176.11 193.92 176.26 193.69C176.42 193.46 176.54 193.16 176.63 192.79C176.73 192.43 176.77 191.97 176.77 191.42ZM185.31 190.55C185.179 190.163 185.182 189.744 185.32 189.36C185.387 189.187 185.49 189.03 185.623 188.901C185.756 188.771 185.915 188.672 186.09 188.61C186.465 188.463 186.882 188.459 187.26 188.6C187.432 188.665 187.588 188.767 187.718 188.898C187.847 189.029 187.947 189.187 188.01 189.36C188.15 189.723 188.154 190.125 188.02 190.49C187.953 190.664 187.851 190.822 187.72 190.954C187.589 191.087 187.433 191.191 187.26 191.26C186.869 191.414 186.435 191.421 186.04 191.28C185.871 191.22 185.718 191.124 185.592 190.997C185.466 190.871 185.369 190.718 185.31 190.55ZM187.51 191.87L187.3 192.15L185.12 195H185.94C186.04 195 186.14 194.98 186.21 194.94C186.285 194.907 186.351 194.856 186.4 194.79L188.14 192.27C188.52 191.8 188.787 191.249 188.92 190.66C189.029 190.15 188.994 189.621 188.82 189.13C188.717 188.857 188.558 188.61 188.353 188.403C188.148 188.196 187.901 188.035 187.63 187.93C187.023 187.686 186.346 187.686 185.74 187.93C185.317 188.084 184.953 188.366 184.698 188.737C184.444 189.109 184.311 189.55 184.32 190C184.32 190.34 184.38 190.63 184.49 190.88C184.588 191.118 184.735 191.334 184.921 191.513C185.107 191.692 185.328 191.83 185.57 191.92C186.053 192.095 186.582 192.102 187.07 191.94C187.291 191.866 187.497 191.755 187.68 191.61L187.5 191.87H187.51ZM183.09 195V194.32H181.68V187.82H180.96L178.82 189.66L179.1 190.05L179.17 190.11C179.238 190.153 179.321 190.167 179.4 190.15C179.447 190.14 179.492 190.12 179.53 190.09L180.8 188.99L180.78 189.43V194.32H179.25V195H183.09ZM227.56 194.24C227.53 194.21 227.494 194.186 227.454 194.171C227.414 194.156 227.372 194.148 227.33 194.15H224.93C224.81 194.15 224.68 194.17 224.53 194.19L224.13 194.28L226.03 192.34L226.59 191.75C226.77 191.55 226.93 191.35 227.06 191.15C227.196 190.944 227.307 190.723 227.39 190.49C227.565 189.975 227.547 189.413 227.34 188.91C227.237 188.67 227.084 188.455 226.89 188.28C226.69 188.11 226.47 187.98 226.2 187.89C225.925 187.8 225.638 187.756 225.35 187.76C225.05 187.76 224.76 187.8 224.5 187.89C224.093 188.024 223.735 188.275 223.47 188.611C223.205 188.947 223.045 189.353 223.01 189.78L223.48 189.85C223.6 189.87 223.7 189.86 223.76 189.82C223.83 189.79 223.89 189.71 223.93 189.59C223.994 189.276 224.168 188.996 224.421 188.799C224.675 188.603 224.99 188.504 225.31 188.52C225.49 188.52 225.66 188.55 225.81 188.6C225.962 188.649 226.102 188.731 226.219 188.84C226.337 188.949 226.429 189.082 226.49 189.23C226.56 189.38 226.59 189.57 226.59 189.78C226.59 189.98 226.56 190.18 226.5 190.37C226.437 190.559 226.353 190.74 226.25 190.91C226.14 191.1 226 191.28 225.85 191.46L225.33 192.01L223.03 194.31C222.928 194.41 222.871 194.547 222.87 194.69V195H227.65V194.46C227.65 194.419 227.643 194.378 227.627 194.341C227.612 194.303 227.589 194.268 227.56 194.24ZM233.7 191.42C233.708 191.97 233.641 192.518 233.5 193.05C233.36 193.51 233.18 193.88 232.94 194.18C232.71 194.48 232.44 194.71 232.11 194.85C231.79 194.997 231.442 195.072 231.09 195.07C230.734 195.078 230.382 195.002 230.062 194.847C229.742 194.692 229.464 194.464 229.25 194.18C229.02 193.88 228.83 193.51 228.7 193.05C228.559 192.518 228.491 191.97 228.5 191.42C228.491 190.87 228.559 190.321 228.7 189.79C228.83 189.33 229.02 188.95 229.25 188.65C229.462 188.364 229.74 188.133 230.06 187.976C230.38 187.82 230.733 187.742 231.09 187.75C231.447 187.742 231.802 187.82 232.124 187.976C232.445 188.133 232.725 188.364 232.94 188.65C233.18 188.95 233.36 189.33 233.49 189.79C233.63 190.25 233.69 190.79 233.69 191.42H233.7ZM232.77 191.42C232.77 190.87 232.73 190.42 232.63 190.04C232.562 189.72 232.437 189.415 232.26 189.14C232.135 188.944 231.962 188.783 231.757 188.672C231.552 188.562 231.322 188.506 231.09 188.51C230.856 188.507 230.626 188.565 230.421 188.677C230.216 188.789 230.043 188.952 229.92 189.15C229.77 189.37 229.65 189.67 229.55 190.05C229.46 190.41 229.42 190.87 229.42 191.42C229.42 191.97 229.46 192.42 229.55 192.8C229.65 193.16 229.77 193.46 229.92 193.69C230.08 193.92 230.26 194.08 230.46 194.18C230.658 194.276 230.875 194.325 231.095 194.325C231.315 194.325 231.532 194.276 231.73 194.18C231.93 194.08 232.11 193.92 232.26 193.69C232.42 193.46 232.54 193.16 232.63 192.79C232.73 192.43 232.77 191.97 232.77 191.42ZM239.17 194.24C239.14 194.209 239.104 194.186 239.064 194.17C239.025 194.155 238.982 194.148 238.94 194.15H236.54C236.41 194.15 236.28 194.17 236.14 194.19C236 194.21 235.87 194.24 235.74 194.28L237.62 192.34L238.19 191.75C238.37 191.55 238.53 191.35 238.66 191.15C238.8 190.94 238.91 190.72 238.99 190.49C239.165 189.975 239.147 189.413 238.94 188.91C238.838 188.669 238.684 188.454 238.49 188.28C238.29 188.11 238.07 187.98 237.8 187.89C237.249 187.702 236.651 187.702 236.1 187.89C235.578 188.062 235.142 188.427 234.88 188.91C234.75 189.16 234.66 189.45 234.62 189.78L235.08 189.85C235.2 189.87 235.3 189.86 235.36 189.82C235.43 189.79 235.49 189.71 235.53 189.59C235.594 189.287 235.76 189.016 236 188.82C236.12 188.72 236.25 188.65 236.4 188.6C236.729 188.498 237.081 188.498 237.41 188.6C237.565 188.647 237.707 188.727 237.826 188.836C237.946 188.945 238.039 189.08 238.1 189.23C238.231 189.599 238.231 190.001 238.1 190.37C238.037 190.559 237.953 190.74 237.85 190.91C237.74 191.1 237.61 191.28 237.45 191.46L236.93 192.01L234.63 194.31C234.528 194.41 234.471 194.547 234.47 194.69V195H239.25V194.46C239.25 194.419 239.243 194.378 239.227 194.341C239.212 194.303 239.189 194.268 239.16 194.24H239.17ZM245.1 193.05C245.241 192.518 245.308 191.97 245.3 191.42C245.308 190.87 245.241 190.321 245.1 189.79C244.99 189.379 244.803 188.992 244.55 188.65C244.333 188.358 244.048 188.125 243.72 187.97C243.4 187.823 243.052 187.748 242.7 187.75C242.343 187.741 241.99 187.818 241.67 187.975C241.349 188.132 241.072 188.363 240.86 188.65C240.62 188.95 240.43 189.33 240.3 189.79C240.159 190.321 240.091 190.87 240.1 191.42C240.091 191.97 240.159 192.518 240.3 193.05C240.43 193.51 240.62 193.88 240.85 194.18C241.063 194.467 241.343 194.699 241.665 194.856C241.987 195.013 242.342 195.089 242.7 195.08C243.055 195.079 243.405 194.999 243.726 194.845C244.046 194.691 244.327 194.467 244.55 194.19C244.78 193.89 244.96 193.51 245.1 193.05ZM244.24 190.05C244.33 190.41 244.38 190.87 244.38 191.42C244.38 191.97 244.33 192.42 244.24 192.8C244.171 193.116 244.045 193.418 243.87 193.69C243.736 193.898 243.55 194.067 243.33 194.18C243.132 194.276 242.915 194.325 242.695 194.325C242.475 194.325 242.258 194.276 242.06 194.18C241.86 194.08 241.68 193.92 241.53 193.69C241.355 193.414 241.23 193.109 241.16 192.79C241.06 192.34 241.013 191.88 241.02 191.42C241.02 190.87 241.07 190.42 241.16 190.04C241.25 189.67 241.37 189.37 241.53 189.14C241.654 188.943 241.827 188.781 242.032 188.671C242.237 188.561 242.467 188.505 242.7 188.51C242.933 188.508 243.163 188.566 243.368 188.678C243.573 188.79 243.745 188.952 243.87 189.15C244.02 189.37 244.15 189.67 244.24 190.05ZM283.56 194.24C283.53 194.21 283.494 194.186 283.454 194.171C283.415 194.156 283.372 194.148 283.33 194.15H280.93C280.81 194.15 280.68 194.17 280.53 194.19L280.13 194.28L282.03 192.34L282.59 191.75C282.77 191.55 282.93 191.35 283.06 191.15C283.196 190.944 283.307 190.723 283.39 190.49C283.565 189.975 283.547 189.413 283.34 188.91C283.237 188.67 283.084 188.455 282.89 188.28C282.69 188.11 282.47 187.98 282.2 187.89C281.925 187.8 281.638 187.756 281.35 187.76C281.05 187.76 280.76 187.8 280.5 187.89C280.093 188.024 279.735 188.275 279.47 188.611C279.205 188.947 279.045 189.353 279.01 189.78L279.48 189.85C279.6 189.87 279.7 189.86 279.76 189.82C279.83 189.79 279.89 189.71 279.93 189.59C279.994 189.276 280.168 188.996 280.422 188.799C280.675 188.603 280.99 188.504 281.31 188.52C281.49 188.52 281.66 188.55 281.81 188.6C281.962 188.649 282.102 188.731 282.219 188.84C282.337 188.949 282.429 189.082 282.49 189.23C282.56 189.38 282.59 189.57 282.59 189.78C282.59 189.98 282.56 190.18 282.5 190.37C282.437 190.559 282.353 190.74 282.25 190.91C282.14 191.1 282 191.28 281.85 191.46L281.33 192.01L279.03 194.31C278.928 194.41 278.871 194.547 278.87 194.69V195H283.65V194.46C283.65 194.419 283.643 194.378 283.627 194.341C283.612 194.303 283.589 194.268 283.56 194.24ZM289.7 191.42C289.708 191.97 289.641 192.518 289.5 193.05C289.36 193.51 289.18 193.88 288.94 194.18C288.71 194.48 288.44 194.71 288.11 194.85C287.79 194.997 287.442 195.072 287.09 195.07C286.734 195.078 286.382 195.002 286.062 194.847C285.742 194.692 285.464 194.464 285.25 194.18C285.02 193.88 284.83 193.51 284.7 193.05C284.559 192.518 284.491 191.97 284.5 191.42C284.491 190.87 284.559 190.321 284.7 189.79C284.83 189.33 285.02 188.95 285.25 188.65C285.462 188.364 285.74 188.133 286.06 187.976C286.38 187.82 286.733 187.742 287.09 187.75C287.447 187.742 287.802 187.82 288.124 187.976C288.445 188.133 288.725 188.364 288.94 188.65C289.18 188.95 289.36 189.33 289.49 189.79C289.63 190.25 289.69 190.79 289.69 191.42H289.7ZM288.77 191.42C288.77 190.87 288.73 190.42 288.63 190.04C288.562 189.72 288.437 189.415 288.26 189.14C288.135 188.944 287.962 188.783 287.757 188.672C287.552 188.562 287.322 188.506 287.09 188.51C286.856 188.507 286.626 188.565 286.421 188.677C286.216 188.789 286.043 188.952 285.92 189.15C285.77 189.37 285.65 189.67 285.55 190.05C285.46 190.41 285.42 190.87 285.42 191.42C285.42 191.97 285.46 192.42 285.55 192.8C285.65 193.16 285.77 193.46 285.92 193.69C286.08 193.92 286.26 194.08 286.46 194.18C286.658 194.276 286.875 194.325 287.095 194.325C287.315 194.325 287.532 194.276 287.73 194.18C287.93 194.08 288.11 193.92 288.26 193.69C288.42 193.46 288.54 193.16 288.63 192.79C288.73 192.43 288.77 191.97 288.77 191.42ZM295.17 194.24C295.139 194.208 295.101 194.184 295.06 194.168C295.018 194.152 294.974 194.146 294.93 194.15H292.53C292.41 194.15 292.28 194.17 292.14 194.19C292 194.21 291.87 194.24 291.74 194.28L293.62 192.34L294.19 191.75C294.548 191.395 294.821 190.965 294.99 190.49C295.165 189.975 295.147 189.413 294.94 188.91C294.838 188.669 294.684 188.454 294.49 188.28C294.29 188.11 294.07 187.98 293.8 187.89C293.249 187.702 292.651 187.702 292.1 187.89C291.578 188.062 291.142 188.427 290.88 188.91C290.75 189.16 290.66 189.45 290.62 189.78L291.08 189.85C291.2 189.87 291.3 189.86 291.37 189.82C291.43 189.79 291.49 189.71 291.53 189.59C291.594 189.287 291.76 189.016 292 188.82C292.12 188.72 292.25 188.65 292.4 188.6C292.729 188.498 293.081 188.498 293.41 188.6C293.565 188.647 293.707 188.727 293.826 188.836C293.946 188.945 294.039 189.08 294.1 189.23C294.231 189.599 294.231 190.001 294.1 190.37C294.037 190.559 293.953 190.74 293.85 190.91C293.74 191.1 293.61 191.28 293.45 191.46L292.93 192.01L290.63 194.31C290.528 194.41 290.471 194.547 290.47 194.69V195H295.25V194.46C295.252 194.42 295.246 194.38 295.232 194.342C295.218 194.304 295.197 194.269 295.17 194.24ZM300.89 195V194.32H299.49V187.82H298.76L296.62 189.66L296.9 190.05L296.97 190.11C297.038 190.153 297.121 190.167 297.2 190.15C297.247 190.14 297.292 190.12 297.33 190.09L298.6 188.99L298.59 189.43V194.32H297.05V195H300.89Z" fill="#92999E"/>
</g>
</g>
<defs>
<clipPath id="clip0_2226_1834">
<rect width="320" height="200" fill="white"/>
</clipPath>
</defs>
</svg>
