<svg width="320" height="200" viewBox="0 0 320 200" fill="none" xmlns="http://www.w3.org/2000/svg">
<g clip-path="url(#clip0_2220_3216)">
<mask id="mask0_2220_3216" style="mask-type:luminance" maskUnits="userSpaceOnUse" x="0" y="0" width="320" height="200">
<path d="M0 0H320V200H0V0Z" fill="white"/>
</mask>
<g mask="url(#mask0_2220_3216)">
<mask id="mask1_2220_3216" style="mask-type:luminance" maskUnits="userSpaceOnUse" x="-54" y="-13" width="377" height="232">
<path d="M-45.3701 -12.7898L322.446 1.66174L313.922 218.624L-53.8946 204.173L-45.3701 -12.7898Z" fill="white"/>
</mask>
<g mask="url(#mask1_2220_3216)">
<path d="M304.2 57.3999L304.09 57.3299V57.4399L304.19 57.4099L304.2 57.3999ZM303.16 56.3999L303.41 56.2999V56.1599L303.16 56.3999ZM307.69 53.7899L307.68 53.2899L307.62 52.9899L307.69 53.7899ZM292.24 49.4899L291.98 49.5899L289.92 50.1199L289.2 50.3399L288.37 50.5599L288.08 50.6599V50.7599L288.11 52.6199L288.15 54.3399L288.2 55.9199L288.37 56.0399L289.02 55.8799L291.95 55.1399L292.01 55.3199L297.23 53.5499L297.26 53.6299L297.73 53.4699L299.4 52.8899L300.9 54.8399L301.12 54.6699L301.25 54.1399L301.18 54.9999L301.53 55.0099L301.63 55.4499L301.92 56.0699L303.68 54.0899L305.05 54.6099L305.4 53.9099L307.73 52.7899L306.84 50.8499L307.04 52.0799L305.84 52.9299L304.51 52.9799L301.98 50.0499L300.87 48.2199L302.1 47.0199L300.88 46.8899L300.43 45.6899L300.4 45.6199L298.28 47.7599L293.72 49.0799L292.24 49.4899Z" fill="#B7BCBF" fill-opacity="0.3"/>
<path d="M159.03 22.4898L159.64 25.0498L160.79 34.2698L161.36 37.9398L161.44 41.1698L162.19 43.1298L162.3 44.7798L162.43 45.3198L162.39 45.4198L160.87 47.7298L161.73 49.3398L163.03 61.9998V63.6498L164.82 63.6098L171.87 63.4898L189.49 62.7198L191.25 62.5998V62.4298L190.86 59.6498L188.73 58.4598L187.09 56.5998L184.44 54.8498L183.58 54.7498L182.3 53.6998L182.85 48.7798L181.65 47.5798L182.15 45.5998L184.52 43.6098L184.29 39.3098L185.15 38.4098L188.05 35.5898L191.39 31.6398L192.64 30.8298L194.82 29.8698L197.13 28.2798L195.63 28.5098L194.76 27.7898L191.31 28.1198L190.81 27.4598L187.68 28.5898L185.26 27.4598L184.61 26.6098L182.64 26.6698L181.34 25.9398L181.8 25.4598L180.14 24.8598L178.64 24.7998L176.21 25.7398L175.77 25.0098L172.01 24.3198L170.85 21.0498L170.75 20.0798L169.12 19.5498L169.15 22.3098L164.79 22.4598H159.39L159.03 22.4898Z" fill="#B7BCBF" fill-opacity="0.3"/>
<path d="M124.88 20.8199L113.08 19.5699L104.52 18.4099L95.99 17.0699L90.69 16.1499L82.25 14.4899L78.03 13.6099L68.61 11.4099L67.61 11.1599L65.79 18.3999L66.42 19.7399L66.88 21.7999L66.54 22.0799L67.14 23.9599L68.04 24.7899L70.51 29.3199L70.73 30.0799L71.81 30.0499L70.33 35.8699L69.83 35.9899L69.07 37.9299L72.59 38.3299L72.81 39.9799L74.62 44.9499L74.97 45.2499L76.25 48.1699L76.62 47.8999L79.58 47.9799L83.31 48.5199L84.29 47.3399L85.32 49.3799L85.52 49.4999L85.57 49.2899L86.21 45.7999L98.36 47.7799L108.07 49.0999L113.2 49.7299L122.35 50.6299L122.81 50.6799H122.91L122.97 50.1799L123.17 47.7199L123.45 44.4699L123.52 43.6499L123.64 42.2199L124.66 31.0199L125.46 22.3199L125.56 20.8899L124.87 20.8199H124.88Z" fill="#B7BCBF" fill-opacity="0.3"/>
<path d="M158.281 22.4599L147.481 22.2499L139.961 21.9199L133.501 21.5199L125.941 20.9399L125.551 20.8899L125.461 22.3099L124.661 31.0199L123.641 42.2199L123.521 43.6499L124.911 43.7799L140.631 44.8299L155.171 45.2899L161.211 45.3499L162.431 45.3199L162.301 44.7799L162.191 43.1299L161.441 41.1699L161.361 37.9399L160.781 34.2699L159.641 25.0499L159.031 22.4899L158.281 22.4599Z" fill="#B7BCBF" fill-opacity="0.3"/>
<path d="M106.16 188.74L105.08 187.87L104.11 188.09L104.25 190.09L102.86 191.69L103.9 194.34L104.12 197.04L105.41 197.94L106.28 196.66L107.78 195.64L109.58 195.24L111.62 193.64L109.75 191.92V190.92L106.16 188.74ZM99.7802 185.59L99.2602 185.1L98.7302 185.76L99.7802 185.59ZM97.1602 183.94L97.3602 182.63L96.6802 182.49L97.1602 183.94ZM99.4902 181.85L98.8702 182.12L99.2502 183.49L100.17 183.59L100.42 184.79L101.4 185.26L103.65 184.31L101.65 182.51L99.4902 181.85ZM94.9902 180.21L94.6202 181.16L96.1602 181.18L97.5702 181.6L96.8702 180.39L94.9802 180.21H94.9902ZM90.5901 177.21L89.8002 176.39L88.1802 177.54L89.1102 179.44L89.8502 178.72L91.8702 179.22L91.7302 178.36L90.5901 177.21ZM74.6602 175L74.8902 174.5L75.5102 174.2L74.6602 175ZM80.4602 171.96L77.9302 172.8L77.6502 173.46L78.6202 174.22L80.0002 174.63L81.0802 172.7L80.4602 171.96ZM63.4102 164.71V164.67H63.3402L63.4102 164.7V164.71ZM44.6702 159.28V159.35H44.7002L44.6702 159.28ZM34.1302 156.14H34.0602V156.18L34.1302 156.14ZM23.5002 146.45L23.4702 146.35V146.38L23.5002 146.45ZM-0.649845 137.66L-0.749844 137.76L-0.689842 137.8L-0.649845 137.66ZM-40.0898 111.33L-39.9898 111.3V111.23L-40.0898 111.33Z" fill="#B7BCBF" fill-opacity="0.3"/>
<path d="M67.58 11.1597L64.43 10.3897L63.4 10.0997L62.94 9.97974L58.07 28.4797L58.19 30.0197L57.99 31.6197L58.04 31.9897V32.6997L59.21 34.0697L57.29 38.3997L53.39 43.1197L53.24 44.0097L54.12 46.3297L50.17 60.2897L50 61.0297L51 61.2897L61.02 63.6897L65.02 64.5897L66.05 64.8097L67.05 65.0297L72.15 66.0597L81.31 67.8097L82.34 67.9997L82.53 66.8197L82.93 64.5197L84.52 55.2597L85.34 50.6797L85.53 49.4997L85.32 49.3897L84.29 47.3397L83.31 48.5197L79.58 47.9797L76.62 47.8997L76.25 48.1697L74.97 45.2597L74.62 44.9597L72.82 39.9797L72.59 38.3197L69.07 37.9297L69.82 35.9897L70.32 35.8697L71.81 30.0597L70.73 30.0897L70.51 29.3197L68.05 24.7897L67.15 23.9597L66.55 22.0797L66.88 21.7997L66.42 19.7497L65.79 18.3997L67.61 11.1597H67.58Z" fill="#B7BCBF" fill-opacity="0.3"/>
<path d="M24.2005 18.3698L24.2705 17.7698L24.2005 17.7998V18.3698ZM31.9405 15.4198L32.1705 15.0698L31.9205 15.0198L31.9405 15.4198ZM31.2905 14.7498L31.5305 14.0498L31.3205 13.9598L31.2905 14.7498ZM33.9305 13.8098V13.0998L33.2805 13.9998L33.9305 13.8098ZM34.0605 12.3098L34.2005 11.6098L34.1405 11.4198L34.0605 12.3198V12.3098ZM34.3105 8.80984L34.2905 8.41984L34.1505 8.37984L34.3105 8.81984V8.80984ZM35.5405 6.50984L35.2205 6.44984L34.5405 7.42984L35.5405 6.49984V6.50984ZM34.6905 5.50984L34.8705 5.35984L34.9105 5.25984L34.6905 5.49984V5.50984ZM34.5105 5.60984L34.4305 4.87984L34.0805 5.47984L34.5105 5.59984V5.60984ZM34.3705 4.58984L34.0505 4.43984L34.2905 4.79984L34.3705 4.59984V4.58984ZM35.4105 5.23984L35.4305 4.77984L35.3205 4.94984L35.4205 5.24984L35.4105 5.23984ZM35.7505 4.78984L35.6205 4.67984H35.5805L35.7505 4.78984ZM33.7505 3.91984L33.5805 3.76984L33.5105 3.73984L33.7505 3.91984ZM35.0805 3.82984L34.1005 4.04984L34.3505 4.12984L35.0805 3.82984ZM34.2905 3.72984L34.1205 3.50984L34.0905 3.53984L34.2905 3.72984ZM35.0605 3.32984H34.9205L35.0905 3.39984L35.0605 3.32984ZM27.3405 21.3998L28.5805 22.8398L28.2605 25.5198L28.4805 26.1998L30.3705 27.3198L35.7705 28.0298L35.9705 28.6798L38.5305 28.8198L40.9505 29.2398L44.9305 28.9598L46.8805 29.3598L47.4205 29.1298L57.3705 31.8198L58.0405 31.9798L57.9805 31.6198L58.1805 30.0198L58.0705 28.4798L62.9405 9.97984L62.3705 9.84984L54.1005 7.54984L46.8905 5.40984L38.7305 2.78984L36.2905 2.08984L36.7405 5.21984L36.1605 6.19984L35.2205 5.65984L35.9805 10.0298L34.9205 11.4198L34.4105 12.7198L34.3505 14.0798L32.1905 15.4598L31.3205 14.8598L30.4505 15.2598L32.1005 13.2798L31.6505 14.6598L32.5805 13.7298L33.2805 13.8998L33.1405 12.0998L33.6105 12.1898L34.6505 10.0898L34.3505 9.74984L33.0305 11.3098H32.2105L33.1405 10.3498L34.1505 10.1298L33.8605 8.29984L32.8705 7.99984L32.4105 7.12984L31.7905 7.42984L28.5605 5.86984L25.7605 3.49984L24.8905 5.64984L24.7805 6.57984L25.3205 8.24984L24.7205 13.5598L24.4005 14.3698L26.0005 14.5698L24.3505 15.6598L25.1905 16.1198L24.4205 18.3798L24.1705 16.5798L23.4805 18.6298L24.2705 19.6698L25.1705 19.6298L26.2105 20.3098L26.7105 21.3698L27.3405 21.3998Z" fill="#B7BCBF" fill-opacity="0.3"/>
<path d="M87.0796 106.75L75.0996 104.77L68.6796 103.59L59.5296 101.76L58.5996 101.58V101.66L56.7596 108.53L55.9396 108.46L54.7396 107.3L53.1096 108.57L52.8496 114.25L52.2296 115.45V115.58L52.1196 116.48L53.2396 119.88L54.2896 121.43L52.2396 122.53L51.3996 123.97L49.9896 127.07L49.3396 127.18L49.1996 129.79L50.2796 130.66L49.6396 132.21L48.3596 132.23L47.5596 133.59L50.0596 135.3L54.8096 138.21L69.4896 146.77L82.1396 148.84L82.2796 148.85L83.6896 138.35L84.0496 135.75L87.8096 108.17L88.0096 106.89L87.0796 106.75Z" fill="#B7BCBF" fill-opacity="0.3"/>
<path d="M25.1798 124.2L25.2898 124.98V125.13L25.1798 124.19V124.2ZM20.0498 120.91L20.2798 121.46L20.4198 121.43L20.0498 120.91ZM26.2998 121.05L26.3698 121.98L26.9998 122.48L26.2998 121.05ZM22.1798 115.8L21.7898 115.68L22.1098 115.83L22.1798 115.8ZM18.2598 114.57L17.2698 115.11L17.5098 115.37L18.2598 114.57ZM16.4298 113.82L16.3498 114.1L16.6698 114.19L16.4298 113.82ZM19.5498 114.66L21.0798 115.61L21.3798 115.38L19.5498 114.66ZM12.4198 82.9998L12.3898 82.8998L12.3798 83.0398L12.4198 82.9998ZM34.0798 56.6698L32.6998 56.2698L17.5898 51.4398L11.9798 49.4998V49.6498L11.5098 53.1698L9.84984 57.2998L7.22984 60.2998L7.08984 61.8798L8.21984 64.1098L8.71984 66.9898L7.76984 69.2898L7.81984 71.6098L7.35984 72.5598L8.68984 75.7998L9.57984 77.0498L9.36984 80.5198L11.4998 82.7198L12.8698 80.6198L14.2198 81.7798L14.7698 81.2998L12.8298 81.5898L12.7298 83.4098L13.0298 85.7098L11.9998 84.6398L11.4398 83.2198L11.1898 85.1498L11.5398 88.9898L13.4398 91.5398L12.0498 93.1998L12.1798 95.3998L13.5198 97.6598L15.7498 104.63L16.5198 105.09L16.0898 109.83L16.4598 110.42L21.7398 112.56L23.3098 114.38L23.8398 115.54L25.3698 116.5L27.0698 116.89L27.7098 118.89L29.1098 119.62L31.1598 122.24L33.0198 125.64L32.7598 128.71L33.8098 130.22L48.3598 132.22L49.6398 132.21L50.2798 130.65L49.1998 129.79L49.3398 127.19L49.9898 127.06L51.3898 123.96L52.2398 122.53L54.2898 121.43L53.2398 119.89L52.1198 116.48L52.2198 115.58V115.55L51.3498 114.26L48.6498 110.32L43.4098 102.32L36.1398 90.9198L32.0198 84.7198L28.0398 78.4698L33.7098 58.0298L34.0798 56.6798V56.6698Z" fill="#B7BCBF" fill-opacity="0.3"/>
<path d="M131.06 88.4199L131.48 81.4199L129.77 81.2799L121.07 80.6199L120.21 80.5499L119.5 80.4899L108.92 79.3899L101.88 78.5399L93.09 77.3399L92.24 77.1899L92.1 78.1199L89.44 96.6699L88.5 103.15L88.1 105.97L88 106.89L89.1 107.04L107.04 109.32L114.94 110.14L122.82 110.8L123.96 110.88L124.67 110.95L126.17 111.05L126.88 111.11L129.13 111.27L129.7 111.29L129.73 110.57L130.86 91.6699L130.98 89.5699L131.01 88.8899L131.06 88.4199Z" fill="#B7BCBF" fill-opacity="0.3"/>
<path d="M58.83 100.45L63.44 77.4499L65.79 65.9499L66.05 64.8099L65.02 64.5899L61.02 63.6899L50.99 61.2899L50 61.0299L49 60.7799L44.02 59.4799L35.07 56.9799L34.08 56.6799L33.71 58.0299L28.04 78.4699L32.02 84.7099L36.14 90.9299L43.41 102.31L48.64 110.32L51.34 114.26L52.23 115.55V115.45L52.85 114.25L53.11 108.56L54.73 107.3L55.93 108.46L56.76 108.53L58.6 101.65V101.58L58.83 100.45Z" fill="#B7BCBF" fill-opacity="0.3"/>
<path d="M123.74 113.67L123.82 112.74L123.89 111.81L123.96 110.88L122.82 110.8L114.94 110.13L107.04 109.33L89.1 107.04L88 106.89L87.8 108.17L84.05 135.74L83.69 138.34L82.29 148.85L82.42 148.89L87.33 149.55L87.89 147.06L88.81 146.38L98.78 147.68H98.85L98.02 145.88L102.55 146.38L113.84 147.48L120.89 148.08L123.42 114.58L123.67 114.63L123.74 113.67Z" fill="#B7BCBF" fill-opacity="0.3"/>
<path d="M11.9796 49.5099L17.5796 51.4499L32.6996 56.2699L34.0796 56.6799L35.0696 56.9799L44.0196 59.4799L49.0096 60.7799L49.9996 61.0299L50.1696 60.2899L54.1196 46.3299L53.2396 44.0099L53.3796 43.1099L57.2796 38.4099L59.2096 34.0699L58.0496 32.6999L58.0396 32.0199V31.9999L57.3696 31.8299L47.4196 29.1399L46.8796 29.3699L44.9296 28.9699L40.9496 29.2499L38.5296 28.8299L35.9596 28.6899L35.7696 28.0399L30.3696 27.3299L28.4696 26.2199L28.2596 25.5199L28.5796 22.8499L27.3396 21.4099L27.2396 21.4399L26.9796 21.6099L25.2296 20.6099L24.1496 20.8899L23.4496 20.4999L22.5796 23.5499L22.0396 24.3899L19.6196 29.6899L18.8596 32.6399L18.4596 32.6599L16.1996 37.5099L14.7296 39.5699L14.2096 39.9099L12.8296 42.3599L12.4796 44.9999L11.5996 47.3199L11.9796 49.4899V49.5199V49.5099ZM26.1896 20.6699L26.0896 20.3499L26.0496 20.5999L26.1896 20.6699Z" fill="#B7BCBF" fill-opacity="0.3"/>
<path d="M81.2996 67.8098L72.1496 66.0598L67.0496 65.0298L66.0496 64.8098L65.7896 65.9498L63.4396 77.4598L58.8296 100.45L58.5996 101.58L59.5296 101.76L68.6796 103.59L75.0996 104.77L87.0796 106.75L87.9996 106.89L88.0996 105.97L88.4996 103.15L89.4396 96.6698L92.0996 78.1198L92.2396 77.1898L91.5296 77.0898L82.4696 75.6298L81.0796 75.3898L82.2496 68.4598L82.3396 67.9998L81.3096 67.8098H81.2996Z" fill="#B7BCBF" fill-opacity="0.3"/>
<path d="M121.58 64.6698L122.08 59.0998L122.74 51.5998L122.81 50.6798L122.35 50.6198L113.19 49.7198L108.07 49.0998L98.3703 47.7798L86.2003 45.7998L85.5603 49.2898L85.5203 49.4998L85.3203 50.6798L84.5103 55.2598L82.9303 64.5098L82.5203 66.8198L82.3203 67.9998L82.2403 68.4598L81.0703 75.3998L82.4603 75.6298L91.5203 77.0898L92.2203 77.1898L93.0803 77.3298L101.87 78.5298L108.91 79.3898L119.49 80.4898L120.2 80.5498L120.27 79.6198L120.6 75.8698L121.18 69.3398L121.43 66.5598L121.5 65.6298L121.57 64.6698H121.58Z" fill="#B7BCBF" fill-opacity="0.3"/>
<path d="M203.88 118.03L200 118.45L201.67 116.01L201.05 114.59L187.39 115.38L175.86 115.86L174.18 115.9L174.35 116.9L175.46 124.18L175.44 125.79V135.54L175.42 137.14L175.52 137.19L176.04 137.78L178.19 137.79L178.28 140.95L178.31 141.85L179.42 141.78L182.82 141.66L196.33 140.94H196.4V140.15L196.77 139.92L196.17 138.68L197.75 133.01L197.25 132.35L199.37 130.17L199.3 128.24L200.9 125.79V125.76L200.83 125.68L202.16 124.55L201.86 123.11L202.92 121.58L202.76 120.1L203.92 118.07V118.03H203.88Z" fill="#B7BCBF" fill-opacity="0.3"/>
<path d="M195.12 69.5999L193.2 68.4799L192.19 66.9799L191.91 64.8499L192.23 63.8999L191.25 62.5999L189.49 62.7199L171.87 63.4899L164.82 63.6099L163.03 63.6499H162.28L162.73 67.6499L162.16 69.5199L162.9 70.7299L162.89 70.9799L163.14 71.0299L164.14 74.4299L165.18 76.2299V78.2299L166.32 79.9599L166.08 80.6599L167.01 85.2199V85.3199L174.34 85.3999L182.18 85.0199L189.9 84.3599L191.59 85.9599L191.65 86.0399L191.98 85.9099L191.78 84.5099L193.14 83.7299L193.82 80.1099L193.29 79.8399L193.69 77.9899L195.3 77.7299L197.14 76.5199L198.01 74.2899L198.09 73.1499L196.72 71.7399L196.32 70.8599L195 69.9499L195.08 69.7699L195.12 69.5999Z" fill="#B7BCBF" fill-opacity="0.3"/>
<path d="M174.11 111.2L173.81 96.0499L172.24 95.0499L172.13 94.3299L170.89 93.1299L172.19 91.6499L171.73 90.7399H170.8L169.97 90.0899L169.62 89.7899L168.41 89.8199L155.21 89.7999L149.17 89.6999L137.17 89.2399L132.37 88.9799L131.01 88.8799L130.98 89.5699L130.86 91.6699L129.73 110.57L129.7 111.29L131.23 111.39L139.51 111.82L158.91 112.29L172.75 112.19L174.11 112.14V111.2Z" fill="#B7BCBF" fill-opacity="0.3"/>
<path d="M191.59 85.9699L189.89 84.3599L182.19 85.0199L174.34 85.3999L167.01 85.3199L166.97 85.5399L167.79 87.2899L168.59 87.8899L169.49 89.6399L169.62 89.7899L169.97 90.0899L170.8 90.7399H171.73L172.2 91.6399L170.89 93.1399L172.13 94.3399L172.24 95.0499L173.81 96.0499L174.11 111.2V112.14L174.15 113.07V114L174.18 114.97V115.9L175.86 115.86L187.39 115.38L201.05 114.59L201.67 116.01L200 118.45L203.88 118.03H203.92V117.75L204.06 116.11L204.81 115.24L204.64 114.23L204.6 114.19L204.57 114.16L204.73 113.7L204.94 113.78L205.04 114.07L205 114.17V114.21L204.99 114.49L205.13 114.54L205.43 114.19V114.15L205.47 114.05L206.42 113.51L206.56 113.45L207 110.53L206.93 110.38L206.83 110.34L204.37 108.17L204.8 107.43L204.16 105.37L202.92 104.31L200.53 103.15L199.04 101.83L199.32 99.2699L199.88 96.8899L197.31 96.9299L196.55 96.0799L196.26 94.4199L192.32 90.8199L191.31 87.5999L191.65 86.0399L191.59 85.9699Z" fill="#B7BCBF" fill-opacity="0.3"/>
<path d="M162.21 70.8799L161.15 69.7299L157.3 68.4299L156.05 68.3499L154.14 68.8099L151.94 67.2899L144.91 67.0899L134.67 66.5799L122.58 65.7099L121.51 65.6299L121.44 66.5599L121.19 69.3399L120.61 75.8699L120.28 79.6199L120.21 80.5499L121.07 80.6199L129.77 81.2799L131.47 81.4199L131.06 88.4199L131.01 88.8899L132.36 88.9699L137.18 89.2399L149.18 89.7099L155.21 89.7999L168.41 89.8199L169.62 89.7899L169.49 89.6399L168.59 87.8899L167.79 87.2899L166.97 85.5399L167.01 85.3199V85.2199L166.08 80.6699L166.32 79.9599L165.18 78.2299V76.2299L164.15 74.4299L163.13 71.0299L162.89 70.9799L162.21 70.8799Z" fill="#B7BCBF" fill-opacity="0.3"/>
<path d="M174.18 114.97L174.15 114V113.07L174.11 112.14L172.75 112.19L158.91 112.29L139.51 111.81L131.23 111.38L129.7 111.28L129.13 111.26L126.88 111.1L126.17 111.04L124.67 110.94L123.96 110.88L123.89 111.81L123.81 112.74L123.74 113.67L123.67 114.63H123.88L132.51 115.19L141.65 115.66L141.28 127.89L141.84 130.06L143.21 131.48L144.74 131.61L145.09 130.98L147.12 132.99L149.86 133.39L150.34 133.98L151.35 133.55L153.81 134.83L153.78 135.51H154.71L155.71 134.72L157.45 135.94L159.1 136.61L160.3 135.08L163.88 136.94L165.28 135.89L166.4 135.5L167.29 135.75L170.69 134.92L172.44 135.74L174 136.84L175.39 137.14H175.42L175.45 135.54L175.44 125.8L175.46 124.19L174.36 116.91L174.18 115.9V114.97Z" fill="#B7BCBF" fill-opacity="0.3"/>
<path d="M161.2 45.3499L155.17 45.2899L140.63 44.8299L124.91 43.7799L123.51 43.6499L123.45 44.4699L123.18 47.7199L122.98 50.1799L122.92 50.6799H122.82L122.74 51.6099L122.09 59.1099L121.59 64.6699L121.51 65.6299L122.58 65.7099L134.67 66.5799L144.91 67.0799L151.95 67.2899L154.14 68.8099L156.05 68.3499L157.3 68.4299L161.15 69.7299L162.21 70.8799L162.89 70.9799V70.7299L162.16 69.5199L162.73 67.6399L162.28 63.6499H163.03V61.9999L161.73 49.3399L160.87 47.7399L162.39 45.4299L162.43 45.3299L161.21 45.3499H161.2Z" fill="#B7BCBF" fill-opacity="0.3"/>
<path d="M201.3 170.03L200.84 170.13L200.62 170.33L201.31 170.03H201.3ZM202.8 170.09L202.56 169.97L202.49 170.07L202.81 170.09H202.8ZM203.68 169.84L203.43 169.83L203.28 170L203.68 169.84ZM203.26 169.57L203.19 169.47L203.15 169.57H203.25H203.26ZM206.19 167.79L206.08 167.86H206.26L206.19 167.79ZM211.27 165.88L211.49 165.6L211.23 165.9L211.27 165.87V165.88ZM212.02 164.98L211.95 165.01V165.04L212.02 164.97V164.98ZM193.54 167.4L194.11 166.74L192.66 166.29L192 166.8L193.54 167.4ZM208.48 164.87L208.35 164.72L208.31 164.79L208.48 164.87ZM208.9 164.24L208.55 164.12L208.65 164.48L208.9 164.24ZM212.59 163.31L212.55 163.28L212.58 163.35V163.31H212.59ZM212.3 163.23L212.23 163.19L212.19 163.29L212.3 163.23ZM209.8 163.03L210.13 162.93V162.83L209.81 163.03H209.8ZM210 162.85L210.18 162.68L210.14 162.64L209.99 162.85H210ZM208.8 161.48L208.72 161.55H208.76L208.79 161.48H208.8ZM196.4 140.94H196.33L182.83 141.66L179.43 141.78L178.31 141.84V142.7L178.76 149.63L179.87 151.33V152.29L180.93 154.34L181.75 157.3L181.36 158.93L180.96 163L180.36 164.3H180.44L180.51 165.24L179.87 166.07L184.31 165.75L187.74 166.85L190.19 167.27L191.47 166.42L190.83 165.5L193.14 164.88L193.04 165.66L194.24 165.42L195.14 166.96L195.97 166.71L198.05 168.26L196.71 168.66L199.71 169.68L200.86 169.73L201.56 168.93L203.06 168.2L204.04 169.75L204.81 168.41L204.67 166.26L206.57 167.09L206.77 167.74L209.04 168.12L210.14 169.09L209.97 169.84L211.63 168.4L211.06 167.59L208.41 166.8L207.43 166.19V165.12L208.53 165.3L209.46 163.58L208.42 162L207.75 163.44L206.37 163.14L207.4 161.61L206.76 161.41L205.15 162.45L202.89 162.5L202.27 161.98L203.37 160.19L204.59 160.21L206.63 160.97L208.13 161.17L207.35 160.1L205.9 156.96L206.4 155.26L194.02 156.14L194.5 155.69L194.06 154.39L194.85 153.31L195.39 150.53L198.29 145.99L197.02 144.33L197.14 143.15L196.4 141.19V140.94Z" fill="#B7BCBF" fill-opacity="0.3"/>
<path d="M158.031 193.3L156.571 186.75L156.521 187.97L158.021 193.29L158.031 193.3ZM158.081 181.9L156.781 184.15L156.601 184.89L158.081 181.91V181.9ZM159.111 180.26L160.311 178.81L159.471 179.28L159.111 180.26ZM163.291 176.78L160.551 178.06L161.311 177.95L163.291 176.78ZM163.661 176.28L164.441 175.71L164.141 175.77L163.661 176.29V176.28ZM123.661 114.63L123.421 114.58L120.891 148.08L113.841 147.48L102.541 146.38L98.0205 145.88L98.8505 147.68L98.8805 147.71L102.581 151.72L104.701 154.42L107.541 156.72L109.461 160.59L110.091 164.59L111.731 165.76L112.991 167.28L114.861 168.03L117.541 169.89L118.771 170.41L120.551 168.76L121.151 166.96L122.121 165.24L124.941 164.24L126.001 164.82L129.101 165.19L131.841 167.05L133.761 167.49L133.181 168.47L134.261 169.22L135.251 170.52L135.411 171.85L136.051 172.77L137.481 176.62L139.001 178L140.131 180.06L141.601 181.69L142.271 181.93L142.681 186.03L144.331 187.03L144.351 188.31L144.781 188.22L147.571 191.92L149.021 192.29L150.831 193.47L153.691 193.59L155.711 194.81L158.201 194.37L157.131 193.29L156.251 190.25L155.961 187.62L155.421 186.74L155.741 185L154.991 184.9L154.061 183.22L155.161 184.48L156.491 184.06L157.291 182.2L155.931 180.21L158.061 180.54L159.121 179.04L159.001 178.5L159.941 177.36L159.681 178.39L160.711 177.64L160.371 176.24L161.631 176.96L163.311 176.09L161.771 174.35L162.761 174.78L164.611 174.97L167.061 174.52L169.841 172.81L171.541 171.51L171.831 170.52L172.871 169.52L172.401 167.79L172.551 166.72L174.361 166L174.151 167.9L175.221 167.93L174.001 168.89L178.851 166.57H179.631L180.231 164.3H180.371L180.951 163L181.361 158.94L181.751 157.3L180.931 154.33L179.871 152.29V151.32L178.761 149.63L178.321 142.7V141.84L178.281 140.94L178.181 137.79L176.041 137.78L175.531 137.18L175.431 137.15H175.391L174.001 136.84L172.441 135.74L170.681 134.92L167.281 135.75L166.401 135.5L165.281 135.89L163.881 136.94L160.311 135.08L159.111 136.61L157.451 135.94L155.711 134.72L154.711 135.51H153.781L153.811 134.83L151.351 133.55L150.341 133.98L149.861 133.38L147.121 132.99L145.091 130.98L144.751 131.61L143.211 131.48L141.841 130.06L141.281 127.89L141.651 115.66L132.511 115.19L123.881 114.64H123.671L123.661 114.63Z" fill="#B7BCBF" fill-opacity="0.3"/>
<path d="M297.23 53.5498L292 55.3198L291.94 55.1398L289.01 55.8798L288.36 56.0298L288.42 56.3898L289.57 61.6998L289.97 62.2598L289 63.3598L289.62 63.9998L291.77 62.0798L292.94 60.5798L293.14 61.0198L298.44 58.8998L298.55 58.7998V57.9398L298.36 57.1798L297.38 54.0198L297.25 53.6198L297.22 53.5498H297.23Z" fill="#B7BCBF" fill-opacity="0.3"/>
<path d="M293.38 28.5498L292.89 29.0998L292.36 28.9798L291.98 31.3198V31.3598L292.71 34.6098L292.61 35.2498L291.01 37.2298L291.32 39.1098L291.23 41.4298L290.86 43.5598L292.24 49.4898L293.72 49.0898L298.28 47.7598L300.4 45.6198L300.42 45.0498L300.56 44.1198L300.31 44.2198L300.28 43.9998L298.14 41.1598L298.08 40.9098L293.38 28.5498Z" fill="#B7BCBF" fill-opacity="0.3"/>
<path d="M300.6 56.8999V56.1599L300.48 56.4399L300.6 56.9099V56.8999ZM301.34 56.3599L300.91 55.4599L300.83 56.3799L301.33 56.3599H301.34ZM301.17 55.2499L301.39 55.8999L301.69 56.4899L301.92 56.0699L301.62 55.4399L301.53 55.0099L301.18 54.9999L301.17 55.2499ZM297.26 53.6299L297.39 54.0299L298.37 57.1799L298.56 57.9399V58.7999L298.63 58.6999L300.4 57.3999L300.18 54.9599L300.9 54.8399L299.4 52.8899L297.73 53.4699L297.26 53.6299Z" fill="#B7BCBF" fill-opacity="0.3"/>
<path d="M292.24 49.4899L290.86 43.5599L291.23 41.4299L291.33 39.1099L291 37.2299L292.62 35.2499L292.72 34.6099L291.98 31.3599L291.51 31.5199L289.51 32.1599L287.56 32.8299L283.07 34.2699L282.82 34.3299L284.28 38.1499L284.68 41.7099L286.45 44.7499L288.01 50.6799L288.08 50.6499L288.37 50.5499L289.2 50.3399L289.92 50.1199L291.98 49.5899L292.24 49.4899Z" fill="#B7BCBF" fill-opacity="0.3"/>
<path d="M213.88 124.62L214.02 124.92L214.5 125.25L214.14 139.92L213.9 147.97L215.29 159.05L215.43 159.02L217.03 159.4L217.58 156.24L218.23 158.06L219.4 159.21L221.77 157.94L221.53 157.72L221.6 157.76L220.14 154.01L235.66 152.11L236.7 151.98V151.94L235.8 150.08L235.84 147.47L235.11 146.01L235.61 143.23L236.28 142.54L233.82 137.72L229.62 122.94L229.58 122.87L228.5 123.01L222.75 123.71L219.88 123.96L213.85 124.55L213.88 124.62Z" fill="#B7BCBF" fill-opacity="0.3"/>
<path d="M261.3 196.74H261.23L261.26 196.77L261.3 196.74ZM260.98 196.69V196.72H261.01L260.98 196.69ZM255.78 197.02H255.75V197.06L255.78 197.02ZM266.01 195.17H265.97L266.01 195.24V195.17ZM266.98 194.96V194.88L266.91 194.98L266.98 194.96ZM266.63 194.87L266.49 194.72L266.45 194.76L266.63 194.87ZM266.51 195.15L266.11 194.6L266.33 195.07L266.51 195.15ZM269.98 193.18V193.32L270.05 193.25L269.98 193.18ZM270.5 192.84L270.61 192.66L270.46 192.8L270.5 192.84ZM270.62 192.48H270.58V192.52L270.62 192.48ZM270.32 191.83L270.29 191.79V191.86L270.32 191.83ZM270.61 190.98L270.53 191.01L270.64 191.05L270.61 190.98ZM270.75 190.98L270.68 190.91L270.71 191.02L270.75 190.99V190.98ZM270.5 190.9L270.47 190.87V190.94L270.5 190.9ZM271.83 190.7V190.67L271.76 190.81L271.83 190.71V190.7ZM270.33 190.79H270.26L270.33 190.83V190.79ZM271.1 190.39H270.99L270.95 190.42L271.1 190.39ZM268.38 190.25V190.18L268.35 190.25H268.38ZM268.71 190.15H268.61L268.7 190.37V190.15H268.71ZM267.85 190.15V189.95L267.68 189.97L267.85 190.16V190.15ZM267.36 189.78L267.54 189.96V189.89L267.36 189.78ZM272.6 190.2L271.95 190.46L272.16 190.5L272.6 190.2ZM267.62 189.68H267.4V189.74L267.62 189.68ZM273.32 188.12L273.37 187.94L273.43 187.47L273.33 188.12H273.32ZM273.44 186.12L273.31 185.75L273.24 185.89L273.44 186.11V186.12ZM265.16 186.68L265.09 186.78L265.26 186.83L265.16 186.68ZM264.49 186.34L264.17 186.43L264.42 186.48L264.49 186.34ZM263.78 186.38V186.28L263.75 186.31L263.78 186.38ZM263.03 186.31L262.81 186.45L263.09 186.6L263.03 186.31ZM264.03 186.39L264 186.28L263.82 186.24L264.02 186.39H264.03ZM259.49 182.7L259.27 182.8L259.69 182.96L259.49 182.7ZM258.68 181.52L258.41 181.08L258.51 181.41L258.68 181.52ZM259.75 182.28L259.3 181.12L258.95 181L259.75 182.28ZM258.38 180.8L258.28 180.5L258.22 180.32L258.38 180.8ZM255.58 176.71L254.95 176.22L255.19 176.48L255.58 176.71ZM271.74 174.95L269.3 170.48H269.16L271.73 174.95H271.74ZM253.98 167.27L253.88 167.23L253.98 167.3V167.27ZM253.78 167.01L253.74 167.04L253.77 167.08V167L253.78 167.01ZM253.54 166.64V166.6L253.5 166.64H253.54ZM253.69 166.5L253.79 166.58V166.51H253.69V166.5ZM253.91 166.37L253.76 166.4H253.8L253.9 166.37H253.91ZM253.66 166.32L253.56 166.22L253.59 166.25L253.66 166.32ZM253.42 165.92H253.35L253.45 165.96L253.42 165.92ZM253.69 165.5H253.55L253.51 165.53L253.69 165.5ZM253.83 165.58L253.66 165.39L253.73 165.43L253.83 165.58ZM252.53 163.98L252.46 163.95V163.98H252.53ZM251 163.93L250.9 163.78L250.93 163.96L251 163.93ZM238.05 162.23L239.15 161.46L237.95 162.2L238.05 162.24V162.23ZM240.25 160.6L240.37 160.5L239.93 160.66L240.26 160.6H240.25ZM226.79 157.68L222.85 158.78L225.01 158.25L226.79 157.68ZM236.69 151.98L235.66 152.12L220.14 154.02L221.6 157.76L221.7 157.8L221.25 159.25L222.42 158.79L223.71 157.73L225.85 157.75L228.35 156.95L230.02 157.27L229.6 157.86L232.63 159.02L235.23 160.41L235.78 161.86L237.76 161.51L242.55 157.91L244.25 158.04L251.05 163.61L252.49 163.38L253.91 165.44L254.07 168.63L253.53 170.61L253.7 171.62L254.85 174.18L254.35 172.18L255.97 172.21L256.05 173.65L255.11 175.83L257.91 180.03L259.01 180.1L258.14 178.82L259.28 179.01L259.98 178.61L259.6 180.88L261.08 182.16L262.01 184.99L263.37 185.89L265.13 186.43L267.48 189.68L268.73 190.4L267.02 190.44L267.77 191.37L270.62 190.55L272.05 189.82L273.51 185.37L273.14 178.33L273.02 177.61L269.82 171.76L267.06 167.49L265.55 164.03L266.89 165.27L267.19 165.07L267.68 168.06L269.16 170.36L267.74 167.3L267.87 165.88L263.49 160.08L262.45 158.28L261.1 155.26L260.2 152.72L259.45 151.8L259.31 150.65L259.28 150.61L256.82 150.37L255.82 151.08L255.19 153.81L254.74 152.51L237.8 153.96L236.66 152.01L236.7 151.98H236.69Z" fill="#B7BCBF" fill-opacity="0.3"/>
<path d="M260.06 145.34V144.26L259.78 145.19L260.06 145.34ZM260.51 143.71L260.41 142.88L260.28 143.38L260.52 143.71H260.51ZM244.69 120.53L244.22 120.62L242.85 120.85L237.81 121.69L237.34 121.78L236.84 121.83L234.04 122.26L233.28 122.37L230.22 122.82L229.58 122.87L229.61 122.94L233.82 137.72L236.28 142.54L235.61 143.24L235.11 146.01L235.84 147.47L235.81 150.08L236.71 151.94L236.7 151.98L236.66 152.01L237.8 153.95L254.74 152.51L255.18 153.81L255.83 151.08L256.83 150.37L259.28 150.61L259.22 146.74L259.72 145.94L259.52 144.39L260.08 142.94L260.86 142.14L260.35 141.63L261.65 140.13H261.62L259.56 138.05L256.79 133.75L255.22 132.94L248.55 126.88L246.95 124.66L243.76 123.18L243.61 122.46L244.69 120.53Z" fill="#B7BCBF" fill-opacity="0.3"/>
<path d="M211.9 160.67L211.721 160.7V160.74L211.9 160.67ZM215.241 160.37L214.741 160.35L215.201 160.41L215.241 160.37ZM211.081 160.57L210.93 160.71L210.971 160.74L211.081 160.57ZM214.451 160.41L213.09 160.36L214.381 160.45L214.451 160.41ZM200.9 125.76V125.79L199.301 128.24L199.361 130.17L197.241 132.35L197.751 133.01L196.171 138.68L196.771 139.92L196.4 140.15V141.19L197.141 143.16L197.021 144.33L198.281 145.99L195.381 150.53L194.851 153.31L194.051 154.38L194.501 155.69L194.021 156.14L206.391 155.26L205.891 156.96L207.351 160.1L208.131 161.17V161.13L209.51 159.68L212.311 159.18L214.881 159.58L215.281 159.08L215.29 159.05L213.9 147.97L214.141 139.92L214.501 125.25L214.021 124.91L213.881 124.61H213.811L212.01 124.8L208.861 125.1L201.68 125.72L200.9 125.76Z" fill="#B7BCBF" fill-opacity="0.3"/>
<path d="M244.69 120.53L243.61 122.46L243.76 123.18L246.96 124.66L248.56 126.88L255.22 132.94L256.79 133.75L259.56 138.05L261.62 140.14L262.04 138.51L261.54 136.91L263.02 138.11L263.91 137.47L262.49 136.2L264.28 136.16L267.16 133.91L266.86 133.29L268.62 132.03L268.47 131.38L269.75 130.65L269.89 128.82L272 125.26L273.39 123.63L273.53 123.56L265.77 118.21L262.78 118.66L258.75 118.36L256.8 117.25L244.8 120.53H244.69Z" fill="#B7BCBF" fill-opacity="0.3"/>
<path d="M195.08 69.7697L195 69.9497L196.32 70.8597L196.72 71.7397L198.09 73.1497L198.01 74.2897L197.14 76.5197L195.3 77.7297L193.68 77.9897L193.29 79.8397L193.82 80.1097L193.14 83.7297L191.79 84.5097L191.98 85.9097L191.65 86.0397L191.31 87.5997L192.32 90.8297L196.26 94.4297L196.56 96.0797L197.31 96.9297L199.88 96.8897L199.32 99.2697L199.04 101.83L200.53 103.15L202.92 104.31L204.16 105.37L204.8 107.43L204.37 108.17L206.83 110.34L206.93 110.38L206.73 110.16L207.51 108.51L210.23 109.36L210.93 108.61L210.46 107.01L212.76 105.78L212.19 104.89L212.77 103.69V103.59L212.64 103.55L212.8 100.37L213.6 99.8297L215.09 96.6997L214.85 95.2997L214.03 93.5797L214.6 91.6997L212.8 73.9797L212.45 73.5797L211.61 71.4297L210.89 70.6097L210.65 68.5197V68.4497L205.8 68.9497L202.9 69.1897L195.08 69.7697Z" fill="#B7BCBF" fill-opacity="0.3"/>
<path d="M227.75 71.7998L222.25 72.5598L220.99 72.7598L216.54 73.2998L215.58 74.0198L214.16 74.6098L213.63 74.5498L213 74.1998L212.8 73.9798L214.6 91.6998L214.03 93.5798L214.85 95.2898L215.09 96.6898L213.6 99.8298L212.8 100.37L212.64 103.55L212.78 103.59L212.92 103.56L213.5 102.58L214.82 102.63L216.45 102.16L218.42 102.99L218.66 102.18L219.84 101.36L221.54 101.68L222.54 99.8898L225.07 100.21V99.1698L227.44 96.2898L227.14 94.9198L228.71 94.9398L230.69 93.4798L230.29 91.7098L230.37 91.6398L230.32 91.0398L228.68 78.2898L227.93 72.8498L227.84 72.2798L227.75 71.8098V71.7998Z" fill="#B7BCBF" fill-opacity="0.3"/>
<path d="M205.04 114.07L204.94 113.77L204.73 113.7L204.57 114.15L204.6 114.19L205 114.17L205.04 114.07ZM230.37 91.6397L230.3 91.7097L230.7 93.4797L228.7 94.9397L227.13 94.9197L227.43 96.2897L225.07 99.1697V100.21L222.54 99.8897L221.54 101.68L219.84 101.36L218.66 102.17L218.41 102.99L216.44 102.16L214.82 102.63L213.5 102.58L212.92 103.56L212.78 103.59V103.69L212.19 104.89L212.76 105.78L210.46 107.01L210.94 108.61L210.23 109.36L207.51 108.5L206.73 110.16L206.93 110.38L207 110.53L206.56 113.44L206.42 113.51L205.47 114.05L205.43 114.15L206.47 114.05L213.72 113.37L213.42 111.92L214.63 111.94L229.23 110.58L239.52 109.26L239.66 109.16L239.92 108.88L242.66 107.56L244.84 104.92L245.16 104L246.56 102.98L248.36 100.88L248.62 100.52L248.52 100.48L247.62 100.45L246.5 99.7497L244.56 97.2097L243.95 94.6797V94.6097L243.88 94.5397L242.42 93.6197L241.78 92.4497L240.38 93.7197L239.51 93.8997L238.46 93.4297L237.5 94.1097L235.6 93.1697L235.1 93.3697L233.34 91.7197L232.43 91.2197L230.67 91.3697L230.37 91.6397Z" fill="#B7BCBF" fill-opacity="0.3"/>
<path d="M277.3 122.45L276.89 122.83L276.96 122.91L277.3 122.46V122.45ZM277.66 120.39L277.47 120.67L277.53 120.96L277.66 120.39ZM279.93 117.15L279.38 117.49L279.08 117.91L279.93 117.15ZM284.63 115.08L284.42 114.93L283.96 114.87L284.63 115.08ZM283.67 114.83L283.35 114.81L282.8 115.08L283.67 114.83ZM284.77 115.26L285.9 112.73L285.14 113.78L284.76 115.26H284.77ZM286.43 111.93L286.93 111.27L286.67 111.26L286.43 111.93ZM289.54 109.26L288.91 105.26L289.51 107.36L289.54 109.26ZM285.54 100.04L285.47 100.07L285.36 100.11H285.39L287.23 103.51L288.7 105.11L285.54 100.04ZM284.89 100.23L284.59 100.29L284.67 100.33L285.27 100.35L285.21 100.14L285.11 100.17H285V100.23L284.92 100.27L284.89 100.23ZM251.54 107.08L251.34 107.61L251.32 109.15L250.92 109.1L249.92 110.96L248.89 111.03L246.89 112.85L246.04 112.49L244.87 114.09L241.84 116.62L240.4 116.92L238.84 118.26L238.74 119.19L237.39 119.85L237.36 121.42L237.35 121.78L237.81 121.69L242.85 120.85L244.22 120.62L244.69 120.53H244.79L256.79 117.25L258.75 118.36L262.78 118.66L265.77 118.21L273.53 123.56L273.68 123.46L277.42 122.1L277.52 120.14L278.94 117.79L280.43 116.49L283.46 114.64L283.89 113.94L284.66 114.33L285.11 111.98L284.65 112.78L283.13 113.23L281.7 113.21L283.5 111.99L282.98 111.39L283.64 110.14L280.31 109.47L280.17 109.28L283.05 108.86L283.95 109.36L285.14 109.3L286.14 108.62L286.9 107.25L287.55 107.1L287.52 105.13L286.73 104.31L285.88 105.03L285.98 106.93L285.47 104.58L285.01 104.46L281.41 105.79L283.05 104.31L283.15 103.71L284.8 103.38L285.31 102.18L286.39 102.87L285.29 101.07L284.49 100.32L270.05 103.84L260.85 105.8L251.58 107.16L251.54 107.08Z" fill="#B7BCBF" fill-opacity="0.3"/>
<path d="M252.62 75.1498L251.87 71.2498L251.73 70.4498L250.9 66.0198L249.58 66.7898L246.75 68.7898L244.88 70.9098L243.48 71.0698L240.85 72.4298L239.45 71.5198L235.15 70.8498L232.85 71.3298L230.58 71.7798L228.2 72.1798L227.84 72.2798L227.93 72.8498L228.68 78.2898L230.32 91.0298L230.37 91.6398L230.67 91.3698L232.43 91.2198L233.33 91.7198L235.1 93.3698L235.6 93.1698L237.5 94.1098L238.46 93.4298L239.51 93.8998L240.38 93.7198L241.78 92.4498L242.42 93.6198L243.88 94.5398L243.95 94.6098L245.52 93.9198L246.1 92.7598L245.72 91.5298L247 89.7198L247.9 89.6098L247.86 88.0298L249.4 86.0898L249.64 86.3898L251 85.4298L252.2 83.7598L252.7 75.9398L252.76 75.9098L252.62 75.1498Z" fill="#B7BCBF" fill-opacity="0.3"/>
<path d="M239.52 109.26L229.24 110.58L214.64 111.94L213.42 111.92L213.72 113.37L206.47 114.05L205.43 114.15V114.19L205.13 114.54L204.99 114.49V114.17L204.6 114.19L204.64 114.23L204.81 115.24L204.06 116.11L203.93 117.75L203.92 118.03V118.07L202.76 120.1L202.92 121.58L201.86 123.11L202.16 124.55L200.83 125.68L200.9 125.76L201.68 125.72L208.86 125.1L212.02 124.8L213.82 124.62H213.88L213.85 124.55L219.88 123.96L222.75 123.72L228.5 123.01L229.58 122.87L230.22 122.83L233.28 122.37L234.04 122.26L236.84 121.83L237.34 121.78L237.36 121.42L237.38 119.85L238.73 119.19L238.84 118.26L240.4 116.92L241.84 116.62L244.87 114.09L246.04 112.49L246.88 112.85L248.88 111.03L249.93 110.96L250.93 109.1L251.32 109.15L251.35 107.61L251.55 107.08L250.97 107.17L248.91 107.67L246.46 108.07L240.31 109.07L239.66 109.16L239.52 109.26Z" fill="#B7BCBF" fill-opacity="0.3"/>
<path d="M285 100.16H285.1L285.21 100.13L285.15 99.9499L285 100.16ZM283.94 96.1099V96.2899L284.12 96.1899L283.94 96.1099ZM284.4 95.3099L284.31 95.7699L284.2 95.9399L284.4 95.2999V95.3099ZM284.76 94.3899L284.8 94.1699L284.72 94.3899H284.76ZM285.01 93.4299L285.13 93.1799L284.93 93.8199L285.01 93.4299ZM285.07 92.8999L285.24 92.1099L285.05 92.2899L285.07 92.8899V92.8999ZM285.85 89.3799L285.93 89.0599L285.89 89.1299L285.85 89.3799ZM285.74 88.5499L285.27 88.7099L284.54 89.0099L284.28 89.3099L284.38 89.3599L283.32 94.6599L283.61 95.5199L284.19 93.3199L285.23 90.4699L285.73 88.5899V88.5499H285.74ZM286.46 88.2999L286.36 88.3299L286.31 88.4699L286.09 89.5699L286.25 89.1799L286.46 88.2999ZM248.62 100.52L248.35 100.87L246.55 102.98L245.15 104L244.84 104.92L242.66 107.56L239.92 108.88L239.66 109.16L240.31 109.08L246.46 108.07L248.91 107.67L250.97 107.17L251.54 107.08L251.58 107.16L260.86 105.8L270.05 103.84L284.49 100.32L284.39 100.14L284.36 100.03L284.6 100.29L284.89 100.23L284.85 100.19L284.65 98.9699L284.83 99.0099L285.36 100.11L285.46 100.07L285.54 100.04L285.41 99.7399L284.03 97.4399L282.2 97.6899L281.35 98.3399L280.59 97.5899L277.95 96.5899L276.1 96.4499L279.71 96.2699L281.66 97.6999L282.26 96.8299L280.74 94.7299L281.88 94.8499L281.34 93.1799L279.91 93.1899L276.62 90.3099L276.19 90.2899L280.89 92.8399L280.63 91.1799L280.97 90.6599L278.58 89.6299L276.48 89.4099L275.48 88.4399L274.6 88.9399L274.38 86.4599L274.73 86.5499V84.5399L274.67 84.4699L274.6 84.4999L274.53 84.4599L274.36 84.3099L274.26 84.1999L273.13 83.6499L271.98 82.7499L270.36 82.2499L270.26 82.2199V82.2499L269.98 83.7499L266.71 82.1799V84.2599L264.75 87.6599L263.59 88.8299L262.79 90.9099L260.65 90.0699L259.39 94.8899L258.47 96.5099L258.24 98.6499L257.56 99.6499L255.14 100.28L253.11 101.74L252.18 101.84L251.25 102.6L249.04 101.69L248.69 100.56L248.62 100.52Z" fill="#B7BCBF" fill-opacity="0.3"/>
<path d="M212.3 47.0697L211.37 48.1397L210.77 49.7297L210.99 50.6297L212.31 47.0697H212.3ZM192.15 37.8697L192.71 37.1297L192.31 37.4697L192.15 37.8697ZM193.01 36.7097L192.84 36.4897L192.44 36.7297L193.01 36.7097ZM185.15 38.4097L184.29 39.3097L184.52 43.6097L182.15 45.5997L181.65 47.5797L182.85 48.7797L182.3 53.6997L183.58 54.7497L184.44 54.8497L187.09 56.5997L188.73 58.4597L190.86 59.6597L191.26 62.4297L191.25 62.5997L192.24 63.8997L191.91 64.8497L192.19 66.9697L193.19 68.4797L195.12 69.5997L195.08 69.7697L202.9 69.1897L205.8 68.9397L210.65 68.4497L210.53 67.9097L210.59 66.2297L209.7 64.3997L209.54 62.1397L210.1 59.6597L209.93 57.7197L210.88 55.3497L210.57 54.9497L210.73 52.7297L211.26 51.0697L210.75 50.4797L209.7 50.7997L209.07 52.2797L207.67 53.0097L208.18 51.1297L209.46 49.5697L209.56 48.8597L209.59 48.8197L207.95 47.0397L208.05 44.6097L206.18 42.9597L203.54 42.6797L200.86 41.8597L195.07 39.8397L193.95 39.1397L193.85 39.2497L192.03 38.9297L191.41 39.2597L191.76 36.6597L188.78 38.0597L185.18 38.4797L185.15 38.4097ZM192.22 36.7897L192.16 36.5397L191.91 36.6397L192.22 36.7897ZM190.95 36.4897L191.06 36.2797L191 36.1997L190.95 36.4897ZM193.58 35.9897L193.49 35.4797L193.36 36.0797L193.58 35.9797V35.9897Z" fill="#B7BCBF" fill-opacity="0.3"/>
<path d="M259.19 81.7099L254.07 82.7599L252.77 75.9099L252.69 75.9399L252.21 83.7599L251 85.4299L249.64 86.3799L249.4 86.0799L247.86 88.0299L247.9 89.6099L247 89.7099L245.72 91.5299L246.1 92.7599L245.52 93.9199L243.95 94.6199V94.6799L244.57 97.2099L246.5 99.7599L247.62 100.45L248.52 100.48L248.62 100.52L248.69 100.56L249.04 101.69L251.26 102.59L252.18 101.84L253.11 101.74L255.14 100.28L257.56 99.6599L258.24 98.6499L258.47 96.5099L259.39 94.8999L260.65 90.0699L262.8 90.9099L263.6 88.8299L264.75 87.6599L266.7 84.2599L266.71 82.1799L269.98 83.7399L270.25 82.2499V82.2199L269.29 80.3899L267.15 80.0499L265.87 80.9699L265.84 81.6799L264.76 81.8899L263.14 82.9399L262.32 83.0899L260.58 85.3499L259.91 81.5499L259.19 81.7099Z" fill="#B7BCBF" fill-opacity="0.3"/>
<path d="M280.41 76.6297L280.53 77.1797L283.17 85.7697L286.6 84.8997L286.56 84.8297H286.63L286.74 84.8697L286.81 84.8397L286.75 84.6897L285.98 82.3697L281.96 78.2297L282.25 75.4897L281.39 75.4597L280.73 75.9297L280.41 76.6297Z" fill="#B7BCBF" fill-opacity="0.3"/>
<path d="M274.36 84.3098L274.53 84.4598L274.6 84.4998L274.67 84.4698L274.74 84.4998L274.99 84.6598L275.05 84.7598V85.0198L275.11 85.1598L275.61 84.3198L275.11 84.0198L274.51 84.0298L274.36 84.3098Z" fill="#B7BCBF" fill-opacity="0.3"/>
<path d="M286.5 88.1499L286.83 86.2299L286.56 87.6499L286.39 88.2499L286.35 88.3299L286.46 88.2899L286.5 88.1499ZM286.81 84.8399L286.74 84.8699L286.8 85.0899L286.79 85.5099L286.81 84.8399ZM259.91 81.5599L260.58 85.3399L262.32 83.0899L263.14 82.9399L264.76 81.8899L265.84 81.6899L265.87 80.9699L267.15 80.0499L269.29 80.3899L270.25 82.2199L270.35 82.2599L271.98 82.7499L273.13 83.6499L274.25 84.1999L274.35 84.3099L274.51 84.0299L275.11 84.0199L275.61 84.3199L275.11 85.1599V85.1999L274.35 87.2499L276.5 88.7599L278.71 88.9599L280.15 89.6899L279.61 87.9499L277.74 87.2399L277.34 85.7499L278.45 87.3699L279.41 87.5499L278.59 86.6599L278.01 84.0999L278.25 82.6399L277.55 80.9999L278.37 80.3899L279.02 78.3299L278.69 81.3999L279.25 82.4599L279.87 81.2599L280.12 83.2799L279.45 84.7299L281.18 85.4299L279.66 85.8799L280.38 87.3799L281.65 87.8599L282.42 86.6299L282.28 88.3799L283.49 88.3899L284.24 89.3199H284.28L284.54 89.0099L285.27 88.7099L285.74 88.5499L285.7 88.4799L286.74 85.7599V85.6599L286.6 84.9299V84.8999L283.16 85.7699L280.53 77.1699L280.41 76.6299L279.8 76.7899L277.23 77.4799L263.12 80.8299L260.56 81.3999L259.91 81.5599Z" fill="#B7BCBF" fill-opacity="0.3"/>
<path d="M288.88 76.8198L288.72 76.3898L288.7 76.8198H288.88ZM289.28 75.5198L289.44 74.4498L289.19 75.3698L289.29 75.5198H289.28ZM288.25 64.4798L284.55 63.3998L283.91 63.1998L283.31 63.0298L281.68 66.2998L282.28 67.1098L282.16 69.5098L282.83 69.6398L284.08 73.3398L284.01 73.4398L282.15 75.9498L282.25 77.9198L286.41 79.5198L286.38 81.1698L287.4 79.8498L287.62 77.8798L288.65 77.2398L288.31 75.7598L289.13 74.0398L289.28 70.2198L289.08 68.9498L287.4 68.9198L287.9 67.2198L288.25 64.4798Z" fill="#B7BCBF" fill-opacity="0.3"/>
<path d="M288.03 67.3698L287.47 68.0998L287.32 68.3098L288.03 67.3698ZM293.03 65.8098L294.88 64.3098V64.2398L293.03 65.8098ZM288.31 66.7398L288.36 65.5198L288.22 66.1598L288.31 66.7398ZM296.81 61.3398L296.39 61.2198L296.31 61.5398L296.81 61.3398ZM297.81 60.7398L297.75 61.0898L297.83 60.8898L297.8 60.7398H297.81ZM296.81 60.7398L294.32 62.8598L290.58 64.2898L289.58 65.0698L289.48 65.8498L288.45 66.6398L288.55 67.7198L290.11 67.1698L292.44 65.4298L294.99 64.2098L298.91 60.7798L296.15 62.7098L295.28 63.0398L296.8 60.7398H296.81ZM297.97 59.2798L298.12 59.0698L297.67 59.5498L297.97 59.2798ZM257.89 56.3798L257.32 56.2798L257.72 56.8798L257.89 56.3798ZM270.17 45.8998L270.26 45.5098L269.96 45.8598L270.17 45.8998ZM270.45 43.3398L270.31 43.3998L270.11 43.7898L270.45 43.3398ZM254.55 63.0498L254.76 64.1298L256.64 64.6698L267.61 62.1298L278.66 59.2698L280.6 60.8898L280.96 61.7898L283.24 62.8898L283.3 63.0298L283.9 63.1998L284.54 63.3998L288.25 64.4798L288.19 64.2998L288.45 65.7798L289.17 65.6298L289.63 64.0298V63.9998L289.01 63.3598L289.99 62.2598L289.58 61.6998L288.43 56.3998L288.37 56.0298L288.2 55.9198L288.15 54.3398L288.11 52.6198L288.08 50.7598V50.6598L288.01 50.6898L286.45 44.7498L284.68 41.7098L284.28 38.1498L282.82 34.3298L282.6 34.4298L275.04 36.6398L273.48 38.1898L271.68 41.3398L271.72 42.0598L269.37 45.3298L270.71 45.8498L271.01 48.4098L269.35 50.4098L264.53 53.0898L263.65 52.6998L260.13 53.0598L256.81 54.8998L256.94 55.9498L258.04 56.9898L257.28 60.1098L254.59 63.0098L254.56 63.0498H254.55Z" fill="#B7BCBF" fill-opacity="0.3"/>
<path d="M283.24 62.8898L280.96 61.7898L280.6 60.8898L278.66 59.2698L267.61 62.1298L256.64 64.6698L254.76 64.1298L254.56 63.0498L253.93 63.4898L252.94 64.1298L251.12 65.8498L250.9 66.0198L251.73 70.4598L251.88 71.2598L252.62 75.1498L252.76 75.9098L254.07 82.7598L259.19 81.7098L259.91 81.5598L260.56 81.4098L263.12 80.8298L277.23 77.4798L279.8 76.7798L280.41 76.6298L280.73 75.9298L281.39 75.4598L282.25 75.4898L282.37 75.1698L283.82 73.6498L283.97 73.4098L284.08 73.3398L282.83 69.6398L282.16 69.5098L282.29 67.1098L281.67 66.2998L283.3 63.0298L283.24 62.8898Z" fill="#B7BCBF" fill-opacity="0.3"/>
<path d="M301.2 44.4999H301.16L301.23 44.5399L301.19 44.5099L301.2 44.4999ZM304.13 36.9999L303.86 36.5599V36.7699L304.13 36.9999ZM303.65 36.5799L303.66 36.2199L303.63 36.0099L303.65 36.5799ZM304.99 35.1299L304.92 35.0899L304.95 35.1999L304.99 35.1299ZM308.63 33.4799L308.58 32.9399L308.43 33.1899L308.63 33.4899V33.4799ZM307.73 33.6599L307.78 33.2699L307.35 33.3299L307.73 33.6599ZM309.1 32.5399L308.96 32.5299V32.5999L309.1 32.5399ZM307.3 32.9999L306.97 32.9199L306.93 33.2399L307.29 32.9999H307.3ZM309.16 31.9599L309.46 32.2299L309.37 31.9299L309.16 31.9599ZM308.19 31.9599L307.85 32.5599L308.28 32.3599L308.19 31.9599ZM306.65 31.9399L306.5 32.1399L306.6 32.4699L306.65 31.9399ZM308.81 30.8399L308.78 30.5499L308.67 30.7299L308.81 30.8399ZM308.62 30.9799L308.32 30.6799L308.3 30.9299L308.62 30.9799ZM306.59 31.7199L306.54 31.3199L306.38 31.6399L306.59 31.7199ZM310.03 30.5999L309.47 31.3699L309.45 30.7899L310.03 30.5999ZM312.73 28.2999L312.5 27.9399L312.35 28.0099L312.73 28.3099V28.2999ZM313.76 26.7399L313.55 26.6199L313.51 26.7199L313.76 26.7399ZM314.33 23.9699L314.01 23.9599L314.37 24.0799L314.33 23.9699ZM314.86 24.3499L314.77 23.6999L314.49 23.6499L314.86 24.3499ZM314.31 23.7499L314.26 23.0699L313.99 23.5199L314.31 23.7499ZM293.38 28.5499L298.08 40.9099L298.14 41.1599L300.28 44.0099V43.9699L300.65 43.8699L300.8 41.8399L301.4 41.1399L301.83 39.2699L301.52 38.9299L302.2 37.0999L304.3 36.2099L305.73 34.6199L306.33 31.7799L308.53 31.7199L308.3 30.2499L311.05 29.3199L311.29 27.7199L311.93 27.8799L313.77 26.4799L314.63 24.6199L312.88 22.7199L310.97 22.2599L310.31 20.7599L310.34 19.9099L309.15 20.2099L307.85 19.7099L307.91 18.2399L304.64 10.3699L302.09 8.90991L299.09 11.2299L298.32 11.0599L297.69 9.77991L296.75 10.0999L295.17 16.6299L295.55 18.7899L295.77 23.1699L294.6 26.4899L295.3 27.0499L294.38 28.6599L293.45 28.4799L293.38 28.5499Z" fill="#B7BCBF" fill-opacity="0.3"/>
<path d="M217.47 48.5197L217.31 48.2297L217.26 48.5897L217.47 48.5197ZM218.07 47.8997L217.67 47.3097L217.58 47.5597L218.07 47.8997ZM218.53 45.3397L218.18 45.0097V45.0797L218.53 45.3397ZM216.53 73.2997L220.99 72.7597L222.25 72.5597L227.75 71.8097L227.85 72.2797L228.2 72.1797L230.58 71.7797L232.85 71.3297L235.15 70.8497L235.12 70.7397L236.39 68.4597L236.36 66.5297L237.81 63.2497L238.82 63.8997L239.25 63.1697V60.2997L238.35 58.4797L237.08 54.6297L235.88 53.1897L235.25 52.9897L232.86 54.4897L233.1 54.8297L231.8 57.0697L230.63 56.8097L230.37 54.4097L230.87 54.2397L232 51.8997L232.27 47.6797L230.81 44.0397L227.26 43.2997L226.92 42.7497L223.64 41.6497L222.07 43.4497L222.15 45.0597L220.95 46.4497L221.11 48.6797L219.98 49.4197L220.08 46.6297L219 48.6997L217.75 50.5097L216.95 51.0897L217.25 53.0697L216.68 55.0897L216.87 57.6397L216.46 58.8797L218.84 63.9097L219.08 65.8197L218.63 69.3197L216.76 73.1797L216.54 73.3097L216.53 73.2997ZM225.44 41.3897L224.51 41.4197L225.06 41.8697L225.44 41.3897ZM219.98 42.0997H219.69L220.01 42.2497L219.98 42.0997ZM226.4 37.7997L226.07 37.2197L225.92 37.2497L226.4 37.8097V37.7997ZM193.95 39.1497L195.07 39.8397L200.86 41.8597L203.54 42.6797L206.18 42.9597L208.04 44.6097L207.94 47.0397L209.59 48.8197V48.7897L211.15 44.7997L212.87 43.6897L214.21 42.3097L214.38 43.6097L215.78 41.6097L219 40.5297L219.27 40.0297L222.47 40.5597L223.69 41.2497L224.36 39.6997L224.92 40.0797L227.43 39.7797L226.87 38.7597L225.78 38.0697L226.08 35.7597L223.86 36.8897L221.87 36.5597L221.29 34.9897L221.53 34.4997L218.76 35.6797L217.01 35.7197L213.79 37.5197L213.41 38.2297L211.5 37.6897L210.26 38.1797L207.92 35.9797L202.59 34.1197L202.51 33.4697L198.91 36.6597L196.93 37.0797L194.06 39.0797L193.96 39.1497H193.95ZM206.91 31.5297L202.65 33.4297L203.99 34.8497L204.58 33.5097L206.08 31.8097L206.91 31.5297ZM202.43 26.4497L199.49 28.2997L199.31 29.2597L201.62 27.7097L202.42 26.4497H202.43Z" fill="#B7BCBF" fill-opacity="0.3"/>
<path d="M-8.68996 190.58L-8.86996 190.66L-8.71996 190.7L-8.68996 190.58ZM-7.97996 190.18V190.28L-7.89996 190.25L-7.97996 190.17V190.18ZM-7.59996 190.36V190.28L-7.63996 190.32L-7.59996 190.36ZM-7.67996 190.28V190.25H-7.74996L-7.67996 190.28ZM-36.8 165.68L-36.84 165.94L-36.77 166.69L-36.8 165.68ZM-37 164.66L-36.95 165L-36.92 164.89L-36.99 164.67L-37 164.66ZM-7.67996 189.84L-7.63996 189.61L-7.78996 189.68L-7.67996 189.84ZM-3.41996 191.67L-3.45996 191.63L-3.37996 191.78L-3.41996 191.67ZM-6.17996 190.36L-6.58996 189.98V190.88L-6.18996 190.36H-6.17996ZM-5.24996 191.18L-5.28996 190.92L-5.91996 190.88L-5.24996 191.18ZM-3.00996 191.71L-3.04996 191.78H-2.96996L-3.00996 191.71ZM-2.85996 191.74H-2.93996L-2.78996 191.78L-2.85996 191.75V191.74ZM-35.39 166.5L-35.24 166.54L-35.12 166.5H-35.39ZM-3.22996 191.37L-3.52996 191.33L-3.42996 191.44L-3.22996 191.37ZM-37.4 163.57L-37.92 163.35L-37.96 163.47L-37.4 163.57ZM-2.29996 191.45L-2.37996 191.41V191.44H-2.29996V191.45ZM-0.0199623 191.9L-1.47996 192L-1.81996 192.16L-0.0199623 191.9ZM-40.05 157.7H-40.46L-40.39 157.81L-40.05 157.7ZM4.50004 193.62V193.47H4.42004L4.50004 193.62ZM6.44004 193.65L6.51004 193.58L6.44004 193.5V193.66V193.65ZM7.89004 194.07L7.97004 194.03H7.93004L7.89004 194.07ZM6.69004 193.39L6.66004 193.24H6.60004L6.70004 193.39H6.69004ZM9.20004 193.96L9.16004 193.99H9.20004V193.96ZM-39.83 155.79L-40.39 155.86L-39.68 156.5L-39.83 155.79ZM7.22004 193.39L7.30004 193.17H7.26004L7.22004 193.39ZM13.53 192.83L13.57 192.76L13.5 192.72L13.53 192.83ZM12.6 192.49L11.3 193.65L12.23 193.58L13.31 192.72L12.6 192.49ZM14.95 192.91L14.69 192.83L14.88 192.98L14.95 192.91ZM15.47 192.94L15.07 192.84L14.99 192.87L15.47 192.94ZM14.06 192.42H13.64L14.35 192.61L14.05 192.41L14.06 192.42ZM15.77 192.79L15.74 192.72L15.59 192.76L15.77 192.79ZM14.65 192.34L14.5 192.27V192.68L14.65 192.34ZM19.43 193.28L19.4 193.24H19.32L19.43 193.28ZM19.51 193.24V193.21L19.43 193.17L19.51 193.24ZM18.87 193.02L18.95 193.17V193.13L18.87 193.02ZM19.21 193.02L18.87 192.91L19.28 193.21L19.21 193.01V193.02ZM24.14 193.21L24.06 193.06H24.03L24.13 193.21H24.14ZM64.32 190.7L64.24 190.62L64.28 190.7H64.32ZM19.06 191.86V191.82L19.02 191.86H19.06ZM65.4 190.02L65.51 190.17H65.59L65.4 190.02ZM24.59 192.83L24.55 192.87V192.98L24.59 192.83ZM19.96 192.16L20.03 191.86H19.99L19.96 192.16ZM67.56 189.16L67.23 189.35L67.53 189.5L67.57 189.16H67.56ZM17.83 191.15L16.89 191.33L16.07 192.42L17.83 191.15ZM24.51 192.57L24.29 192.76L24.51 192.72V192.57ZM67.57 188.97L67.49 188.82L67.45 188.9L67.57 188.97ZM20.93 191.6L20.66 191.56L20.93 191.82V191.6ZM65.1 189.46L65.03 189.53L65.1 189.8V189.46ZM21.52 191.56L21.42 191.59L21.56 191.71L21.52 191.56ZM24.29 192.34H24.17L24.1 192.27L24.29 192.34ZM21.22 191.56L21.04 191.44L21.11 191.56H21.22ZM23.72 191.97L23.39 192.08L23.17 192.68L23.73 191.97H23.72ZM64.28 189.35V189.61L64.43 189.42L64.28 189.35ZM19.32 190.77L19.62 190.7H19.58L19.32 190.77ZM18.95 190.55L18.87 190.47V190.51L18.95 190.55ZM64.28 189.09L64.21 189.05L64.17 189.16L64.28 189.09ZM23.32 191.33L23.24 191.29L23.17 191.41L23.32 191.33ZM63.91 189.16L63.94 188.97L63.87 188.94L63.91 189.16ZM63.61 188.97L63.5 189.12L63.68 189.16L63.61 188.97ZM24.88 190.81L24.81 190.73H24.77L24.88 190.81ZM63.5 188.3L63.8 188.41L63.9 188.26L63.5 188.3ZM63.94 188.04L63.84 188.11L64.02 188.22L63.94 188.04ZM63.09 188.26L63.01 188.11L62.94 188.19L63.09 188.26ZM66.82 186.88L66.33 188.26L66.82 187.96V186.88ZM63.53 187.4L63.2 187.74L63.27 188.11L63.53 187.4ZM28.77 190.4V190.25L28.73 190.32L28.77 190.4ZM63.12 187.03L64.21 188.67L66.63 190.21L66.07 188.9L63.76 186.91L63.12 187.03ZM27.27 189.8L27.24 189.68L27.16 189.72L27.27 189.8ZM64.39 186.39L64.24 186.95L64.5 186.76L64.4 186.39H64.39ZM65.18 186.39L65.14 186.76L65.47 186.88L65.17 186.38L65.18 186.39ZM28.47 189.31L28.28 189.27L28.1 189.35L28.47 189.31ZM32.32 189.61L32.17 189.87L32.24 189.65L32.32 189.61ZM32.88 189.65L32.54 189.68L32.73 189.91L32.88 189.65ZM10.25 184.85L10.62 185.04L10.55 184.97L10.25 184.85ZM25.18 188.52H25.22V188.49L25.18 188.52ZM63.79 185.64L63.99 186.35L64.35 186.13L63.79 185.64ZM62.19 185.94L62.38 187.66L62.75 187.29L62.19 185.94ZM62.38 185.38L63.23 186.58L63.13 185.79L62.38 185.38ZM59.72 185.68L59.5 186.38L59.8 185.9L59.72 185.68ZM33.4 187.58L33.32 187.48L33.4 187.63V187.59V187.58ZM59.8 185.11L61.3 187.59L61.07 185.9L59.8 185.12V185.11ZM35.49 186.43L35.38 186.53L35.56 186.61L35.49 186.43ZM35 186.5L35.04 186.39H34.89L35 186.5ZM34.63 186.5L33.66 187.14L32.46 188.71L33.06 189.35L35.83 187.29L34.63 186.5ZM58.19 184.07L57.93 183.92V184.14L58.19 184.07ZM34.41 186.05L34.44 186.2L34.71 186.35L34.41 186.05ZM58.91 183.35L58.16 183.73L58.86 183.95L58.9 183.35H58.91ZM58.41 183.35L58.34 183.28L58.31 183.35H58.41ZM60.7 182.75L60.4 182.65L60.32 182.87L60.7 182.76V182.75ZM59.09 183.02L58.83 182.98V183.06L59.09 183.02ZM59.91 182.72L61.44 184.97L61.04 182.91L59.91 182.71V182.72ZM35.27 185.15L34.37 185.83L34.78 186.28L35.98 185.38L35.27 185.15ZM25.11 183.73L25.07 183.69V183.73H25.11ZM24.7 183.54L24.66 183.35V183.43L24.7 183.54ZM36.16 184.03L36.09 184.07V184.1L36.16 184.03ZM35.79 183.95H35.75L35.68 184.07L35.78 183.95H35.79ZM36.69 183.65L36.57 183.58V183.62L36.68 183.65H36.69ZM36.99 183.62L36.87 183.54V183.58L36.98 183.62H36.99ZM36.49 183.5H36.35V183.54L36.5 183.51L36.49 183.5ZM43.93 182.76L43.97 182.64L43.89 182.72L43.93 182.76ZM46.21 181.56L46.65 181L46.51 181.1L46.21 181.56ZM41.65 181.48L41.8 181.37L41.84 181.22L41.65 181.48ZM41.65 181.07L41.5 181.18L41.76 181.11L41.66 181.07H41.65ZM35.53 181.07L35.49 180.92H35.45L35.53 181.07ZM41.5 181.03L41.35 181.18L41.28 181.33L41.5 181.03ZM45.6 180.58H45.68H45.61H45.6ZM45.8 180.58L45.72 180.55V180.58H45.8ZM45.35 180.55L45.38 180.58V180.55H45.35ZM42.29 180.77L42.44 180.62L42.24 180.77H42.29ZM42.73 180.43L41.83 181.89L43 180.55L42.73 180.43ZM41.58 180.63L41.46 180.47L41.43 180.55L41.58 180.62V180.63ZM44.41 180.28L44.34 180.25L44.38 180.28H44.41ZM45.39 180.36V180.1L45.31 180.2L45.38 180.36H45.39ZM17.98 177.47L16.18 177.4L17.42 178.71L17.98 177.47ZM43.48 180.13L43.56 180.4L43.74 180.1L43.48 180.13ZM41.98 180.1L41.88 180.92L42.06 180.4L41.99 180.1H41.98ZM41.61 179.57L41.65 179.68L41.73 179.65L41.61 179.57ZM41.43 179.72L41.35 179.5L41.24 179.57L41.43 179.72ZM43.18 179.27V179.12L43.07 179.2L43.18 179.27ZM41.5 179.05V179.42L41.61 179.16L41.51 179.05H41.5ZM19.17 173.95L19.25 173.73L19.21 173.77L19.17 173.95ZM19.28 173.58L19.25 173.54L19.21 173.58H19.28ZM21.82 171.63L21.67 171.56V171.59L21.82 171.63ZM21.6 171.48V171.41L21.52 171.48H21.6ZM15.62 169.72L15.55 169.53L15.51 169.43L15.62 169.73V169.72ZM16.18 169.05H16.22L16.26 169.08L16.18 169.05ZM15.18 168.86L14.88 168.48L15.1 168.78L15.18 168.86ZM14.58 168.26H14.5L14.62 168.3L14.58 168.26ZM24.48 170.77L24.06 170.81L24.29 170.92L24.47 170.77H24.48ZM14.17 167.14L13.87 168.26L14.8 168.41L16.03 169.68L16.78 169.35L14.17 167.14ZM18.83 163.62L18.76 163.58L18.8 163.62H18.83ZM19.92 163.99L20.03 163.95H19.99L19.92 163.99ZM20.66 163.77H20.78L21.11 163.62L20.66 163.77ZM22.01 163.35L22.08 163.28L21.98 163.35H22H22.01ZM22.2 163.32L22.42 163.2L22.23 163.24L22.2 163.32ZM22.76 163.09L22.56 163.13V163.17L22.76 163.09ZM46.73 156.31L46.58 156.2L46.32 156.09L46.72 156.31H46.73ZM27.16 155.49L27.5 155.04L27.31 155.19L27.16 155.49ZM27.61 154.96L27.76 154.74L27.68 154.81L27.61 154.96ZM27.83 154.66L28.1 154.44L27.95 154.51L27.83 154.66ZM39.6 154.74L39.78 154.93H39.9L39.6 154.73V154.74ZM33.58 152.27L32.05 153.54L31.12 153.28L28.95 154.51L28.55 154.25L26.08 157.02L23.58 157.59L23.8 158.93L24.92 160.47L27.02 162.49L26.68 163.28L28.25 163.95L27.42 164.1L26.42 163.32L26.94 164.48L26.27 164.88L24.14 162.94L22.46 163.24L19.58 164.33L20.88 165.79L20.7 166.69L21.56 167.74L24.4 168.86L26.45 167.81L26.79 168.6L26.23 170.96H24.5L22.48 171.86L22.38 171.22L21.33 171.63L20.84 172.72L19.12 174.02V175.94L19.8 176.24L19.27 177.84L21.51 179.8L22.93 179.2L22.63 181.6L23.04 182.12L24.76 182.49L25.4 183.21L26.9 183.31L27.6 184.07L29.13 183.62L28.43 184.59L27.86 186.58L23.31 189.53L22.71 190.13L21.85 189.8L20.47 190.13L18.49 191.44L21.59 190.54L22.04 191.22L26.04 189.91L26.14 190.43L27.71 188.86L31 186.58L31.26 186.73L34.14 184.44L33.39 183.54L34.36 181.94L36.9 178.9L38.84 178.52L39.44 178.93L37.09 179.61L36.45 182.11L36.52 183.47L37.35 183.39L41.3 180.99L41.6 180.09L41.27 178.71L42.47 179.01L43.32 178.45L45.79 179.95L45.59 180.35L51.2 181.07L52.5 180.66L52.88 181.22L57.74 183.54L58.56 183.06L58.63 180.25L59.27 181.52L62.4 183.8L62.66 184.74L65.39 186.28L66.1 188.26L66.77 186.73L68.15 189.43L69.09 187.89L68.34 185.98L65.46 185.68L61.06 181.44L58.66 179.68L56.84 181.48H55.76L53.26 179.83L50.79 179.73L47.28 157.51L46.68 156.46L45.26 155.6L43.13 156.01L41.49 155.68L39.4 154.85L37.2 155L36.64 153.95L34.88 153.69L34.58 153.05L33.8 153.95L33.57 152.27H33.58Z" fill="#B7BCBF" fill-opacity="0.3"/>
</g>
<path d="M295 17H307V33H295V17Z" fill="#92999E" fill-opacity="0.15"/>
<path d="M295 34H307V50H295V34Z" fill="#92999E" fill-opacity="0.862745"/>
<path d="M282 34H294V50H282V34ZM269 34H281V50H269V34Z" fill="#92999E" fill-opacity="0.15"/>
<path d="M282 51H294V67H282V51Z" fill="#92999E" fill-opacity="0.3"/>
<path d="M282 68H294V84H282V68Z" fill="#92999E" fill-opacity="0.15"/>
<path d="M256 68H268V84H256V68Z" fill="#92999E" fill-opacity="0.862745"/>
<path d="M217 68H229V84H217V68ZM217 51H229V67H217V51Z" fill="#92999E" fill-opacity="0.15"/>
<path d="M256 85H268V101H256V85ZM217 85H229V101H217V85Z" fill="#92999E" fill-opacity="0.3"/>
<path d="M204 85H216V101H204V85ZM230 85H242V101H230V85ZM191 85H203V101H191V85ZM256 102H268V118H256V102ZM217 102H229V118H217V102ZM243 102H255V118H243V102Z" fill="#92999E" fill-opacity="0.15"/>
<path d="M204 102H216V118H204V102ZM191 51H203V67H191V51Z" fill="#92999E" fill-opacity="0.862745"/>
<path d="M178 51H190V67H178V51ZM178 68H190V84H178V68Z" fill="#92999E" fill-opacity="0.15"/>
<path d="M165 68H177V84H165V68Z" fill="#92999E" fill-opacity="0.862745"/>
<path d="M152 68H164V84H152V68Z" fill="#92999E" fill-opacity="0.15"/>
<path d="M256 119H268V135H256V119Z" fill="#92999E" fill-opacity="0.862745"/>
<path d="M217 119H229V135H217V119Z" fill="#92999E" fill-opacity="0.15"/>
<path d="M243 119H255V135H243V119Z" fill="#92999E" fill-opacity="0.862745"/>
<path d="M230 119H242V135H230V119Z" fill="#92999E" fill-opacity="0.15"/>
<path d="M230 136H242V152H230V136ZM230 153H242V169H230V153ZM243 153H255V169H243V153Z" fill="#92999E" fill-opacity="0.3"/>
<path d="M217 136H229V152H217V136ZM191 136H203V152H191V136ZM269 51H281V67H269V51Z" fill="#92999E" fill-opacity="0.15"/>
<path d="M256 51H268V67H256V51Z" fill="#92999E" fill-opacity="0.862745"/>
<path d="M269 68H281V84H269V68Z" fill="#92999E" fill-opacity="0.15"/>
<path d="M230 68H242V84H230V68Z" fill="#92999E" fill-opacity="0.3"/>
<path d="M269 85H281V101H269V85ZM269 102H281V118H269V102ZM243 68H255V84H243V68ZM204 68H216V84H204V68Z" fill="#92999E" fill-opacity="0.15"/>
</g>
</g>
<defs>
<clipPath id="clip0_2220_3216">
<rect width="320" height="200" fill="white"/>
</clipPath>
</defs>
</svg>
