<svg width="320" height="200" viewBox="0 0 320 200" fill="none" xmlns="http://www.w3.org/2000/svg">
<g clip-path="url(#clip0_2220_3350)">
<mask id="mask0_2220_3350" style="mask-type:luminance" maskUnits="userSpaceOnUse" x="0" y="0" width="320" height="200">
<path d="M0 0H320V200H0V0Z" fill="white"/>
</mask>
<g mask="url(#mask0_2220_3350)">
<path d="M91.7702 6.34996L82.5902 7.34996L86.5402 1.56996L85.0602 -1.79004L52.7102 0.0799609L25.4002 1.19996L21.4102 1.29996L21.8302 3.67996L24.4602 20.88L24.3902 24.68L24.4202 47.71L24.3602 51.51L24.6102 51.61L25.8202 53.01L30.9002 53.04L31.1202 60.5L31.2102 62.62L33.8402 62.47L41.9002 62.19L73.9002 60.49H74.0702L74.0602 58.63L74.9302 58.07L73.5202 55.14L77.2602 41.74L76.0602 40.17L81.0902 35.03L80.9302 30.46L84.7102 24.68V24.6L84.5502 24.42L87.7102 21.75L86.9902 18.34L89.5102 14.71L89.1402 11.23L91.8702 6.42996V6.33996H91.7802L91.7702 6.34996Z" fill="#DCDFE0" fill-opacity="0.3"/>
<path fill-rule="evenodd" clip-rule="evenodd" d="M85.0305 -2.27C85.2305 -2.28 85.4305 -2.17 85.5105 -1.98L86.9805 1.38C87.0505 1.53 87.0405 1.71 86.9405 1.85L83.5805 6.75L91.7205 5.86H91.8805C92.0087 5.86775 92.1288 5.92553 92.2148 6.02092C92.3008 6.1163 92.346 6.24166 92.3405 6.37V6.45C92.3423 6.5276 92.3214 6.60404 92.2805 6.67L89.6305 11.34L89.9805 14.67C89.994 14.786 89.9656 14.903 89.9005 15L87.5005 18.45L88.1705 21.66C88.1881 21.7455 88.1826 21.8341 88.1544 21.9168C88.1263 21.9994 88.0766 22.073 88.0105 22.13L85.1805 24.53V24.71C85.1805 24.8 85.1605 24.88 85.1105 24.96L81.4105 30.6L81.5605 35.03C81.5613 35.1605 81.511 35.2861 81.4205 35.38L76.6905 40.22L77.6405 41.45C77.7405 41.58 77.7605 41.73 77.7205 41.88L74.0205 55.1L75.3605 57.87C75.4086 57.9779 75.4169 58.0994 75.384 58.2129C75.351 58.3264 75.2789 58.4246 75.1805 58.49L74.5405 58.9V60.5C74.5392 60.5643 74.5252 60.6278 74.4994 60.6868C74.4736 60.7457 74.4364 60.799 74.3899 60.8436C74.3435 60.8882 74.2887 60.9231 74.2288 60.9466C74.1688 60.97 74.1048 60.9813 74.0405 60.98H73.9005L41.9005 62.68L33.8505 62.96L31.2205 63.11C31.0939 63.1128 30.971 63.0665 30.8778 62.9807C30.7846 62.895 30.7282 62.7764 30.7205 62.65L30.6205 60.53L30.4205 53.53L25.8105 53.51C25.7419 53.5084 25.6745 53.4925 25.6125 53.4632C25.5504 53.4339 25.4953 53.3919 25.4505 53.34L24.3105 52.04L24.1705 51.98C24.0784 51.9436 23.9995 51.8802 23.9441 51.7981C23.8888 51.716 23.8596 51.619 23.8605 51.52L23.9305 47.72L23.9005 24.69L23.9605 20.92L21.3405 3.77L20.9305 1.39C20.9191 1.32174 20.9223 1.25185 20.9399 1.18493C20.9575 1.118 20.9891 1.05556 21.0325 1.00171C21.076 0.947864 21.1303 0.903831 21.192 0.87251C21.2537 0.84119 21.3214 0.823293 21.3905 0.819998L25.3705 0.719998L52.7005 -0.400002L85.0405 -2.26L85.0305 -2.27ZM73.5705 60.03V58.64C73.5705 58.47 73.6505 58.32 73.7905 58.23L74.2905 57.9L73.0705 55.36C73.0176 55.251 73.0069 55.1264 73.0405 55.01L76.7205 41.85L75.6605 40.47C75.5918 40.3771 75.5582 40.263 75.5655 40.1477C75.5728 40.0324 75.6206 39.9235 75.7005 39.84L80.5805 34.85L80.4305 30.48C80.4305 30.38 80.4605 30.28 80.5105 30.2L84.1305 24.68C84.0699 24.5819 84.0467 24.4652 84.065 24.3514C84.0834 24.2375 84.1421 24.1341 84.2305 24.06L87.1605 21.58L86.5105 18.45C86.4958 18.3852 86.4944 18.3181 86.5065 18.2528C86.5185 18.1875 86.5437 18.1253 86.5805 18.07L89.0005 14.6L88.6405 11.3C88.6405 11.2 88.6505 11.1 88.7005 11L91.0205 6.93L82.6405 7.83C82.5501 7.83656 82.4596 7.81792 82.3792 7.77615C82.2988 7.73438 82.2315 7.67111 82.1848 7.59339C82.1382 7.51566 82.1141 7.42653 82.1151 7.33589C82.116 7.24526 82.1422 7.15668 82.1905 7.08L85.9905 1.53L84.7505 -1.27L52.7305 0.559998L25.4005 1.7L21.9805 1.79L22.3005 3.63L24.9305 20.83V20.91L24.8705 24.71L24.9005 47.74L24.8405 51.21C24.8805 51.24 24.9305 51.27 24.9605 51.31L26.0305 52.55L30.9005 52.58C31.1605 52.58 31.3705 52.78 31.3805 53.05L31.5905 60.5L31.6605 62.13L33.8105 62L41.8605 61.73H41.8705L73.5705 60.03Z" fill="#B7BCBF" fill-opacity="0.1"/>
<path fill-rule="evenodd" clip-rule="evenodd" d="M21.57 -7.94002C21.67 -7.86002 21.72 -7.74002 21.73 -7.61002L21.81 -5.41002V-3.18002L21.89 -0.900023V1.26998L22.29 3.62998L24.93 20.83C24.9321 20.8566 24.9321 20.8834 24.93 20.91L24.87 24.71L24.9 47.74L24.83 51.54C24.8287 51.6043 24.8147 51.6678 24.7889 51.7267C24.7631 51.7857 24.7259 51.839 24.6794 51.8836C24.633 51.9281 24.5782 51.9631 24.5183 51.9865C24.4583 52.0099 24.3943 52.0213 24.33 52.02H24.24L24.16 52.01L20.88 51.29C20.8187 51.2745 20.761 51.2474 20.71 51.21L17.03 48.63L13.07 46.78L5.18999 48.71C5.10806 48.7316 5.02193 48.7316 4.93999 48.71L2.99999 48.15L0.559998 48.99L-2.7 51.43C-2.77212 51.4846 -2.85793 51.5181 -2.94794 51.527C-3.03796 51.5358 -3.12866 51.5195 -3.21001 51.48L-11.33 47.27L-13.93 50.57C-13.9965 50.6496 -14.0866 50.706 -14.1872 50.7312C-14.2878 50.7563 -14.3939 50.7489 -14.49 50.71L-18.41 49.12C-18.4451 49.1071 -18.4786 49.0903 -18.51 49.07L-22.34 46.41L-24.41 48.04C-24.4966 48.1049 -24.6018 48.14 -24.71 48.14H-26.91C-26.976 48.1413 -27.0417 48.1293 -27.1029 48.1047C-27.1642 48.08 -27.2199 48.0433 -27.2666 47.9966C-27.3133 47.9499 -27.3501 47.8942 -27.3747 47.8329C-27.3994 47.7716 -27.4114 47.706 -27.41 47.64L-27.35 46.34L-32.69 43.56L-34.89 44.48C-34.9861 44.5189 -35.0922 44.5263 -35.1928 44.5012C-35.2934 44.476 -35.3835 44.4196 -35.45 44.34L-36.46 43.09L-42.76 42.19C-42.8626 42.1731 -42.9571 42.1241 -43.03 42.05L-47.39 37.75L-47.9 38.67C-47.9459 38.7525 -48.0147 38.82 -48.0981 38.8644C-48.1815 38.9087 -48.2759 38.928 -48.37 38.92L-52 38.61C-52.1145 38.5968 -52.2208 38.5437 -52.3 38.46L-55.56 35.12C-55.6188 35.0586 -55.6602 34.9826 -55.68 34.9L-57.01 29.77C-57.0192 29.7273 -57.0226 29.6836 -57.02 29.64L-56.16 1.19998L-77.34 0.119976L-97.79 -1.18002L-98.29 -1.21002C-98.3544 -1.21384 -98.4174 -1.23034 -98.4754 -1.25857C-98.5334 -1.28679 -98.5852 -1.32619 -98.628 -1.3745C-98.6707 -1.42281 -98.7035 -1.47909 -98.7244 -1.5401C-98.7454 -1.60111 -98.7541 -1.66565 -98.75 -1.73002L-98.07 -10.59C-98.0573 -10.7183 -97.9946 -10.8365 -97.8954 -10.9189C-97.7962 -11.0012 -97.6685 -11.0412 -97.54 -11.03L-95.86 -10.88L-92.3 -10.66L-90.62 -10.51L-85.31 -10.13L-83.95 -10.08L-80.32 -9.85002L-60.72 -8.83002L-14.77 -7.71002L18 -7.95002L21.21 -8.07002C21.3391 -8.07351 21.4645 -8.02692 21.56 -7.94002H21.57ZM20.77 -7.08002L18.04 -6.98002H18.02L-14.78 -6.74002L-60.76 -7.86002L-80.38 -8.88002L-84.01 -9.11002L-85.35 -9.16002H-85.37L-90.7 -9.54002L-92.38 -9.69002L-95.94 -9.92002L-97.14 -10.02L-97.74 -2.16002H-97.73L-77.28 -0.850024L-55.64 0.249976C-55.5144 0.260052 -55.3973 0.317147 -55.312 0.409845C-55.2268 0.502544 -55.1796 0.624016 -55.18 0.749976L-56.06 29.6L-54.79 34.54L-51.75 37.66L-48.61 37.93L-47.94 36.71C-47.9023 36.6451 -47.8502 36.5898 -47.7877 36.5483C-47.7252 36.5068 -47.654 36.4802 -47.5796 36.4705C-47.5052 36.4609 -47.4296 36.4684 -47.3586 36.4926C-47.2876 36.5168 -47.223 36.5569 -47.17 36.61L-42.47 41.25L-36.15 42.15C-36.03 42.17 -35.92 42.24 -35.84 42.33L-34.94 43.45L-32.86 42.58C-32.7943 42.5535 -32.7236 42.5415 -32.6528 42.545C-32.582 42.5484 -32.5128 42.5672 -32.45 42.6L-26.64 45.62C-26.47 45.71 -26.37 45.88 -26.38 46.07L-26.42 47.17H-24.89L-22.66 45.42C-22.49 45.29 -22.26 45.28 -22.09 45.4L-18.01 48.24L-14.48 49.68L-11.85 46.35C-11.7 46.17 -11.45 46.11 -11.25 46.22L-3.05 50.48L0.0299988 48.17C0.068887 48.1367 0.11275 48.1097 0.159996 48.09L2.82 47.19C2.92 47.15 3.02 47.15 3.12 47.17L5.07999 47.73L13 45.79C13.1 45.76 13.22 45.77 13.32 45.82L17.48 47.76L17.55 47.8L21.18 50.35L23.87 50.94L23.92 47.72L23.9 24.69L23.96 20.92L21.34 3.76998L20.93 1.38998L20.92 1.29998V-0.890024L20.84 -3.17002V-5.38002L20.78 -7.08002H20.77Z" fill="#B7BCBF" fill-opacity="0.1"/>
<path d="M85.6802 129.26L84.5702 129.46L84.0402 129.96L85.6802 129.26ZM89.2302 129.4L88.6502 129.12L88.4702 129.37L89.2302 129.4ZM91.2902 128.8L90.6902 128.78L90.3402 129.18L91.2902 128.8ZM90.2902 128.17L90.1402 127.91L90.0402 128.16H90.3002L90.2902 128.17ZM97.2402 123.95L96.9802 124.11L97.4002 124.13L97.2402 123.95ZM109.28 119.43L109.81 118.78L109.19 119.51L109.28 119.43ZM111.06 117.3L110.88 117.38V117.46L111.06 117.3ZM67.2902 123.03L68.6202 121.48L65.1902 120.41L63.6102 121.62L67.2902 123.03ZM102.68 117.06L102.35 116.71L102.26 116.87L102.68 117.06ZM103.67 115.57L102.83 115.29L103.05 116.14L103.67 115.57ZM112.4 113.38L112.31 113.28L112.39 113.46V113.38H112.4ZM111.73 113.18L111.56 113.08L111.46 113.34L111.73 113.18ZM105.81 112.69L106.59 112.47V112.22L105.81 112.69ZM106.25 112.29L106.69 111.89L106.61 111.79L106.25 112.29ZM103.42 109.05L103.24 109.21H103.33L103.42 109.05ZM74.0602 60.5H73.8902L41.8902 62.2L33.8302 62.48L31.2002 62.63V64.66L32.2502 81.04L34.8902 85.04V87.32L37.4102 92.16L39.3302 99.17L38.4202 103.03L37.4502 112.64L36.0502 115.72H36.2302L36.4002 117.93L34.8802 119.9L45.4102 119.13L53.5302 121.73L59.3302 122.73L62.3802 120.73L60.8502 118.55L66.3302 117.07L66.0902 118.93L68.9102 118.36L71.0502 122L73.0302 121.4L77.9702 125.06L74.7902 126.04L81.9002 128.44L84.6002 128.54L86.2902 126.66L89.8302 124.93L92.1402 128.58L93.9602 125.43L93.6602 120.34L98.1602 122.3L98.6002 123.84L103.99 124.73L106.61 127.03L106.2 128.79L110.14 125.39L108.78 123.47L102.5 121.62L100.18 120.18L100.2 117.64L102.8 118.08L105 114.02L102.52 110.28L100.95 113.68L97.6702 112.97L100.1 109.34L98.6002 108.86L94.7702 111.33L89.4302 111.46L87.9502 110.22L90.5702 106L93.4502 106.03L98.3002 107.83L101.84 108.31L99.9902 105.78L96.5502 98.37L97.7202 94.35L68.4202 96.42L69.5602 95.36L68.4902 92.27L70.3702 89.72L71.6502 83.17L78.5102 72.44L75.5302 68.51L75.8002 65.73L74.0402 61.09L74.0602 60.49V60.5Z" fill="#DCDFE0" fill-opacity="0.3"/>
<path fill-rule="evenodd" clip-rule="evenodd" d="M73.8702 60H73.9102L74.0802 60.01C74.3502 60.02 74.5602 60.25 74.5502 60.51L74.5302 61.01L76.2602 65.56C76.2802 65.63 76.2902 65.7 76.2902 65.78L76.0302 68.37L78.8902 72.14C78.9506 72.2196 78.9858 72.3156 78.9911 72.4154C78.9964 72.5152 78.9717 72.6144 78.9202 72.7L72.1002 83.35L70.8402 89.82C70.826 89.8927 70.7952 89.9612 70.7502 90.02L69.0302 92.36L70.0102 95.2C70.0702 95.39 70.0102 95.59 69.8802 95.72L69.7502 95.84L97.6802 93.87C97.7579 93.8656 97.8356 93.8798 97.9068 93.9113C97.9779 93.9429 98.0405 93.991 98.0894 94.0516C98.1383 94.1122 98.172 94.1836 98.1878 94.2598C98.2036 94.3361 98.201 94.415 98.1802 94.49L97.0602 98.33L100.4 105.53L102.22 108.02C102.275 108.098 102.307 108.189 102.31 108.284C102.314 108.379 102.29 108.473 102.241 108.555C102.193 108.637 102.121 108.702 102.036 108.744C101.95 108.786 101.855 108.802 101.76 108.79L98.2202 108.31C98.186 108.303 98.1525 108.293 98.1202 108.28L93.3502 106.52L90.8302 106.49L88.5802 110.12L89.5902 110.97L94.6102 110.85L98.3202 108.45C98.3803 108.411 98.448 108.386 98.5187 108.376C98.5894 108.365 98.6615 108.37 98.7302 108.39L100.23 108.88C100.303 108.902 100.369 108.94 100.424 108.992C100.478 109.044 100.52 109.108 100.545 109.179C100.571 109.25 100.579 109.326 100.569 109.401C100.56 109.476 100.533 109.548 100.49 109.61L98.4602 112.65L100.66 113.13L102.07 110.08C102.107 110.004 102.164 109.938 102.234 109.89C102.304 109.842 102.386 109.813 102.47 109.806C102.555 109.799 102.64 109.814 102.717 109.85C102.794 109.885 102.861 109.941 102.91 110.01L105.39 113.75C105.49 113.9 105.5 114.09 105.42 114.25L103.22 118.31C103.171 118.397 103.097 118.467 103.008 118.511C102.919 118.556 102.819 118.573 102.72 118.56L100.67 118.21V119.91L102.69 121.17L108.91 123.01C109.01 123.04 109.11 123.11 109.17 123.19L110.53 125.11C110.68 125.31 110.64 125.59 110.45 125.76L106.51 129.16C106.433 129.228 106.336 129.27 106.233 129.279C106.131 129.288 106.028 129.264 105.94 129.21C105.851 129.157 105.782 129.077 105.742 128.981C105.703 128.886 105.695 128.78 105.72 128.68L106.06 127.2L103.76 125.18L98.5102 124.32C98.4183 124.306 98.3325 124.265 98.2632 124.203C98.194 124.141 98.1443 124.06 98.1202 123.97L97.7402 122.65L94.1802 121.1L94.4402 125.4C94.4402 125.5 94.4202 125.6 94.3702 125.68L92.5602 128.82C92.5216 128.89 92.4663 128.948 92.3993 128.991C92.3323 129.034 92.2557 129.06 92.1764 129.066C92.097 129.072 92.0175 129.058 91.9448 129.025C91.8722 128.993 91.8087 128.943 91.7602 128.88C91.7458 128.962 91.7107 129.039 91.6582 129.104C91.6057 129.169 91.5375 129.219 91.4602 129.25L90.5202 129.63C90.4198 129.674 90.3074 129.682 90.2016 129.653C90.0958 129.625 90.0031 129.56 89.9389 129.472C89.8746 129.383 89.8427 129.275 89.8484 129.165C89.8541 129.056 89.8971 128.952 89.9702 128.87L90.1602 128.65H90.0102C89.9337 128.645 89.8594 128.623 89.7932 128.585C89.727 128.546 89.6707 128.493 89.6289 128.428C89.5871 128.364 89.5609 128.291 89.5524 128.215C89.544 128.139 89.5535 128.062 89.5802 127.99L89.6802 127.74C89.7119 127.656 89.7666 127.582 89.8382 127.527C89.9099 127.472 89.9954 127.439 90.0851 127.431C90.1749 127.422 90.2651 127.439 90.3456 127.48C90.4261 127.521 90.4935 127.583 90.5402 127.66L90.7002 127.92C90.7702 128.03 90.7902 128.17 90.7602 128.29L91.3002 128.31C91.3341 128.313 91.3676 128.32 91.4002 128.33L89.6402 125.56L86.5802 127.06L84.9602 128.86C84.945 128.878 84.9283 128.895 84.9102 128.91L85.5802 128.78C85.6406 128.762 85.704 128.755 85.7669 128.761C85.8297 128.768 85.8908 128.786 85.9465 128.816C86.0022 128.845 86.0515 128.886 86.0916 128.935C86.1317 128.983 86.1618 129.04 86.1802 129.1C86.1986 129.16 86.2049 129.224 86.1988 129.287C86.1926 129.35 86.1742 129.411 86.1445 129.466C86.1147 129.522 86.0743 129.571 86.0256 129.611C85.9768 129.652 85.9206 129.682 85.8602 129.7L84.2202 130.4C84.1162 130.437 84.0026 130.439 83.8979 130.404C83.7931 130.368 83.7033 130.299 83.6431 130.206C83.5829 130.113 83.5557 130.003 83.5661 129.893C83.5765 129.783 83.6237 129.68 83.7002 129.6L84.2302 129.11L84.3802 129.01L81.8802 128.91C81.8294 128.912 81.7787 128.905 81.7302 128.89L74.6302 126.49C74.5364 126.454 74.4557 126.391 74.3992 126.308C74.3426 126.225 74.3129 126.127 74.314 126.027C74.3151 125.926 74.3469 125.829 74.4053 125.747C74.4636 125.665 74.5456 125.604 74.6402 125.57L76.9002 124.87L72.9202 121.93L71.1902 122.46C71.0857 122.491 70.9739 122.486 70.8725 122.446C70.771 122.406 70.6858 122.334 70.6302 122.24L68.6602 118.9L66.1802 119.4C66.104 119.417 66.0248 119.415 65.9495 119.395C65.8741 119.375 65.8049 119.336 65.7477 119.283C65.6906 119.23 65.6473 119.163 65.6216 119.09C65.5959 119.016 65.5885 118.937 65.6002 118.86L65.7502 117.73L61.6402 118.83L62.7702 120.45C62.8071 120.503 62.8328 120.564 62.8458 120.627C62.8588 120.691 62.8587 120.756 62.8456 120.82C62.8325 120.884 62.8067 120.944 62.7697 120.997C62.7327 121.05 62.6852 121.096 62.6302 121.13L59.5902 123.13C59.4902 123.2 59.3602 123.23 59.2402 123.2L53.4402 122.21C53.4167 122.208 53.3933 122.205 53.3702 122.2L45.3402 119.62L34.9002 120.39C34.8075 120.395 34.7153 120.373 34.6345 120.328C34.5536 120.282 34.4872 120.215 34.4432 120.133C34.3992 120.051 34.3793 119.959 34.3859 119.866C34.3924 119.774 34.4251 119.685 34.4802 119.61L35.8802 117.78L35.7602 116.11C35.6723 116.043 35.6097 115.948 35.5825 115.841C35.5552 115.734 35.565 115.621 35.6102 115.52L36.9702 112.52L37.9302 102.98V102.92L38.8302 99.18L36.9402 92.33L34.4402 87.54C34.4066 87.4716 34.3895 87.3962 34.3902 87.32V85.18L31.8402 81.3C31.7942 81.2315 31.7666 81.1523 31.7602 81.07L30.7102 64.69V64.66L30.7002 62.63C30.7002 62.37 30.9002 62.16 31.1602 62.14L33.8002 62L41.8602 61.73L73.8602 60.02L73.8702 60ZM36.6702 115.53C36.6902 115.58 36.7102 115.63 36.7102 115.69L36.8802 117.89C36.8802 118.01 36.8502 118.13 36.7802 118.23L35.9202 119.33L45.3802 118.65C45.4402 118.65 45.5002 118.65 45.5602 118.67L53.6402 121.27L59.2302 122.21L61.6902 120.6L60.4602 118.83C60.4135 118.767 60.3832 118.693 60.3719 118.615C60.3605 118.537 60.3686 118.457 60.3952 118.383C60.4219 118.309 60.4664 118.242 60.5249 118.19C60.5833 118.137 60.6538 118.099 60.7302 118.08L66.2102 116.6C66.2874 116.581 66.368 116.582 66.445 116.602C66.522 116.621 66.5931 116.659 66.6521 116.712C66.7112 116.765 66.7564 116.832 66.7839 116.907C66.8115 116.981 66.8205 117.061 66.8102 117.14L66.6602 118.32L68.8102 117.88C68.91 117.861 69.0132 117.873 69.1061 117.914C69.199 117.955 69.2771 118.023 69.3302 118.11L71.2802 121.42L72.8802 120.93C72.9549 120.91 73.033 120.907 73.109 120.921C73.185 120.935 73.2571 120.965 73.3202 121.01L78.2502 124.67C78.3226 124.724 78.3788 124.796 78.4127 124.879C78.4466 124.963 78.4569 125.054 78.4425 125.143C78.428 125.232 78.3893 125.315 78.3307 125.383C78.2721 125.451 78.1958 125.502 78.1102 125.53L76.3802 126.06L81.9802 127.95L84.4002 128.05L85.9302 126.33C85.9729 126.284 86.0238 126.247 86.0802 126.22L89.6202 124.5C89.7267 124.449 89.848 124.438 89.962 124.469C90.0759 124.5 90.1747 124.572 90.2402 124.67L92.1302 127.64L93.4702 125.32L93.1702 120.37C93.1671 120.288 93.1848 120.206 93.2217 120.132C93.2586 120.058 93.3135 119.995 93.3812 119.948C93.449 119.902 93.5275 119.873 93.6095 119.864C93.6915 119.856 93.7743 119.868 93.8502 119.9L98.3502 121.85C98.4802 121.91 98.5802 122.02 98.6202 122.16L98.9802 123.41L104.07 124.25C104.16 124.26 104.24 124.3 104.31 124.36L106.93 126.66C107.06 126.78 107.13 126.96 107.08 127.14L107.01 127.45L109.49 125.31L108.49 123.89L102.36 122.09C102.318 122.075 102.278 122.055 102.24 122.03L99.9302 120.59C99.8591 120.546 99.8007 120.484 99.7604 120.41C99.7201 120.336 99.6994 120.254 99.7002 120.17L99.7102 117.64C99.7107 117.569 99.7265 117.499 99.7566 117.435C99.7867 117.371 99.8304 117.314 99.8846 117.269C99.9387 117.223 100.002 117.19 100.07 117.171C100.139 117.152 100.21 117.148 100.28 117.16L102.55 117.54V117.53C102.526 117.522 102.503 117.512 102.48 117.5L102.06 117.31C102 117.282 101.946 117.243 101.902 117.193C101.858 117.144 101.824 117.086 101.804 117.023C101.783 116.96 101.776 116.894 101.782 116.828C101.788 116.762 101.808 116.698 101.84 116.64L101.93 116.47C101.993 116.358 102.098 116.276 102.221 116.24C102.345 116.204 102.477 116.219 102.59 116.28V116.26L102.36 115.41C102.34 115.325 102.342 115.236 102.368 115.153C102.393 115.069 102.44 114.994 102.505 114.935C102.569 114.876 102.648 114.835 102.733 114.816C102.819 114.798 102.907 114.803 102.99 114.83L103.83 115.11L103.85 115.12L104.44 114.04L102.6 111.27L101.39 113.89C101.341 113.99 101.261 114.07 101.161 114.119C101.062 114.168 100.949 114.182 100.84 114.16L97.5702 113.44C97.4928 113.424 97.4206 113.389 97.3599 113.339C97.2993 113.288 97.252 113.223 97.2223 113.15C97.1926 113.077 97.1815 112.998 97.1898 112.919C97.1982 112.841 97.2258 112.765 97.2702 112.7L99.3402 109.6L98.6702 109.39L95.0302 111.74C94.9559 111.789 94.8693 111.817 94.7802 111.82L89.4402 111.95C89.3224 111.951 89.2085 111.908 89.1202 111.83L87.6402 110.59C87.5511 110.514 87.492 110.409 87.4736 110.294C87.4553 110.178 87.4789 110.06 87.5402 109.96L90.1602 105.75C90.2047 105.679 90.2666 105.62 90.3402 105.58C90.4137 105.54 90.4964 105.519 90.5802 105.52L93.4602 105.55C93.5153 105.545 93.5706 105.555 93.6202 105.58L98.4202 107.36L100.77 107.67L99.5902 106.07C99.5736 106.042 99.5602 106.011 99.5502 105.98L96.1102 98.57C96.0598 98.4639 96.0491 98.3433 96.0802 98.23L97.0602 94.88L68.4502 96.9C68.3514 96.9035 68.2539 96.8771 68.1704 96.8241C68.0869 96.7712 68.0214 96.6942 67.9824 96.6033C67.9435 96.5125 67.9329 96.4119 67.9522 96.315C67.9714 96.218 68.0195 96.1291 68.0902 96.06L68.9902 95.22L68.0302 92.43C68.0063 92.3563 68.0001 92.2781 68.0123 92.2016C68.0245 92.1251 68.0546 92.0526 68.1002 91.99L69.9202 89.52L71.1702 83.08C71.1826 83.0194 71.2063 82.9617 71.2402 82.91L77.9202 72.46L75.1402 68.81C75.0632 68.7105 75.0274 68.5852 75.0402 68.46L75.3102 65.8L73.5802 61.26C73.5575 61.1993 73.5473 61.1347 73.5502 61.07V61L41.9002 62.69L33.8502 62.96L31.6802 63.09V64.64L32.7302 80.88L35.3002 84.76C35.3502 84.84 35.3802 84.94 35.3802 85.03V87.2L37.8402 91.93C37.8502 91.96 37.8702 91.99 37.8702 92.03L39.8002 99.04C39.8248 99.1181 39.8248 99.2019 39.8002 99.28L38.9002 103.11L37.9302 112.69C37.9302 112.74 37.9102 112.79 37.8902 112.84L36.6702 115.54V115.53ZM103.04 116.63L103 116.69L102.92 116.61L103.04 116.63ZM103.72 108.66C103.808 108.734 103.869 108.836 103.89 108.949C103.912 109.062 103.895 109.179 103.84 109.28L103.75 109.45C103.707 109.529 103.644 109.594 103.566 109.638C103.488 109.682 103.4 109.703 103.31 109.7H103.22C103.122 109.699 103.026 109.667 102.946 109.61C102.866 109.553 102.806 109.473 102.773 109.38C102.741 109.287 102.737 109.187 102.763 109.092C102.79 108.997 102.844 108.913 102.92 108.85L103.09 108.69C103.175 108.612 103.284 108.566 103.4 108.56C103.515 108.555 103.628 108.59 103.72 108.66ZM106.58 111.31C106.73 111.31 106.87 111.36 106.97 111.47L107.05 111.55C107.129 111.635 107.175 111.744 107.18 111.86C107.186 111.975 107.15 112.088 107.08 112.18V112.49C107.07 112.592 107.031 112.688 106.967 112.768C106.903 112.848 106.817 112.908 106.72 112.94L105.95 113.16C105.839 113.186 105.723 113.172 105.621 113.121C105.519 113.07 105.438 112.985 105.391 112.881C105.345 112.777 105.337 112.66 105.368 112.55C105.398 112.441 105.467 112.345 105.56 112.28L105.79 112.14L105.86 112L106.22 111.51C106.31 111.39 106.44 111.31 106.58 111.31ZM111.39 112.63C111.455 112.606 111.524 112.596 111.593 112.601C111.663 112.606 111.73 112.626 111.79 112.66L111.96 112.76C112.01 112.78 112.06 112.82 112.09 112.86C112.29 112.76 112.52 112.8 112.67 112.96L112.75 113.05C112.84 113.15 112.89 113.27 112.88 113.39V113.48C112.873 113.588 112.83 113.69 112.758 113.771C112.687 113.852 112.591 113.907 112.484 113.928C112.378 113.948 112.268 113.933 112.172 113.885C112.075 113.836 111.997 113.757 111.95 113.66L111.93 113.62L111.72 113.75C111.635 113.803 111.535 113.827 111.435 113.82C111.335 113.813 111.24 113.775 111.162 113.711C111.085 113.647 111.03 113.56 111.004 113.463C110.979 113.366 110.984 113.264 111.02 113.17L111.11 112.92C111.133 112.854 111.17 112.794 111.218 112.744C111.267 112.694 111.325 112.655 111.39 112.63ZM110.69 113.67C110.96 113.68 111.17 113.91 111.16 114.17L111.15 114.43C111.129 114.546 111.067 114.651 110.974 114.725C110.882 114.8 110.766 114.838 110.648 114.833C110.529 114.828 110.417 114.78 110.331 114.699C110.245 114.618 110.192 114.508 110.18 114.39V114.14C110.181 114.075 110.196 114.011 110.222 113.952C110.249 113.893 110.287 113.84 110.335 113.796C110.382 113.752 110.439 113.718 110.5 113.697C110.561 113.675 110.626 113.666 110.69 113.67ZM111.46 117.03C111.59 117.23 111.56 117.5 111.39 117.66L111.21 117.82C111.14 117.885 111.052 117.927 110.957 117.941C110.863 117.955 110.766 117.941 110.68 117.9C110.591 117.862 110.516 117.797 110.464 117.715C110.412 117.633 110.386 117.537 110.39 117.44V117.36C110.398 117.27 110.43 117.183 110.483 117.109C110.536 117.035 110.607 116.977 110.69 116.94L110.86 116.86C111.07 116.76 111.33 116.83 111.46 117.03ZM110.12 118.4C110.32 118.57 110.36 118.88 110.19 119.08L109.65 119.74C109.638 119.758 109.625 119.774 109.61 119.79L109.51 119.87C109.417 119.942 109.302 119.978 109.185 119.971C109.068 119.965 108.957 119.917 108.872 119.836C108.787 119.755 108.735 119.646 108.723 119.529C108.712 119.413 108.743 119.296 108.81 119.2L109.44 118.47C109.48 118.42 109.529 118.379 109.585 118.349C109.641 118.318 109.702 118.299 109.766 118.293C109.829 118.286 109.893 118.292 109.954 118.311C110.015 118.329 110.071 118.36 110.12 118.4ZM64.8902 120.03C65.0202 119.93 65.1802 119.9 65.3302 119.95L68.7602 121.01C68.8368 121.034 68.9063 121.077 68.9626 121.134C69.0189 121.191 69.0602 121.262 69.0829 121.339C69.1056 121.416 69.1091 121.497 69.0929 121.576C69.0767 121.655 69.0415 121.728 68.9902 121.79L67.6502 123.35C67.5851 123.425 67.4985 123.479 67.4021 123.504C67.3056 123.529 67.2038 123.524 67.1102 123.49L63.4402 122.07C63.3625 122.037 63.2946 121.985 63.2431 121.918C63.1916 121.851 63.1582 121.772 63.1462 121.689C63.1341 121.605 63.1438 121.52 63.1743 121.442C63.2047 121.363 63.255 121.294 63.3202 121.24L64.8902 120.03ZM65.2902 120.95L64.5902 121.48L67.1402 122.46L67.7702 121.72L65.2802 120.95H65.2902ZM96.9902 123.54C97.1902 123.42 97.4402 123.45 97.5902 123.62L97.7602 123.8C97.822 123.872 97.8617 123.96 97.8746 124.053C97.8875 124.147 97.873 124.243 97.8328 124.328C97.7926 124.414 97.7285 124.486 97.6482 124.536C97.5679 124.586 97.4748 124.612 97.3802 124.61L96.9602 124.6C96.854 124.599 96.7509 124.564 96.6672 124.498C96.5835 124.433 96.5238 124.342 96.4975 124.239C96.4712 124.136 96.4798 124.027 96.5219 123.93C96.564 123.832 96.6373 123.751 96.7302 123.7L96.9902 123.54ZM88.2602 128.84C88.325 128.747 88.4209 128.679 88.5308 128.65C88.6407 128.621 88.7574 128.631 88.8602 128.68L89.4402 128.96C89.5455 129.005 89.6314 129.085 89.6824 129.188C89.7334 129.29 89.7462 129.407 89.7184 129.518C89.6907 129.629 89.6242 129.727 89.5311 129.793C89.4379 129.859 89.3241 129.89 89.2102 129.88L88.4502 129.85C88.3634 129.844 88.2797 129.816 88.2076 129.767C88.1355 129.719 88.0776 129.652 88.04 129.573C88.0023 129.495 87.9862 129.408 87.9932 129.321C88.0003 129.234 88.0303 129.151 88.0802 129.08L88.2602 128.83V128.84Z" fill="#B7BCBF" fill-opacity="0.1"/>
<path d="M-16.8693 184.23L-20.3293 168.78L-20.4393 171.65L-16.8693 184.23ZM-16.7393 157.33L-19.8393 162.62L-20.2393 164.38L-16.7393 157.32V157.33ZM-14.2993 153.44L-11.4593 150L-13.4493 151.1L-14.2993 153.44ZM-4.39929 145.19L-10.8793 148.24L-9.08929 147.97L-4.4093 145.19H-4.39929ZM-3.50929 144.04L-1.67929 142.68L-2.36929 142.82L-3.50929 144.04ZM-98.2693 -1.69004L-98.8593 -1.79004L-104.839 77.36L-121.559 75.94L-148.319 73.37L-159.029 72.19L-157.079 76.41L-156.999 76.5L-148.219 85.98L-143.219 92.36L-136.479 97.79L-131.929 106.94L-130.429 116.39L-126.559 119.16L-123.569 122.76L-119.149 124.53L-112.799 128.93L-109.879 130.14L-105.659 126.24L-104.219 121.99L-101.949 117.93L-95.2493 115.57L-92.7493 116.93L-85.4193 117.81L-78.8993 122.21L-74.3693 123.24L-75.7293 125.56L-73.1693 127.35L-70.8393 130.4L-70.4493 133.55L-68.9293 135.73L-65.5593 144.83L-61.9593 148.1L-59.2593 152.95L-55.7793 156.81L-54.1893 157.38L-53.2193 167.07L-49.3193 169.42L-49.2793 172.47L-48.2493 172.25L-41.6493 180.98L-38.2093 181.88L-33.9093 184.66L-27.1493 184.93L-22.3493 187.83L-16.4593 186.79L-18.9893 184.23L-21.0793 177.04L-21.7593 170.84L-23.0393 168.76L-22.2793 164.64L-24.0493 164.4L-26.2693 160.42L-23.6693 163.4L-20.4993 162.42L-18.6293 158.01L-21.8293 153.31L-16.7893 154.11L-14.2793 150.56L-14.5593 149.28L-12.3393 146.58L-12.9393 149.01L-10.4993 147.24L-11.2993 143.91L-8.31931 145.63L-4.33929 143.59L-7.9893 139.47L-5.6593 140.49L-1.2693 140.92L4.5307 139.87L11.1307 135.82L15.1407 132.76L15.8307 130.41L18.2907 128.06L17.1907 123.95L17.5407 121.42L21.8407 119.73L21.3207 124.2L23.8607 124.3L20.9807 126.55L32.4607 121.08L34.3207 121.07L35.7207 115.71H36.0607L37.4507 112.64L38.4207 103.03L39.3307 99.17L37.4107 92.16L34.8907 87.32V85.03L32.2507 81.03L31.2007 64.66V62.63L31.1007 60.51L30.9007 53.05L25.8107 53.02L24.6007 51.62L24.3507 51.52H24.2607L21.0007 50.8L17.2907 48.2L13.1307 46.26L5.0807 48.23L2.99071 47.64L0.330704 48.55L-2.9893 51.05L-11.4593 46.65L-14.3093 50.26L-18.2293 48.67L-22.3493 45.8L-24.7093 47.66H-26.9093L-26.8493 46.05L-32.6593 43.03L-35.0793 44.03L-36.2093 42.63L-42.6893 41.7L-47.5093 36.95L-48.3293 38.44L-51.9593 38.13L-55.2093 34.78L-56.5393 29.65L-55.6593 0.739961L-77.2993 -0.360039L-97.7493 -1.67004L-98.2493 -1.69004H-98.2693Z" fill="#DCDFE0" fill-opacity="0.3"/>
<path fill-rule="evenodd" clip-rule="evenodd" d="M-99.1496 -2.18009C-99.0496 -2.27009 -98.9096 -2.30009 -98.7696 -2.28009L-98.2196 -2.18009L-97.7296 -2.16009L-77.2896 -0.850088H-77.2796L-55.6396 0.249912C-55.5141 0.259988 -55.3969 0.317082 -55.3117 0.409781C-55.2264 0.50248 -55.1792 0.623951 -55.1796 0.749912L-56.0596 29.5999L-54.7896 34.5399L-51.7496 37.6599L-48.6096 37.9299L-47.9396 36.7099C-47.9019 36.6451 -47.8498 36.5898 -47.7873 36.5483C-47.7248 36.5067 -47.6536 36.4801 -47.5792 36.4705C-47.5048 36.4608 -47.4292 36.4683 -47.3582 36.4925C-47.2872 36.5167 -47.2227 36.5569 -47.1696 36.6099L-42.4696 41.2499L-36.1496 42.1499C-36.0296 42.1699 -35.9196 42.2399 -35.8396 42.3299L-34.9396 43.4499L-32.8596 42.5799C-32.7939 42.5534 -32.7232 42.5415 -32.6524 42.5449C-32.5816 42.5484 -32.5125 42.5671 -32.4496 42.5999L-26.6396 45.6199C-26.4696 45.7099 -26.3696 45.8799 -26.3796 46.0699L-26.4196 47.1699H-24.8896L-22.6596 45.4199C-22.4896 45.2899 -22.2596 45.2799 -22.0896 45.3999L-18.0096 48.2399L-14.4796 49.6799L-11.8496 46.3499C-11.6996 46.1699 -11.4496 46.1099 -11.2496 46.2199L-3.04962 50.4799L0.0303802 48.1699C0.0692685 48.1366 0.113124 48.1096 0.16037 48.0899L2.82037 47.1899C2.92037 47.1499 3.02038 47.1499 3.12038 47.1699L5.08038 47.7299L13.0004 45.7899C13.1004 45.7599 13.2204 45.7699 13.3204 45.8199L17.4804 47.7599L17.5504 47.7999L21.1804 50.3499L24.3204 51.0399H24.3604C24.4204 51.0399 24.4604 51.0499 24.5204 51.0699L24.7704 51.1699C24.8465 51.1965 24.9152 51.2411 24.9704 51.2999L26.0304 52.5399L30.9004 52.5699C31.1604 52.5699 31.3704 52.7699 31.3804 53.0399L31.5904 60.4899L31.6804 62.6099V64.6399L32.7304 80.8799L35.3004 84.7699C35.3506 84.8475 35.3782 84.9375 35.3804 85.0299V87.1999L37.8404 91.9299L37.8804 92.0299L39.8004 99.0399C39.8249 99.118 39.8249 99.2018 39.8004 99.2799L38.9004 103.11L37.9304 112.69C37.9304 112.74 37.9104 112.79 37.8904 112.84L36.5004 115.92C36.4649 115.998 36.409 116.065 36.3386 116.115C36.2683 116.164 36.186 116.193 36.1004 116.2L34.8004 121.19C34.7735 121.294 34.7127 121.386 34.6275 121.451C34.5423 121.516 34.4377 121.551 34.3304 121.55L32.5704 121.56L21.2004 127C21.1465 127.033 21.0866 127.056 21.0241 127.066C20.9615 127.077 20.8975 127.075 20.8358 127.06C20.774 127.046 20.7157 127.019 20.6642 126.982C20.6126 126.945 20.5689 126.899 20.5354 126.845C20.5019 126.791 20.4793 126.731 20.469 126.669C20.4587 126.606 20.4608 126.542 20.4751 126.48C20.4895 126.419 20.516 126.36 20.5529 126.309C20.5898 126.257 20.6365 126.213 20.6904 126.18L22.5304 124.74L21.3204 124.69C21.2533 124.688 21.1874 124.671 21.1268 124.642C21.0662 124.614 21.0123 124.573 20.9682 124.522C20.9241 124.471 20.8909 124.412 20.8707 124.348C20.8504 124.284 20.8435 124.217 20.8504 124.15L21.2704 120.49L17.9904 121.79L17.6904 123.93L18.7704 127.93C18.7943 128.016 18.7949 128.106 18.7721 128.193C18.7492 128.279 18.7038 128.357 18.6404 128.42L16.2704 130.69L15.6204 132.9C15.5921 132.999 15.5325 133.087 15.4504 133.15L11.4304 136.21C11.4178 136.221 11.4044 136.231 11.3904 136.24L4.79037 140.3C4.73791 140.33 4.68027 140.351 4.62038 140.36L-1.17963 141.4C-1.22273 141.406 -1.26651 141.406 -1.30962 141.4L-5.69963 140.98C-5.75091 140.978 -5.80155 140.968 -5.84962 140.95L-6.14963 140.81L-3.96962 143.28C-3.91732 143.341 -3.88084 143.414 -3.8634 143.492C-3.84596 143.571 -3.8481 143.652 -3.86963 143.73H-3.85962L-2.70963 142.5C-2.64078 142.424 -2.54986 142.371 -2.44963 142.35L-1.76962 142.21C-1.65744 142.175 -1.53623 142.182 -1.42899 142.23C-1.32174 142.278 -1.23593 142.364 -1.18784 142.472C-1.13974 142.579 -1.13269 142.7 -1.16805 142.812C-1.2034 142.924 -1.27869 143.02 -1.37962 143.08L-3.20963 144.44C-3.29137 144.498 -3.38914 144.53 -3.48969 144.532C-3.59023 144.533 -3.68868 144.503 -3.77167 144.446C-3.85465 144.389 -3.91815 144.308 -3.95357 144.214C-3.98898 144.12 -3.99458 144.017 -3.96962 143.92C-4.00933 143.965 -4.05675 144.002 -4.10962 144.03L-8.08963 146.08C-8.16208 146.115 -8.2419 146.131 -8.32211 146.127C-8.40232 146.124 -8.48045 146.101 -8.54962 146.06L-10.5496 144.91L-10.0196 147.14C-10.0096 147.2 -9.99963 147.25 -10.0096 147.31L-4.60962 144.77C-4.49997 144.732 -4.38056 144.735 -4.27261 144.777C-4.16466 144.819 -4.07515 144.898 -4.01999 145C-3.96483 145.102 -3.94758 145.22 -3.97131 145.334C-3.99505 145.447 -4.05823 145.549 -4.14963 145.62L-8.82962 148.4C-8.88524 148.431 -8.94635 148.452 -9.00963 148.46L-10.7996 148.73C-10.905 148.746 -11.0127 148.728 -11.1066 148.677C-11.2004 148.627 -11.2752 148.547 -11.3196 148.45L-12.6496 149.41C-12.73 149.463 -12.824 149.49 -12.92 149.49C-13.0161 149.49 -13.1099 149.461 -13.1898 149.408C-13.2697 149.354 -13.3322 149.279 -13.3695 149.19C-13.4068 149.102 -13.4173 149.004 -13.3996 148.91L-13.3196 148.55L-14.0196 149.42L-13.7896 150.47C-13.7596 150.6 -13.7896 150.74 -13.8696 150.85L-16.3796 154.39C-16.4312 154.464 -16.5027 154.522 -16.5858 154.558C-16.669 154.593 -16.7604 154.604 -16.8496 154.59L-20.7996 153.98L-18.2196 157.75C-18.1296 157.88 -18.1196 158.05 -18.1796 158.21L-19.1596 160.53L-17.1596 157.09C-17.092 156.989 -16.9892 156.916 -16.8712 156.887C-16.7532 156.857 -16.6284 156.873 -16.5211 156.93C-16.4139 156.988 -16.3318 157.083 -16.2908 157.197C-16.2499 157.312 -16.253 157.438 -16.2996 157.55L-19.7996 164.61C-19.8593 164.705 -19.9499 164.777 -20.0561 164.813C-20.1624 164.849 -20.2778 164.848 -20.3832 164.809C-20.4886 164.771 -20.5776 164.697 -20.6352 164.601C-20.6928 164.504 -20.7155 164.391 -20.6996 164.28L-20.3796 162.91L-23.5196 163.87C-23.6039 163.896 -23.6936 163.9 -23.7796 163.88L-23.7396 163.96L-22.2096 164.16C-22.1439 164.169 -22.0808 164.192 -22.0241 164.227C-21.9675 164.262 -21.9185 164.308 -21.8802 164.362C-21.8418 164.416 -21.8149 164.478 -21.8011 164.543C-21.7872 164.608 -21.7867 164.675 -21.7996 164.74L-22.5196 168.67L-21.3396 170.59C-21.2996 170.65 -21.2796 170.72 -21.2696 170.79L-20.5896 176.96L-18.5396 183.99L-16.0996 186.46C-16.035 186.523 -15.9894 186.602 -15.9679 186.69C-15.9464 186.777 -15.95 186.869 -15.9781 186.954C-16.0063 187.04 -16.0579 187.116 -16.1272 187.173C-16.1964 187.231 -16.2804 187.268 -16.3696 187.28L-22.2496 188.31C-22.3665 188.332 -22.4873 188.31 -22.5896 188.25L-27.2796 185.42L-33.9196 185.16C-34.0088 185.157 -34.0953 185.129 -34.1696 185.08L-38.3996 182.33L-41.7596 181.46C-41.8641 181.431 -41.9558 181.368 -42.0196 181.28L-48.4396 172.8L-49.1696 172.95C-49.2388 172.965 -49.3104 172.964 -49.3792 172.948C-49.4481 172.932 -49.5126 172.9 -49.568 172.857C-49.6234 172.813 -49.6684 172.757 -49.6998 172.694C-49.7312 172.63 -49.7482 172.561 -49.7496 172.49L-49.7996 169.71L-53.4596 167.49C-53.5227 167.451 -53.5761 167.399 -53.6159 167.336C-53.6558 167.274 -53.681 167.203 -53.6896 167.13L-54.6296 157.74L-55.9296 157.28C-56.0072 157.251 -56.0761 157.203 -56.1296 157.14L-59.6196 153.28C-59.6427 153.252 -59.6628 153.222 -59.6796 153.19L-62.3296 148.42L-65.8696 145.2C-65.9291 145.145 -65.9738 145.076 -65.9996 145L-69.3496 135.96L-70.8396 133.84C-70.884 133.774 -70.9115 133.699 -70.9196 133.62L-71.2896 130.6L-73.4996 127.71L-75.9996 125.96C-76.0978 125.889 -76.1665 125.785 -76.1923 125.667C-76.2182 125.549 -76.1994 125.425 -76.1396 125.32L-75.1096 123.58L-78.9996 122.7C-79.0569 122.687 -79.1111 122.663 -79.1596 122.63L-85.5896 118.29L-92.8096 117.43C-92.8696 117.421 -92.9273 117.4 -92.9796 117.37L-95.2796 116.11L-101.6 118.34L-103.77 122.19L-105.19 126.41C-105.215 126.486 -105.26 126.555 -105.32 126.61L-109.54 130.51C-109.607 130.576 -109.692 130.62 -109.785 130.638C-109.877 130.656 -109.973 130.646 -110.06 130.61L-112.98 129.39C-113.011 129.377 -113.042 129.36 -113.07 129.34L-119.37 124.97L-123.74 123.21C-123.817 123.18 -123.886 123.132 -123.94 123.07L-126.89 119.53L-130.71 116.79C-130.762 116.754 -130.806 116.708 -130.841 116.655C-130.875 116.602 -130.898 116.542 -130.91 116.48L-132.39 107.09L-136.86 98.1099L-143.51 92.7499C-143.54 92.7268 -143.567 92.6999 -143.59 92.6699L-148.58 86.3099L-157.42 76.7499C-157.456 76.7116 -157.487 76.6677 -157.51 76.6199L-159.46 72.3999C-159.493 72.3215 -159.506 72.2358 -159.496 72.1511C-159.486 72.0665 -159.454 71.9858 -159.404 71.9171C-159.353 71.8485 -159.286 71.7942 -159.208 71.7596C-159.13 71.725 -159.044 71.7113 -158.96 71.7199L-148.26 72.8999L-121.51 75.4699L-105.28 76.8399L-99.3296 -1.83009C-99.3229 -1.89674 -99.3025 -1.9613 -99.2699 -2.01978C-99.2372 -2.07826 -99.1929 -2.12941 -99.1396 -2.17009L-99.1496 -2.18009ZM24.3304 124.42L32.2504 120.64C32.3127 120.609 32.3809 120.592 32.4504 120.59H33.9504L35.2504 115.59C35.2777 115.482 35.3411 115.386 35.4302 115.319C35.5193 115.251 35.6288 115.217 35.7404 115.22H35.7504L36.9804 112.52L37.9404 102.98V102.92L38.8404 99.1799L36.9504 92.3299L34.4504 87.5399C34.4165 87.4716 34.3993 87.3962 34.4004 87.3199V85.1799L31.8504 81.2999C31.8048 81.2312 31.7773 81.1521 31.7704 81.0699L30.7204 64.6899C30.7201 64.6799 30.7201 64.6699 30.7204 64.6599L30.7104 62.6399L30.6204 60.5299L30.4204 53.5299L25.8104 53.5099C25.7418 53.5083 25.6743 53.4924 25.6123 53.4631C25.5503 53.4338 25.4951 53.3919 25.4504 53.3399L24.3104 52.0399L24.2504 52.0099L24.1504 51.9999L20.8804 51.2799C20.819 51.2647 20.7612 51.2375 20.7104 51.1999L17.0304 48.6199L13.0704 46.7699L5.19038 48.6999C5.10845 48.7215 5.02232 48.7215 4.94038 48.6999L3.00038 48.1499L0.560379 48.9899L-2.69963 51.4399C-2.77271 51.4929 -2.859 51.5247 -2.94899 51.5317C-3.03898 51.5388 -3.12918 51.5209 -3.20963 51.4799L-11.3296 47.2699L-13.9296 50.5699C-13.9961 50.6495 -14.0862 50.706 -14.1868 50.7311C-14.2874 50.7563 -14.3935 50.7489 -14.4896 50.7099L-18.4096 49.1199C-18.4448 49.1072 -18.4784 49.0904 -18.5096 49.0699L-22.3396 46.4099L-24.4096 48.0399C-24.4962 48.1048 -24.6014 48.1399 -24.7096 48.1399H-26.9096C-26.9748 48.1399 -27.0394 48.1269 -27.0995 48.1017C-27.1596 48.0764 -27.2141 48.0394 -27.2597 47.9929C-27.3053 47.9463 -27.3412 47.8911 -27.3652 47.8305C-27.3893 47.7699 -27.401 47.7051 -27.3996 47.6399L-27.3496 46.3399L-32.6896 43.5599L-34.8896 44.4799C-34.9858 44.5189 -35.0918 44.5263 -35.1924 44.5011C-35.2931 44.476 -35.3831 44.4195 -35.4496 44.3399L-36.4596 43.0899L-42.7596 42.1899C-42.8622 42.1731 -42.9568 42.124 -43.0296 42.0499L-47.3896 37.7499L-47.8996 38.6699C-47.9455 38.7524 -48.0143 38.82 -48.0977 38.8643C-48.1811 38.9087 -48.2755 38.928 -48.3696 38.9199L-51.9996 38.6099C-52.1142 38.5968 -52.2204 38.5436 -52.2996 38.4599L-55.5596 35.1199C-55.618 35.0582 -55.6594 34.9824 -55.6796 34.8999L-57.0096 29.7699C-57.0189 29.7272 -57.0222 29.6835 -57.0196 29.6399L-56.1596 1.19991L-77.3396 0.119911L-97.7896 -1.18009L-98.2896 -1.21009H-98.3596L-98.4096 -1.22009L-104.36 77.3899C-104.365 77.4543 -104.382 77.5171 -104.412 77.5747C-104.441 77.6322 -104.482 77.6834 -104.531 77.7252C-104.58 77.767 -104.637 77.7987 -104.699 77.8184C-104.76 77.8381 -104.825 77.8454 -104.89 77.8399L-121.6 76.4199H-121.61L-148.36 73.8499H-148.37L-158.23 72.7599L-156.67 76.1399L-147.87 85.6499L-147.84 85.6799L-142.87 92.0199L-136.17 97.4099C-136.13 97.4499 -136.08 97.5099 -136.05 97.5699L-131.49 106.72L-131.45 106.86L-129.99 116.11L-126.29 118.77L-126.19 118.85L-123.28 122.35L-118.97 124.08L-118.87 124.13L-112.57 128.5L-109.98 129.58L-106.08 125.98L-104.68 121.83L-104.66 121.78L-104.65 121.75L-102.37 117.69C-102.31 117.59 -102.22 117.51 -102.11 117.47L-95.4096 115.11C-95.3447 115.086 -95.2754 115.076 -95.2063 115.081C-95.1373 115.086 -95.0702 115.106 -95.0096 115.14L-92.6096 116.46L-85.3696 117.33C-85.2896 117.34 -85.2196 117.37 -85.1496 117.41L-78.7096 121.76L-74.2596 122.76C-74.1842 122.777 -74.114 122.812 -74.0547 122.862C-73.9955 122.912 -73.9488 122.975 -73.9185 123.046C-73.8883 123.117 -73.8754 123.194 -73.8808 123.272C-73.8862 123.349 -73.9098 123.424 -73.9496 123.49L-75.0796 125.42L-72.8996 126.95L-72.7896 127.05L-70.4496 130.11C-70.3996 130.18 -70.3696 130.26 -70.3496 130.34L-69.9896 133.37L-68.5296 135.45L-68.4696 135.55L-65.1396 144.55L-61.6396 147.75C-61.5896 147.78 -61.5596 147.82 -61.5396 147.87L-58.8696 152.67L-55.4996 156.39L-54.0296 156.92C-53.8496 156.99 -53.7296 157.14 -53.7096 157.33L-52.7596 166.78L-49.0696 169C-48.9296 169.09 -48.8396 169.24 -48.8396 169.41L-48.7996 171.87L-48.3496 171.77C-48.2574 171.754 -48.1626 171.764 -48.076 171.8C-47.9894 171.835 -47.9144 171.894 -47.8596 171.97L-41.3596 180.55L-38.0896 181.4L-37.9396 181.47L-33.7596 184.19L-27.1296 184.45C-27.0459 184.449 -26.9633 184.47 -26.8896 184.51L-22.2496 187.31L-17.4496 186.47L-19.3296 184.57C-19.3851 184.514 -19.4263 184.445 -19.4496 184.37L-21.5496 177.17C-21.5516 177.147 -21.5516 177.123 -21.5496 177.1L-22.2296 171L-23.4496 169.01C-23.5102 168.908 -23.5315 168.787 -23.5096 168.67L-22.8496 165.05L-24.1196 164.88C-24.194 164.87 -24.2651 164.843 -24.3275 164.802C-24.39 164.76 -24.442 164.705 -24.4796 164.64L-26.6896 160.66C-26.7418 160.555 -26.7548 160.435 -26.7263 160.322C-26.6979 160.209 -26.6298 160.109 -26.5344 160.042C-26.4391 159.974 -26.3227 159.943 -26.2063 159.953C-26.0898 159.964 -25.9811 160.016 -25.8996 160.1L-23.5196 162.84L-20.8596 162.03L-19.1796 158.06L-22.2396 153.59C-22.2903 153.511 -22.3172 153.419 -22.3173 153.326C-22.3173 153.232 -22.2905 153.14 -22.24 153.061C-22.1894 152.982 -22.1173 152.919 -22.0322 152.88C-21.9471 152.841 -21.8525 152.827 -21.7596 152.84L-17.0096 153.58L-14.7996 150.46L-15.0396 149.39C-15.0696 149.24 -15.0396 149.09 -14.9396 148.98L-12.7096 146.27C-12.6411 146.184 -12.5451 146.124 -12.4376 146.1C-12.3302 146.076 -12.2179 146.09 -12.1195 146.14C-12.0211 146.189 -11.9425 146.27 -11.897 146.37C-11.8516 146.471 -11.8419 146.583 -11.8696 146.69L-12.1496 147.84L-11.0496 147.04L-11.7696 144.02C-11.788 143.929 -11.7802 143.835 -11.7471 143.748C-11.714 143.661 -11.6569 143.586 -11.5825 143.53C-11.5081 143.475 -11.4194 143.441 -11.3269 143.434C-11.2343 143.427 -11.1416 143.446 -11.0596 143.49L-8.30963 145.09L-5.11963 143.44L-8.35962 139.79C-8.43057 139.706 -8.47134 139.601 -8.4754 139.491C-8.47946 139.382 -8.44658 139.274 -8.38202 139.185C-8.31746 139.096 -8.22497 139.032 -8.11937 139.002C-8.01376 138.972 -7.90116 138.978 -7.79962 139.02L-5.53963 140.02L-1.28963 140.42L4.35037 139.42L10.8504 135.42L14.7204 132.47L15.3604 130.27C15.3866 130.194 15.4312 130.125 15.4904 130.07L17.7504 127.91L16.7104 124.08C16.6966 124.014 16.6966 123.946 16.7104 123.88L17.0604 121.36C17.0716 121.274 17.1052 121.193 17.1579 121.125C17.2106 121.056 17.2804 121.003 17.3604 120.97L21.6604 119.28C21.7378 119.251 21.8212 119.242 21.903 119.254C21.9847 119.266 22.0621 119.298 22.128 119.348C22.1939 119.398 22.246 119.464 22.2797 119.539C22.3133 119.615 22.3273 119.698 22.3204 119.78L21.8704 123.73L23.8804 123.81C23.9517 123.814 24.0213 123.833 24.0843 123.867C24.1473 123.901 24.2022 123.948 24.2451 124.005C24.2879 124.062 24.3178 124.128 24.3325 124.198C24.3473 124.268 24.3465 124.34 24.3304 124.41V124.42ZM-11.0796 149.69C-11.0099 149.778 -10.9719 149.887 -10.9719 150C-10.9719 150.112 -11.0099 150.222 -11.0796 150.31L-13.9296 153.75C-13.9965 153.853 -14.1006 153.927 -14.2204 153.956C-14.3401 153.985 -14.4663 153.966 -14.5729 153.905C-14.6795 153.843 -14.7584 153.743 -14.7931 153.625C-14.8279 153.506 -14.8159 153.379 -14.7596 153.27L-13.9096 150.94C-13.8696 150.83 -13.7896 150.74 -13.6896 150.68L-11.6896 149.58C-11.4896 149.46 -11.2296 149.51 -11.0896 149.68L-11.0796 149.69ZM-20.3796 168.29C-20.2604 168.279 -20.1414 168.312 -20.0441 168.382C-19.9469 168.451 -19.8779 168.554 -19.8496 168.67L-16.3896 184.13C-16.3578 184.255 -16.3768 184.387 -16.4424 184.497C-16.4749 184.552 -16.5179 184.6 -16.5689 184.638C-16.6199 184.676 -16.6779 184.704 -16.7396 184.72C-16.8643 184.752 -16.9965 184.733 -17.1071 184.667C-17.2178 184.601 -17.2978 184.495 -17.3296 184.37L-20.9096 171.78C-20.9239 171.731 -20.9306 171.681 -20.9296 171.63L-20.8096 168.76C-20.8096 168.51 -20.6096 168.32 -20.3696 168.29H-20.3796Z" fill="#B7BCBF" fill-opacity="0.1"/>
<path d="M115.481 21.9199L115.781 22.6099L116.941 23.4099L116.091 58.0799L115.511 77.0999L118.811 103.3L119.151 103.23L122.921 104.14L124.231 96.6599L125.761 100.95L128.531 103.68L134.161 100.68L133.591 100.16L133.751 100.25L130.291 91.3899L167.061 86.9099L169.531 86.5799V86.4999L167.421 82.0999L167.491 75.9199L165.761 72.4699L166.961 65.9199L168.541 64.2899L162.721 52.8899L152.741 17.9599L152.661 17.7899L150.111 18.1099L136.491 19.7799L129.691 20.3599L115.391 21.7499L115.481 21.9199Z" fill="#DCDFE0" fill-opacity="0.3"/>
<path fill-rule="evenodd" clip-rule="evenodd" d="M152.601 17.2999C152.704 17.2905 152.807 17.3134 152.897 17.3653C152.986 17.4173 153.058 17.4958 153.101 17.5899L153.181 17.7599L153.211 17.8299L163.171 52.7099L168.971 64.0599C169.071 64.2499 169.031 64.4799 168.891 64.6199L167.401 66.1499L166.271 72.3999L167.931 75.6999C167.965 75.7715 167.983 75.8504 167.981 75.9299L167.911 81.9899L169.971 86.2899C170.002 86.3625 170.019 86.4407 170.021 86.5199V86.5999C170.013 86.7154 169.966 86.8249 169.888 86.9103C169.81 86.9957 169.705 87.052 169.591 87.0699L167.121 87.3899L130.971 91.7999L134.201 100.07L134.491 100.33C134.546 100.383 134.588 100.448 134.613 100.52C134.638 100.592 134.646 100.669 134.637 100.745C134.627 100.821 134.6 100.893 134.557 100.957C134.514 101.02 134.457 101.072 134.391 101.11L128.761 104.11C128.669 104.158 128.565 104.177 128.463 104.162C128.36 104.148 128.265 104.102 128.191 104.03L125.421 101.3C125.367 101.247 125.326 101.182 125.301 101.11L124.401 98.5599L123.401 104.22C123.391 104.286 123.368 104.35 123.333 104.407C123.297 104.464 123.25 104.513 123.195 104.551C123.139 104.589 123.076 104.614 123.01 104.626C122.944 104.638 122.876 104.636 122.811 104.62L119.141 103.72L118.911 103.78C118.845 103.794 118.776 103.795 118.71 103.781C118.644 103.767 118.581 103.739 118.527 103.7C118.472 103.66 118.426 103.609 118.392 103.551C118.359 103.492 118.338 103.427 118.331 103.36L115.031 77.1599V77.0899L115.611 58.0699L116.451 23.6699L115.511 23.0099C115.44 22.959 115.385 22.8898 115.351 22.8099L115.041 22.1099L114.961 21.9499C114.928 21.8789 114.914 21.8011 114.918 21.7232C114.922 21.6453 114.944 21.5695 114.983 21.502C115.022 21.4345 115.077 21.3773 115.143 21.3352C115.208 21.2931 115.283 21.2673 115.361 21.2599L129.651 19.8799L136.441 19.2999L150.041 17.6299L152.601 17.3099V17.2999ZM116.121 22.1599L116.181 22.2899L117.221 23.0199C117.361 23.1099 117.431 23.2599 117.421 23.4199L116.581 58.0999L116.001 77.0799L119.231 102.75H119.261L122.541 103.55L123.761 96.5799C123.777 96.4733 123.828 96.3752 123.907 96.3015C123.986 96.2278 124.087 96.1826 124.194 96.1734C124.302 96.1642 124.409 96.1913 124.499 96.2506C124.589 96.3098 124.657 96.3976 124.691 96.4999L126.181 100.68L128.621 103.08L133.321 100.58L133.261 100.51C133.19 100.446 133.139 100.362 133.116 100.27C133.093 100.177 133.098 100.08 133.131 99.9899L129.831 91.5699C129.802 91.5005 129.79 91.4253 129.796 91.3505C129.802 91.2757 129.825 91.2033 129.864 91.1391C129.903 91.0749 129.957 91.0207 130.02 90.9809C130.084 90.9411 130.156 90.9168 130.231 90.9099L167.001 86.4299L168.841 86.1899L166.981 82.3099C166.947 82.2415 166.93 82.1661 166.931 82.0899L167.001 76.0399L165.331 72.6899C165.285 72.5968 165.271 72.4916 165.291 72.3899L166.481 65.8299C166.492 65.7336 166.538 65.6447 166.611 65.5799L167.951 64.1999L162.291 53.0999C162.275 53.0746 162.261 53.0478 162.251 53.0199L152.341 18.3199L150.171 18.5899L136.541 20.2599H136.531L129.731 20.8399L116.131 22.1599H116.121Z" fill="#B7BCBF" fill-opacity="0.1"/>
<path d="M110.78 107.13L110.35 107.2V107.29L110.78 107.13ZM118.68 106.43L117.5 106.38L118.6 106.51L118.68 106.43ZM108.84 106.89L108.49 107.21L108.57 107.31L108.84 106.89ZM116.82 106.52L113.6 106.4L116.64 106.6L116.82 106.52ZM84.6999 24.61V24.69L80.9199 30.47L81.0799 35.04L76.0399 40.18L77.2499 41.75L73.5099 55.15L74.9099 58.08L74.0499 58.64L74.0599 60.5L74.0399 61.09L75.7999 65.73L75.5299 68.51L78.5099 72.44L71.6499 83.17L70.3699 89.72L68.4899 92.27L69.5599 95.37L68.4199 96.42L97.7199 94.35L96.5499 98.37L99.9899 105.78L101.84 108.31V108.22L105.11 104.8L111.76 103.62L117.83 104.53L118.8 103.39V103.3L115.51 77.1L116.09 58.08L116.94 23.41L115.79 22.61L115.48 21.91H115.31L111.06 22.34L103.57 23.06L86.5699 24.51L84.6999 24.61ZM188.46 12.25L185.91 16.81L186.26 18.51L193.84 22.03L197.61 27.25L213.41 41.58L217.14 43.51L223.69 53.67L228.57 58.6L229.57 54.74L228.37 50.97L231.9 53.82L233.99 52.29L230.63 49.29L234.87 49.19L241.69 43.88L240.99 42.41L245.17 39.44L244.81 37.9L247.84 36.16L248.18 31.86L253.17 23.42L256.45 19.57L256.8 19.41L238.4 6.75999L231.33 7.83999L221.78 7.11999L217.14 4.48999L188.71 12.26H188.46V12.25Z" fill="#DCDFE0" fill-opacity="0.3"/>
<path d="M224.87 70.9L224.89 68.35L224.21 70.53L224.87 70.89V70.9ZM225.96 67.04L225.69 65.08L225.39 66.26L225.96 67.04ZM188.46 12.25L187.35 12.46L184.11 13.01L172.17 15L171.07 15.2L169.87 15.33L163.22 16.33L161.43 16.61L154.19 17.68L152.66 17.78L152.74 17.96L162.72 52.88L168.54 64.28L166.95 65.91L165.76 72.47L167.49 75.92L167.42 82.1L169.53 86.5V86.58L169.44 86.66L172.14 91.26L212.26 87.83L213.33 90.93L214.85 84.46L217.21 82.78L223.03 83.35L222.88 74.2L224.06 72.3L223.61 68.64L224.93 65.22L226.78 63.35L225.56 62.12L228.66 58.6H228.57L223.69 53.66L217.14 43.5L213.4 41.58L197.61 27.25L193.84 22.02L186.26 18.52L185.91 16.81L188.46 12.25Z" fill="#DCDFE0" fill-opacity="0.3"/>
<path d="M185.474 16.5664L185.383 16.7285L185.42 16.9102L185.771 18.6201L185.821 18.8682L186.051 18.9736L193.51 22.418L197.204 27.542L197.235 27.585L197.274 27.6201L213.064 41.9502L213.113 41.9951L213.172 42.0244L216.792 43.8818L223.27 53.9307L223.298 53.9746L223.334 54.0117L227.934 58.667L225.185 61.7891L224.876 62.1406L225.205 62.4717L226.075 63.3496L224.574 64.8682L224.501 64.9424L224.464 65.04L223.144 68.46L223.099 68.5771L223.114 68.7012L223.542 72.1865L222.455 73.9365L222.378 74.0615L222.38 74.208L222.521 82.7979L217.259 82.2822L217.072 82.2637L216.92 82.373L214.561 84.0527L214.406 84.1621L214.363 84.3457L213.238 89.1328L212.732 87.667L212.605 87.2988L212.218 87.332L172.411 90.7344L170.03 86.6777V86.3867L169.981 86.2842L167.921 81.9883L167.99 75.9258L167.991 75.8047L167.938 75.6963L166.281 72.3945L167.415 66.1484L168.898 64.6289L169.148 64.3721L168.985 64.0527L163.188 52.6982L153.339 18.2363L154.223 18.1787L154.243 18.1777L154.264 18.1748L161.503 17.1045L161.508 17.1035L163.297 16.8232L169.927 15.8262L171.124 15.6973L171.142 15.6953L171.159 15.6924L172.259 15.4912L184.192 13.5029H184.193L187.434 12.9531L187.443 12.9512L187.501 12.9395L185.474 16.5664Z" stroke="#B7BCBF" stroke-opacity="0.1"/>
<path fill-rule="evenodd" clip-rule="evenodd" d="M217.02 4.02001C217.142 3.98991 217.271 4.00781 217.38 4.07001L221.93 6.65001L231.31 7.35001L238.33 6.28001C238.45 6.26001 238.58 6.29001 238.68 6.36001L257.08 19.01C257.155 19.0575 257.214 19.1246 257.253 19.2039C257.292 19.2832 257.308 19.3716 257.3 19.4594C257.291 19.5473 257.259 19.6311 257.206 19.7018C257.153 19.7725 257.082 19.8272 257 19.86L256.75 19.96L253.56 23.7L248.66 32L248.32 36.2C248.32 36.36 248.22 36.5 248.08 36.58L245.36 38.14L245.64 39.33C245.69 39.53 245.61 39.73 245.45 39.83L241.6 42.57L242.13 43.67C242.23 43.87 242.17 44.12 241.99 44.26L235.17 49.58C235.087 49.6435 234.985 49.6786 234.88 49.68L231.88 49.74L234.31 51.93C234.363 51.9782 234.405 52.0373 234.433 52.1033C234.46 52.1693 234.473 52.2405 234.47 52.312C234.467 52.3835 234.449 52.4535 234.416 52.517C234.383 52.5806 234.337 52.6362 234.28 52.68L232.18 54.21C232.095 54.2743 231.99 54.3082 231.884 54.3064C231.777 54.3046 231.673 54.2671 231.59 54.2L229.32 52.37L230.04 54.59C230.065 54.6783 230.065 54.7717 230.04 54.86L229.04 58.72C229.017 58.8012 228.973 58.8751 228.913 58.9345C228.853 58.9938 228.779 59.0367 228.697 59.0588C228.616 59.0809 228.53 59.0816 228.448 59.0608C228.366 59.04 228.291 58.9984 228.23 58.94L223.34 54C223.317 53.9756 223.297 53.9488 223.28 53.92L216.8 43.87L213.18 42C213.144 41.9811 213.11 41.9576 213.08 41.93L197.28 27.6C197.258 27.5788 197.238 27.5553 197.22 27.53L193.52 22.4L186.06 18.94C185.992 18.9085 185.932 18.8614 185.885 18.8023C185.838 18.7432 185.805 18.6739 185.79 18.6L185.43 16.9C185.408 16.7832 185.43 16.6623 185.49 16.56L188.04 12C188.084 11.9234 188.149 11.8604 188.226 11.818C188.304 11.7757 188.392 11.7556 188.48 11.76H188.66L217.02 4.01001V4.02001ZM255.95 19.42L238.29 7.27001L231.4 8.32001H231.3L221.75 7.61001C221.68 7.60461 221.612 7.58415 221.55 7.55001L217.07 5.00001L188.83 12.72C188.798 12.7301 188.764 12.7368 188.73 12.74L186.41 16.87L186.68 18.17L194.03 21.57C194.106 21.6065 194.171 21.6615 194.22 21.73L197.97 26.92L213.67 41.17L217.35 43.07C217.42 43.1 217.49 43.17 217.54 43.23L224.06 53.35L228.31 57.64L229.06 54.74L227.89 51.11C227.86 51.0104 227.862 50.9035 227.896 50.8051C227.93 50.7066 227.995 50.6217 228.081 50.5626C228.167 50.5035 228.269 50.4733 228.373 50.4764C228.478 50.4796 228.578 50.5159 228.66 50.58L231.9 53.2L233.21 52.24L230.31 49.64C230.24 49.5751 230.189 49.4908 230.166 49.3976C230.143 49.3044 230.148 49.2065 230.18 49.1159C230.211 49.0254 230.269 48.9462 230.346 48.8883C230.423 48.8303 230.514 48.7962 230.61 48.79L234.69 48.7L241.07 43.72L240.54 42.61C240.492 42.5073 240.481 42.3905 240.51 42.2807C240.539 42.1708 240.607 42.0749 240.7 42.01L244.61 39.22L244.32 38.01C244.295 37.9072 244.304 37.7991 244.345 37.7018C244.387 37.6044 244.459 37.5231 244.55 37.47L247.37 35.86L247.68 31.81C247.688 31.7358 247.712 31.6642 247.75 31.6L252.75 23.16C252.762 23.1356 252.775 23.1122 252.79 23.09L255.94 19.41L255.95 19.42Z" fill="#B7BCBF" fill-opacity="0.1"/>
<path d="M265.711 16.7999L264.751 17.6999L264.911 17.8699L265.711 16.7999ZM266.581 11.9299L266.131 12.5899L266.271 13.2699L266.581 11.9299ZM271.961 4.26995L270.661 5.06995L269.951 6.04995L271.961 4.26995ZM283.091 -0.630054L282.591 -0.990055L281.491 -1.11005L283.091 -0.630054ZM280.821 -1.23005L280.061 -1.26005L278.761 -0.630054L280.821 -1.23005ZM283.411 -0.190052L286.101 -6.19005L284.301 -3.71005L283.401 -0.190052H283.411ZM287.361 -8.08005L288.521 -9.64005L287.931 -9.67005L287.361 -8.07005V-8.08005ZM294.721 -14.3901L293.231 -23.8501L294.651 -18.8801L294.721 -14.3901ZM285.241 -36.1801L285.071 -36.1001L284.811 -36.0301H284.901L289.241 -27.9801L292.741 -24.2001L285.241 -36.1801ZM283.701 -35.7301L283.021 -35.5901L283.181 -35.4901L284.621 -35.4401L284.471 -35.9501L284.211 -35.8801H283.961V-35.7201L283.781 -35.6401L283.701 -35.7301ZM204.701 -19.5301L204.231 -18.2801L204.171 -14.6401L203.241 -14.7601L200.871 -10.3601L198.411 -10.2101L193.661 -5.91005L191.661 -6.75005L188.891 -2.97005L181.711 3.01995L178.291 3.71995L174.611 6.88995L174.351 9.07995L171.151 10.6399L171.091 14.3699L171.061 15.2099L172.171 14.9999L184.111 13.0099L187.351 12.4599L188.451 12.2599H188.711L217.141 4.48994L221.791 7.12995L231.331 7.82995L238.401 6.75995L256.801 19.4199L257.151 19.1799L266.001 15.9699L266.271 11.3199L269.621 5.77995L273.121 2.69995L280.331 -1.67005L281.331 -3.32005L283.151 -2.40005L284.221 -7.95005L283.121 -6.05005L279.541 -5.00005L276.151 -5.05005L280.421 -7.93005L279.201 -9.33005L280.761 -12.3201L272.861 -13.9001L272.531 -14.3301L279.351 -15.3301L281.511 -14.1501L284.311 -14.2901L286.661 -15.8901L288.481 -19.1201L290.021 -19.4901L289.951 -24.1401L288.081 -26.0801L286.061 -24.3801L286.311 -19.8801L285.091 -25.4401L283.991 -25.7401L275.491 -22.6001L279.351 -26.0801L279.581 -27.5101L283.501 -28.2901L284.721 -31.1201L287.281 -29.5001L284.651 -33.7501L282.771 -35.5101L248.561 -27.2101L226.771 -22.5601L204.791 -19.3601L204.711 -19.5301H204.701Z" fill="#DCDFE0" fill-opacity="0.3"/>
<path fill-rule="evenodd" clip-rule="evenodd" d="M285.04 -36.62C285.26 -36.72 285.53 -36.64 285.65 -36.44L293.15 -24.46L293.21 -24.33C293.43 -24.34 293.64 -24.2 293.7 -23.98L295.1 -19L295.12 -18.88L295.2 -14.39C295.196 -14.2701 295.148 -14.1558 295.065 -14.0689C294.982 -13.982 294.871 -13.9286 294.751 -13.9187C294.631 -13.9089 294.512 -13.9433 294.416 -14.0154C294.32 -14.0875 294.254 -14.1924 294.23 -14.31L292.75 -23.71C292.68 -23.7062 292.61 -23.7177 292.544 -23.7435C292.478 -23.7694 292.419 -23.8092 292.37 -23.86L288.87 -27.64C288.846 -27.6707 288.826 -27.7043 288.81 -27.74L284.87 -35.02C284.786 -34.9691 284.689 -34.9447 284.59 -34.95L284.03 -34.97L284.96 -34.09L285.04 -33.99L287.67 -29.74C287.731 -29.6473 287.757 -29.5366 287.745 -29.4267C287.733 -29.3167 287.683 -29.2143 287.605 -29.1367C287.526 -29.0591 287.423 -29.0111 287.313 -29.0007C287.202 -28.9904 287.092 -29.0184 287 -29.08L284.92 -30.4L283.93 -28.09C283.9 -28.017 283.852 -27.9525 283.791 -27.902C283.73 -27.8515 283.658 -27.8165 283.58 -27.8L279.98 -27.1L279.81 -26C279.795 -25.8891 279.742 -25.7867 279.66 -25.71L277.66 -23.91L283.81 -26.18C283.91 -26.21 284.01 -26.22 284.11 -26.19L285.19 -25.89C285.37 -25.85 285.5 -25.71 285.54 -25.53L285.72 -24.73V-24.74L287.74 -26.44C287.836 -26.5189 287.957 -26.5596 288.081 -26.554C288.205 -26.5485 288.322 -26.4972 288.41 -26.41L290.28 -24.47C290.36 -24.38 290.41 -24.27 290.41 -24.14L290.48 -19.48C290.48 -19.3706 290.443 -19.2643 290.376 -19.1776C290.31 -19.0909 290.216 -19.0285 290.11 -19L288.78 -18.69L287.06 -15.65C287.024 -15.5824 286.973 -15.5242 286.91 -15.48L284.56 -13.88C284.486 -13.8311 284.399 -13.8035 284.31 -13.8L281.51 -13.65C281.423 -13.6469 281.337 -13.6677 281.26 -13.71L279.24 -14.82L274.29 -14.09L280.83 -12.79C280.98 -12.75 281.11 -12.65 281.18 -12.52C281.24 -12.38 281.24 -12.22 281.17 -12.08L279.77 -9.38004L280.77 -8.24004C280.814 -8.18754 280.847 -8.12641 280.866 -8.06058C280.885 -7.99475 280.89 -7.92568 280.88 -7.85784C280.871 -7.78999 280.847 -7.72488 280.811 -7.66669C280.775 -7.60851 280.727 -7.55855 280.67 -7.52004L277.7 -5.50004L279.46 -5.48004L282.81 -6.45004L283.8 -8.18004C283.86 -8.2751 283.951 -8.34678 284.057 -8.38308C284.163 -8.41938 284.279 -8.4181 284.384 -8.37945C284.489 -8.34081 284.578 -8.26713 284.636 -8.17076C284.694 -8.0744 284.716 -7.96117 284.7 -7.85004L283.97 -4.06004L285.71 -6.46004C285.786 -6.54655 285.889 -6.604 286.002 -6.62239C286.115 -6.64078 286.231 -6.61895 286.329 -6.56069C286.428 -6.50244 286.503 -6.41145 286.542 -6.30354C286.58 -6.19562 286.58 -6.07762 286.54 -5.97004L283.85 -3.43323e-05C283.803 0.0972693 283.725 0.176284 283.629 0.224712C283.532 0.273141 283.422 0.288265 283.316 0.267727C283.21 0.247189 283.114 0.19214 283.042 0.111156C282.971 0.0301725 282.928 -0.0722022 282.92 -0.180035L281.35 -0.660034C281.25 -0.691597 281.162 -0.754718 281.1 -0.840034C281.058 -0.809198 281.011 -0.785551 280.96 -0.770035L278.9 -0.170036C278.855 -0.156494 278.808 -0.149754 278.76 -0.150036L273.42 3.08997L272.38 3.98996C272.44 4.09019 272.462 4.20797 272.444 4.32298C272.426 4.438 272.368 4.54303 272.28 4.61996L270.27 6.39996C270.201 6.46302 270.116 6.505 270.024 6.52095C269.931 6.53689 269.837 6.52614 269.75 6.48996L266.75 11.46L266.77 11.47C266.99 11.57 267.11 11.8 267.05 12.03L266.75 13.37C266.729 13.4571 266.684 13.5366 266.62 13.6L266.48 15.99C266.473 16.0832 266.438 16.1723 266.382 16.2468C266.325 16.3212 266.248 16.3778 266.16 16.41L266.06 16.45C266.23 16.62 266.25 16.89 266.1 17.08L265.3 18.15C265.257 18.2072 265.202 18.2543 265.139 18.288C265.076 18.3217 265.006 18.3411 264.935 18.345C264.863 18.3488 264.792 18.3369 264.725 18.3101C264.659 18.2833 264.599 18.2423 264.55 18.19L264.39 18.02C264.346 17.9724 264.311 17.9163 264.288 17.8552C264.266 17.794 264.255 17.7289 264.258 17.6637C264.261 17.5984 264.277 17.5345 264.305 17.4754C264.332 17.4164 264.372 17.3636 264.42 17.32L264.92 16.87L257.37 19.6L257.07 19.8C256.989 19.855 256.893 19.8844 256.795 19.8844C256.697 19.8844 256.602 19.855 256.52 19.8L238.3 7.27996L231.41 8.32996H231.31L221.76 7.61996C221.69 7.61457 221.622 7.5941 221.56 7.55996L217.07 4.99997L188.83 12.72C188.782 12.7344 188.731 12.7411 188.68 12.74L188.48 12.73L187.42 12.93L184.18 13.48L172.25 15.47L171.15 15.67C171.079 15.6833 171.005 15.6806 170.935 15.6621C170.865 15.6435 170.8 15.6095 170.744 15.5626C170.689 15.5157 170.644 15.457 170.614 15.3909C170.584 15.3247 170.569 15.2526 170.57 15.18L170.6 14.34L170.66 10.63C170.66 10.44 170.76 10.28 170.93 10.2L173.89 8.74997L174.11 6.81997C174.126 6.69877 174.186 6.5879 174.28 6.50996L177.96 3.34996C178.024 3.29879 178.1 3.26441 178.18 3.24997L181.48 2.54996L188.52 -3.31004L191.26 -7.05004C191.324 -7.13882 191.417 -7.20309 191.522 -7.23219C191.628 -7.26129 191.74 -7.25347 191.84 -7.21004L193.56 -6.49004L198.07 -10.58C198.154 -10.6535 198.26 -10.6959 198.37 -10.7L200.56 -10.85L202.81 -15C202.91 -15.18 203.1 -15.28 203.3 -15.25L203.68 -15.2L203.73 -18.3L203.76 -18.46L204.24 -19.71C204.268 -19.7843 204.314 -19.8505 204.374 -19.9028C204.433 -19.9551 204.505 -19.9917 204.582 -20.0096C204.659 -20.0274 204.74 -20.0258 204.816 -20.005C204.893 -19.9841 204.963 -19.9446 205.02 -19.89L226.67 -23.05L248.43 -27.69L282.63 -35.99L282.75 -36.01C282.8 -36.04 282.85 -36.06 282.91 -36.07L283.58 -36.21C283.68 -36.32 283.82 -36.39 283.97 -36.38H284.14L284.33 -36.43C284.399 -36.4488 284.471 -36.4523 284.54 -36.44C284.581 -36.4662 284.624 -36.4864 284.67 -36.5L284.89 -36.57L285.03 -36.63L285.04 -36.62ZM282.62 -34.98L248.65 -26.73L226.86 -22.08H226.83L204.98 -18.89L204.71 -18.19L204.66 -14.63C204.66 -14.5615 204.644 -14.4939 204.615 -14.4318C204.586 -14.3697 204.544 -14.3145 204.492 -14.27C204.44 -14.2255 204.379 -14.1926 204.313 -14.1736C204.247 -14.1547 204.178 -14.15 204.11 -14.16L203.51 -14.24L201.3 -10.14C201.261 -10.0662 201.204 -10.0036 201.134 -9.95807C201.064 -9.91257 200.984 -9.8857 200.9 -9.88004L198.6 -9.74004L194 -5.55004C193.931 -5.48698 193.846 -5.445 193.754 -5.42905C193.661 -5.4131 193.567 -5.42385 193.48 -5.46004L191.84 -6.16004L189.29 -2.68003C189.267 -2.64709 189.24 -2.6169 189.21 -2.59003L182.03 3.38997C181.967 3.44152 181.891 3.47594 181.81 3.48996L178.52 4.17996L175.08 7.12996L174.84 9.12996C174.83 9.21074 174.801 9.28779 174.753 9.35413C174.706 9.42047 174.643 9.47403 174.57 9.50996L171.65 10.95L171.59 14.38L171.58 14.62L172.1 14.52L184.04 12.53L187.27 11.98L188.37 11.78L188.49 11.77H188.67L217.03 4.01996C217.152 3.98986 217.281 4.00776 217.39 4.06997L221.94 6.64996L231.32 7.34996L238.34 6.27996C238.46 6.25996 238.59 6.28996 238.69 6.35996L256.81 18.83L256.88 18.78C256.914 18.7552 256.951 18.7351 256.99 18.72L265.54 15.62L265.7 12.86L265.67 12.69C265.642 12.5667 265.664 12.4374 265.73 12.33L265.79 11.29C265.79 11.22 265.82 11.14 265.86 11.07L269.21 5.52996C269.238 5.48852 269.272 5.45144 269.31 5.41996L272.81 2.33997C272.835 2.32071 272.862 2.30396 272.89 2.28996L279.99 -2.02003L280.92 -3.57003C281.05 -3.79003 281.32 -3.87004 281.55 -3.76004L282.81 -3.13004L283.28 -5.58004L279.68 -4.53004C279.631 -4.51885 279.581 -4.51547 279.53 -4.52003L276.15 -4.56004C276.041 -4.55067 275.931 -4.57939 275.84 -4.64137C275.749 -4.70334 275.681 -4.7948 275.65 -4.90037C275.618 -5.00595 275.624 -5.11921 275.666 -5.22112C275.708 -5.32304 275.784 -5.4074 275.88 -5.46004L279.69 -8.02004L278.83 -9.02004C278.767 -9.09345 278.727 -9.18433 278.717 -9.28073C278.706 -9.37712 278.725 -9.4745 278.77 -9.56004L280.03 -11.96L272.76 -13.42C272.64 -13.4436 272.533 -13.5114 272.46 -13.61L272.15 -14.04C272.102 -14.1072 272.071 -14.1856 272.061 -14.2679C272.051 -14.3503 272.061 -14.4338 272.092 -14.5108C272.123 -14.5877 272.173 -14.6555 272.238 -14.7079C272.302 -14.7602 272.379 -14.7954 272.46 -14.81L279.28 -15.81C279.38 -15.83 279.49 -15.81 279.58 -15.76L281.62 -14.64L284.15 -14.77L286.29 -16.23L288.06 -19.36C288.093 -19.4189 288.138 -19.4704 288.191 -19.5117C288.244 -19.5529 288.305 -19.583 288.37 -19.6L289.53 -19.87L289.47 -23.94L288.04 -25.42L286.56 -24.17L286.79 -19.91C286.788 -19.7929 286.745 -19.6804 286.667 -19.5928C286.589 -19.5053 286.482 -19.4485 286.366 -19.4328C286.25 -19.4171 286.132 -19.4435 286.034 -19.5072C285.936 -19.5709 285.863 -19.6677 285.83 -19.78L284.68 -25.04L284.02 -25.22L275.65 -22.14C275.545 -22.1058 275.431 -22.1085 275.327 -22.1475C275.223 -22.1865 275.136 -22.2596 275.079 -22.3548C275.022 -22.45 274.999 -22.5618 275.014 -22.6717C275.029 -22.7817 275.08 -22.8833 275.16 -22.96L278.9 -26.33L279.1 -27.59C279.13 -27.79 279.28 -27.95 279.48 -27.99L283.16 -28.72L284.27 -31.32C284.298 -31.3837 284.34 -31.4404 284.392 -31.4865C284.444 -31.5325 284.505 -31.5667 284.572 -31.5867C284.638 -31.6066 284.709 -31.6119 284.777 -31.6021C284.846 -31.5924 284.912 -31.5678 284.97 -31.53L285.76 -31.03L284.27 -33.43L282.63 -34.98H282.62ZM280.92 -1.70004L281.52 -2.69004L282.94 -1.97004C283.07 -1.90004 283.23 -1.90004 283.36 -1.97004L283.16 -1.17004L282.88 -1.38004C282.813 -1.42958 282.734 -1.46061 282.65 -1.47004L281.55 -1.60004C281.43 -1.61315 281.309 -1.58108 281.21 -1.51004C281.14 -1.61315 281.033 -1.68489 280.91 -1.71004L280.92 -1.70004ZM287.47 -9.83004C287.54 -10.03 287.74 -10.16 287.95 -10.15L288.55 -10.13C288.64 -10.1273 288.726 -10.0998 288.801 -10.0506C288.875 -10.0014 288.934 -9.93241 288.972 -9.8514C289.009 -9.77039 289.023 -9.68057 289.012 -9.592C289.001 -9.50344 288.966 -9.41965 288.91 -9.35004L287.75 -7.79004C287.679 -7.70169 287.579 -7.64092 287.468 -7.61813C287.356 -7.59534 287.241 -7.61195 287.14 -7.66512C287.04 -7.71829 286.961 -7.8047 286.917 -7.90958C286.873 -8.01446 286.867 -8.13127 286.9 -8.24004L287.47 -9.83004Z" fill="#B7BCBF" fill-opacity="0.1"/>
<path d="M176.2 -14.38L151.85 -11.28L117.25 -8.06003L114.37 -8.09003L115.08 -4.67003L97.9 -3.06003L95.44 -2.82003V-2.73003L94.72 -1.92003L94.39 -2.02003L94.42 -2.69003V-2.77003L93.49 -2.73003L93.57 -2.63003L93.98 -0.250029L92.21 1.78997L91.89 5.67997L91.86 6.34997V6.43997L89.13 11.24L89.5 14.72L86.98 18.35L87.7 21.76L84.54 24.43L84.7 24.61L86.57 24.51L103.57 23.06L111.06 22.34L115.31 21.91H115.48L115.4 21.75L129.69 20.36L136.49 19.78L150.11 18.11L152.66 17.79L154.19 17.69L161.43 16.61L163.23 16.34L169.87 15.34L171.07 15.21L171.09 14.37L171.15 10.64L174.35 9.07997L174.61 6.87997L178.29 3.72997L181.71 3.01997L188.89 -2.97003L191.66 -6.75003L193.66 -5.91003L198.41 -10.21L200.87 -10.37L203.24 -14.77L204.17 -14.64L204.23 -18.28L204.7 -19.53L203.34 -19.33L198.46 -18.16L192.66 -17.21L178.08 -14.81L176.55 -14.62L176.2 -14.38Z" fill="#DCDFE0" fill-opacity="0.3"/>
<path fill-rule="evenodd" clip-rule="evenodd" d="M205.081 -19.83C205.181 -19.7 205.221 -19.52 205.151 -19.36L204.711 -18.18L204.661 -14.63C204.658 -14.562 204.642 -14.4952 204.613 -14.4339C204.583 -14.3725 204.541 -14.318 204.489 -14.2738C204.438 -14.2296 204.377 -14.1966 204.312 -14.177C204.247 -14.1575 204.178 -14.1517 204.111 -14.16L203.511 -14.24L201.291 -10.14C201.252 -10.0656 201.195 -10.0024 201.125 -9.95682C201.055 -9.91121 200.974 -9.88474 200.891 -9.88003L198.611 -9.74003L193.991 -5.55003C193.922 -5.48697 193.836 -5.44499 193.744 -5.42905C193.652 -5.4131 193.557 -5.42385 193.471 -5.46003L191.831 -6.16003L189.281 -2.68003C189.258 -2.64658 189.231 -2.61631 189.201 -2.59003L182.021 3.38997C181.957 3.44115 181.881 3.47553 181.801 3.48997L178.511 4.17997L175.071 7.12997L174.831 9.12997C174.821 9.21075 174.791 9.28779 174.744 9.35413C174.697 9.42048 174.634 9.47403 174.561 9.50997L171.641 10.95L171.581 14.38L171.551 15.23C171.544 15.3465 171.496 15.4568 171.416 15.5411C171.335 15.6255 171.227 15.6782 171.111 15.69L169.931 15.81L163.291 16.82L161.511 17.09L154.261 18.16H154.221L152.711 18.27L150.171 18.59L136.541 20.26H136.531L129.731 20.84L115.881 22.19C115.834 22.2573 115.771 22.3119 115.698 22.3486C115.624 22.3852 115.543 22.4029 115.461 22.4H115.321L111.101 22.82L103.611 23.54L86.6107 24.99H86.6007L84.7307 25.09C84.6603 25.0938 84.5899 25.0823 84.5243 25.0565C84.4588 25.0306 84.3995 24.9908 84.3507 24.94L84.1907 24.76C84.1467 24.7117 84.1127 24.6552 84.0908 24.5936C84.0689 24.5321 84.0596 24.4668 84.0633 24.4015C84.067 24.3363 84.0838 24.2725 84.1125 24.2138C84.1413 24.1552 84.1815 24.1029 84.2307 24.06L87.1607 21.58L86.5107 18.45C86.4954 18.3852 86.4937 18.318 86.5058 18.2526C86.5178 18.1872 86.5434 18.125 86.5807 18.07L89.0007 14.6L88.6407 11.29C88.6407 11.19 88.6507 11.09 88.7007 10.99L91.3807 6.28997L91.4007 5.65997V5.63997L91.7207 1.74997C91.7307 1.64997 91.7707 1.54997 91.8407 1.47997L93.4607 -0.40003L93.1107 -2.41003C93.0534 -2.47989 93.0165 -2.56424 93.0041 -2.65376C92.9917 -2.74328 93.0044 -2.83448 93.0406 -2.91728C93.0768 -3.00007 93.1352 -3.07124 93.2094 -3.1229C93.2835 -3.17457 93.3705 -3.20472 93.4607 -3.21003L94.4007 -3.26003C94.5182 -3.26441 94.6333 -3.22643 94.7251 -3.153C94.8169 -3.07957 94.8792 -2.97559 94.9007 -2.86003L94.9707 -2.94003C95.0207 -3.14003 95.1807 -3.28003 95.3907 -3.30003L97.8607 -3.54003L114.501 -5.10003L113.901 -8.00003C113.888 -8.06982 113.89 -8.14162 113.907 -8.21045C113.925 -8.27928 113.957 -8.3435 114.002 -8.39866C114.046 -8.45383 114.103 -8.49862 114.166 -8.52994C114.23 -8.56125 114.3 -8.57834 114.371 -8.58003L117.231 -8.55003L151.801 -11.77L176.021 -14.86L176.281 -15.03C176.343 -15.0729 176.415 -15.1004 176.491 -15.11L178.011 -15.31L198.371 -18.65L203.221 -19.81H203.271L204.631 -20.01C204.801 -20.04 204.971 -19.98 205.081 -19.84V-19.83ZM94.2507 -1.55003L94.4607 -0.33003C94.4728 -0.25937 94.4691 -0.186928 94.4501 -0.117815C94.4311 -0.0487019 94.3972 0.0153995 94.3507 0.0699692L92.6807 1.98997L92.3707 5.70997L92.3407 6.45997C92.3407 6.52997 92.3207 6.60997 92.2807 6.67997L89.6207 11.34L89.9807 14.67C89.9951 14.786 89.9667 14.9034 89.9007 15L87.5007 18.45L88.1707 21.66C88.1883 21.7455 88.1828 21.8341 88.1546 21.9167C88.1265 21.9994 88.0768 22.073 88.0107 22.13L85.7207 24.07L86.5407 24.03L103.521 22.58H103.531L111.011 21.86L115.011 21.46C115.051 21.4053 115.102 21.3594 115.16 21.325C115.219 21.2906 115.283 21.2685 115.351 21.26L129.641 19.88L136.441 19.3L150.041 17.63L152.601 17.31H152.631L154.131 17.2L161.361 16.13L163.151 15.86L169.801 14.86L169.821 14.85L170.591 14.77L170.611 14.35L170.671 10.64C170.671 10.45 170.771 10.29 170.941 10.21L173.901 8.75997L174.121 6.82997C174.136 6.70877 174.197 6.59791 174.291 6.51997L177.971 3.35997C178.035 3.30879 178.11 3.27441 178.191 3.25997L181.491 2.55997L188.531 -3.30003L191.271 -7.04003C191.336 -7.12739 191.428 -7.19056 191.533 -7.21953C191.638 -7.24851 191.75 -7.24165 191.851 -7.20003L193.571 -6.48003L198.071 -10.57C198.154 -10.6428 198.26 -10.6851 198.371 -10.69L200.571 -10.83L202.821 -14.99C202.921 -15.17 203.111 -15.27 203.311 -15.24L203.691 -15.19L203.741 -18.29L203.771 -18.45L203.961 -18.93L203.431 -18.85L198.581 -17.69C198.567 -17.6894 198.554 -17.6894 198.541 -17.69L178.161 -14.34H178.151L176.731 -14.15L176.481 -13.98C176.415 -13.9356 176.34 -13.9081 176.261 -13.9L151.911 -10.8L151.901 -10.79L117.301 -7.57003C117.281 -7.56883 117.261 -7.56883 117.241 -7.57003L114.971 -7.59003L115.561 -4.77003C115.574 -4.70337 115.572 -4.63478 115.557 -4.56859C115.542 -4.5024 115.514 -4.44006 115.473 -4.38553C115.433 -4.331 115.381 -4.28546 115.322 -4.25181C115.264 -4.21816 115.198 -4.19712 115.131 -4.19003L97.9507 -2.58003L95.7507 -2.36003L95.0907 -1.60003C95.03 -1.53045 94.9508 -1.47945 94.8624 -1.45291C94.7739 -1.42637 94.6797 -1.42537 94.5907 -1.45003L94.2507 -1.55003Z" fill="#B7BCBF" fill-opacity="0.1"/>
<path d="M227.81 192.38H227.65L227.73 192.46L227.81 192.38ZM227.06 192.26V192.35H227.14L227.06 192.26ZM214.74 193.06L214.66 193.05V193.13L214.74 193.05V193.06ZM238.97 188.67H238.89L238.97 188.84V188.67ZM241.28 188.17V188L241.11 188.25L241.28 188.17ZM240.44 187.97L240.12 187.61L240.02 187.69L240.44 187.97ZM240.16 188.63L239.19 187.33L239.74 188.45L240.16 188.63ZM248.39 183.96L248.38 184.3L248.56 184.14L248.39 183.96ZM249.61 183.16L249.88 182.75L249.53 183.07L249.61 183.17V183.16ZM249.9 182.33H249.81V182.41L249.9 182.33ZM249.2 180.78L249.11 180.68V180.86L249.19 180.78H249.2ZM249.87 178.78L249.69 178.85L249.94 178.95L249.87 178.77V178.78ZM250.21 178.78L250.04 178.61L250.12 178.86L250.21 178.78ZM249.61 178.59L249.54 178.5V178.67L249.62 178.59H249.61ZM252.77 178.12V178.04L252.59 178.37L252.77 178.12ZM249.21 178.32H249.04L249.2 178.41V178.32H249.21ZM251.02 177.38L250.77 177.37L250.68 177.45L251.02 177.38ZM244.6 177.04V176.87L244.51 177.04H244.6ZM245.37 176.82L245.12 176.81L245.35 177.32L245.37 176.82ZM243.34 176.82L243.35 176.32L242.93 176.38L243.33 176.82H243.34ZM242.18 175.93L242.59 176.37V176.2L242.19 175.93H242.18ZM254.6 176.93L253.05 177.54L253.55 177.64L254.6 176.93ZM242.79 175.7L242.28 175.68V175.85L242.78 175.7H242.79ZM256.32 172L256.42 171.58L256.55 170.48L256.32 172ZM256.59 167.27L256.29 166.41L256.09 166.74L256.59 167.27ZM236.96 168.62L236.78 168.86L237.21 168.96L236.96 168.62ZM235.39 167.79L234.62 168.02L235.21 168.12L235.39 167.79ZM233.69 167.89V167.64L233.61 167.72L233.69 167.9V167.89ZM231.92 167.74L231.4 168.06L232.06 168.42L231.92 167.74ZM234.28 167.92L234.21 167.66L233.79 167.56L234.29 167.92H234.28ZM223.53 159.2L223.01 159.44L224.01 159.81L223.53 159.21V159.2ZM221.6 156.42L220.96 155.38L221.19 156.15L221.6 156.42ZM224.16 158.22L223.08 155.46L222.24 155.17L224.16 158.21V158.22ZM220.91 154.7L220.68 154.01L220.53 153.58L220.91 154.7ZM214.25 145.04L212.77 143.88L213.34 144.5L214.25 145.04ZM252.54 140.87L246.77 130.32L246.43 130.31L252.54 140.87ZM210.47 122.72L210.22 122.62L210.47 122.8V122.72ZM209.99 122.11L209.89 122.19L209.98 122.28V122.11H209.99ZM209.43 121.24V121.16L209.34 121.24H209.43ZM209.78 120.92L210.03 121.09V120.92H209.78ZM210.3 120.6L209.96 120.67H210.04L210.3 120.6ZM209.71 120.49L209.47 120.23L209.55 120.31L209.71 120.49ZM209.15 119.54L208.99 119.53L209.24 119.63L209.15 119.53V119.54ZM209.79 118.54H209.45L209.36 118.61L209.79 118.55V118.54ZM210.12 118.73L209.72 118.29L209.88 118.38L210.12 118.73ZM207.05 114.97L206.88 114.87V114.97H207.05ZM203.41 114.83L203.17 114.48L203.24 114.9L203.41 114.83ZM172.73 110.83L175.34 108.99L172.48 110.74L172.73 110.84V110.83ZM177.96 106.97L178.23 106.73L177.2 107.11L177.96 106.97ZM146.04 100.05L136.71 102.65L141.84 101.41L146.04 100.05ZM169.53 86.58L167.06 86.91L130.29 91.39L133.75 100.25L134 100.35L132.94 103.77L135.69 102.69L138.75 100.19L143.83 100.22L149.75 98.33L153.71 99.08L152.71 100.48L159.9 103.22L166.04 106.51L167.34 109.94L172.04 109.11L183.38 100.58L187.44 100.91L203.52 114.07L206.93 113.53L210.3 118.4L210.68 125.94L209.4 130.64L209.81 133.02L212.54 139.05L211.37 134.35L215.17 134.41L215.39 137.81L213.15 142.97L219.79 152.87L222.41 153.07L220.33 150.02L223.03 150.46L224.67 149.51L223.77 154.9L227.3 157.91L229.5 164.6L232.72 166.76L236.9 168.02L242.45 175.69L245.43 177.41L241.36 177.51L243.14 179.69L249.91 177.76L253.28 176.03L256.74 165.5L255.87 148.87L255.6 147.17L248 133.33L241.46 123.26L237.88 115.08L241.07 117.99L241.77 117.51L242.93 124.58L246.44 130.05L243.08 122.81L243.38 119.44L232.99 105.74L230.53 101.5L227.34 94.35L225.21 88.35L223.43 86.15L223.11 83.43L223.03 83.35L217.21 82.78L214.85 84.47L213.33 90.92L212.26 87.83L172.14 91.26L169.44 86.66L169.53 86.58Z" fill="#DCDFE0" fill-opacity="0.3"/>
<path fill-rule="evenodd" clip-rule="evenodd" d="M21.4 0H8C5.87827 0 3.84344 0.842855 2.34315 2.34315C0.842855 3.84344 0 5.87827 0 8L0 48.8L0.32 48.55L2.98 47.65L5.08 48.23L13.12 46.26L17.28 48.2L20.98 50.8L24.26 51.52H24.35L24.41 47.72L24.38 24.7L24.45 20.9L21.82 3.7L21.4 1.3V0Z" fill="#DCDFE0" fill-opacity="0.3"/>
<path fill-rule="evenodd" clip-rule="evenodd" d="M312 1H8C6.14348 1 4.36301 1.7375 3.05025 3.05025C1.7375 4.36301 1 6.14348 1 8V192C1 193.857 1.7375 195.637 3.05025 196.95C4.36301 198.263 6.14348 199 8 199H312C313.857 199 315.637 198.263 316.95 196.95C318.262 195.637 319 193.857 319 192V8C319 6.14348 318.262 4.36301 316.95 3.05025C315.637 1.7375 313.857 1 312 1ZM8 0C5.87827 0 3.84344 0.842855 2.34315 2.34315C0.842855 3.84344 0 5.87827 0 8L0 192C0 194.122 0.842855 196.157 2.34315 197.657C3.84344 199.157 5.87827 200 8 200H312C314.122 200 316.157 199.157 317.657 197.657C319.157 196.157 320 194.122 320 192V8C320 5.87827 319.157 3.84344 317.657 2.34315C316.157 0.842855 314.122 0 312 0L8 0Z" fill="#B7BCBF" fill-opacity="0.6"/>
</g>
<g filter="url(#filter0_d_2220_3350)">
<path d="M253.001 129.25C253.001 136 245.001 143 245.001 143C245.001 143 237.001 136 237.001 129.25C236.969 127.095 237.793 125.016 239.293 123.469C240.794 121.922 242.846 121.034 245.001 121C249.421 121 253.001 124.7 253.001 129.25Z" fill="#B7BCBF"/>
</g>
<g filter="url(#filter1_d_2220_3350)">
<path fill-rule="evenodd" clip-rule="evenodd" d="M248.011 137.9C249.981 135.34 251.751 132.19 251.751 129.25C251.751 125.35 248.691 122.25 245.001 122.25C241.301 122.25 238.251 125.35 238.251 129.25C238.251 132.19 240.021 135.35 241.991 137.89C242.917 139.089 243.923 140.225 245.001 141.29L245.361 140.92C246.081 140.19 247.051 139.14 248.011 137.89V137.9ZM245.001 143C245.001 143 253.001 136 253.001 129.25C253.033 127.095 252.208 125.016 250.708 123.469C249.208 121.922 247.156 121.034 245.001 121C240.581 121 237.001 124.7 237.001 129.25C237.001 136 245.001 143 245.001 143Z" fill="white"/>
</g>
<path d="M245.001 131.5C246.382 131.5 247.501 130.381 247.501 129C247.501 127.619 246.382 126.5 245.001 126.5C243.62 126.5 242.501 127.619 242.501 129C242.501 130.381 243.62 131.5 245.001 131.5Z" fill="white"/>
<path d="M150.001 58.25C150.001 65 142.001 72 142.001 72C142.001 72 134.001 65 134.001 58.25C133.969 56.0954 134.793 54.0163 136.293 52.4693C137.794 50.9224 139.846 50.0342 142.001 50C146.421 50 150.001 53.7 150.001 58.25Z" fill="#B7BCBF"/>
<path fill-rule="evenodd" clip-rule="evenodd" d="M145.011 66.9C146.981 64.34 148.751 61.19 148.751 58.25C148.751 54.35 145.691 51.25 142.001 51.25C138.301 51.25 135.251 54.35 135.251 58.25C135.251 61.19 137.021 64.35 138.991 66.89C139.917 68.0894 140.923 69.2253 142.001 70.29C143.077 69.2233 144.083 68.0876 145.011 66.89V66.9ZM142.001 72C142.001 72 150.001 65 150.001 58.25C150.033 56.0954 149.208 54.0163 147.708 52.4693C146.208 50.9224 144.156 50.0342 142.001 50C137.581 50 134.001 53.7 134.001 58.25C134.001 65 142.001 72 142.001 72Z" fill="white"/>
<path d="M142.001 60.5C143.382 60.5 144.501 59.3807 144.501 58C144.501 56.6193 143.382 55.5 142.001 55.5C140.62 55.5 139.501 56.6193 139.501 58C139.501 59.3807 140.62 60.5 142.001 60.5Z" fill="white"/>
<path d="M180.001 29.25C180.001 36 172.001 43 172.001 43C172.001 43 164.001 36 164.001 29.25C163.969 27.0954 164.793 25.0162 166.293 23.4693C167.794 21.9224 169.846 21.0342 172.001 21C176.421 21 180.001 24.7 180.001 29.25Z" fill="#B7BCBF"/>
<path fill-rule="evenodd" clip-rule="evenodd" d="M175.011 37.9C176.981 35.34 178.751 32.19 178.751 29.25C178.751 25.35 175.691 22.25 172.001 22.25C168.301 22.25 165.251 25.35 165.251 29.25C165.251 32.19 167.021 35.35 168.991 37.89C169.917 39.0894 170.923 40.2253 172.001 41.29C173.077 40.2233 174.083 39.0876 175.011 37.89V37.9ZM172.001 43C172.001 43 180.001 36 180.001 29.25C180.033 27.0954 179.208 25.0162 177.708 23.4693C176.208 21.9224 174.156 21.0342 172.001 21C167.581 21 164.001 24.7 164.001 29.25C164.001 36 172.001 43 172.001 43Z" fill="white"/>
<path d="M172.001 31.5C173.382 31.5 174.501 30.3807 174.501 29C174.501 27.6193 173.382 26.5 172.001 26.5C170.62 26.5 169.501 27.6193 169.501 29C169.501 30.3807 170.62 31.5 172.001 31.5Z" fill="white"/>
<path d="M32.0009 86.25C32.0009 93 24.0009 100 24.0009 100C24.0009 100 16.0009 93 16.0009 86.25C15.9688 84.0954 16.7934 82.0162 18.2935 80.4693C19.7935 78.9224 21.8464 78.0342 24.0009 78C28.4209 78 32.0009 81.7 32.0009 86.25Z" fill="#B7BCBF"/>
<path fill-rule="evenodd" clip-rule="evenodd" d="M27.011 94.9C28.981 92.34 30.751 89.19 30.751 86.25C30.751 82.35 27.691 79.25 24.001 79.25C20.301 79.25 17.251 82.35 17.251 86.25C17.251 89.19 19.021 92.35 20.991 94.89C21.9171 96.0894 22.9227 97.2253 24.001 98.29L24.361 97.92C25.081 97.19 26.051 96.14 27.011 94.89V94.9ZM24.001 100C24.001 100 32.001 93 32.001 86.25C32.0331 84.0954 31.2085 82.0162 29.7084 80.4693C28.2083 78.9224 26.1555 78.0342 24.001 78C19.581 78 16.001 81.7 16.001 86.25C16.001 93 24.001 100 24.001 100Z" fill="white"/>
<path d="M26.501 86C26.501 86.663 26.2376 87.2989 25.7687 87.7678C25.2999 88.2366 24.664 88.5 24.001 88.5C23.3379 88.5 22.7021 88.2366 22.2332 87.7678C21.7644 87.2989 21.501 86.663 21.501 86C21.501 85.337 21.7644 84.7011 22.2332 84.2322C22.7021 83.7634 23.3379 83.5 24.001 83.5C24.664 83.5 25.2999 83.7634 25.7687 84.2322C26.2376 84.7011 26.501 85.337 26.501 86Z" fill="white"/>
<path d="M134.001 29.25C134.001 36 126.001 43 126.001 43C126.001 43 118.001 36 118.001 29.25C117.969 27.0954 118.793 25.0162 120.293 23.4693C121.794 21.9224 123.846 21.0342 126.001 21C130.421 21 134.001 24.7 134.001 29.25Z" fill="#B7BCBF"/>
<path fill-rule="evenodd" clip-rule="evenodd" d="M129.011 37.9C130.981 35.34 132.751 32.19 132.751 29.25C132.751 25.35 129.691 22.25 126.001 22.25C122.301 22.25 119.251 25.35 119.251 29.25C119.251 32.19 121.021 35.35 122.991 37.89C123.917 39.0894 124.923 40.2253 126.001 41.29C127.077 40.2233 128.083 39.0876 129.011 37.89V37.9ZM126.001 43C126.001 43 134.001 36 134.001 29.25C134.033 27.0954 133.208 25.0162 131.708 23.4693C130.208 21.9224 128.156 21.0342 126.001 21C121.581 21 118.001 24.7 118.001 29.25C118.001 36 126.001 43 126.001 43Z" fill="white"/>
<path d="M126.001 31.5C127.382 31.5 128.501 30.3807 128.501 29C128.501 27.6193 127.382 26.5 126.001 26.5C124.62 26.5 123.501 27.6193 123.501 29C123.501 30.3807 124.62 31.5 126.001 31.5Z" fill="white"/>
<path d="M205.001 82.25C205.001 89 197.001 96 197.001 96C197.001 96 189.001 89 189.001 82.25C188.969 80.0954 189.793 78.0162 191.293 76.4693C192.794 74.9224 194.846 74.0342 197.001 74C201.421 74 205.001 77.7 205.001 82.25Z" fill="#B7BCBF"/>
<path fill-rule="evenodd" clip-rule="evenodd" d="M200.011 90.9C201.981 88.34 203.751 85.19 203.751 82.25C203.751 78.35 200.691 75.25 197.001 75.25C193.301 75.25 190.251 78.35 190.251 82.25C190.251 85.19 192.021 88.35 193.991 90.89C194.917 92.0894 195.923 93.2253 197.001 94.29C198.077 93.2233 199.083 92.0876 200.011 90.89V90.9ZM197.001 96C197.001 96 205.001 89 205.001 82.25C205.033 80.0954 204.208 78.0162 202.708 76.4693C201.208 74.9224 199.156 74.0342 197.001 74C192.581 74 189.001 77.7 189.001 82.25C189.001 89 197.001 96 197.001 96Z" fill="white"/>
<path d="M197.001 84.5C198.382 84.5 199.501 83.3807 199.501 82C199.501 80.6193 198.382 79.5 197.001 79.5C195.62 79.5 194.501 80.6193 194.501 82C194.501 83.3807 195.62 84.5 197.001 84.5Z" fill="white"/>
</g>
<defs>
<filter id="filter0_d_2220_3350" x="233" y="120" width="24.001" height="30" filterUnits="userSpaceOnUse" color-interpolation-filters="sRGB">
<feFlood flood-opacity="0" result="BackgroundImageFix"/>
<feColorMatrix in="SourceAlpha" type="matrix" values="0 0 0 0 0 0 0 0 0 0 0 0 0 0 0 0 0 0 127 0" result="hardAlpha"/>
<feOffset dy="3"/>
<feGaussianBlur stdDeviation="2"/>
<feComposite in2="hardAlpha" operator="out"/>
<feColorMatrix type="matrix" values="0 0 0 0 0 0 0 0 0 0 0 0 0 0 0 0 0 0 0.1 0"/>
<feBlend mode="normal" in2="BackgroundImageFix" result="effect1_dropShadow_2220_3350"/>
<feBlend mode="normal" in="SourceGraphic" in2="effect1_dropShadow_2220_3350" result="shape"/>
</filter>
<filter id="filter1_d_2220_3350" x="233.001" y="120" width="24.001" height="30" filterUnits="userSpaceOnUse" color-interpolation-filters="sRGB">
<feFlood flood-opacity="0" result="BackgroundImageFix"/>
<feColorMatrix in="SourceAlpha" type="matrix" values="0 0 0 0 0 0 0 0 0 0 0 0 0 0 0 0 0 0 127 0" result="hardAlpha"/>
<feOffset dy="3"/>
<feGaussianBlur stdDeviation="2"/>
<feComposite in2="hardAlpha" operator="out"/>
<feColorMatrix type="matrix" values="0 0 0 0 0 0 0 0 0 0 0 0 0 0 0 0 0 0 0.1 0"/>
<feBlend mode="normal" in2="BackgroundImageFix" result="effect1_dropShadow_2220_3350"/>
<feBlend mode="normal" in="SourceGraphic" in2="effect1_dropShadow_2220_3350" result="shape"/>
</filter>
<clipPath id="clip0_2220_3350">
<rect width="320" height="200" fill="white"/>
</clipPath>
</defs>
</svg>
