<svg xmlns="http://www.w3.org/2000/svg" width="320" height="200" fill="none"><g clip-path="url(#a)"><path fill="#F3F3F4" d="m91.77 6.35-9.18 1 3.95-5.78-1.48-3.36L52.71.08 25.4 1.2l-3.99.1.42 2.38 2.63 17.2-.07 3.8.03 23.03-.06 3.8.25.1 1.21 1.4 5.08.03.22 7.46.09 2.12 2.63-.15 8.06-.28 32-1.7h.17l-.01-1.86.87-.56-1.41-2.93 3.74-13.4-1.2-1.57 5.03-5.14-.16-4.57 3.78-5.78v-.08l-.16-.18 3.16-2.67-.72-3.41 2.52-3.63-.37-3.48 2.73-4.8v-.09h-.09Z"/><path fill="#fff" fill-rule="evenodd" d="M85.03-2.27c.2-.01.4.1.48.29l1.47 3.36c.07.15.06.33-.04.47l-3.36 4.9 8.14-.89h.16a.49.49 0 0 1 .46.51v.08a.4.4 0 0 1-.06.22l-2.65 4.67.35 3.33a.49.49 0 0 1-.08.33l-2.4 3.45.67 3.21a.49.49 0 0 1-.16.47l-2.83 2.4v.18c0 .09-.02.17-.07.25l-3.7 5.64.15 4.43a.5.5 0 0 1-.14.35l-4.73 4.84.95 1.23c.1.13.12.28.08.43l-3.7 13.22 1.34 2.77a.5.5 0 0 1-.18.62l-.64.41v1.6a.49.49 0 0 1-.5.48h-.14l-32 1.7-8.05.28-2.63.15a.49.49 0 0 1-.5-.46l-.1-2.12-.2-7-4.61-.02a.49.49 0 0 1-.36-.17l-1.14-1.3-.14-.06a.49.49 0 0 1-.31-.46l.07-3.8-.03-23.03.06-3.77-2.62-17.15-.41-2.38a.49.49 0 0 1 .46-.57l3.98-.1L52.7-.4l32.34-1.86Zm-11.46 62.3v-1.39c0-.17.08-.32.22-.41l.5-.33-1.22-2.54a.49.49 0 0 1-.03-.35l3.68-13.16-1.06-1.38a.49.49 0 0 1 .04-.63l4.88-4.99-.15-4.37c0-.1.03-.2.08-.28l3.62-5.52a.48.48 0 0 1 .1-.62l2.93-2.48-.65-3.13a.49.49 0 0 1 .07-.38L89 14.6l-.36-3.3c0-.1.01-.2.06-.3l2.32-4.07-8.38.9a.49.49 0 0 1-.45-.75l3.8-5.55-1.24-2.8L52.73.56 25.4 1.7l-3.42.09.32 1.84 2.63 17.2v.08l-.06 3.8.03 23.03-.06 3.47c.04.03.09.06.12.1l1.07 1.24 4.87.03c.26 0 .47.2.48.47l.21 7.45.07 1.63 2.15-.13 8.05-.27h.01l31.7-1.7Z" clip-rule="evenodd"/><path fill="#fff" fill-rule="evenodd" d="M21.57-7.94c.1.08.15.2.16.33l.08 2.2v2.23l.08 2.28v2.17l.4 2.36 2.64 17.2a.5.5 0 0 1 0 .08l-.06 3.8.03 23.03-.07 3.8a.49.49 0 0 1-.5.48h-.09l-.08-.01-3.28-.72a.49.49 0 0 1-.17-.08l-3.68-2.58-3.96-1.85-7.88 1.93a.49.49 0 0 1-.25 0L3 48.15l-2.44.84-3.26 2.44a.49.49 0 0 1-.51.05l-8.12-4.21-2.6 3.3a.49.49 0 0 1-.56.14l-3.92-1.59a.5.5 0 0 1-.1-.05l-3.83-2.66-2.07 1.63a.5.5 0 0 1-.3.1h-2.2a.49.49 0 0 1-.5-.5l.06-1.3-5.34-2.78-2.2.92a.49.49 0 0 1-.56-.14l-1.01-1.25-6.3-.9a.49.49 0 0 1-.27-.14l-4.36-4.3-.51.92a.49.49 0 0 1-.47.25l-3.63-.31a.49.49 0 0 1-.3-.15l-3.26-3.34a.48.48 0 0 1-.12-.22l-1.33-5.13a.48.48 0 0 1-.01-.13l.86-28.44L-77.34.12l-20.45-1.3-.5-.03a.49.49 0 0 1-.46-.52l.68-8.86a.49.49 0 0 1 .53-.44l1.68.15 3.56.22 1.68.15 5.31.38 1.36.05 3.63.23 19.6 1.02 45.95 1.12L18-7.95l3.21-.12a.5.5 0 0 1 .35.13Zm-.8.86-2.73.1h-.02l-32.8.24-45.98-1.12-19.62-1.02-3.63-.23-1.34-.05h-.02l-5.33-.38-1.68-.15-3.56-.23-1.2-.1-.6 7.86h.01l20.45 1.31 21.64 1.1a.5.5 0 0 1 .46.5l-.88 28.85 1.27 4.94 3.04 3.12 3.14.27.67-1.22a.49.49 0 0 1 .77-.1l4.7 4.64 6.32.9c.12.02.23.09.31.18l.9 1.12 2.08-.87a.49.49 0 0 1 .41.02l5.81 3.02c.17.09.27.26.26.45l-.04 1.1h1.53l2.23-1.75c.17-.13.4-.14.57-.02l4.08 2.84 3.53 1.44 2.63-3.33c.15-.18.4-.24.6-.13l8.2 4.26 3.08-2.31a.49.49 0 0 1 .13-.08l2.66-.9c.1-.04.2-.04.3-.02l1.96.56L13 45.79c.1-.03.22-.02.32.03l4.16 1.94.07.04 3.63 2.55 2.69.59.05-3.22-.02-23.03.06-3.77-2.62-17.15-.41-2.38-.01-.09V-.89l-.08-2.28v-2.21l-.06-1.7Z" clip-rule="evenodd"/><path fill="#F3F3F4" d="m85.68 129.26-1.11.2-.53.5 1.64-.7Zm3.55.14-.58-.28-.18.25.76.03Zm2.06-.6-.6-.02-.35.4.95-.38Zm-1-.63-.15-.26-.1.25h.26Zm6.95-4.22-.26.16.42.02-.16-.18Zm12.04-4.52.53-.65-.62.73.09-.08Zm1.78-2.13-.18.08v.08l.18-.16Zm-43.77 5.73 1.33-1.55-3.43-1.07-1.58 1.21 3.68 1.41Zm35.39-5.97-.33-.35-.09.16.42.19Zm.99-1.49-.84-.28.22.85.62-.57Zm7-1.16v-.26.26Zm1.73-1.03-.09-.1.08.18v-.08Zm-.67-.2-.17-.1-.1.26.27-.16Zm-5.92-.49.78-.22v-.25l-.78.47Zm.44-.4.44-.4-.08-.1-.36.5Zm-2.83-3.24-.18.16h.09l.09-.16ZM74.06 60.5h-.17l-32 1.7-8.06.28-2.63.15v2.03l1.05 16.38 2.64 4v2.28l2.52 4.84 1.92 7.01-.91 3.86-.97 9.61-1.4 3.08h.18l.17 2.21-1.52 1.97 10.53-.77 8.12 2.6 5.8 1 3.05-2-1.53-2.18 5.48-1.48-.24 1.86 2.82-.57 2.14 3.64 1.98-.6 4.94 3.66-3.18.98 7.11 2.4 2.7.1 1.69-1.88 3.54-1.73 2.31 3.65 1.82-3.15-.3-5.09 4.5 1.96.44 1.54 5.39.89 2.62 2.3-.41 1.76 3.94-3.4-1.36-1.92-6.28-1.85-2.32-1.44.02-2.54 2.6.44 2.2-4.06-2.48-3.74-1.57 3.4-3.28-.71 2.43-3.63-1.5-.48-3.83 2.47-5.34.13-1.48-1.24 2.62-4.22 2.88.03 4.85 1.8 3.54.48-1.85-2.53-3.44-7.41 1.17-4.02-29.3 2.07 1.14-1.06-1.07-3.09 1.88-2.55 1.28-6.55 6.86-10.73-2.98-3.93.27-2.78-1.76-4.64.02-.6Z"/><path fill="#fff" fill-rule="evenodd" d="M73.87 60h.04l.17.01c.27.01.48.24.47.5l-.02.5 1.73 4.55c.02.07.03.14.03.22l-.26 2.59 2.86 3.77a.5.5 0 0 1 .03.56L72.1 83.35l-1.26 6.47a.48.48 0 0 1-.09.2l-1.72 2.34.98 2.84c.06.19 0 .39-.13.52l-.13.12 27.93-1.97a.49.49 0 0 1 .5.62l-1.12 3.84 3.34 7.2 1.82 2.49a.49.49 0 0 1-.46.77l-3.54-.48a.53.53 0 0 1-.1-.03l-4.77-1.76-2.52-.03-2.25 3.63 1.01.85 5.02-.12 3.71-2.4a.5.5 0 0 1 .41-.06l1.5.49a.48.48 0 0 1 .26.73l-2.03 3.04 2.2.48 1.41-3.05a.49.49 0 0 1 .84-.07l2.48 3.74c.1.15.11.34.03.5l-2.2 4.06a.5.5 0 0 1-.5.25l-2.05-.35v1.7l2.02 1.26 6.22 1.84c.1.03.2.1.26.18l1.36 1.92c.15.2.11.48-.08.65l-3.94 3.4a.48.48 0 0 1-.57.05.48.48 0 0 1-.22-.53l.34-1.48-2.3-2.02-5.25-.86a.48.48 0 0 1-.39-.35l-.38-1.32-3.56-1.55.26 4.3c0 .1-.02.2-.07.28l-1.81 3.14a.48.48 0 0 1-.8.06.49.49 0 0 1-.3.37l-.94.38a.48.48 0 0 1-.55-.76l.19-.22h-.15a.49.49 0 0 1-.43-.66l.1-.25a.48.48 0 0 1 .86-.08l.16.26c.07.11.09.25.06.37l.54.02a.5.5 0 0 1 .1.02l-1.76-2.77-3.06 1.5-1.62 1.8a.4.4 0 0 1-.05.05l.67-.13a.48.48 0 0 1 .28.92l-1.64.7a.49.49 0 0 1-.52-.8l.53-.49.15-.1-2.5-.1a.45.45 0 0 1-.15-.02l-7.1-2.4a.49.49 0 0 1 .01-.92l2.26-.7-3.98-2.94-1.73.53a.49.49 0 0 1-.56-.22l-1.97-3.34-2.48.5a.48.48 0 0 1-.58-.54l.15-1.13-4.11 1.1 1.13 1.62a.48.48 0 0 1-.14.68l-3.04 2c-.1.07-.23.1-.35.07l-5.8-.99a.5.5 0 0 1-.07-.01l-8.03-2.58-10.44.77a.49.49 0 0 1-.42-.78l1.4-1.83-.12-1.67a.49.49 0 0 1-.15-.59l1.36-3 .96-9.54v-.06l.9-3.74-1.89-6.85-2.5-4.79a.49.49 0 0 1-.05-.22v-2.14l-2.55-3.88a.48.48 0 0 1-.08-.23l-1.05-16.38v-.03l-.01-2.03c0-.26.2-.47.46-.49L33.8 62l8.06-.27 32-1.71Zm-37.2 55.53c.02.05.04.1.04.16l.17 2.2c0 .12-.03.24-.1.34l-.86 1.1 9.46-.68c.06 0 .12 0 .18.02l8.08 2.6 5.59.94 2.46-1.61-1.23-1.77a.48.48 0 0 1 .27-.75l5.48-1.48a.49.49 0 0 1 .6.54l-.15 1.18 2.15-.44a.5.5 0 0 1 .52.23l1.95 3.31 1.6-.49a.53.53 0 0 1 .44.08l4.93 3.66a.49.49 0 0 1-.14.86l-1.73.53 5.6 1.89 2.42.1 1.53-1.72a.5.5 0 0 1 .15-.11l3.54-1.72a.49.49 0 0 1 .62.17l1.89 2.97 1.34-2.32-.3-4.95a.49.49 0 0 1 .68-.47l4.5 1.95c.13.06.23.17.27.31l.36 1.25 5.09.84c.09.01.17.05.24.11l2.62 2.3c.13.12.2.3.15.48l-.07.31 2.48-2.14-1-1.42-6.13-1.8a.54.54 0 0 1-.12-.06l-2.31-1.44a.49.49 0 0 1-.23-.42l.01-2.53a.49.49 0 0 1 .57-.48l2.27.38v-.01a.49.49 0 0 1-.07-.03l-.42-.19a.48.48 0 0 1-.22-.67l.09-.17a.49.49 0 0 1 .66-.19v-.02l-.23-.85a.49.49 0 0 1 .63-.58l.84.28.02.01.59-1.08-1.84-2.77-1.21 2.62a.5.5 0 0 1-.55.27l-3.27-.72a.48.48 0 0 1-.3-.74l2.07-3.1-.67-.21-3.64 2.35a.48.48 0 0 1-.25.08l-5.34.13a.48.48 0 0 1-.32-.12l-1.48-1.24a.49.49 0 0 1-.1-.63l2.62-4.21a.49.49 0 0 1 .42-.23l2.88.03a.3.3 0 0 1 .16.03l4.8 1.78 2.35.31-1.18-1.6a.45.45 0 0 1-.04-.09l-3.44-7.41a.49.49 0 0 1-.03-.34l.98-3.35-28.61 2.02a.49.49 0 0 1-.36-.84l.9-.84-.96-2.79a.49.49 0 0 1 .07-.44l1.82-2.47 1.25-6.44a.49.49 0 0 1 .07-.17l6.68-10.45-2.78-3.65a.49.49 0 0 1-.1-.35l.27-2.66-1.73-4.54a.48.48 0 0 1-.03-.19V61L41.9 62.69l-8.05.27-2.17.13v1.55l1.05 16.24 2.57 3.88c.05.08.08.18.08.27v2.17l2.46 4.73c.01.03.03.06.03.1l1.93 7.01a.4.4 0 0 1 0 .24l-.9 3.83-.97 9.58c0 .05-.02.1-.04.15l-1.22 2.7Zm66.37 1.1-.04.06-.08-.08.12.02Zm.68-7.97a.5.5 0 0 1 .12.62l-.09.17a.48.48 0 0 1-.44.25h-.09a.48.48 0 0 1-.3-.85l.17-.16a.49.49 0 0 1 .63-.03Zm2.86 2.65c.15 0 .29.05.39.16l.08.08a.49.49 0 0 1 .03.63v.31a.53.53 0 0 1-.36.45l-.77.22a.49.49 0 0 1-.39-.88l.23-.14.07-.14.36-.49c.09-.12.22-.2.36-.2Zm4.81 1.32a.48.48 0 0 1 .4.03l.17.1c.05.02.1.06.13.1.2-.1.43-.06.58.1l.08.09c.09.1.14.22.13.34v.09a.49.49 0 0 1-.93.18l-.02-.04-.21.13a.48.48 0 0 1-.7-.58l.09-.25a.48.48 0 0 1 .28-.29Zm-.7 1.04c.27.01.48.24.47.5l-.01.26a.49.49 0 0 1-.97-.04v-.25a.48.48 0 0 1 .51-.47Zm.77 3.36c.13.2.1.47-.07.63l-.18.16a.48.48 0 0 1-.53.08.48.48 0 0 1-.29-.46v-.08a.51.51 0 0 1 .3-.42l.17-.08c.21-.1.47-.03.6.17Zm-1.34 1.37c.2.17.24.48.07.68l-.54.66a.45.45 0 0 1-.04.05l-.1.08a.49.49 0 0 1-.7-.67l.63-.73a.48.48 0 0 1 .68-.07Zm-45.23 1.63c.13-.1.29-.13.44-.08l3.43 1.06a.49.49 0 0 1 .23.78l-1.34 1.56a.49.49 0 0 1-.54.14l-3.67-1.42a.49.49 0 0 1-.12-.83l1.57-1.21Zm.4.92-.7.53 2.55.98.63-.74-2.49-.77Zm31.7 2.59c.2-.12.45-.09.6.08l.17.18a.49.49 0 0 1-.38.81l-.42-.01a.48.48 0 0 1-.23-.9l.26-.16Zm-8.73 5.3a.48.48 0 0 1 .6-.16l.58.28a.48.48 0 0 1-.23.92l-.76-.03a.49.49 0 0 1-.37-.77l.18-.25Z" clip-rule="evenodd"/><path fill="#F3F3F4" d="m-16.87 184.23-3.46-15.45-.11 2.87 3.57 12.58Zm.13-26.9-3.1 5.29-.4 1.76 3.5-7.06Zm2.44-3.89 2.84-3.44-1.99 1.1-.85 2.34Zm9.9-8.25-6.48 3.05 1.79-.27 4.68-2.78Zm.89-1.15 1.83-1.36-.69.14-1.14 1.22ZM-98.27-1.69l-.59-.1-5.98 79.15-16.72-1.42-26.76-2.57-10.71-1.18 1.95 4.22.08.09 8.78 9.48 5 6.38 6.74 5.43 4.55 9.15 1.5 9.45 3.87 2.77 2.99 3.6 4.42 1.77 6.35 4.4 2.92 1.21 4.22-3.9 1.44-4.25 2.27-4.06 6.7-2.36 2.5 1.36 7.33.88 6.52 4.4 4.53 1.03-1.36 2.32 2.56 1.79 2.33 3.05.39 3.15 1.52 2.18 3.37 9.1 3.6 3.27 2.7 4.85 3.48 3.86 1.59.57.97 9.69 3.9 2.35.04 3.05 1.03-.22 6.6 8.73 3.44.9 4.3 2.78 6.76.27 4.8 2.9 5.89-1.04-2.53-2.56-2.09-7.19-.68-6.2-1.28-2.08.76-4.12-1.77-.24-2.22-3.98 2.6 2.98 3.17-.98 1.87-4.41-3.2-4.7 5.04.8 2.51-3.55-.28-1.28 2.22-2.7-.6 2.43 2.44-1.77-.8-3.33 2.98 1.72 3.98-2.04-3.65-4.12 2.33 1.02 4.39.43 5.8-1.05 6.6-4.05 4.01-3.06.69-2.35 2.46-2.35-1.1-4.11.35-2.53 4.3-1.69-.52 4.47 2.54.1-2.88 2.25 11.48-5.47 1.86-.01 1.4-5.36h.34l1.39-3.07.97-9.61.91-3.86-1.92-7.01-2.52-4.84v-2.29l-2.64-4-1.05-16.37v-2.03l-.1-2.12-.2-7.46-5.09-.03-1.21-1.4-.25-.1h-.09L21 50.8l-3.71-2.6-4.16-1.94-8.05 1.97-2.09-.59-2.66.91-3.32 2.5-8.47-4.4-2.85 3.61-3.92-1.59-4.12-2.87-2.36 1.86h-2.2l.06-1.61-5.81-3.02-2.42 1-1.13-1.4-6.48-.93-4.82-4.75-.82 1.49-3.63-.31-3.25-3.35-1.33-5.13.88-28.91-21.64-1.1-20.45-1.31-.5-.02Z"/><path fill="#fff" fill-rule="evenodd" d="M-99.15-2.18c.1-.09.24-.12.38-.1l.55.1.49.02 20.44 1.31h.01l21.64 1.1a.5.5 0 0 1 .46.5l-.88 28.85 1.27 4.94 3.04 3.12 3.14.27.67-1.22a.49.49 0 0 1 .77-.1l4.7 4.64 6.32.9c.12.02.23.09.31.18l.9 1.12 2.08-.87a.49.49 0 0 1 .41.02l5.81 3.02c.17.09.27.26.26.45l-.04 1.1h1.53l2.23-1.75c.17-.13.4-.14.57-.02l4.08 2.84 3.53 1.44 2.63-3.33c.15-.18.4-.24.6-.13l8.2 4.26 3.08-2.31a.49.49 0 0 1 .13-.08l2.66-.9c.1-.04.2-.04.3-.02l1.96.56L13 45.79c.1-.03.22-.02.32.03l4.16 1.94.07.04 3.63 2.55 3.14.69h.04c.06 0 .1.01.16.03l.25.1a.5.5 0 0 1 .2.13l1.06 1.24 4.87.03c.26 0 .47.2.48.47l.21 7.45.09 2.12v2.03l1.05 16.24 2.57 3.89a.5.5 0 0 1 .08.26v2.17l2.46 4.73.04.1 1.92 7.01a.4.4 0 0 1 0 .24l-.9 3.83-.97 9.58c0 .05-.02.1-.04.15l-1.39 3.08a.48.48 0 0 1-.4.28l-1.3 4.99a.48.48 0 0 1-.47.36l-1.76.01L21.2 127a.48.48 0 0 1-.51-.82l1.84-1.44-1.21-.05a.49.49 0 0 1-.47-.54l.42-3.66-3.28 1.3-.3 2.14 1.08 4a.5.5 0 0 1-.13.49l-2.37 2.27-.65 2.21a.48.48 0 0 1-.17.25l-4.02 3.06a.36.36 0 0 1-.04.03l-6.6 4.06a.49.49 0 0 1-.17.06l-5.8 1.04a.45.45 0 0 1-.13 0l-4.39-.42a.48.48 0 0 1-.15-.03l-.3-.14 2.18 2.47a.49.49 0 0 1 .1.45h.01l1.15-1.23a.49.49 0 0 1 .26-.15l.68-.14a.48.48 0 0 1 .39.87l-1.83 1.36a.49.49 0 0 1-.76-.52.5.5 0 0 1-.14.11l-3.98 2.05a.49.49 0 0 1-.46-.02l-2-1.15.53 2.23c.01.06.02.11.01.17l5.4-2.54a.49.49 0 0 1 .46.85l-4.68 2.78a.5.5 0 0 1-.18.06l-1.79.27a.49.49 0 0 1-.52-.28l-1.33.96a.49.49 0 0 1-.75-.5l.08-.36-.7.87.23 1.05c.03.13 0 .27-.08.38l-2.51 3.54a.48.48 0 0 1-.47.2l-3.95-.61 2.58 3.77c.09.13.1.3.04.46l-.98 2.32 2-3.44a.49.49 0 0 1 .86.46l-3.5 7.06a.49.49 0 0 1-.9-.33l.32-1.37-3.14.96a.5.5 0 0 1-.26.01l.04.08 1.53.2a.49.49 0 0 1 .41.58l-.72 3.93 1.18 1.92c.04.06.06.13.07.2l.68 6.17 2.05 7.03 2.44 2.47a.48.48 0 0 1-.27.82l-5.88 1.03a.49.49 0 0 1-.34-.06l-4.69-2.83-6.64-.26a.48.48 0 0 1-.25-.08l-4.23-2.75-3.36-.87a.48.48 0 0 1-.26-.18l-6.42-8.48-.73.15a.48.48 0 0 1-.58-.46l-.05-2.78-3.66-2.22a.49.49 0 0 1-.23-.36l-.94-9.39-1.3-.46a.48.48 0 0 1-.2-.14l-3.49-3.86a.52.52 0 0 1-.06-.09l-2.65-4.77-3.54-3.22a.48.48 0 0 1-.13-.2l-3.35-9.04-1.49-2.12a.48.48 0 0 1-.08-.22l-.37-3.02-2.21-2.89-2.5-1.75a.49.49 0 0 1-.14-.64l1.03-1.74-3.89-.88a.47.47 0 0 1-.16-.07l-6.43-4.34-7.22-.86a.48.48 0 0 1-.17-.06l-2.3-1.26-6.32 2.23-2.17 3.85-1.42 4.22a.48.48 0 0 1-.13.2l-4.22 3.9a.48.48 0 0 1-.52.1l-2.92-1.22a.46.46 0 0 1-.09-.05l-6.3-4.37-4.37-1.76a.5.5 0 0 1-.2-.14l-2.95-3.54-3.82-2.74a.48.48 0 0 1-.2-.31l-1.48-9.39-4.47-8.98-6.65-5.36a.44.44 0 0 1-.08-.08l-4.99-6.36-8.84-9.56a.5.5 0 0 1-.09-.13l-1.95-4.22a.49.49 0 0 1 .5-.68l10.7 1.18 26.75 2.57 16.23 1.37 5.95-78.67a.49.49 0 0 1 .19-.34Zm123.48 126.6 7.92-3.78a.49.49 0 0 1 .2-.05h1.5l1.3-5a.49.49 0 0 1 .49-.37h.01l1.23-2.7.96-9.54v-.06l.9-3.74-1.89-6.85-2.5-4.79a.48.48 0 0 1-.05-.22v-2.14l-2.55-3.88a.49.49 0 0 1-.08-.23l-1.05-16.38a.6.6 0 0 1 0-.03l-.01-2.02-.09-2.11-.2-7-4.61-.02a.49.49 0 0 1-.36-.17l-1.14-1.3-.06-.03-.1-.01-3.27-.72a.48.48 0 0 1-.17-.08l-3.68-2.58-3.96-1.85-7.88 1.93a.49.49 0 0 1-.25 0L3 48.15l-2.44.84-3.26 2.45a.49.49 0 0 1-.51.04l-8.12-4.21-2.6 3.3a.49.49 0 0 1-.56.14l-3.92-1.59a.48.48 0 0 1-.1-.05l-3.83-2.66-2.07 1.63a.5.5 0 0 1-.3.1h-2.2a.49.49 0 0 1-.49-.5l.05-1.3-5.34-2.78-2.2.92a.49.49 0 0 1-.56-.14l-1.01-1.25-6.3-.9a.49.49 0 0 1-.27-.14l-4.36-4.3-.51.92a.49.49 0 0 1-.47.25l-3.63-.31a.49.49 0 0 1-.3-.15l-3.26-3.34a.49.49 0 0 1-.12-.22l-1.33-5.13a.48.48 0 0 1-.01-.13l.86-28.44L-77.34.12l-20.45-1.3-.5-.03h-.07l-.05-.01-5.95 78.61a.49.49 0 0 1-.53.45l-16.71-1.42h-.01l-26.75-2.57h-.01l-9.86-1.09 1.56 3.38 8.8 9.51.03.03 4.97 6.34 6.7 5.39c.04.04.09.1.12.16l4.56 9.15.04.14 1.46 9.25 3.7 2.66.1.08 2.91 3.5 4.31 1.73.1.05 6.3 4.37 2.59 1.08 3.9-3.6 1.4-4.15.02-.05.01-.03 2.28-4.06c.06-.1.15-.18.26-.22l6.7-2.36a.48.48 0 0 1 .4.03l2.4 1.32 7.24.87c.08.01.15.04.22.08l6.44 4.35 4.45 1a.49.49 0 0 1 .31.73l-1.13 1.93 2.18 1.53.11.1 2.34 3.06c.05.07.08.15.1.23l.36 3.03 1.46 2.08.06.1 3.33 9 3.5 3.2c.05.03.08.07.1.12l2.67 4.8 3.37 3.72 1.47.53c.18.07.3.22.32.41l.95 9.45 3.69 2.22c.14.09.23.24.23.41l.04 2.46.45-.1a.5.5 0 0 1 .49.2l6.5 8.58 3.27.85.15.07 4.18 2.72 6.63.26a.5.5 0 0 1 .24.06l4.64 2.8 4.8-.84-1.88-1.9a.49.49 0 0 1-.12-.2l-2.1-7.2a.42.42 0 0 1 0-.07l-.68-6.1-1.22-1.99a.49.49 0 0 1-.06-.34l.66-3.62-1.27-.17a.49.49 0 0 1-.36-.24l-2.21-3.98a.49.49 0 0 1 .79-.56l2.38 2.74 2.66-.81 1.68-3.97-3.06-4.47a.49.49 0 0 1 .48-.75l4.75.74 2.21-3.12-.24-1.07c-.03-.15 0-.3.1-.41l2.23-2.71a.48.48 0 0 1 .84.42l-.28 1.15 1.1-.8-.72-3.02a.49.49 0 0 1 .71-.53l2.75 1.6 3.19-1.65-3.24-3.65a.49.49 0 0 1 .56-.77l2.26 1 4.25.4 5.64-1 6.5-4 3.87-2.95.64-2.2a.49.49 0 0 1 .13-.2l2.26-2.16-1.04-3.83a.49.49 0 0 1 0-.2l.35-2.52a.49.49 0 0 1 .3-.39l4.3-1.69a.49.49 0 0 1 .66.5l-.45 3.95 2.01.08a.49.49 0 0 1 .45.6Zm-35.41 25.27a.5.5 0 0 1 0 .62l-2.85 3.44a.48.48 0 0 1-.83-.48l.85-2.33c.04-.11.12-.2.22-.26l2-1.1c.2-.12.46-.07.6.1Zm-9.3 18.6a.5.5 0 0 1 .53.38l3.46 15.46a.48.48 0 0 1-.94.24l-3.58-12.59a.5.5 0 0 1-.02-.15l.12-2.87c0-.25.2-.44.44-.47Z" clip-rule="evenodd"/><path fill="#F3F3F4" d="m115.48 21.92.3.69 1.16.8-.85 34.67-.58 19.02 3.3 26.2.34-.07 3.77.91 1.31-7.48 1.53 4.29 2.77 2.73 5.63-3-.57-.52.16.09-3.46-8.86 36.77-4.48 2.47-.33v-.08l-2.11-4.4.07-6.18-1.73-3.45 1.2-6.55 1.58-1.63-5.82-11.4-9.98-34.93-.08-.17-2.55.32-13.62 1.67-6.8.58-14.3 1.39.09.17Z"/><path fill="#fff" fill-rule="evenodd" d="M152.6 17.3a.5.5 0 0 1 .5.29l.08.17.03.07 9.96 34.88 5.8 11.35c.1.19.06.42-.08.56l-1.49 1.53-1.13 6.25 1.66 3.3a.5.5 0 0 1 .05.23l-.07 6.06 2.06 4.3a.6.6 0 0 1 .05.23v.08a.51.51 0 0 1-.43.47l-2.47.32-36.15 4.41 3.23 8.27.29.26a.49.49 0 0 1-.1.78l-5.63 3a.49.49 0 0 1-.57-.08l-2.77-2.73a.5.5 0 0 1-.12-.19l-.9-2.55-1 5.66a.48.48 0 0 1-.59.4l-3.67-.9-.23.06a.48.48 0 0 1-.58-.42l-3.3-26.2v-.07l.58-19.02.84-34.4-.94-.66a.48.48 0 0 1-.16-.2l-.31-.7-.08-.16a.49.49 0 0 1 .4-.69l14.29-1.38 6.79-.58 13.6-1.67 2.56-.32Zm-36.48 4.86.06.13 1.04.73c.14.09.21.24.2.4l-.84 34.68-.58 18.98 3.23 25.67h.03l3.28.8 1.22-6.97a.48.48 0 0 1 .93-.08l1.49 4.18 2.44 2.4 4.7-2.5-.06-.07a.48.48 0 0 1-.13-.52l-3.3-8.42a.48.48 0 0 1 .4-.66L167 86.43l1.84-.24-1.86-3.88a.49.49 0 0 1-.05-.22l.07-6.05-1.67-3.35a.48.48 0 0 1-.04-.3l1.19-6.56a.4.4 0 0 1 .13-.25l1.34-1.38-5.66-11.1a.46.46 0 0 1-.04-.08l-9.91-34.7-2.17.27-13.63 1.67h-.01l-6.8.58-13.6 1.32Z" clip-rule="evenodd"/><path fill="#F3F3F4" d="m110.78 107.13-.43.07v.09l.43-.16Zm7.9-.7-1.18-.05 1.1.13.08-.08Zm-9.84.46-.35.32.08.1.27-.42Zm7.98-.37-3.22-.12 3.04.2.18-.08ZM84.7 24.61v.08l-3.78 5.78.16 4.57-5.04 5.14 1.21 1.57-3.74 13.4 1.4 2.93-.86.56.01 1.86-.02.59 1.76 4.64-.27 2.78 2.98 3.93-6.86 10.73-1.28 6.55-1.88 2.55 1.07 3.1-1.14 1.05 29.3-2.07-1.17 4.02 3.44 7.41 1.85 2.53v-.09l3.27-3.42 6.65-1.18 6.07.91.97-1.14v-.09l-3.29-26.2.58-19.02.85-34.67-1.15-.8-.31-.7h-.17l-4.25.43-7.49.72-17 1.45-1.87.1Zm103.76-12.36-2.55 4.56.35 1.7 7.58 3.52 3.77 5.22 15.8 14.33 3.73 1.93 6.55 10.16 4.88 4.93 1-3.86-1.2-3.77 3.53 2.85 2.09-1.53-3.36-3 4.24-.1 6.82-5.31-.7-1.47 4.18-2.97-.36-1.54 3.03-1.74.34-4.3 4.99-8.44 3.28-3.85.35-.16-18.4-12.65-7.07 1.08-9.55-.72-4.64-2.63-28.43 7.77h-.25Z"/><path fill="#fff" fill-rule="evenodd" d="M217.02 4.02a.49.49 0 0 1 .36.05l4.55 2.58 9.38.7 7.02-1.07c.12-.02.25.01.35.08l18.4 12.65a.48.48 0 0 1-.08.85l-.25.1-3.19 3.74-4.9 8.3-.34 4.2c0 .16-.1.3-.24.38l-2.72 1.56.28 1.19c.05.2-.03.4-.19.5l-3.85 2.74.53 1.1c.1.2.04.45-.14.59l-6.82 5.32a.49.49 0 0 1-.29.1l-3 .06 2.43 2.19a.49.49 0 0 1-.03.75l-2.1 1.53a.48.48 0 0 1-.59-.01l-2.27-1.83.72 2.22a.5.5 0 0 1 0 .27l-1 3.86a.49.49 0 0 1-.81.22L223.34 54a.46.46 0 0 1-.06-.08l-6.48-10.05-3.62-1.87a.47.47 0 0 1-.1-.07l-15.8-14.33a.45.45 0 0 1-.06-.07l-3.7-5.13-7.46-3.46a.48.48 0 0 1-.27-.34l-.36-1.7a.49.49 0 0 1 .06-.34l2.55-4.56a.48.48 0 0 1 .44-.24h.18l28.36-7.75Zm38.93 15.4L238.29 7.27l-6.89 1.05h-.1l-9.55-.71a.49.49 0 0 1-.2-.06L217.07 5l-28.24 7.72a.49.49 0 0 1-.1.02l-2.32 4.13.27 1.3 7.35 3.4a.5.5 0 0 1 .19.16l3.75 5.19 15.7 14.25 3.68 1.9c.07.03.14.1.19.16l6.52 10.12 4.25 4.29.75-2.9-1.17-3.63a.49.49 0 0 1 .77-.53l3.24 2.62 1.31-.96-2.9-2.6a.49.49 0 0 1 .3-.85l4.08-.09 6.38-4.98-.53-1.11a.48.48 0 0 1 .16-.6l3.91-2.79-.29-1.21a.49.49 0 0 1 .23-.54l2.82-1.61.31-4.05a.52.52 0 0 1 .07-.21l5-8.44a.47.47 0 0 1 .04-.07l3.15-3.68Z" clip-rule="evenodd"/><path fill="#F3F3F4" d="m265.71 16.8-.96.9.16.17.8-1.07Zm.87-4.87-.45.66.14.68.31-1.34Zm5.38-7.66-1.3.8-.71.98 2.01-1.78Zm11.13-4.9-.5-.36-1.1-.12 1.6.48Zm-2.27-.6-.76-.03-1.3.63 2.06-.6Zm2.59 1.04 2.69-6-1.8 2.48-.9 3.52Zm3.95-7.89 1.16-1.56-.59-.03-.57 1.6Zm7.36-6.31-1.49-9.46 1.42 4.97.07 4.49Zm-9.48-21.79-.17.08-.26.07h.09l4.34 8.05 3.5 3.78-7.5-11.98Zm-1.54.45-.68.14.16.1 1.44.05-.15-.51-.26.07h-.25v.16l-.18.08-.08-.09Zm-79 16.2-.47 1.25-.06 3.64-.93-.12-2.37 4.4-2.46.15-4.75 4.3-2-.84-2.77 3.78-7.18 5.99-3.42.7-3.68 3.17-.26 2.19-3.2 1.56-.06 3.73-.03.84 1.11-.21 11.94-1.99 3.24-.55 1.1-.2h.26l28.43-7.77 4.65 2.64 9.54.7 7.07-1.07 18.4 12.66.35-.24 8.85-3.21.27-4.65 3.35-5.54 3.5-3.08 7.21-4.37 1-1.65 1.82.92 1.07-5.55-1.1 1.9L279.54-5l-3.39-.05 4.27-2.88-1.22-1.4 1.56-2.99-7.9-1.58-.33-.43 6.82-1 2.16 1.18 2.8-.14 2.35-1.6 1.82-3.23 1.54-.37-.07-4.65-1.87-1.94-2.02 1.7.25 4.5-1.22-5.56-1.1-.3-8.5 3.14 3.86-3.48.23-1.43 3.92-.78 1.22-2.83 2.56 1.62-2.63-4.25-1.88-1.76-34.21 8.3-21.79 4.65-21.98 3.2-.08-.17Z"/><path fill="#fff" fill-rule="evenodd" d="M285.04-36.62c.22-.1.49-.02.61.18l7.5 11.98.06.13c.22-.01.43.13.49.35l1.4 4.98.02.12.08 4.49a.49.49 0 0 1-.97.08l-1.48-9.4a.49.49 0 0 1-.38-.15l-3.5-3.78a.46.46 0 0 1-.06-.1l-3.94-7.28a.49.49 0 0 1-.28.07l-.56-.02.93.88.08.1 2.63 4.25a.48.48 0 0 1-.67.66l-2.08-1.32-.99 2.31a.49.49 0 0 1-.35.29l-3.6.7-.17 1.1a.49.49 0 0 1-.15.29l-2 1.8 6.15-2.27c.1-.03.2-.04.3-.01l1.08.3c.18.04.31.18.35.36l.18.8v-.01l2.02-1.7a.5.5 0 0 1 .67.03l1.87 1.94c.08.09.13.2.13.33l.07 4.66a.5.5 0 0 1-.37.48l-1.33.31-1.72 3.04a.49.49 0 0 1-.15.17l-2.35 1.6a.49.49 0 0 1-.25.08l-2.8.15a.48.48 0 0 1-.25-.06l-2.02-1.11-4.95.73 6.54 1.3c.15.04.28.14.35.27.06.14.06.3-.01.44l-1.4 2.7 1 1.14a.49.49 0 0 1-.1.72L277.7-5.5l1.76.02 3.35-.97.99-1.73a.49.49 0 0 1 .9.33l-.73 3.79 1.74-2.4a.49.49 0 0 1 .83.49L283.85 0a.49.49 0 0 1-.93-.18l-1.57-.48a.49.49 0 0 1-.25-.18.48.48 0 0 1-.14.07l-2.06.6a.48.48 0 0 1-.14.02l-5.34 3.24-1.04.9a.5.5 0 0 1-.1.63l-2.01 1.78a.49.49 0 0 1-.52.09l-3 4.97.02.01c.22.1.34.33.28.56l-.3 1.34a.49.49 0 0 1-.13.23l-.14 2.39a.49.49 0 0 1-.32.42l-.1.04c.17.17.19.44.04.63l-.8 1.07a.49.49 0 0 1-.75.04l-.16-.17a.49.49 0 0 1 .03-.7l.5-.45-7.55 2.73-.3.2a.49.49 0 0 1-.55 0L238.3 7.28l-6.89 1.05h-.1l-9.55-.71a.49.49 0 0 1-.2-.06L217.07 5l-28.24 7.72a.49.49 0 0 1-.15.02l-.2-.01-1.06.2-3.24.55-11.93 1.99-1.1.2a.49.49 0 0 1-.58-.49l.03-.84.06-3.71c0-.19.1-.35.27-.43l2.96-1.45.22-1.93a.48.48 0 0 1 .17-.31l3.68-3.16a.49.49 0 0 1 .22-.1l3.3-.7 7.04-5.86 2.74-3.74a.48.48 0 0 1 .58-.16l1.72.72 4.51-4.09a.48.48 0 0 1 .3-.12l2.19-.15 2.25-4.15c.1-.18.29-.28.49-.25l.38.05.05-3.1.03-.16.48-1.25a.48.48 0 0 1 .78-.18l21.65-3.16 21.76-4.64 34.2-8.3.12-.02c.05-.03.1-.05.16-.06l.67-.14c.1-.11.24-.18.39-.17h.17l.19-.05a.48.48 0 0 1 .21-.01.5.5 0 0 1 .13-.06l.22-.07.14-.06Zm-2.42 1.64-33.97 8.25-21.79 4.65h-.03l-21.85 3.19-.27.7-.05 3.56a.48.48 0 0 1-.55.47l-.6-.08-2.21 4.1a.49.49 0 0 1-.4.26l-2.3.14-4.6 4.19a.49.49 0 0 1-.52.09l-1.64-.7-2.55 3.48a.53.53 0 0 1-.08.09l-7.18 5.98a.48.48 0 0 1-.22.1l-3.29.69-3.44 2.95-.24 2a.49.49 0 0 1-.27.38l-2.92 1.44-.06 3.43-.01.24.52-.1 11.94-1.99 3.23-.55 1.1-.2.12-.01h.18l28.36-7.75a.49.49 0 0 1 .36.05l4.55 2.58 9.38.7 7.02-1.07c.12-.02.25.01.35.08l18.12 12.47.07-.05a.48.48 0 0 1 .11-.06l8.55-3.1.16-2.76-.03-.17a.48.48 0 0 1 .06-.36l.06-1.04c0-.07.03-.15.07-.22l3.35-5.54a.5.5 0 0 1 .1-.11l3.5-3.08a.48.48 0 0 1 .08-.05l7.1-4.31.93-1.55c.13-.22.4-.3.63-.19l1.26.63.47-2.45-3.6 1.05a.48.48 0 0 1-.15.01l-3.38-.04a.48.48 0 0 1-.27-.9l3.81-2.56-.86-1a.48.48 0 0 1-.06-.54l1.26-2.4-7.27-1.46a.49.49 0 0 1-.3-.19l-.31-.43a.49.49 0 0 1 .31-.77l6.82-1c.1-.02.21 0 .3.05l2.04 1.12 2.53-.13 2.14-1.46 1.77-3.13a.5.5 0 0 1 .31-.24l1.16-.27-.06-4.07-1.43-1.48-1.48 1.25.23 4.26a.49.49 0 0 1-.96.13l-1.15-5.26-.66-.18-8.37 3.08a.49.49 0 0 1-.49-.82l3.74-3.37.2-1.26c.03-.2.18-.36.38-.4l3.68-.73 1.11-2.6a.48.48 0 0 1 .7-.21l.79.5-1.49-2.4-1.64-1.55Zm-1.7 33.28.6-.99 1.42.72c.13.07.29.07.42 0l-.2.8-.28-.21a.48.48 0 0 0-.23-.09l-1.1-.13a.49.49 0 0 0-.34.09.48.48 0 0 0-.3-.2Zm6.55-8.13c.07-.2.27-.33.48-.32l.6.02a.48.48 0 0 1 .36.78l-1.16 1.56a.49.49 0 0 1-.85-.45l.57-1.59Z" clip-rule="evenodd"/><path fill="#F3F3F4" d="m176.2-14.38-24.35 3.1-34.6 3.22-2.88-.03.71 3.42L97.9-3.06l-2.46.24v.09l-.72.81-.33-.1.03-.67v-.08l-.93.04.08.1.41 2.38-1.77 2.04-.32 3.89-.03.67v.09l-2.73 4.8.37 3.48-2.52 3.63.72 3.41-3.16 2.67.16.18 1.87-.1 17-1.45 7.49-.72 4.25-.43h.17l-.08-.16 14.29-1.39 6.8-.58 13.62-1.67 2.55-.32 1.53-.1 7.24-1.08 1.8-.27 6.64-1 1.2-.13.02-.84.06-3.73 3.2-1.56.26-2.2 3.68-3.15 3.42-.71 7.18-5.99 2.77-3.78 2 .84 4.75-4.3 2.46-.16 2.37-4.4.93.13.06-3.64.47-1.25-1.36.2-4.88 1.17-5.8.95-14.58 2.4-1.53.19-.35.24Z"/><path fill="#fff" fill-rule="evenodd" d="M205.08-19.83c.1.13.14.31.07.47l-.44 1.18-.05 3.55a.49.49 0 0 1-.55.47l-.6-.08-2.22 4.1a.48.48 0 0 1-.4.26l-2.28.14-4.62 4.19a.49.49 0 0 1-.52.09l-1.64-.7-2.55 3.48a.45.45 0 0 1-.08.09l-7.18 5.98a.49.49 0 0 1-.22.1l-3.29.69-3.44 2.95-.24 2a.49.49 0 0 1-.27.38l-2.92 1.44-.06 3.43-.03.85a.49.49 0 0 1-.44.46l-1.18.12-6.64 1.01-1.78.27-7.25 1.07h-.04l-1.51.11-2.54.32-13.63 1.67h-.01l-6.8.58-13.85 1.35a.49.49 0 0 1-.42.21h-.14l-4.22.42-7.49.72-17 1.45h-.01l-1.87.1a.49.49 0 0 1-.38-.15l-.16-.18a.49.49 0 0 1 .04-.7l2.93-2.48-.65-3.13a.48.48 0 0 1 .07-.38L89 14.6l-.36-3.31c0-.1.01-.2.06-.3l2.68-4.7.02-.63v-.02l.32-3.89c.01-.1.05-.2.12-.27L93.46-.4l-.35-2.01a.49.49 0 0 1 .35-.8l.94-.05a.49.49 0 0 1 .5.4l.07-.08c.05-.2.21-.34.42-.36l2.47-.24L114.5-5.1l-.6-2.9a.49.49 0 0 1 .47-.58l2.86.03 34.57-3.22 24.22-3.09.26-.17a.48.48 0 0 1 .21-.08l1.52-.2 20.36-3.34 4.85-1.16h.05l1.36-.2c.17-.03.34.03.45.17ZM94.25-1.55l.21 1.22a.49.49 0 0 1-.11.4l-1.67 1.92-.31 3.72-.03.75c0 .07-.02.15-.06.22l-2.66 4.66.36 3.33a.48.48 0 0 1-.08.33l-2.4 3.45.67 3.21a.49.49 0 0 1-.16.47l-2.29 1.94.82-.04 16.98-1.45h.01l7.48-.72 4-.4a.5.5 0 0 1 .34-.2l14.29-1.38 6.8-.58 13.6-1.67 2.56-.32h.03l1.5-.11 7.23-1.07 1.79-.27 6.65-1 .02-.01.77-.08.02-.42.06-3.71c0-.19.1-.35.27-.43l2.96-1.45.22-1.93a.48.48 0 0 1 .17-.31l3.68-3.16a.49.49 0 0 1 .22-.1l3.3-.7 7.04-5.86 2.74-3.74a.49.49 0 0 1 .58-.16l1.72.72 4.5-4.09a.49.49 0 0 1 .3-.12l2.2-.14 2.25-4.16c.1-.18.29-.28.49-.25l.38.05.05-3.1.03-.16.19-.48-.53.08-4.85 1.16a.4.4 0 0 1-.04 0l-20.38 3.35h-.01l-1.42.19-.25.17a.48.48 0 0 1-.22.08l-24.35 3.1-.01.01-34.6 3.22a.5.5 0 0 1-.06 0l-2.27-.02.59 2.82a.49.49 0 0 1-.43.58L97.95-2.58l-2.2.22-.66.76a.49.49 0 0 1-.5.15l-.34-.1Z" clip-rule="evenodd"/><path fill="#F3F3F4" d="M227.81 192.38h-.16l.08.08.08-.08Zm-.75-.12v.09h.08l-.08-.09Zm-12.32.8-.08-.01v.08l.08-.08Zm24.23-4.39h-.08l.08.17v-.17Zm2.31-.5V188l-.17.25.17-.08Zm-.84-.2-.32-.36-.1.08.42.28Zm-.28.66-.97-1.3.55 1.12.42.18Zm8.23-4.67-.01.34.18-.16-.17-.18Zm1.22-.8.27-.41-.35.32.08.1Zm.29-.83h-.09v.08l.09-.08Zm-.7-1.55-.09-.1v.18l.08-.08Zm.67-2-.18.07.25.1-.07-.18Zm.34 0-.17-.17.08.25.09-.08Zm-.6-.19-.07-.09v.17l.08-.08Zm3.16-.47v-.08l-.18.33.18-.25Zm-3.56.2h-.17l.16.09v-.09Zm1.81-.94-.25-.01-.09.08.34-.07Zm-6.42-.34v-.17l-.09.17h.09Zm.77-.22-.25-.01.23.51.02-.5Zm-2.03 0 .01-.5-.42.06.4.44Zm-1.16-.89.41.44v-.17l-.4-.27Zm12.42 1-1.55.61.5.1 1.05-.71Zm-11.81-1.23-.51-.02v.17l.5-.15Zm13.53-3.7.1-.42.13-1.1-.23 1.52Zm.27-4.73-.3-.86-.2.33.5.53Zm-19.63 1.35-.18.24.43.1-.25-.34Zm-1.57-.83-.77.23.59.1.18-.33Zm-1.7.1v-.25l-.08.08.08.18Zm-1.77-.15-.52.32.66.36-.14-.68Zm2.36.18-.07-.26-.42-.1.5.36Zm-10.75-8.72-.52.24 1 .37-.48-.6Zm-1.93-2.78-.64-1.04.23.77.41.27Zm2.56 1.8-1.08-2.76-.84-.29 1.92 3.04Zm-3.25-3.52-.23-.69-.15-.43.38 1.12Zm-6.66-9.66-1.48-1.16.57.62.91.54Zm38.29-4.17-5.77-10.55-.34-.01 6.11 10.56Zm-42.07-18.15-.25-.1.25.18v-.08Zm-.48-.61-.1.08.09.09v-.17Zm-.56-.87v-.08l-.09.08h.09Zm.35-.32.25.17v-.17h-.25Zm.52-.32-.34.07h.08l.26-.07Zm-.59-.11-.24-.26.08.08.16.18Zm-.56-.95-.16-.01.25.1-.09-.1Zm.64-1h-.34l-.09.07.43-.06Zm.33.19-.4-.44.16.09.24.35Zm-3.07-3.76-.17-.1v.1h.17Zm-3.64-.14-.24-.35.07.42.17-.07Zm-30.68-4 2.61-1.84-2.86 1.75.25.1Zm5.23-3.86.27-.24-1.03.38.76-.14Zm-31.92-6.92-9.33 2.6 5.13-1.24 4.2-1.36Zm23.49-13.47-2.47.33-36.77 4.48 3.46 8.86.25.1-1.06 3.42 2.75-1.08 3.06-2.5 5.08.03 5.92-1.89 3.96.75-1 1.4 7.19 2.74 6.14 3.29 1.3 3.43 4.7-.83 11.34-8.53 4.06.33 16.08 13.16 3.41-.54 3.37 4.87.38 7.54-1.28 4.7.41 2.38 2.73 6.03-1.17-4.7 3.8.06.22 3.4-2.24 5.16 6.64 9.9 2.62.2-2.08-3.05 2.7.44 1.64-.95-.9 5.39 3.53 3.01 2.2 6.69 3.22 2.16 4.18 1.26 5.55 7.67 2.98 1.72-4.07.1 1.78 2.18 6.77-1.93 3.37-1.73 3.46-10.53-.87-16.63-.27-1.7-7.6-13.84-6.54-10.07-3.58-8.18 3.19 2.91.7-.48 1.16 7.07 3.51 5.47-3.36-7.24.3-3.37-10.39-13.7-2.46-4.24-3.19-7.15-2.13-6-1.78-2.2-.32-2.72-.08-.08-5.82-.57-2.36 1.69-1.52 6.45-1.07-3.09-40.12 3.43-2.7-4.6.09-.08Z"/><path fill="#fff" d="M188.85 11.97c.11.15.13.35.03.52l-2.46 4.4.27 1.28 7.35 3.41a.5.5 0 0 1 .19.16l3.75 5.19 15.7 14.25 3.68 1.9a.4.4 0 0 1 .18.16l6.53 10.12 4.73 4.77a.49.49 0 0 1 .22.79l-2.8 3.18.9.9c.2.2.2.5 0 .7l-1.06 1.07c.06.07.1.15.12.25l.26 1.96a.48.48 0 0 1-.88.34l-.56-.78a.41.41 0 0 1-.04-.06l-.86 2.22.05.39.28-.88a.48.48 0 0 1 .94.15l-.01 2.54a.48.48 0 0 1-.72.42l-.23-.13.13 1.05a.48.48 0 0 1-.07.31l-1.1 1.78.14 9a.48.48 0 0 1-.53.5l-5.64-.55-2.06 1.47-1.48 6.28a.48.48 0 0 1-.93.05l-.94-2.73-39.75 3.39a.49.49 0 0 1-.46-.24l-2.7-4.59a.49.49 0 0 1-.03-.42l-2-4.18a.49.49 0 0 1-.06-.22l.07-6.06-1.67-3.34a.48.48 0 0 1-.04-.3l1.19-6.56a.4.4 0 0 1 .13-.25l1.34-1.39-5.66-11.09a.54.54 0 0 1-.04-.08l-9.97-34.9-.06-.13a.48.48 0 0 1 .4-.69l1.52-.1 7.22-1.07 1.79-.27 6.65-1 .02-.01 1.17-.12 1.1-.21 11.94-1.99 3.23-.55 1.1-.2c.2-.04.38.03.5.19Z"/><path fill="#F3F3F4" d="m224.87 70.9.02-2.55-.68 2.18.66.36Zm1.09-3.86-.27-1.96-.3 1.18.57.78Zm-37.5-54.79-1.11.21-3.24.55L172.17 15l-1.1.2-1.2.13-6.65 1-1.79.28-7.24 1.07-1.53.1.08.18 9.98 34.92 5.82 11.4-1.59 1.63-1.19 6.56 1.73 3.45-.07 6.18 2.11 4.4v.08l-.09.08 2.7 4.6 40.12-3.43 1.07 3.1 1.52-6.47 2.36-1.68 5.82.57-.15-9.15 1.18-1.9-.45-3.66 1.32-3.42 1.85-1.87-1.22-1.23 3.1-3.52h-.09l-4.88-4.94-6.55-10.16-3.74-1.92-15.79-14.33-3.77-5.23-7.58-3.5-.35-1.71 2.55-4.56Z"/><path fill="#F3F3F4" fill-rule="evenodd" d="M21.4 0H8a8 8 0 0 0-8 8v40.8l.32-.25 2.66-.9 2.1.58 8.04-1.97 4.16 1.94 3.7 2.6 3.28.72h.09l.06-3.8-.03-23.02.07-3.8-2.63-17.2-.42-2.4V0Z" clip-rule="evenodd"/><g filter="url(#b)"><path fill="#B7BCBF" d="M250 131.25c0 6.75-8 13.75-8 13.75s-8-7-8-13.75a8.13 8.13 0 0 1 8-8.25c4.42 0 8 3.7 8 8.25Z"/></g><g filter="url(#c)"><path fill="#fff" fill-rule="evenodd" d="M245.01 139.9c1.97-2.56 3.74-5.71 3.74-8.65 0-3.9-3.06-7-6.75-7-3.7 0-6.75 3.1-6.75 7 0 2.94 1.77 6.1 3.74 8.64a33.89 33.89 0 0 0 3.01 3.4l.36-.37c.72-.73 1.69-1.78 2.65-3.03ZM242 145s8-7 8-13.75a8.13 8.13 0 0 0-8-8.25c-4.42 0-8 3.7-8 8.25 0 6.75 8 13.75 8 13.75Z" clip-rule="evenodd"/></g><circle cx="242" cy="131" r="2.5" fill="#fff"/><g filter="url(#d)"><path fill="#B7BCBF" d="M147 60.25C147 67 139 74 139 74s-8-7-8-13.75a8.13 8.13 0 0 1 8-8.25c4.42 0 8 3.7 8 8.25Z"/></g><g filter="url(#e)"><path fill="#fff" fill-rule="evenodd" d="M142.01 68.9c1.97-2.56 3.74-5.71 3.74-8.65 0-3.9-3.06-7-6.75-7-3.7 0-6.75 3.1-6.75 7 0 2.94 1.77 6.1 3.74 8.64a33.87 33.87 0 0 0 3.01 3.4 34.85 34.85 0 0 0 3.01-3.4ZM139 74s8-7 8-13.75a8.13 8.13 0 0 0-8-8.25c-4.42 0-8 3.7-8 8.25C131 67 139 74 139 74Z" clip-rule="evenodd"/></g><circle cx="139" cy="60" r="2.5" fill="#fff"/><g filter="url(#f)"><path fill="#B7BCBF" d="M177 31.25C177 38 169 45 169 45s-8-7-8-13.75a8.13 8.13 0 0 1 8-8.25c4.42 0 8 3.7 8 8.25Z"/></g><g filter="url(#g)"><path fill="#fff" fill-rule="evenodd" d="M172.01 39.9c1.97-2.56 3.74-5.71 3.74-8.65 0-3.9-3.06-7-6.75-7-3.7 0-6.75 3.1-6.75 7 0 2.94 1.77 6.1 3.74 8.64a33.87 33.87 0 0 0 3.01 3.4 34.85 34.85 0 0 0 3.01-3.4ZM169 45s8-7 8-13.75a8.13 8.13 0 0 0-8-8.25c-4.42 0-8 3.7-8 8.25C161 38 169 45 169 45Z" clip-rule="evenodd"/></g><circle cx="169" cy="31" r="2.5" fill="#fff"/><g filter="url(#h)"><path fill="#B7BCBF" d="M29 88.25C29 95 21 102 21 102s-8-7-8-13.75A8.13 8.13 0 0 1 21 80c4.42 0 8 3.7 8 8.25Z"/></g><g filter="url(#i)"><path fill="#fff" fill-rule="evenodd" d="M24.01 96.9c1.97-2.56 3.74-5.71 3.74-8.65 0-3.9-3.06-7-6.75-7-3.7 0-6.75 3.1-6.75 7 0 2.94 1.77 6.1 3.74 8.64a33.85 33.85 0 0 0 3.01 3.4l.36-.37c.72-.73 1.69-1.78 2.65-3.03ZM21 102s8-7 8-13.75A8.13 8.13 0 0 0 21 80c-4.42 0-8 3.7-8 8.25C13 95 21 102 21 102Z" clip-rule="evenodd"/></g><path fill="#fff" d="M23.5 88a2.5 2.5 0 1 1-5 0 2.5 2.5 0 0 1 5 0Z"/><g filter="url(#j)"><path fill="#B7BCBF" d="M131 31.25C131 38 123 45 123 45s-8-7-8-13.75a8.13 8.13 0 0 1 8-8.25c4.42 0 8 3.7 8 8.25Z"/></g><g filter="url(#k)"><path fill="#fff" fill-rule="evenodd" d="M126.01 39.9c1.97-2.56 3.74-5.71 3.74-8.65 0-3.9-3.06-7-6.75-7-3.7 0-6.75 3.1-6.75 7 0 2.94 1.77 6.1 3.74 8.64a33.87 33.87 0 0 0 3.01 3.4 34.85 34.85 0 0 0 3.01-3.4ZM123 45s8-7 8-13.75a8.13 8.13 0 0 0-8-8.25c-4.42 0-8 3.7-8 8.25C115 38 123 45 123 45Z" clip-rule="evenodd"/></g><circle cx="123" cy="31" r="2.5" fill="#fff"/><g filter="url(#l)"><path fill="#B7BCBF" d="M202 84.25C202 91 194 98 194 98s-8-7-8-13.75a8.13 8.13 0 0 1 8-8.25c4.42 0 8 3.7 8 8.25Z"/></g><g filter="url(#m)"><path fill="#fff" fill-rule="evenodd" d="M197.01 92.9c1.97-2.56 3.74-5.71 3.74-8.65 0-3.9-3.06-7-6.75-7-3.7 0-6.75 3.1-6.75 7 0 2.94 1.77 6.1 3.74 8.64a33.87 33.87 0 0 0 3.01 3.4 34.85 34.85 0 0 0 3.01-3.4ZM194 98s8-7 8-13.75a8.13 8.13 0 0 0-8-8.25c-4.42 0-8 3.7-8 8.25C186 91 194 98 194 98Z" clip-rule="evenodd"/></g><circle cx="194" cy="84" r="2.5" fill="#fff"/><path fill="#DCDFE0" fill-rule="evenodd" d="M312 1H8a7 7 0 0 0-7 7v184a7 7 0 0 0 7 7h304a7 7 0 0 0 7-7V8a7 7 0 0 0-7-7ZM8 0a8 8 0 0 0-8 8v184a8 8 0 0 0 8 8h304a8 8 0 0 0 8-8V8a8 8 0 0 0-8-8H8Z" clip-rule="evenodd"/></g><defs><filter id="b" width="24" height="30" x="230" y="122" color-interpolation-filters="sRGB" filterUnits="userSpaceOnUse"><feFlood flood-opacity="0" result="BackgroundImageFix"/><feColorMatrix in="SourceAlpha" result="hardAlpha" values="0 0 0 0 0 0 0 0 0 0 0 0 0 0 0 0 0 0 127 0"/><feOffset dy="3"/><feGaussianBlur stdDeviation="2"/><feComposite in2="hardAlpha" operator="out"/><feColorMatrix values="0 0 0 0 0 0 0 0 0 0 0 0 0 0 0 0 0 0 0.1 0"/><feBlend in2="BackgroundImageFix" result="effect1_dropShadow_10313_19745"/><feBlend in="SourceGraphic" in2="effect1_dropShadow_10313_19745" result="shape"/></filter><filter id="c" width="24" height="30" x="230" y="122" color-interpolation-filters="sRGB" filterUnits="userSpaceOnUse"><feFlood flood-opacity="0" result="BackgroundImageFix"/><feColorMatrix in="SourceAlpha" result="hardAlpha" values="0 0 0 0 0 0 0 0 0 0 0 0 0 0 0 0 0 0 127 0"/><feOffset dy="3"/><feGaussianBlur stdDeviation="2"/><feComposite in2="hardAlpha" operator="out"/><feColorMatrix values="0 0 0 0 0 0 0 0 0 0 0 0 0 0 0 0 0 0 0.1 0"/><feBlend in2="BackgroundImageFix" result="effect1_dropShadow_10313_19745"/><feBlend in="SourceGraphic" in2="effect1_dropShadow_10313_19745" result="shape"/></filter><filter id="d" width="24" height="30" x="127" y="51" color-interpolation-filters="sRGB" filterUnits="userSpaceOnUse"><feFlood flood-opacity="0" result="BackgroundImageFix"/><feColorMatrix in="SourceAlpha" result="hardAlpha" values="0 0 0 0 0 0 0 0 0 0 0 0 0 0 0 0 0 0 127 0"/><feOffset dy="3"/><feGaussianBlur stdDeviation="2"/><feComposite in2="hardAlpha" operator="out"/><feColorMatrix values="0 0 0 0 0 0 0 0 0 0 0 0 0 0 0 0 0 0 0.1 0"/><feBlend in2="BackgroundImageFix" result="effect1_dropShadow_10313_19745"/><feBlend in="SourceGraphic" in2="effect1_dropShadow_10313_19745" result="shape"/></filter><filter id="e" width="24" height="30" x="127" y="51" color-interpolation-filters="sRGB" filterUnits="userSpaceOnUse"><feFlood flood-opacity="0" result="BackgroundImageFix"/><feColorMatrix in="SourceAlpha" result="hardAlpha" values="0 0 0 0 0 0 0 0 0 0 0 0 0 0 0 0 0 0 127 0"/><feOffset dy="3"/><feGaussianBlur stdDeviation="2"/><feComposite in2="hardAlpha" operator="out"/><feColorMatrix values="0 0 0 0 0 0 0 0 0 0 0 0 0 0 0 0 0 0 0.1 0"/><feBlend in2="BackgroundImageFix" result="effect1_dropShadow_10313_19745"/><feBlend in="SourceGraphic" in2="effect1_dropShadow_10313_19745" result="shape"/></filter><filter id="f" width="24" height="30" x="157" y="22" color-interpolation-filters="sRGB" filterUnits="userSpaceOnUse"><feFlood flood-opacity="0" result="BackgroundImageFix"/><feColorMatrix in="SourceAlpha" result="hardAlpha" values="0 0 0 0 0 0 0 0 0 0 0 0 0 0 0 0 0 0 127 0"/><feOffset dy="3"/><feGaussianBlur stdDeviation="2"/><feComposite in2="hardAlpha" operator="out"/><feColorMatrix values="0 0 0 0 0 0 0 0 0 0 0 0 0 0 0 0 0 0 0.1 0"/><feBlend in2="BackgroundImageFix" result="effect1_dropShadow_10313_19745"/><feBlend in="SourceGraphic" in2="effect1_dropShadow_10313_19745" result="shape"/></filter><filter id="g" width="24" height="30" x="157" y="22" color-interpolation-filters="sRGB" filterUnits="userSpaceOnUse"><feFlood flood-opacity="0" result="BackgroundImageFix"/><feColorMatrix in="SourceAlpha" result="hardAlpha" values="0 0 0 0 0 0 0 0 0 0 0 0 0 0 0 0 0 0 127 0"/><feOffset dy="3"/><feGaussianBlur stdDeviation="2"/><feComposite in2="hardAlpha" operator="out"/><feColorMatrix values="0 0 0 0 0 0 0 0 0 0 0 0 0 0 0 0 0 0 0.1 0"/><feBlend in2="BackgroundImageFix" result="effect1_dropShadow_10313_19745"/><feBlend in="SourceGraphic" in2="effect1_dropShadow_10313_19745" result="shape"/></filter><filter id="h" width="24" height="30" x="9" y="79" color-interpolation-filters="sRGB" filterUnits="userSpaceOnUse"><feFlood flood-opacity="0" result="BackgroundImageFix"/><feColorMatrix in="SourceAlpha" result="hardAlpha" values="0 0 0 0 0 0 0 0 0 0 0 0 0 0 0 0 0 0 127 0"/><feOffset dy="3"/><feGaussianBlur stdDeviation="2"/><feComposite in2="hardAlpha" operator="out"/><feColorMatrix values="0 0 0 0 0 0 0 0 0 0 0 0 0 0 0 0 0 0 0.1 0"/><feBlend in2="BackgroundImageFix" result="effect1_dropShadow_10313_19745"/><feBlend in="SourceGraphic" in2="effect1_dropShadow_10313_19745" result="shape"/></filter><filter id="i" width="24" height="30" x="9" y="79" color-interpolation-filters="sRGB" filterUnits="userSpaceOnUse"><feFlood flood-opacity="0" result="BackgroundImageFix"/><feColorMatrix in="SourceAlpha" result="hardAlpha" values="0 0 0 0 0 0 0 0 0 0 0 0 0 0 0 0 0 0 127 0"/><feOffset dy="3"/><feGaussianBlur stdDeviation="2"/><feComposite in2="hardAlpha" operator="out"/><feColorMatrix values="0 0 0 0 0 0 0 0 0 0 0 0 0 0 0 0 0 0 0.1 0"/><feBlend in2="BackgroundImageFix" result="effect1_dropShadow_10313_19745"/><feBlend in="SourceGraphic" in2="effect1_dropShadow_10313_19745" result="shape"/></filter><filter id="j" width="24" height="30" x="111" y="22" color-interpolation-filters="sRGB" filterUnits="userSpaceOnUse"><feFlood flood-opacity="0" result="BackgroundImageFix"/><feColorMatrix in="SourceAlpha" result="hardAlpha" values="0 0 0 0 0 0 0 0 0 0 0 0 0 0 0 0 0 0 127 0"/><feOffset dy="3"/><feGaussianBlur stdDeviation="2"/><feComposite in2="hardAlpha" operator="out"/><feColorMatrix values="0 0 0 0 0 0 0 0 0 0 0 0 0 0 0 0 0 0 0.1 0"/><feBlend in2="BackgroundImageFix" result="effect1_dropShadow_10313_19745"/><feBlend in="SourceGraphic" in2="effect1_dropShadow_10313_19745" result="shape"/></filter><filter id="k" width="24" height="30" x="111" y="22" color-interpolation-filters="sRGB" filterUnits="userSpaceOnUse"><feFlood flood-opacity="0" result="BackgroundImageFix"/><feColorMatrix in="SourceAlpha" result="hardAlpha" values="0 0 0 0 0 0 0 0 0 0 0 0 0 0 0 0 0 0 127 0"/><feOffset dy="3"/><feGaussianBlur stdDeviation="2"/><feComposite in2="hardAlpha" operator="out"/><feColorMatrix values="0 0 0 0 0 0 0 0 0 0 0 0 0 0 0 0 0 0 0.1 0"/><feBlend in2="BackgroundImageFix" result="effect1_dropShadow_10313_19745"/><feBlend in="SourceGraphic" in2="effect1_dropShadow_10313_19745" result="shape"/></filter><filter id="l" width="24" height="30" x="182" y="75" color-interpolation-filters="sRGB" filterUnits="userSpaceOnUse"><feFlood flood-opacity="0" result="BackgroundImageFix"/><feColorMatrix in="SourceAlpha" result="hardAlpha" values="0 0 0 0 0 0 0 0 0 0 0 0 0 0 0 0 0 0 127 0"/><feOffset dy="3"/><feGaussianBlur stdDeviation="2"/><feComposite in2="hardAlpha" operator="out"/><feColorMatrix values="0 0 0 0 0 0 0 0 0 0 0 0 0 0 0 0 0 0 0.1 0"/><feBlend in2="BackgroundImageFix" result="effect1_dropShadow_10313_19745"/><feBlend in="SourceGraphic" in2="effect1_dropShadow_10313_19745" result="shape"/></filter><filter id="m" width="24" height="30" x="182" y="75" color-interpolation-filters="sRGB" filterUnits="userSpaceOnUse"><feFlood flood-opacity="0" result="BackgroundImageFix"/><feColorMatrix in="SourceAlpha" result="hardAlpha" values="0 0 0 0 0 0 0 0 0 0 0 0 0 0 0 0 0 0 127 0"/><feOffset dy="3"/><feGaussianBlur stdDeviation="2"/><feComposite in2="hardAlpha" operator="out"/><feColorMatrix values="0 0 0 0 0 0 0 0 0 0 0 0 0 0 0 0 0 0 0.1 0"/><feBlend in2="BackgroundImageFix" result="effect1_dropShadow_10313_19745"/><feBlend in="SourceGraphic" in2="effect1_dropShadow_10313_19745" result="shape"/></filter><clipPath id="a"><path fill="#fff" d="M0 0h320v200H0z"/></clipPath></defs></svg>