<svg width="320" height="200" viewBox="0 0 320 200" fill="none" xmlns="http://www.w3.org/2000/svg">
<g clip-path="url(#clip0_2220_3538)">
<mask id="mask0_2220_3538" style="mask-type:luminance" maskUnits="userSpaceOnUse" x="0" y="0" width="320" height="200">
<path d="M0 0H320V200H0V0Z" fill="white"/>
</mask>
<g mask="url(#mask0_2220_3538)">
<path fill-rule="evenodd" clip-rule="evenodd" d="M53.9005 79.86V72.5H53.0005V79.86H53.9005ZM49.7005 77.69C49.9905 77.63 50.3405 77.59 50.7505 77.59V78.64C50.5634 78.8378 50.3476 79.0063 50.1105 79.14C49.7623 79.3193 49.3618 79.3689 48.9805 79.28C48.8859 79.2499 48.7977 79.2024 48.7205 79.14C48.6481 79.0763 48.5902 78.9979 48.5505 78.91C48.5023 78.7997 48.4785 78.6803 48.4805 78.56C48.4805 78.42 48.5205 78.29 48.6005 78.18C48.7062 78.0477 48.8439 77.9445 49.0005 77.88C49.1805 77.8 49.4105 77.74 49.7005 77.68V77.69ZM48.7805 74.91C48.4455 75.0518 48.1402 75.2553 47.8805 75.51L48.0305 75.8C48.0605 75.85 48.1005 75.89 48.1505 75.92C48.1905 75.95 48.2405 75.97 48.3005 75.97C48.3836 75.9679 48.464 75.9399 48.5305 75.89L48.8105 75.7C49.0874 75.5128 49.4165 75.4183 49.7505 75.43C50.0805 75.43 50.3305 75.53 50.4905 75.73C50.6605 75.93 50.7505 76.23 50.7505 76.63V77.02C50.1705 77.03 49.6905 77.09 49.2905 77.18C48.8905 77.27 48.5705 77.38 48.3305 77.53C48.0805 77.67 47.9005 77.83 47.7905 78.03C47.686 78.2018 47.6307 78.3989 47.6305 78.6C47.6305 78.83 47.6605 79.03 47.7305 79.2C47.8034 79.3592 47.91 79.5006 48.043 79.6146C48.1759 79.7285 48.332 79.8123 48.5005 79.86C48.8288 79.9461 49.1721 79.9585 49.5058 79.8963C49.8395 79.834 50.1553 79.6987 50.4305 79.5C50.5505 79.4 50.6805 79.3 50.8105 79.17L50.9105 79.65C50.9405 79.74 50.9805 79.79 51.0305 79.82C51.0916 79.8539 51.1606 79.8711 51.2305 79.87H51.6205V76.62C51.6205 76.34 51.5805 76.08 51.5105 75.84C51.4452 75.6164 51.3304 75.4104 51.1746 75.2373C51.0188 75.0641 50.826 74.9283 50.6105 74.84C50.011 74.6543 49.3665 74.6755 48.7805 74.9V74.91ZM43.2705 75.54C43.4836 75.3019 43.7334 75.0993 44.0105 74.94C44.2687 74.808 44.5521 74.7326 44.8418 74.7188C45.1315 74.705 45.4208 74.7531 45.6905 74.86C45.8938 74.956 46.0745 75.0938 46.221 75.2644C46.3674 75.435 46.4763 75.6345 46.5405 75.85C46.6105 76.09 46.6405 76.35 46.6405 76.64V79.86H45.7505V76.64C45.7505 76.26 45.6705 75.96 45.4905 75.75C45.3205 75.54 45.0505 75.43 44.6905 75.43C44.4305 75.43 44.1905 75.49 43.9505 75.62C43.7305 75.75 43.5205 75.92 43.3205 76.14V79.86H42.4205V74.8H42.9605C43.0905 74.8 43.1605 74.86 43.2005 74.99L43.2705 75.54ZM39.8905 74.9C39.5905 74.78 39.2605 74.72 38.8905 74.72C38.5205 74.72 38.1805 74.78 37.8805 74.91C37.5859 75.0269 37.321 75.2077 37.1048 75.4394C36.8886 75.6712 36.7266 75.948 36.6305 76.25C36.5175 76.5986 36.4635 76.9636 36.4705 77.33C36.4705 77.73 36.5205 78.09 36.6305 78.41C36.7505 78.73 36.9105 79.01 37.1205 79.23C37.3305 79.46 37.5805 79.63 37.8805 79.75C38.1805 79.88 38.5205 79.94 38.8905 79.94C39.2605 79.94 39.5905 79.88 39.8905 79.75C40.1832 79.6319 40.4462 79.4505 40.6605 79.2189C40.8749 78.9872 41.0354 78.711 41.1305 78.41C41.369 77.7098 41.369 76.9503 41.1305 76.25C41.0367 75.9472 40.8768 75.669 40.6623 75.4355C40.4479 75.202 40.1842 75.0191 39.8905 74.9ZM40.0105 78.74C39.7605 79.07 39.3905 79.24 38.8905 79.24C38.3905 79.24 38.0005 79.07 37.7505 78.74C37.5105 78.4 37.3805 77.94 37.3805 77.34C37.3805 77.04 37.4105 76.77 37.4805 76.53C37.5405 76.29 37.6305 76.09 37.7505 75.93C37.8805 75.76 38.0405 75.63 38.2205 75.55C38.4205 75.46 38.6405 75.42 38.8905 75.42C39.3905 75.42 39.7605 75.59 40.0105 75.92C40.2605 76.26 40.3805 76.73 40.3805 77.33C40.3805 77.93 40.2605 78.4 40.0105 78.74ZM35.3805 75.64C35.3616 75.673 35.3337 75.6999 35.3 75.7177C35.2664 75.7354 35.2284 75.7431 35.1905 75.74C35.1305 75.7382 35.0719 75.721 35.0205 75.69C34.8429 75.5876 34.6553 75.5038 34.4605 75.44C34.1831 75.358 33.8879 75.358 33.6105 75.44C33.4982 75.474 33.3932 75.5282 33.3005 75.6C33.2184 75.6617 33.1502 75.7401 33.1005 75.83C33.0577 75.9205 33.0371 76.0199 33.0405 76.12C33.0405 76.25 33.0805 76.36 33.1405 76.44C33.2305 76.54 33.3305 76.61 33.4405 76.67C33.5705 76.73 33.7105 76.79 33.8705 76.84C34.1953 76.9354 34.5156 77.0455 34.8305 77.17C34.9905 77.24 35.1305 77.33 35.2505 77.42C35.3843 77.5276 35.4911 77.665 35.5623 77.8213C35.6335 77.9776 35.6671 78.1484 35.6605 78.32C35.6605 78.55 35.6205 78.77 35.5405 78.97C35.4605 79.17 35.3405 79.33 35.1705 79.48C34.9943 79.6309 34.7905 79.7464 34.5705 79.82C34.3305 79.9 34.0605 79.95 33.7505 79.95C33.1305 79.966 32.5273 79.7483 32.0605 79.34L32.2605 78.99C32.2854 78.9492 32.3196 78.9149 32.3605 78.89C32.4034 78.8671 32.4519 78.8567 32.5005 78.86C32.5605 78.86 32.6305 78.88 32.7005 78.92L32.9305 79.08C33.0305 79.14 33.1505 79.18 33.2805 79.24C33.4205 79.28 33.5905 79.31 33.7905 79.31C33.9705 79.31 34.1205 79.28 34.2505 79.24C34.3684 79.2026 34.4773 79.1413 34.5705 79.06C34.6524 78.9851 34.7178 78.8939 34.7625 78.7924C34.8073 78.6908 34.8304 78.581 34.8305 78.47C34.8357 78.3424 34.7929 78.2175 34.7105 78.12C34.6283 78.0225 34.5259 77.944 34.4105 77.89C34.2768 77.8188 34.136 77.7618 33.9905 77.72L33.5105 77.56C33.345 77.5098 33.1815 77.4531 33.0205 77.39C32.8705 77.31 32.7205 77.23 32.6005 77.12C32.4757 77.015 32.3736 76.8857 32.3005 76.74C32.227 76.5663 32.1929 76.3785 32.2005 76.19C32.1984 75.9968 32.2385 75.8054 32.318 75.6293C32.3974 75.4531 32.5143 75.2964 32.6605 75.17C32.8205 75.03 33.0105 74.92 33.2305 74.84C33.4505 74.76 33.7105 74.72 33.9905 74.72C34.5751 74.7138 35.1414 74.9239 35.5805 75.31L35.3805 75.64ZM30.2505 75C30.0205 75.2 29.8205 75.47 29.6605 75.81L29.6005 75.04C29.5947 74.9715 29.5706 74.9058 29.5305 74.85C29.4905 74.82 29.4305 74.8 29.3305 74.8H28.8205V79.86H29.7105V76.66C29.7705 76.49 29.8405 76.34 29.9205 76.21C30.0575 75.9656 30.2672 75.7699 30.5205 75.65C30.7592 75.5709 31.0146 75.5571 31.2605 75.61C31.3505 75.64 31.4105 75.64 31.4605 75.64C31.5405 75.64 31.5905 75.6 31.6105 75.52L31.6805 74.86C31.5978 74.8075 31.5063 74.7702 31.4105 74.75C31.3124 74.725 31.2117 74.7116 31.1105 74.71C30.7705 74.71 30.4805 74.81 30.2505 75.01V75ZM26.9205 76.78C26.9205 76.58 26.8905 76.38 26.8305 76.22C26.7513 75.9671 26.5906 75.7476 26.3735 75.5957C26.1564 75.4437 25.8952 75.3679 25.6305 75.38C25.2005 75.38 24.8605 75.5 24.6105 75.75C24.3705 76 24.2105 76.34 24.1505 76.78H26.9205ZM27.6405 79.16C27.5405 79.29 27.4005 79.41 27.2405 79.5C26.9301 79.7044 26.5784 79.8375 26.2105 79.89C26.0288 79.9216 25.8449 79.9383 25.6605 79.94C25.3105 79.94 24.9805 79.88 24.6905 79.76C24.3912 79.6388 24.1223 79.4533 23.9028 79.2165C23.6833 78.9797 23.5187 78.6976 23.4205 78.39C23.185 77.6938 23.1779 76.9405 23.4005 76.24C23.5105 75.94 23.6705 75.67 23.8705 75.44C24.1981 75.1071 24.6152 74.8761 25.0712 74.775C25.5272 74.6738 26.0028 74.7068 26.4405 74.87C26.7022 74.9669 26.9388 75.1215 27.1327 75.3223C27.3266 75.5231 27.4728 75.765 27.5605 76.03C27.6605 76.31 27.7205 76.63 27.7205 76.98C27.7205 77.12 27.7105 77.22 27.6805 77.26C27.6505 77.31 27.5905 77.33 27.5105 77.33H24.1205C24.1305 77.66 24.1805 77.93 24.2505 78.17C24.3305 78.41 24.4505 78.61 24.5805 78.77C24.7205 78.92 24.8805 79.04 25.0805 79.12C25.2805 79.2 25.4905 79.23 25.7305 79.23C26.0793 79.2414 26.4248 79.1585 26.7305 78.99L27.0205 78.83C27.0786 78.7855 27.1477 78.7579 27.2205 78.75C27.2532 78.7484 27.2858 78.7548 27.3154 78.7688C27.3451 78.7827 27.3709 78.8038 27.3905 78.83L27.6405 79.16ZM20.8405 76.31C20.6405 76.38 20.3905 76.41 20.1105 76.41H18.9705V73.47H20.1105C20.6905 73.47 21.1105 73.59 21.4005 73.85C21.6805 74.11 21.8205 74.46 21.8205 74.92C21.8205 75.14 21.7805 75.34 21.7105 75.52C21.6405 75.71 21.5305 75.87 21.3805 76C21.2251 76.139 21.0406 76.2415 20.8405 76.3V76.31ZM21.3005 72.86C20.9605 72.76 20.5705 72.7 20.1105 72.7H18.0005V79.86H18.9605V77.2H20.1105C20.5505 77.2 20.9305 77.14 21.2605 77.03C21.5905 76.92 21.8705 76.76 22.0905 76.56C22.3205 76.36 22.4905 76.12 22.6105 75.84C22.8521 75.2546 22.8557 74.598 22.6205 74.01C22.5205 73.74 22.3505 73.51 22.1305 73.31C21.9105 73.12 21.6305 72.97 21.3005 72.87V72.86ZM34.9905 98.67V103.74H34.1005V98.68H34.9905V98.67ZM35.1805 97.08C35.1805 97.18 35.1605 97.25 35.1205 97.33C35.0862 97.4046 35.0388 97.4723 34.9805 97.53C34.9236 97.5893 34.8556 97.6368 34.7805 97.67C34.7034 97.7045 34.6199 97.7223 34.5355 97.7223C34.451 97.7223 34.3675 97.7045 34.2905 97.67C34.1422 97.6014 34.0246 97.4803 33.9605 97.33C33.9261 97.2512 33.909 97.166 33.9105 97.08C33.9104 96.9974 33.9275 96.9157 33.9605 96.84C33.9907 96.7657 34.0348 96.6978 34.0905 96.64C34.1753 96.5491 34.2863 96.4867 34.4082 96.4617C34.53 96.4366 34.6566 96.45 34.7705 96.5C34.8605 96.53 34.9305 96.58 34.9805 96.64C35.0405 96.69 35.0905 96.76 35.1205 96.84C35.1605 96.92 35.1805 97 35.1805 97.08ZM37.6405 99.08C37.5205 99.18 37.4005 99.28 37.2905 99.41L37.2205 98.86C37.1905 98.74 37.1205 98.67 36.9905 98.67H36.4505V103.74H37.3505V100.01C37.5505 99.79 37.7505 99.62 37.9805 99.49C38.2105 99.37 38.4505 99.31 38.7205 99.31C39.0705 99.31 39.3405 99.41 39.5205 99.62C39.6905 99.83 39.7805 100.13 39.7805 100.52V103.74H40.6805V100.52C40.6805 100.22 40.6405 99.97 40.5605 99.73C40.4961 99.5102 40.3872 99.3059 40.2405 99.13C40.1005 98.96 39.9205 98.83 39.7105 98.73C39.3683 98.5959 38.9963 98.5566 38.6337 98.6165C38.2711 98.6763 37.9314 98.833 37.6505 99.07L37.6405 99.08ZM45.4205 100.66C45.4205 100.45 45.3905 100.26 45.3205 100.09C45.2413 99.8371 45.0806 99.6176 44.8635 99.4657C44.6464 99.3137 44.3852 99.2379 44.1205 99.25C43.7005 99.25 43.3605 99.38 43.1105 99.63C42.8605 99.87 42.7105 100.22 42.6505 100.66H45.4205ZM46.1405 103.03C46.0263 103.167 45.8913 103.285 45.7405 103.38C45.262 103.671 44.7105 103.821 44.1505 103.81C43.8005 103.81 43.4805 103.75 43.1805 103.64C42.882 103.517 42.6144 103.329 42.3967 103.09C42.1789 102.852 42.0163 102.568 41.9205 102.26C41.685 101.564 41.6779 100.811 41.9005 100.11C42.0005 99.81 42.1605 99.54 42.3705 99.32C42.5705 99.09 42.8205 98.92 43.1105 98.79C43.6917 98.5376 44.3488 98.5232 44.9405 98.75C45.1974 98.8523 45.4299 99.0076 45.6229 99.2057C45.8159 99.4039 45.965 99.6404 46.0605 99.9C46.1605 100.18 46.2205 100.5 46.2205 100.86C46.2205 101 46.2005 101.09 46.1705 101.14C46.1405 101.19 46.0905 101.21 46.0005 101.21H42.6205C42.6205 101.53 42.6705 101.81 42.7505 102.05C42.8305 102.28 42.9405 102.48 43.0805 102.64C43.2205 102.8 43.3805 102.92 43.5805 103C43.7805 103.07 43.9805 103.11 44.2305 103.11C44.5802 103.118 44.9258 103.032 45.2305 102.86C45.3405 102.81 45.4305 102.75 45.5105 102.7C45.5686 102.656 45.6377 102.628 45.7105 102.62C45.7448 102.617 45.7795 102.622 45.811 102.636C45.8425 102.65 45.8699 102.672 45.8905 102.7L46.1405 103.03ZM50.0805 99.62C50.1177 99.6203 50.1543 99.6101 50.1861 99.5907C50.218 99.5712 50.2437 99.5433 50.2605 99.51L50.4605 99.18C50.0214 98.7939 49.4551 98.5838 48.8705 98.59C48.5905 98.59 48.3305 98.64 48.1105 98.72C47.9051 98.79 47.715 98.8986 47.5505 99.04C47.403 99.1659 47.2846 99.3223 47.2035 99.4984C47.1223 99.6745 47.0804 99.8661 47.0805 100.06C47.0805 100.28 47.1105 100.46 47.1805 100.62C47.2605 100.77 47.3605 100.9 47.4805 101C47.6105 101.1 47.7505 101.19 47.9105 101.26L48.3905 101.44L48.8805 101.6C49.1513 101.668 49.3995 101.806 49.6005 102C49.6705 102.09 49.7105 102.2 49.7105 102.34C49.7117 102.45 49.6901 102.56 49.6471 102.661C49.6041 102.763 49.5406 102.854 49.4605 102.93C49.363 103.011 49.251 103.072 49.1305 103.11C49.0005 103.16 48.8505 103.18 48.6805 103.18C48.3778 103.187 48.0794 103.107 47.8205 102.95C47.7205 102.9 47.6405 102.85 47.5805 102.8C47.5233 102.755 47.453 102.731 47.3805 102.73C47.3305 102.73 47.2805 102.74 47.2505 102.76C47.2096 102.785 47.1754 102.819 47.1505 102.86L46.9505 103.2C47.4137 103.609 48.0128 103.83 48.6305 103.82C49.1417 103.828 49.6411 103.666 50.0505 103.36C50.2105 103.21 50.3405 103.04 50.4205 102.84C50.5005 102.64 50.5505 102.42 50.5505 102.19C50.5563 102.02 50.5223 101.851 50.4511 101.696C50.3799 101.542 50.2735 101.406 50.1405 101.3C50.0105 101.2 49.8705 101.12 49.7205 101.05C49.4023 100.925 49.0786 100.815 48.7505 100.72C48.5905 100.67 48.4505 100.61 48.3305 100.55C48.2168 100.493 48.1149 100.415 48.0305 100.32C47.9605 100.228 47.9251 100.115 47.9305 100C47.9305 99.9 47.9405 99.8 47.9905 99.71C48.0402 99.6201 48.1084 99.5417 48.1905 99.48C48.2803 99.4094 48.3818 99.3553 48.4905 99.32C48.771 99.2361 49.0699 99.2361 49.3505 99.32L49.6705 99.44L49.9105 99.57C49.9627 99.5992 50.0208 99.6163 50.0805 99.62ZM54.4005 99.62C54.4394 99.6222 54.4782 99.6129 54.5119 99.5934C54.5457 99.5739 54.573 99.5449 54.5905 99.51L54.7905 99.18C54.3514 98.7939 53.7851 98.5838 53.2005 98.59C52.9205 98.59 52.6605 98.64 52.4405 98.72C52.2316 98.7888 52.038 98.8975 51.8705 99.04C51.723 99.1659 51.6046 99.3223 51.5235 99.4984C51.4423 99.6745 51.4004 99.8661 51.4005 100.06C51.4005 100.28 51.4405 100.46 51.5105 100.62C51.5905 100.77 51.6905 100.9 51.8105 101C51.9405 101.1 52.0805 101.19 52.2305 101.26C52.3905 101.33 52.5505 101.39 52.7205 101.44L53.2005 101.6C53.3605 101.64 53.5005 101.7 53.6305 101.77C53.7442 101.827 53.846 101.905 53.9305 102C54.0005 102.09 54.0305 102.2 54.0305 102.34C54.0317 102.45 54.0101 102.56 53.9671 102.661C53.9241 102.763 53.8606 102.854 53.7805 102.93C53.686 103.009 53.5774 103.07 53.4605 103.11C53.3305 103.16 53.1805 103.18 53.0005 103.18C52.6978 103.187 52.3994 103.107 52.1405 102.95C52.0589 102.903 51.9788 102.853 51.9005 102.8C51.846 102.757 51.7796 102.733 51.7105 102.73C51.6605 102.73 51.6105 102.74 51.5705 102.76C51.5296 102.785 51.4954 102.819 51.4705 102.86L51.2705 103.2C51.7363 103.611 52.3394 103.832 52.9605 103.82C53.4734 103.84 53.9768 103.677 54.3805 103.36C54.5405 103.21 54.6605 103.04 54.7505 102.84C54.8305 102.64 54.8705 102.42 54.8705 102.19C54.8775 102.021 54.8451 101.852 54.7756 101.698C54.7062 101.543 54.6017 101.407 54.4705 101.3C54.3405 101.2 54.2005 101.12 54.0405 101.05C53.7222 100.926 53.3986 100.815 53.0705 100.72C52.93 100.673 52.793 100.616 52.6605 100.55C52.5468 100.493 52.4449 100.415 52.3605 100.32C52.287 100.23 52.248 100.116 52.2505 100C52.2505 99.9 52.2705 99.8 52.3105 99.71C52.3602 99.6201 52.4284 99.5417 52.5105 99.48C52.6003 99.4094 52.7018 99.3553 52.8105 99.32C53.091 99.2361 53.3899 99.2361 53.6705 99.32L54.0005 99.44L54.2305 99.57C54.3005 99.6 54.3505 99.62 54.4005 99.62ZM32.4905 99.62C32.5277 99.6203 32.5643 99.6101 32.5961 99.5907C32.628 99.5712 32.6537 99.5433 32.6705 99.51L32.8705 99.18C32.4314 98.7939 31.8651 98.5838 31.2805 98.59C31.0005 98.59 30.7505 98.64 30.5205 98.72C30.3151 98.79 30.125 98.8986 29.9605 99.04C29.813 99.1659 29.6946 99.3223 29.6135 99.4984C29.5323 99.6745 29.4903 99.8661 29.4905 100.06C29.4905 100.28 29.5305 100.46 29.5905 100.62C29.6805 100.77 29.7805 100.9 29.8905 101C30.0205 101.1 30.1605 101.19 30.3205 101.26L30.8005 101.44L31.2905 101.6C31.4505 101.64 31.5905 101.7 31.7105 101.77C31.8274 101.822 31.9303 101.9 32.0105 102C32.0905 102.09 32.1205 102.2 32.1205 102.34C32.1217 102.45 32.1001 102.56 32.0571 102.661C32.0141 102.763 31.9506 102.854 31.8705 102.93C31.773 103.011 31.661 103.072 31.5405 103.11C31.4105 103.16 31.2605 103.18 31.0905 103.18C30.7878 103.187 30.4894 103.107 30.2305 102.95C30.1305 102.9 30.0605 102.85 29.9905 102.8C29.9333 102.755 29.863 102.731 29.7905 102.73C29.7405 102.73 29.6905 102.74 29.6605 102.76C29.6196 102.785 29.5854 102.819 29.5605 102.86L29.3605 103.2C29.8237 103.609 30.4228 103.83 31.0405 103.82C31.552 103.83 32.0522 103.668 32.4605 103.36C32.6208 103.211 32.7482 103.029 32.8343 102.828C32.9204 102.626 32.9634 102.409 32.9605 102.19C32.9663 102.02 32.9323 101.851 32.8611 101.696C32.7899 101.542 32.6835 101.406 32.5505 101.3C32.4305 101.2 32.2905 101.12 32.1305 101.05C31.8123 100.925 31.4886 100.815 31.1605 100.72C31.0105 100.67 30.8605 100.61 30.7405 100.55C30.6268 100.493 30.5249 100.415 30.4405 100.32C30.3705 100.228 30.3351 100.115 30.3405 100C30.3405 99.9 30.3605 99.8 30.4005 99.71C30.4502 99.6201 30.5184 99.5417 30.6005 99.48C30.6903 99.4094 30.7918 99.3553 30.9005 99.32C31.181 99.2361 31.4799 99.2361 31.7605 99.32L32.0805 99.44L32.3205 99.57C32.3727 99.5992 32.4308 99.6163 32.4905 99.62ZM28.3105 98.67V103.74H27.7805C27.6605 103.74 27.5805 103.68 27.5405 103.56L27.4705 103.01C27.2505 103.25 27.0105 103.45 26.7305 103.6C26.4413 103.753 26.1175 103.829 25.7905 103.82C25.5205 103.82 25.2705 103.78 25.0605 103.69C24.8505 103.59 24.6705 103.46 24.5305 103.29C24.3802 103.115 24.2678 102.911 24.2005 102.69C24.1305 102.45 24.1005 102.19 24.1005 101.91V98.68H24.9905V101.9C24.9905 102.29 25.0705 102.58 25.2505 102.8C25.4205 103 25.6905 103.11 26.0505 103.11C26.3205 103.11 26.5605 103.05 26.7905 102.92C27.0205 102.8 27.2305 102.62 27.4205 102.4V98.67H28.3205H28.3105ZM21.2305 102.87C21.0305 102.94 20.7905 102.97 20.5205 102.97H18.9705V100.47H20.5205C21.0405 100.47 21.4405 100.58 21.7005 100.8C21.9605 101.01 22.1005 101.3 22.1005 101.68C22.1005 101.86 22.0605 102.04 22.0005 102.2C21.9479 102.36 21.8508 102.503 21.7205 102.61C21.5905 102.72 21.4305 102.81 21.2305 102.88V102.87ZM18.9605 99.78V97.34H20.2805C20.8205 97.34 21.2105 97.44 21.4605 97.64C21.7205 97.83 21.8405 98.14 21.8405 98.56C21.8405 98.74 21.8105 98.91 21.7505 99.06C21.6842 99.21 21.581 99.3407 21.4505 99.44C21.3205 99.55 21.1505 99.64 20.9505 99.69C20.7505 99.75 20.5205 99.79 20.2505 99.79H18.9605V99.78ZM21.4205 96.7C21.0472 96.6103 20.6644 96.5666 20.2805 96.57H18.0005V103.74H20.5305C20.9305 103.74 21.2905 103.69 21.6005 103.6C21.9105 103.5 22.1805 103.36 22.3905 103.18C22.6105 102.99 22.7705 102.78 22.8805 102.53C22.9905 102.28 23.0505 102 23.0505 101.7C23.0505 101.25 22.9205 100.9 22.6505 100.62C22.3251 100.315 21.9125 100.119 21.4705 100.06C21.6905 99.98 21.8905 99.89 22.0605 99.78C22.2305 99.68 22.3605 99.55 22.4805 99.4C22.6958 99.1265 22.8121 98.7881 22.8105 98.44C22.8118 98.176 22.7608 97.9142 22.6605 97.67C22.5605 97.43 22.4105 97.23 22.2005 97.07C22.0005 96.92 21.7405 96.79 21.4205 96.71V96.7ZM23.6105 126.15C23.5934 126.129 23.5722 126.112 23.548 126.1C23.5239 126.088 23.4974 126.081 23.4705 126.08C23.4058 126.085 23.3452 126.113 23.3005 126.16C23.1805 126.27 23.0505 126.37 22.9205 126.46C22.6503 126.622 22.3516 126.731 22.0405 126.78C21.8805 126.8 21.6805 126.81 21.4705 126.81C21.1404 126.815 20.8129 126.752 20.5083 126.625C20.2038 126.497 19.9287 126.308 19.7005 126.07C19.4747 125.807 19.2985 125.506 19.1805 125.18C19.0477 124.794 18.9834 124.388 18.9905 123.98C18.9905 123.54 19.0505 123.15 19.1805 122.8C19.3005 122.45 19.4705 122.15 19.6905 121.91C19.9105 121.67 20.1805 121.48 20.4905 121.36C20.7905 121.22 21.1305 121.16 21.5005 121.16C22.0917 121.143 22.6707 121.331 23.1405 121.69C23.2305 121.76 23.3005 121.79 23.3605 121.79C23.4105 121.79 23.4605 121.78 23.4905 121.76C23.5233 121.736 23.5506 121.705 23.5705 121.67L23.8905 121.23C23.2426 120.627 22.3852 120.301 21.5005 120.32C20.9805 120.32 20.5105 120.41 20.0805 120.59C19.6591 120.761 19.2789 121.02 18.9652 121.349C18.6514 121.679 18.4112 122.071 18.2605 122.5C17.9062 123.458 17.9027 124.51 18.2505 125.47C18.3905 125.897 18.6212 126.289 18.9267 126.618C19.2322 126.948 19.6053 127.208 20.0205 127.38C20.4305 127.56 20.9005 127.65 21.4105 127.65C22.0105 127.65 22.5105 127.55 22.9305 127.36C23.341 127.174 23.7062 126.901 24.0005 126.56L23.6105 126.15ZM36.2905 127.65C35.8905 127.65 35.5905 127.53 35.3605 127.31C35.1605 127.09 35.0405 126.76 35.0405 126.34V123.24H34.4405C34.3904 123.245 34.3405 123.23 34.3005 123.2C34.2605 123.17 34.2405 123.12 34.2405 123.05V122.69L35.0705 122.59L35.2705 121.03C35.2773 120.98 35.3022 120.933 35.3405 120.9C35.379 120.866 35.4291 120.848 35.4805 120.85H35.9305V122.6H37.4005V123.25H35.9305V126.28C35.9305 126.5 35.9905 126.66 36.0905 126.76C36.1905 126.86 36.3305 126.92 36.4905 126.92C36.6404 126.92 36.7869 126.875 36.9105 126.79C36.9605 126.76 37.0105 126.74 37.0305 126.71L37.1305 126.68C37.1805 126.68 37.2205 126.7 37.2505 126.76L37.5105 127.18C37.3605 127.33 37.1805 127.44 36.9605 127.52C36.7405 127.61 36.5205 127.65 36.2905 127.65ZM41.4205 122.6C41.1205 122.48 40.7905 122.42 40.4205 122.42C40.0505 122.42 39.7205 122.48 39.4205 122.61C39.1259 122.727 38.861 122.908 38.6448 123.139C38.4286 123.371 38.2666 123.648 38.1705 123.95C38.0541 124.298 37.9967 124.663 38.0005 125.03C38.0005 125.43 38.0605 125.79 38.1705 126.11C38.2666 126.412 38.4286 126.689 38.6448 126.921C38.861 127.152 39.1259 127.333 39.4205 127.45C39.7205 127.58 40.0505 127.64 40.4205 127.64C40.7905 127.64 41.1205 127.58 41.4205 127.45C41.7136 127.333 41.9769 127.151 42.1913 126.92C42.4058 126.688 42.566 126.411 42.6605 126.11C42.7805 125.79 42.8305 125.43 42.8305 125.03C42.8305 124.63 42.7805 124.28 42.6605 123.95C42.5673 123.647 42.4077 123.368 42.1931 123.135C41.9786 122.901 41.7146 122.719 41.4205 122.6ZM41.5405 126.44C41.3005 126.77 40.9205 126.94 40.4205 126.94C39.9205 126.94 39.5405 126.77 39.2905 126.44C39.0196 126.025 38.8898 125.534 38.9205 125.04C38.9205 124.74 38.9505 124.47 39.0105 124.23C39.0705 123.99 39.1705 123.79 39.2905 123.63C39.4205 123.46 39.5705 123.33 39.7605 123.25C39.9505 123.16 40.1705 123.12 40.4205 123.12C40.9205 123.12 41.3005 123.29 41.5405 123.62C41.7905 123.96 41.9105 124.43 41.9105 125.03C41.9105 125.63 41.7905 126.1 41.5405 126.44ZM43.9605 122.5V127.56H44.8605V123.79C45.0009 123.601 45.1736 123.439 45.3705 123.31C45.5605 123.19 45.7705 123.13 45.9805 123.13C46.3005 123.13 46.5305 123.23 46.7005 123.43C46.8605 123.63 46.9405 123.93 46.9405 124.34V127.56H47.8405V124.34C47.8405 124.14 47.8705 123.96 47.9205 123.81C47.9805 123.66 48.0605 123.53 48.1605 123.43C48.3701 123.236 48.6451 123.129 48.9305 123.13C49.2505 123.13 49.5005 123.23 49.6805 123.44C49.8505 123.64 49.9405 123.94 49.9405 124.34V127.56H50.8405V124.34C50.8405 124.04 50.7905 123.76 50.7205 123.53C50.6525 123.304 50.5365 123.096 50.3805 122.92C50.2361 122.756 50.0543 122.629 49.8505 122.55C49.4662 122.408 49.0486 122.384 48.6505 122.48C48.3958 122.544 48.1603 122.668 47.9636 122.842C47.767 123.016 47.615 123.235 47.5205 123.48C47.4454 123.181 47.2857 122.91 47.0605 122.7C46.8325 122.506 46.5394 122.406 46.2405 122.42C45.9405 122.42 45.6605 122.49 45.4305 122.64C45.1891 122.788 44.9758 122.978 44.8005 123.2L44.7305 122.68C44.7005 122.56 44.6305 122.5 44.5005 122.5H43.9605ZM33.1705 123.44C33.2084 123.443 33.2464 123.435 33.28 123.418C33.3137 123.4 33.3416 123.373 33.3605 123.34L33.5605 123.01C33.1219 122.623 32.5553 122.413 31.9705 122.42C31.6905 122.42 31.4305 122.46 31.2105 122.54C31.0016 122.609 30.808 122.717 30.6405 122.86C30.4912 122.987 30.3716 123.144 30.2904 123.322C30.2092 123.501 30.1682 123.694 30.1705 123.89C30.1705 124.11 30.2105 124.29 30.2805 124.44C30.3605 124.6 30.4605 124.72 30.5805 124.83C30.7105 124.93 30.8505 125.02 31.0005 125.08L31.4905 125.27L31.9705 125.42C32.1305 125.47 32.2705 125.52 32.4005 125.59C32.5142 125.647 32.616 125.725 32.7005 125.82C32.7705 125.92 32.8005 126.03 32.8005 126.17C32.8003 126.279 32.7781 126.386 32.7351 126.486C32.6922 126.585 32.6293 126.675 32.5505 126.75C32.4568 126.833 32.3482 126.897 32.2305 126.94C32.1005 126.98 31.9505 127 31.7705 127C31.4687 127.01 31.1704 126.933 30.9105 126.78C30.8105 126.72 30.7405 126.68 30.6705 126.62C30.6148 126.581 30.5485 126.56 30.4805 126.56C30.4305 126.56 30.3805 126.56 30.3405 126.59C30.2996 126.615 30.2654 126.649 30.2405 126.69L30.0405 127.03C30.5078 127.437 31.1107 127.655 31.7305 127.64C32.0305 127.64 32.3105 127.6 32.5505 127.52C32.7805 127.44 32.9805 127.32 33.1505 127.18C33.3105 127.03 33.4305 126.86 33.5205 126.66C33.6005 126.46 33.6405 126.25 33.6405 126.02C33.6491 125.849 33.6174 125.679 33.5479 125.522C33.4784 125.366 33.3731 125.228 33.2405 125.12C33.1105 125.02 32.9705 124.94 32.8105 124.87C32.4923 124.745 32.1686 124.635 31.8405 124.54C31.6984 124.497 31.5611 124.44 31.4305 124.37C31.3168 124.313 31.2149 124.235 31.1305 124.14C31.057 124.05 31.018 123.936 31.0205 123.82C31.0189 123.719 31.0416 123.619 31.0869 123.528C31.1322 123.438 31.1986 123.359 31.2805 123.3C31.3703 123.229 31.4718 123.175 31.5805 123.14C31.7105 123.11 31.8405 123.08 31.9905 123.08C32.2615 123.084 32.5281 123.149 32.7705 123.27C32.8705 123.31 32.9405 123.35 33.0005 123.39C33.0705 123.43 33.1205 123.44 33.1705 123.44ZM29.0005 122.5V127.56H28.4705C28.3405 127.56 28.2605 127.5 28.2305 127.38L28.1605 126.83C27.9499 127.071 27.6996 127.274 27.4205 127.43C27.1405 127.57 26.8305 127.64 26.4805 127.64C26.2005 127.64 25.9605 127.6 25.7405 127.51C25.5401 127.416 25.36 127.283 25.2105 127.12C25.064 126.944 24.9551 126.74 24.8905 126.52C24.8197 126.263 24.786 125.997 24.7905 125.73V122.5H25.6705V125.73C25.6705 126.11 25.7605 126.41 25.9305 126.62C26.1105 126.83 26.3805 126.93 26.7305 126.93C27.0005 126.93 27.2505 126.87 27.4705 126.75C27.7005 126.62 27.9105 126.45 28.1105 126.23V122.5H29.0005Z" fill="#92999E"/>
<path fill-rule="evenodd" clip-rule="evenodd" d="M220 200C275.23 200 320 155.23 320 100C320 44.77 275.23 0 220 0C164.77 0 120 44.77 120 100C120 155.23 164.77 200 220 200ZM220 156C234.852 156 249.096 150.1 259.598 139.598C270.1 129.096 276 114.852 276 100C276 85.1479 270.1 70.9041 259.598 60.402C249.096 49.9 234.852 44 220 44C205.148 44 190.904 49.9 180.402 60.402C169.9 70.9041 164 85.1479 164 100C164 114.852 169.9 129.096 180.402 139.598C190.904 150.1 205.148 156 220 156Z" fill="#B7BCBF" fill-opacity="0.2"/>
<path fill-rule="evenodd" clip-rule="evenodd" d="M144.72 165.83C128.752 147.621 119.964 124.219 120 100C120 44.77 164.77 0 220 0V44C208.92 43.9992 198.089 47.2852 188.877 53.4423C179.665 59.5994 172.487 68.3507 168.251 78.5888C164.015 88.8269 162.911 100.092 165.079 110.957C167.246 121.823 172.589 131.802 180.43 139.63L149.47 170.58L144.72 165.83Z" fill="#B7BCBF" fill-opacity="0.3"/>
<path fill-rule="evenodd" clip-rule="evenodd" d="M220 1.99799e-05C206.865 -0.0167244 193.857 2.56228 181.722 7.58883C169.587 12.6154 158.566 19.9904 149.29 29.29L180.4 60.4C185.595 55.1921 191.767 51.0622 198.563 48.2477C205.359 45.4332 212.644 43.9897 220 44V1.99799e-05Z" fill="#B7BCBF" fill-opacity="0.3"/>
<path d="M5 81C7.76142 81 10 78.7614 10 76C10 73.2386 7.76142 71 5 71C2.23858 71 0 73.2386 0 76C0 78.7614 2.23858 81 5 81Z" fill="#DCDFE0" fill-opacity="0.5"/>
<path d="M5 105C7.76142 105 10 102.761 10 100C10 97.2386 7.76142 95 5 95C2.23858 95 0 97.2386 0 100C0 102.761 2.23858 105 5 105Z" fill="#B7BCBF" fill-opacity="0.5"/>
<path d="M5 129C7.76142 129 10 126.761 10 124C10 121.239 7.76142 119 5 119C2.23858 119 0 121.239 0 124C0 126.761 2.23858 129 5 129Z" fill="#92999E" fill-opacity="0.5"/>
</g>
</g>
<defs>
<clipPath id="clip0_2220_3538">
<rect width="320" height="200" fill="white"/>
</clipPath>
</defs>
</svg>
