<svg xmlns="http://www.w3.org/2000/svg" width="320" height="200" fill="none"><g clip-path="url(#a)"><path fill="#92999E" fill-rule="evenodd" d="M77.7 79.48a.31.31 0 0 0-.23-.08h-2.4l-.4.03c-.14.02-.27.05-.4.09l1.89-1.93.56-.6c.18-.2.34-.4.47-.6.14-.2.25-.42.33-.65a2.25 2.25 0 0 0-.05-1.58 1.8 1.8 0 0 0-.45-.63c-.2-.17-.42-.3-.69-.4a2.61 2.61 0 0 0-.84-.13c-.31 0-.6.05-.86.14-.26.08-.5.21-.7.38-.2.17-.38.38-.52.64-.13.25-.22.53-.27.86l.47.08c.12.02.22 0 .28-.03.08-.04.13-.12.17-.23a1.35 1.35 0 0 1 .47-.77 1.44 1.44 0 0 1 .91-.3c.18 0 .35.02.5.08a1.08 1.08 0 0 1 .69.62c.06.16.1.34.1.55 0 .21-.04.4-.1.6a2.6 2.6 0 0 1-.25.54c-.11.18-.24.36-.4.54l-.52.55-2.3 2.31a.55.55 0 0 0-.16.38v.3h4.78v-.53a.3.3 0 0 0-.09-.22Zm11.93-2.81a6.1 6.1 0 0 1-.2 1.63 3.6 3.6 0 0 1-.55 1.13c-.24.3-.51.52-.83.67a2.4 2.4 0 0 1-1.02.22 2.24 2.24 0 0 1-1.84-.89c-.24-.3-.42-.68-.56-1.13-.13-.47-.2-1-.2-1.63 0-.63.07-1.17.2-1.64.14-.45.32-.84.55-1.14a2.22 2.22 0 0 1 1.85-.89c.36 0 .7.07 1.02.22.32.15.6.37.83.67.23.3.41.69.55 1.14.13.47.2 1 .2 1.64Zm-.92 0c0-.55-.05-1.01-.14-1.38a2.7 2.7 0 0 0-.37-.9 1.36 1.36 0 0 0-1.17-.64 1.44 1.44 0 0 0-1.17.64c-.16.23-.28.53-.37.9-.1.37-.14.83-.14 1.38 0 .54.05 1 .14 1.37.09.37.21.67.37.9.15.22.33.39.53.48a1.46 1.46 0 0 0 1.27 0c.2-.1.38-.26.54-.48.15-.23.28-.53.37-.9.09-.37.14-.83.14-1.38Zm-8.57-.89c.37-.08.72-.11 1.03-.11.37 0 .7.05 1 .16a1.86 1.86 0 0 1 1.15 1.14c.1.26.14.55.14.86 0 .38-.07.72-.2 1.03a2.31 2.31 0 0 1-1.36 1.29 2.88 2.88 0 0 1-1.62.11 3.05 3.05 0 0 1-1.39-.69l.28-.38a.27.27 0 0 1 .23-.13c.07 0 .14.03.23.08a6.51 6.51 0 0 0 .72.34 2 2 0 0 0 .58.08c.25 0 .48-.04.68-.12a1.48 1.48 0 0 0 .84-.88 1.99 1.99 0 0 0 .02-1.3 1.15 1.15 0 0 0-.3-.45c-.13-.13-.3-.23-.49-.3-.2-.07-.43-.1-.69-.1a3.75 3.75 0 0 0-1.16.19l-.56-.17.58-3.35h3.4v.39c0 .13-.05.23-.13.31-.08.08-.2.13-.4.13h-2.25l-.33 1.88Zm3.34 24.71a6 6 0 0 1-.2 1.63 3.5 3.5 0 0 1-.55 1.13c-.24.3-.51.53-.83.67a2.4 2.4 0 0 1-1.02.22 2.24 2.24 0 0 1-1.84-.89c-.24-.3-.43-.67-.56-1.13a6 6 0 0 1-.2-1.63 6 6 0 0 1 .2-1.63c.13-.46.32-.84.55-1.14a2.22 2.22 0 0 1 1.85-.9 2.38 2.38 0 0 1 1.85.9c.23.3.41.68.55 1.14a6 6 0 0 1 .2 1.63Zm-.92 0c0-.55-.05-1-.14-1.38a2.7 2.7 0 0 0-.37-.9 1.36 1.36 0 0 0-1.17-.63 1.36 1.36 0 0 0-1.17.64c-.16.22-.28.52-.37.9-.1.36-.14.82-.14 1.37 0 .55.05 1 .14 1.38.09.36.21.66.37.89.15.23.33.39.53.49a1.46 1.46 0 0 0 1.27 0c.2-.1.38-.26.54-.49.15-.23.28-.53.37-.9.09-.36.14-.82.14-1.37Zm6.72 0a6 6 0 0 1-.2 1.63 3.5 3.5 0 0 1-.55 1.13c-.24.3-.51.53-.83.67a2.4 2.4 0 0 1-1.02.22 2.24 2.24 0 0 1-1.84-.89c-.24-.3-.43-.67-.56-1.13a6 6 0 0 1-.2-1.63 6 6 0 0 1 .2-1.63c.13-.46.32-.84.55-1.14a2.22 2.22 0 0 1 1.85-.9 2.38 2.38 0 0 1 1.85.9c.23.3.41.68.55 1.14a6 6 0 0 1 .2 1.63Zm-.92 0c0-.55-.05-1-.14-1.38a2.7 2.7 0 0 0-.37-.9 1.36 1.36 0 0 0-1.17-.63 1.36 1.36 0 0 0-1.17.64c-.16.22-.28.52-.37.9-.1.36-.14.82-.14 1.37 0 .55.05 1 .14 1.38.09.36.21.66.37.89.15.23.33.39.53.49a1.46 1.46 0 0 0 1.27 0c.2-.1.38-.26.54-.49.15-.23.28-.53.37-.9.09-.36.14-.82.14-1.37Zm-11.09 3.58v-.68h-1.41v-6.5h-.72L73 98.73l.28.39a.27.27 0 0 0 .17.1h.13a.31.31 0 0 0 .13-.06l1.27-1.1-.02.44v4.89h-1.53v.68h3.84Zm6.27 21.87a6 6 0 0 0 .2-1.63 6 6 0 0 0-.2-1.63 3.36 3.36 0 0 0-.55-1.14 2.2 2.2 0 0 0-.83-.68 2.4 2.4 0 0 0-1.02-.22 2.23 2.23 0 0 0-1.84.9c-.24.3-.43.68-.56 1.14a6 6 0 0 0-.2 1.63 6 6 0 0 0 .2 1.63c.13.46.32.84.55 1.14a2.24 2.24 0 0 0 1.85.89 2.32 2.32 0 0 0 1.85-.89c.23-.3.41-.68.55-1.14Zm-.86-3c.09.37.14.82.14 1.37 0 .55-.05 1-.14 1.38a2.7 2.7 0 0 1-.37.89 1.4 1.4 0 0 1-.54.49 1.46 1.46 0 0 1-1.27 0 1.4 1.4 0 0 1-.53-.49 2.84 2.84 0 0 1-.37-.9 5.93 5.93 0 0 1-.14-1.37c0-.55.05-1 .14-1.38.09-.37.21-.67.37-.9a1.36 1.36 0 0 1 1.17-.63 1.36 1.36 0 0 1 1.17.63c.15.23.28.53.37.9Zm-7.4.37c-.31 0-.66.04-1.03.12l.33-1.88h2.25c.19 0 .32-.04.4-.12a.44.44 0 0 0 .12-.32v-.39h-3.4l-.57 3.36.56.16a3.73 3.73 0 0 1 1.16-.19c.26 0 .5.03.69.1a1.27 1.27 0 0 1 .79.76 1.99 1.99 0 0 1-.02 1.3 1.47 1.47 0 0 1-.84.88c-.2.08-.43.12-.68.12a2 2 0 0 1-1-.25 6.2 6.2 0 0 1-.3-.17.43.43 0 0 0-.23-.09c-.1 0-.18.05-.23.13l-.28.39a2.69 2.69 0 0 0 .84.52 3.05 3.05 0 0 0 2.17.06 2.3 2.3 0 0 0 1.36-1.29 2.56 2.56 0 0 0 .05-1.9 1.87 1.87 0 0 0-1.15-1.14 2.75 2.75 0 0 0-.99-.16ZM53.9 79.86V72.5H53v7.36h.9Zm-4.2-2.17c.29-.06.64-.1 1.05-.1v1.05a2.72 2.72 0 0 1-.64.5 1.65 1.65 0 0 1-1.13.14.8.8 0 0 1-.26-.14.68.68 0 0 1-.17-.23.84.84 0 0 1-.07-.35c0-.14.04-.27.12-.38a1 1 0 0 1 .4-.3c.18-.08.41-.14.7-.2Zm-.92-2.78a2.9 2.9 0 0 0-.9.6l.15.29c.03.05.07.09.12.12.04.03.09.05.15.05a.4.4 0 0 0 .23-.08l.28-.19a1.58 1.58 0 0 1 .94-.27c.33 0 .58.1.74.3.17.2.26.5.26.9v.39c-.58.01-1.06.07-1.46.16-.4.09-.72.2-.96.35-.25.14-.43.3-.54.5a1.1 1.1 0 0 0-.16.57c0 .23.03.43.1.6a1.21 1.21 0 0 0 .77.66 2.3 2.3 0 0 0 1.93-.36c.12-.1.25-.2.38-.33l.1.48c.03.09.07.14.12.17a.4.4 0 0 0 .2.05h.39v-3.25c0-.28-.04-.54-.11-.78a1.55 1.55 0 0 0-.9-1 2.8 2.8 0 0 0-1.83.06Zm-5.51.63a3 3 0 0 1 .74-.6 2.04 2.04 0 0 1 1.68-.08 1.6 1.6 0 0 1 .85.99c.07.24.1.5.1.79v3.22h-.89v-3.22c0-.38-.08-.68-.26-.89-.17-.21-.44-.32-.8-.32-.26 0-.5.06-.74.19-.22.13-.43.3-.63.52v3.72h-.9V74.8h.54c.13 0 .2.06.24.19l.07.55Zm-3.38-.64c-.3-.12-.63-.18-1-.18s-.71.06-1.01.19a2.14 2.14 0 0 0-1.25 1.34 3.3 3.3 0 0 0-.16 1.08c0 .4.05.76.16 1.08.12.32.28.6.49.82.21.23.46.4.76.52.3.13.64.19 1.01.19s.7-.06 1-.19a2.14 2.14 0 0 0 1.24-1.34 3.35 3.35 0 0 0 0-2.16 2.14 2.14 0 0 0-1.24-1.35Zm.12 3.84c-.25.33-.62.5-1.12.5-.5 0-.89-.17-1.14-.5-.24-.34-.37-.8-.37-1.4 0-.3.03-.57.1-.81.06-.24.15-.44.27-.6.13-.17.29-.3.47-.38.2-.09.42-.13.67-.13.5 0 .87.17 1.12.5.25.34.37.81.37 1.41 0 .6-.12 1.07-.37 1.41Zm-4.63-3.1a.2.2 0 0 1-.19.1.35.35 0 0 1-.17-.05 2.97 2.97 0 0 0-.56-.25 1.5 1.5 0 0 0-.85 0 .96.96 0 0 0-.31.16.73.73 0 0 0-.2.23.63.63 0 0 0-.06.29c0 .13.04.24.1.32.09.1.19.17.3.23.13.06.27.12.43.17a11.18 11.18 0 0 1 .96.33c.16.07.3.16.42.25a1.1 1.1 0 0 1 .41.9c0 .23-.04.45-.12.65-.08.2-.2.36-.37.51a1.8 1.8 0 0 1-.6.34c-.24.08-.51.13-.82.13a2.47 2.47 0 0 1-1.69-.61l.2-.35a.3.3 0 0 1 .1-.1.26.26 0 0 1 .14-.03c.06 0 .13.02.2.06l.23.16c.1.06.22.1.35.16.14.04.31.07.51.07.18 0 .33-.03.46-.07a.9.9 0 0 0 .32-.18.8.8 0 0 0 .26-.59.51.51 0 0 0-.12-.35.88.88 0 0 0-.3-.23 2.16 2.16 0 0 0-.42-.17l-.48-.16a6.6 6.6 0 0 1-.49-.17c-.15-.08-.3-.16-.42-.27a1.2 1.2 0 0 1-.3-.38 1.28 1.28 0 0 1-.1-.55 1.33 1.33 0 0 1 .46-1.02c.16-.14.35-.25.57-.33.22-.08.48-.12.76-.12a2.37 2.37 0 0 1 1.59.59l-.2.33ZM30.25 75c-.23.2-.43.47-.59.81l-.06-.77a.38.38 0 0 0-.07-.19c-.04-.03-.1-.05-.2-.05h-.51v5.06h.89v-3.2c.06-.17.13-.32.21-.45a1.35 1.35 0 0 1 .6-.56 1.41 1.41 0 0 1 .74-.04c.09.03.15.03.2.03.08 0 .13-.04.15-.12l.07-.66a.82.82 0 0 0-.27-.11 1.3 1.3 0 0 0-.3-.04c-.34 0-.63.1-.86.3Zm-3.33 1.78c0-.2-.03-.4-.09-.56a1.2 1.2 0 0 0-1.2-.84c-.43 0-.77.12-1.02.37-.24.25-.4.59-.46 1.03h2.77Zm.72 2.38c-.1.13-.24.25-.4.34a2.52 2.52 0 0 1-1.03.39 3.4 3.4 0 0 1-.55.05c-.35 0-.68-.06-.97-.18a2.2 2.2 0 0 1-1.27-1.37 3.45 3.45 0 0 1-.02-2.15c.11-.3.27-.57.47-.8a2.42 2.42 0 0 1 2.57-.57 1.86 1.86 0 0 1 1.12 1.16c.1.28.16.6.16.95 0 .14-.01.24-.04.28-.03.05-.09.07-.17.07h-3.39c.01.33.06.6.13.84.08.24.2.44.33.6.14.15.3.27.5.35.2.08.41.11.65.11a1.94 1.94 0 0 0 1-.24l.29-.16a.4.4 0 0 1 .2-.08.2.2 0 0 1 .17.08l.25.33Zm-6.8-2.85c-.2.07-.45.1-.73.1h-1.14v-2.94h1.14c.58 0 1 .12 1.29.38.28.26.42.61.42 1.07 0 .22-.04.42-.11.6-.07.19-.18.35-.33.48a1.4 1.4 0 0 1-.54.3Zm.46-3.45c-.34-.1-.73-.16-1.19-.16H18v7.16h.96V77.2h1.15c.44 0 .82-.06 1.15-.17.33-.11.61-.27.83-.47.23-.2.4-.44.52-.72a2.43 2.43 0 0 0 .01-1.83c-.1-.27-.27-.5-.49-.7-.22-.19-.5-.34-.83-.44Zm13.69 25.81v5.07h-.89v-5.06h.89Zm.19-1.59c0 .1-.02.17-.06.25a.68.68 0 0 1-.14.2.63.63 0 0 1-.2.14.6.6 0 0 1-.49 0 .66.66 0 0 1-.33-.34.6.6 0 0 1-.05-.25.6.6 0 0 1 .05-.24.63.63 0 0 1 .13-.2.6.6 0 0 1 .68-.14c.09.03.16.08.21.14.06.05.11.12.14.2.04.08.06.16.06.24Zm2.46 2c-.12.1-.24.2-.35.33l-.07-.55c-.03-.12-.1-.19-.23-.19h-.54v5.07h.9v-3.73c.2-.22.4-.39.63-.52.23-.12.47-.18.74-.18.35 0 .62.1.8.31.17.21.26.51.26.9v3.22h.9v-3.22c0-.3-.04-.55-.12-.79a1.67 1.67 0 0 0-.32-.6c-.14-.17-.32-.3-.53-.4a2.04 2.04 0 0 0-2.06.34Zm7.78 1.58c0-.21-.03-.4-.1-.57a1.2 1.2 0 0 0-1.2-.84c-.42 0-.76.13-1.01.38-.25.24-.4.59-.46 1.03h2.77Zm.72 2.37a1.7 1.7 0 0 1-.4.35 2.95 2.95 0 0 1-1.59.43c-.35 0-.67-.06-.97-.17a2.2 2.2 0 0 1-1.26-1.38 3.45 3.45 0 0 1-.02-2.15c.1-.3.26-.57.47-.79.2-.23.45-.4.74-.53a2.42 2.42 0 0 1 1.83-.04 1.97 1.97 0 0 1 1.12 1.15c.1.28.16.6.16.96 0 .14-.02.23-.05.28-.03.05-.08.07-.17.07h-3.38c0 .32.05.6.13.84.08.23.19.43.33.59.14.16.3.28.5.36.2.07.4.11.65.11a1.94 1.94 0 0 0 1-.25c.11-.05.2-.11.28-.16a.4.4 0 0 1 .2-.08.2.2 0 0 1 .18.08l.25.33Zm3.94-3.41a.2.2 0 0 0 .18-.11l.2-.33a2.37 2.37 0 0 0-1.59-.59c-.28 0-.54.05-.76.13a1.7 1.7 0 0 0-.56.32 1.34 1.34 0 0 0-.47 1.02c0 .22.03.4.1.56.08.15.18.28.3.38.13.1.27.19.43.26l.48.18.49.16a1.6 1.6 0 0 1 .72.4c.07.09.11.2.11.34a.8.8 0 0 1-.25.59.99.99 0 0 1-.33.18c-.13.05-.28.07-.45.07a1.59 1.59 0 0 1-.86-.23c-.1-.05-.18-.1-.24-.15a.33.33 0 0 0-.2-.07c-.05 0-.1.01-.13.03a.3.3 0 0 0-.1.1l-.2.34a2.48 2.48 0 0 0 1.68.62 2.31 2.31 0 0 0 1.42-.46c.16-.15.29-.32.37-.52.08-.2.13-.42.13-.65a1.09 1.09 0 0 0-.41-.89c-.13-.1-.27-.18-.42-.25a11.33 11.33 0 0 0-.97-.33c-.16-.05-.3-.11-.42-.17a1 1 0 0 1-.3-.23.49.49 0 0 1-.1-.32c0-.1.01-.2.06-.29a.73.73 0 0 1 .2-.23.97.97 0 0 1 .3-.16 1.5 1.5 0 0 1 .86 0l.32.12.24.13a.4.4 0 0 0 .17.05Zm4.32 0a.2.2 0 0 0 .19-.11l.2-.33a2.37 2.37 0 0 0-1.59-.59c-.28 0-.54.05-.76.13a1.7 1.7 0 0 0-.57.32 1.34 1.34 0 0 0-.47 1.02c0 .22.04.4.11.56.08.15.18.28.3.38.13.1.27.19.42.26.16.07.32.13.49.18l.48.16c.16.04.3.1.43.17a1 1 0 0 1 .3.23c.07.09.1.2.1.34a.8.8 0 0 1-.25.59.99.99 0 0 1-.32.18c-.13.05-.28.07-.46.07a1.59 1.59 0 0 1-.86-.23 4.4 4.4 0 0 1-.24-.15.33.33 0 0 0-.19-.07c-.05 0-.1.01-.14.03a.3.3 0 0 0-.1.1l-.2.34a2.48 2.48 0 0 0 1.69.62 2.16 2.16 0 0 0 1.42-.46c.16-.15.28-.32.37-.52.08-.2.12-.42.12-.65a1.09 1.09 0 0 0-.4-.89c-.13-.1-.27-.18-.43-.25a11.42 11.42 0 0 0-.97-.33 3.17 3.17 0 0 1-.41-.17 1 1 0 0 1-.3-.23.49.49 0 0 1-.11-.32c0-.1.02-.2.06-.29a.73.73 0 0 1 .2-.23.97.97 0 0 1 .3-.16 1.5 1.5 0 0 1 .86 0l.33.12.23.13c.07.03.12.05.17.05Zm-21.91 0a.2.2 0 0 0 .18-.11l.2-.33a2.37 2.37 0 0 0-1.59-.59c-.28 0-.53.05-.76.13a1.7 1.7 0 0 0-.56.32 1.34 1.34 0 0 0-.47 1.02c0 .22.04.4.1.56.09.15.19.28.3.38.13.1.27.19.43.26l.48.18.49.16c.16.04.3.1.42.17a.8.8 0 0 1 .3.23c.08.09.11.2.11.34a.8.8 0 0 1-.25.59.99.99 0 0 1-.33.18c-.13.05-.28.07-.45.07a1.59 1.59 0 0 1-.86-.23c-.1-.05-.17-.1-.24-.15a.33.33 0 0 0-.2-.07c-.05 0-.1.01-.13.03a.3.3 0 0 0-.1.1l-.2.34a2.48 2.48 0 0 0 1.68.62 2.28 2.28 0 0 0 1.42-.46 1.57 1.57 0 0 0 .5-1.17 1.09 1.09 0 0 0-.41-.89c-.12-.1-.26-.18-.42-.25a11.33 11.33 0 0 0-.97-.33c-.15-.05-.3-.11-.42-.17a1 1 0 0 1-.3-.23.49.49 0 0 1-.1-.32c0-.1.02-.2.06-.29a.73.73 0 0 1 .2-.23.97.97 0 0 1 .3-.16 1.5 1.5 0 0 1 .86 0l.32.12.24.13a.4.4 0 0 0 .17.05Zm-4.18-.95v5.07h-.53c-.12 0-.2-.06-.24-.18l-.07-.55c-.22.24-.46.44-.74.59a1.9 1.9 0 0 1-.94.22c-.27 0-.52-.04-.73-.13-.21-.1-.39-.23-.53-.4a1.67 1.67 0 0 1-.33-.6c-.07-.24-.1-.5-.1-.78v-3.23h.89v3.22c0 .39.08.68.26.9.17.2.44.31.8.31.27 0 .51-.06.74-.19.23-.12.44-.3.63-.52v-3.73h.9Zm-7.08 4.2c-.2.07-.44.1-.71.1h-1.55v-2.5h1.55c.52 0 .92.11 1.18.33.26.21.4.5.4.88 0 .18-.04.36-.1.52a.89.89 0 0 1-.28.41c-.13.11-.29.2-.49.27Zm-2.27-3.09v-2.44h1.32c.54 0 .93.1 1.18.3.26.19.38.5.38.92 0 .18-.03.35-.09.5a.97.97 0 0 1-.3.38c-.13.11-.3.2-.5.25-.2.06-.43.1-.7.1h-1.29Zm2.46-3.08a4.7 4.7 0 0 0-1.14-.13H18v7.17h2.53c.4 0 .76-.05 1.07-.14.31-.1.58-.24.79-.42.22-.19.38-.4.49-.65.11-.25.17-.53.17-.83 0-.45-.13-.8-.4-1.08a2.14 2.14 0 0 0-1.18-.56c.22-.08.42-.17.59-.28.17-.1.3-.23.42-.38a1.54 1.54 0 0 0 .33-.96 2 2 0 0 0-.15-.77c-.1-.24-.25-.44-.46-.6-.2-.15-.46-.28-.78-.36Zm2.19 29.45a.19.19 0 0 0-.14-.07.26.26 0 0 0-.17.08c-.12.11-.25.21-.38.3a2.46 2.46 0 0 1-.88.32c-.16.02-.36.03-.57.03a2.4 2.4 0 0 1-1.77-.74 2.86 2.86 0 0 1-.52-.89 3.5 3.5 0 0 1-.19-1.2c0-.44.06-.83.19-1.18.12-.35.29-.65.51-.89.22-.24.49-.43.8-.55.3-.14.64-.2 1.01-.2a2.58 2.58 0 0 1 1.64.53c.09.07.16.1.22.1.05 0 .1-.01.13-.03a.28.28 0 0 0 .08-.09l.32-.44a3.4 3.4 0 0 0-2.39-.91c-.52 0-.99.09-1.42.27a3.21 3.21 0 0 0-1.82 1.91 4.32 4.32 0 0 0-.01 2.97 3.12 3.12 0 0 0 1.77 1.91c.41.18.88.27 1.39.27.6 0 1.1-.1 1.52-.29a3.1 3.1 0 0 0 1.07-.8l-.39-.41Zm12.68 1.5c-.4 0-.7-.12-.93-.34-.2-.22-.32-.55-.32-.97v-3.1h-.6a.2.2 0 0 1-.14-.04c-.04-.03-.06-.08-.06-.15v-.36l.83-.1.2-1.56a.21.21 0 0 1 .07-.13.2.2 0 0 1 .14-.05h.45v1.75h1.47v.65h-1.47v3.03c0 .22.06.38.16.48.1.1.24.16.4.16a.74.74 0 0 0 .42-.13c.05-.03.1-.05.12-.08l.1-.03c.05 0 .09.02.12.08l.26.42c-.15.15-.33.26-.55.34-.22.09-.44.13-.67.13Zm5.13-5.05c-.3-.12-.63-.18-1-.18s-.7.06-1 .19a2.14 2.14 0 0 0-1.25 1.34 3.3 3.3 0 0 0-.17 1.08c0 .4.06.76.17 1.08a2.14 2.14 0 0 0 1.25 1.34c.3.13.63.19 1 .19s.7-.06 1-.19a2.13 2.13 0 0 0 1.24-1.34c.12-.32.17-.68.17-1.08s-.05-.75-.17-1.08a2.13 2.13 0 0 0-1.24-1.35Zm.12 3.84c-.24.33-.62.5-1.12.5-.5 0-.88-.17-1.13-.5a2.3 2.3 0 0 1-.37-1.4c0-.3.03-.57.09-.81.06-.24.16-.44.28-.6.13-.17.28-.3.47-.38.19-.09.41-.13.66-.13.5 0 .88.17 1.12.5.25.34.37.81.37 1.41 0 .6-.12 1.07-.37 1.41Zm2.42-3.94v5.06h.9v-3.77a2 2 0 0 1 .51-.48c.19-.12.4-.18.61-.18.32 0 .55.1.72.3.16.2.24.5.24.91v3.22h.9v-3.22c0-.2.03-.38.08-.53.06-.15.14-.28.24-.38a1.13 1.13 0 0 1 .77-.3c.32 0 .57.1.75.31.17.2.26.5.26.9v3.22h.9v-3.22c0-.3-.05-.58-.12-.81a1.63 1.63 0 0 0-.34-.61 1.36 1.36 0 0 0-.53-.37 2.07 2.07 0 0 0-1.2-.07 1.64 1.64 0 0 0-1.13 1 1.6 1.6 0 0 0-.46-.78 1.18 1.18 0 0 0-.82-.28c-.3 0-.58.07-.81.22a2.4 2.4 0 0 0-.63.56l-.07-.52c-.03-.12-.1-.18-.23-.18h-.54Zm-10.79.94a.2.2 0 0 0 .19-.1l.2-.33a2.36 2.36 0 0 0-1.59-.59c-.28 0-.54.04-.76.12a1.7 1.7 0 0 0-.57.32 1.33 1.33 0 0 0-.47 1.03c0 .22.04.4.11.55.08.16.18.28.3.39.13.1.27.19.42.25l.49.19.48.15c.16.05.3.1.43.17a1 1 0 0 1 .3.23c.07.1.1.21.1.35a.8.8 0 0 1-.25.58.99.99 0 0 1-.32.19c-.13.04-.28.06-.46.06a1.59 1.59 0 0 1-.86-.22c-.1-.06-.17-.1-.24-.16a.33.33 0 0 0-.19-.06c-.05 0-.1 0-.14.03a.3.3 0 0 0-.1.1l-.2.34a2.48 2.48 0 0 0 1.69.61c.3 0 .58-.04.82-.12.23-.08.43-.2.6-.34.16-.15.28-.32.37-.52.08-.2.12-.41.12-.64a1.09 1.09 0 0 0-.4-.9c-.13-.1-.27-.18-.43-.25a11.33 11.33 0 0 0-.97-.33 2.2 2.2 0 0 1-.41-.17 1 1 0 0 1-.3-.23.49.49 0 0 1-.11-.32.63.63 0 0 1 .26-.52.97.97 0 0 1 .3-.16c.13-.03.26-.06.41-.06a1.8 1.8 0 0 1 .78.19c.1.04.17.08.23.12.07.04.12.05.17.05ZM29 122.5v5.06h-.53c-.13 0-.21-.06-.24-.18l-.07-.55a2.8 2.8 0 0 1-.74.6c-.28.14-.59.21-.94.21-.28 0-.52-.04-.74-.13a1.7 1.7 0 0 1-.53-.39 1.68 1.68 0 0 1-.32-.6 2.8 2.8 0 0 1-.1-.79v-3.23h.88v3.23c0 .38.09.68.26.89.18.21.45.31.8.31.27 0 .52-.06.74-.18.23-.13.44-.3.64-.52v-3.73H29Z" clip-rule="evenodd"/><path fill="#071722" fill-opacity=".05" fill-rule="evenodd" d="M220 200c55.23 0 100-44.77 100-100S275.23 0 220 0 120 44.77 120 100s44.77 100 100 100Zm0-44a56 56 0 1 0 0-112 56 56 0 0 0 0 112Z" clip-rule="evenodd"/><path fill="url(#b)" fill-rule="evenodd" d="M220 200c55.23 0 100-44.77 100-100S275.23 0 220 0 120 44.77 120 100s44.77 100 100 100Zm0-44a56 56 0 1 0 0-112 56 56 0 0 0 0 112Z" clip-rule="evenodd"/><path fill="#071722" fill-opacity=".05" fill-rule="evenodd" d="M144.72 165.83A99.62 99.62 0 0 1 120 100C120 44.77 164.77 0 220 0v44a56 56 0 0 0-39.57 95.63l-30.96 30.95-4.75-4.75Z" clip-rule="evenodd"/><path fill="#071722" fill-opacity=".05" fill-rule="evenodd" d="M220 0a99.69 99.69 0 0 0-70.71 29.29L180.4 60.4A55.82 55.82 0 0 1 220 44V0Z" clip-rule="evenodd"/><circle cx="5" cy="76" r="5" fill="#F4F4F5"/><circle cx="5" cy="100" r="5" fill="#EBECED"/><circle cx="5" cy="124" r="5" fill="#E1E3E5"/></g><defs><linearGradient id="b" x1="220" x2="220" y1="8" y2="192" gradientUnits="userSpaceOnUse"><stop stop-color="#FAFAFB"/><stop offset="1" stop-color="#F3F3F4"/></linearGradient><clipPath id="a"><path fill="#fff" d="M0 0h320v200H0z"/></clipPath></defs></svg>