<svg width="320" height="200" viewBox="0 0 320 200" fill="none" xmlns="http://www.w3.org/2000/svg">
<g clip-path="url(#clip0_2226_2412)">
<mask id="mask0_2226_2412" style="mask-type:luminance" maskUnits="userSpaceOnUse" x="0" y="0" width="320" height="200">
<path d="M0 0H320V200H0V0Z" fill="white"/>
</mask>
<g mask="url(#mask0_2226_2412)">
<g opacity="0.6">
<path d="M64 74H320V100H64V74ZM64 174H320V192C320 194.122 319.157 196.157 317.657 197.657C316.157 199.157 314.122 200 312 200H64V174Z" fill="#B7BCBF" fill-opacity="0.15"/>
<path d="M256 0H312C314.122 0 316.157 0.842855 317.657 2.34315C319.157 3.84344 320 5.87827 320 8V192C320 194.122 319.157 196.157 317.657 197.657C316.157 199.157 314.122 200 312 200H256V0Z" fill="#B7BCBF" fill-opacity="0.3"/>
<path fill-rule="evenodd" clip-rule="evenodd" d="M64 24H320V25H64V24ZM64 49H320V50H64V49ZM320 74H64V75H320V74ZM64 99H320V100H64V99ZM320 124H64V125H320V124ZM64 149H320V150H64V149ZM320 174H64V175H320V174Z" fill="#B7BCBF" fill-opacity="0.3"/>
<path fill-rule="evenodd" clip-rule="evenodd" d="M129 1H128V199H129V1ZM193 1H192V199H193V1Z" fill="#B7BCBF"/>
<path fill-rule="evenodd" clip-rule="evenodd" d="M65 1H64V199H65V1ZM257 1H256V199H257V1Z" fill="#B7BCBF"/>
<path fill-rule="evenodd" clip-rule="evenodd" d="M312 1H8C6.14348 1 4.36301 1.7375 3.05025 3.05025C1.7375 4.36301 1 6.14348 1 8V192C1 193.857 1.7375 195.637 3.05025 196.95C4.36301 198.263 6.14348 199 8 199H312C313.857 199 315.637 198.263 316.95 196.95C318.262 195.637 319 193.857 319 192V8C319 6.14348 318.262 4.36301 316.95 3.05025C315.637 1.7375 313.857 1 312 1ZM8 0C5.87827 0 3.84344 0.842855 2.34315 2.34315C0.842855 3.84344 0 5.87827 0 8L0 192C0 194.122 0.842855 196.157 2.34315 197.657C3.84344 199.157 5.87827 200 8 200H312C314.122 200 316.157 199.157 317.657 197.657C319.157 196.157 320 194.122 320 192V8C320 5.87827 319.157 3.84344 317.657 2.34315C316.157 0.842855 314.122 0 312 0L8 0Z" fill="#B7BCBF"/>
</g>
</g>
</g>
<defs>
<clipPath id="clip0_2226_2412">
<rect width="320" height="200" fill="white"/>
</clipPath>
</defs>
</svg>
