<svg width="320" height="200" fill="none" xmlns="http://www.w3.org/2000/svg">
  <g clip-path="url(#a)">
    <path fill="#071722" fill-opacity=".02" d="M64 74h256v26H64zm0 100h256v18a8 8 0 0 1-8 8H64v-26Z"/>
    <path d="M256 0h56a8 8 0 0 1 8 8v184a8 8 0 0 1-8 8h-56V0Z" fill="url(#b)" fill-opacity=".05"/>
    <path fill-rule="evenodd" clip-rule="evenodd" d="M64 24h256v1H64v-1Zm0 25h256v1H64v-1Zm256 25H64v1h256v-1ZM64 99h256v1H64v-1Zm256 25H64v1h256v-1ZM64 149h256v1H64v-1Zm256 25H64v1h256v-1Z" fill="#071722" fill-opacity=".05"/>
    <path fill-rule="evenodd" clip-rule="evenodd" d="M129 1h-1v198h1V1Zm64 0h-1v198h1V1Z" fill="#F3F3F4"/>
    <path fill-rule="evenodd" clip-rule="evenodd" d="M65 1h-1v198h1V1Zm192 0h-1v198h1V1Z" fill="#DCDFE0"/>
    <path fill-rule="evenodd" clip-rule="evenodd" d="M312 1H8a7 7 0 0 0-7 7v184a7 7 0 0 0 7 7h304a7 7 0 0 0 7-7V8a7 7 0 0 0-7-7ZM8 0a8 8 0 0 0-8 8v184a8 8 0 0 0 8 8h304a8 8 0 0 0 8-8V8a8 8 0 0 0-8-8H8Z" fill="#DCDFE0"/>
  </g>
  <defs>
    <linearGradient id="b" x1="288" y1="0" x2="288" y2="200" gradientUnits="userSpaceOnUse">
      <stop stop-color="#2F3C45" stop-opacity=".5"/>
      <stop offset="1" stop-color="#2F3C45"/>
    </linearGradient>
    <clipPath id="a">
      <path fill="#fff" d="M0 0h320v200H0z"/>
    </clipPath>
  </defs>
</svg>
