<svg width="320" height="200" viewBox="0 0 320 200" fill="none" xmlns="http://www.w3.org/2000/svg">
<path opacity="0.25" d="M0 80C0 77.8783 0.842855 75.8434 2.34315 74.3431C3.84344 72.8429 5.87827 72 8 72H312C314.122 72 316.157 72.8429 317.657 74.3431C319.157 75.8434 320 77.8783 320 80V120C320 122.122 319.157 124.157 317.657 125.657C316.157 127.157 314.122 128 312 128H8C5.87827 128 3.84344 127.157 2.34315 125.657C0.842855 124.157 0 122.122 0 120V80Z" fill="url(#paint0_linear_2220_3562)"/>
<path opacity="0.25" d="M0 80C0 77.8783 0.842855 75.8434 2.34315 74.3431C3.84344 72.8429 5.87827 72 8 72H240V128H8C5.87827 128 3.84344 127.157 2.34315 125.657C0.842855 124.157 0 122.122 0 120V80Z" fill="#B7BCBF" fill-opacity="0.75"/>
<path d="M5.60011 144.42C5.60846 144.97 5.54117 145.518 5.40011 146.05C5.26011 146.51 5.08011 146.88 4.84011 147.18C4.61011 147.48 4.34011 147.71 4.01011 147.85C3.69036 147.997 3.34213 148.072 2.99011 148.07C2.6348 148.078 2.28262 148.002 1.96268 147.847C1.64273 147.692 1.36421 147.464 1.15011 147.18C0.920107 146.88 0.730107 146.51 0.600107 146.05C0.459047 145.518 0.39175 144.97 0.400107 144.42C0.39175 143.87 0.459047 143.322 0.600107 142.79C0.730107 142.33 0.920107 141.95 1.15011 141.65C1.36257 141.364 1.64052 141.133 1.96066 140.976C2.2808 140.82 2.63381 140.742 2.99011 140.75C3.34782 140.742 3.70225 140.82 4.02399 140.976C4.34574 141.133 4.62552 141.364 4.84011 141.65C5.08011 141.95 5.26011 142.33 5.39011 142.79C5.53011 143.25 5.59011 143.79 5.59011 144.42H5.60011ZM4.67011 144.42C4.67011 143.87 4.63011 143.42 4.53011 143.04C4.4623 142.72 4.33693 142.415 4.16011 142.14C4.03526 141.944 3.86213 141.783 3.65729 141.672C3.45244 141.562 3.22273 141.506 2.99011 141.51C2.75654 141.507 2.5262 141.565 2.32128 141.677C2.11635 141.789 1.94375 141.952 1.82011 142.15C1.67011 142.37 1.55011 142.67 1.45011 143.05C1.36011 143.41 1.32011 143.87 1.32011 144.42C1.32011 144.97 1.36011 145.42 1.45011 145.8C1.55011 146.16 1.67011 146.46 1.82011 146.69C1.98011 146.92 2.16011 147.08 2.36011 147.18C2.55813 147.276 2.7752 147.325 2.99511 147.325C3.21502 147.325 3.43209 147.276 3.63011 147.18C3.83011 147.08 4.01011 146.92 4.16011 146.69C4.32011 146.46 4.44011 146.16 4.53011 145.79C4.63011 145.43 4.67011 144.97 4.67011 144.42Z" fill="#92999E"/>
<path fill-rule="evenodd" clip-rule="evenodd" d="M307.9 146.05C308.041 145.518 308.108 144.97 308.1 144.42C308.108 143.87 308.041 143.322 307.9 142.79C307.788 142.378 307.597 141.991 307.34 141.65C307.124 141.358 306.838 141.125 306.51 140.97C306.19 140.822 305.842 140.747 305.49 140.75C305.132 140.741 304.777 140.817 304.455 140.974C304.133 141.131 303.853 141.363 303.64 141.65C303.41 141.95 303.24 142.33 303.1 142.79C302.96 143.25 302.9 143.79 302.9 144.42C302.9 145.05 302.96 145.59 303.1 146.05C303.23 146.51 303.41 146.88 303.65 147.18C303.863 147.465 304.142 147.695 304.461 147.852C304.781 148.008 305.134 148.086 305.49 148.08C305.845 148.081 306.197 148.002 306.517 147.848C306.838 147.694 307.119 147.469 307.34 147.19C307.58 146.89 307.76 146.51 307.89 146.05H307.9ZM307.03 143.05C307.13 143.41 307.17 143.87 307.17 144.42C307.17 144.97 307.13 145.42 307.03 145.8C306.94 146.16 306.82 146.46 306.66 146.69C306.51 146.92 306.33 147.08 306.13 147.18C305.932 147.276 305.715 147.325 305.495 147.325C305.275 147.325 305.058 147.276 304.86 147.18C304.64 147.067 304.453 146.898 304.32 146.69C304.146 146.413 304.021 146.109 303.95 145.79C303.854 145.34 303.81 144.88 303.82 144.42C303.82 143.87 303.86 143.42 303.95 143.04C304.05 142.67 304.17 142.37 304.32 142.14C304.445 141.944 304.619 141.784 304.823 141.674C305.028 141.563 305.257 141.507 305.49 141.51C305.724 141.506 305.954 141.563 306.159 141.676C306.364 141.788 306.537 141.951 306.66 142.15C306.82 142.37 306.94 142.67 307.03 143.05ZM313.9 144.42C313.908 144.97 313.841 145.518 313.7 146.05C313.56 146.51 313.38 146.88 313.14 147.18C312.921 147.462 312.641 147.688 312.32 147.843C311.999 147.997 311.646 148.075 311.29 148.07C310.933 148.079 310.579 148.003 310.257 147.848C309.936 147.694 309.656 147.465 309.44 147.18C309.193 146.839 309.01 146.456 308.9 146.05C308.759 145.518 308.692 144.97 308.7 144.42C308.7 143.79 308.76 143.25 308.9 142.79C309.03 142.33 309.21 141.95 309.45 141.65C309.662 141.364 309.94 141.133 310.26 140.976C310.581 140.82 310.934 140.742 311.29 140.75C311.648 140.742 312.002 140.82 312.324 140.976C312.645 141.133 312.925 141.364 313.14 141.65C313.38 141.95 313.56 142.33 313.69 142.79C313.83 143.25 313.89 143.79 313.89 144.42H313.9ZM312.97 144.42C312.97 143.87 312.93 143.42 312.83 143.04C312.762 142.72 312.637 142.415 312.46 142.14C312.336 141.943 312.163 141.782 311.958 141.671C311.753 141.561 311.523 141.505 311.29 141.51C311.056 141.508 310.826 141.566 310.622 141.678C310.417 141.79 310.244 141.953 310.12 142.15C309.97 142.37 309.85 142.67 309.75 143.05C309.66 143.41 309.62 143.87 309.62 144.42C309.62 144.97 309.66 145.42 309.75 145.8C309.85 146.16 309.97 146.46 310.12 146.69C310.28 146.92 310.45 147.08 310.66 147.18C310.858 147.276 311.075 147.325 311.295 147.325C311.515 147.325 311.732 147.276 311.93 147.18C312.13 147.08 312.31 146.92 312.46 146.69C312.62 146.46 312.74 146.16 312.83 145.79C312.93 145.43 312.97 144.97 312.97 144.42ZM319.7 144.42C319.708 144.97 319.641 145.518 319.5 146.05C319.36 146.51 319.18 146.88 318.94 147.18C318.71 147.48 318.44 147.71 318.11 147.85C317.79 147.997 317.442 148.072 317.09 148.07C316.735 148.078 316.382 148.002 316.062 147.847C315.742 147.692 315.464 147.464 315.25 147.18C315.02 146.88 314.83 146.51 314.7 146.05C314.559 145.518 314.491 144.97 314.5 144.42C314.491 143.87 314.559 143.322 314.7 142.79C314.83 142.33 315.02 141.95 315.25 141.65C315.462 141.364 315.74 141.133 316.06 140.976C316.381 140.82 316.734 140.742 317.09 140.75C317.448 140.742 317.802 140.82 318.124 140.976C318.445 141.133 318.725 141.364 318.94 141.65C319.18 141.95 319.36 142.33 319.49 142.79C319.63 143.25 319.69 143.79 319.69 144.42H319.7ZM318.77 144.42C318.77 143.87 318.73 143.42 318.63 143.04C318.562 142.72 318.437 142.415 318.26 142.14C318.135 141.944 317.962 141.783 317.757 141.672C317.552 141.562 317.322 141.506 317.09 141.51C316.856 141.507 316.626 141.565 316.421 141.677C316.216 141.789 316.044 141.952 315.92 142.15C315.77 142.37 315.65 142.67 315.55 143.05C315.46 143.41 315.42 143.87 315.42 144.42C315.42 144.97 315.46 145.42 315.55 145.8C315.65 146.16 315.77 146.46 315.92 146.69C316.08 146.92 316.26 147.08 316.46 147.18C316.658 147.276 316.875 147.325 317.095 147.325C317.315 147.325 317.532 147.276 317.73 147.18C317.93 147.08 318.11 146.92 318.26 146.69C318.42 146.46 318.54 146.16 318.63 145.79C318.73 145.43 318.77 144.97 318.77 144.42ZM300.98 149.21C300.96 149.193 300.943 149.173 300.93 149.15C300.917 149.125 300.91 149.098 300.91 149.07C300.91 149.05 300.91 149.02 300.93 149C301.238 148.748 301.444 148.393 301.51 148H301.45C301.372 148.002 301.294 147.988 301.222 147.959C301.15 147.929 301.085 147.886 301.03 147.83C300.92 147.706 300.863 147.545 300.87 147.38C300.87 147.23 300.92 147.1 301.03 146.98C301.087 146.926 301.155 146.884 301.229 146.857C301.303 146.829 301.381 146.817 301.46 146.82C301.56 146.82 301.66 146.84 301.73 146.88C301.805 146.914 301.87 146.965 301.92 147.03C301.97 147.09 302.02 147.17 302.04 147.25C302.06 147.34 302.08 147.43 302.08 147.53C302.072 147.859 301.987 148.181 301.83 148.47C301.659 148.808 301.421 149.108 301.13 149.35L300.98 149.21ZM299.62 148V147.32H298.22V140.82H297.49L295.35 142.66L295.63 143.05C295.675 143.105 295.739 143.141 295.81 143.15H295.93C295.977 143.141 296.022 143.12 296.06 143.09L297.33 141.99L297.32 142.43V147.32H295.78V148H299.62ZM248.4 48.4201C248.408 48.97 248.341 49.5185 248.2 50.0501C248.086 50.4568 247.9 50.8397 247.65 51.1801C247.41 51.4801 247.13 51.7101 246.81 51.8501C246.49 51.9973 246.142 52.0724 245.79 52.0701C245.435 52.0775 245.083 52.0007 244.763 51.8461C244.443 51.6914 244.165 51.4631 243.95 51.1801C243.72 50.8801 243.53 50.5101 243.4 50.0501C243.259 49.5185 243.191 48.97 243.2 48.4201C243.191 47.8701 243.259 47.3217 243.4 46.7901C243.53 46.3301 243.72 45.9501 243.95 45.6501C244.162 45.3639 244.44 45.1329 244.76 44.9763C245.081 44.8197 245.434 44.7421 245.79 44.7501C246.16 44.7501 246.49 44.8301 246.82 44.9701C247.13 45.1201 247.42 45.3501 247.65 45.6501C247.88 45.9501 248.06 46.3301 248.19 46.7901C248.33 47.2501 248.4 47.7901 248.4 48.4201ZM247.47 48.4201C247.47 47.8701 247.43 47.4201 247.34 47.0401C247.269 46.7193 247.141 46.4142 246.96 46.1401C246.836 45.9431 246.663 45.7815 246.458 45.6711C246.253 45.5608 246.023 45.5053 245.79 45.5101C245.557 45.5062 245.328 45.5621 245.123 45.6724C244.918 45.7827 244.745 45.9437 244.62 46.1401C244.47 46.3701 244.35 46.6701 244.25 47.0401C244.16 47.4101 244.12 47.8701 244.12 48.4201C244.12 48.9701 244.16 49.4201 244.25 49.7901C244.35 50.1601 244.47 50.4601 244.63 50.6901C244.78 50.9201 244.96 51.0801 245.16 51.1801C245.358 51.2757 245.575 51.3254 245.795 51.3254C246.015 51.3254 246.232 51.2757 246.43 51.1801C246.63 51.0801 246.81 50.9201 246.96 50.6901C247.12 50.4601 247.24 50.1601 247.34 49.7901C247.43 49.4201 247.47 48.9701 247.47 48.4201ZM238.91 47.5401C239.28 47.4601 239.63 47.4201 239.94 47.4201C240.31 47.4201 240.64 47.4701 240.93 47.5801C241.22 47.7001 241.46 47.8501 241.65 48.0401C241.84 48.2401 241.98 48.4601 242.08 48.7301C242.305 49.3434 242.287 50.0195 242.03 50.6201C241.904 50.916 241.718 51.1826 241.484 51.403C241.25 51.6233 240.973 51.7926 240.67 51.9001C240.152 52.0936 239.59 52.1352 239.05 52.0201C238.534 51.9113 238.055 51.6701 237.66 51.3201L237.94 50.9401C237.964 50.9005 237.998 50.8678 238.038 50.845C238.078 50.8222 238.124 50.8102 238.17 50.8101C238.24 50.8101 238.31 50.8401 238.4 50.9001C238.633 51.0282 238.873 51.1418 239.12 51.2401C239.309 51.2917 239.504 51.3152 239.7 51.3101C239.95 51.3101 240.18 51.2701 240.38 51.1901C240.573 51.1124 240.748 50.9947 240.893 50.8448C241.038 50.6949 241.149 50.516 241.22 50.3201C241.371 49.9011 241.378 49.4435 241.24 49.0201C241.178 48.8449 241.075 48.6872 240.94 48.5601C240.81 48.4301 240.64 48.3301 240.45 48.2601C240.25 48.2001 240.02 48.1601 239.76 48.1601C239.366 48.1619 238.974 48.226 238.6 48.3501L238.04 48.1901L238.62 44.8401H242V45.2201C242 45.3501 241.96 45.4601 241.88 45.5401C241.8 45.6201 241.67 45.6601 241.48 45.6601H239.23L238.9 47.5401H238.91ZM236.71 45.2401V44.8401H231.84V45.4401C231.84 45.5001 231.86 45.5401 231.9 45.6001C231.95 45.6401 232 45.6601 232.05 45.6601H235.79C235.681 45.7928 235.587 45.937 235.51 46.0901L232.5 52.0001H233.14C233.27 52.0001 233.37 51.9701 233.44 51.9101C233.515 51.8502 233.576 51.7753 233.62 51.6901L236.59 45.7001C236.622 45.6405 236.646 45.5765 236.66 45.5101C236.688 45.4229 236.702 45.3317 236.7 45.2401H236.71Z" fill="#92999E"/>
<path d="M240 68L232 60H248L240 68Z" fill="#B7BCBF" fill-opacity="0.3"/>
<defs>
<linearGradient id="paint0_linear_2220_3562" x1="160" y1="74.24" x2="160" y2="125.76" gradientUnits="userSpaceOnUse">
<stop stop-color="#B7BCBF" stop-opacity="0.85"/>
<stop offset="1" stop-color="#B7BCBF"/>
</linearGradient>
</defs>
</svg>
