<svg xmlns="http://www.w3.org/2000/svg" width="320" height="200" fill="none"><path fill="url(#a)" d="M0 80a8 8 0 0 1 8-8h304a8 8 0 0 1 8 8v40a8 8 0 0 1-8 8H8a8 8 0 0 1-8-8V80Z"/><path fill="#071722" fill-opacity=".05" d="M0 80a8 8 0 0 1 8-8h232v56H8a8 8 0 0 1-8-8V80Z"/><path fill="#92999E" d="M5.6 144.42a6 6 0 0 1-.2 1.63c-.14.46-.32.83-.56 1.13-.23.3-.5.53-.83.67a2.4 2.4 0 0 1-1.02.22 2.24 2.24 0 0 1-1.84-.89c-.23-.3-.42-.67-.55-1.13a6 6 0 0 1-.2-1.63 6 6 0 0 1 .2-1.63c.13-.46.32-.84.55-1.14a2.23 2.23 0 0 1 1.84-.9 2.25 2.25 0 0 1 1.85.9c.24.3.42.68.55 1.14.14.46.2 1 .2 1.63Zm-.93 0c0-.55-.04-1-.14-1.38a2.7 2.7 0 0 0-.37-.9 1.36 1.36 0 0 0-1.17-.63 1.36 1.36 0 0 0-1.17.64c-.15.22-.27.52-.37.9-.09.36-.13.82-.13 1.37 0 .55.04 1 .13 1.38.1.36.22.66.37.89.16.23.34.39.54.49a1.46 1.46 0 0 0 1.27 0c.2-.1.38-.26.53-.49.16-.23.28-.53.37-.9.1-.36.14-.82.14-1.37Z"/><path fill="#92999E" fill-rule="evenodd" d="M307.9 146.05a6 6 0 0 0 .2-1.63 6 6 0 0 0-.2-1.63 3.35 3.35 0 0 0-.56-1.14 2.2 2.2 0 0 0-.83-.68 2.39 2.39 0 0 0-1.02-.22 2.23 2.23 0 0 0-1.85.9c-.23.3-.4.68-.54 1.14-.14.46-.2 1-.2 1.63 0 .63.06 1.17.2 1.63.13.46.31.83.55 1.13a2.25 2.25 0 0 0 1.84.9 2.35 2.35 0 0 0 1.85-.89c.24-.3.42-.68.55-1.14Zm-.87-3c.1.36.14.82.14 1.37 0 .55-.04 1-.14 1.38-.09.36-.21.66-.37.89-.15.23-.33.39-.53.49a1.46 1.46 0 0 1-1.27 0 1.4 1.4 0 0 1-.54-.49 2.86 2.86 0 0 1-.37-.9 5.93 5.93 0 0 1-.13-1.37c0-.55.04-1 .13-1.38.1-.37.22-.67.37-.9a1.37 1.37 0 0 1 1.17-.63 1.35 1.35 0 0 1 1.17.64c.16.22.28.52.37.9Zm6.87 1.37a6 6 0 0 1-.2 1.63c-.14.46-.32.83-.56 1.13a2.3 2.3 0 0 1-1.85.89 2.25 2.25 0 0 1-1.85-.89 3.5 3.5 0 0 1-.54-1.13 6 6 0 0 1-.2-1.63c0-.63.06-1.17.2-1.63.13-.46.31-.84.55-1.14a2.23 2.23 0 0 1 1.84-.9 2.25 2.25 0 0 1 1.85.9c.24.3.42.68.55 1.14.14.46.2 1 .2 1.63Zm-.93 0c0-.55-.04-1-.14-1.38a2.69 2.69 0 0 0-.37-.9 1.35 1.35 0 0 0-1.17-.63 1.37 1.37 0 0 0-1.17.64c-.15.22-.27.52-.37.9-.09.36-.13.82-.13 1.37 0 .55.04 1 .13 1.38.1.36.22.66.37.89.16.23.33.39.54.49a1.46 1.46 0 0 0 1.27 0c.2-.1.38-.26.53-.49.16-.23.28-.53.37-.9.1-.36.14-.82.14-1.37Zm6.73 0a6 6 0 0 1-.2 1.63c-.14.46-.32.83-.56 1.13-.23.3-.5.53-.83.67a2.4 2.4 0 0 1-1.02.22 2.24 2.24 0 0 1-1.84-.89c-.23-.3-.42-.67-.55-1.13a6 6 0 0 1-.2-1.63 6 6 0 0 1 .2-1.63c.13-.46.32-.84.55-1.14a2.23 2.23 0 0 1 1.84-.9 2.25 2.25 0 0 1 1.85.9c.24.3.42.68.55 1.14.14.46.2 1 .2 1.63Zm-.93 0c0-.55-.04-1-.14-1.38a2.69 2.69 0 0 0-.37-.9 1.36 1.36 0 0 0-1.17-.63 1.36 1.36 0 0 0-1.17.64c-.15.22-.27.52-.37.9-.09.36-.13.82-.13 1.37 0 .55.04 1 .13 1.38.1.36.22.66.37.89.16.23.34.39.54.49a1.46 1.46 0 0 0 1.27 0c.2-.1.38-.26.53-.49.16-.23.28-.53.37-.9.1-.36.14-.82.14-1.37Zm-17.79 4.79a.23.23 0 0 1-.05-.06.17.17 0 0 1-.02-.08c0-.02 0-.05.02-.07a1.64 1.64 0 0 0 .58-1h-.06a.57.57 0 0 1-.42-.17.64.64 0 0 1-.16-.45c0-.15.05-.28.16-.4a.59.59 0 0 1 .43-.16c.1 0 .2.02.27.06a.5.5 0 0 1 .19.15c.05.06.1.14.12.22.02.09.04.18.04.28a2.07 2.07 0 0 1-.25.94 2.77 2.77 0 0 1-.7.88l-.15-.14Zm-1.36-1.21v-.68h-1.4v-6.5h-.73l-2.14 1.84.28.39a.28.28 0 0 0 .18.1h.12a.3.3 0 0 0 .13-.06l1.27-1.1-.01.44v4.89h-1.54v.68h3.84ZM248.4 48.42a6 6 0 0 1-.2 1.63 3.5 3.5 0 0 1-.55 1.13c-.24.3-.52.53-.84.67a2.4 2.4 0 0 1-1.02.22 2.25 2.25 0 0 1-1.84-.89c-.23-.3-.42-.67-.55-1.13a6 6 0 0 1-.2-1.63 6 6 0 0 1 .2-1.63c.13-.46.32-.84.55-1.14a2.23 2.23 0 0 1 1.84-.9c.37 0 .7.08 1.03.22.31.15.6.38.83.68.23.3.41.68.54 1.14.14.46.21 1 .21 1.63Zm-.93 0c0-.55-.04-1-.13-1.38a2.68 2.68 0 0 0-.38-.9 1.35 1.35 0 0 0-1.17-.63 1.36 1.36 0 0 0-1.17.63c-.15.23-.27.53-.37.9-.09.37-.13.83-.13 1.38 0 .55.04 1 .13 1.37.1.37.22.67.38.9.15.23.33.39.53.49a1.46 1.46 0 0 0 1.27 0c.2-.1.38-.26.53-.49.16-.23.28-.53.38-.9.09-.37.13-.82.13-1.37Zm-8.56-.88c.37-.08.72-.12 1.03-.12.37 0 .7.05.99.16.29.12.53.27.72.46.19.2.33.42.43.69a2.56 2.56 0 0 1-.05 1.89 2.32 2.32 0 0 1-1.36 1.28 2.9 2.9 0 0 1-1.62.12 3.04 3.04 0 0 1-1.39-.7l.28-.38a.27.27 0 0 1 .23-.13c.07 0 .14.03.23.09a6.4 6.4 0 0 0 .72.34 2 2 0 0 0 .58.07c.25 0 .48-.04.68-.12a1.48 1.48 0 0 0 .84-.87 2 2 0 0 0 .02-1.3 1.16 1.16 0 0 0-.3-.46c-.13-.13-.3-.23-.49-.3-.2-.06-.43-.1-.69-.1a3.74 3.74 0 0 0-1.16.19l-.56-.16.58-3.35H242v.38c0 .13-.04.24-.12.32-.08.08-.21.12-.4.12h-2.25l-.33 1.88Zm-2.2-2.3v-.4h-4.87v.6c0 .06.02.1.06.16.05.04.1.06.15.06h3.74a2.36 2.36 0 0 0-.28.43L232.5 52h.64c.13 0 .23-.03.3-.09a.68.68 0 0 0 .18-.22l2.97-5.99a.69.69 0 0 0 .07-.19.82.82 0 0 0 .04-.27Z" clip-rule="evenodd"/><path fill="#071722" fill-opacity=".14" d="m240 68-8-8h16l-8 8Z"/><defs><linearGradient id="a" x1="160" x2="160" y1="74.24" y2="125.76" gradientUnits="userSpaceOnUse"><stop stop-color="#FAFAFB"/><stop offset="1" stop-color="#F3F3F4"/></linearGradient></defs></svg>