<svg width="320" height="200" viewBox="0 0 320 200" fill="none" xmlns="http://www.w3.org/2000/svg">
<g clip-path="url(#clip0_2220_3568)">
<mask id="mask0_2220_3568" style="mask-type:luminance" maskUnits="userSpaceOnUse" x="0" y="0" width="320" height="200">
<path d="M0 0H320V200H0V0Z" fill="white"/>
</mask>
<g mask="url(#mask0_2220_3568)">
<path fill-rule="evenodd" clip-rule="evenodd" d="M68.6003 191.42C68.6086 191.97 68.5413 192.518 68.4003 193.05C68.2603 193.51 68.0803 193.88 67.8403 194.18C67.6103 194.48 67.3403 194.71 67.0103 194.85C66.6905 194.997 66.3423 195.072 65.9903 195.07C65.635 195.078 65.2828 195.002 64.9628 194.847C64.6429 194.692 64.3644 194.464 64.1503 194.18C63.9203 193.88 63.7303 193.51 63.6003 193.05C63.4592 192.518 63.3919 191.97 63.4003 191.42C63.3919 190.87 63.4592 190.322 63.6003 189.79C63.7303 189.33 63.9203 188.95 64.1503 188.65C64.3627 188.364 64.6407 188.133 64.9608 187.976C65.281 187.82 65.634 187.742 65.9903 187.75C66.348 187.742 66.7024 187.82 67.0242 187.976C67.3459 188.133 67.6257 188.364 67.8403 188.65C68.0803 188.95 68.2603 189.33 68.3903 189.79C68.5303 190.25 68.5903 190.79 68.5903 191.42H68.6003ZM67.6703 191.42C67.6703 190.87 67.6303 190.42 67.5303 190.04C67.4625 189.72 67.3371 189.415 67.1603 189.14C67.0354 188.944 66.8623 188.783 66.6575 188.672C66.4526 188.562 66.2229 188.506 65.9903 188.51C65.7567 188.507 65.5264 188.565 65.3214 188.677C65.1165 188.789 64.9439 188.952 64.8203 189.15C64.6703 189.37 64.5503 189.67 64.4503 190.05C64.3603 190.41 64.3203 190.87 64.3203 191.42C64.3203 191.97 64.3603 192.42 64.4503 192.8C64.5503 193.16 64.6703 193.46 64.8203 193.69C64.9803 193.92 65.1603 194.08 65.3603 194.18C65.5583 194.276 65.7754 194.325 65.9953 194.325C66.2152 194.325 66.4323 194.276 66.6303 194.18C66.8303 194.08 67.0103 193.92 67.1603 193.69C67.3203 193.46 67.4403 193.16 67.5303 192.79C67.6303 192.43 67.6703 191.97 67.6703 191.42ZM74.4003 191.42C74.4086 191.97 74.3413 192.518 74.2003 193.05C74.0866 193.457 73.9003 193.84 73.6503 194.18C73.4103 194.48 73.1403 194.71 72.8203 194.85C72.5005 194.997 72.1523 195.072 71.8003 195.07C71.445 195.078 71.0928 195.002 70.7728 194.847C70.4529 194.692 70.1744 194.464 69.9603 194.18C69.7203 193.88 69.5303 193.51 69.4003 193.05C69.2592 192.518 69.1919 191.97 69.2003 191.42C69.1919 190.87 69.2592 190.322 69.4003 189.79C69.5303 189.33 69.7203 188.95 69.9503 188.65C70.1637 188.362 70.4433 188.131 70.7653 187.974C71.0873 187.817 71.4423 187.74 71.8003 187.75C72.158 187.742 72.5124 187.82 72.8342 187.976C73.1559 188.133 73.4357 188.364 73.6503 188.65C73.8803 188.95 74.0603 189.33 74.2003 189.79C74.3413 190.322 74.4086 190.87 74.4003 191.42ZM73.4803 191.42C73.4803 190.87 73.4303 190.42 73.3403 190.04C73.2725 189.72 73.1471 189.415 72.9703 189.14C72.8454 188.944 72.6723 188.783 72.4675 188.672C72.2626 188.562 72.0329 188.506 71.8003 188.51C71.5667 188.507 71.3364 188.565 71.1314 188.677C70.9265 188.789 70.7539 188.952 70.6303 189.15C70.4703 189.37 70.3503 189.67 70.2603 190.05C70.1603 190.41 70.1203 190.87 70.1203 191.42C70.1203 191.97 70.1703 192.42 70.2603 192.8C70.3503 193.16 70.4703 193.46 70.6303 193.69C70.7803 193.92 70.9603 194.08 71.1603 194.18C71.3583 194.276 71.5754 194.325 71.7953 194.325C72.0152 194.325 72.2323 194.276 72.4303 194.18C72.6303 194.08 72.8103 193.92 72.9703 193.69C73.1203 193.46 73.2503 193.16 73.3403 192.79C73.4303 192.43 73.4803 191.97 73.4803 191.42ZM62.3803 195V194.32H60.9803V187.82H60.2503L58.1203 189.66L58.4003 190.05C58.4423 190.104 58.503 190.139 58.5703 190.15H58.6903C58.7378 190.141 58.7824 190.12 58.8203 190.09L60.1003 188.99L60.0803 189.43V194.32H58.5503V195H62.3903H62.3803ZM118.46 194.24C118.431 194.209 118.395 194.186 118.355 194.17C118.315 194.155 118.273 194.148 118.23 194.15H115.83C115.71 194.15 115.58 194.17 115.43 194.19L115.03 194.28L116.93 192.34L117.49 191.75C117.67 191.55 117.83 191.35 117.96 191.15C118.1 190.94 118.21 190.72 118.29 190.49C118.465 189.975 118.447 189.413 118.24 188.91C118.138 188.67 117.984 188.455 117.79 188.28C117.59 188.11 117.37 187.98 117.1 187.89C116.826 187.8 116.539 187.756 116.25 187.76C115.95 187.76 115.66 187.8 115.4 187.89C114.994 188.024 114.636 188.275 114.371 188.611C114.106 188.947 113.946 189.353 113.91 189.78L114.38 189.85C114.5 189.87 114.6 189.86 114.66 189.82C114.73 189.79 114.79 189.71 114.83 189.59C114.894 189.276 115.069 188.996 115.322 188.799C115.575 188.603 115.89 188.504 116.21 188.52C116.39 188.52 116.56 188.55 116.71 188.6C116.863 188.648 117.004 188.729 117.121 188.838C117.239 188.947 117.331 189.081 117.39 189.23C117.46 189.38 117.49 189.57 117.49 189.78C117.49 189.98 117.46 190.18 117.4 190.37C117.338 190.559 117.254 190.74 117.15 190.91C117.04 191.1 116.91 191.28 116.75 191.46L116.23 192.01L113.93 194.31C113.83 194.411 113.772 194.547 113.77 194.69V195H118.55V194.46C118.551 194.419 118.543 194.378 118.528 194.341C118.513 194.303 118.489 194.269 118.46 194.24ZM124.6 191.42C124.609 191.97 124.541 192.518 124.4 193.05C124.26 193.51 124.08 193.88 123.84 194.18C123.622 194.461 123.341 194.688 123.02 194.843C122.699 194.997 122.347 195.075 121.99 195.07C121.635 195.077 121.283 195.001 120.963 194.846C120.644 194.691 120.365 194.463 120.15 194.18C119.92 193.88 119.73 193.51 119.6 193.05C119.459 192.518 119.392 191.97 119.4 191.42C119.392 190.87 119.459 190.322 119.6 189.79C119.73 189.33 119.92 188.95 120.15 188.65C120.363 188.364 120.641 188.133 120.961 187.976C121.281 187.82 121.634 187.742 121.99 187.75C122.348 187.742 122.702 187.82 123.024 187.976C123.346 188.133 123.626 188.364 123.84 188.65C124.08 188.95 124.26 189.33 124.39 189.79C124.53 190.25 124.59 190.79 124.59 191.42H124.6ZM123.67 191.42C123.67 190.87 123.63 190.42 123.53 190.04C123.463 189.72 123.337 189.415 123.16 189.14C123.036 188.943 122.863 188.781 122.658 188.671C122.453 188.561 122.223 188.505 121.99 188.51C121.757 188.508 121.527 188.566 121.322 188.678C121.117 188.79 120.945 188.952 120.82 189.15C120.67 189.37 120.55 189.67 120.45 190.05C120.36 190.41 120.32 190.87 120.32 191.42C120.32 191.97 120.36 192.42 120.45 192.8C120.55 193.16 120.67 193.46 120.82 193.69C120.98 193.92 121.16 194.08 121.36 194.18C121.558 194.276 121.775 194.325 121.995 194.325C122.215 194.325 122.432 194.276 122.63 194.18C122.83 194.08 123.01 193.92 123.16 193.69C123.32 193.46 123.44 193.16 123.53 192.79C123.63 192.43 123.67 191.97 123.67 191.42ZM130.4 191.42C130.409 191.97 130.341 192.518 130.2 193.05C130.087 193.457 129.9 193.84 129.65 194.18C129.431 194.463 129.148 194.691 128.826 194.845C128.503 195 128.148 195.077 127.79 195.07C127.435 195.077 127.083 195.001 126.763 194.846C126.444 194.691 126.165 194.463 125.95 194.18C125.72 193.88 125.53 193.51 125.4 193.05C125.259 192.518 125.192 191.97 125.2 191.42C125.192 190.87 125.259 190.322 125.4 189.79C125.53 189.33 125.72 188.95 125.95 188.65C126.163 188.364 126.441 188.133 126.761 187.976C127.081 187.82 127.434 187.742 127.79 187.75C128.16 187.75 128.49 187.83 128.81 187.97C129.13 188.12 129.41 188.35 129.65 188.65C129.88 188.95 130.06 189.33 130.19 189.79C130.33 190.25 130.4 190.79 130.4 191.42ZM129.47 191.42C129.47 190.87 129.43 190.42 129.34 190.04C129.27 189.719 129.141 189.414 128.96 189.14C128.836 188.943 128.663 188.781 128.458 188.671C128.253 188.561 128.023 188.505 127.79 188.51C127.557 188.508 127.327 188.566 127.122 188.678C126.917 188.79 126.745 188.952 126.62 189.15C126.47 189.37 126.35 189.67 126.26 190.05C126.066 190.956 126.063 191.893 126.25 192.8C126.35 193.16 126.47 193.46 126.63 193.69C126.78 193.92 126.96 194.08 127.16 194.18C127.358 194.276 127.575 194.325 127.795 194.325C128.015 194.325 128.232 194.276 128.43 194.18C128.63 194.08 128.81 193.92 128.96 193.69C129.12 193.46 129.24 193.16 129.34 192.79C129.43 192.43 129.47 191.97 129.47 191.42ZM170.22 188.91C170.09 189.16 170 189.45 169.95 189.78L170.41 189.85C170.54 189.87 170.63 189.86 170.69 189.82C170.76 189.79 170.82 189.71 170.86 189.59C170.924 189.276 171.099 188.996 171.352 188.799C171.605 188.603 171.92 188.504 172.24 188.52C172.42 188.52 172.59 188.54 172.74 188.59C172.889 188.638 173.025 188.718 173.141 188.823C173.257 188.928 173.348 189.057 173.41 189.2C173.48 189.35 173.51 189.53 173.51 189.74C173.51 189.93 173.48 190.1 173.41 190.25C173.348 190.408 173.245 190.546 173.11 190.65C172.99 190.75 172.81 190.85 172.59 190.9C172.39 190.97 172.12 191 171.81 191V191.65C172.19 191.65 172.49 191.68 172.73 191.75C172.97 191.82 173.16 191.91 173.29 192.03C173.43 192.14 173.52 192.28 173.57 192.44C173.62 192.6 173.65 192.78 173.65 192.97C173.649 193.312 173.512 193.639 173.27 193.88C173.15 194.01 172.99 194.12 172.8 194.2C172.61 194.28 172.4 194.32 172.14 194.32C171.937 194.33 171.734 194.297 171.544 194.223C171.355 194.149 171.183 194.035 171.04 193.89C170.94 193.77 170.84 193.65 170.77 193.51C170.716 193.4 170.663 193.29 170.61 193.18C170.593 193.138 170.565 193.101 170.531 193.071C170.496 193.041 170.455 193.021 170.41 193.01C170.309 192.99 170.203 193.004 170.11 193.05L169.73 193.21C169.81 193.48 169.91 193.72 170.03 193.96C170.276 194.42 170.687 194.771 171.18 194.94C171.45 195.04 171.78 195.08 172.15 195.08C172.48 195.08 172.79 195.03 173.08 194.93C173.37 194.83 173.62 194.69 173.84 194.51C174.065 194.318 174.244 194.078 174.365 193.809C174.486 193.539 174.546 193.246 174.54 192.95C174.54 192.51 174.42 192.15 174.18 191.85C173.906 191.537 173.538 191.323 173.13 191.24C173.33 191.18 173.5 191.1 173.65 191C173.951 190.817 174.178 190.534 174.29 190.2C174.35 190.02 174.38 189.82 174.38 189.59C174.38 189.31 174.33 189.06 174.22 188.84C174.12 188.61 173.98 188.41 173.79 188.25C173.61 188.09 173.39 187.97 173.13 187.88C172.579 187.695 171.982 187.695 171.43 187.88C170.908 188.047 170.473 188.414 170.22 188.9V188.91ZM180.6 191.42C180.609 191.97 180.541 192.518 180.4 193.05C180.26 193.51 180.08 193.88 179.84 194.18C179.622 194.461 179.341 194.688 179.02 194.843C178.699 194.997 178.347 195.075 177.99 195.07C177.635 195.077 177.283 195.001 176.963 194.846C176.644 194.691 176.365 194.463 176.15 194.18C175.92 193.88 175.73 193.51 175.6 193.05C175.459 192.518 175.392 191.97 175.4 191.42C175.392 190.87 175.459 190.322 175.6 189.79C175.73 189.33 175.92 188.95 176.15 188.65C176.363 188.364 176.641 188.133 176.961 187.976C177.281 187.82 177.634 187.742 177.99 187.75C178.348 187.742 178.702 187.82 179.024 187.976C179.346 188.133 179.626 188.364 179.84 188.65C180.08 188.95 180.26 189.33 180.39 189.79C180.53 190.25 180.59 190.79 180.59 191.42H180.6ZM179.67 191.42C179.67 190.87 179.63 190.42 179.53 190.04C179.463 189.72 179.337 189.415 179.16 189.14C179.036 188.943 178.863 188.781 178.658 188.671C178.453 188.561 178.223 188.505 177.99 188.51C177.757 188.508 177.527 188.566 177.322 188.678C177.117 188.79 176.945 188.952 176.82 189.15C176.67 189.37 176.55 189.67 176.45 190.05C176.36 190.41 176.32 190.87 176.32 191.42C176.32 191.97 176.36 192.42 176.45 192.8C176.55 193.16 176.67 193.46 176.82 193.69C176.98 193.92 177.16 194.08 177.36 194.18C177.558 194.276 177.775 194.325 177.995 194.325C178.215 194.325 178.432 194.276 178.63 194.18C178.83 194.08 179.01 193.92 179.16 193.69C179.32 193.46 179.44 193.16 179.53 192.79C179.63 192.43 179.67 191.97 179.67 191.42ZM186.4 191.42C186.409 191.97 186.341 192.518 186.2 193.05C186.087 193.457 185.9 193.84 185.65 194.18C185.431 194.463 185.148 194.691 184.826 194.845C184.503 195 184.148 195.077 183.79 195.07C183.435 195.077 183.083 195.001 182.763 194.846C182.444 194.691 182.165 194.463 181.95 194.18C181.72 193.88 181.53 193.51 181.4 193.05C181.259 192.518 181.192 191.97 181.2 191.42C181.192 190.87 181.259 190.322 181.4 189.79C181.53 189.33 181.72 188.95 181.95 188.65C182.163 188.364 182.441 188.133 182.761 187.976C183.081 187.82 183.434 187.742 183.79 187.75C184.16 187.75 184.49 187.83 184.82 187.97C185.13 188.12 185.42 188.35 185.65 188.65C185.88 188.95 186.06 189.33 186.19 189.79C186.33 190.25 186.4 190.79 186.4 191.42ZM185.47 191.42C185.47 190.87 185.43 190.42 185.34 190.04C185.27 189.719 185.141 189.414 184.96 189.14C184.836 188.943 184.663 188.781 184.458 188.671C184.253 188.561 184.023 188.505 183.79 188.51C183.557 188.508 183.327 188.566 183.122 188.678C182.917 188.79 182.745 188.952 182.62 189.15C182.47 189.37 182.35 189.67 182.25 190.05C182.16 190.41 182.12 190.87 182.12 191.42C182.12 191.97 182.16 192.42 182.25 192.8C182.35 193.16 182.47 193.46 182.63 193.69C182.78 193.92 182.96 194.08 183.16 194.18C183.358 194.276 183.575 194.325 183.795 194.325C184.015 194.325 184.232 194.276 184.43 194.18C184.63 194.08 184.81 193.92 184.96 193.69C185.12 193.46 185.24 193.16 185.34 192.79C185.43 192.43 185.47 191.97 185.47 191.42ZM236.6 191.42C236.609 191.97 236.541 192.518 236.4 193.05C236.26 193.51 236.08 193.88 235.84 194.18C235.622 194.461 235.341 194.688 235.02 194.843C234.699 194.997 234.347 195.075 233.99 195.07C233.635 195.077 233.283 195.001 232.963 194.846C232.644 194.691 232.365 194.463 232.15 194.18C231.92 193.88 231.73 193.51 231.6 193.05C231.459 192.518 231.392 191.97 231.4 191.42C231.392 190.87 231.459 190.322 231.6 189.79C231.73 189.33 231.92 188.95 232.15 188.65C232.363 188.364 232.641 188.133 232.961 187.976C233.281 187.82 233.634 187.742 233.99 187.75C234.348 187.742 234.702 187.82 235.024 187.976C235.346 188.133 235.626 188.364 235.84 188.65C236.08 188.95 236.26 189.33 236.39 189.79C236.53 190.25 236.59 190.79 236.59 191.42H236.6ZM235.67 191.42C235.67 190.87 235.63 190.42 235.53 190.04C235.463 189.72 235.337 189.415 235.16 189.14C235.036 188.943 234.863 188.781 234.658 188.671C234.453 188.561 234.223 188.505 233.99 188.51C233.757 188.508 233.527 188.566 233.322 188.678C233.117 188.79 232.945 188.952 232.82 189.15C232.67 189.37 232.55 189.67 232.45 190.05C232.36 190.41 232.32 190.87 232.32 191.42C232.32 191.97 232.36 192.42 232.45 192.8C232.55 193.16 232.67 193.46 232.82 193.69C232.98 193.92 233.16 194.08 233.36 194.18C233.558 194.276 233.775 194.325 233.995 194.325C234.215 194.325 234.432 194.276 234.63 194.18C234.83 194.08 235.01 193.92 235.16 193.69C235.32 193.46 235.44 193.16 235.53 192.79C235.63 192.43 235.67 191.97 235.67 191.42ZM242.4 191.42C242.409 191.97 242.341 192.518 242.2 193.05C242.087 193.457 241.9 193.84 241.65 194.18C241.431 194.463 241.148 194.691 240.826 194.845C240.503 195 240.148 195.077 239.79 195.07C239.435 195.077 239.083 195.001 238.763 194.846C238.444 194.691 238.165 194.463 237.95 194.18C237.72 193.88 237.53 193.51 237.4 193.05C237.259 192.518 237.192 191.97 237.2 191.42C237.192 190.87 237.259 190.322 237.4 189.79C237.53 189.33 237.72 188.95 237.95 188.65C238.163 188.364 238.441 188.133 238.761 187.976C239.081 187.82 239.434 187.742 239.79 187.75C240.16 187.75 240.49 187.83 240.82 187.97C241.13 188.12 241.42 188.35 241.65 188.65C241.88 188.95 242.06 189.33 242.19 189.79C242.33 190.25 242.4 190.79 242.4 191.42ZM241.47 191.42C241.47 190.87 241.43 190.42 241.34 190.04C241.27 189.719 241.141 189.414 240.96 189.14C240.836 188.943 240.663 188.781 240.458 188.671C240.253 188.561 240.023 188.505 239.79 188.51C239.557 188.508 239.327 188.566 239.122 188.678C238.917 188.79 238.745 188.952 238.62 189.15C238.47 189.37 238.35 189.67 238.25 190.05C238.16 190.41 238.12 190.87 238.12 191.42C238.12 191.97 238.16 192.42 238.25 192.8C238.35 193.16 238.47 193.46 238.63 193.69C238.78 193.92 238.96 194.08 239.16 194.18C239.358 194.276 239.575 194.325 239.795 194.325C240.015 194.325 240.232 194.276 240.43 194.18C240.63 194.08 240.81 193.92 240.96 193.69C241.12 193.46 241.24 193.16 241.34 192.79C241.43 192.43 241.47 191.97 241.47 191.42ZM228.95 189.46V192.41H226.38L228.98 188.86C228.96 189.059 228.95 189.26 228.95 189.46ZM230.81 192.93V192.41H229.73V187.84H228.9L225.41 192.46L225.51 192.91C225.51 192.97 225.55 193.02 225.59 193.06C225.64 193.1 225.7 193.12 225.77 193.12H228.95V195H229.73V193.12H230.62C230.69 193.12 230.73 193.1 230.76 193.06C230.792 193.024 230.81 192.978 230.81 192.93ZM292.6 191.42C292.609 191.97 292.541 192.518 292.4 193.05C292.26 193.51 292.08 193.88 291.84 194.18C291.622 194.461 291.341 194.688 291.02 194.843C290.699 194.997 290.346 195.075 289.99 195.07C289.633 195.079 289.28 195.003 288.958 194.848C288.636 194.693 288.356 194.464 288.14 194.18C287.92 193.88 287.74 193.51 287.6 193.05C287.459 192.518 287.392 191.97 287.4 191.42C287.392 190.87 287.459 190.322 287.6 189.79C287.73 189.33 287.92 188.95 288.15 188.65C288.363 188.364 288.641 188.133 288.961 187.976C289.281 187.82 289.634 187.742 289.99 187.75C290.348 187.742 290.702 187.82 291.024 187.976C291.346 188.133 291.626 188.364 291.84 188.65C292.08 188.95 292.26 189.33 292.39 189.79C292.53 190.25 292.59 190.79 292.59 191.42H292.6ZM291.67 191.42C291.67 190.87 291.63 190.42 291.53 190.04C291.463 189.72 291.337 189.415 291.16 189.14C291.036 188.943 290.863 188.781 290.658 188.671C290.453 188.561 290.223 188.505 289.99 188.51C289.757 188.508 289.527 188.566 289.322 188.678C289.117 188.79 288.945 188.952 288.82 189.15C288.67 189.37 288.55 189.67 288.45 190.05C288.36 190.41 288.32 190.87 288.32 191.42C288.32 191.97 288.36 192.42 288.45 192.8C288.55 193.16 288.67 193.46 288.82 193.69C288.98 193.92 289.16 194.08 289.36 194.18C289.558 194.276 289.775 194.325 289.995 194.325C290.215 194.325 290.432 194.276 290.63 194.18C290.83 194.08 291.01 193.92 291.16 193.69C291.32 193.46 291.44 193.16 291.53 192.79C291.63 192.43 291.67 191.97 291.67 191.42ZM298.4 191.42C298.409 191.97 298.341 192.518 298.2 193.05C298.06 193.51 297.88 193.88 297.64 194.18C297.41 194.48 297.14 194.71 296.82 194.85C296.5 195 296.16 195.07 295.8 195.07C295.443 195.079 295.09 195.003 294.768 194.848C294.446 194.693 294.166 194.464 293.95 194.18C293.72 193.88 293.53 193.51 293.4 193.05C293.259 192.518 293.192 191.97 293.2 191.42C293.192 190.87 293.259 190.322 293.4 189.79C293.53 189.33 293.72 188.95 293.95 188.65C294.164 188.362 294.443 188.131 294.765 187.974C295.087 187.817 295.442 187.74 295.8 187.75C296.156 187.744 296.509 187.822 296.829 187.978C297.148 188.135 297.427 188.365 297.64 188.65C297.88 188.95 298.06 189.33 298.2 189.79C298.341 190.322 298.409 190.87 298.4 191.42ZM297.48 191.42C297.48 190.87 297.43 190.42 297.33 190.04C297.263 189.72 297.137 189.415 296.96 189.14C296.837 188.944 296.666 188.784 296.463 188.674C296.259 188.563 296.031 188.507 295.8 188.51C295.567 188.508 295.337 188.566 295.132 188.678C294.927 188.79 294.755 188.952 294.63 189.15C294.45 189.424 294.321 189.729 294.25 190.05C294.17 190.41 294.12 190.87 294.12 191.42C294.12 191.97 294.17 192.42 294.25 192.8C294.35 193.16 294.47 193.46 294.63 193.69C294.78 193.92 294.96 194.08 295.16 194.18C295.358 194.276 295.575 194.325 295.795 194.325C296.015 194.325 296.232 194.276 296.43 194.18C296.63 194.08 296.81 193.92 296.96 193.69C297.12 193.46 297.25 193.16 297.34 192.79C297.43 192.43 297.48 191.97 297.48 191.42ZM284.14 190.42C283.83 190.42 283.48 190.46 283.11 190.54L283.44 188.66H285.69C285.88 188.66 286.01 188.62 286.09 188.54C286.169 188.456 286.212 188.345 286.21 188.23V187.83H282.81L282.24 191.18L282.8 191.35C283.174 191.226 283.566 191.162 283.96 191.16C284.22 191.16 284.46 191.19 284.65 191.26C284.85 191.34 285.01 191.43 285.14 191.56C285.27 191.69 285.37 191.84 285.44 192.02C285.58 192.443 285.573 192.901 285.42 193.32C285.351 193.518 285.24 193.699 285.096 193.851C284.951 194.003 284.775 194.122 284.58 194.2C284.38 194.28 284.15 194.32 283.9 194.32C283.551 194.325 283.206 194.239 282.9 194.07C282.799 194.016 282.699 193.959 282.6 193.9C282.534 193.848 282.454 193.817 282.37 193.81C282.323 193.811 282.276 193.823 282.235 193.846C282.193 193.869 282.157 193.901 282.13 193.94L281.86 194.32C282.105 194.547 282.39 194.727 282.7 194.85C283.392 195.134 284.164 195.156 284.87 194.91C285.175 194.802 285.453 194.631 285.687 194.409C285.921 194.187 286.106 193.918 286.23 193.62C286.49 193.016 286.508 192.336 286.28 191.72C286.185 191.458 286.032 191.22 285.833 191.025C285.634 190.829 285.394 190.681 285.13 190.59C284.81 190.472 284.471 190.414 284.13 190.42H284.14ZM4.60027 16.43L5.72027 19.34H3.04027L4.17027 16.43C4.24027 16.25 4.31027 16.03 4.38027 15.76C4.43929 15.9866 4.50937 16.2102 4.59027 16.43H4.60027ZM6.98027 22H7.73027L4.86027 14.84H3.90027L1.03027 22H1.78027C1.86027 22 1.93027 21.98 1.99027 21.93C2.05027 21.88 2.09027 21.83 2.10027 21.77L2.77027 20.04H6.00027L6.67027 21.77C6.69608 21.8326 6.73737 21.8876 6.79027 21.93C6.84027 21.98 6.91027 22 7.00027 22H6.98027ZM10.0003 17.98H9.64027V14.84H8.67027V22H9.64027V18.72H10.0803C10.2303 18.72 10.3503 18.74 10.4303 18.77C10.5003 18.81 10.5803 18.87 10.6403 18.95L13.1103 21.8L13.1803 21.89L13.2803 21.95L13.3803 21.99L13.5503 22H14.3903L11.5403 18.6C11.478 18.5197 11.4076 18.4459 11.3303 18.38C11.2556 18.3216 11.1709 18.2775 11.0803 18.25C11.1523 18.2155 11.2195 18.1718 11.2803 18.12L11.4803 17.92L14.2003 14.83H13.3803C13.2803 14.83 13.1803 14.85 13.1103 14.88C13.0304 14.9234 12.9619 14.9851 12.9103 15.06L10.5103 17.76C10.4577 17.8314 10.3893 17.8896 10.3103 17.93C10.2141 17.9645 10.1125 17.9815 10.0103 17.98H10.0003ZM4.60027 50.42L5.72027 53.34H3.04027L4.17027 50.43C4.24027 50.25 4.31027 50.03 4.38027 49.76C4.4396 49.9832 4.50968 50.2035 4.59027 50.42H4.60027ZM6.98027 56H7.73027L4.86027 48.84H3.90027L1.03027 56H1.78027C1.86027 56 1.93027 55.98 1.99027 55.93C2.05027 55.88 2.09027 55.83 2.10027 55.77L2.77027 54.04H6.00027L6.67027 55.77C6.69608 55.8326 6.73737 55.8876 6.79027 55.93C6.84027 55.98 6.91027 56 7.00027 56H6.98027ZM12.7403 56V55.19H9.64027V48.84H8.67027V56H12.7403ZM7.08027 88.58C7.06234 88.5608 7.04064 88.5456 7.01655 88.5353C6.99246 88.525 6.96649 88.5198 6.94027 88.52C6.87562 88.5245 6.81499 88.553 6.77027 88.6L6.40027 88.89C6.13057 89.0529 5.83164 89.1616 5.52027 89.21C5.35027 89.2299 5.16027 89.24 4.94027 89.24C4.60903 89.254 4.27874 89.195 3.97286 89.0671C3.66697 88.9392 3.39296 88.7456 3.17027 88.5C2.94239 88.2387 2.76596 87.9367 2.65027 87.61C2.51862 87.2273 2.45433 86.8246 2.46027 86.42C2.46027 85.9799 2.53027 85.58 2.65027 85.23C2.77027 84.89 2.95027 84.59 3.16027 84.34C3.39377 84.0966 3.67516 83.9044 3.98669 83.7753C4.29822 83.6462 4.63313 83.5831 4.97027 83.59C5.56261 83.5771 6.14146 83.7677 6.61027 84.13C6.71027 84.1899 6.77027 84.23 6.83027 84.23C6.89027 84.23 6.93027 84.21 6.96027 84.19C6.99211 84.169 7.01933 84.1418 7.04027 84.11L7.36027 83.67C6.71646 83.0659 5.86296 82.736 4.98027 82.75C4.46027 82.75 3.98027 82.85 3.55027 83.03C3.12958 83.1996 2.74974 83.4567 2.43597 83.7843C2.12219 84.1118 1.88164 84.5024 1.73027 84.93C1.37604 85.8877 1.37249 86.9399 1.72027 87.9C1.85924 88.326 2.08837 88.7172 2.39208 89.0468C2.69579 89.3764 3.06694 89.6367 3.48027 89.81C3.90027 89.99 4.38027 90.08 4.88027 90.08C5.48027 90.08 5.98027 89.98 6.40027 89.8C6.82027 89.6 7.18027 89.34 7.47027 89L7.08027 88.58ZM11.2803 84.42L12.4003 87.34H9.72027L10.8503 84.43C10.9203 84.25 10.9903 84.03 11.0603 83.75C11.1192 83.9766 11.1893 84.2002 11.2703 84.42H11.2803ZM13.6603 90H14.4103L11.5403 82.83H10.5603L7.71027 90H8.46027C8.54027 90 8.61027 89.98 8.66027 89.93C8.7174 89.8919 8.75975 89.8354 8.78027 89.77L9.45027 88.04H12.6703L13.3403 89.77C13.3646 89.8362 13.406 89.8949 13.4603 89.94C13.5103 89.98 13.5803 90 13.6603 90ZM7.08027 122.58C7.06234 122.561 7.04064 122.546 7.01655 122.535C6.99246 122.525 6.96649 122.52 6.94027 122.52C6.87562 122.524 6.81499 122.553 6.77027 122.6L6.40027 122.89C6.13013 123.052 5.83139 123.161 5.52027 123.21C5.35027 123.23 5.16027 123.24 4.94027 123.24C4.60911 123.253 4.27904 123.194 3.97326 123.066C3.66747 122.938 3.39339 122.745 3.17027 122.5C2.94239 122.239 2.76596 121.937 2.65027 121.61C2.51862 121.227 2.45433 120.825 2.46027 120.42C2.46027 119.98 2.53027 119.58 2.65027 119.23C2.77027 118.89 2.95027 118.59 3.16027 118.34C3.39377 118.097 3.67516 117.904 3.98669 117.775C4.29822 117.646 4.63313 117.583 4.97027 117.59C5.56273 117.576 6.14185 117.767 6.61027 118.13C6.71027 118.19 6.77027 118.23 6.83027 118.23C6.89027 118.23 6.93027 118.21 6.96027 118.19C6.99211 118.169 7.01933 118.142 7.04027 118.11L7.36027 117.67C6.71646 117.066 5.86296 116.736 4.98027 116.75C4.46027 116.75 3.98027 116.85 3.55027 117.03C3.12991 117.2 2.75037 117.457 2.43667 117.785C2.12296 118.112 1.88221 118.503 1.73027 118.93C1.37604 119.888 1.37249 120.94 1.72027 121.9C1.85924 122.326 2.08837 122.717 2.39208 123.047C2.69579 123.376 3.06694 123.637 3.48027 123.81C3.90027 123.99 4.38027 124.08 4.88027 124.08C5.48027 124.08 5.98027 123.98 6.40027 123.8C6.82027 123.6 7.18027 123.34 7.47027 123L7.08027 122.58ZM14.8203 121.9C14.9903 121.45 15.0803 120.96 15.0803 120.42C15.0803 119.88 14.9903 119.39 14.8203 118.94C14.6692 118.507 14.4266 118.111 14.1092 117.78C13.7917 117.448 13.4067 117.189 12.9803 117.02C12.5229 116.835 12.0334 116.744 11.5403 116.75C11.0203 116.75 10.5403 116.85 10.1003 117.03C9.67706 117.2 9.29494 117.458 8.97939 117.788C8.66384 118.117 8.4221 118.51 8.27027 118.94C8.10027 119.39 8.01027 119.88 8.01027 120.42C8.01027 120.96 8.10027 121.45 8.27027 121.9C8.42601 122.329 8.67028 122.721 8.98727 123.051C9.30425 123.38 9.68686 123.638 10.1103 123.81C11.0327 124.172 12.0578 124.172 12.9803 123.81C13.404 123.639 13.7869 123.38 14.104 123.051C14.421 122.722 14.6651 122.33 14.8203 121.9ZM13.9003 119.23C14.0203 119.58 14.0803 119.98 14.0803 120.42C14.0803 120.86 14.0203 121.25 13.9003 121.61C13.805 121.933 13.6376 122.231 13.4107 122.48C13.1838 122.73 12.9033 122.925 12.5903 123.05C11.9168 123.307 11.1713 123.304 10.5003 123.04C10.1873 122.913 9.90653 122.718 9.67824 122.468C9.44996 122.219 9.27987 121.923 9.18027 121.6C9.05575 121.219 8.99493 120.821 9.00027 120.42C9.00027 119.98 9.06027 119.58 9.18027 119.23C9.27688 118.907 9.44474 118.61 9.67148 118.361C9.89821 118.112 10.178 117.917 10.4903 117.79C11.1631 117.514 11.9174 117.514 12.5903 117.79C12.9103 117.92 13.1703 118.11 13.3903 118.35C13.6103 118.59 13.7903 118.89 13.9003 119.24V119.23ZM7.73027 157.3V154.55H5.53027V155.1C5.53027 155.16 5.55027 155.2 5.59027 155.24C5.63027 155.28 5.69027 155.29 5.74027 155.29H6.86027V156.87C6.36049 157.153 5.7945 157.298 5.22027 157.29C4.79027 157.29 4.41027 157.23 4.07027 157.1C3.73926 156.976 3.44007 156.779 3.19444 156.525C2.94882 156.271 2.76292 155.965 2.65027 155.63C2.51829 155.24 2.45403 154.831 2.46027 154.42C2.46027 153.99 2.52027 153.6 2.64027 153.25C2.77027 152.9 2.94027 152.6 3.17027 152.36C3.40027 152.11 3.68027 151.92 4.01027 151.79C4.76678 151.529 5.59075 151.539 6.34027 151.82C6.49027 151.88 6.62027 151.94 6.72027 152.01L7.00027 152.18C7.08027 152.23 7.16027 152.25 7.22027 152.23C7.29099 152.209 7.35152 152.163 7.39027 152.1L7.67027 151.66C7.18129 151.215 6.57302 150.923 5.92027 150.82C5.14918 150.687 4.3569 150.756 3.62027 151.02C3.18642 151.183 2.79242 151.437 2.46472 151.764C2.13702 152.092 1.8832 152.486 1.72027 152.92C1.54636 153.401 1.46164 153.909 1.47027 154.42C1.47027 154.96 1.56027 155.46 1.73027 155.91C1.902 156.347 2.16468 156.742 2.50088 157.07C2.83708 157.397 3.2391 157.65 3.68027 157.81C4.14027 157.99 4.66027 158.08 5.24027 158.08C6.13689 158.103 7.01597 157.829 7.74027 157.3H7.73027ZM11.8403 152.42L12.9703 155.34H10.2903L11.4203 152.43C11.4903 152.25 11.5603 152.03 11.6303 151.75C11.6891 151.98 11.7592 152.207 11.8403 152.43V152.42ZM14.2403 158H14.9903L12.1203 150.84H11.1403L8.28027 158H9.03027C9.11027 158 9.18027 157.98 9.23027 157.93C9.29027 157.88 9.33027 157.83 9.35027 157.77L10.0203 156.04H13.2403L13.9103 157.77C13.9361 157.833 13.9774 157.888 14.0303 157.93C14.0803 157.98 14.1503 158 14.2303 158H14.2403Z" fill="#92999E"/>
<mask id="mask1_2220_3568" style="mask-type:luminance" maskUnits="userSpaceOnUse" x="29" y="175" width="322" height="1">
<path d="M29 175H351V176H29V175Z" fill="white"/>
</mask>
<g mask="url(#mask1_2220_3568)">
<path fill-rule="evenodd" clip-rule="evenodd" d="M30 176V175H29V176H30ZM126 176V175H125V176H126ZM222 175V176H221V175H222ZM33 176V175H32V176H33ZM129 175V176H128V175H129ZM225 176V175H224V176H225ZM36 175V176H35V175H36ZM132 176V175H131V176H132ZM228 175V176H227V175H228ZM39 176V175H38V176H39ZM135 175V176H134V175H135ZM231 176V175H230V176H231ZM42 175V176H41V175H42ZM138 176V175H137V176H138ZM234 175V176H233V175H234ZM45 176V175H44V176H45ZM141 175V176H140V175H141ZM237 176V175H236V176H237ZM48 175V176H47V175H48ZM144 176V175H143V176H144ZM240 175V176H239V175H240ZM51 176V175H50V176H51ZM147 175V176H146V175H147ZM243 176V175H242V176H243ZM54 175V176H53V175H54ZM150 176V175H149V176H150ZM246 175V176H245V175H246ZM57 176V175H56V176H57ZM153 175V176H152V175H153ZM249 176V175H248V176H249ZM60 175V176H59V175H60ZM156 176V175H155V176H156ZM252 175V176H251V175H252ZM63 176V175H62V176H63ZM159 175V176H158V175H159ZM255 176V175H254V176H255ZM66 175V176H65V175H66ZM162 176V175H161V176H162ZM258 175V176H257V175H258ZM69 176V175H68V176H69ZM165 175V176H164V175H165ZM261 176V175H260V176H261ZM72 175V176H71V175H72ZM168 176V175H167V176H168ZM264 175V176H263V175H264ZM75 176V175H74V176H75ZM171 175V176H170V175H171ZM267 176V175H266V176H267ZM78 175V176H77V175H78ZM174 176V175H173V176H174ZM270 175V176H269V175H270ZM81 176V175H80V176H81ZM177 175V176H176V175H177ZM273 176V175H272V176H273ZM84 175V176H83V175H84ZM180 176V175H179V176H180ZM276 175V176H275V175H276ZM87 176V175H86V176H87ZM183 175V176H182V175H183ZM279 176V175H278V176H279ZM318 175V176H317V175H318ZM90 176V175H89V176H90ZM186 175V176H185V175H186ZM282 176V175H281V176H282ZM321 175V176H320V175H321ZM93 176V175H92V176H93ZM189 175V176H188V175H189ZM285 176V175H284V176H285ZM324 175V176H323V175H324ZM96 176V175H95V176H96ZM192 175V176H191V175H192ZM288 176V175H287V176H288ZM327 175V176H326V175H327ZM99 176V175H98V176H99ZM195 175V176H194V175H195ZM291 176V175H290V176H291ZM330 175V176H329V175H330ZM102 176V175H101V176H102ZM198 175V176H197V175H198ZM294 176V175H293V176H294ZM333 175V176H332V175H333ZM105 176V175H104V176H105ZM201 175V176H200V175H201ZM297 176V175H296V176H297ZM336 175V176H335V175H336ZM108 176V175H107V176H108ZM204 175V176H203V175H204ZM300 176V175H299V176H300ZM339 175V176H338V175H339ZM111 176V175H110V176H111ZM207 175V176H206V175H207ZM303 176V175H302V176H303ZM342 175V176H341V175H342ZM114 176V175H113V176H114ZM210 175V176H209V175H210ZM306 176V175H305V176H306ZM345 175V176H344V175H345ZM117 176V175H116V176H117ZM213 175V176H212V175H213ZM309 176V175H308V176H309ZM348 175V176H347V175H348ZM120 176V175H119V176H120ZM216 175V176H215V175H216ZM312 176V175H311V176H312ZM351 175V176H350V175H351ZM123 176V175H122V176H123ZM219 175V176H218V175H219ZM315 176V175H314V176H315Z" fill="#92999E"/>
</g>
<mask id="mask2_2220_3568" style="mask-type:luminance" maskUnits="userSpaceOnUse" x="29" y="-146" width="1" height="322">
<path d="M29 176L29 -146H30L30 176H29Z" fill="white"/>
</mask>
<g mask="url(#mask2_2220_3568)">
<path fill-rule="evenodd" clip-rule="evenodd" d="M30 175H29V176H30V175ZM30 79H29V80H30V79ZM29 -17H30V-16H29V-17ZM30 172H29V173H30V172ZM29 76H30V77H29V76ZM30 -20H29V-19H30V-20ZM29 169H30V170H29V169ZM30 73H29V74H30V73ZM29 -23H30V-22H29V-23ZM30 166H29V167H30V166ZM29 70H30V71H29V70ZM30 -26H29V-25H30V-26ZM29 163H30V164H29V163ZM30 67H29V68H30V67ZM29 -29H30V-28H29V-29ZM30 160H29V161H30V160ZM29 64H30V65H29V64ZM30 -32H29V-31H30V-32ZM29 157H30V158H29V157ZM30 61H29V62H30V61ZM29 -35H30V-34H29V-35ZM30 154H29V155H30V154ZM29 58H30V59H29V58ZM30 -38H29V-37H30V-38ZM29 151H30V152H29V151ZM30 55H29V56H30V55ZM29 -41H30V-40H29V-41ZM30 148H29V149H30V148ZM29 52H30V53H29V52ZM30 -44H29V-43H30V-44ZM29 145H30V146H29V145ZM30 49H29V50H30V49ZM29 -47H30V-46H29V-47ZM30 142H29V143H30V142ZM29 46H30V47H29V46ZM30 -50H29V-49H30V-50ZM29 139H30V140H29V139ZM30 43H29V44H30V43ZM29 -53H30V-52H29V-53ZM30 136H29V137H30V136ZM29 40H30V41H29V40ZM30 -56H29V-55H30V-56ZM29 133H30V134H29V133ZM30 37H29V38H30V37ZM29 -59H30V-58H29V-59ZM30 130H29V131H30V130ZM29 34H30V35H29V34ZM30 -62H29V-61H30V-62ZM29 127H30V128H29V127ZM30 31H29V32H30V31ZM29 -65H30V-64H29V-65ZM30 124H29V125H30V124ZM29 28H30V29H29V28ZM30 -68H29V-67H30V-68ZM29 121H30V122H29V121ZM30 25H29V26H30V25ZM29 -71H30V-70H29V-71ZM30 118H29V119H30V118ZM29 22H30V23H29V22ZM30 -74H29V-73H30V-74ZM29 -113H30V-112H29V-113ZM30 115H29V116H30V115ZM29 19H30V20H29V19ZM30 -77H29V-76H30V-77ZM29 -116H30V-115H29V-116ZM30 112H29V113H30V112ZM29 16H30V17H29V16ZM30 -80H29V-79H30V-80ZM29 -119H30V-118H29V-119ZM30 109H29V110H30V109ZM29 13H30V14H29V13ZM30 -83H29V-82H30V-83ZM29 -122H30V-121H29V-122ZM30 106H29V107H30V106ZM29 10H30V11H29V10ZM30 -86H29V-85H30V-86ZM29 -125H30V-124H29V-125ZM30 103H29V104H30V103ZM29 7H30V8H29V7ZM30 -89H29V-88H30V-89ZM29 -128H30V-127H29V-128ZM30 100H29V101H30V100ZM29 4H30V5H29V4ZM30 -92H29V-91H30V-92ZM29 -131H30V-130H29V-131ZM30 97H29V98H30V97ZM29 1H30V2H29V1ZM30 -95H29V-94H30V-95ZM29 -134H30V-133H29V-134ZM30 94H29V95H30V94ZM29 -2H30V-1H29V-2ZM30 -98H29V-97H30V-98ZM29 -137H30V-136H29V-137ZM30 91H29V92H30V91ZM29 -5H30V-4H29V-5ZM30 -101H29V-100H30V-101ZM29 -140H30V-139H29V-140ZM30 88H29V89H30V88ZM29 -8H30V-7H29V-8ZM30 -104H29V-103H30V-104ZM29 -143H30V-142H29V-143ZM30 85H29V86H30V85ZM29 -11H30V-10H29V-11ZM30 -107H29V-106H30V-107ZM29 -146H30V-145H29V-146ZM30 82H29V83H30V82ZM29 -14H30V-13H29V-14ZM30 -110H29V-109H30V-110Z" fill="#92999E"/>
</g>
<path fill-rule="evenodd" clip-rule="evenodd" d="M38 5H66V31H38V5ZM38 39H98V65H38V39ZM122 73H38V99H122V73ZM38 107H234V133H38V107ZM312 141H38V167H312V141Z" fill="url(#paint0_linear_2220_3568)" fill-opacity="0.3"/>
</g>
</g>
<defs>
<linearGradient id="paint0_linear_2220_3568" x1="175" y1="5" x2="175" y2="167" gradientUnits="userSpaceOnUse">
<stop stop-color="#B7BCBF" stop-opacity="0.7"/>
<stop offset="1" stop-color="#B7BCBF"/>
</linearGradient>
<clipPath id="clip0_2220_3568">
<rect width="320" height="200" fill="white"/>
</clipPath>
</defs>
</svg>
