<svg xmlns="http://www.w3.org/2000/svg" width="320" height="200" fill="none"><g clip-path="url(#a)"><path fill="#92999E" fill-rule="evenodd" d="M68.6 191.42a6 6 0 0 1-.2 1.63c-.14.46-.32.83-.56 1.13-.23.3-.5.53-.83.67a2.4 2.4 0 0 1-1.02.22 2.24 2.24 0 0 1-1.84-.89c-.23-.3-.42-.67-.55-1.13a6 6 0 0 1-.2-1.63 6 6 0 0 1 .2-1.63c.13-.46.32-.84.55-1.14a2.23 2.23 0 0 1 1.84-.9 2.25 2.25 0 0 1 1.85.9c.24.3.42.68.55 1.14.14.46.2 1 .2 1.63Zm-.93 0c0-.55-.04-1-.14-1.38a2.7 2.7 0 0 0-.37-.9 1.36 1.36 0 0 0-1.17-.63 1.36 1.36 0 0 0-1.17.64c-.15.22-.27.52-.37.9-.09.36-.13.82-.13 1.37 0 .55.04 1 .13 1.38.1.36.22.66.37.89.16.23.34.39.54.49a1.46 1.46 0 0 0 1.27 0c.2-.1.38-.26.53-.49.16-.23.28-.53.37-.9.1-.36.14-.82.14-1.37Zm6.73 0a6 6 0 0 1-.2 1.63 3.5 3.5 0 0 1-.55 1.13c-.24.3-.51.53-.83.67a2.4 2.4 0 0 1-1.02.22 2.24 2.24 0 0 1-1.84-.89c-.24-.3-.43-.67-.56-1.13a6 6 0 0 1-.2-1.63 6 6 0 0 1 .2-1.63c.13-.46.32-.84.55-1.14a2.23 2.23 0 0 1 1.85-.9 2.25 2.25 0 0 1 1.85.9c.23.3.41.68.55 1.14a6 6 0 0 1 .2 1.63Zm-.92 0c0-.55-.05-1-.14-1.38a2.7 2.7 0 0 0-.37-.9 1.36 1.36 0 0 0-1.17-.63 1.36 1.36 0 0 0-1.17.64c-.16.22-.28.52-.37.9-.1.36-.14.82-.14 1.37 0 .55.05 1 .14 1.38.09.36.21.66.37.89.15.23.33.39.53.49a1.46 1.46 0 0 0 1.27 0c.2-.1.38-.26.54-.49.15-.23.28-.53.37-.9.09-.36.14-.82.14-1.37ZM62.38 195v-.68h-1.4v-6.5h-.73l-2.13 1.84.28.39a.27.27 0 0 0 .17.1h.12a.3.3 0 0 0 .13-.06l1.28-1.1-.02.44v4.89h-1.53v.68h3.84Zm56.08-.76a.3.3 0 0 0-.23-.09h-2.4c-.12 0-.25.02-.4.04l-.4.09 1.9-1.94.56-.59c.18-.2.34-.4.47-.6.14-.21.25-.43.33-.66a2.25 2.25 0 0 0-.05-1.58 1.8 1.8 0 0 0-.45-.63c-.2-.17-.42-.3-.69-.39a2.61 2.61 0 0 0-.85-.13c-.3 0-.59.04-.85.13a2.18 2.18 0 0 0-1.49 1.89l.47.07c.12.02.22.01.28-.03.07-.03.13-.11.17-.23a1.34 1.34 0 0 1 1.38-1.07c.18 0 .35.03.5.08a1.08 1.08 0 0 1 .68.63c.07.15.1.34.1.55 0 .2-.03.4-.09.59a2.6 2.6 0 0 1-.25.54c-.11.19-.24.37-.4.55l-.52.55-2.3 2.3a.55.55 0 0 0-.16.38v.31h4.78v-.54a.3.3 0 0 0-.09-.22Zm6.14-2.82a6 6 0 0 1-.2 1.63c-.14.46-.32.83-.56 1.13a2.3 2.3 0 0 1-1.85.89 2.25 2.25 0 0 1-1.84-.89c-.23-.3-.42-.67-.55-1.13a6 6 0 0 1-.2-1.63 6 6 0 0 1 .2-1.63c.13-.46.32-.84.55-1.14a2.23 2.23 0 0 1 1.84-.9 2.25 2.25 0 0 1 1.85.9c.24.3.42.68.55 1.14.14.46.2 1 .2 1.63Zm-.93 0c0-.55-.04-1-.14-1.38a2.69 2.69 0 0 0-.37-.9 1.35 1.35 0 0 0-1.17-.63 1.37 1.37 0 0 0-1.17.64c-.15.22-.27.52-.37.9-.09.36-.13.82-.13 1.37 0 .55.04 1 .13 1.38.1.36.22.66.37.89.16.23.34.39.54.49a1.46 1.46 0 0 0 1.27 0c.2-.1.38-.26.53-.49.16-.23.28-.53.37-.9.1-.36.14-.82.14-1.37Zm6.73 0a6 6 0 0 1-.2 1.63 3.5 3.5 0 0 1-.55 1.13 2.3 2.3 0 0 1-1.86.89 2.25 2.25 0 0 1-1.84-.89c-.23-.3-.42-.67-.55-1.13a6 6 0 0 1-.2-1.63 6 6 0 0 1 .2-1.63c.13-.46.32-.84.55-1.14a2.23 2.23 0 0 1 1.84-.9c.37 0 .7.08 1.02.22.32.15.6.38.84.68.23.3.41.68.54 1.14.14.46.21 1 .21 1.63Zm-.93 0c0-.55-.04-1-.13-1.38a2.69 2.69 0 0 0-.38-.9 1.35 1.35 0 0 0-1.17-.63 1.37 1.37 0 0 0-1.17.64c-.15.22-.27.52-.36.9a6.67 6.67 0 0 0-.01 2.75c.1.36.22.66.38.89.15.23.33.39.53.49a1.46 1.46 0 0 0 1.27 0c.2-.1.38-.26.53-.49.16-.23.28-.53.38-.9.09-.36.13-.82.13-1.37Zm40.75-2.51c-.13.25-.22.54-.27.87l.46.07c.13.02.22.01.28-.03.07-.03.13-.11.17-.23a1.34 1.34 0 0 1 1.38-1.07c.18 0 .35.02.5.07a1.1 1.1 0 0 1 .67.61c.07.15.1.33.1.54 0 .19-.03.36-.1.51a.94.94 0 0 1-.3.4c-.12.1-.3.2-.52.25-.2.07-.47.1-.78.1v.65c.38 0 .68.03.92.1s.43.16.56.28c.14.11.23.25.28.41.05.16.08.34.08.53a1.29 1.29 0 0 1-.38.91c-.12.13-.28.24-.47.32-.19.08-.4.12-.66.12a1.44 1.44 0 0 1-1.1-.43c-.1-.12-.2-.24-.27-.38a21.7 21.7 0 0 1-.16-.33.29.29 0 0 0-.2-.17.47.47 0 0 0-.3.04l-.38.16c.08.27.18.51.3.75a2.06 2.06 0 0 0 1.15.98c.27.1.6.14.97.14.33 0 .64-.05.93-.15.29-.1.54-.24.76-.42a2 2 0 0 0 .7-1.56c0-.44-.12-.8-.36-1.1a1.9 1.9 0 0 0-1.05-.61c.2-.06.37-.14.52-.24a1.49 1.49 0 0 0 .64-.8c.06-.18.09-.38.09-.61 0-.28-.05-.53-.16-.75-.1-.23-.24-.43-.43-.59-.18-.16-.4-.28-.66-.37a2.67 2.67 0 0 0-1.7 0 2.08 2.08 0 0 0-1.21 1.02Zm10.38 2.51a6 6 0 0 1-.2 1.63c-.14.46-.32.83-.56 1.13a2.3 2.3 0 0 1-1.85.89 2.25 2.25 0 0 1-1.84-.89c-.23-.3-.42-.67-.55-1.13a6 6 0 0 1-.2-1.63 6 6 0 0 1 .2-1.63c.13-.46.32-.84.55-1.14a2.23 2.23 0 0 1 1.84-.9 2.25 2.25 0 0 1 1.85.9c.24.3.42.68.55 1.14.14.46.2 1 .2 1.63Zm-.93 0c0-.55-.04-1-.14-1.38a2.69 2.69 0 0 0-.37-.9 1.35 1.35 0 0 0-1.17-.63 1.37 1.37 0 0 0-1.17.64c-.15.22-.27.52-.37.9-.09.36-.13.82-.13 1.37 0 .55.04 1 .13 1.38.1.36.22.66.37.89.16.23.34.39.54.49a1.46 1.46 0 0 0 1.27 0c.2-.1.38-.26.53-.49.16-.23.28-.53.37-.9.1-.36.14-.82.14-1.37Zm6.73 0a6 6 0 0 1-.2 1.63 3.5 3.5 0 0 1-.55 1.13 2.3 2.3 0 0 1-1.86.89 2.25 2.25 0 0 1-1.84-.89c-.23-.3-.42-.67-.55-1.13a6 6 0 0 1-.2-1.63 6 6 0 0 1 .2-1.63c.13-.46.32-.84.55-1.14a2.23 2.23 0 0 1 1.84-.9c.37 0 .7.08 1.03.22.31.15.6.38.83.68.23.3.41.68.54 1.14.14.46.21 1 .21 1.63Zm-.93 0c0-.55-.04-1-.13-1.38a2.69 2.69 0 0 0-.38-.9 1.35 1.35 0 0 0-1.17-.63 1.37 1.37 0 0 0-1.17.64c-.15.22-.27.52-.37.9-.09.36-.13.82-.13 1.37 0 .55.04 1 .13 1.38.1.36.22.66.38.89.15.23.33.39.53.49a1.46 1.46 0 0 0 1.27 0c.2-.1.38-.26.53-.49.16-.23.28-.53.38-.9.09-.36.13-.82.13-1.37Zm51.13 0a6 6 0 0 1-.2 1.63c-.14.46-.32.83-.56 1.13a2.3 2.3 0 0 1-1.85.89 2.25 2.25 0 0 1-1.84-.89c-.23-.3-.42-.67-.55-1.13a6 6 0 0 1-.2-1.63 6 6 0 0 1 .2-1.63c.13-.46.32-.84.55-1.14a2.23 2.23 0 0 1 1.84-.9 2.25 2.25 0 0 1 1.85.9c.24.3.42.68.55 1.14.14.46.2 1 .2 1.63Zm-.93 0c0-.55-.04-1-.14-1.38a2.69 2.69 0 0 0-.37-.9 1.35 1.35 0 0 0-1.17-.63 1.37 1.37 0 0 0-1.17.64c-.15.22-.27.52-.37.9-.09.36-.13.82-.13 1.37 0 .55.04 1 .13 1.38.1.36.22.66.37.89.16.23.34.39.54.49a1.46 1.46 0 0 0 1.27 0c.2-.1.38-.26.53-.49.16-.23.28-.53.37-.9.1-.36.14-.82.14-1.37Zm6.73 0a6 6 0 0 1-.2 1.63 3.5 3.5 0 0 1-.55 1.13 2.3 2.3 0 0 1-1.86.89 2.25 2.25 0 0 1-1.84-.89c-.23-.3-.42-.67-.55-1.13a6 6 0 0 1-.2-1.63 6 6 0 0 1 .2-1.63c.13-.46.32-.84.55-1.14a2.23 2.23 0 0 1 1.84-.9c.37 0 .7.08 1.03.22.31.15.6.38.83.68.23.3.41.68.54 1.14.14.46.21 1 .21 1.63Zm-.93 0c0-.55-.04-1-.13-1.38a2.69 2.69 0 0 0-.38-.9 1.35 1.35 0 0 0-1.17-.63 1.37 1.37 0 0 0-1.17.64c-.15.22-.27.52-.37.9-.09.36-.13.82-.13 1.37 0 .55.04 1 .13 1.38.1.36.22.66.38.89.15.23.33.39.53.49a1.46 1.46 0 0 0 1.27 0c.2-.1.38-.26.53-.49.16-.23.28-.53.38-.9.09-.36.13-.82.13-1.37Zm-12.52-1.96v2.95h-2.57l2.6-3.55a5.97 5.97 0 0 0-.03.6Zm1.86 3.47v-.52h-1.08v-4.57h-.83l-3.49 4.62.1.45c0 .06.04.11.08.15.05.04.11.06.18.06h3.18V195h.78v-1.88h.89c.07 0 .11-.02.14-.06a.2.2 0 0 0 .05-.13Zm61.79-1.51a6 6 0 0 1-.2 1.63c-.14.46-.32.83-.56 1.13a2.3 2.3 0 0 1-1.85.89 2.25 2.25 0 0 1-1.85-.89c-.22-.3-.4-.67-.54-1.13a6 6 0 0 1-.2-1.63 6 6 0 0 1 .2-1.63c.13-.46.32-.84.55-1.14a2.23 2.23 0 0 1 1.84-.9 2.25 2.25 0 0 1 1.85.9c.24.3.42.68.55 1.14.14.46.2 1 .2 1.63Zm-.93 0c0-.55-.04-1-.14-1.38a2.69 2.69 0 0 0-.37-.9 1.35 1.35 0 0 0-1.17-.63 1.37 1.37 0 0 0-1.17.64c-.15.22-.27.52-.37.9-.09.36-.13.82-.13 1.37 0 .55.04 1 .13 1.38.1.36.22.66.37.89.16.23.34.39.54.49a1.46 1.46 0 0 0 1.27 0c.2-.1.38-.26.53-.49.16-.23.28-.53.37-.9.1-.36.14-.82.14-1.37Zm6.73 0a6 6 0 0 1-.2 1.63c-.14.46-.32.83-.56 1.13-.23.3-.5.53-.82.67-.32.15-.66.22-1.02.22a2.25 2.25 0 0 1-1.85-.89c-.23-.3-.42-.67-.55-1.13a6 6 0 0 1-.2-1.63 6 6 0 0 1 .2-1.63c.13-.46.32-.84.55-1.14a2.23 2.23 0 0 1 1.85-.9 2.25 2.25 0 0 1 1.84.9c.24.3.42.68.56 1.14a6 6 0 0 1 .2 1.63Zm-.92 0c0-.55-.05-1-.15-1.38a2.69 2.69 0 0 0-.37-.9 1.35 1.35 0 0 0-1.16-.63 1.37 1.37 0 0 0-1.17.64 2.7 2.7 0 0 0-.38.9c-.08.36-.13.82-.13 1.37 0 .55.05 1 .13 1.38.1.36.22.66.38.89.15.23.33.39.53.49a1.46 1.46 0 0 0 1.27 0c.2-.1.38-.26.53-.49.16-.23.29-.53.38-.9.09-.36.14-.82.14-1.37Zm-13.34-1c-.31 0-.66.04-1.03.12l.33-1.88h2.25c.19 0 .32-.04.4-.12a.44.44 0 0 0 .12-.31v-.4h-3.4l-.57 3.35.56.17a3.73 3.73 0 0 1 1.16-.19c.26 0 .5.03.69.1.2.08.36.17.49.3.13.13.23.28.3.46a1.98 1.98 0 0 1-.02 1.3 1.47 1.47 0 0 1-.84.88c-.2.08-.43.12-.68.12a2 2 0 0 1-1-.25 6.06 6.06 0 0 1-.3-.17.43.43 0 0 0-.23-.09.3.3 0 0 0-.24.13l-.27.38a2.7 2.7 0 0 0 .84.53 3.06 3.06 0 0 0 2.17.06 2.31 2.31 0 0 0 1.36-1.29 2.56 2.56 0 0 0 .05-1.9 1.87 1.87 0 0 0-1.15-1.13 2.75 2.75 0 0 0-1-.17ZM4.6 16.43l1.12 2.91H3.04l1.13-2.91c.07-.18.14-.4.21-.67a7.17 7.17 0 0 0 .21.67ZM6.98 22h.75l-2.87-7.16H3.9L1.03 22h.75c.08 0 .15-.02.21-.07s.1-.1.11-.16l.67-1.73H6l.67 1.73a.4.4 0 0 0 .12.16c.05.05.12.07.21.07ZM10 17.98h-.36v-3.14h-.97V22h.97v-3.28h.44c.15 0 .27.02.35.05.07.04.15.1.21.18l2.47 2.85.07.09.1.06.1.04.17.01h.84l-2.85-3.4a1.49 1.49 0 0 0-.21-.22.77.77 0 0 0-.25-.13.92.92 0 0 0 .2-.13l.2-.2 2.72-3.09h-.82c-.1 0-.2.02-.27.05a.58.58 0 0 0-.2.18l-2.4 2.7a.57.57 0 0 1-.2.17.85.85 0 0 1-.3.05ZM4.6 50.42l1.12 2.92H3.04l1.13-2.91c.07-.18.14-.4.21-.67a7.17 7.17 0 0 0 .21.66ZM6.98 56h.75l-2.87-7.16H3.9L1.03 56h.75c.08 0 .15-.02.21-.07s.1-.1.11-.16l.67-1.73H6l.67 1.73a.4.4 0 0 0 .12.16c.05.05.12.07.21.07Zm5.76 0v-.81h-3.1v-6.35h-.97V56h4.07ZM7.08 88.58a.19.19 0 0 0-.14-.06.26.26 0 0 0-.17.08l-.37.29a2.42 2.42 0 0 1-.88.32c-.17.02-.36.03-.58.03a2.26 2.26 0 0 1-1.77-.74 2.75 2.75 0 0 1-.52-.89 3.5 3.5 0 0 1-.19-1.19c0-.44.07-.84.19-1.19.12-.34.3-.64.51-.89a2.44 2.44 0 0 1 1.81-.75 2.59 2.59 0 0 1 1.64.54c.1.06.16.1.22.1s.1-.02.13-.04a.28.28 0 0 0 .08-.08l.32-.44a3.4 3.4 0 0 0-2.38-.92c-.52 0-1 .1-1.43.28a3.2 3.2 0 0 0-1.82 1.9 4.32 4.32 0 0 0-.01 2.97 3.12 3.12 0 0 0 1.76 1.91c.42.18.9.27 1.4.27.6 0 1.1-.1 1.52-.28.42-.2.78-.46 1.07-.8l-.39-.42Zm4.2-4.16 1.12 2.92H9.72l1.13-2.91c.07-.18.14-.4.21-.68a7.11 7.11 0 0 0 .21.67ZM13.66 90h.75l-2.87-7.17h-.98L7.71 90h.75c.08 0 .15-.02.2-.07a.3.3 0 0 0 .12-.16l.67-1.73h3.22l.67 1.73a.4.4 0 0 0 .12.17c.05.04.12.06.2.06Zm-6.58 32.58a.19.19 0 0 0-.14-.06.26.26 0 0 0-.17.08l-.37.29a2.46 2.46 0 0 1-.88.32c-.17.02-.36.03-.58.03a2.27 2.27 0 0 1-1.77-.74 2.75 2.75 0 0 1-.52-.89 3.5 3.5 0 0 1-.19-1.19c0-.44.07-.84.19-1.19.12-.34.3-.64.51-.89a2.44 2.44 0 0 1 1.81-.75 2.58 2.58 0 0 1 1.64.54c.1.06.16.1.22.1s.1-.02.13-.04a.28.28 0 0 0 .08-.08l.32-.44a3.4 3.4 0 0 0-2.38-.92c-.52 0-1 .1-1.43.28a3.21 3.21 0 0 0-1.82 1.9 4.32 4.32 0 0 0-.01 2.97 3.12 3.12 0 0 0 1.76 1.91c.42.18.9.27 1.4.27.6 0 1.1-.1 1.52-.28.42-.2.78-.46 1.07-.8l-.39-.42Zm7.74-.68c.17-.45.26-.94.26-1.48s-.09-1.03-.26-1.48a3.2 3.2 0 0 0-1.84-1.92 3.72 3.72 0 0 0-1.44-.27c-.52 0-1 .1-1.44.28a3.21 3.21 0 0 0-1.83 1.91c-.17.45-.26.94-.26 1.48s.09 1.03.26 1.48a3.26 3.26 0 0 0 1.84 1.91 3.93 3.93 0 0 0 2.87 0 3.25 3.25 0 0 0 1.84-1.91Zm-.92-2.67c.12.35.18.75.18 1.19 0 .44-.06.83-.18 1.19a2.23 2.23 0 0 1-1.31 1.44 2.89 2.89 0 0 1-2.09-.01 2.28 2.28 0 0 1-1.32-1.44 3.64 3.64 0 0 1-.18-1.18c0-.44.06-.84.18-1.19a2.25 2.25 0 0 1 1.31-1.44 2.77 2.77 0 0 1 2.1 0c.32.13.58.32.8.56.22.24.4.54.51.89ZM7.73 157.3v-2.75h-2.2v.55c0 .06.02.1.06.14.04.04.1.05.15.05h1.12v1.58a3.24 3.24 0 0 1-1.64.42c-.43 0-.81-.06-1.15-.19a2.38 2.38 0 0 1-1.42-1.47 3.6 3.6 0 0 1-.19-1.21c0-.43.06-.82.18-1.17.13-.35.3-.65.53-.89.23-.25.51-.44.84-.57a3.44 3.44 0 0 1 2.33.03c.15.06.28.12.38.19l.28.17c.08.05.16.07.22.05a.3.3 0 0 0 .17-.13l.28-.44a3.39 3.39 0 0 0-1.75-.84 4.54 4.54 0 0 0-2.3.2 3.25 3.25 0 0 0-1.9 1.9 4.2 4.2 0 0 0-.25 1.5c0 .54.09 1.04.26 1.49a3.31 3.31 0 0 0 1.95 1.9c.46.18.98.27 1.56.27a4.06 4.06 0 0 0 2.5-.78Zm4.11-4.88 1.13 2.92h-2.68l1.13-2.91c.07-.18.14-.4.21-.68a7.23 7.23 0 0 0 .21.68Zm2.4 5.58h.75l-2.87-7.16h-.98L8.28 158h.75c.08 0 .15-.02.2-.07.06-.05.1-.1.12-.16l.67-1.73h3.22l.67 1.73a.4.4 0 0 0 .12.16c.05.05.12.07.2.07Z" clip-rule="evenodd"/><g clip-path="url(#b)"><path fill="#92999E" fill-rule="evenodd" d="M30 176v-1h-1v1h1Zm96 0v-1h-1v1h1Zm96-1v1h-1v-1h1Zm-189 1v-1h-1v1h1Zm96-1v1h-1v-1h1Zm96 1v-1h-1v1h1Zm-189-1v1h-1v-1h1Zm96 1v-1h-1v1h1Zm96-1v1h-1v-1h1Zm-189 1v-1h-1v1h1Zm96-1v1h-1v-1h1Zm96 1v-1h-1v1h1Zm-189-1v1h-1v-1h1Zm96 1v-1h-1v1h1Zm96-1v1h-1v-1h1Zm-189 1v-1h-1v1h1Zm96-1v1h-1v-1h1Zm96 1v-1h-1v1h1Zm-189-1v1h-1v-1h1Zm96 1v-1h-1v1h1Zm96-1v1h-1v-1h1Zm-189 1v-1h-1v1h1Zm96-1v1h-1v-1h1Zm96 1v-1h-1v1h1Zm-189-1v1h-1v-1h1Zm96 1v-1h-1v1h1Zm96-1v1h-1v-1h1Zm-189 1v-1h-1v1h1Zm96-1v1h-1v-1h1Zm96 1v-1h-1v1h1Zm-189-1v1h-1v-1h1Zm96 1v-1h-1v1h1Zm96-1v1h-1v-1h1Zm-189 1v-1h-1v1h1Zm96-1v1h-1v-1h1Zm96 1v-1h-1v1h1Zm-189-1v1h-1v-1h1Zm96 1v-1h-1v1h1Zm96-1v1h-1v-1h1Zm-189 1v-1h-1v1h1Zm96-1v1h-1v-1h1Zm96 1v-1h-1v1h1Zm-189-1v1h-1v-1h1Zm96 1v-1h-1v1h1Zm96-1v1h-1v-1h1Zm-189 1v-1h-1v1h1Zm96-1v1h-1v-1h1Zm96 1v-1h-1v1h1Zm-189-1v1h-1v-1h1Zm96 1v-1h-1v1h1Zm96-1v1h-1v-1h1Zm-189 1v-1h-1v1h1Zm96-1v1h-1v-1h1Zm96 1v-1h-1v1h1Zm-189-1v1h-1v-1h1Zm96 1v-1h-1v1h1Zm96-1v1h-1v-1h1Zm-189 1v-1h-1v1h1Zm96-1v1h-1v-1h1Zm96 1v-1h-1v1h1Zm39-1v1h-1v-1h1Zm-228 1v-1h-1v1h1Zm96-1v1h-1v-1h1Zm96 1v-1h-1v1h1Zm39-1v1h-1v-1h1Zm-228 1v-1h-1v1h1Zm96-1v1h-1v-1h1Zm96 1v-1h-1v1h1Zm39-1v1h-1v-1h1Zm-228 1v-1h-1v1h1Zm96-1v1h-1v-1h1Zm96 1v-1h-1v1h1Zm39-1v1h-1v-1h1Zm-228 1v-1h-1v1h1Zm96-1v1h-1v-1h1Zm96 1v-1h-1v1h1Zm39-1v1h-1v-1h1Zm-228 1v-1h-1v1h1Zm96-1v1h-1v-1h1Zm96 1v-1h-1v1h1Zm39-1v1h-1v-1h1Zm-228 1v-1h-1v1h1Zm96-1v1h-1v-1h1Zm96 1v-1h-1v1h1Zm39-1v1h-1v-1h1Zm-228 1v-1h-1v1h1Zm96-1v1h-1v-1h1Zm96 1v-1h-1v1h1Zm39-1v1h-1v-1h1Zm-228 1v-1h-1v1h1Zm96-1v1h-1v-1h1Zm96 1v-1h-1v1h1Zm39-1v1h-1v-1h1Zm-228 1v-1h-1v1h1Zm96-1v1h-1v-1h1Zm96 1v-1h-1v1h1Zm39-1v1h-1v-1h1Zm-228 1v-1h-1v1h1Zm96-1v1h-1v-1h1Zm96 1v-1h-1v1h1Zm39-1v1h-1v-1h1Zm-228 1v-1h-1v1h1Zm96-1v1h-1v-1h1Zm96 1v-1h-1v1h1Zm39-1v1h-1v-1h1Zm-228 1v-1h-1v1h1Zm96-1v1h-1v-1h1Zm96 1v-1h-1v1h1Z" clip-rule="evenodd"/></g><g clip-path="url(#c)"><path fill="#92999E" fill-rule="evenodd" d="M30 175h-1v1h1v-1Zm0-96h-1v1h1v-1Zm-1-96h1v1h-1v-1Zm1 189h-1v1h1v-1Zm-1-96h1v1h-1v-1Zm1-96h-1v1h1v-1Zm-1 189h1v1h-1v-1Zm1-96h-1v1h1v-1Zm-1-96h1v1h-1v-1Zm1 189h-1v1h1v-1Zm-1-96h1v1h-1v-1Zm1-96h-1v1h1v-1Zm-1 189h1v1h-1v-1Zm1-96h-1v1h1v-1Zm-1-96h1v1h-1v-1Zm1 189h-1v1h1v-1Zm-1-96h1v1h-1v-1Zm1-96h-1v1h1v-1Zm-1 189h1v1h-1v-1Zm1-96h-1v1h1v-1Zm-1-96h1v1h-1v-1Zm1 189h-1v1h1v-1Zm-1-96h1v1h-1v-1Zm1-96h-1v1h1v-1Zm-1 189h1v1h-1v-1Zm1-96h-1v1h1v-1Zm-1-96h1v1h-1v-1Zm1 189h-1v1h1v-1Zm-1-96h1v1h-1v-1Zm1-96h-1v1h1v-1Zm-1 189h1v1h-1v-1Zm1-96h-1v1h1v-1Zm-1-96h1v1h-1v-1Zm1 189h-1v1h1v-1Zm-1-96h1v1h-1v-1Zm1-96h-1v1h1v-1Zm-1 189h1v1h-1v-1Zm1-96h-1v1h1v-1Zm-1-96h1v1h-1v-1Zm1 189h-1v1h1v-1Zm-1-96h1v1h-1v-1Zm1-96h-1v1h1v-1Zm-1 189h1v1h-1v-1Zm1-96h-1v1h1v-1Zm-1-96h1v1h-1v-1Zm1 189h-1v1h1v-1Zm-1-96h1v1h-1v-1Zm1-96h-1v1h1v-1Zm-1 189h1v1h-1v-1Zm1-96h-1v1h1v-1Zm-1-96h1v1h-1v-1Zm1 189h-1v1h1v-1Zm-1-96h1v1h-1v-1Zm1-96h-1v1h1v-1Zm-1 189h1v1h-1v-1Zm1-96h-1v1h1v-1Zm-1-96h1v1h-1v-1Zm1 189h-1v1h1v-1Zm-1-96h1v1h-1v-1Zm1-96h-1v1h1v-1Zm-1-39h1v1h-1v-1Zm1 228h-1v1h1v-1Zm-1-96h1v1h-1v-1Zm1-96h-1v1h1v-1Zm-1-39h1v1h-1v-1Zm1 228h-1v1h1v-1Zm-1-96h1v1h-1v-1Zm1-96h-1v1h1v-1Zm-1-39h1v1h-1v-1Zm1 228h-1v1h1v-1Zm-1-96h1v1h-1v-1Zm1-96h-1v1h1v-1Zm-1-39h1v1h-1v-1Zm1 228h-1v1h1v-1Zm-1-96h1v1h-1v-1Zm1-96h-1v1h1v-1Zm-1-39h1v1h-1v-1Zm1 228h-1v1h1v-1ZM29 7h1v1h-1V7Zm1-96h-1v1h1v-1Zm-1-39h1v1h-1v-1Zm1 228h-1v1h1v-1ZM29 4h1v1h-1V4Zm1-96h-1v1h1v-1Zm-1-39h1v1h-1v-1Zm1 228h-1v1h1v-1ZM29 1h1v1h-1V1Zm1-96h-1v1h1v-1Zm-1-39h1v1h-1v-1Zm1 228h-1v1h1v-1ZM29-2h1v1h-1v-1Zm1-96h-1v1h1v-1Zm-1-39h1v1h-1v-1Zm1 228h-1v1h1v-1ZM29-5h1v1h-1v-1Zm1-96h-1v1h1v-1Zm-1-39h1v1h-1v-1Zm1 228h-1v1h1v-1ZM29-8h1v1h-1v-1Zm1-96h-1v1h1v-1Zm-1-39h1v1h-1v-1Zm1 228h-1v1h1v-1Zm-1-96h1v1h-1v-1Zm1-96h-1v1h1v-1Zm-1-39h1v1h-1v-1Zm1 228h-1v1h1v-1Zm-1-96h1v1h-1v-1Zm1-96h-1v1h1v-1Z" clip-rule="evenodd"/></g><path fill="#D9D9D9" fill-rule="evenodd" d="M38 5h28v26H38V5Zm0 34h60v26H38V39Zm84 34H38v26h84V73Zm-84 34h196v26H38v-26Zm274 34H38v26h274v-26Z" clip-rule="evenodd"/><path fill="url(#d)" fill-rule="evenodd" d="M38 5h28v26H38V5Zm0 34h60v26H38V39Zm84 34H38v26h84V73Zm-84 34h196v26H38v-26Zm274 34H38v26h274v-26Z" clip-rule="evenodd"/></g><defs><clipPath id="a"><path fill="#fff" d="M0 0h320v200H0z"/></clipPath><clipPath id="b"><path fill="#fff" d="M0 0h322v1H0z" transform="translate(29 175)"/></clipPath><clipPath id="c"><path fill="#fff" d="M0 0h322v1H0z" transform="rotate(-90 102.5 73.5)"/></clipPath><linearGradient id="d" x1="175" x2="175" y1="5" y2="167" gradientUnits="userSpaceOnUse"><stop stop-color="#FAFAFB"/><stop offset="1" stop-color="#F3F3F4"/></linearGradient></defs></svg>