<svg xmlns="http://www.w3.org/2000/svg" width="320" height="200" fill="none"><g clip-path="url(#a)"><path fill="url(#b)" fill-opacity=".1" d="M241 40h75v118h-75V40Z"/><path fill="url(#c)" fill-opacity=".1" d="M4 88a28 28 0 0 0 25.75-17.02l22.8-53.5A28.75 28.75 0 0 1 79 0v24a28.75 28.75 0 0 0-26.45 17.48l-22.8 53.5A28 28 0 0 1 4 112V88Z"/><path fill="url(#d)" fill-opacity=".05" d="M83 112h7.3c11.64 0 22.8-4.69 30.95-13a43.36 43.36 0 0 1 30.96-13H158v50.5h-7.95a47.4 47.4 0 0 0-28.8 9.75 47.4 47.4 0 0 1-28.8 9.75H83v-44Z"/><path fill="url(#e)" fill-opacity=".1" d="M162 86a42.04 42.04 0 0 1 34.98 18.72l1.93 2.9A45.78 45.78 0 0 0 237 128v72a45.8 45.8 0 0 1-38.09-20.38l-1.93-2.9A42.04 42.04 0 0 0 162 158V86Z"/><path fill="url(#f)" fill-opacity=".05" d="m83 156 75 4v40H83v-44Z"/><path fill="url(#g)" fill-opacity=".05" d="M83 0h18.8a99.1 99.1 0 0 1 59.7 20 99.1 99.1 0 0 0 59.7 20H237v88h-35.32a99.99 99.99 0 0 1-29.67-4.5l-22.52-7a99.99 99.99 0 0 0-29.67-4.5H83V0Z"/><path fill="#DCDFE0" d="M0 88h4v24H0zM79 0h4v200h-4z"/><path fill="#B7BCBF" d="M237 40h4v160h-4z"/><path fill="#DCDFE0" d="M158 86h4v72h-4zm158-46h4v118h-4z"/><path fill="#B7BCBF" d="M158 160h4v40h-4z"/></g><defs><linearGradient id="b" x1="278.5" x2="278.5" y1="-183.22" y2="107.05" gradientUnits="userSpaceOnUse"><stop stop-color="#2F3C45" stop-opacity=".5"/><stop offset="1" stop-color="#2F3C45"/></linearGradient><linearGradient id="c" x1="120.5" x2="120.5" y1="6.72" y2="200" gradientUnits="userSpaceOnUse"><stop stop-color="#2F3C45" stop-opacity=".5"/><stop offset="1" stop-color="#2F3C45"/></linearGradient><linearGradient id="d" x1="120.5" x2="120.5" y1="-166.39" y2="142.86" gradientUnits="userSpaceOnUse"><stop stop-color="#2F3C45" stop-opacity=".5"/><stop offset="1" stop-color="#2F3C45"/></linearGradient><linearGradient id="e" x1="120.5" x2="120.5" y1="-102.17" y2="87.72" gradientUnits="userSpaceOnUse"><stop stop-color="#2F3C45" stop-opacity=".5"/><stop offset="1" stop-color="#2F3C45"/></linearGradient><linearGradient id="f" x1="120.5" x2="120.5" y1="-378.34" y2="113.64" gradientUnits="userSpaceOnUse"><stop stop-color="#2F3C45" stop-opacity=".5"/><stop offset="1" stop-color="#2F3C45"/></linearGradient><linearGradient id="g" x1="120.5" x2="120.5" y1="3.76" y2="112" gradientUnits="userSpaceOnUse"><stop stop-color="#2F3C45" stop-opacity=".5"/><stop offset="1" stop-color="#2F3C45"/></linearGradient><clipPath id="a"><path fill="#fff" d="M0 0h320v200H0z"/></clipPath></defs></svg>