<svg xmlns="http://www.w3.org/2000/svg" width="320" height="200" fill="none"><path fill="url(#a)" fill-opacity=".1" d="M205.1 130.96c2.28 0 4.27-.32 6-.95a12.4 12.4 0 0 0 4.3-2.75 11.07 11.07 0 0 0 2.7-4.14c.59-1.6.89-3.34.89-5.2 0-4.45-1.24-7.81-3.7-10.09-2.46-2.27-5.86-3.41-10.2-3.41-4.32 0-7.72 1.14-10.18 3.41-2.47 2.28-3.7 5.64-3.7 10.08 0 1.87.3 3.6.9 5.21.6 1.6 1.47 2.99 2.63 4.14a12.99 12.99 0 0 0 4.37 2.75c1.71.63 3.71.95 5.99.95Zm0-61.54c-2.06 0-3.83.31-5.32.95a10.3 10.3 0 0 0-5.94 6.22 14.07 14.07 0 0 0-.67 4.36c0 1.6.19 3.18.56 4.7a11.3 11.3 0 0 0 2.02 4.04 10.1 10.1 0 0 0 3.7 2.8c1.52.7 3.4 1.06 5.65 1.06 2.24 0 4.12-.35 5.66-1.06a10.16 10.16 0 0 0 3.7-2.8 10.7 10.7 0 0 0 1.95-4.03c.41-1.53.62-3.1.62-4.7 0-1.54-.25-3-.73-4.38a10.33 10.33 0 0 0-5.88-6.21c-1.5-.64-3.27-.95-5.32-.95Zm13.66 29.23c4.93 1.6 8.57 4.07 10.92 7.39 2.35 3.28 3.53 7.32 3.53 12.1 0 3.58-.69 6.83-2.07 9.74a21.07 21.07 0 0 1-5.71 7.45 26.4 26.4 0 0 1-8.9 4.76 36.7 36.7 0 0 1-11.43 1.68c-4.18 0-8-.56-11.48-1.68a26.47 26.47 0 0 1-8.85-4.76 21.66 21.66 0 0 1-5.77-7.45 22.98 22.98 0 0 1-2.01-9.74c0-4.78 1.17-8.81 3.52-12.1 2.36-3.32 6-5.79 10.93-7.4-3.93-1.63-6.88-3.97-8.85-7-1.94-3.02-2.91-6.66-2.91-10.91 0-3.06.61-5.92 1.84-8.57a21.06 21.06 0 0 1 5.27-6.89 23.8 23.8 0 0 1 8-4.59A30.43 30.43 0 0 1 205.1 59a30 30 0 0 1 10.26 1.68 23.7 23.7 0 0 1 8.06 4.6 20.4 20.4 0 0 1 5.2 6.88 19.42 19.42 0 0 1 1.91 8.57c0 4.25-.99 7.9-2.97 10.92-1.94 3.02-4.87 5.36-8.79 7Z"/><path fill="url(#b)" fill-opacity=".1" d="M153.1 133.26c0-1.16.2-2.26.61-3.3a8.48 8.48 0 0 1 1.8-2.7 8.45 8.45 0 0 1 6.04-2.46 8.48 8.48 0 0 1 7.84 11.82 8.2 8.2 0 0 1-1.84 2.63 7.77 7.77 0 0 1-2.7 1.73 8.44 8.44 0 0 1-6.66 0 7.75 7.75 0 0 1-2.69-1.73 8.65 8.65 0 0 1-1.79-2.63 9.1 9.1 0 0 1-.61-3.36Z"/><path fill="url(#c)" fill-opacity=".1" d="M125.42 110.35V83.86c0-2.5.17-5.26.5-8.28l-25.14 34.77h24.64Zm22.24 0v8.01c0 .75-.25 1.4-.73 1.96a2.7 2.7 0 0 1-2.07.78h-7.4v19.77h-12.04V121.1H91.26c-.93 0-1.75-.28-2.46-.84a3.87 3.87 0 0 1-1.34-2.18l-1.46-7 38.36-51.24h13.1v50.51h10.2Z"/><defs><linearGradient id="a" x1="205.1" x2="205.1" y1="59" y2="141.77" gradientUnits="userSpaceOnUse"><stop stop-color="#2F3C45" stop-opacity=".5"/><stop offset="1" stop-color="#2F3C45"/></linearGradient><linearGradient id="b" x1="161.58" x2="161.58" y1="124.8" y2="141.66" gradientUnits="userSpaceOnUse"><stop stop-color="#2F3C45" stop-opacity=".5"/><stop offset="1" stop-color="#2F3C45"/></linearGradient><linearGradient id="c" x1="116.83" x2="116.83" y1="59.84" y2="140.87" gradientUnits="userSpaceOnUse"><stop stop-color="#2F3C45" stop-opacity=".5"/><stop offset="1" stop-color="#2F3C45"/></linearGradient></defs></svg>