<svg width="320" height="200" viewBox="0 0 320 200" fill="none" xmlns="http://www.w3.org/2000/svg">
<path d="M205.1 130.96C207.38 130.96 209.37 130.64 211.1 130.01C212.708 129.401 214.173 128.465 215.4 127.26C216.6 126.101 217.523 124.686 218.1 123.12C218.69 121.52 218.99 119.78 218.99 117.92C218.99 113.47 217.75 110.11 215.29 107.83C212.83 105.56 209.43 104.42 205.09 104.42C200.77 104.42 197.37 105.56 194.91 107.83C192.44 110.11 191.21 113.47 191.21 117.91C191.21 119.78 191.51 121.51 192.11 123.12C192.71 124.72 193.58 126.11 194.74 127.26C195.998 128.46 197.484 129.395 199.11 130.01C200.82 130.64 202.82 130.96 205.1 130.96ZM205.1 69.42C203.04 69.42 201.27 69.73 199.78 70.37C198.4 70.9175 197.155 71.7568 196.129 72.8304C195.104 73.9039 194.323 75.1864 193.84 76.59C193.389 77.9991 193.162 79.4705 193.17 80.95C193.17 82.55 193.36 84.13 193.73 85.65C194.124 87.1189 194.811 88.493 195.75 89.69C196.749 90.8979 198.016 91.8565 199.45 92.49C200.97 93.19 202.85 93.55 205.1 93.55C207.34 93.55 209.22 93.2 210.76 92.49C212.193 91.8546 213.459 90.8963 214.46 89.69C215.387 88.4992 216.051 87.1258 216.41 85.66C216.82 84.13 217.03 82.56 217.03 80.96C217.03 79.42 216.78 77.96 216.3 76.58C215.82 75.1851 215.047 73.9091 214.033 72.838C213.018 71.7668 211.786 70.9253 210.42 70.37C208.92 69.73 207.15 69.42 205.1 69.42ZM218.76 98.65C223.69 100.25 227.33 102.72 229.68 106.04C232.03 109.32 233.21 113.36 233.21 118.14C233.21 121.72 232.52 124.97 231.14 127.88C229.821 130.761 227.869 133.308 225.43 135.33C222.797 137.474 219.775 139.09 216.53 140.09C212.832 141.25 208.975 141.817 205.1 141.77C200.92 141.77 197.1 141.21 193.62 140.09C190.393 139.083 187.389 137.467 184.77 135.33C182.323 133.3 180.353 130.757 179 127.88C177.627 124.819 176.941 121.494 176.99 118.14C176.99 113.36 178.16 109.33 180.51 106.04C182.87 102.72 186.51 100.25 191.44 98.64C187.51 97.01 184.56 94.67 182.59 91.64C180.65 88.62 179.68 84.98 179.68 80.73C179.68 77.67 180.29 74.81 181.52 72.16C182.779 69.5226 184.574 67.1761 186.79 65.27C189.132 63.233 191.849 61.6737 194.79 60.68C198.104 59.5299 201.592 58.9616 205.1 59C208.591 58.9586 212.064 59.5272 215.36 60.68C218.323 61.6672 221.062 63.2305 223.42 65.28C225.624 67.1766 227.397 69.5223 228.62 72.16C229.902 74.8334 230.556 77.765 230.53 80.73C230.53 84.98 229.54 88.63 227.56 91.65C225.62 94.67 222.69 97.01 218.77 98.65H218.76Z" fill="url(#paint0_linear_2227_3438)" fill-opacity="0.3"/>
<path d="M153.1 133.26C153.1 132.1 153.3 131 153.71 129.96C154.131 128.953 154.742 128.036 155.51 127.26C156.304 126.47 157.246 125.846 158.283 125.424C159.32 125.002 160.43 124.79 161.55 124.8C162.957 124.793 164.344 125.135 165.586 125.797C166.827 126.459 167.885 127.42 168.662 128.593C169.44 129.765 169.914 131.113 170.041 132.514C170.168 133.916 169.944 135.327 169.39 136.62C168.956 137.609 168.331 138.503 167.55 139.25C166.78 140.008 165.86 140.597 164.85 140.98C163.798 141.432 162.665 141.665 161.52 141.665C160.375 141.665 159.242 141.432 158.19 140.98C157.183 140.597 156.267 140.007 155.5 139.25C154.746 138.492 154.139 137.6 153.71 136.62C153.296 135.549 153.089 134.409 153.1 133.26Z" fill="url(#paint1_linear_2227_3438)" fill-opacity="0.3"/>
<path d="M125.42 110.35V83.86C125.42 81.36 125.59 78.6 125.92 75.58L100.78 110.35H125.42ZM147.66 110.35V118.36C147.66 119.11 147.41 119.76 146.93 120.32C146.66 120.589 146.335 120.797 145.979 120.932C145.622 121.066 145.241 121.123 144.86 121.1H137.46V140.87H125.42V121.1H91.26C90.33 121.1 89.51 120.82 88.8 120.26C88.1191 119.706 87.6466 118.938 87.46 118.08L86 111.08L124.36 59.84H137.46V110.35H147.66Z" fill="url(#paint2_linear_2227_3438)" fill-opacity="0.3"/>
<defs>
<linearGradient id="paint0_linear_2227_3438" x1="205.1" y1="59" x2="205.1" y2="141.77" gradientUnits="userSpaceOnUse">
<stop stop-color="#B7BCBF" stop-opacity="0.7"/>
<stop offset="1" stop-color="#B7BCBF"/>
</linearGradient>
<linearGradient id="paint1_linear_2227_3438" x1="161.588" y1="124.8" x2="161.588" y2="141.664" gradientUnits="userSpaceOnUse">
<stop stop-color="#B7BCBF" stop-opacity="0.7"/>
<stop offset="1" stop-color="#B7BCBF"/>
</linearGradient>
<linearGradient id="paint2_linear_2227_3438" x1="116.831" y1="59.842" x2="116.831" y2="140.867" gradientUnits="userSpaceOnUse">
<stop stop-color="#B7BCBF" stop-opacity="0.7"/>
<stop offset="1" stop-color="#B7BCBF"/>
</linearGradient>
</defs>
</svg>
