<svg xmlns="http://www.w3.org/2000/svg" width="320" height="200" fill="none"><g clip-path="url(#a)"><path fill="#92999E" fill-rule="evenodd" d="M65.36 194.24a.3.3 0 0 0-.23-.09h-2.4c-.12 0-.25.02-.4.04a3.3 3.3 0 0 0-.4.09l1.9-1.94.56-.59c.18-.2.34-.4.47-.6.14-.21.25-.43.33-.66a2.25 2.25 0 0 0-.05-1.58 1.79 1.79 0 0 0-.45-.63c-.2-.17-.42-.3-.69-.39a2.61 2.61 0 0 0-.85-.13c-.3 0-.59.04-.85.13a2.18 2.18 0 0 0-1.22 1.02 2.6 2.6 0 0 0-.27.87l.47.07c.12.02.22.01.28-.03.07-.03.13-.11.17-.23a1.35 1.35 0 0 1 .46-.77 1.54 1.54 0 0 1 .91-.3c.19 0 .36.03.51.08a1.08 1.08 0 0 1 .68.63c.07.15.1.34.1.55 0 .2-.03.4-.09.59a2.6 2.6 0 0 1-.25.54c-.11.19-.24.37-.4.55l-.52.55-2.3 2.3a.55.55 0 0 0-.16.38v.31h4.78v-.54a.3.3 0 0 0-.09-.22Zm5.93-1.19c.14-.46.21-1 .21-1.63a6 6 0 0 0-.2-1.63 3.36 3.36 0 0 0-.56-1.14 2.2 2.2 0 0 0-.83-.68 2.4 2.4 0 0 0-1.02-.22 2.23 2.23 0 0 0-1.84.9c-.23.3-.42.68-.55 1.14a6 6 0 0 0-.2 1.63 6 6 0 0 0 .2 1.63c.13.46.32.83.55 1.13a2.24 2.24 0 0 0 1.84.9 2.35 2.35 0 0 0 1.85-.89c.24-.3.42-.68.55-1.14Zm-.86-3c.1.36.14.82.14 1.37 0 .55-.04 1-.14 1.38a2.7 2.7 0 0 1-.37.89 1.4 1.4 0 0 1-.53.49 1.46 1.46 0 0 1-1.27 0 1.4 1.4 0 0 1-.54-.49 2.84 2.84 0 0 1-.37-.9 5.93 5.93 0 0 1-.13-1.37c0-.55.04-1 .13-1.38.1-.37.22-.67.37-.9a1.36 1.36 0 0 1 1.17-.63 1.36 1.36 0 0 1 1.17.64c.16.22.28.52.37.9Zm46.69-1.14c-.13.25-.22.54-.27.87l.46.07c.13.02.22.01.28-.03.07-.03.13-.11.17-.23a1.36 1.36 0 0 1 .46-.77c.12-.1.26-.17.41-.22a1.6 1.6 0 0 1 1 0 1 1 0 0 1 .67.6c.08.15.1.33.1.54 0 .19-.02.36-.09.51a.94.94 0 0 1-.3.4c-.12.1-.3.2-.52.25-.2.07-.47.1-.78.1v.65c.38 0 .68.03.92.1s.43.16.56.28c.14.11.23.25.28.41.05.16.08.34.08.53 0 .16-.03.31-.1.47a1.35 1.35 0 0 1-.75.76c-.19.08-.4.12-.66.12a1.45 1.45 0 0 1-1.37-.8l-.16-.34a.29.29 0 0 0-.2-.17.47.47 0 0 0-.3.04l-.38.16c.08.27.18.51.3.75a2.06 2.06 0 0 0 1.14.98c.28.1.6.14.98.14.33 0 .64-.05.93-.15.29-.1.54-.24.76-.42a2 2 0 0 0 .7-1.56c0-.44-.12-.8-.36-1.1a1.9 1.9 0 0 0-1.05-.61c.2-.06.37-.14.52-.24a1.46 1.46 0 0 0 .64-.8c.06-.18.09-.38.09-.61 0-.28-.05-.53-.16-.75-.1-.23-.24-.43-.43-.59-.18-.16-.4-.28-.66-.37a2.68 2.68 0 0 0-1.7 0 2.1 2.1 0 0 0-1.21 1.02Zm10.17 4.14c.14-.46.21-1 .21-1.63a6 6 0 0 0-.2-1.63 3.38 3.38 0 0 0-.55-1.14 2.2 2.2 0 0 0-.83-.68 2.4 2.4 0 0 0-1.03-.22 2.22 2.22 0 0 0-1.84.9c-.23.3-.42.68-.55 1.14a6 6 0 0 0-.2 1.63 6 6 0 0 0 .2 1.63c.13.46.32.83.55 1.13a2.23 2.23 0 0 0 1.84.9c.37 0 .7-.08 1.03-.23.31-.14.6-.36.83-.66.23-.3.41-.68.55-1.14Zm-.86-3c.1.36.14.82.14 1.37 0 .55-.04 1-.13 1.38a2.7 2.7 0 0 1-.38.89 1.4 1.4 0 0 1-.53.49 1.46 1.46 0 0 1-1.27 0c-.2-.1-.38-.26-.54-.49a2.82 2.82 0 0 1-.36-.9 5.93 5.93 0 0 1-.14-1.37c0-.55.05-1 .14-1.38.09-.37.21-.67.36-.9a1.35 1.35 0 0 1 1.17-.63 1.37 1.37 0 0 1 1.17.64c.16.22.28.52.38.9Zm56.87 3a6 6 0 0 0 .2-1.63 6 6 0 0 0-.2-1.63 3.38 3.38 0 0 0-.56-1.14 2.2 2.2 0 0 0-.83-.68 2.4 2.4 0 0 0-1.01-.22 2.22 2.22 0 0 0-1.84.9c-.24.3-.43.68-.56 1.14a6 6 0 0 0-.2 1.63 6 6 0 0 0 .2 1.63c.13.46.32.83.55 1.13a2.23 2.23 0 0 0 1.84.9c.37 0 .7-.08 1.03-.23.32-.14.6-.36.83-.66.23-.3.41-.68.54-1.14Zm-.87-3c.1.36.14.82.14 1.37 0 .55-.04 1-.13 1.38a2.7 2.7 0 0 1-.38.89 1.4 1.4 0 0 1-.53.49 1.46 1.46 0 0 1-1.27 0c-.2-.1-.38-.26-.53-.49a2.82 2.82 0 0 1-.38-.9 5.93 5.93 0 0 1-.13-1.37c0-.55.04-1 .13-1.38.1-.37.22-.67.38-.9a1.35 1.35 0 0 1 1.17-.63 1.37 1.37 0 0 1 1.17.64c.15.22.28.52.37.9Zm-6.58-.59v2.95h-2.57l2.6-3.55a5.97 5.97 0 0 0-.03.6Zm1.86 3.47v-.52h-1.08v-4.57h-.83l-3.49 4.62.1.45c0 .06.04.11.08.15.05.04.11.06.18.06h3.18V195h.78v-1.88h.89c.07 0 .11-.02.14-.06a.2.2 0 0 0 .05-.13Zm61.59.12a6 6 0 0 0 .2-1.63 6 6 0 0 0-.2-1.63 3.38 3.38 0 0 0-.56-1.14 2.2 2.2 0 0 0-.83-.68 2.4 2.4 0 0 0-1.01-.22 2.22 2.22 0 0 0-1.84.9c-.24.3-.43.68-.56 1.14a6 6 0 0 0-.2 1.63 6 6 0 0 0 .2 1.63c.13.46.32.83.55 1.13a2.23 2.23 0 0 0 1.84.9c.37 0 .7-.08 1.03-.23.32-.14.6-.36.83-.66.23-.3.41-.68.54-1.14Zm-.87-3c.1.36.14.82.14 1.37 0 .55-.04 1-.13 1.38a2.7 2.7 0 0 1-.38.89 1.4 1.4 0 0 1-.53.49 1.46 1.46 0 0 1-1.27 0c-.2-.1-.38-.26-.53-.49a2.82 2.82 0 0 1-.38-.9 5.93 5.93 0 0 1-.13-1.37c0-.55.04-1 .13-1.38.1-.37.22-.67.38-.9a1.35 1.35 0 0 1 1.17-.63 1.37 1.37 0 0 1 1.17.64c.15.22.28.52.37.9Zm-7.4.37c-.3 0-.65.04-1.02.12l.33-1.88h2.25c.19 0 .32-.04.4-.12a.44.44 0 0 0 .12-.31v-.4h-3.4l-.57 3.35.56.17a3.75 3.75 0 0 1 1.16-.19c.26 0 .5.03.69.1.2.08.36.17.49.3.13.13.23.28.3.46a1.98 1.98 0 0 1-.02 1.3 1.47 1.47 0 0 1-.84.88c-.2.08-.43.12-.68.12a2 2 0 0 1-1-.25 6.54 6.54 0 0 1-.3-.17.43.43 0 0 0-.23-.09.3.3 0 0 0-.24.13l-.27.38a2.7 2.7 0 0 0 .84.53 3.06 3.06 0 0 0 2.17.06 2.38 2.38 0 0 0 1.36-1.3 2.6 2.6 0 0 0 .05-1.89 1.98 1.98 0 0 0-1.15-1.14 2.75 2.75 0 0 0-1-.16Zm64.27 2.63a6 6 0 0 0 .2-1.63 6 6 0 0 0-.2-1.63 3.38 3.38 0 0 0-.56-1.14 2.2 2.2 0 0 0-.82-.68 2.4 2.4 0 0 0-1.03-.22 2.22 2.22 0 0 0-1.84.9c-.23.3-.42.68-.55 1.14a6 6 0 0 0-.2 1.63 6 6 0 0 0 .2 1.63c.13.46.32.83.55 1.13a2.23 2.23 0 0 0 1.84.9c.37 0 .7-.08 1.03-.23.31-.14.6-.36.82-.66.24-.3.42-.68.56-1.14Zm-.87-3c.1.36.14.82.14 1.37 0 .55-.04 1-.13 1.38a2.7 2.7 0 0 1-.38.89 1.4 1.4 0 0 1-.53.49 1.46 1.46 0 0 1-1.27 0c-.2-.1-.38-.26-.53-.49a2.82 2.82 0 0 1-.38-.9 5.93 5.93 0 0 1-.13-1.37c0-.55.04-1 .13-1.38.1-.37.22-.67.38-.9a1.35 1.35 0 0 1 1.16-.63 1.37 1.37 0 0 1 1.17.64c.16.22.29.52.38.9Zm-6.7 4.17a1.83 1.83 0 0 1-1.28.01 1.37 1.37 0 0 1-.47-.32 1.4 1.4 0 0 1-.29-.49 1.9 1.9 0 0 1-.1-.63 1.47 1.47 0 0 1 .91-1.38c.2-.08.41-.12.65-.12.23 0 .43.03.62.1a1.33 1.33 0 0 1 .8.79 1.7 1.7 0 0 1-.01 1.24 1.42 1.42 0 0 1-.82.8Zm-1.35-3.47.19-.23 2.12-2.69h-.79a.62.62 0 0 0-.47.22l-1.82 2.44c-.3.4-.53.79-.67 1.14a2.8 2.8 0 0 0-.04 2.02c.12.3.28.56.48.77.2.21.46.37.75.49a2.8 2.8 0 0 0 1.98-.01 2.28 2.28 0 0 0 1.45-2.16c0-.34-.05-.64-.17-.9a1.92 1.92 0 0 0-1.13-1.09 2.3 2.3 0 0 0-2.04.22l.16-.22Z" clip-rule="evenodd"/><g clip-path="url(#b)"><path fill="#92999E" fill-rule="evenodd" d="M34 176v-1h-1v1h1Zm96 0v-1h-1v1h1Zm96-1v1h-1v-1h1Zm-189 1v-1h-1v1h1Zm96-1v1h-1v-1h1Zm96 1v-1h-1v1h1Zm-189-1v1h-1v-1h1Zm96 1v-1h-1v1h1Zm96-1v1h-1v-1h1Zm-189 1v-1h-1v1h1Zm96-1v1h-1v-1h1Zm96 1v-1h-1v1h1Zm-189-1v1h-1v-1h1Zm96 1v-1h-1v1h1Zm96-1v1h-1v-1h1Zm-189 1v-1h-1v1h1Zm96-1v1h-1v-1h1Zm96 1v-1h-1v1h1Zm-189-1v1h-1v-1h1Zm96 1v-1h-1v1h1Zm96-1v1h-1v-1h1Zm-189 1v-1h-1v1h1Zm96-1v1h-1v-1h1Zm96 1v-1h-1v1h1Zm-189-1v1h-1v-1h1Zm96 1v-1h-1v1h1Zm96-1v1h-1v-1h1Zm-189 1v-1h-1v1h1Zm96-1v1h-1v-1h1Zm96 1v-1h-1v1h1Zm-189-1v1h-1v-1h1Zm96 1v-1h-1v1h1Zm96-1v1h-1v-1h1Zm-189 1v-1h-1v1h1Zm96-1v1h-1v-1h1Zm96 1v-1h-1v1h1Zm-189-1v1h-1v-1h1Zm96 1v-1h-1v1h1Zm96-1v1h-1v-1h1Zm-189 1v-1h-1v1h1Zm96-1v1h-1v-1h1Zm96 1v-1h-1v1h1Zm-189-1v1h-1v-1h1Zm96 1v-1h-1v1h1Zm96-1v1h-1v-1h1Zm-189 1v-1h-1v1h1Zm96-1v1h-1v-1h1Zm96 1v-1h-1v1h1Zm-189-1v1h-1v-1h1Zm96 1v-1h-1v1h1Zm96-1v1h-1v-1h1Zm-189 1v-1h-1v1h1Zm96-1v1h-1v-1h1Zm96 1v-1h-1v1h1Zm-189-1v1h-1v-1h1Zm96 1v-1h-1v1h1Zm96-1v1h-1v-1h1Zm-189 1v-1h-1v1h1Zm96-1v1h-1v-1h1Zm96 1v-1h-1v1h1Zm39-1v1h-1v-1h1Zm-228 1v-1h-1v1h1Zm96-1v1h-1v-1h1Zm96 1v-1h-1v1h1Zm39-1v1h-1v-1h1Zm-228 1v-1h-1v1h1Zm96-1v1h-1v-1h1Zm96 1v-1h-1v1h1Zm39-1v1h-1v-1h1Zm-228 1v-1h-1v1h1Zm96-1v1h-1v-1h1Zm96 1v-1h-1v1h1Zm39-1v1h-1v-1h1Zm-228 1v-1h-1v1h1Zm96-1v1h-1v-1h1Zm96 1v-1h-1v1h1Zm39-1v1h-1v-1h1Zm-228 1v-1h-1v1h1Zm96-1v1h-1v-1h1Zm96 1v-1h-1v1h1Zm39-1v1h-1v-1h1Zm-228 1v-1h-1v1h1Zm96-1v1h-1v-1h1Zm96 1v-1h-1v1h1Zm39-1v1h-1v-1h1Zm-228 1v-1h-1v1h1Zm96-1v1h-1v-1h1Zm96 1v-1h-1v1h1Zm39-1v1h-1v-1h1Zm-228 1v-1h-1v1h1Zm96-1v1h-1v-1h1Zm96 1v-1h-1v1h1Zm39-1v1h-1v-1h1Zm-228 1v-1h-1v1h1Zm96-1v1h-1v-1h1Zm96 1v-1h-1v1h1Zm39-1v1h-1v-1h1Zm-228 1v-1h-1v1h1Zm96-1v1h-1v-1h1Zm96 1v-1h-1v1h1Zm39-1v1h-1v-1h1Zm-228 1v-1h-1v1h1Zm96-1v1h-1v-1h1Zm96 1v-1h-1v1h1Zm39-1v1h-1v-1h1Zm-228 1v-1h-1v1h1Zm96-1v1h-1v-1h1Zm96 1v-1h-1v1h1Z" clip-rule="evenodd"/></g><g clip-path="url(#c)"><path fill="#92999E" fill-rule="evenodd" d="M34 175h-1v1h1v-1Zm0-96h-1v1h1v-1Zm-1-96h1v1h-1v-1Zm1 189h-1v1h1v-1Zm-1-96h1v1h-1v-1Zm1-96h-1v1h1v-1Zm-1 189h1v1h-1v-1Zm1-96h-1v1h1v-1Zm-1-96h1v1h-1v-1Zm1 189h-1v1h1v-1Zm-1-96h1v1h-1v-1Zm1-96h-1v1h1v-1Zm-1 189h1v1h-1v-1Zm1-96h-1v1h1v-1Zm-1-96h1v1h-1v-1Zm1 189h-1v1h1v-1Zm-1-96h1v1h-1v-1Zm1-96h-1v1h1v-1Zm-1 189h1v1h-1v-1Zm1-96h-1v1h1v-1Zm-1-96h1v1h-1v-1Zm1 189h-1v1h1v-1Zm-1-96h1v1h-1v-1Zm1-96h-1v1h1v-1Zm-1 189h1v1h-1v-1Zm1-96h-1v1h1v-1Zm-1-96h1v1h-1v-1Zm1 189h-1v1h1v-1Zm-1-96h1v1h-1v-1Zm1-96h-1v1h1v-1Zm-1 189h1v1h-1v-1Zm1-96h-1v1h1v-1Zm-1-96h1v1h-1v-1Zm1 189h-1v1h1v-1Zm-1-96h1v1h-1v-1Zm1-96h-1v1h1v-1Zm-1 189h1v1h-1v-1Zm1-96h-1v1h1v-1Zm-1-96h1v1h-1v-1Zm1 189h-1v1h1v-1Zm-1-96h1v1h-1v-1Zm1-96h-1v1h1v-1Zm-1 189h1v1h-1v-1Zm1-96h-1v1h1v-1Zm-1-96h1v1h-1v-1Zm1 189h-1v1h1v-1Zm-1-96h1v1h-1v-1Zm1-96h-1v1h1v-1Zm-1 189h1v1h-1v-1Zm1-96h-1v1h1v-1Zm-1-96h1v1h-1v-1Zm1 189h-1v1h1v-1Zm-1-96h1v1h-1v-1Zm1-96h-1v1h1v-1Zm-1 189h1v1h-1v-1Zm1-96h-1v1h1v-1Zm-1-96h1v1h-1v-1Zm1 189h-1v1h1v-1Zm-1-96h1v1h-1v-1Zm1-96h-1v1h1v-1Zm-1-39h1v1h-1v-1Zm1 228h-1v1h1v-1Zm-1-96h1v1h-1v-1Zm1-96h-1v1h1v-1Zm-1-39h1v1h-1v-1Zm1 228h-1v1h1v-1Zm-1-96h1v1h-1v-1Zm1-96h-1v1h1v-1Zm-1-39h1v1h-1v-1Zm1 228h-1v1h1v-1Zm-1-96h1v1h-1v-1Zm1-96h-1v1h1v-1Zm-1-39h1v1h-1v-1Zm1 228h-1v1h1v-1Zm-1-96h1v1h-1v-1Zm1-96h-1v1h1v-1Zm-1-39h1v1h-1v-1Zm1 228h-1v1h1v-1ZM33 7h1v1h-1V7Zm1-96h-1v1h1v-1Zm-1-39h1v1h-1v-1Zm1 228h-1v1h1v-1ZM33 4h1v1h-1V4Zm1-96h-1v1h1v-1Zm-1-39h1v1h-1v-1Zm1 228h-1v1h1v-1ZM33 1h1v1h-1V1Zm1-96h-1v1h1v-1Zm-1-39h1v1h-1v-1Zm1 228h-1v1h1v-1ZM33-2h1v1h-1v-1Zm1-96h-1v1h1v-1Zm-1-39h1v1h-1v-1Zm1 228h-1v1h1v-1ZM33-5h1v1h-1v-1Zm1-96h-1v1h1v-1Zm-1-39h1v1h-1v-1Zm1 228h-1v1h1v-1ZM33-8h1v1h-1v-1Zm1-96h-1v1h1v-1Zm-1-39h1v1h-1v-1Zm1 228h-1v1h1v-1Zm-1-96h1v1h-1v-1Zm1-96h-1v1h1v-1Zm-1-39h1v1h-1v-1Zm1 228h-1v1h1v-1Zm-1-96h1v1h-1v-1Zm1-96h-1v1h1v-1Z" clip-rule="evenodd"/></g><g clip-path="url(#d)"><path fill="#071722" fill-opacity=".14" fill-rule="evenodd" d="M34 128v-1h-1v1h1Zm96 0v-1h-1v1h1Zm96-1v1h-1v-1h1Zm-189 1v-1h-1v1h1Zm96-1v1h-1v-1h1Zm96 1v-1h-1v1h1Zm-189-1v1h-1v-1h1Zm96 1v-1h-1v1h1Zm96-1v1h-1v-1h1Zm-189 1v-1h-1v1h1Zm96-1v1h-1v-1h1Zm96 1v-1h-1v1h1Zm-189-1v1h-1v-1h1Zm96 1v-1h-1v1h1Zm96-1v1h-1v-1h1Zm-189 1v-1h-1v1h1Zm96-1v1h-1v-1h1Zm96 1v-1h-1v1h1Zm-189-1v1h-1v-1h1Zm96 1v-1h-1v1h1Zm96-1v1h-1v-1h1Zm-189 1v-1h-1v1h1Zm96-1v1h-1v-1h1Zm96 1v-1h-1v1h1Zm-189-1v1h-1v-1h1Zm96 1v-1h-1v1h1Zm96-1v1h-1v-1h1Zm-189 1v-1h-1v1h1Zm96-1v1h-1v-1h1Zm96 1v-1h-1v1h1Zm-189-1v1h-1v-1h1Zm96 1v-1h-1v1h1Zm96-1v1h-1v-1h1Zm-189 1v-1h-1v1h1Zm96-1v1h-1v-1h1Zm96 1v-1h-1v1h1Zm-189-1v1h-1v-1h1Zm96 1v-1h-1v1h1Zm96-1v1h-1v-1h1Zm-189 1v-1h-1v1h1Zm96-1v1h-1v-1h1Zm96 1v-1h-1v1h1Zm-189-1v1h-1v-1h1Zm96 1v-1h-1v1h1Zm96-1v1h-1v-1h1Zm-189 1v-1h-1v1h1Zm96-1v1h-1v-1h1Zm96 1v-1h-1v1h1Zm-189-1v1h-1v-1h1Zm96 1v-1h-1v1h1Zm96-1v1h-1v-1h1Zm-189 1v-1h-1v1h1Zm96-1v1h-1v-1h1Zm96 1v-1h-1v1h1Zm-189-1v1h-1v-1h1Zm96 1v-1h-1v1h1Zm96-1v1h-1v-1h1Zm-189 1v-1h-1v1h1Zm96-1v1h-1v-1h1Zm96 1v-1h-1v1h1Zm39-1v1h-1v-1h1Zm-228 1v-1h-1v1h1Zm96-1v1h-1v-1h1Zm96 1v-1h-1v1h1Zm39-1v1h-1v-1h1Zm-228 1v-1h-1v1h1Zm96-1v1h-1v-1h1Zm96 1v-1h-1v1h1Zm39-1v1h-1v-1h1Zm-228 1v-1h-1v1h1Zm96-1v1h-1v-1h1Zm96 1v-1h-1v1h1Zm39-1v1h-1v-1h1Zm-228 1v-1h-1v1h1Zm96-1v1h-1v-1h1Zm96 1v-1h-1v1h1Zm39-1v1h-1v-1h1Zm-228 1v-1h-1v1h1Zm96-1v1h-1v-1h1Zm96 1v-1h-1v1h1Zm39-1v1h-1v-1h1Zm-228 1v-1h-1v1h1Zm96-1v1h-1v-1h1Zm96 1v-1h-1v1h1Zm39-1v1h-1v-1h1Zm-228 1v-1h-1v1h1Zm96-1v1h-1v-1h1Zm96 1v-1h-1v1h1Zm39-1v1h-1v-1h1Zm-228 1v-1h-1v1h1Zm96-1v1h-1v-1h1Zm96 1v-1h-1v1h1Zm39-1v1h-1v-1h1Zm-228 1v-1h-1v1h1Zm96-1v1h-1v-1h1Zm96 1v-1h-1v1h1Zm39-1v1h-1v-1h1Zm-228 1v-1h-1v1h1Zm96-1v1h-1v-1h1Zm96 1v-1h-1v1h1Zm39-1v1h-1v-1h1Zm-228 1v-1h-1v1h1Zm96-1v1h-1v-1h1Zm96 1v-1h-1v1h1Zm39-1v1h-1v-1h1Zm-228 1v-1h-1v1h1Zm96-1v1h-1v-1h1Zm96 1v-1h-1v1h1Z" clip-rule="evenodd"/></g><g clip-path="url(#e)"><path fill="#071722" fill-opacity=".14" fill-rule="evenodd" d="M34 89v-1h-1v1h1Zm96 0v-1h-1v1h1Zm96-1v1h-1v-1h1ZM37 89v-1h-1v1h1Zm96-1v1h-1v-1h1Zm96 1v-1h-1v1h1ZM40 88v1h-1v-1h1Zm96 1v-1h-1v1h1Zm96-1v1h-1v-1h1ZM43 89v-1h-1v1h1Zm96-1v1h-1v-1h1Zm96 1v-1h-1v1h1ZM46 88v1h-1v-1h1Zm96 1v-1h-1v1h1Zm96-1v1h-1v-1h1ZM49 89v-1h-1v1h1Zm96-1v1h-1v-1h1Zm96 1v-1h-1v1h1ZM52 88v1h-1v-1h1Zm96 1v-1h-1v1h1Zm96-1v1h-1v-1h1ZM55 89v-1h-1v1h1Zm96-1v1h-1v-1h1Zm96 1v-1h-1v1h1ZM58 88v1h-1v-1h1Zm96 1v-1h-1v1h1Zm96-1v1h-1v-1h1ZM61 89v-1h-1v1h1Zm96-1v1h-1v-1h1Zm96 1v-1h-1v1h1ZM64 88v1h-1v-1h1Zm96 1v-1h-1v1h1Zm96-1v1h-1v-1h1ZM67 89v-1h-1v1h1Zm96-1v1h-1v-1h1Zm96 1v-1h-1v1h1ZM70 88v1h-1v-1h1Zm96 1v-1h-1v1h1Zm96-1v1h-1v-1h1ZM73 89v-1h-1v1h1Zm96-1v1h-1v-1h1Zm96 1v-1h-1v1h1ZM76 88v1h-1v-1h1Zm96 1v-1h-1v1h1Zm96-1v1h-1v-1h1ZM79 89v-1h-1v1h1Zm96-1v1h-1v-1h1Zm96 1v-1h-1v1h1ZM82 88v1h-1v-1h1Zm96 1v-1h-1v1h1Zm96-1v1h-1v-1h1ZM85 89v-1h-1v1h1Zm96-1v1h-1v-1h1Zm96 1v-1h-1v1h1ZM88 88v1h-1v-1h1Zm96 1v-1h-1v1h1Zm96-1v1h-1v-1h1ZM91 89v-1h-1v1h1Zm96-1v1h-1v-1h1Zm96 1v-1h-1v1h1Zm39-1v1h-1v-1h1ZM94 89v-1h-1v1h1Zm96-1v1h-1v-1h1Zm96 1v-1h-1v1h1Zm39-1v1h-1v-1h1ZM97 89v-1h-1v1h1Zm96-1v1h-1v-1h1Zm96 1v-1h-1v1h1Zm39-1v1h-1v-1h1Zm-228 1v-1h-1v1h1Zm96-1v1h-1v-1h1Zm96 1v-1h-1v1h1Zm39-1v1h-1v-1h1Zm-228 1v-1h-1v1h1Zm96-1v1h-1v-1h1Zm96 1v-1h-1v1h1Zm39-1v1h-1v-1h1Zm-228 1v-1h-1v1h1Zm96-1v1h-1v-1h1Zm96 1v-1h-1v1h1Zm39-1v1h-1v-1h1Zm-228 1v-1h-1v1h1Zm96-1v1h-1v-1h1Zm96 1v-1h-1v1h1Zm39-1v1h-1v-1h1Zm-228 1v-1h-1v1h1Zm96-1v1h-1v-1h1Zm96 1v-1h-1v1h1Zm39-1v1h-1v-1h1Zm-228 1v-1h-1v1h1Zm96-1v1h-1v-1h1Zm96 1v-1h-1v1h1Zm39-1v1h-1v-1h1Zm-228 1v-1h-1v1h1Zm96-1v1h-1v-1h1Zm96 1v-1h-1v1h1Zm39-1v1h-1v-1h1Zm-228 1v-1h-1v1h1Zm96-1v1h-1v-1h1Zm96 1v-1h-1v1h1Zm39-1v1h-1v-1h1Zm-228 1v-1h-1v1h1Zm96-1v1h-1v-1h1Zm96 1v-1h-1v1h1Zm39-1v1h-1v-1h1Zm-228 1v-1h-1v1h1Zm96-1v1h-1v-1h1Zm96 1v-1h-1v1h1Z" clip-rule="evenodd"/></g><g clip-path="url(#f)"><path fill="#071722" fill-opacity=".14" fill-rule="evenodd" d="M34 49v-1h-1v1h1Zm96 0v-1h-1v1h1Zm96-1v1h-1v-1h1ZM37 49v-1h-1v1h1Zm96-1v1h-1v-1h1Zm96 1v-1h-1v1h1ZM40 48v1h-1v-1h1Zm96 1v-1h-1v1h1Zm96-1v1h-1v-1h1ZM43 49v-1h-1v1h1Zm96-1v1h-1v-1h1Zm96 1v-1h-1v1h1ZM46 48v1h-1v-1h1Zm96 1v-1h-1v1h1Zm96-1v1h-1v-1h1ZM49 49v-1h-1v1h1Zm96-1v1h-1v-1h1Zm96 1v-1h-1v1h1ZM52 48v1h-1v-1h1Zm96 1v-1h-1v1h1Zm96-1v1h-1v-1h1ZM55 49v-1h-1v1h1Zm96-1v1h-1v-1h1Zm96 1v-1h-1v1h1ZM58 48v1h-1v-1h1Zm96 1v-1h-1v1h1Zm96-1v1h-1v-1h1ZM61 49v-1h-1v1h1Zm96-1v1h-1v-1h1Zm96 1v-1h-1v1h1ZM64 48v1h-1v-1h1Zm96 1v-1h-1v1h1Zm96-1v1h-1v-1h1ZM67 49v-1h-1v1h1Zm96-1v1h-1v-1h1Zm96 1v-1h-1v1h1ZM70 48v1h-1v-1h1Zm96 1v-1h-1v1h1Zm96-1v1h-1v-1h1ZM73 49v-1h-1v1h1Zm96-1v1h-1v-1h1Zm96 1v-1h-1v1h1ZM76 48v1h-1v-1h1Zm96 1v-1h-1v1h1Zm96-1v1h-1v-1h1ZM79 49v-1h-1v1h1Zm96-1v1h-1v-1h1Zm96 1v-1h-1v1h1ZM82 48v1h-1v-1h1Zm96 1v-1h-1v1h1Zm96-1v1h-1v-1h1ZM85 49v-1h-1v1h1Zm96-1v1h-1v-1h1Zm96 1v-1h-1v1h1ZM88 48v1h-1v-1h1Zm96 1v-1h-1v1h1Zm96-1v1h-1v-1h1ZM91 49v-1h-1v1h1Zm96-1v1h-1v-1h1Zm96 1v-1h-1v1h1Zm39-1v1h-1v-1h1ZM94 49v-1h-1v1h1Zm96-1v1h-1v-1h1Zm96 1v-1h-1v1h1Zm39-1v1h-1v-1h1ZM97 49v-1h-1v1h1Zm96-1v1h-1v-1h1Zm96 1v-1h-1v1h1Zm39-1v1h-1v-1h1Zm-228 1v-1h-1v1h1Zm96-1v1h-1v-1h1Zm96 1v-1h-1v1h1Zm39-1v1h-1v-1h1Zm-228 1v-1h-1v1h1Zm96-1v1h-1v-1h1Zm96 1v-1h-1v1h1Zm39-1v1h-1v-1h1Zm-228 1v-1h-1v1h1Zm96-1v1h-1v-1h1Zm96 1v-1h-1v1h1Zm39-1v1h-1v-1h1Zm-228 1v-1h-1v1h1Zm96-1v1h-1v-1h1Zm96 1v-1h-1v1h1Zm39-1v1h-1v-1h1Zm-228 1v-1h-1v1h1Zm96-1v1h-1v-1h1Zm96 1v-1h-1v1h1Zm39-1v1h-1v-1h1Zm-228 1v-1h-1v1h1Zm96-1v1h-1v-1h1Zm96 1v-1h-1v1h1Zm39-1v1h-1v-1h1Zm-228 1v-1h-1v1h1Zm96-1v1h-1v-1h1Zm96 1v-1h-1v1h1Zm39-1v1h-1v-1h1Zm-228 1v-1h-1v1h1Zm96-1v1h-1v-1h1Zm96 1v-1h-1v1h1Zm39-1v1h-1v-1h1Zm-228 1v-1h-1v1h1Zm96-1v1h-1v-1h1Zm96 1v-1h-1v1h1Zm39-1v1h-1v-1h1Zm-228 1v-1h-1v1h1Zm96-1v1h-1v-1h1Zm96 1v-1h-1v1h1Z" clip-rule="evenodd"/></g><g clip-path="url(#g)"><path fill="#071722" fill-opacity=".14" fill-rule="evenodd" d="M34 8V7h-1v1h1Zm96 0V7h-1v1h1Zm96-1v1h-1V7h1ZM37 8V7h-1v1h1Zm96-1v1h-1V7h1Zm96 1V7h-1v1h1ZM40 7v1h-1V7h1Zm96 1V7h-1v1h1Zm96-1v1h-1V7h1ZM43 8V7h-1v1h1Zm96-1v1h-1V7h1Zm96 1V7h-1v1h1ZM46 7v1h-1V7h1Zm96 1V7h-1v1h1Zm96-1v1h-1V7h1ZM49 8V7h-1v1h1Zm96-1v1h-1V7h1Zm96 1V7h-1v1h1ZM52 7v1h-1V7h1Zm96 1V7h-1v1h1Zm96-1v1h-1V7h1ZM55 8V7h-1v1h1Zm96-1v1h-1V7h1Zm96 1V7h-1v1h1ZM58 7v1h-1V7h1Zm96 1V7h-1v1h1Zm96-1v1h-1V7h1ZM61 8V7h-1v1h1Zm96-1v1h-1V7h1Zm96 1V7h-1v1h1ZM64 7v1h-1V7h1Zm96 1V7h-1v1h1Zm96-1v1h-1V7h1ZM67 8V7h-1v1h1Zm96-1v1h-1V7h1Zm96 1V7h-1v1h1ZM70 7v1h-1V7h1Zm96 1V7h-1v1h1Zm96-1v1h-1V7h1ZM73 8V7h-1v1h1Zm96-1v1h-1V7h1Zm96 1V7h-1v1h1ZM76 7v1h-1V7h1Zm96 1V7h-1v1h1Zm96-1v1h-1V7h1ZM79 8V7h-1v1h1Zm96-1v1h-1V7h1Zm96 1V7h-1v1h1ZM82 7v1h-1V7h1Zm96 1V7h-1v1h1Zm96-1v1h-1V7h1ZM85 8V7h-1v1h1Zm96-1v1h-1V7h1Zm96 1V7h-1v1h1ZM88 7v1h-1V7h1Zm96 1V7h-1v1h1Zm96-1v1h-1V7h1ZM91 8V7h-1v1h1Zm96-1v1h-1V7h1Zm96 1V7h-1v1h1Zm39-1v1h-1V7h1ZM94 8V7h-1v1h1Zm96-1v1h-1V7h1Zm96 1V7h-1v1h1Zm39-1v1h-1V7h1ZM97 8V7h-1v1h1Zm96-1v1h-1V7h1Zm96 1V7h-1v1h1Zm39-1v1h-1V7h1ZM100 8V7h-1v1h1Zm96-1v1h-1V7h1Zm96 1V7h-1v1h1Zm39-1v1h-1V7h1ZM103 8V7h-1v1h1Zm96-1v1h-1V7h1Zm96 1V7h-1v1h1Zm39-1v1h-1V7h1ZM106 8V7h-1v1h1Zm96-1v1h-1V7h1Zm96 1V7h-1v1h1Zm39-1v1h-1V7h1ZM109 8V7h-1v1h1Zm96-1v1h-1V7h1Zm96 1V7h-1v1h1Zm39-1v1h-1V7h1ZM112 8V7h-1v1h1Zm96-1v1h-1V7h1Zm96 1V7h-1v1h1Zm39-1v1h-1V7h1ZM115 8V7h-1v1h1Zm96-1v1h-1V7h1Zm96 1V7h-1v1h1Zm39-1v1h-1V7h1ZM118 8V7h-1v1h1Zm96-1v1h-1V7h1Zm96 1V7h-1v1h1Zm39-1v1h-1V7h1ZM121 8V7h-1v1h1Zm96-1v1h-1V7h1Zm96 1V7h-1v1h1Zm39-1v1h-1V7h1ZM124 8V7h-1v1h1Zm96-1v1h-1V7h1Zm96 1V7h-1v1h1Zm39-1v1h-1V7h1ZM127 8V7h-1v1h1Zm96-1v1h-1V7h1Zm96 1V7h-1v1h1Z" clip-rule="evenodd"/></g><path fill="url(#h)" fill-opacity=".1" fill-rule="evenodd" d="M272 32a8 8 0 1 0 0-16 8 8 0 0 0 0 16Zm34 9a8 8 0 1 1-16 0 8 8 0 0 1 16 0Zm-18 27a8 8 0 1 0 0-16 8 8 0 0 0 0 16Zm-86 11a7 7 0 1 0 0-14 7 7 0 0 0 0 14Zm-32 20a7 7 0 1 0 0-14 7 7 0 0 0 0 14Zm-80 13a6 6 0 1 1-12 0 6 6 0 0 1 12 0Zm-24 37a4 4 0 1 0 0-8 4 4 0 0 0 0 8Zm78 12a3 3 0 1 0 0-6 3 3 0 0 0 0 6Zm-26-31a6 6 0 1 0 0-12 6 6 0 0 0 0 12Zm-12 5a4 4 0 1 1-8 0 4 4 0 0 1 8 0Zm94-31a6 6 0 1 1-12 0 6 6 0 0 1 12 0Zm43-23a7 7 0 1 1-14 0 7 7 0 0 1 14 0Z" clip-rule="evenodd"/><path fill="#92999E" fill-rule="evenodd" d="M12.19 8.66c0 .63-.07 1.18-.2 1.63-.14.46-.33.84-.56 1.14-.23.3-.5.52-.83.67a2.4 2.4 0 0 1-1.02.22 2.24 2.24 0 0 1-1.85-.89 3.4 3.4 0 0 1-.54-1.13c-.14-.46-.2-1-.2-1.64 0-.62.06-1.17.2-1.63.13-.46.31-.83.55-1.14A2.22 2.22 0 0 1 9.58 5c.36 0 .7.07 1.02.22.32.15.6.37.83.67.23.3.42.69.55 1.15.14.46.2 1 .2 1.62Zm-.93 0c0-.54-.05-1-.14-1.37a2.69 2.69 0 0 0-.37-.9 1.36 1.36 0 0 0-1.17-.63 1.36 1.36 0 0 0-1.17.63 2.9 2.9 0 0 0-.37.9c-.09.37-.13.83-.13 1.37 0 .55.04 1.01.13 1.38.1.37.22.67.37.9.15.22.33.38.54.49a1.46 1.46 0 0 0 1.27 0c.2-.1.38-.27.53-.5.16-.22.28-.52.37-.89.1-.37.14-.83.14-1.38Zm6.73 0c0 .63-.07 1.18-.2 1.63-.14.46-.32.84-.56 1.14-.23.3-.5.52-.83.67a2.4 2.4 0 0 1-1.02.22 2.24 2.24 0 0 1-1.85-.89 3.4 3.4 0 0 1-.54-1.13c-.14-.46-.2-1-.2-1.64 0-.62.06-1.17.2-1.63.13-.46.31-.83.55-1.14A2.22 2.22 0 0 1 15.38 5c.36 0 .7.07 1.02.22.32.15.6.37.83.67.23.3.42.69.55 1.15.14.46.2 1 .2 1.62Zm-.93 0c0-.54-.04-1-.14-1.37a2.69 2.69 0 0 0-.37-.9 1.36 1.36 0 0 0-1.17-.63 1.36 1.36 0 0 0-1.17.63 2.9 2.9 0 0 0-.37.9c-.09.37-.13.83-.13 1.37 0 .55.04 1.01.13 1.38.1.37.22.67.37.9.15.22.33.38.54.49a1.46 1.46 0 0 0 1.27 0c.2-.1.38-.27.53-.5.16-.22.28-.52.37-.89.1-.37.14-.83.14-1.38ZM4.54 6.7v2.96H1.96l2.62-3.55a5.29 5.29 0 0 0-.04.6Zm1.86 3.47v-.51H5.32V5.08h-.83L1 9.71l.09.45c.01.06.04.1.09.14.05.04.1.06.18.06h3.17v1.88h.79v-1.88h.88c.07 0 .12-.02.15-.05a.2.2 0 0 0 .05-.14Zm-4.91 35.8a2.6 2.6 0 0 0-.27.87l.47.08c.12.02.21 0 .28-.03a.47.47 0 0 0 .16-.23 1.35 1.35 0 0 1 .47-.77c.11-.1.25-.17.4-.23.16-.05.33-.07.51-.07s.35.02.5.07c.16.05.3.13.4.23.12.1.2.22.27.38.07.15.1.33.1.53s-.03.36-.1.52a.94.94 0 0 1-.29.39c-.13.11-.3.2-.52.26-.22.06-.48.1-.79.1v.65c.38 0 .68.03.92.1.24.06.43.15.57.27.13.12.22.25.27.41.05.16.08.34.08.53a1.28 1.28 0 0 1-.38.91c-.12.14-.28.24-.47.33-.19.07-.4.11-.66.11-.27 0-.49-.04-.67-.12a1.44 1.44 0 0 1-.7-.68l-.16-.34a.29.29 0 0 0-.2-.16.47.47 0 0 0-.3.04l-.38.16c.08.26.19.51.3.74a2.05 2.05 0 0 0 1.15.98c.27.1.6.15.97.15.33 0 .64-.05.93-.15.29-.1.54-.24.76-.42a2 2 0 0 0 .7-1.57c0-.44-.12-.8-.35-1.09a1.9 1.9 0 0 0-1.05-.62c.18-.06.36-.14.51-.23a1.48 1.48 0 0 0 .64-.8 2.02 2.02 0 0 0-.07-1.37c-.1-.23-.24-.42-.43-.58-.18-.16-.4-.28-.66-.37a2.67 2.67 0 0 0-1.7 0 2.08 2.08 0 0 0-1.21 1.02Zm10.38 2.52a6.1 6.1 0 0 1-.2 1.63 3.6 3.6 0 0 1-.55 1.13c-.24.3-.51.52-.83.67a2.4 2.4 0 0 1-1.02.22 2.24 2.24 0 0 1-1.85-.89 3.4 3.4 0 0 1-.55-1.13 6 6 0 0 1-.2-1.63c0-.63.07-1.18.2-1.64.13-.45.32-.84.55-1.13a2.22 2.22 0 0 1 1.85-.9c.36 0 .7.07 1.02.22.32.15.6.37.83.68.23.3.41.68.55 1.13a6 6 0 0 1 .2 1.63Zm-.92 0c0-.55-.05-1.01-.14-1.38a2.7 2.7 0 0 0-.37-.9 1.36 1.36 0 0 0-1.17-.63 1.36 1.36 0 0 0-1.17.63c-.16.23-.28.53-.37.9-.1.37-.14.83-.14 1.38 0 .54.05 1 .14 1.37.09.37.21.67.37.9.15.22.33.39.53.48a1.46 1.46 0 0 0 1.27 0c.2-.1.38-.26.54-.48.15-.23.28-.53.37-.9.09-.37.14-.83.14-1.38Zm6.72 0a6.1 6.1 0 0 1-.2 1.63 3.6 3.6 0 0 1-.55 1.13c-.24.3-.51.52-.83.67a2.4 2.4 0 0 1-1.02.22 2.24 2.24 0 0 1-1.85-.89 3.6 3.6 0 0 1-.55-1.13 6 6 0 0 1-.2-1.63c0-.63.07-1.18.2-1.64.13-.45.32-.84.55-1.13a2.22 2.22 0 0 1 1.85-.9c.36 0 .7.07 1.02.22.32.15.6.37.83.68.23.3.41.68.55 1.13a6 6 0 0 1 .2 1.63Zm-.92 0c0-.55-.05-1.01-.14-1.38a2.7 2.7 0 0 0-.37-.9 1.36 1.36 0 0 0-1.17-.63 1.36 1.36 0 0 0-1.17.63c-.16.23-.28.53-.37.9-.1.37-.14.83-.14 1.38 0 .54.05 1 .14 1.37.09.37.21.67.37.9.15.22.33.39.53.48a1.46 1.46 0 0 0 1.27 0c.2-.1.38-.26.54-.48.15-.23.28-.53.37-.9.09-.37.14-.83.14-1.38ZM5.46 91.03c.1 0 .18.03.24.09a.3.3 0 0 1 .08.22v.54H1v-.3a.55.55 0 0 1 .17-.38l2.29-2.31.52-.56c.16-.17.29-.36.4-.53a2.42 2.42 0 0 0 .35-1.15c0-.2-.04-.39-.1-.55a1.06 1.06 0 0 0-.69-.62 1.56 1.56 0 0 0-.5-.08c-.18 0-.35.03-.5.08a1.36 1.36 0 0 0-.71.56c-.08.13-.14.27-.17.43-.04.12-.1.2-.17.23-.06.04-.16.05-.28.04l-.47-.08c.05-.33.14-.62.28-.87.13-.25.3-.47.5-.63.21-.17.45-.3.71-.39a2.61 2.61 0 0 1 1.7 0c.27.09.5.22.69.4.2.16.35.37.46.62a2.25 2.25 0 0 1 .04 1.59c-.08.22-.19.44-.32.64-.14.21-.3.41-.48.61l-.56.6-1.9 1.93a3.36 3.36 0 0 1 .8-.13h2.4Zm6.17-1.1a6 6 0 0 0 .2-1.63 6 6 0 0 0-.2-1.63 3.37 3.37 0 0 0-.55-1.14 2.2 2.2 0 0 0-.83-.68 2.4 2.4 0 0 0-1.02-.22 2.22 2.22 0 0 0-1.85.9c-.23.3-.42.68-.55 1.14a6 6 0 0 0-.2 1.63 6 6 0 0 0 .2 1.63c.13.46.32.84.55 1.14a2.24 2.24 0 0 0 1.85.89 2.32 2.32 0 0 0 1.85-.89c.23-.3.41-.68.55-1.14Zm-.86-3c.09.37.14.82.14 1.37 0 .55-.05 1-.14 1.38a2.7 2.7 0 0 1-.37.89 1.4 1.4 0 0 1-.54.49 1.46 1.46 0 0 1-1.27 0 1.4 1.4 0 0 1-.53-.49 2.84 2.84 0 0 1-.37-.9 5.93 5.93 0 0 1-.14-1.37c0-.55.05-1 .14-1.38.09-.37.21-.67.37-.9a1.36 1.36 0 0 1 1.17-.63 1.36 1.36 0 0 1 1.17.63c.15.23.28.53.37.9Zm6.66 3a6 6 0 0 0 .2-1.63 6 6 0 0 0-.2-1.63 3.36 3.36 0 0 0-.55-1.14 2.2 2.2 0 0 0-.83-.68 2.4 2.4 0 0 0-1.02-.22 2.22 2.22 0 0 0-1.85.9c-.23.3-.41.68-.55 1.14a6 6 0 0 0-.2 1.63 6 6 0 0 0 .2 1.63c.13.46.32.84.55 1.14a2.24 2.24 0 0 0 1.85.89 2.32 2.32 0 0 0 1.85-.89c.23-.3.41-.68.55-1.14Zm-.86-3c.09.37.14.82.14 1.37 0 .55-.05 1-.14 1.38-.1.37-.22.66-.37.89a1.4 1.4 0 0 1-.54.49 1.46 1.46 0 0 1-1.27 0 1.4 1.4 0 0 1-.53-.49 2.84 2.84 0 0 1-.37-.9 5.93 5.93 0 0 1-.14-1.37c0-.55.05-1 .14-1.38.09-.37.21-.67.37-.9a1.36 1.36 0 0 1 1.17-.63 1.36 1.36 0 0 1 1.17.63c.15.23.28.53.37.9Zm-5.09 41.19a6 6 0 0 1-.2 1.63c-.14.46-.32.84-.55 1.14-.24.3-.51.52-.83.66a2.4 2.4 0 0 1-1.02.22 2.24 2.24 0 0 1-1.84-.89c-.24-.3-.43-.67-.56-1.13a6 6 0 0 1-.2-1.63 6 6 0 0 1 .2-1.63c.13-.46.32-.84.55-1.14a2.23 2.23 0 0 1 1.85-.9 2.38 2.38 0 0 1 1.85.9c.23.3.41.68.55 1.14a6 6 0 0 1 .2 1.63Zm-.92 0c0-.55-.05-1-.14-1.38a2.7 2.7 0 0 0-.37-.9 1.36 1.36 0 0 0-1.17-.63 1.36 1.36 0 0 0-1.17.64c-.16.22-.28.52-.37.9-.1.36-.14.82-.14 1.37 0 .55.05 1 .14 1.38.09.37.21.66.37.89.15.23.33.39.53.49a1.46 1.46 0 0 0 1.27 0c.2-.1.38-.26.54-.49.15-.23.28-.53.37-.9.09-.37.14-.82.14-1.37Zm6.72 0a6 6 0 0 1-.2 1.63c-.14.46-.32.84-.55 1.14-.24.3-.51.52-.83.66a2.4 2.4 0 0 1-1.02.22 2.24 2.24 0 0 1-1.85-.89c-.23-.3-.42-.67-.55-1.13a6 6 0 0 1-.2-1.63 6 6 0 0 1 .2-1.63c.13-.46.32-.84.55-1.14a2.23 2.23 0 0 1 1.85-.9 2.38 2.38 0 0 1 1.85.9c.23.3.41.68.55 1.14a6 6 0 0 1 .2 1.63Zm-.92 0c0-.55-.05-1-.14-1.38a2.7 2.7 0 0 0-.37-.9 1.36 1.36 0 0 0-1.17-.63 1.36 1.36 0 0 0-1.17.64c-.16.22-.28.52-.37.9-.1.36-.14.82-.14 1.37 0 .55.05 1 .14 1.38.09.37.21.66.37.89.15.23.33.39.53.49a1.46 1.46 0 0 0 1.27 0c.2-.1.38-.26.54-.49.15-.23.28-.53.37-.9.09-.37.14-.82.14-1.37ZM5.27 131.7v-.68H3.86v-6.5h-.73L1 126.37l.28.39a.27.27 0 0 0 .18.1h.11a.3.3 0 0 0 .14-.06l1.27-1.1-.02.44v4.89H1.43v.68h3.84ZM6 169.58a6 6 0 0 0 .2-1.63 6 6 0 0 0-.2-1.63 3.36 3.36 0 0 0-.55-1.14 2.2 2.2 0 0 0-.83-.68 2.4 2.4 0 0 0-1.02-.22 2.23 2.23 0 0 0-1.85.9c-.23.3-.42.68-.55 1.14a6 6 0 0 0-.2 1.63 6 6 0 0 0 .2 1.63c.13.46.32.83.55 1.13a2.24 2.24 0 0 0 1.85.9 2.38 2.38 0 0 0 1.85-.89c.23-.3.41-.68.54-1.14Zm-.87-3c.1.36.15.82.15 1.37 0 .55-.05 1-.15 1.38a2.7 2.7 0 0 1-.37.89 1.4 1.4 0 0 1-.53.49 1.46 1.46 0 0 1-1.27 0 1.4 1.4 0 0 1-.54-.49 2.84 2.84 0 0 1-.36-.9 5.93 5.93 0 0 1-.14-1.37c0-.55.05-1 .14-1.38.09-.37.21-.67.36-.9a1.36 1.36 0 0 1 1.18-.63 1.36 1.36 0 0 1 1.17.64c.15.22.27.52.36.9Z" clip-rule="evenodd"/></g><defs><clipPath id="a"><path fill="#fff" d="M0 0h320v200H0z"/></clipPath><clipPath id="b"><path fill="#fff" d="M0 0h322v1H0z" transform="translate(33 175)"/></clipPath><clipPath id="c"><path fill="#fff" d="M0 0h322v1H0z" transform="rotate(-90 104.5 71.5)"/></clipPath><clipPath id="d"><path fill="#fff" d="M0 0h322v1H0z" transform="translate(33 127)"/></clipPath><clipPath id="e"><path fill="#fff" d="M0 0h322v1H0z" transform="translate(33 88)"/></clipPath><clipPath id="f"><path fill="#fff" d="M0 0h322v1H0z" transform="translate(33 48)"/></clipPath><clipPath id="g"><path fill="#fff" d="M0 0h322v1H0z" transform="translate(33 7)"/></clipPath><linearGradient id="h" x1="298" x2="298" y1="33" y2="49" gradientUnits="userSpaceOnUse"><stop stop-color="#2F3C45" stop-opacity=".5"/><stop offset="1" stop-color="#2F3C45"/></linearGradient></defs></svg>