<svg width="320" height="200" viewBox="0 0 320 200" fill="none" xmlns="http://www.w3.org/2000/svg">
<g clip-path="url(#clip0_2220_3605)">
<mask id="mask0_2220_3605" style="mask-type:luminance" maskUnits="userSpaceOnUse" x="0" y="0" width="320" height="200">
<path d="M0 0H320V200H0V0Z" fill="white"/>
</mask>
<g mask="url(#mask0_2220_3605)">
<path fill-rule="evenodd" clip-rule="evenodd" d="M65.3599 194.24C65.3302 194.21 65.2943 194.186 65.2546 194.17C65.215 194.155 65.1724 194.148 65.1299 194.15H62.7299C62.6099 194.15 62.4799 194.17 62.3299 194.19C62.1949 194.212 62.0613 194.242 61.9299 194.28L63.8299 192.34L64.3899 191.75C64.5699 191.55 64.7299 191.35 64.8599 191.15C64.9999 190.94 65.1099 190.72 65.1899 190.49C65.3649 189.975 65.3471 189.413 65.1399 188.91C65.0377 188.67 64.8841 188.455 64.6899 188.28C64.4899 188.11 64.2699 187.98 63.9999 187.89C63.7257 187.8 63.4385 187.756 63.1499 187.76C62.8499 187.76 62.5599 187.8 62.2999 187.89C61.7793 188.064 61.3437 188.429 61.0799 188.91C60.9394 189.182 60.848 189.476 60.8099 189.78L61.2799 189.85C61.3999 189.87 61.4999 189.86 61.5599 189.82C61.6299 189.79 61.6899 189.71 61.7299 189.59C61.791 189.288 61.9533 189.017 62.1899 188.82C62.4536 188.626 62.7724 188.521 63.0999 188.52C63.2899 188.52 63.4599 188.55 63.6099 188.6C63.7629 188.648 63.9033 188.729 64.021 188.838C64.1386 188.947 64.2305 189.081 64.2899 189.23C64.3599 189.38 64.3899 189.57 64.3899 189.78C64.3899 189.98 64.3599 190.18 64.2999 190.37C64.2375 190.559 64.1537 190.74 64.0499 190.91C63.9399 191.1 63.8099 191.28 63.6499 191.46L63.1299 192.01L60.8299 194.31C60.7293 194.411 60.672 194.547 60.6699 194.69V195H65.4499V194.46C65.4507 194.419 65.4431 194.379 65.4276 194.341C65.4122 194.303 65.3891 194.269 65.3599 194.24ZM71.2899 193.05C71.4299 192.59 71.4999 192.05 71.4999 191.42C71.5083 190.87 71.441 190.322 71.2999 189.79C71.1874 189.378 70.9974 188.991 70.7399 188.65C70.5236 188.358 70.2385 188.125 69.9099 187.97C69.5902 187.823 69.2419 187.748 68.8899 187.75C68.5336 187.742 68.1806 187.82 67.8605 187.976C67.5403 188.133 67.2624 188.364 67.0499 188.65C66.8199 188.95 66.6299 189.33 66.4999 189.79C66.3589 190.322 66.2916 190.87 66.2999 191.42C66.2916 191.97 66.3589 192.518 66.4999 193.05C66.6299 193.51 66.8199 193.88 67.0499 194.18C67.263 194.466 67.541 194.696 67.861 194.853C68.181 195.009 68.5338 195.087 68.8899 195.08C69.2455 195.081 69.5968 195.002 69.9173 194.848C70.2377 194.694 70.519 194.469 70.7399 194.19C70.9799 193.89 71.1599 193.51 71.2899 193.05ZM70.4299 190.05C70.5299 190.41 70.5699 190.87 70.5699 191.42C70.5699 191.97 70.5299 192.42 70.4299 192.8C70.361 193.117 70.2356 193.418 70.0599 193.69C69.9291 193.897 69.7464 194.066 69.5299 194.18C69.3319 194.276 69.1148 194.325 68.8949 194.325C68.675 194.325 68.4579 194.276 68.2599 194.18C68.0398 194.067 67.8535 193.898 67.7199 193.69C67.5457 193.414 67.4206 193.109 67.3499 192.79C67.2536 192.34 67.2099 191.88 67.2199 191.42C67.2199 190.87 67.2599 190.42 67.3499 190.04C67.4499 189.67 67.5699 189.37 67.7199 189.14C67.8448 188.944 68.0179 188.783 68.2227 188.672C68.4276 188.562 68.6573 188.506 68.8899 188.51C69.1235 188.507 69.3538 188.565 69.5588 188.677C69.7637 188.789 69.9363 188.952 70.0599 189.15C70.2199 189.37 70.3399 189.67 70.4299 190.05ZM117.12 188.91C116.99 189.16 116.9 189.45 116.85 189.78L117.31 189.85C117.44 189.87 117.53 189.86 117.59 189.82C117.66 189.79 117.72 189.71 117.76 189.59C117.822 189.289 117.984 189.017 118.22 188.82C118.34 188.72 118.48 188.65 118.63 188.6C118.955 188.493 119.305 188.493 119.63 188.6C119.781 188.641 119.92 188.716 120.036 188.82C120.153 188.925 120.243 189.055 120.3 189.2C120.38 189.35 120.4 189.53 120.4 189.74C120.4 189.93 120.38 190.1 120.31 190.25C120.248 190.408 120.144 190.546 120.01 190.65C119.89 190.75 119.71 190.85 119.49 190.9C119.29 190.97 119.02 191 118.71 191V191.65C119.09 191.65 119.39 191.68 119.63 191.75C119.87 191.82 120.06 191.91 120.19 192.03C120.33 192.14 120.42 192.28 120.47 192.44C120.52 192.6 120.55 192.78 120.55 192.97C120.55 193.13 120.52 193.28 120.45 193.44C120.383 193.611 120.282 193.767 120.153 193.897C120.024 194.028 119.87 194.131 119.7 194.2C119.51 194.28 119.3 194.32 119.04 194.32C118.759 194.334 118.479 194.266 118.236 194.124C117.993 193.982 117.796 193.772 117.67 193.52L117.51 193.18C117.492 193.138 117.465 193.101 117.43 193.071C117.396 193.042 117.354 193.021 117.31 193.01C117.208 192.99 117.103 193.004 117.01 193.05L116.63 193.21C116.71 193.48 116.81 193.72 116.93 193.96C117.173 194.419 117.58 194.769 118.07 194.94C118.35 195.04 118.67 195.08 119.05 195.08C119.38 195.08 119.69 195.03 119.98 194.93C120.27 194.83 120.52 194.69 120.74 194.51C120.965 194.318 121.144 194.078 121.265 193.809C121.386 193.539 121.446 193.246 121.44 192.95C121.44 192.51 121.32 192.15 121.08 191.85C120.806 191.537 120.437 191.323 120.03 191.24C120.23 191.18 120.4 191.1 120.55 191C120.853 190.819 121.08 190.535 121.19 190.2C121.25 190.02 121.28 189.82 121.28 189.59C121.28 189.31 121.23 189.06 121.12 188.84C121.02 188.61 120.88 188.41 120.69 188.25C120.51 188.09 120.29 187.97 120.03 187.88C119.478 187.696 118.882 187.696 118.33 187.88C117.809 188.049 117.375 188.415 117.12 188.9V188.91ZM127.29 193.05C127.43 192.59 127.5 192.05 127.5 191.42C127.508 190.87 127.441 190.322 127.3 189.79C127.19 189.379 127.003 188.992 126.75 188.65C126.534 188.358 126.248 188.125 125.92 187.97C125.597 187.821 125.245 187.746 124.89 187.75C124.533 187.741 124.18 187.819 123.86 187.975C123.54 188.132 123.262 188.363 123.05 188.65C122.82 188.95 122.63 189.33 122.5 189.79C122.359 190.322 122.292 190.87 122.3 191.42C122.292 191.97 122.359 192.518 122.5 193.05C122.63 193.51 122.82 193.88 123.05 194.18C123.262 194.466 123.54 194.697 123.86 194.854C124.181 195.01 124.534 195.088 124.89 195.08C125.26 195.08 125.59 195 125.92 194.85C126.23 194.71 126.52 194.49 126.75 194.19C126.98 193.89 127.16 193.51 127.3 193.05H127.29ZM126.43 190.05C126.53 190.41 126.57 190.87 126.57 191.42C126.57 191.97 126.53 192.42 126.44 192.8C126.368 193.117 126.239 193.419 126.06 193.69C125.929 193.897 125.746 194.066 125.53 194.18C125.332 194.276 125.115 194.325 124.895 194.325C124.675 194.325 124.458 194.276 124.26 194.18C124.06 194.08 123.88 193.92 123.72 193.69C123.549 193.413 123.427 193.109 123.36 192.79C123.26 192.34 123.213 191.881 123.22 191.42C123.22 190.87 123.27 190.42 123.36 190.04C123.45 189.67 123.57 189.37 123.72 189.14C123.844 188.943 124.017 188.782 124.222 188.671C124.427 188.561 124.657 188.505 124.89 188.51C125.123 188.508 125.353 188.566 125.558 188.678C125.763 188.79 125.936 188.953 126.06 189.15C126.22 189.37 126.34 189.67 126.44 190.05H126.43ZM183.3 193.05C183.441 192.518 183.508 191.97 183.5 191.42C183.508 190.87 183.441 190.322 183.3 189.79C183.187 189.378 182.997 188.991 182.74 188.65C182.524 188.358 182.238 188.125 181.91 187.97C181.593 187.824 181.249 187.749 180.9 187.75C180.543 187.741 180.19 187.819 179.87 187.975C179.55 188.132 179.272 188.363 179.06 188.65C178.82 188.95 178.63 189.33 178.5 189.79C178.359 190.322 178.292 190.87 178.3 191.42C178.292 191.97 178.359 192.518 178.5 193.05C178.63 193.51 178.82 193.88 179.05 194.18C179.262 194.466 179.54 194.697 179.86 194.854C180.181 195.01 180.534 195.088 180.89 195.08C181.26 195.08 181.59 195 181.92 194.85C182.24 194.71 182.52 194.49 182.75 194.19C182.98 193.89 183.16 193.51 183.29 193.05H183.3ZM182.43 190.05C182.53 190.41 182.57 190.87 182.57 191.42C182.57 191.97 182.53 192.42 182.44 192.8C182.368 193.117 182.239 193.419 182.06 193.69C181.929 193.897 181.746 194.066 181.53 194.18C181.332 194.276 181.115 194.325 180.895 194.325C180.675 194.325 180.458 194.276 180.26 194.18C180.06 194.08 179.88 193.92 179.73 193.69C179.552 193.414 179.423 193.11 179.35 192.79C179.254 192.34 179.21 191.88 179.22 191.42C179.22 190.87 179.26 190.42 179.35 190.04C179.45 189.67 179.57 189.37 179.73 189.14C179.854 188.943 180.027 188.782 180.232 188.671C180.437 188.561 180.667 188.505 180.9 188.51C181.133 188.508 181.363 188.566 181.568 188.678C181.773 188.79 181.946 188.953 182.07 189.15C182.22 189.37 182.35 189.67 182.44 190.05H182.43ZM175.85 189.46V192.41H173.28L175.88 188.86C175.86 189.059 175.85 189.26 175.85 189.46ZM177.71 192.93V192.41H176.63V187.84H175.8L172.31 192.46L172.41 192.91C172.41 192.97 172.45 193.02 172.49 193.06C172.54 193.1 172.6 193.12 172.67 193.12H175.85V195H176.63V193.12H177.52C177.59 193.12 177.63 193.1 177.66 193.06C177.692 193.024 177.709 192.978 177.71 192.93ZM239.3 193.05C239.441 192.518 239.508 191.97 239.5 191.42C239.508 190.87 239.441 190.322 239.3 189.79C239.187 189.378 238.997 188.991 238.74 188.65C238.524 188.358 238.238 188.125 237.91 187.97C237.593 187.824 237.249 187.749 236.9 187.75C236.543 187.741 236.19 187.819 235.87 187.975C235.55 188.132 235.272 188.363 235.06 188.65C234.82 188.95 234.63 189.33 234.5 189.79C234.359 190.322 234.292 190.87 234.3 191.42C234.292 191.97 234.359 192.518 234.5 193.05C234.63 193.51 234.82 193.88 235.05 194.18C235.262 194.466 235.54 194.697 235.86 194.854C236.181 195.01 236.534 195.088 236.89 195.08C237.26 195.08 237.59 195 237.92 194.85C238.24 194.71 238.52 194.49 238.75 194.19C238.98 193.89 239.16 193.51 239.29 193.05H239.3ZM238.43 190.05C238.53 190.41 238.57 190.87 238.57 191.42C238.57 191.97 238.53 192.42 238.44 192.8C238.368 193.117 238.239 193.419 238.06 193.69C237.929 193.897 237.746 194.066 237.53 194.18C237.332 194.276 237.115 194.325 236.895 194.325C236.675 194.325 236.458 194.276 236.26 194.18C236.06 194.08 235.88 193.92 235.73 193.69C235.552 193.414 235.423 193.11 235.35 192.79C235.254 192.34 235.21 191.88 235.22 191.42C235.22 190.87 235.26 190.42 235.35 190.04C235.45 189.67 235.57 189.37 235.73 189.14C235.854 188.943 236.027 188.782 236.232 188.671C236.437 188.561 236.667 188.505 236.9 188.51C237.133 188.508 237.363 188.566 237.568 188.678C237.773 188.79 237.946 188.953 238.07 189.15C238.22 189.37 238.35 189.67 238.44 190.05H238.43ZM231.03 190.42C230.73 190.42 230.38 190.46 230.01 190.54L230.34 188.66H232.59C232.78 188.66 232.91 188.62 232.99 188.54C233.069 188.456 233.112 188.345 233.11 188.23V187.83H229.71L229.14 191.18L229.7 191.35C230.074 191.226 230.466 191.162 230.86 191.16C231.12 191.16 231.36 191.19 231.55 191.26C231.75 191.34 231.91 191.43 232.04 191.56C232.17 191.69 232.27 191.84 232.34 192.02C232.48 192.443 232.473 192.901 232.32 193.32C232.251 193.518 232.14 193.699 231.995 193.851C231.85 194.003 231.675 194.122 231.48 194.2C231.28 194.28 231.05 194.32 230.8 194.32C230.45 194.326 230.106 194.239 229.8 194.07C229.698 194.016 229.598 193.959 229.5 193.9C229.434 193.848 229.354 193.817 229.27 193.81C229.222 193.811 229.176 193.824 229.134 193.846C229.093 193.869 229.057 193.901 229.03 193.94L228.76 194.32C229.005 194.547 229.29 194.727 229.6 194.85C230.292 195.135 231.064 195.156 231.77 194.91C232.073 194.797 232.35 194.624 232.584 194.4C232.818 194.177 233.003 193.908 233.13 193.61C233.383 193.009 233.401 192.334 233.18 191.72C233.079 191.46 232.925 191.224 232.727 191.027C232.529 190.831 232.291 190.678 232.03 190.58C231.709 190.465 231.37 190.411 231.03 190.42ZM295.3 193.05C295.441 192.518 295.508 191.97 295.5 191.42C295.508 190.87 295.441 190.322 295.3 189.79C295.187 189.378 294.997 188.991 294.74 188.65C294.526 188.36 294.245 188.126 293.92 187.97C293.597 187.821 293.245 187.746 292.89 187.75C292.534 187.741 292.18 187.819 291.86 187.975C291.54 188.132 291.262 188.363 291.05 188.65C290.82 188.95 290.63 189.33 290.5 189.79C290.359 190.322 290.292 190.87 290.3 191.42C290.292 191.97 290.359 192.518 290.5 193.05C290.63 193.51 290.82 193.88 291.05 194.18C291.262 194.466 291.54 194.697 291.86 194.854C292.181 195.01 292.534 195.088 292.89 195.08C293.26 195.08 293.59 195 293.92 194.85C294.23 194.71 294.52 194.49 294.74 194.19C294.98 193.89 295.16 193.51 295.3 193.05ZM294.43 190.05C294.53 190.41 294.57 190.87 294.57 191.42C294.57 191.97 294.53 192.42 294.44 192.8C294.368 193.117 294.239 193.419 294.06 193.69C293.929 193.897 293.746 194.066 293.53 194.18C293.332 194.276 293.115 194.325 292.895 194.325C292.675 194.325 292.458 194.276 292.26 194.18C292.06 194.08 291.88 193.92 291.73 193.69C291.552 193.414 291.423 193.11 291.35 192.79C291.254 192.34 291.21 191.88 291.22 191.42C291.22 190.87 291.26 190.42 291.35 190.04C291.45 189.67 291.57 189.37 291.73 189.14C291.853 188.945 292.025 188.784 292.228 188.674C292.431 188.563 292.659 188.507 292.89 188.51C293.123 188.508 293.353 188.566 293.558 188.678C293.763 188.79 293.936 188.953 294.06 189.15C294.22 189.37 294.35 189.67 294.44 190.05H294.43ZM287.73 194.22C287.318 194.377 286.864 194.381 286.45 194.23C286.273 194.157 286.113 194.048 285.98 193.91C285.851 193.768 285.752 193.602 285.69 193.42C285.621 193.217 285.588 193.004 285.59 192.79C285.586 192.495 285.67 192.206 285.833 191.96C285.995 191.714 286.227 191.522 286.5 191.41C286.7 191.33 286.91 191.29 287.15 191.29C287.38 191.29 287.58 191.32 287.77 191.39C287.953 191.455 288.119 191.56 288.257 191.696C288.396 191.833 288.502 191.998 288.57 192.18C288.723 192.58 288.719 193.023 288.56 193.42C288.486 193.603 288.375 193.769 288.234 193.906C288.093 194.044 287.925 194.151 287.74 194.22H287.73ZM286.38 190.75L286.57 190.52L288.69 187.83H287.9C287.81 187.831 287.722 187.851 287.641 187.889C287.56 187.926 287.488 187.982 287.43 188.05L285.61 190.49C285.31 190.89 285.08 191.28 284.94 191.63C284.676 192.275 284.661 192.995 284.9 193.65C285.02 193.95 285.18 194.21 285.38 194.42C285.58 194.63 285.84 194.79 286.13 194.91C286.769 195.148 287.473 195.144 288.11 194.9C288.543 194.731 288.914 194.433 289.173 194.047C289.432 193.661 289.567 193.205 289.56 192.74C289.56 192.4 289.51 192.1 289.39 191.84C289.289 191.589 289.136 191.362 288.941 191.174C288.747 190.986 288.514 190.842 288.26 190.75C287.926 190.626 287.568 190.582 287.214 190.62C286.86 190.658 286.52 190.778 286.22 190.97L286.38 190.75Z" fill="#92999E"/>
<mask id="mask1_2220_3605" style="mask-type:luminance" maskUnits="userSpaceOnUse" x="33" y="175" width="322" height="1">
<path d="M33 175H355V176H33V175Z" fill="white"/>
</mask>
<g mask="url(#mask1_2220_3605)">
<path fill-rule="evenodd" clip-rule="evenodd" d="M34 176V175H33V176H34ZM130 176V175H129V176H130ZM226 175V176H225V175H226ZM37 176V175H36V176H37ZM133 175V176H132V175H133ZM229 176V175H228V176H229ZM40 175V176H39V175H40ZM136 176V175H135V176H136ZM232 175V176H231V175H232ZM43 176V175H42V176H43ZM139 175V176H138V175H139ZM235 176V175H234V176H235ZM46 175V176H45V175H46ZM142 176V175H141V176H142ZM238 175V176H237V175H238ZM49 176V175H48V176H49ZM145 175V176H144V175H145ZM241 176V175H240V176H241ZM52 175V176H51V175H52ZM148 176V175H147V176H148ZM244 175V176H243V175H244ZM55 176V175H54V176H55ZM151 175V176H150V175H151ZM247 176V175H246V176H247ZM58 175V176H57V175H58ZM154 176V175H153V176H154ZM250 175V176H249V175H250ZM61 176V175H60V176H61ZM157 175V176H156V175H157ZM253 176V175H252V176H253ZM64 175V176H63V175H64ZM160 176V175H159V176H160ZM256 175V176H255V175H256ZM67 176V175H66V176H67ZM163 175V176H162V175H163ZM259 176V175H258V176H259ZM70 175V176H69V175H70ZM166 176V175H165V176H166ZM262 175V176H261V175H262ZM73 176V175H72V176H73ZM169 175V176H168V175H169ZM265 176V175H264V176H265ZM76 175V176H75V175H76ZM172 176V175H171V176H172ZM268 175V176H267V175H268ZM79 176V175H78V176H79ZM175 175V176H174V175H175ZM271 176V175H270V176H271ZM82 175V176H81V175H82ZM178 176V175H177V176H178ZM274 175V176H273V175H274ZM85 176V175H84V176H85ZM181 175V176H180V175H181ZM277 176V175H276V176H277ZM88 175V176H87V175H88ZM184 176V175H183V176H184ZM280 175V176H279V175H280ZM91 176V175H90V176H91ZM187 175V176H186V175H187ZM283 176V175H282V176H283ZM322 175V176H321V175H322ZM94 176V175H93V176H94ZM190 175V176H189V175H190ZM286 176V175H285V176H286ZM325 175V176H324V175H325ZM97 176V175H96V176H97ZM193 175V176H192V175H193ZM289 176V175H288V176H289ZM328 175V176H327V175H328ZM100 176V175H99V176H100ZM196 175V176H195V175H196ZM292 176V175H291V176H292ZM331 175V176H330V175H331ZM103 176V175H102V176H103ZM199 175V176H198V175H199ZM295 176V175H294V176H295ZM334 175V176H333V175H334ZM106 176V175H105V176H106ZM202 175V176H201V175H202ZM298 176V175H297V176H298ZM337 175V176H336V175H337ZM109 176V175H108V176H109ZM205 175V176H204V175H205ZM301 176V175H300V176H301ZM340 175V176H339V175H340ZM112 176V175H111V176H112ZM208 175V176H207V175H208ZM304 176V175H303V176H304ZM343 175V176H342V175H343ZM115 176V175H114V176H115ZM211 175V176H210V175H211ZM307 176V175H306V176H307ZM346 175V176H345V175H346ZM118 176V175H117V176H118ZM214 175V176H213V175H214ZM310 176V175H309V176H310ZM349 175V176H348V175H349ZM121 176V175H120V176H121ZM217 175V176H216V175H217ZM313 176V175H312V176H313ZM352 175V176H351V175H352ZM124 176V175H123V176H124ZM220 175V176H219V175H220ZM316 176V175H315V176H316ZM355 175V176H354V175H355ZM127 176V175H126V176H127ZM223 175V176H222V175H223ZM319 176V175H318V176H319Z" fill="#92999E"/>
</g>
<mask id="mask2_2220_3605" style="mask-type:luminance" maskUnits="userSpaceOnUse" x="33" y="-146" width="1" height="322">
<path d="M33 176L33 -146H34L34 176H33Z" fill="white"/>
</mask>
<g mask="url(#mask2_2220_3605)">
<path fill-rule="evenodd" clip-rule="evenodd" d="M34 175H33V176H34V175ZM34 79H33V80H34V79ZM33 -17H34V-16H33V-17ZM34 172H33V173H34V172ZM33 76H34V77H33V76ZM34 -20H33V-19H34V-20ZM33 169H34V170H33V169ZM34 73H33V74H34V73ZM33 -23H34V-22H33V-23ZM34 166H33V167H34V166ZM33 70H34V71H33V70ZM34 -26H33V-25H34V-26ZM33 163H34V164H33V163ZM34 67H33V68H34V67ZM33 -29H34V-28H33V-29ZM34 160H33V161H34V160ZM33 64H34V65H33V64ZM34 -32H33V-31H34V-32ZM33 157H34V158H33V157ZM34 61H33V62H34V61ZM33 -35H34V-34H33V-35ZM34 154H33V155H34V154ZM33 58H34V59H33V58ZM34 -38H33V-37H34V-38ZM33 151H34V152H33V151ZM34 55H33V56H34V55ZM33 -41H34V-40H33V-41ZM34 148H33V149H34V148ZM33 52H34V53H33V52ZM34 -44H33V-43H34V-44ZM33 145H34V146H33V145ZM34 49H33V50H34V49ZM33 -47H34V-46H33V-47ZM34 142H33V143H34V142ZM33 46H34V47H33V46ZM34 -50H33V-49H34V-50ZM33 139H34V140H33V139ZM34 43H33V44H34V43ZM33 -53H34V-52H33V-53ZM34 136H33V137H34V136ZM33 40H34V41H33V40ZM34 -56H33V-55H34V-56ZM33 133H34V134H33V133ZM34 37H33V38H34V37ZM33 -59H34V-58H33V-59ZM34 130H33V131H34V130ZM33 34H34V35H33V34ZM34 -62H33V-61H34V-62ZM33 127H34V128H33V127ZM34 31H33V32H34V31ZM33 -65H34V-64H33V-65ZM34 124H33V125H34V124ZM33 28H34V29H33V28ZM34 -68H33V-67H34V-68ZM33 121H34V122H33V121ZM34 25H33V26H34V25ZM33 -71H34V-70H33V-71ZM34 118H33V119H34V118ZM33 22H34V23H33V22ZM34 -74H33V-73H34V-74ZM33 -113H34V-112H33V-113ZM34 115H33V116H34V115ZM33 19H34V20H33V19ZM34 -77H33V-76H34V-77ZM33 -116H34V-115H33V-116ZM34 112H33V113H34V112ZM33 16H34V17H33V16ZM34 -80H33V-79H34V-80ZM33 -119H34V-118H33V-119ZM34 109H33V110H34V109ZM33 13H34V14H33V13ZM34 -83H33V-82H34V-83ZM33 -122H34V-121H33V-122ZM34 106H33V107H34V106ZM33 10H34V11H33V10ZM34 -86H33V-85H34V-86ZM33 -125H34V-124H33V-125ZM34 103H33V104H34V103ZM33 7H34V8H33V7ZM34 -89H33V-88H34V-89ZM33 -128H34V-127H33V-128ZM34 100H33V101H34V100ZM33 4H34V5H33V4ZM34 -92H33V-91H34V-92ZM33 -131H34V-130H33V-131ZM34 97H33V98H34V97ZM33 1H34V2H33V1ZM34 -95H33V-94H34V-95ZM33 -134H34V-133H33V-134ZM34 94H33V95H34V94ZM33 -2H34V-1H33V-2ZM34 -98H33V-97H34V-98ZM33 -137H34V-136H33V-137ZM34 91H33V92H34V91ZM33 -5H34V-4H33V-5ZM34 -101H33V-100H34V-101ZM33 -140H34V-139H33V-140ZM34 88H33V89H34V88ZM33 -8H34V-7H33V-8ZM34 -104H33V-103H34V-104ZM33 -143H34V-142H33V-143ZM34 85H33V86H34V85ZM33 -11H34V-10H33V-11ZM34 -107H33V-106H34V-107ZM33 -146H34V-145H33V-146ZM34 82H33V83H34V82ZM33 -14H34V-13H33V-14ZM34 -110H33V-109H34V-110Z" fill="#92999E"/>
</g>
<mask id="mask3_2220_3605" style="mask-type:luminance" maskUnits="userSpaceOnUse" x="33" y="127" width="322" height="1">
<path d="M33 127H355V128H33V127Z" fill="white"/>
</mask>
<g mask="url(#mask3_2220_3605)">
<path fill-rule="evenodd" clip-rule="evenodd" d="M34 128V127H33V128H34ZM130 128V127H129V128H130ZM226 127V128H225V127H226ZM37 128V127H36V128H37ZM133 127V128H132V127H133ZM229 128V127H228V128H229ZM40 127V128H39V127H40ZM136 128V127H135V128H136ZM232 127V128H231V127H232ZM43 128V127H42V128H43ZM139 127V128H138V127H139ZM235 128V127H234V128H235ZM46 127V128H45V127H46ZM142 128V127H141V128H142ZM238 127V128H237V127H238ZM49 128V127H48V128H49ZM145 127V128H144V127H145ZM241 128V127H240V128H241ZM52 127V128H51V127H52ZM148 128V127H147V128H148ZM244 127V128H243V127H244ZM55 128V127H54V128H55ZM151 127V128H150V127H151ZM247 128V127H246V128H247ZM58 127V128H57V127H58ZM154 128V127H153V128H154ZM250 127V128H249V127H250ZM61 128V127H60V128H61ZM157 127V128H156V127H157ZM253 128V127H252V128H253ZM64 127V128H63V127H64ZM160 128V127H159V128H160ZM256 127V128H255V127H256ZM67 128V127H66V128H67ZM163 127V128H162V127H163ZM259 128V127H258V128H259ZM70 127V128H69V127H70ZM166 128V127H165V128H166ZM262 127V128H261V127H262ZM73 128V127H72V128H73ZM169 127V128H168V127H169ZM265 128V127H264V128H265ZM76 127V128H75V127H76ZM172 128V127H171V128H172ZM268 127V128H267V127H268ZM79 128V127H78V128H79ZM175 127V128H174V127H175ZM271 128V127H270V128H271ZM82 127V128H81V127H82ZM178 128V127H177V128H178ZM274 127V128H273V127H274ZM85 128V127H84V128H85ZM181 127V128H180V127H181ZM277 128V127H276V128H277ZM88 127V128H87V127H88ZM184 128V127H183V128H184ZM280 127V128H279V127H280ZM91 128V127H90V128H91ZM187 127V128H186V127H187ZM283 128V127H282V128H283ZM322 127V128H321V127H322ZM94 128V127H93V128H94ZM190 127V128H189V127H190ZM286 128V127H285V128H286ZM325 127V128H324V127H325ZM97 128V127H96V128H97ZM193 127V128H192V127H193ZM289 128V127H288V128H289ZM328 127V128H327V127H328ZM100 128V127H99V128H100ZM196 127V128H195V127H196ZM292 128V127H291V128H292ZM331 127V128H330V127H331ZM103 128V127H102V128H103ZM199 127V128H198V127H199ZM295 128V127H294V128H295ZM334 127V128H333V127H334ZM106 128V127H105V128H106ZM202 127V128H201V127H202ZM298 128V127H297V128H298ZM337 127V128H336V127H337ZM109 128V127H108V128H109ZM205 127V128H204V127H205ZM301 128V127H300V128H301ZM340 127V128H339V127H340ZM112 128V127H111V128H112ZM208 127V128H207V127H208ZM304 128V127H303V128H304ZM343 127V128H342V127H343ZM115 128V127H114V128H115ZM211 127V128H210V127H211ZM307 128V127H306V128H307ZM346 127V128H345V127H346ZM118 128V127H117V128H118ZM214 127V128H213V127H214ZM310 128V127H309V128H310ZM349 127V128H348V127H349ZM121 128V127H120V128H121ZM217 127V128H216V127H217ZM313 128V127H312V128H313ZM352 127V128H351V127H352ZM124 128V127H123V128H124ZM220 127V128H219V127H220ZM316 128V127H315V128H316ZM355 127V128H354V127H355ZM127 128V127H126V128H127ZM223 127V128H222V127H223ZM319 128V127H318V128H319Z" fill="#A6ADB0" fill-opacity="0.4"/>
</g>
<mask id="mask4_2220_3605" style="mask-type:luminance" maskUnits="userSpaceOnUse" x="33" y="88" width="322" height="1">
<path d="M33 88H355V89H33V88Z" fill="white"/>
</mask>
<g mask="url(#mask4_2220_3605)">
<path fill-rule="evenodd" clip-rule="evenodd" d="M34 89V88H33V89H34ZM130 89V88H129V89H130ZM226 88V89H225V88H226ZM37 89V88H36V89H37ZM133 88V89H132V88H133ZM229 89V88H228V89H229ZM40 88V89H39V88H40ZM136 89V88H135V89H136ZM232 88V89H231V88H232ZM43 89V88H42V89H43ZM139 88V89H138V88H139ZM235 89V88H234V89H235ZM46 88V89H45V88H46ZM142 89V88H141V89H142ZM238 88V89H237V88H238ZM49 89V88H48V89H49ZM145 88V89H144V88H145ZM241 89V88H240V89H241ZM52 88V89H51V88H52ZM148 89V88H147V89H148ZM244 88V89H243V88H244ZM55 89V88H54V89H55ZM151 88V89H150V88H151ZM247 89V88H246V89H247ZM58 88V89H57V88H58ZM154 89V88H153V89H154ZM250 88V89H249V88H250ZM61 89V88H60V89H61ZM157 88V89H156V88H157ZM253 89V88H252V89H253ZM64 88V89H63V88H64ZM160 89V88H159V89H160ZM256 88V89H255V88H256ZM67 89V88H66V89H67ZM163 88V89H162V88H163ZM259 89V88H258V89H259ZM70 88V89H69V88H70ZM166 89V88H165V89H166ZM262 88V89H261V88H262ZM73 89V88H72V89H73ZM169 88V89H168V88H169ZM265 89V88H264V89H265ZM76 88V89H75V88H76ZM172 89V88H171V89H172ZM268 88V89H267V88H268ZM79 89V88H78V89H79ZM175 88V89H174V88H175ZM271 89V88H270V89H271ZM82 88V89H81V88H82ZM178 89V88H177V89H178ZM274 88V89H273V88H274ZM85 89V88H84V89H85ZM181 88V89H180V88H181ZM277 89V88H276V89H277ZM88 88V89H87V88H88ZM184 89V88H183V89H184ZM280 88V89H279V88H280ZM91 89V88H90V89H91ZM187 88V89H186V88H187ZM283 89V88H282V89H283ZM322 88V89H321V88H322ZM94 89V88H93V89H94ZM190 88V89H189V88H190ZM286 89V88H285V89H286ZM325 88V89H324V88H325ZM97 89V88H96V89H97ZM193 88V89H192V88H193ZM289 89V88H288V89H289ZM328 88V89H327V88H328ZM100 89V88H99V89H100ZM196 88V89H195V88H196ZM292 89V88H291V89H292ZM331 88V89H330V88H331ZM103 89V88H102V89H103ZM199 88V89H198V88H199ZM295 89V88H294V89H295ZM334 88V89H333V88H334ZM106 89V88H105V89H106ZM202 88V89H201V88H202ZM298 89V88H297V89H298ZM337 88V89H336V88H337ZM109 89V88H108V89H109ZM205 88V89H204V88H205ZM301 89V88H300V89H301ZM340 88V89H339V88H340ZM112 89V88H111V89H112ZM208 88V89H207V88H208ZM304 89V88H303V89H304ZM343 88V89H342V88H343ZM115 89V88H114V89H115ZM211 88V89H210V88H211ZM307 89V88H306V89H307ZM346 88V89H345V88H346ZM118 89V88H117V89H118ZM214 88V89H213V88H214ZM310 89V88H309V89H310ZM349 88V89H348V88H349ZM121 89V88H120V89H121ZM217 88V89H216V88H217ZM313 89V88H312V89H313ZM352 88V89H351V88H352ZM124 89V88H123V89H124ZM220 88V89H219V88H220ZM316 89V88H315V89H316ZM355 88V89H354V88H355ZM127 89V88H126V89H127ZM223 88V89H222V88H223ZM319 89V88H318V89H319Z" fill="#A6ADB0" fill-opacity="0.4"/>
</g>
<mask id="mask5_2220_3605" style="mask-type:luminance" maskUnits="userSpaceOnUse" x="33" y="48" width="322" height="1">
<path d="M33 48H355V49H33V48Z" fill="white"/>
</mask>
<g mask="url(#mask5_2220_3605)">
<path fill-rule="evenodd" clip-rule="evenodd" d="M34 49V48H33V49H34ZM130 49V48H129V49H130ZM226 48V49H225V48H226ZM37 49V48H36V49H37ZM133 48V49H132V48H133ZM229 49V48H228V49H229ZM40 48V49H39V48H40ZM136 49V48H135V49H136ZM232 48V49H231V48H232ZM43 49V48H42V49H43ZM139 48V49H138V48H139ZM235 49V48H234V49H235ZM46 48V49H45V48H46ZM142 49V48H141V49H142ZM238 48V49H237V48H238ZM49 49V48H48V49H49ZM145 48V49H144V48H145ZM241 49V48H240V49H241ZM52 48V49H51V48H52ZM148 49V48H147V49H148ZM244 48V49H243V48H244ZM55 49V48H54V49H55ZM151 48V49H150V48H151ZM247 49V48H246V49H247ZM58 48V49H57V48H58ZM154 49V48H153V49H154ZM250 48V49H249V48H250ZM61 49V48H60V49H61ZM157 48V49H156V48H157ZM253 49V48H252V49H253ZM64 48V49H63V48H64ZM160 49V48H159V49H160ZM256 48V49H255V48H256ZM67 49V48H66V49H67ZM163 48V49H162V48H163ZM259 49V48H258V49H259ZM70 48V49H69V48H70ZM166 49V48H165V49H166ZM262 48V49H261V48H262ZM73 49V48H72V49H73ZM169 48V49H168V48H169ZM265 49V48H264V49H265ZM76 48V49H75V48H76ZM172 49V48H171V49H172ZM268 48V49H267V48H268ZM79 49V48H78V49H79ZM175 48V49H174V48H175ZM271 49V48H270V49H271ZM82 48V49H81V48H82ZM178 49V48H177V49H178ZM274 48V49H273V48H274ZM85 49V48H84V49H85ZM181 48V49H180V48H181ZM277 49V48H276V49H277ZM88 48V49H87V48H88ZM184 49V48H183V49H184ZM280 48V49H279V48H280ZM91 49V48H90V49H91ZM187 48V49H186V48H187ZM283 49V48H282V49H283ZM322 48V49H321V48H322ZM94 49V48H93V49H94ZM190 48V49H189V48H190ZM286 49V48H285V49H286ZM325 48V49H324V48H325ZM97 49V48H96V49H97ZM193 48V49H192V48H193ZM289 49V48H288V49H289ZM328 48V49H327V48H328ZM100 49V48H99V49H100ZM196 48V49H195V48H196ZM292 49V48H291V49H292ZM331 48V49H330V48H331ZM103 49V48H102V49H103ZM199 48V49H198V48H199ZM295 49V48H294V49H295ZM334 48V49H333V48H334ZM106 49V48H105V49H106ZM202 48V49H201V48H202ZM298 49V48H297V49H298ZM337 48V49H336V48H337ZM109 49V48H108V49H109ZM205 48V49H204V48H205ZM301 49V48H300V49H301ZM340 48V49H339V48H340ZM112 49V48H111V49H112ZM208 48V49H207V48H208ZM304 49V48H303V49H304ZM343 48V49H342V48H343ZM115 49V48H114V49H115ZM211 48V49H210V48H211ZM307 49V48H306V49H307ZM346 48V49H345V48H346ZM118 49V48H117V49H118ZM214 48V49H213V48H214ZM310 49V48H309V49H310ZM349 48V49H348V48H349ZM121 49V48H120V49H121ZM217 48V49H216V48H217ZM313 49V48H312V49H313ZM352 48V49H351V48H352ZM124 49V48H123V49H124ZM220 48V49H219V48H220ZM316 49V48H315V49H316ZM355 48V49H354V48H355ZM127 49V48H126V49H127ZM223 48V49H222V48H223ZM319 49V48H318V49H319Z" fill="#A6ADB0" fill-opacity="0.4"/>
</g>
<mask id="mask6_2220_3605" style="mask-type:luminance" maskUnits="userSpaceOnUse" x="33" y="7" width="322" height="1">
<path d="M33 7H355V8H33V7Z" fill="white"/>
</mask>
<g mask="url(#mask6_2220_3605)">
<path fill-rule="evenodd" clip-rule="evenodd" d="M34 8V7H33V8H34ZM130 8V7H129V8H130ZM226 7V8H225V7H226ZM37 8V7H36V8H37ZM133 7V8H132V7H133ZM229 8V7H228V8H229ZM40 7V8H39V7H40ZM136 8V7H135V8H136ZM232 7V8H231V7H232ZM43 8V7H42V8H43ZM139 7V8H138V7H139ZM235 8V7H234V8H235ZM46 7V8H45V7H46ZM142 8V7H141V8H142ZM238 7V8H237V7H238ZM49 8V7H48V8H49ZM145 7V8H144V7H145ZM241 8V7H240V8H241ZM52 7V8H51V7H52ZM148 8V7H147V8H148ZM244 7V8H243V7H244ZM55 8V7H54V8H55ZM151 7V8H150V7H151ZM247 8V7H246V8H247ZM58 7V8H57V7H58ZM154 8V7H153V8H154ZM250 7V8H249V7H250ZM61 8V7H60V8H61ZM157 7V8H156V7H157ZM253 8V7H252V8H253ZM64 7V8H63V7H64ZM160 8V7H159V8H160ZM256 7V8H255V7H256ZM67 8V7H66V8H67ZM163 7V8H162V7H163ZM259 8V7H258V8H259ZM70 7V8H69V7H70ZM166 8V7H165V8H166ZM262 7V8H261V7H262ZM73 8V7H72V8H73ZM169 7V8H168V7H169ZM265 8V7H264V8H265ZM76 7V8H75V7H76ZM172 8V7H171V8H172ZM268 7V8H267V7H268ZM79 8V7H78V8H79ZM175 7V8H174V7H175ZM271 8V7H270V8H271ZM82 7V8H81V7H82ZM178 8V7H177V8H178ZM274 7V8H273V7H274ZM85 8V7H84V8H85ZM181 7V8H180V7H181ZM277 8V7H276V8H277ZM88 7V8H87V7H88ZM184 8V7H183V8H184ZM280 7V8H279V7H280ZM91 8V7H90V8H91ZM187 7V8H186V7H187ZM283 8V7H282V8H283ZM322 7V8H321V7H322ZM94 8V7H93V8H94ZM190 7V8H189V7H190ZM286 8V7H285V8H286ZM325 7V8H324V7H325ZM97 8V7H96V8H97ZM193 7V8H192V7H193ZM289 8V7H288V8H289ZM328 7V8H327V7H328ZM100 8V7H99V8H100ZM196 7V8H195V7H196ZM292 8V7H291V8H292ZM331 7V8H330V7H331ZM103 8V7H102V8H103ZM199 7V8H198V7H199ZM295 8V7H294V8H295ZM334 7V8H333V7H334ZM106 8V7H105V8H106ZM202 7V8H201V7H202ZM298 8V7H297V8H298ZM337 7V8H336V7H337ZM109 8V7H108V8H109ZM205 7V8H204V7H205ZM301 8V7H300V8H301ZM340 7V8H339V7H340ZM112 8V7H111V8H112ZM208 7V8H207V7H208ZM304 8V7H303V8H304ZM343 7V8H342V7H343ZM115 8V7H114V8H115ZM211 7V8H210V7H211ZM307 8V7H306V8H307ZM346 7V8H345V7H346ZM118 8V7H117V8H118ZM214 7V8H213V7H214ZM310 8V7H309V8H310ZM349 7V8H348V7H349ZM121 8V7H120V8H121ZM217 7V8H216V7H217ZM313 8V7H312V8H313ZM352 7V8H351V7H352ZM124 8V7H123V8H124ZM220 7V8H219V7H220ZM316 8V7H315V8H316ZM355 7V8H354V7H355ZM127 8V7H126V8H127ZM223 7V8H222V7H223ZM319 8V7H318V8H319Z" fill="#A6ADB0" fill-opacity="0.4"/>
</g>
<path fill-rule="evenodd" clip-rule="evenodd" d="M272 32C274.122 32 276.157 31.1571 277.657 29.6569C279.157 28.1566 280 26.1217 280 24C280 21.8783 279.157 19.8434 277.657 18.3431C276.157 16.8429 274.122 16 272 16C269.878 16 267.843 16.8429 266.343 18.3431C264.843 19.8434 264 21.8783 264 24C264 26.1217 264.843 28.1566 266.343 29.6569C267.843 31.1571 269.878 32 272 32ZM306 41C306 43.1217 305.157 45.1566 303.657 46.6569C302.157 48.1571 300.122 49 298 49C295.878 49 293.843 48.1571 292.343 46.6569C290.843 45.1566 290 43.1217 290 41C290 38.8783 290.843 36.8434 292.343 35.3431C293.843 33.8429 295.878 33 298 33C300.122 33 302.157 33.8429 303.657 35.3431C305.157 36.8434 306 38.8783 306 41ZM288 68C290.122 68 292.157 67.1571 293.657 65.6569C295.157 64.1566 296 62.1217 296 60C296 57.8783 295.157 55.8434 293.657 54.3431C292.157 52.8429 290.122 52 288 52C285.878 52 283.843 52.8429 282.343 54.3431C280.843 55.8434 280 57.8783 280 60C280 62.1217 280.843 64.1566 282.343 65.6569C283.843 67.1571 285.878 68 288 68ZM202 79C203.857 79 205.637 78.2625 206.95 76.9497C208.263 75.637 209 73.8565 209 72C209 70.1435 208.263 68.363 206.95 67.0503C205.637 65.7375 203.857 65 202 65C200.143 65 198.363 65.7375 197.05 67.0503C195.737 68.363 195 70.1435 195 72C195 73.8565 195.737 75.637 197.05 76.9497C198.363 78.2625 200.143 79 202 79ZM170 99C171.857 99 173.637 98.2625 174.95 96.9497C176.263 95.637 177 93.8565 177 92C177 90.1435 176.263 88.363 174.95 87.0503C173.637 85.7375 171.857 85 170 85C168.143 85 166.363 85.7375 165.05 87.0503C163.737 88.363 163 90.1435 163 92C163 93.8565 163.737 95.637 165.05 96.9497C166.363 98.2625 168.143 99 170 99ZM90 112C90 113.591 89.3679 115.117 88.2426 116.243C87.1174 117.368 85.5913 118 84 118C82.4087 118 80.8826 117.368 79.7574 116.243C78.6321 115.117 78 113.591 78 112C78 110.409 78.6321 108.883 79.7574 107.757C80.8826 106.632 82.4087 106 84 106C85.5913 106 87.1174 106.632 88.2426 107.757C89.3679 108.883 90 110.409 90 112ZM66 149C67.0609 149 68.0783 148.579 68.8284 147.828C69.5786 147.078 70 146.061 70 145C70 143.939 69.5786 142.922 68.8284 142.172C68.0783 141.421 67.0609 141 66 141C64.9391 141 63.9217 141.421 63.1716 142.172C62.4214 142.922 62 143.939 62 145C62 146.061 62.4214 147.078 63.1716 147.828C63.9217 148.579 64.9391 149 66 149ZM144 161C144.796 161 145.559 160.684 146.121 160.121C146.684 159.559 147 158.796 147 158C147 157.204 146.684 156.441 146.121 155.879C145.559 155.316 144.796 155 144 155C143.204 155 142.441 155.316 141.879 155.879C141.316 156.441 141 157.204 141 158C141 158.796 141.316 159.559 141.879 160.121C142.441 160.684 143.204 161 144 161ZM118 130C119.591 130 121.117 129.368 122.243 128.243C123.368 127.117 124 125.591 124 124C124 122.409 123.368 120.883 122.243 119.757C121.117 118.632 119.591 118 118 118C116.409 118 114.883 118.632 113.757 119.757C112.632 120.883 112 122.409 112 124C112 125.591 112.632 127.117 113.757 128.243C114.883 129.368 116.409 130 118 130ZM106 135C106 136.061 105.579 137.078 104.828 137.828C104.078 138.579 103.061 139 102 139C100.939 139 99.9217 138.579 99.1716 137.828C98.4214 137.078 98 136.061 98 135C98 133.939 98.4214 132.922 99.1716 132.172C99.9217 131.421 100.939 131 102 131C103.061 131 104.078 131.421 104.828 132.172C105.579 132.922 106 133.939 106 135ZM200 104C200 104.788 199.845 105.568 199.543 106.296C199.242 107.024 198.8 107.685 198.243 108.243C197.685 108.8 197.024 109.242 196.296 109.543C195.568 109.845 194.788 110 194 110C193.212 110 192.432 109.845 191.704 109.543C190.976 109.242 190.315 108.8 189.757 108.243C189.2 107.685 188.758 107.024 188.457 106.296C188.155 105.568 188 104.788 188 104C188 102.409 188.632 100.883 189.757 99.7574C190.883 98.6321 192.409 98 194 98C195.591 98 197.117 98.6321 198.243 99.7574C199.368 100.883 200 102.409 200 104ZM243 81C243 82.8565 242.263 84.637 240.95 85.9497C239.637 87.2625 237.857 88 236 88C234.143 88 232.363 87.2625 231.05 85.9497C229.737 84.637 229 82.8565 229 81C229 79.1435 229.737 77.363 231.05 76.0503C232.363 74.7375 234.143 74 236 74C237.857 74 239.637 74.7375 240.95 76.0503C242.263 77.363 243 79.1435 243 81Z" fill="#B7BCBF" fill-opacity="0.3"/>
<path fill-rule="evenodd" clip-rule="evenodd" d="M12.1897 8.65989C12.1897 9.28989 12.1197 9.83989 11.9897 10.2899C11.8497 10.7499 11.6597 11.1299 11.4297 11.4299C11.1997 11.7299 10.9297 11.9499 10.5997 12.0999C10.28 12.2471 9.93174 12.3222 9.57972 12.3199C9.22273 12.3297 8.86857 12.2541 8.54675 12.0993C8.22494 11.9445 7.94481 11.715 7.72972 11.4299C7.4813 11.0899 7.29819 10.7067 7.18972 10.2999C7.04972 9.83989 6.98972 9.29989 6.98972 8.65989C6.98972 8.03989 7.04972 7.48989 7.18972 7.02989C7.31972 6.56989 7.49972 6.19989 7.73972 5.88989C7.95268 5.60498 8.23099 5.37542 8.5512 5.22053C8.87141 5.06565 9.22415 4.98997 9.57972 4.99989C9.93972 4.99989 10.2797 5.06989 10.5997 5.21989C10.9197 5.36989 11.1997 5.58989 11.4297 5.88989C11.6597 6.18989 11.8497 6.57989 11.9797 7.03989C12.1197 7.49989 12.1797 8.03989 12.1797 8.65989H12.1897ZM11.2597 8.65989C11.2597 8.11989 11.2097 7.65989 11.1197 7.28989C11.0521 6.96989 10.9267 6.6649 10.7497 6.38989C10.6249 6.19357 10.4517 6.03256 10.2469 5.92226C10.0421 5.81196 9.81234 5.75605 9.57972 5.75989C9.34709 5.75605 9.11738 5.81196 8.91253 5.92226C8.70769 6.03256 8.53456 6.19357 8.40972 6.38989C8.23657 6.6669 8.11148 6.97119 8.03972 7.28989C7.94972 7.65989 7.90972 8.11989 7.90972 8.65989C7.90972 9.20989 7.94972 9.66989 8.03972 10.0399C8.13972 10.4099 8.25972 10.7099 8.40972 10.9399C8.55972 11.1599 8.73972 11.3199 8.94972 11.4299C9.14774 11.5255 9.36481 11.5752 9.58472 11.5752C9.80463 11.5752 10.0217 11.5255 10.2197 11.4299C10.4197 11.3299 10.5997 11.1599 10.7497 10.9299C10.9097 10.7099 11.0297 10.4099 11.1197 10.0399C11.2197 9.66989 11.2597 9.20989 11.2597 8.65989ZM17.9897 8.65989C17.9897 9.28989 17.9197 9.83989 17.7897 10.2899C17.6497 10.7499 17.4697 11.1299 17.2297 11.4299C16.9997 11.7299 16.7297 11.9499 16.3997 12.0999C16.08 12.2471 15.7317 12.3222 15.3797 12.3199C15.0227 12.3297 14.6686 12.2541 14.3468 12.0993C14.0249 11.9445 13.7448 11.715 13.5297 11.4299C13.2813 11.0899 13.0982 10.7067 12.9897 10.2999C12.8497 9.83989 12.7897 9.29989 12.7897 8.65989C12.7897 8.03989 12.8497 7.48989 12.9897 7.02989C13.1197 6.56989 13.2997 6.19989 13.5397 5.88989C13.7527 5.60498 14.031 5.37542 14.3512 5.22053C14.6714 5.06565 15.0242 4.98997 15.3797 4.99989C15.7397 4.99989 16.0797 5.06989 16.3997 5.21989C16.7197 5.36989 16.9997 5.58989 17.2297 5.88989C17.4597 6.18989 17.6497 6.57989 17.7797 7.03989C17.9197 7.49989 17.9797 8.03989 17.9797 8.65989H17.9897ZM17.0597 8.65989C17.0597 8.11989 17.0197 7.65989 16.9197 7.28989C16.8521 6.96989 16.7267 6.6649 16.5497 6.38989C16.4249 6.19357 16.2517 6.03256 16.0469 5.92226C15.8421 5.81196 15.6123 5.75605 15.3797 5.75989C15.1471 5.75605 14.9174 5.81196 14.7125 5.92226C14.5077 6.03256 14.3346 6.19357 14.2097 6.38989C14.0366 6.6669 13.9115 6.97119 13.8397 7.28989C13.7497 7.65989 13.7097 8.11989 13.7097 8.65989C13.7097 9.20989 13.7497 9.66989 13.8397 10.0399C13.9397 10.4099 14.0597 10.7099 14.2097 10.9399C14.3597 11.1599 14.5397 11.3199 14.7497 11.4299C14.9477 11.5255 15.1648 11.5752 15.3847 11.5752C15.6046 11.5752 15.8217 11.5255 16.0197 11.4299C16.2197 11.3299 16.3997 11.1599 16.5497 10.9299C16.7097 10.7099 16.8297 10.4099 16.9197 10.0399C17.0197 9.66989 17.0597 9.20989 17.0597 8.65989ZM4.53972 6.69989V9.65989H1.95972L4.57972 6.10989C4.55502 6.30897 4.54166 6.50929 4.53972 6.70989V6.69989ZM6.39972 10.1699V9.65989H5.31972V5.07989H4.48972L0.999716 9.70989L1.08972 10.1599C1.09972 10.2199 1.12972 10.2599 1.17972 10.2999C1.22972 10.3399 1.27972 10.3599 1.35972 10.3599H4.52972V12.2399H5.31972V10.3599H6.19972C6.26972 10.3599 6.31972 10.3399 6.34972 10.3099C6.38375 10.2714 6.40166 10.2212 6.39972 10.1699ZM1.48972 45.9699C1.34922 46.2417 1.25782 46.5363 1.21972 46.8399L1.68972 46.9199C1.80972 46.9399 1.89972 46.9199 1.96972 46.8899C2.04519 46.8313 2.10101 46.751 2.12972 46.6599C2.19345 46.3569 2.35939 46.0851 2.59972 45.8899C2.70972 45.7899 2.84972 45.7199 2.99972 45.6599C3.15972 45.6099 3.32972 45.5899 3.50972 45.5899C3.68972 45.5899 3.85972 45.6099 4.00972 45.6599C4.16972 45.7099 4.30972 45.7899 4.40972 45.8899C4.52972 45.9899 4.60972 46.1099 4.67972 46.2699C4.74972 46.4199 4.77972 46.5999 4.77972 46.7999C4.77972 46.9999 4.74972 47.1599 4.67972 47.3199C4.61891 47.4731 4.5189 47.6076 4.38972 47.7099C4.25972 47.8199 4.08972 47.9099 3.86972 47.9699C3.64972 48.0299 3.38972 48.0699 3.07972 48.0699V48.7199C3.45972 48.7199 3.75972 48.7499 3.99972 48.8199C4.23972 48.8799 4.42972 48.9699 4.56972 49.0899C4.69972 49.2099 4.78972 49.3399 4.83972 49.4999C4.88972 49.6599 4.91972 49.8399 4.91972 50.0299C4.91969 50.1992 4.8861 50.3667 4.82087 50.5229C4.75564 50.6791 4.66008 50.8209 4.53972 50.9399C4.41972 51.0799 4.25972 51.1799 4.06972 51.2699C3.87972 51.3399 3.66972 51.3799 3.40972 51.3799C3.13972 51.3799 2.91972 51.3399 2.73972 51.2599C2.43435 51.1216 2.18679 50.8811 2.03972 50.5799L1.87972 50.2399C1.86085 50.1997 1.83301 50.1643 1.79834 50.1366C1.76366 50.1089 1.72308 50.0895 1.67972 50.0799C1.57804 50.0598 1.47257 50.0738 1.37972 50.1199L0.999716 50.2799C1.07972 50.5399 1.18972 50.7899 1.29972 51.0199C1.54429 51.4811 1.95559 51.8316 2.44972 51.9999C2.71972 52.0999 3.04972 52.1499 3.41972 52.1499C3.74972 52.1499 4.05972 52.0999 4.34972 51.9999C4.63972 51.8999 4.88972 51.7599 5.10972 51.5799C5.33577 51.3867 5.5159 51.1455 5.63699 50.8739C5.75809 50.6023 5.81709 50.3072 5.80972 50.0099C5.80972 49.5699 5.68972 49.2099 5.45972 48.9199C5.18734 48.6035 4.81833 48.3856 4.40972 48.2999C4.58972 48.2399 4.76972 48.1599 4.91972 48.0699C5.22149 47.8879 5.44843 47.6042 5.55972 47.2699C5.69691 46.819 5.67214 46.3344 5.48972 45.8999C5.38972 45.6699 5.24972 45.4799 5.05972 45.3199C4.87972 45.1599 4.65972 45.0399 4.39972 44.9499C3.84818 44.7647 3.25125 44.7647 2.69972 44.9499C2.17774 45.1172 1.7429 45.4837 1.48972 45.9699ZM11.8697 48.4899C11.8768 49.0398 11.8095 49.5881 11.6697 50.1199C11.5541 50.5259 11.3679 50.9084 11.1197 51.2499C10.8797 51.5499 10.6097 51.7699 10.2897 51.9199C9.96996 52.0671 9.62174 52.1422 9.26972 52.1399C8.91273 52.1497 8.55857 52.0741 8.23675 51.9193C7.91494 51.7645 7.63481 51.535 7.41972 51.2499C7.16776 50.9107 6.98124 50.5275 6.86972 50.1199C6.72866 49.5883 6.66136 49.0398 6.66972 48.4899C6.66972 47.8599 6.73972 47.3099 6.86972 46.8499C6.99972 46.3999 7.18972 46.0099 7.41972 45.7199C7.63258 45.4317 7.91202 45.1994 8.23417 45.0426C8.55632 44.8859 8.91162 44.8095 9.26972 44.8199C9.62972 44.8199 9.96972 44.8899 10.2897 45.0399C10.6097 45.1899 10.8897 45.4099 11.1197 45.7199C11.3497 46.0199 11.5297 46.3999 11.6697 46.8499C11.8108 47.3815 11.8781 47.93 11.8697 48.4799V48.4899ZM10.9497 48.4899C10.9497 47.9399 10.8997 47.4799 10.8097 47.1099C10.7419 46.79 10.6165 46.485 10.4397 46.2099C10.3149 46.0136 10.1417 45.8526 9.9369 45.7423C9.73205 45.632 9.50234 45.5761 9.26972 45.5799C9.03709 45.5761 8.80738 45.632 8.60253 45.7423C8.39769 45.8526 8.22457 46.0136 8.09972 46.2099C7.93972 46.4399 7.81972 46.7399 7.72972 47.1099C7.62972 47.4799 7.58972 47.9399 7.58972 48.4899C7.58972 49.0299 7.63972 49.4899 7.72972 49.8599C7.81972 50.2299 7.93972 50.5299 8.09972 50.7599C8.24972 50.9799 8.42972 51.1499 8.62972 51.2399C8.82774 51.3355 9.04481 51.3852 9.26472 51.3852C9.48463 51.3852 9.70169 51.3355 9.89972 51.2399C10.0997 51.1399 10.2797 50.9799 10.4397 50.7599C10.5897 50.5299 10.7197 50.2299 10.8097 49.8599C10.8997 49.4899 10.9497 49.0299 10.9497 48.4799V48.4899ZM17.6697 48.4899C17.6768 49.0398 17.6095 49.5881 17.4697 50.1199C17.3541 50.5259 17.1679 50.9084 16.9197 51.2499C16.6797 51.5499 16.4097 51.7699 16.0897 51.9199C15.77 52.0671 15.4217 52.1422 15.0697 52.1399C14.7127 52.1497 14.3586 52.0741 14.0368 51.9193C13.7149 51.7645 13.4348 51.535 13.2197 51.2499C12.9715 50.9084 12.7854 50.5259 12.6697 50.1199C12.5287 49.5883 12.4614 49.0398 12.4697 48.4899C12.4697 47.8599 12.5397 47.3099 12.6697 46.8499C12.7997 46.3999 12.9897 46.0099 13.2197 45.7199C13.4326 45.4317 13.712 45.1994 14.0342 45.0426C14.3563 44.8859 14.7116 44.8095 15.0697 44.8199C15.4297 44.8199 15.7697 44.8899 16.0897 45.0399C16.4097 45.1899 16.6897 45.4099 16.9197 45.7199C17.1497 46.0199 17.3297 46.3999 17.4697 46.8499C17.6108 47.3815 17.6781 47.93 17.6697 48.4799V48.4899ZM16.7497 48.4899C16.7497 47.9399 16.6997 47.4799 16.6097 47.1099C16.5419 46.79 16.4165 46.485 16.2397 46.2099C16.1149 46.0136 15.9417 45.8526 15.7369 45.7423C15.5321 45.632 15.3023 45.5761 15.0697 45.5799C14.8371 45.5761 14.6074 45.632 14.4025 45.7423C14.1977 45.8526 14.0246 46.0136 13.8997 46.2099C13.7397 46.4399 13.6197 46.7399 13.5297 47.1099C13.4297 47.4799 13.3897 47.9399 13.3897 48.4899C13.3897 49.0299 13.4397 49.4899 13.5297 49.8599C13.6197 50.2299 13.7397 50.5299 13.8997 50.7599C14.0497 50.9799 14.2297 51.1499 14.4297 51.2399C14.6277 51.3355 14.8448 51.3852 15.0647 51.3852C15.2846 51.3852 15.5017 51.3355 15.6997 51.2399C15.8997 51.1399 16.0797 50.9799 16.2397 50.7599C16.3897 50.5299 16.5197 50.2299 16.6097 49.8599C16.6997 49.4899 16.7497 49.0299 16.7497 48.4799V48.4899ZM5.45972 91.0299C5.55972 91.0299 5.63972 91.0599 5.69972 91.1199C5.72712 91.1493 5.74832 91.184 5.76206 91.2218C5.7758 91.2596 5.78181 91.2997 5.77972 91.3399V91.8799H0.999716V91.5799C1.00441 91.4358 1.06545 91.2994 1.16972 91.1999L3.45972 88.8899L3.97972 88.3299C4.13972 88.1599 4.26972 87.9699 4.37972 87.7999C4.59125 87.4521 4.71163 87.0566 4.72972 86.6499C4.72972 86.4499 4.68972 86.2599 4.62972 86.0999C4.56923 85.951 4.47568 85.8178 4.35614 85.7104C4.2366 85.603 4.0942 85.5242 3.93972 85.4799C3.77852 85.4262 3.60963 85.3991 3.43972 85.3999C3.25972 85.3999 3.08972 85.4299 2.93972 85.4799C2.6461 85.5801 2.39558 85.7777 2.22972 86.0399C2.14972 86.1699 2.08972 86.3099 2.05972 86.4699C2.01972 86.5899 1.95972 86.6699 1.88972 86.6999C1.82972 86.7399 1.72972 86.7499 1.60972 86.7399L1.13972 86.6599C1.18972 86.3299 1.27972 86.0399 1.41972 85.7899C1.54972 85.5399 1.71972 85.3199 1.91972 85.1599C2.12972 84.9899 2.36972 84.8599 2.62972 84.7699C3.1805 84.5802 3.77893 84.5802 4.32972 84.7699C4.59972 84.8599 4.82972 84.9899 5.01972 85.1699C5.21972 85.3299 5.36972 85.5399 5.47972 85.7899C5.68618 86.2973 5.7004 86.8627 5.51972 87.3799C5.43972 87.5999 5.32972 87.8199 5.19972 88.0199C5.05972 88.2299 4.89972 88.4299 4.71972 88.6299L4.15972 89.2299L2.25972 91.1599C2.52016 91.0844 2.78878 91.0408 3.05972 91.0299H5.45972ZM11.6297 89.9299C11.7708 89.3983 11.8381 88.8498 11.8297 88.2999C11.8381 87.75 11.7708 87.2015 11.6297 86.6699C11.52 86.2586 11.3334 85.8717 11.0797 85.5299C10.8634 85.2382 10.5783 85.0046 10.2497 84.8499C9.92997 84.7026 9.58174 84.6275 9.22972 84.6299C8.87162 84.6195 8.51632 84.6959 8.19417 84.8527C7.87202 85.0094 7.59258 85.2417 7.37972 85.5299C7.14972 85.8299 6.95972 86.2099 6.82972 86.6699C6.68866 87.2015 6.62136 87.75 6.62972 88.2999C6.62136 88.8498 6.68866 89.3983 6.82972 89.9299C6.95972 90.3899 7.14972 90.7699 7.37972 91.0699C7.59481 91.355 7.87494 91.5845 8.19675 91.7393C8.51857 91.8941 8.87273 91.9697 9.22972 91.9599C9.58569 91.9634 9.93771 91.885 10.2585 91.7307C10.5793 91.5763 10.8603 91.3502 11.0797 91.0699C11.3097 90.7699 11.4897 90.3899 11.6297 89.9299ZM10.7697 86.9299C10.8597 87.2999 10.9097 87.7499 10.9097 88.2999C10.9097 88.8499 10.8597 89.2999 10.7697 89.6799C10.7008 89.9963 10.5754 90.2978 10.3997 90.5699C10.2662 90.7781 10.0798 90.9471 9.85972 91.0599C9.66169 91.1555 9.44463 91.2052 9.22472 91.2052C9.00481 91.2052 8.78774 91.1555 8.58972 91.0599C8.37326 90.9457 8.19052 90.7767 8.05972 90.5699C7.88552 90.2934 7.76035 89.9889 7.68972 89.6699C7.59 89.2202 7.54302 88.7604 7.54972 88.2999C7.54972 87.7499 7.59972 87.2999 7.68972 86.9199C7.77972 86.5499 7.89972 86.2499 8.05972 86.0199C8.18457 85.8236 8.35769 85.6626 8.56253 85.5523C8.76738 85.442 8.99709 85.3861 9.22972 85.3899C9.46234 85.3861 9.69205 85.442 9.8969 85.5523C10.1017 85.6626 10.2749 85.8236 10.3997 86.0199C10.5497 86.2499 10.6797 86.5499 10.7697 86.9199V86.9299ZM17.4297 89.9299C17.5708 89.3983 17.6381 88.8498 17.6297 88.2999C17.6381 87.75 17.5708 87.2015 17.4297 86.6699C17.3203 86.2585 17.1336 85.8716 16.8797 85.5299C16.6634 85.2382 16.3783 85.0046 16.0497 84.8499C15.73 84.7026 15.3817 84.6275 15.0297 84.6299C14.6716 84.6195 14.3163 84.6959 13.9942 84.8527C13.672 85.0094 13.3926 85.2417 13.1797 85.5299C12.9497 85.8299 12.7697 86.2099 12.6297 86.6699C12.4887 87.2015 12.4214 87.75 12.4297 88.2999C12.4214 88.8498 12.4887 89.3983 12.6297 89.9299C12.7597 90.3899 12.9497 90.7699 13.1797 91.0699C13.3948 91.355 13.6749 91.5845 13.9968 91.7393C14.3186 91.8941 14.6727 91.9697 15.0297 91.9599C15.3857 91.9634 15.7377 91.885 16.0585 91.7307C16.3793 91.5763 16.6603 91.3502 16.8797 91.0699C17.1097 90.7699 17.2897 90.3899 17.4297 89.9299ZM16.5697 86.9299C16.6597 87.2999 16.7097 87.7499 16.7097 88.2999C16.7097 88.8499 16.6597 89.2999 16.5697 89.6799C16.4697 90.0499 16.3497 90.3399 16.1997 90.5699C16.0662 90.7781 15.8798 90.9471 15.6597 91.0599C15.4617 91.1555 15.2446 91.2052 15.0247 91.2052C14.8048 91.2052 14.5877 91.1555 14.3897 91.0599C14.1733 90.9457 13.9905 90.7767 13.8597 90.5699C13.6855 90.2934 13.5604 89.9889 13.4897 89.6699C13.39 89.2202 13.343 88.7604 13.3497 88.2999C13.3497 87.7499 13.3997 87.2999 13.4897 86.9199C13.5797 86.5499 13.6997 86.2499 13.8597 86.0199C13.9846 85.8236 14.1577 85.6626 14.3625 85.5523C14.5674 85.442 14.7971 85.3861 15.0297 85.3899C15.2623 85.3861 15.4921 85.442 15.6969 85.5523C15.9017 85.6626 16.0749 85.8236 16.1997 86.0199C16.3497 86.2499 16.4797 86.5499 16.5697 86.9199V86.9299ZM11.4797 128.12C11.4881 128.67 11.4208 129.218 11.2797 129.75C11.1397 130.21 10.9597 130.59 10.7297 130.89C10.4897 131.19 10.2197 131.41 9.89972 131.55C9.57996 131.697 9.23174 131.772 8.87972 131.77C8.52441 131.778 8.17223 131.702 7.85229 131.547C7.53234 131.392 7.25382 131.164 7.03972 130.88C6.79972 130.58 6.60972 130.21 6.47972 129.75C6.33866 129.218 6.27136 128.67 6.27972 128.12C6.27136 127.57 6.33866 127.021 6.47972 126.49C6.60972 126.03 6.79972 125.65 7.02972 125.35C7.24316 125.062 7.52271 124.83 7.84473 124.674C8.16674 124.517 8.52175 124.44 8.87972 124.45C9.23576 124.452 9.58681 124.534 9.90699 124.69C10.2272 124.845 10.5083 125.071 10.7297 125.35C10.9597 125.65 11.1397 126.03 11.2797 126.49C11.4208 127.021 11.4881 127.57 11.4797 128.12ZM10.5597 128.12C10.5597 127.57 10.5097 127.12 10.4197 126.74C10.3519 126.42 10.2265 126.115 10.0497 125.84C9.92487 125.644 9.75174 125.483 9.5469 125.372C9.34205 125.262 9.11234 125.206 8.87972 125.21C8.64615 125.207 8.41581 125.265 8.21089 125.377C8.00596 125.489 7.83336 125.652 7.70972 125.85C7.54972 126.07 7.42972 126.37 7.33972 126.75C7.23972 127.11 7.19972 127.57 7.19972 128.12C7.19972 128.67 7.24972 129.12 7.33972 129.5C7.42972 129.87 7.54972 130.16 7.70972 130.39C7.85972 130.62 8.03972 130.78 8.23972 130.88C8.43774 130.976 8.65481 131.025 8.87472 131.025C9.09463 131.025 9.3117 130.976 9.50972 130.88C9.70972 130.78 9.88972 130.62 10.0497 130.39C10.1997 130.16 10.3297 129.86 10.4197 129.49C10.5097 129.12 10.5597 128.67 10.5597 128.12ZM17.2797 128.12C17.2881 128.67 17.2208 129.218 17.0797 129.75C16.9397 130.21 16.7597 130.59 16.5297 130.89C16.2897 131.19 16.0197 131.41 15.6997 131.55C15.38 131.697 15.0317 131.772 14.6797 131.77C14.3227 131.78 13.9686 131.704 13.6468 131.549C13.3249 131.394 13.0448 131.165 12.8297 130.88C12.5997 130.58 12.4097 130.21 12.2797 129.75C12.1387 129.218 12.0714 128.67 12.0797 128.12C12.0714 127.57 12.1387 127.021 12.2797 126.49C12.4097 126.03 12.5997 125.65 12.8297 125.35C13.0432 125.062 13.3227 124.83 13.6447 124.674C13.9667 124.517 14.3217 124.44 14.6797 124.45C15.0358 124.452 15.3868 124.534 15.707 124.69C16.0272 124.845 16.3083 125.071 16.5297 125.35C16.7597 125.65 16.9397 126.03 17.0797 126.49C17.2208 127.021 17.2881 127.57 17.2797 128.12ZM16.3597 128.12C16.3597 127.57 16.3097 127.12 16.2197 126.74C16.1519 126.42 16.0265 126.115 15.8497 125.84C15.7249 125.644 15.5517 125.483 15.3469 125.372C15.1421 125.262 14.9123 125.206 14.6797 125.21C14.4462 125.207 14.2158 125.265 14.0109 125.377C13.806 125.489 13.6334 125.652 13.5097 125.85C13.3497 126.07 13.2297 126.37 13.1397 126.75C13.0397 127.11 12.9997 127.57 12.9997 128.12C12.9997 128.67 13.0497 129.12 13.1397 129.5C13.2297 129.87 13.3497 130.16 13.5097 130.39C13.6597 130.62 13.8397 130.78 14.0397 130.88C14.2377 130.976 14.4548 131.025 14.6747 131.025C14.8946 131.025 15.1117 130.976 15.3097 130.88C15.5097 130.78 15.6897 130.62 15.8497 130.39C15.9997 130.16 16.1297 129.86 16.2197 129.49C16.3097 129.12 16.3597 128.67 16.3597 128.12ZM5.26972 131.7V131.02H3.85972V124.52H3.12972L0.999716 126.37L1.27972 126.76C1.32415 126.816 1.38886 126.852 1.45972 126.86H1.56972C1.62077 126.852 1.66899 126.832 1.70972 126.8L2.97972 125.7L2.95972 126.14V131.03H1.42972V131.71H5.26972V131.7ZM5.99972 169.58C6.14078 169.048 6.20807 168.5 6.19972 167.95C6.20807 167.4 6.14078 166.851 5.99972 166.32C5.89026 165.908 5.70361 165.522 5.44972 165.18C5.23341 164.888 4.94826 164.655 4.61972 164.5C4.29997 164.353 3.95174 164.278 3.59972 164.28C3.24175 164.27 2.88674 164.347 2.56473 164.504C2.24271 164.66 1.96316 164.892 1.74972 165.18C1.51972 165.48 1.32972 165.86 1.19972 166.32C1.05866 166.851 0.99136 167.4 0.999716 167.95C0.99136 168.5 1.05866 169.048 1.19972 169.58C1.32972 170.04 1.51972 170.41 1.74972 170.71C1.96374 170.997 2.2434 171.228 2.56528 171.385C2.88716 171.541 3.24188 171.619 3.59972 171.61C3.95495 171.609 4.30549 171.529 4.62561 171.375C4.94573 171.221 5.22732 170.997 5.44972 170.72C5.67972 170.42 5.85972 170.04 5.98972 169.58H5.99972ZM5.12972 166.58C5.22972 166.94 5.27972 167.4 5.27972 167.95C5.27972 168.5 5.22972 168.95 5.12972 169.33C5.06076 169.646 4.93543 169.948 4.75972 170.22C4.62892 170.427 4.44617 170.596 4.22972 170.71C4.0317 170.806 3.81463 170.855 3.59472 170.855C3.37481 170.855 3.15774 170.806 2.95972 170.71C2.73959 170.597 2.55327 170.428 2.41972 170.22C2.24903 169.943 2.12725 169.638 2.05972 169.32C1.96 168.87 1.91302 168.41 1.91972 167.95C1.91972 167.4 1.96972 166.95 2.05972 166.57C2.14972 166.2 2.26972 165.9 2.41972 165.67C2.54545 165.472 2.72016 165.31 2.92691 165.2C3.13365 165.089 3.36542 165.034 3.59972 165.04C3.83328 165.037 4.06362 165.095 4.26855 165.207C4.47347 165.319 4.64607 165.482 4.76972 165.68C4.91972 165.9 5.03972 166.2 5.12972 166.58Z" fill="#92999E"/>
</g>
</g>
<defs>
<clipPath id="clip0_2220_3605">
<rect width="320" height="200" fill="white"/>
</clipPath>
</defs>
</svg>
