<svg xmlns="http://www.w3.org/2000/svg" width="320" height="200" fill="none"><path fill="url(#a)" fill-opacity=".1" fill-rule="evenodd" d="M223.57 104.05c2.28 0 4.27-.32 6-.95a12.39 12.39 0 0 0 4.3-2.75 11.1 11.1 0 0 0 2.7-4.14c.59-1.6.89-3.34.89-5.21 0-4.44-1.24-7.8-3.7-10.08-2.46-2.28-5.86-3.42-10.2-3.42-4.32 0-7.72 1.14-10.18 3.42-2.47 2.28-3.7 5.64-3.7 10.08 0 1.87.3 3.6.9 5.2a11.4 11.4 0 0 0 2.63 4.15 13 13 0 0 0 4.37 2.75c1.71.63 3.71.95 5.99.95Zm0-61.55c-2.05 0-3.83.32-5.32.96a10.3 10.3 0 0 0-5.94 6.22 14.07 14.07 0 0 0-.67 4.36c0 1.6.19 3.17.56 4.7a11.4 11.4 0 0 0 2.02 4.04 10.1 10.1 0 0 0 3.7 2.8c1.52.7 3.4 1.06 5.65 1.06 2.24 0 4.12-.35 5.66-1.06a10.1 10.1 0 0 0 3.7-2.8c.92-1.2 1.58-2.54 1.95-4.04.41-1.53.62-3.1.62-4.7 0-1.53-.25-2.99-.73-4.37a10.3 10.3 0 0 0-2.19-3.64 10.27 10.27 0 0 0-3.7-2.57 13.36 13.36 0 0 0-5.31-.96Zm13.66 29.24c4.93 1.6 8.57 4.07 10.92 7.39 2.35 3.28 3.53 7.32 3.53 12.1 0 3.58-.69 6.83-2.07 9.74a21.07 21.07 0 0 1-5.71 7.45 26.4 26.4 0 0 1-8.9 4.76 36.7 36.7 0 0 1-11.43 1.68c-4.18 0-8-.56-11.48-1.68a26.47 26.47 0 0 1-8.85-4.76 21.66 21.66 0 0 1-5.77-7.45 22.98 22.98 0 0 1-2.01-9.75c0-4.77 1.17-8.8 3.53-12.1 2.35-3.31 5.99-5.78 10.91-7.38-3.91-1.65-6.86-3.98-8.84-7-1.94-3.03-2.91-6.67-2.91-10.92 0-3.07.61-5.92 1.84-8.57a21.06 21.06 0 0 1 5.27-6.89 23.8 23.8 0 0 1 8-4.6 30.44 30.44 0 0 1 10.3-1.67 30 30 0 0 1 10.26 1.68 23.7 23.7 0 0 1 8.06 4.59 20.4 20.4 0 0 1 5.2 6.89 19.42 19.42 0 0 1 1.91 8.57c0 4.25-.99 7.9-2.97 10.92-1.94 3.02-4.87 5.35-8.79 7Zm-49.79 31.86v10.36h-44.8V103.6h16.4V56.4c0-1.87.06-3.8.18-5.78l-11.65 9.75c-.67.52-1.35.86-2.02 1a5.12 5.12 0 0 1-3.36-.55c-.45-.3-.78-.62-1-.96l-4.37-5.99 24.7-21h11.36v70.73h14.56Zm-79.7-46.65v26.49H83.1l25.15-34.78c-.34 3.03-.5 5.8-.5 8.3Zm22.23 34.5v-8.01h-10.19V32.93h-13.1L68.32 84.17l1.46 7a3.82 3.82 0 0 0 3.8 3.02h34.16v19.77h12.04V94.19h7.4c.9 0 1.58-.26 2.07-.78a2.9 2.9 0 0 0 .72-1.96Z" clip-rule="evenodd"/><path fill="#071722" fill-opacity=".29" fill-rule="evenodd" d="M155.9 144.15c.23.3.48.52.75.65.28.13.58.19.9.19a1.8 1.8 0 0 0 1.54-.7c.35-.48.53-1.18.53-2.12 0-.86-.16-1.5-.48-1.9a1.59 1.59 0 0 0-1.34-.62c-.4 0-.76.09-1.06.28-.3.18-.58.45-.84.79v3.43Zm0-4.36c.3-.35.64-.62 1.01-.83.38-.2.81-.3 1.3-.3a2.31 2.31 0 0 1 1.97.93c.24.3.42.66.54 1.09a5.5 5.5 0 0 1-.02 3.02c-.14.46-.34.87-.61 1.2a2.77 2.77 0 0 1-2.23 1.05c-.47 0-.87-.08-1.19-.25-.31-.18-.6-.43-.83-.75l-.06.64c-.04.18-.15.27-.32.27h-.81v-10.32h1.25v4.25Zm28.6 5a.44.44 0 0 0-.32-.12h-3.36a4.8 4.8 0 0 0-1.12.17l2.65-2.7.79-.83c.25-.28.47-.56.67-.85.19-.29.34-.6.45-.91a3.16 3.16 0 0 0-.06-2.22 2.5 2.5 0 0 0-.64-.88 2.75 2.75 0 0 0-.96-.55 3.66 3.66 0 0 0-1.19-.19 3.6 3.6 0 0 0-2.18.73c-.29.24-.53.53-.72.89a3.9 3.9 0 0 0-.38 1.21l.66.11c.17.03.3.01.4-.04.1-.06.17-.17.23-.33a1.9 1.9 0 0 1 .65-1.07c.17-.13.36-.24.57-.31a2.17 2.17 0 0 1 1.41 0 1.51 1.51 0 0 1 .96.87c.09.22.14.48.14.77 0 .3-.05.57-.13.83s-.2.51-.36.77c-.15.25-.34.5-.56.75l-.72.78-3.22 3.23a.77.77 0 0 0-.23.53v.43h6.7v-.76a.42.42 0 0 0-.13-.3Zm8.6-3.95c0 .88-.1 1.64-.3 2.29a4.7 4.7 0 0 1-.76 1.59 3.1 3.1 0 0 1-1.16.93c-.45.2-.92.31-1.43.31a3.14 3.14 0 0 1-2.58-1.25 4.74 4.74 0 0 1-.78-1.58 8.27 8.27 0 0 1-.28-2.29c0-.87.1-1.63.28-2.28.2-.64.45-1.17.78-1.6a3.1 3.1 0 0 1 2.58-1.25c.5 0 .98.1 1.43.31.44.2.83.52 1.16.95.33.42.58.95.77 1.6.19.64.28 1.4.28 2.27Zm-1.3 0a8 8 0 0 0-.2-1.92c-.12-.52-.3-.94-.51-1.26a1.9 1.9 0 0 0-1.64-.89 1.9 1.9 0 0 0-1.64.89c-.21.32-.39.74-.52 1.26a8.3 8.3 0 0 0-.19 1.92c0 .77.07 1.41.2 1.93a4 4 0 0 0 .51 1.25c.22.32.47.55.75.69a2.05 2.05 0 0 0 1.78 0c.28-.14.53-.37.75-.69.22-.31.39-.73.51-1.25a8 8 0 0 0 .2-1.93Zm8.95 3.95a.43.43 0 0 0-.32-.12h-3.37a4.8 4.8 0 0 0-1.12.17l2.65-2.7.8-.83c.24-.28.47-.56.66-.85.19-.29.34-.6.45-.91a3.16 3.16 0 0 0-.06-2.22 2.5 2.5 0 0 0-.64-.88 2.74 2.74 0 0 0-.96-.55 3.65 3.65 0 0 0-1.19-.19 3.6 3.6 0 0 0-2.18.73 3.2 3.2 0 0 0-1.09 2.1l.65.11c.17.03.3.01.4-.04.1-.06.17-.17.23-.33a1.9 1.9 0 0 1 .65-1.07 1.93 1.93 0 0 1 1.28-.43c.25 0 .49.04.7.12a1.5 1.5 0 0 1 .96.87 2.49 2.49 0 0 1 .01 1.6c-.08.26-.2.51-.35.77-.16.25-.34.5-.56.75-.22.25-.47.5-.73.78l-3.22 3.23a.79.79 0 0 0-.23.53v.43h6.7v-.76a.41.41 0 0 0-.12-.3Zm6-6.69v4.14h-3.6l3.65-4.98a8.63 8.63 0 0 0-.05.84Zm2.6 4.85v-.71h-1.51v-6.42h-1.16l-4.88 6.48.12.64c.02.08.07.14.13.2a.4.4 0 0 0 .24.08h4.46v2.64h1.09v-2.64h1.25c.09 0 .16-.03.2-.08a.27.27 0 0 0 .07-.19Zm-38.29-2.76c.23-.49.5-.87.83-1.14a1.8 1.8 0 0 1 1.2-.41c.15 0 .29.02.42.05.14.03.27.08.37.15l-.09.93c-.03.12-.1.18-.2.18l-.3-.04a1.97 1.97 0 0 0-1.02.05 1.3 1.3 0 0 0-.47.3 2.1 2.1 0 0 0-.37.47c-.11.19-.2.4-.3.65v4.48h-1.25v-7.1h.71c.14 0 .23.03.28.08.06.05.1.14.1.27l.1 1.08Zm-3.96.56c.09.23.13.5.13.79h-3.88c.09-.62.3-1.1.65-1.44.35-.35.82-.53 1.42-.53.28 0 .54.05.76.15.22.09.41.23.57.4.16.18.27.38.35.63Zm.59 4.6c.2-.14.4-.3.55-.49l-.35-.45a.28.28 0 0 0-.24-.12.54.54 0 0 0-.29.11 4.8 4.8 0 0 1-1 .47c-.22.07-.48.1-.8.1-.33 0-.64-.05-.9-.16a1.9 1.9 0 0 1-.7-.5c-.2-.22-.36-.5-.47-.83-.1-.33-.17-.72-.18-1.17h4.74c.11 0 .2-.03.24-.1.04-.06.06-.19.06-.39 0-.5-.07-.95-.22-1.34a2.76 2.76 0 0 0-2.74-1.83c-.51 0-.98.1-1.39.28-.4.17-.76.42-1.04.74-.28.31-.5.68-.66 1.11a4.82 4.82 0 0 0 .03 3.01c.17.47.4.87.7 1.2.3.3.66.55 1.07.72.42.16.87.24 1.36.24a4.4 4.4 0 0 0 2.22-.6Zm-24.55-6.59v7.1h1.25v-5.29a3 3 0 0 1 .72-.67c.26-.17.55-.25.86-.25.44 0 .77.14 1 .42.23.28.34.7.34 1.27v4.52h1.25v-4.52c0-.28.04-.52.12-.73a1.37 1.37 0 0 1 .82-.85c.19-.08.38-.11.59-.11.46 0 .8.14 1.05.43.24.29.36.7.36 1.26v4.52h1.26v-4.52c0-.43-.06-.8-.16-1.14a2.4 2.4 0 0 0-.47-.85 1.9 1.9 0 0 0-.75-.51 2.9 2.9 0 0 0-1.69-.1 2.32 2.32 0 0 0-1.18.72c-.15.2-.28.41-.39.67a2.22 2.22 0 0 0-.64-1.08 1.7 1.7 0 0 0-1.16-.4c-.43 0-.8.1-1.13.31-.33.2-.62.47-.88.8l-.1-.74c-.04-.17-.15-.26-.32-.26h-.75Zm-2.65 2.78c0-.3-.05-.56-.13-.8a1.67 1.67 0 0 0-.92-1.02c-.23-.1-.48-.15-.77-.15-.6 0-1.07.18-1.42.53-.34.34-.56.82-.64 1.44h3.88Zm1 3.32c-.15.19-.33.35-.55.5a3.53 3.53 0 0 1-1.45.52 4.08 4.08 0 0 1-2.13-.17 3.1 3.1 0 0 1-1.77-1.92 4.82 4.82 0 0 1-.03-3 3.14 3.14 0 0 1 1.7-1.86 3.39 3.39 0 0 1 2.56-.06 2.75 2.75 0 0 1 1.56 1.61c.15.4.23.84.23 1.34 0 .2-.02.33-.07.4-.04.06-.12.1-.23.1h-4.74c.01.44.07.83.18 1.16a2.04 2.04 0 0 0 1.16 1.34c.27.1.58.15.91.15a2.72 2.72 0 0 0 1.4-.34c.16-.08.3-.16.4-.23.11-.08.2-.11.29-.11.1 0 .18.04.24.12l.34.45Zm-7.49-4.72a.54.54 0 0 0 .11-.11l.33-.45a3.1 3.1 0 0 0-2.33-.93c-.53 0-1.01.1-1.43.28a3 3 0 0 0-1.68 1.91c-.15.45-.22.94-.22 1.47 0 .58.08 1.1.24 1.54.16.46.38.84.66 1.15.28.31.6.55.98.7.39.17.8.25 1.24.25a4.5 4.5 0 0 0 1.47-.25c.22-.1.44-.21.63-.35.2-.13.37-.3.53-.49l-.35-.45a.27.27 0 0 0-.24-.12.4.4 0 0 0-.26.11l-.32.24a2.2 2.2 0 0 1-.49.24c-.2.07-.44.1-.74.1-.32 0-.6-.05-.87-.17-.25-.12-.46-.3-.65-.52-.17-.22-.31-.5-.4-.83a4.33 4.33 0 0 1-.01-2.26c.08-.34.22-.62.4-.85.18-.24.4-.41.66-.53.27-.13.58-.2.93-.2.26 0 .48.04.66.1a3.14 3.14 0 0 1 .77.38.4.4 0 0 0 .23.09c.06 0 .12-.02.15-.05Zm-7.47 1.4c0-.3-.04-.56-.13-.8a1.67 1.67 0 0 0-.92-1.02c-.23-.1-.48-.15-.77-.15-.6 0-1.07.18-1.42.53-.34.34-.56.82-.64 1.44h3.88Zm1 3.32c-.15.19-.33.35-.55.5a3.53 3.53 0 0 1-1.45.52 4.08 4.08 0 0 1-2.13-.17 3.1 3.1 0 0 1-1.77-1.92 4.82 4.82 0 0 1-.03-3 3.14 3.14 0 0 1 1.7-1.86 3.39 3.39 0 0 1 2.56-.06 2.75 2.75 0 0 1 1.56 1.61c.15.4.23.84.23 1.34 0 .2-.02.33-.07.4-.04.06-.12.1-.23.1h-4.74c.01.44.07.83.18 1.16.11.33.27.61.46.84.2.22.43.38.7.5.27.1.58.15.91.15a2.72 2.72 0 0 0 1.4-.34c.16-.08.3-.16.4-.23.11-.08.2-.11.29-.11.1 0 .18.04.24.12l.35.45Zm-7.67-1.97c.24-.61.36-1.3.36-2.05 0-.75-.12-1.43-.36-2.05a4.55 4.55 0 0 0-2.58-2.6 5.38 5.38 0 0 0-2.01-.37h-3.75v10.04h3.75c.73 0 1.4-.12 2.01-.36a4.52 4.52 0 0 0 2.58-2.6Zm-1.29-3.7c.17.49.25 1.04.25 1.65 0 .62-.08 1.17-.25 1.66a3.08 3.08 0 0 1-1.83 2 3.9 3.9 0 0 1-1.47.26h-2.39v-7.84h2.39c.54 0 1.03.1 1.47.27a3.12 3.12 0 0 1 1.83 2Z" clip-rule="evenodd"/><g clip-path="url(#b)"><path fill="#071722" fill-opacity=".29" d="M87.42 161.19a.47.47 0 0 0 .66-.66l-3.75-3.75a.47.47 0 0 0-.33-.14.46.46 0 0 0-.33.14l-3.75 3.75a.47.47 0 1 0 .66.66l2.95-2.95v6.37a.47.47 0 1 0 .94 0v-6.37l2.95 2.95Z"/></g><path fill="#071722" fill-opacity=".29" d="M116.52 159.38a1.88 1.88 0 0 1-.5 1.3 1.62 1.62 0 0 1-1.18.48 1.6 1.6 0 0 1-1.19-.48 1.69 1.69 0 0 1-.35-.56 2.06 2.06 0 0 1-.12-.74c0-.28.04-.54.12-.76a1.51 1.51 0 0 1 .88-.94c.2-.09.42-.13.66-.13a1.67 1.67 0 0 1 1.2.5c.15.15.27.34.35.57.08.22.13.48.13.76Zm-.95 0c0-.2-.02-.36-.06-.49a.86.86 0 0 0-.16-.31.52.52 0 0 0-.23-.17.7.7 0 0 0-.28-.06.7.7 0 0 0-.28.06.52.52 0 0 0-.22.17.94.94 0 0 0-.15.31c-.04.13-.05.3-.05.49 0 .18.01.34.05.47a.9.9 0 0 0 .15.3c.06.07.13.13.22.16s.18.05.28.05c.1 0 .2-.02.28-.05a.53.53 0 0 0 .23-.16.82.82 0 0 0 .16-.3c.04-.13.06-.29.06-.47Zm3.35-1.56c.04-.05.1-.1.15-.13a.45.45 0 0 1 .25-.06h.9l-5.37 7.04-.15.14a.45.45 0 0 1-.22.05h-.92l5.36-7.04Zm1.68 5.34a1.88 1.88 0 0 1-.5 1.3 1.67 1.67 0 0 1-1.17.48 1.6 1.6 0 0 1-1.2-.48 1.69 1.69 0 0 1-.34-.56 2.06 2.06 0 0 1-.13-.74c0-.28.04-.54.13-.76a1.51 1.51 0 0 1 .88-.93 1.67 1.67 0 0 1 1.86.36 2.02 2.02 0 0 1 .47 1.33Zm-.95 0c0-.2-.02-.36-.06-.49a.86.86 0 0 0-.15-.31.52.52 0 0 0-.23-.17.7.7 0 0 0-.28-.06.7.7 0 0 0-.28.06.52.52 0 0 0-.23.17.87.87 0 0 0-.15.31 2.24 2.24 0 0 0 0 .96c.04.12.09.22.15.3.06.08.14.13.23.17a.78.78 0 0 0 .56 0 .53.53 0 0 0 .23-.17.81.81 0 0 0 .15-.3c.04-.13.06-.29.06-.47Zm-11.01-3.36c0 .4.1.7.31.92.21.21.5.32.89.32.2 0 .38-.04.53-.1a1.06 1.06 0 0 0 .64-.65 1.43 1.43 0 0 0 0-1.01 1.08 1.08 0 0 0-.65-.64 1.38 1.38 0 0 0-.5-.08c-.19 0-.36.03-.5.1a1.1 1.1 0 0 0-.64.64 1.4 1.4 0 0 0-.08.5Zm1.64 2.25a6.14 6.14 0 0 0 .3-.4 2.04 2.04 0 0 1-1.17.32c-.25 0-.5-.04-.74-.13a1.87 1.87 0 0 1-1.1-1.04 2.27 2.27 0 0 1-.16-.9 2.3 2.3 0 0 1 1.46-2.17c.3-.12.64-.18 1-.18.38 0 .7.05 1 .17a2.14 2.14 0 0 1 1.23 1.25c.12.29.18.61.18.96a3.24 3.24 0 0 1-.22 1.22 4 4 0 0 1-.6 1.06l-1.65 2.36a.66.66 0 0 1-.25.2.9.9 0 0 1-.39.09h-1.14l2.25-2.8Zm-3.54-.81c0 .63-.07 1.18-.2 1.65a3.3 3.3 0 0 1-.57 1.15c-.23.3-.51.53-.84.68a2.5 2.5 0 0 1-1.05.22 2.3 2.3 0 0 1-1.88-.9c-.24-.3-.43-.7-.56-1.15a6.04 6.04 0 0 1-.2-1.65 6 6 0 0 1 .2-1.64c.13-.47.32-.85.55-1.15.24-.3.52-.53.84-.68.32-.15.67-.22 1.05-.22s.73.07 1.05.22c.33.15.6.37.84.68.24.3.43.68.56 1.15.14.46.2 1 .2 1.64Zm-1.28 0c0-.52-.03-.96-.11-1.3a2.56 2.56 0 0 0-.31-.82 1.08 1.08 0 0 0-.96-.55 1.1 1.1 0 0 0-.95.55c-.13.2-.23.48-.3.82a6.4 6.4 0 0 0-.12 1.3c0 .52.04.96.11 1.3.08.34.18.62.3.82.14.2.28.35.44.43a1.18 1.18 0 0 0 1.04 0c.17-.08.31-.23.44-.43.13-.2.23-.48.3-.82.09-.34.12-.78.12-1.3Zm-6.21 2.94c0-.1.01-.2.05-.3a.75.75 0 0 1 .7-.46.76.76 0 0 1 .7 1.06.73.73 0 0 1-.4.39.75.75 0 0 1-.6 0 .7.7 0 0 1-.24-.16.78.78 0 0 1-.16-.23.81.81 0 0 1-.05-.3Zm-3.62-3.93-.25.31a2.2 2.2 0 0 1 .97-.22c.27 0 .54.05.8.14a1.91 1.91 0 0 1 1.16 1.08c.12.27.18.59.18.95a2.45 2.45 0 0 1-.7 1.72 2.74 2.74 0 0 1-1.85.71c-.4 0-.74-.07-1.05-.19-.3-.12-.57-.3-.78-.51a2.3 2.3 0 0 1-.5-.8 3.04 3.04 0 0 1 .03-2.09c.14-.36.36-.73.65-1.12l1.72-2.31a.72.72 0 0 1 .26-.2.9.9 0 0 1 .4-.1h1.1l-2.14 2.63Zm.28 3.68c.2 0 .37-.04.54-.1a1.29 1.29 0 0 0 .8-1.23c0-.21-.03-.4-.1-.56a1.13 1.13 0 0 0-.68-.68 1.56 1.56 0 0 0-1.08 0c-.16.07-.3.17-.4.29-.12.11-.21.25-.27.42-.07.16-.1.33-.1.52 0 .2.03.38.08.55.06.16.14.3.25.42.1.11.24.2.4.27.16.06.35.1.56.1Z"/><circle cx="128" cy="160.86" r="1" fill="#071722" fill-opacity=".14"/><path fill="#071722" fill-opacity=".29" d="M238.47 162.27v-2.95a4.2 4.2 0 0 1 .04-.6l-2.6 3.55h2.56Zm1.87 0v.51a.2.2 0 0 1-.05.14c-.03.03-.08.05-.15.05h-.89v1.89h-.78v-1.89h-3.18a.29.29 0 0 1-.17-.05.26.26 0 0 1-.1-.15l-.08-.45 3.48-4.63h.83v4.58h1.09Zm-9.9-2.47a1.6 1.6 0 0 0 .37 1.06c.12.12.27.21.45.28a1.78 1.78 0 0 0 1.22-.02 1.45 1.45 0 0 0 .77-.77 1.6 1.6 0 0 0-.01-1.13 1.27 1.27 0 0 0-.75-.75 1.4 1.4 0 0 0-.58-.11c-.22 0-.42.03-.6.1a1.29 1.29 0 0 0-.77.75c-.07.18-.1.38-.1.59Zm2.08 2.2.2-.27.18-.26a2.28 2.28 0 0 1-2.12.31 1.87 1.87 0 0 1-1.07-1.04 2.23 2.23 0 0 1-.16-.88 2.21 2.21 0 0 1 1.41-2.07c.3-.12.6-.18.96-.18.34 0 .65.06.93.17a2.1 2.1 0 0 1 1.18 1.2 2.81 2.81 0 0 1-.06 2.08c-.07.18-.16.35-.26.53l-.35.54-1.74 2.52a.48.48 0 0 1-.19.15.65.65 0 0 1-.27.06h-.82l2.18-2.86Zm-8.65-2.37c.05-.33.14-.61.27-.86a2.08 2.08 0 0 1 1.21-1.02 2.67 2.67 0 0 1 1.7 0 1.75 1.75 0 0 1 1.1.94c.1.23.15.48.15.76 0 .22-.03.43-.09.6a1.49 1.49 0 0 1-.64.8c-.15.1-.33.18-.52.24.47.12.82.33 1.05.62.24.3.36.65.36 1.1a2.02 2.02 0 0 1-.7 1.56c-.22.18-.47.32-.76.42-.29.1-.6.15-.93.15a3 3 0 0 1-.97-.14 2.06 2.06 0 0 1-1.14-.99 4.48 4.48 0 0 1-.31-.74l.38-.16c.1-.05.2-.06.3-.04.1.02.16.08.2.17l.16.33c.07.13.16.26.28.38.1.12.25.22.43.3.17.08.4.13.66.13.25 0 .47-.04.66-.12a1.42 1.42 0 0 0 .75-.76c.07-.16.1-.32.1-.47 0-.2-.03-.37-.07-.53a.89.89 0 0 0-.28-.42c-.14-.12-.33-.2-.57-.27-.24-.07-.54-.1-.91-.1v-.65c.3 0 .56-.04.77-.1.22-.06.4-.15.53-.26a.94.94 0 0 0 .3-.4c.06-.15.09-.32.09-.5 0-.21-.03-.4-.1-.54a1.02 1.02 0 0 0-.67-.6 1.6 1.6 0 0 0-1.41.22 1.28 1.28 0 0 0-.47.77c-.04.11-.1.2-.16.23-.07.04-.16.05-.28.03l-.47-.08Zm-5.08 4.67c0-.08.01-.16.04-.24a.69.69 0 0 1 .13-.2.63.63 0 1 1 .9.9.57.57 0 0 1-.2.12.61.61 0 0 1-.5 0 .57.57 0 0 1-.33-.32.68.68 0 0 1-.04-.25Zm0-3.74c0-.1.01-.17.04-.25a.69.69 0 0 1 .13-.2.63.63 0 1 1 .7 1.03.67.67 0 0 1-.5 0 .63.63 0 0 1-.33-.33.68.68 0 0 1-.04-.25Zm-4.6-.09c.21-.23.45-.42.72-.55.26-.14.56-.2.9-.2.28 0 .53.04.73.13.22.1.4.22.53.4.15.16.26.36.33.6.07.23.11.5.11.78v3.23h-.9v-3.23c0-.38-.08-.68-.26-.89-.17-.21-.44-.32-.8-.32-.26 0-.5.06-.74.2-.22.12-.43.29-.63.5v3.74h-.89v-7.37h.9v2.98Zm-2.93 4.47c-.4 0-.7-.12-.92-.34-.22-.22-.32-.54-.32-.96v-3.1h-.61a.2.2 0 0 1-.14-.05c-.03-.03-.05-.08-.05-.15V160l.83-.1.2-1.57a.21.21 0 0 1 .07-.12.2.2 0 0 1 .14-.05h.45v1.74h1.46v.65h-1.46v3.04c0 .2.05.37.15.47.1.1.24.16.4.16a.73.73 0 0 0 .42-.12l.13-.08a.13.13 0 0 1 .1-.04c.04 0 .08.02.12.08l.26.43c-.16.14-.34.25-.56.34-.22.08-.44.12-.67.12Zm-6.22-4.41a3.06 3.06 0 0 1 .74-.6 1.93 1.93 0 0 1 .94-.22c.28 0 .52.05.73.14.22.1.4.22.53.4.15.16.26.36.33.6.07.23.1.5.1.78v3.23h-.89v-3.23c0-.38-.09-.68-.26-.89-.17-.21-.44-.32-.8-.32-.26 0-.5.06-.74.2-.22.12-.43.29-.63.5v3.74h-.9v-5.07h.54c.13 0 .2.06.24.19l.07.55Zm-4.38-.82c.37 0 .7.06 1 .19a2.14 2.14 0 0 1 1.24 1.35c.11.32.17.67.17 1.07s-.06.76-.17 1.08a2.14 2.14 0 0 1-1.24 1.34c-.3.13-.63.19-1 .19a2.7 2.7 0 0 1-1.01-.18 2.17 2.17 0 0 1-1.24-1.35 3.31 3.31 0 0 1-.17-1.08c0-.4.05-.75.16-1.07.12-.33.28-.6.49-.83.21-.23.46-.4.76-.52.3-.13.64-.19 1.01-.19Zm0 4.52c.5 0 .87-.17 1.12-.5.25-.34.37-.8.37-1.4 0-.6-.12-1.08-.37-1.41-.25-.34-.62-.5-1.12-.5-.25 0-.47.03-.66.12-.2.09-.35.21-.47.38a1.7 1.7 0 0 0-.28.6c-.06.24-.1.5-.1.8 0 .6.13 1.07.38 1.41.25.33.62.5 1.13.5Zm-10.36.63v-5.07h.54c.12 0 .2.06.23.19l.07.52c.18-.23.4-.42.63-.57.23-.15.5-.22.8-.22.35 0 .62.1.83.29.22.19.37.44.46.77a1.65 1.65 0 0 1 1.13-1 2.07 2.07 0 0 1 1.2.07c.21.08.39.2.53.37.15.16.26.37.34.6.07.24.11.51.11.82v3.23h-.9v-3.23c0-.4-.08-.7-.25-.9a.96.96 0 0 0-.75-.3c-.15 0-.29.02-.42.07a.98.98 0 0 0-.35.23c-.1.1-.18.22-.24.38-.05.15-.08.32-.08.52v3.23h-.9v-3.23c0-.4-.08-.7-.24-.9-.17-.2-.4-.3-.72-.3-.22 0-.42.05-.6.17-.2.12-.37.28-.52.48v3.78h-.9Zm-3.93-4.23a.2.2 0 0 1-.19.1.35.35 0 0 1-.17-.05 2.63 2.63 0 0 0-.56-.24 1.5 1.5 0 0 0-.85 0 .97.97 0 0 0-.31.15.63.63 0 0 0-.26.52c0 .13.03.24.1.33a1 1 0 0 0 .3.22c.13.06.27.12.43.17a11.05 11.05 0 0 1 .96.34c.16.06.3.15.42.25a1.1 1.1 0 0 1 .41.89c0 .23-.04.45-.12.65-.09.2-.2.36-.37.51a1.8 1.8 0 0 1-.6.34c-.24.08-.51.13-.82.13a2.49 2.49 0 0 1-1.69-.62l.2-.34a.32.32 0 0 1 .1-.1.26.26 0 0 1 .14-.03c.06 0 .13.02.2.07l.23.15c.1.06.22.1.35.16a1.8 1.8 0 0 0 .97 0 .9.9 0 0 0 .32-.18.79.79 0 0 0 .25-.58.51.51 0 0 0-.1-.35.87.87 0 0 0-.3-.24 2.16 2.16 0 0 0-.43-.17l-.48-.15a6.3 6.3 0 0 1-.49-.18c-.15-.07-.3-.16-.42-.26s-.22-.23-.3-.38a1.28 1.28 0 0 1-.1-.56 1.33 1.33 0 0 1 .46-1.02c.16-.14.34-.25.57-.33.22-.08.48-.12.76-.12a2.36 2.36 0 0 1 1.59.6l-.2.32Zm-4.37-.83v5.06h-.52c-.13 0-.21-.07-.24-.19l-.07-.54c-.22.24-.47.44-.74.59a2.1 2.1 0 0 1-1.68.08c-.2-.1-.39-.22-.53-.39a1.67 1.67 0 0 1-.32-.6 2.8 2.8 0 0 1-.1-.79v-3.23h.88v3.23c0 .38.09.68.26.9.18.2.45.3.8.3.27 0 .51-.06.74-.18.23-.13.44-.3.64-.52v-3.73h.89Zm-7.7-.09c.37 0 .7.06 1 .19a2.13 2.13 0 0 1 1.24 1.35c.12.32.17.67.17 1.07s-.05.76-.17 1.08a2.13 2.13 0 0 1-1.24 1.34c-.3.13-.63.19-1 .19a2.7 2.7 0 0 1-1-.18 2.14 2.14 0 0 1-1.25-1.35 3.31 3.31 0 0 1-.17-1.08c0-.4.06-.75.17-1.07a2.14 2.14 0 0 1 1.25-1.35c.3-.13.63-.19 1-.19Zm0 4.52c.5 0 .88-.17 1.12-.5.25-.34.37-.8.37-1.4 0-.6-.12-1.08-.37-1.41-.24-.34-.62-.5-1.12-.5-.25 0-.47.03-.66.12-.19.09-.35.21-.47.38-.13.16-.22.36-.28.6-.06.24-.1.5-.1.8 0 .6.13 1.07.38 1.41.25.33.63.5 1.13.5Zm-3.6-4.43v5.06h-.88v-5.07h.89Zm.2-1.6a.68.68 0 0 1-.2.44.62.62 0 0 1-.2.14.61.61 0 0 1-.69-.13.61.61 0 0 1-.13-.69.62.62 0 0 1 .13-.2.48.48 0 0 1 .2-.15.61.61 0 0 1 .49 0c.07.03.14.08.2.14.06.06.1.13.14.2.04.08.06.16.06.25Zm-1.95 1.6-2.07 5.06h-.8l-2.06-5.07h.72c.08 0 .14.02.18.06.05.03.08.08.1.13l1.28 3.26a5.92 5.92 0 0 1 .2.7 11.13 11.13 0 0 1 .19-.7l1.3-3.26c.02-.06.05-.1.1-.13.04-.04.1-.06.16-.06h.7Zm-6.13 1.97c0-.2-.03-.4-.09-.56a1.2 1.2 0 0 0-.66-.74c-.16-.07-.34-.1-.54-.1-.43 0-.77.12-1.02.37-.24.25-.4.6-.46 1.03h2.77Zm.72 2.38c-.1.13-.24.25-.4.35a2.97 2.97 0 0 1-1.59.43c-.34 0-.67-.06-.96-.18a2.18 2.18 0 0 1-1.27-1.37 3.45 3.45 0 0 1-.02-2.15c.11-.3.27-.57.47-.8a2.42 2.42 0 0 1 2.58-.57 1.98 1.98 0 0 1 1.11 1.15c.1.29.16.6.16.97 0 .14-.01.23-.04.28-.03.04-.09.07-.17.07h-3.39c.01.32.06.6.13.83.08.24.2.44.33.6.14.15.3.27.5.35a1.94 1.94 0 0 0 1.64-.13l.3-.16a.4.4 0 0 1 .2-.08.2.2 0 0 1 .17.08l.25.33Zm-6.7-3.35c.16-.34.36-.61.59-.8.23-.2.52-.3.85-.3.11 0 .21.01.31.04.1.02.19.06.26.1l-.06.67c-.02.08-.07.13-.15.13l-.2-.03a1.41 1.41 0 0 0-.74.04.94.94 0 0 0-.33.2c-.1.1-.19.2-.27.35a2.9 2.9 0 0 0-.21.46v3.2h-.9v-5.07h.51c.1 0 .17.02.2.06.04.03.07.1.08.19l.06.77Zm-5.56 2.84a1.4 1.4 0 0 0 1.19.6c.47 0 .84-.17 1.09-.5.25-.35.38-.83.38-1.45 0-.33-.03-.61-.09-.85a1.6 1.6 0 0 0-.25-.58.98.98 0 0 0-.4-.33c-.16-.07-.35-.1-.55-.1-.29 0-.55.06-.77.2a2.2 2.2 0 0 0-.6.56v2.45Zm-.04-3.06c.21-.27.46-.48.74-.64.28-.16.6-.24.96-.24a1.68 1.68 0 0 1 1.4.67c.17.21.3.48.38.8a4.17 4.17 0 0 1-.01 2.17c-.1.32-.25.6-.44.83a2 2 0 0 1-1.6.76 1.9 1.9 0 0 1-.8-.16 1.9 1.9 0 0 1-.59-.44v2.24h-.89v-6.78h.54c.12 0 .2.06.23.19l.08.6Zm-5.92 3.72c0-.08.01-.16.04-.24a.69.69 0 0 1 .13-.2.63.63 0 1 1 .9.9.57.57 0 0 1-.2.12.61.61 0 0 1-.5 0 .57.57 0 0 1-.33-.32.68.68 0 0 1-.04-.25Zm-1.22-3.67a.2.2 0 0 1-.2.1.34.34 0 0 1-.16-.05 2.78 2.78 0 0 0-.56-.24 1.5 1.5 0 0 0-.86 0 .97.97 0 0 0-.3.15.63.63 0 0 0-.26.52c0 .13.03.24.1.33a1 1 0 0 0 .3.22l.42.17a11.05 11.05 0 0 1 .97.34c.15.06.3.15.42.25a1.1 1.1 0 0 1 .4.89c0 .23-.03.45-.12.65-.08.2-.2.36-.37.51a1.8 1.8 0 0 1-.6.34c-.24.08-.5.13-.82.13a2.47 2.47 0 0 1-1.69-.62l.21-.34a.3.3 0 0 1 .1-.1.26.26 0 0 1 .14-.03c.06 0 .12.02.19.07.06.04.14.1.24.15.1.06.21.1.35.16a1.72 1.72 0 0 0 .96 0 1 1 0 0 0 .33-.18.8.8 0 0 0 .25-.58.51.51 0 0 0-.11-.35.88.88 0 0 0-.3-.24 2.16 2.16 0 0 0-.42-.17l-.49-.15a6.3 6.3 0 0 1-.48-.18c-.16-.07-.3-.16-.42-.26-.13-.1-.23-.23-.3-.38a1.28 1.28 0 0 1-.11-.56 1.33 1.33 0 0 1 .47-1.02c.15-.14.34-.25.56-.33.22-.08.48-.12.77-.12a2.36 2.36 0 0 1 1.58.6l-.2.32Zm-3.68-.83-2.06 5.06h-.8l-2.07-5.07h.73c.07 0 .13.02.18.06.04.03.08.08.1.13l1.28 3.26a5.92 5.92 0 0 1 .19.7 14.83 14.83 0 0 1 .2-.7l1.3-3.26c.01-.06.05-.1.1-.13.04-.04.1-.06.16-.06h.7Z"/><defs><linearGradient id="a" x1="99.15" x2="99.15" y1="32.93" y2="113.96" gradientUnits="userSpaceOnUse"><stop stop-color="#2F3C45" stop-opacity=".5"/><stop offset="1" stop-color="#2F3C45"/></linearGradient><clipPath id="b"><path fill="#fff" d="M0 0h10v10H0z" transform="translate(79 155.86)"/></clipPath></defs></svg>