<svg width="320" height="200" viewBox="0 0 320 200" fill="none" xmlns="http://www.w3.org/2000/svg">
<path fill-rule="evenodd" clip-rule="evenodd" d="M223.57 104.05C225.85 104.05 227.84 103.73 229.57 103.1C231.179 102.492 232.643 101.555 233.87 100.35C235.07 99.1905 235.993 97.7754 236.57 96.21C237.16 94.61 237.46 92.87 237.46 91C237.46 86.56 236.22 83.2 233.76 80.92C231.3 78.64 227.9 77.5 223.56 77.5C219.24 77.5 215.84 78.64 213.38 80.92C210.91 83.2 209.68 86.56 209.68 91C209.68 92.87 209.98 94.6 210.58 96.2C211.145 97.758 212.042 99.1743 213.21 100.35C214.468 101.55 215.954 102.485 217.58 103.1C219.29 103.73 221.29 104.05 223.57 104.05ZM223.57 42.5C221.52 42.5 219.74 42.82 218.25 43.46C216.87 44.0075 215.625 44.8468 214.6 45.9203C213.575 46.9939 212.794 48.2764 212.31 49.68C211.859 51.0891 211.633 52.5605 211.64 54.04C211.64 55.64 211.83 57.21 212.2 58.74C212.597 60.2079 213.284 61.5815 214.22 62.78C215.22 63.9878 216.486 64.9465 217.92 65.58C219.44 66.28 221.32 66.64 223.57 66.64C225.81 66.64 227.69 66.29 229.23 65.58C230.664 64.9465 231.931 63.9878 232.93 62.78C233.85 61.58 234.51 60.24 234.88 58.74C235.29 57.21 235.5 55.64 235.5 54.04C235.5 52.51 235.25 51.05 234.77 49.67C234.301 48.3177 233.555 47.078 232.58 46.03C231.552 44.9101 230.289 44.0323 228.88 43.46C227.194 42.7822 225.387 42.4555 223.57 42.5ZM237.23 71.74C242.16 73.34 245.8 75.81 248.15 79.13C250.5 82.41 251.68 86.45 251.68 91.23C251.68 94.81 250.99 98.06 249.61 100.97C248.291 103.851 246.34 106.398 243.9 108.42C241.267 110.564 238.245 112.18 235 113.18C231.303 114.34 227.445 114.907 223.57 114.86C219.39 114.86 215.57 114.3 212.09 113.18C208.863 112.173 205.859 110.557 203.24 108.42C200.794 106.39 198.824 103.847 197.47 100.97C196.096 97.9059 195.41 94.5778 195.46 91.22C195.46 86.45 196.63 82.42 198.99 79.12C201.34 75.81 204.98 73.34 209.9 71.74C205.99 70.09 203.04 67.76 201.06 64.74C199.12 61.71 198.15 58.07 198.15 53.82C198.15 50.75 198.76 47.9 199.99 45.25C201.25 42.6125 203.045 40.2661 205.26 38.36C207.601 36.3194 210.319 34.7567 213.26 33.76C216.572 32.6146 220.056 32.0497 223.56 32.09C227.052 32.0486 230.524 32.6171 233.82 33.77C236.783 34.7542 239.522 36.3141 241.88 38.36C244.085 40.2595 245.858 42.6087 247.08 45.25C248.363 47.9234 249.016 50.855 248.99 53.82C248.99 58.07 248 61.72 246.02 64.74C244.08 67.76 241.15 70.09 237.23 71.74ZM187.44 103.6V113.96H142.64V103.6H159.04V56.4C159.04 54.53 159.1 52.6 159.22 50.62L147.57 60.37C146.9 60.89 146.22 61.23 145.55 61.37C144.4 61.5753 143.215 61.3813 142.19 60.82C141.74 60.52 141.41 60.2 141.19 59.86L136.82 53.87L161.52 32.87H172.88V103.6H187.44ZM107.74 56.95V83.44H83.1003L108.25 48.66C107.91 51.69 107.75 54.46 107.75 56.96L107.74 56.95ZM129.97 91.45V83.44H119.78V32.93H106.68L68.3203 84.17L69.7803 91.17C69.9656 92.0358 70.4459 92.8103 71.139 93.3611C71.8321 93.912 72.6951 94.205 73.5803 94.19H107.74V113.96H119.78V94.19H127.18C128.08 94.19 128.76 93.93 129.25 93.41C129.725 92.8687 129.982 92.1701 129.97 91.45Z" fill="url(#paint0_linear_2220_3643)" fill-opacity="0.3"/>
<path fill-rule="evenodd" clip-rule="evenodd" d="M155.9 144.15C156.13 144.45 156.38 144.67 156.65 144.8C156.93 144.93 157.23 144.99 157.55 144.99C157.844 145.008 158.138 144.954 158.407 144.832C158.675 144.71 158.91 144.524 159.09 144.29C159.44 143.81 159.62 143.11 159.62 142.17C159.62 141.31 159.46 140.67 159.14 140.27C158.983 140.066 158.779 139.903 158.546 139.795C158.312 139.687 158.056 139.637 157.8 139.65C157.4 139.65 157.04 139.74 156.74 139.93C156.44 140.11 156.16 140.38 155.9 140.72V144.15ZM155.9 139.79C156.2 139.44 156.54 139.17 156.91 138.96C157.29 138.76 157.72 138.66 158.21 138.66C158.589 138.641 158.967 138.716 159.311 138.878C159.655 139.04 159.953 139.285 160.18 139.59C160.42 139.89 160.6 140.25 160.72 140.68C160.995 141.669 160.988 142.715 160.7 143.7C160.56 144.16 160.36 144.57 160.09 144.9C159.824 145.235 159.485 145.505 159.098 145.687C158.711 145.869 158.287 145.959 157.86 145.95C157.39 145.95 156.99 145.87 156.67 145.7C156.36 145.52 156.07 145.27 155.84 144.95L155.78 145.59C155.74 145.77 155.63 145.86 155.46 145.86H154.65V135.54H155.9V139.79ZM184.5 144.79C184.457 144.75 184.407 144.718 184.352 144.698C184.297 144.677 184.238 144.668 184.18 144.67H180.82C180.441 144.682 180.065 144.739 179.7 144.84L182.35 142.14L183.14 141.31C183.39 141.03 183.61 140.75 183.81 140.46C184 140.17 184.15 139.86 184.26 139.55C184.509 138.827 184.487 138.038 184.2 137.33C184.053 136.993 183.835 136.693 183.56 136.45C183.28 136.204 182.953 136.016 182.6 135.9C182.216 135.771 181.814 135.707 181.41 135.71C180.623 135.709 179.857 135.965 179.23 136.44C178.94 136.68 178.7 136.97 178.51 137.33C178.318 137.71 178.189 138.119 178.13 138.54L178.79 138.65C178.96 138.68 179.09 138.66 179.19 138.61C179.29 138.55 179.36 138.44 179.42 138.28C179.509 137.86 179.738 137.483 180.07 137.21C180.24 137.08 180.43 136.97 180.64 136.9C181.096 136.743 181.593 136.743 182.05 136.9C182.264 136.965 182.462 137.076 182.628 137.227C182.794 137.377 182.924 137.563 183.01 137.77C183.1 137.99 183.15 138.25 183.15 138.54C183.15 138.84 183.1 139.11 183.02 139.37C182.94 139.63 182.82 139.88 182.66 140.14C182.51 140.39 182.32 140.64 182.1 140.89L181.38 141.67L178.16 144.9C178.017 145.04 177.934 145.23 177.93 145.43V145.86H184.63V145.1C184.629 145.044 184.617 144.988 184.595 144.937C184.573 144.885 184.54 144.839 184.5 144.8V144.79ZM193.1 140.84C193.1 141.72 193 142.48 192.8 143.13C192.649 143.703 192.391 144.243 192.04 144.72C191.734 145.12 191.336 145.439 190.88 145.65C190.43 145.85 189.96 145.96 189.45 145.96C188.951 145.971 188.457 145.864 188.009 145.647C187.56 145.429 187.169 145.108 186.87 144.71C186.513 144.237 186.248 143.701 186.09 143.13C185.89 142.384 185.795 141.613 185.81 140.84C185.81 139.97 185.91 139.21 186.09 138.56C186.29 137.92 186.54 137.39 186.87 136.96C187.167 136.559 187.557 136.237 188.006 136.019C188.456 135.801 188.951 135.695 189.45 135.71C189.95 135.71 190.43 135.81 190.88 136.02C191.32 136.22 191.71 136.54 192.04 136.97C192.37 137.39 192.62 137.92 192.81 138.57C193 139.21 193.09 139.97 193.09 140.84H193.1ZM191.8 140.84C191.811 140.194 191.743 139.55 191.6 138.92C191.48 138.4 191.3 137.98 191.09 137.66C190.916 137.383 190.674 137.156 190.386 137C190.099 136.844 189.776 136.765 189.45 136.77C189.123 136.765 188.8 136.844 188.513 137C188.225 137.156 187.983 137.383 187.81 137.66C187.6 137.98 187.42 138.4 187.29 138.92C187.152 139.55 187.088 140.195 187.1 140.84C187.1 141.61 187.17 142.25 187.3 142.77C187.397 143.213 187.57 143.635 187.81 144.02C188.03 144.34 188.28 144.57 188.56 144.71C188.837 144.844 189.141 144.913 189.45 144.913C189.758 144.913 190.062 144.844 190.34 144.71C190.62 144.57 190.87 144.34 191.09 144.02C191.31 143.71 191.48 143.29 191.6 142.77C191.744 142.137 191.811 141.489 191.8 140.84ZM200.75 144.79C200.707 144.749 200.657 144.718 200.602 144.697C200.547 144.676 200.488 144.667 200.43 144.67H197.06C196.681 144.682 196.305 144.739 195.94 144.84L198.59 142.14L199.39 141.31C199.63 141.03 199.86 140.75 200.05 140.46C200.24 140.17 200.39 139.86 200.5 139.55C200.749 138.827 200.727 138.038 200.44 137.33C200.293 136.993 200.075 136.693 199.8 136.45C199.52 136.203 199.194 136.016 198.84 135.9C198.456 135.771 198.054 135.707 197.65 135.71C196.863 135.709 196.097 135.965 195.47 136.44C194.851 136.975 194.461 137.726 194.38 138.54L195.03 138.65C195.2 138.68 195.33 138.66 195.43 138.61C195.53 138.55 195.6 138.44 195.66 138.28C195.749 137.86 195.978 137.483 196.31 137.21C196.671 136.917 197.125 136.765 197.59 136.78C197.84 136.78 198.08 136.82 198.29 136.9C198.504 136.964 198.702 137.075 198.868 137.226C199.034 137.377 199.165 137.563 199.25 137.77C199.429 138.288 199.432 138.85 199.26 139.37C199.18 139.63 199.06 139.88 198.91 140.14C198.75 140.39 198.57 140.64 198.35 140.89C198.13 141.14 197.88 141.39 197.62 141.67L194.4 144.9C194.259 145.041 194.177 145.231 194.17 145.43V145.86H200.87V145.1C200.871 145.045 200.861 144.989 200.84 144.938C200.82 144.886 200.789 144.839 200.75 144.8V144.79ZM206.75 138.1V142.24H203.15L206.8 137.26C206.769 137.539 206.753 137.819 206.75 138.1ZM209.35 142.95V142.24H207.84V135.82H206.68L201.8 142.3L201.92 142.94C201.94 143.02 201.99 143.08 202.05 143.14C202.119 143.192 202.203 143.22 202.29 143.22H206.75V145.86H207.84V143.22H209.09C209.18 143.22 209.25 143.19 209.29 143.14C209.337 143.088 209.362 143.02 209.36 142.95H209.35ZM171.06 140.19C171.29 139.7 171.56 139.32 171.89 139.05C172.227 138.772 172.653 138.627 173.09 138.64C173.24 138.64 173.38 138.66 173.51 138.69C173.65 138.72 173.78 138.77 173.88 138.84L173.79 139.77C173.76 139.89 173.69 139.95 173.59 139.95L173.29 139.91C172.951 139.837 172.599 139.854 172.27 139.96C172.093 140.025 171.933 140.127 171.8 140.26C171.654 140.398 171.53 140.557 171.43 140.73C171.32 140.92 171.23 141.13 171.13 141.38V145.86H169.88V138.76H170.59C170.73 138.76 170.82 138.79 170.87 138.84C170.93 138.89 170.97 138.98 170.97 139.11L171.07 140.19H171.06ZM167.1 140.75C167.19 140.98 167.23 141.25 167.23 141.54H163.35C163.44 140.92 163.65 140.44 164 140.1C164.35 139.75 164.82 139.57 165.42 139.57C165.7 139.57 165.96 139.62 166.18 139.72C166.4 139.81 166.59 139.95 166.75 140.12C166.91 140.3 167.02 140.5 167.1 140.75ZM167.69 145.35C167.89 145.21 168.09 145.05 168.24 144.86L167.89 144.41C167.863 144.372 167.827 144.34 167.785 144.319C167.743 144.298 167.696 144.288 167.65 144.29C167.544 144.298 167.443 144.336 167.36 144.4C167.045 144.595 166.71 144.752 166.36 144.87C166.14 144.94 165.88 144.97 165.56 144.97C165.23 144.97 164.92 144.92 164.66 144.81C164.391 144.699 164.152 144.528 163.96 144.31C163.76 144.09 163.6 143.81 163.49 143.48C163.39 143.15 163.32 142.76 163.31 142.31H168.05C168.16 142.31 168.25 142.28 168.29 142.21C168.33 142.15 168.35 142.02 168.35 141.82C168.35 141.32 168.28 140.87 168.13 140.48C167.93 139.921 167.556 139.441 167.063 139.111C166.569 138.782 165.982 138.62 165.39 138.65C164.88 138.65 164.41 138.75 164 138.93C163.6 139.1 163.24 139.35 162.96 139.67C162.68 139.98 162.46 140.35 162.3 140.78C161.988 141.761 161.998 142.816 162.33 143.79C162.5 144.26 162.73 144.66 163.03 144.99C163.33 145.29 163.69 145.54 164.1 145.71C164.52 145.87 164.97 145.95 165.46 145.95C166.24 145.95 167.006 145.743 167.68 145.35H167.69ZM143.14 138.76V145.86H144.39V140.57C144.591 140.309 144.834 140.082 145.11 139.9C145.37 139.73 145.66 139.65 145.97 139.65C146.41 139.65 146.74 139.79 146.97 140.07C147.2 140.35 147.31 140.77 147.31 141.34V145.86H148.56V141.34C148.56 141.06 148.6 140.82 148.68 140.61C148.744 140.416 148.851 140.239 148.993 140.092C149.135 139.945 149.308 139.832 149.5 139.76C149.69 139.68 149.88 139.65 150.09 139.65C150.55 139.65 150.89 139.79 151.14 140.08C151.38 140.37 151.5 140.78 151.5 141.34V145.86H152.76V141.34C152.76 140.91 152.7 140.54 152.6 140.2C152.502 139.888 152.343 139.598 152.13 139.35C151.924 139.122 151.667 138.947 151.38 138.84C150.839 138.639 150.25 138.605 149.69 138.74C149.232 138.855 148.821 139.106 148.51 139.46C148.36 139.66 148.23 139.87 148.12 140.13C148.015 139.716 147.792 139.341 147.48 139.05C147.156 138.777 146.743 138.634 146.32 138.65C145.89 138.65 145.52 138.75 145.19 138.96C144.86 139.16 144.57 139.43 144.31 139.76L144.21 139.02C144.17 138.85 144.06 138.76 143.89 138.76H143.14ZM140.49 141.54C140.49 141.24 140.44 140.98 140.36 140.74C140.287 140.515 140.168 140.307 140.009 140.131C139.851 139.955 139.656 139.815 139.44 139.72C139.21 139.62 138.96 139.57 138.67 139.57C138.07 139.57 137.6 139.75 137.25 140.1C136.91 140.44 136.69 140.92 136.61 141.54H140.49ZM141.49 144.86C141.34 145.05 141.16 145.21 140.94 145.36C140.5 145.638 140.005 145.816 139.49 145.88C138.777 146.014 138.042 145.955 137.36 145.71C136.943 145.538 136.568 145.277 136.263 144.946C135.957 144.614 135.727 144.22 135.59 143.79C135.261 142.819 135.25 141.768 135.56 140.79C135.699 140.379 135.922 140.002 136.215 139.682C136.507 139.362 136.863 139.106 137.26 138.93C138.072 138.576 138.991 138.555 139.82 138.87C140.178 139.014 140.502 139.231 140.771 139.509C141.04 139.786 141.247 140.117 141.38 140.48C141.53 140.88 141.61 141.32 141.61 141.82C141.61 142.02 141.59 142.15 141.54 142.22C141.5 142.28 141.42 142.32 141.31 142.32H136.57C136.58 142.76 136.64 143.15 136.75 143.48C136.83 143.776 136.976 144.051 137.176 144.283C137.377 144.515 137.628 144.698 137.91 144.82C138.18 144.92 138.49 144.97 138.82 144.97C139.308 144.985 139.792 144.867 140.22 144.63C140.38 144.55 140.52 144.47 140.62 144.4C140.73 144.32 140.82 144.29 140.91 144.29C141.01 144.29 141.09 144.33 141.15 144.41L141.49 144.86ZM134 140.14C134.041 140.109 134.078 140.072 134.11 140.03L134.44 139.58C134.137 139.271 133.774 139.029 133.373 138.869C132.972 138.709 132.541 138.634 132.11 138.65C131.58 138.65 131.1 138.75 130.68 138.93C130.277 139.106 129.917 139.368 129.627 139.698C129.337 140.028 129.123 140.418 129 140.84C128.85 141.29 128.78 141.78 128.78 142.31C128.78 142.89 128.86 143.41 129.02 143.85C129.18 144.31 129.4 144.69 129.68 145C129.96 145.31 130.28 145.55 130.66 145.7C131.05 145.87 131.46 145.95 131.9 145.95C132.4 145.949 132.897 145.865 133.37 145.7C133.59 145.6 133.81 145.49 134 145.35C134.2 145.22 134.37 145.05 134.53 144.86L134.18 144.41C134.153 144.371 134.118 144.339 134.075 144.318C134.033 144.297 133.987 144.287 133.94 144.29C133.842 144.294 133.75 144.333 133.68 144.4L133.36 144.64C133.207 144.74 133.042 144.821 132.87 144.88C132.67 144.95 132.43 144.98 132.13 144.98C131.81 144.98 131.53 144.93 131.26 144.81C131.01 144.69 130.8 144.51 130.61 144.29C130.44 144.07 130.3 143.79 130.21 143.46C130.006 142.721 130.003 141.941 130.2 141.2C130.28 140.86 130.42 140.58 130.6 140.35C130.78 140.11 131 139.94 131.26 139.82C131.53 139.69 131.84 139.62 132.19 139.62C132.45 139.62 132.67 139.66 132.85 139.72C133.122 139.811 133.381 139.939 133.62 140.1C133.685 140.154 133.765 140.185 133.85 140.19C133.91 140.19 133.97 140.17 134 140.14ZM126.53 141.54C126.53 141.24 126.49 140.98 126.4 140.74C126.327 140.515 126.208 140.307 126.049 140.131C125.891 139.955 125.696 139.815 125.48 139.72C125.25 139.62 125 139.57 124.71 139.57C124.11 139.57 123.64 139.75 123.29 140.1C122.95 140.44 122.73 140.92 122.65 141.54H126.53ZM127.53 144.86C127.38 145.05 127.2 145.21 126.98 145.36C126.54 145.638 126.045 145.816 125.53 145.88C124.817 146.014 124.082 145.955 123.4 145.71C122.983 145.538 122.608 145.277 122.302 144.946C121.997 144.614 121.767 144.22 121.63 143.79C121.301 142.819 121.29 141.768 121.6 140.79C121.739 140.379 121.962 140.002 122.255 139.682C122.547 139.362 122.903 139.106 123.3 138.93C124.112 138.576 125.031 138.555 125.86 138.87C126.218 139.014 126.542 139.231 126.811 139.509C127.08 139.786 127.287 140.117 127.42 140.48C127.57 140.88 127.65 141.32 127.65 141.82C127.65 142.02 127.63 142.15 127.58 142.22C127.54 142.28 127.46 142.32 127.35 142.32H122.61C122.62 142.76 122.68 143.15 122.79 143.48C122.9 143.81 123.06 144.09 123.25 144.32C123.45 144.54 123.68 144.7 123.95 144.82C124.22 144.92 124.53 144.97 124.86 144.97C125.348 144.985 125.832 144.867 126.26 144.63C126.42 144.55 126.56 144.47 126.66 144.4C126.77 144.32 126.86 144.29 126.95 144.29C127.05 144.29 127.13 144.33 127.19 144.41L127.54 144.86H127.53ZM119.86 142.89C120.1 142.28 120.22 141.59 120.22 140.84C120.22 140.09 120.1 139.41 119.86 138.79C119.633 138.202 119.287 137.667 118.843 137.219C118.399 136.771 117.866 136.421 117.28 136.19C116.639 135.939 115.957 135.814 115.27 135.82H111.52V145.86H115.27C116 145.86 116.67 145.74 117.28 145.5C117.867 145.271 118.4 144.921 118.845 144.473C119.289 144.025 119.635 143.489 119.86 142.9V142.89ZM118.57 139.19C118.74 139.68 118.82 140.23 118.82 140.84C118.82 141.46 118.74 142.01 118.57 142.5C118.437 142.951 118.204 143.366 117.886 143.712C117.569 144.059 117.177 144.328 116.74 144.5C116.271 144.681 115.772 144.769 115.27 144.76H112.88V136.92H115.27C115.81 136.92 116.3 137.02 116.74 137.19C117.175 137.364 117.566 137.635 117.883 137.981C118.2 138.327 118.435 138.741 118.57 139.19Z" fill="#92999E" fill-opacity="0.7"/>
<mask id="mask0_2220_3643" style="mask-type:luminance" maskUnits="userSpaceOnUse" x="79" y="155" width="10" height="11">
<path d="M79 155.86H89V165.86H79V155.86Z" fill="white"/>
</mask>
<g mask="url(#mask0_2220_3643)">
<path d="M87.4196 161.19C87.51 161.261 87.6233 161.297 87.7381 161.29C87.8529 161.283 87.9613 161.234 88.0426 161.153C88.1239 161.072 88.1726 160.963 88.1794 160.849C88.1862 160.734 88.1507 160.621 88.0796 160.53L84.3296 156.78C84.2424 156.692 84.1238 156.641 83.9996 156.64C83.938 156.64 83.8771 156.653 83.8204 156.677C83.7637 156.701 83.7124 156.736 83.6696 156.78L79.9196 160.53C79.8674 160.571 79.8245 160.623 79.7937 160.682C79.763 160.741 79.745 160.805 79.7411 160.872C79.7371 160.938 79.7473 161.004 79.7709 161.066C79.7945 161.128 79.8309 161.185 79.8779 161.232C79.9249 161.279 79.9813 161.315 80.0433 161.339C80.1054 161.362 80.1718 161.373 80.2381 161.369C80.3044 161.365 80.3691 161.347 80.428 161.316C80.4869 161.285 80.5385 161.242 80.5796 161.19L83.5296 158.24V164.61C83.5296 164.735 83.5791 164.854 83.6673 164.942C83.7554 165.031 83.875 165.08 83.9996 165.08C84.1243 165.08 84.2438 165.031 84.3319 164.942C84.4201 164.854 84.4696 164.735 84.4696 164.61V158.24L87.4196 161.19Z" fill="#92999E" fill-opacity="0.7"/>
</g>
<path d="M116.52 159.38C116.526 159.861 116.347 160.327 116.02 160.68C115.866 160.836 115.682 160.958 115.479 161.041C115.276 161.123 115.059 161.164 114.84 161.16C114.619 161.167 114.4 161.127 114.195 161.045C113.99 160.962 113.805 160.838 113.65 160.68C113.498 160.518 113.379 160.328 113.3 160.12C113.215 159.883 113.174 159.632 113.18 159.38C113.18 159.1 113.22 158.84 113.3 158.62C113.368 158.408 113.483 158.214 113.635 158.052C113.787 157.889 113.973 157.762 114.18 157.68C114.38 157.59 114.6 157.55 114.84 157.55C115.063 157.549 115.285 157.593 115.491 157.679C115.697 157.764 115.884 157.891 116.04 158.05C116.19 158.2 116.31 158.39 116.39 158.62C116.47 158.84 116.52 159.1 116.52 159.38ZM115.57 159.38C115.57 159.18 115.55 159.02 115.51 158.89C115.478 158.777 115.424 158.671 115.35 158.58C115.291 158.503 115.211 158.444 115.12 158.41C115.032 158.371 114.937 158.351 114.84 158.35C114.744 158.351 114.648 158.371 114.56 158.41C114.473 158.446 114.397 158.504 114.34 158.58C114.271 158.673 114.221 158.778 114.19 158.89C114.15 159.02 114.14 159.19 114.14 159.38C114.14 159.56 114.15 159.72 114.19 159.85C114.221 159.959 114.272 160.06 114.34 160.15C114.4 160.22 114.47 160.28 114.56 160.31C114.65 160.34 114.74 160.36 114.84 160.36C114.94 160.36 115.04 160.34 115.12 160.31C115.21 160.278 115.289 160.223 115.35 160.15C115.424 160.062 115.478 159.96 115.51 159.85C115.55 159.72 115.57 159.56 115.57 159.38ZM118.92 157.82C118.96 157.77 119.02 157.72 119.07 157.69C119.146 157.646 119.233 157.625 119.32 157.63H120.22L114.85 164.67L114.7 164.81C114.632 164.845 114.556 164.862 114.48 164.86H113.56L118.92 157.82ZM120.6 163.16C120.606 163.641 120.427 164.107 120.1 164.46C119.788 164.767 119.368 164.94 118.93 164.94C118.708 164.948 118.486 164.909 118.279 164.827C118.073 164.744 117.886 164.619 117.73 164.46C117.581 164.297 117.466 164.107 117.39 163.9C117.302 163.663 117.258 163.413 117.26 163.16C117.26 162.88 117.3 162.62 117.39 162.4C117.46 162.19 117.575 161.998 117.727 161.837C117.879 161.676 118.064 161.551 118.27 161.47C118.58 161.335 118.924 161.296 119.256 161.361C119.588 161.425 119.893 161.589 120.13 161.83C120.441 162.203 120.608 162.675 120.6 163.16ZM119.65 163.16C119.65 162.96 119.63 162.8 119.59 162.67C119.561 162.558 119.51 162.452 119.44 162.36C119.381 162.283 119.301 162.224 119.21 162.19C119.122 162.151 119.027 162.131 118.93 162.13C118.834 162.131 118.738 162.151 118.65 162.19C118.559 162.224 118.479 162.283 118.42 162.36C118.35 162.452 118.299 162.558 118.27 162.67C118.201 162.986 118.201 163.314 118.27 163.63C118.31 163.75 118.36 163.85 118.42 163.93C118.48 164.01 118.56 164.06 118.65 164.1C118.83 164.169 119.03 164.169 119.21 164.1C119.301 164.066 119.38 164.007 119.44 163.93C119.51 163.842 119.562 163.739 119.59 163.63C119.63 163.5 119.65 163.34 119.65 163.16ZM108.64 159.8C108.64 160.2 108.74 160.5 108.95 160.72C109.16 160.93 109.45 161.04 109.84 161.04C110.04 161.04 110.22 161 110.37 160.94C110.518 160.886 110.653 160.8 110.764 160.687C110.874 160.575 110.958 160.439 111.01 160.29C111.133 159.965 111.133 159.606 111.01 159.28C110.955 159.132 110.868 158.999 110.756 158.888C110.644 158.778 110.509 158.693 110.36 158.64C110.2 158.583 110.03 158.556 109.86 158.56C109.67 158.56 109.5 158.59 109.36 158.66C109.214 158.715 109.082 158.801 108.971 158.911C108.861 159.022 108.775 159.154 108.72 159.3C108.663 159.46 108.636 159.63 108.64 159.8ZM110.28 162.05C110.385 161.921 110.486 161.787 110.58 161.65C110.232 161.873 109.823 161.984 109.41 161.97C109.16 161.97 108.91 161.93 108.67 161.84C108.424 161.753 108.2 161.615 108.01 161.436C107.821 161.257 107.671 161.041 107.57 160.8C107.456 160.514 107.402 160.208 107.41 159.9C107.404 159.433 107.541 158.975 107.802 158.587C108.062 158.2 108.435 157.901 108.87 157.73C109.17 157.61 109.51 157.55 109.87 157.55C110.25 157.55 110.57 157.6 110.87 157.72C111.152 157.83 111.407 157.998 111.619 158.213C111.831 158.429 111.995 158.687 112.1 158.97C112.22 159.26 112.28 159.58 112.28 159.93C112.286 160.347 112.211 160.761 112.06 161.15C111.915 161.532 111.713 161.889 111.46 162.21L109.81 164.57C109.744 164.656 109.659 164.725 109.56 164.77C109.438 164.829 109.305 164.86 109.17 164.86H108.03L110.28 162.06V162.05ZM106.74 161.24C106.74 161.87 106.67 162.42 106.54 162.89C106.427 163.307 106.233 163.698 105.97 164.04C105.74 164.34 105.46 164.57 105.13 164.72C104.8 164.869 104.442 164.944 104.08 164.94C103.718 164.949 103.359 164.872 103.032 164.715C102.706 164.559 102.42 164.328 102.2 164.04C101.96 163.74 101.77 163.34 101.64 162.89C101.498 162.352 101.43 161.797 101.44 161.24C101.431 160.687 101.498 160.135 101.64 159.6C101.77 159.13 101.96 158.75 102.19 158.45C102.43 158.15 102.71 157.92 103.03 157.77C103.35 157.62 103.7 157.55 104.08 157.55C104.46 157.55 104.81 157.62 105.13 157.77C105.46 157.92 105.73 158.14 105.97 158.45C106.21 158.75 106.4 159.13 106.53 159.6C106.67 160.06 106.73 160.6 106.73 161.24H106.74ZM105.46 161.24C105.46 160.72 105.43 160.28 105.35 159.94C105.295 159.651 105.19 159.374 105.04 159.12C104.944 158.95 104.805 158.81 104.636 158.713C104.467 158.616 104.275 158.567 104.08 158.57C103.887 158.571 103.698 158.622 103.532 158.718C103.365 158.815 103.226 158.953 103.13 159.12C103 159.32 102.9 159.6 102.83 159.94C102.746 160.368 102.706 160.804 102.71 161.24C102.71 161.76 102.75 162.2 102.82 162.54C102.9 162.88 103 163.16 103.12 163.36C103.26 163.56 103.4 163.71 103.56 163.79C103.722 163.87 103.9 163.911 104.08 163.911C104.26 163.911 104.438 163.87 104.6 163.79C104.77 163.71 104.91 163.56 105.04 163.36C105.17 163.16 105.27 162.88 105.34 162.54C105.43 162.2 105.46 161.76 105.46 161.24ZM99.25 164.18C99.25 164.08 99.26 163.98 99.3 163.88C99.3577 163.742 99.4551 163.625 99.5798 163.543C99.7045 163.461 99.8508 163.418 100 163.42C100.126 163.42 100.25 163.451 100.361 163.51C100.472 163.57 100.567 163.656 100.636 163.761C100.705 163.866 100.748 163.987 100.759 164.113C100.77 164.238 100.75 164.364 100.7 164.48C100.624 164.658 100.48 164.798 100.3 164.87C100.205 164.911 100.103 164.933 100 164.933C99.8968 164.933 99.7947 164.911 99.7 164.87C99.6098 164.834 99.5281 164.779 99.46 164.71C99.3933 164.644 99.3391 164.566 99.3 164.48C99.2646 164.384 99.2476 164.282 99.25 164.18ZM95.63 160.25L95.38 160.56C95.6823 160.414 96.0142 160.338 96.35 160.34C96.62 160.34 96.89 160.39 97.15 160.48C97.4094 160.567 97.6472 160.708 97.8474 160.894C98.0475 161.08 98.2053 161.308 98.31 161.56C98.43 161.83 98.49 162.15 98.49 162.51C98.4914 163.153 98.24 163.771 97.79 164.23C97.2835 164.689 96.6237 164.942 95.94 164.94C95.54 164.94 95.2 164.87 94.89 164.75C94.59 164.63 94.32 164.45 94.11 164.24C93.8899 164.011 93.7196 163.738 93.61 163.44C93.3727 162.762 93.3833 162.021 93.64 161.35C93.78 160.99 94 160.62 94.29 160.23L96.01 157.92C96.0802 157.834 96.1691 157.766 96.27 157.72C96.3938 157.656 96.5308 157.622 96.67 157.62H97.77L95.63 160.25ZM95.91 163.93C96.11 163.93 96.28 163.89 96.45 163.83C96.6926 163.731 96.899 163.56 97.0419 163.34C97.1849 163.12 97.2575 162.862 97.25 162.6C97.25 162.39 97.22 162.2 97.15 162.04C97.0937 161.884 97.0035 161.742 96.886 161.624C96.7684 161.507 96.6264 161.416 96.47 161.36C96.1215 161.231 95.7386 161.231 95.39 161.36C95.23 161.43 95.09 161.53 94.99 161.65C94.87 161.76 94.78 161.9 94.72 162.07C94.65 162.23 94.62 162.4 94.62 162.59C94.62 162.79 94.65 162.97 94.7 163.14C94.76 163.3 94.84 163.44 94.95 163.56C95.05 163.67 95.19 163.76 95.35 163.83C95.51 163.89 95.7 163.93 95.91 163.93Z" fill="#92999E" fill-opacity="0.7"/>
<path d="M128 161.86C128.552 161.86 129 161.412 129 160.86C129 160.308 128.552 159.86 128 159.86C127.448 159.86 127 160.308 127 160.86C127 161.412 127.448 161.86 128 161.86Z" fill="#071722" fill-opacity="0.14"/>
<path d="M238.47 162.27V159.32C238.469 159.119 238.483 158.919 238.51 158.72L235.91 162.27H238.47ZM240.34 162.27V162.78C240.342 162.831 240.324 162.881 240.29 162.92C240.26 162.95 240.21 162.97 240.14 162.97H239.25V164.86H238.47V162.97H235.29C235.23 162.971 235.17 162.954 235.12 162.92C235.07 162.884 235.035 162.83 235.02 162.77L234.94 162.32L238.42 157.69H239.25V162.27H240.34ZM230.44 159.8C230.431 160.186 230.563 160.563 230.81 160.86C230.93 160.98 231.08 161.07 231.26 161.14C231.657 161.277 232.089 161.27 232.48 161.12C232.827 160.973 233.103 160.697 233.25 160.35C233.384 159.985 233.381 159.583 233.24 159.22C233.177 159.048 233.077 158.892 232.947 158.763C232.818 158.633 232.662 158.534 232.49 158.47C232.307 158.393 232.109 158.355 231.91 158.36C231.69 158.36 231.49 158.39 231.31 158.46C231.136 158.522 230.976 158.622 230.843 158.751C230.711 158.88 230.607 159.037 230.54 159.21C230.47 159.39 230.44 159.59 230.44 159.8ZM232.52 162L232.72 161.73L232.9 161.47C232.599 161.691 232.249 161.835 231.879 161.89C231.509 161.944 231.132 161.906 230.78 161.78C230.54 161.689 230.321 161.55 230.137 161.371C229.953 161.192 229.808 160.978 229.71 160.74C229.598 160.46 229.544 160.161 229.55 159.86C229.548 159.413 229.682 158.976 229.934 158.606C230.185 158.236 230.543 157.952 230.96 157.79C231.26 157.67 231.56 157.61 231.92 157.61C232.26 157.61 232.57 157.67 232.85 157.78C233.119 157.888 233.363 158.05 233.566 158.257C233.769 158.463 233.927 158.709 234.03 158.98C234.277 159.655 234.256 160.4 233.97 161.06C233.9 161.24 233.81 161.41 233.71 161.59L233.36 162.13L231.62 164.65C231.571 164.715 231.505 164.767 231.43 164.8C231.346 164.839 231.253 164.86 231.16 164.86H230.34L232.52 162ZM223.87 159.63C223.92 159.3 224.01 159.02 224.14 158.77C224.393 158.284 224.828 157.917 225.35 157.75C225.902 157.565 226.499 157.565 227.05 157.75C227.29 157.819 227.512 157.939 227.702 158.101C227.892 158.263 228.044 158.464 228.15 158.69C228.25 158.92 228.3 159.17 228.3 159.45C228.3 159.67 228.27 159.88 228.21 160.05C228.098 160.384 227.871 160.667 227.57 160.85C227.42 160.95 227.24 161.03 227.05 161.09C227.52 161.21 227.87 161.42 228.1 161.71C228.34 162.01 228.46 162.36 228.46 162.81C228.465 163.105 228.404 163.398 228.283 163.668C228.162 163.937 227.984 164.177 227.76 164.37C227.54 164.55 227.29 164.69 227 164.79C226.71 164.89 226.4 164.94 226.07 164.94C225.741 164.947 225.414 164.9 225.1 164.8C224.609 164.626 224.201 164.272 223.96 163.81C223.835 163.573 223.731 163.325 223.65 163.07L224.03 162.91C224.13 162.86 224.23 162.85 224.33 162.87C224.43 162.89 224.49 162.95 224.53 163.04L224.69 163.37C224.76 163.5 224.85 163.63 224.97 163.75C225.07 163.87 225.22 163.97 225.4 164.05C225.57 164.13 225.8 164.18 226.06 164.18C226.31 164.18 226.53 164.14 226.72 164.06C227.06 163.914 227.329 163.641 227.47 163.3C227.54 163.14 227.57 162.98 227.57 162.83C227.57 162.63 227.54 162.46 227.5 162.3C227.449 162.136 227.352 161.99 227.22 161.88C227.08 161.76 226.89 161.68 226.65 161.61C226.41 161.54 226.11 161.51 225.74 161.51V160.86C226.04 160.86 226.3 160.82 226.51 160.76C226.73 160.7 226.91 160.61 227.04 160.5C227.174 160.396 227.278 160.258 227.34 160.1C227.4 159.95 227.43 159.78 227.43 159.6C227.43 159.39 227.4 159.2 227.33 159.06C227.272 158.915 227.181 158.786 227.065 158.682C226.949 158.578 226.81 158.502 226.66 158.46C226.424 158.385 226.174 158.366 225.929 158.404C225.685 158.442 225.452 158.537 225.25 158.68C225.005 158.871 224.838 159.145 224.78 159.45C224.74 159.56 224.68 159.65 224.62 159.68C224.55 159.72 224.46 159.73 224.34 159.71L223.87 159.63ZM218.79 164.3C218.79 164.22 218.8 164.14 218.83 164.06C218.862 163.986 218.906 163.919 218.96 163.86C219.019 163.801 219.089 163.754 219.167 163.722C219.244 163.69 219.327 163.674 219.41 163.674C219.494 163.674 219.577 163.69 219.654 163.722C219.731 163.754 219.801 163.801 219.86 163.86C219.919 163.919 219.966 163.989 219.998 164.066C220.03 164.144 220.047 164.226 220.047 164.31C220.047 164.394 220.03 164.476 219.998 164.554C219.966 164.631 219.919 164.701 219.86 164.76C219.803 164.813 219.734 164.854 219.66 164.88C219.582 164.915 219.496 164.934 219.41 164.934C219.324 164.934 219.239 164.915 219.16 164.88C219.086 164.852 219.018 164.81 218.962 164.755C218.905 164.7 218.86 164.633 218.83 164.56C218.801 164.48 218.788 164.395 218.79 164.31V164.3ZM218.79 160.56C218.79 160.46 218.8 160.39 218.83 160.31C218.862 160.236 218.906 160.169 218.96 160.11C219.027 160.048 219.106 160.001 219.192 159.973C219.278 159.944 219.37 159.935 219.46 159.945C219.55 159.955 219.637 159.985 219.715 160.032C219.793 160.079 219.859 160.142 219.911 160.217C219.962 160.292 219.996 160.377 220.011 160.467C220.026 160.557 220.021 160.648 219.997 160.736C219.974 160.824 219.931 160.905 219.873 160.975C219.815 161.045 219.742 161.101 219.66 161.14C219.5 161.205 219.321 161.205 219.16 161.14C219.012 161.076 218.894 160.958 218.83 160.81C218.801 160.73 218.788 160.645 218.79 160.56ZM214.19 160.47C214.4 160.24 214.64 160.05 214.91 159.92C215.17 159.78 215.47 159.72 215.81 159.72C216.09 159.72 216.34 159.76 216.54 159.85C216.76 159.95 216.94 160.07 217.07 160.25C217.22 160.41 217.33 160.61 217.4 160.85C217.47 161.08 217.51 161.35 217.51 161.63V164.86H216.61V161.63C216.61 161.25 216.53 160.95 216.35 160.74C216.18 160.53 215.91 160.42 215.55 160.42C215.29 160.42 215.05 160.48 214.81 160.62C214.59 160.74 214.38 160.91 214.18 161.12V164.86H213.29V157.49H214.19V160.47ZM211.26 164.94C210.86 164.94 210.56 164.82 210.34 164.6C210.12 164.38 210.02 164.06 210.02 163.64V160.54H209.41C209.359 160.542 209.309 160.524 209.27 160.49C209.24 160.46 209.22 160.41 209.22 160.34V160L210.05 159.9L210.25 158.33C210.259 158.283 210.284 158.241 210.32 158.21C210.359 158.176 210.409 158.158 210.46 158.16H210.91V159.9H212.37V160.55H210.91V163.59C210.91 163.79 210.96 163.96 211.06 164.06C211.16 164.16 211.3 164.22 211.46 164.22C211.609 164.224 211.756 164.182 211.88 164.1L212.01 164.02C212.023 164.007 212.039 163.996 212.056 163.989C212.073 163.982 212.092 163.979 212.11 163.98C212.15 163.98 212.19 164 212.23 164.06L212.49 164.49C212.33 164.63 212.15 164.74 211.93 164.83C211.71 164.91 211.49 164.95 211.26 164.95V164.94ZM205.04 160.53C205.254 160.293 205.504 160.09 205.78 159.93C206.07 159.778 206.393 159.703 206.72 159.71C207 159.71 207.24 159.76 207.45 159.85C207.67 159.95 207.85 160.07 207.98 160.25C208.13 160.41 208.24 160.61 208.31 160.85C208.38 161.08 208.41 161.35 208.41 161.63V164.86H207.52V161.63C207.52 161.25 207.43 160.95 207.26 160.74C207.09 160.53 206.82 160.42 206.46 160.42C206.2 160.42 205.96 160.48 205.72 160.62C205.5 160.74 205.29 160.91 205.09 161.12V164.86H204.19V159.79H204.73C204.86 159.79 204.93 159.85 204.97 159.98L205.04 160.53ZM200.66 159.71C201.03 159.71 201.36 159.77 201.66 159.9C201.954 160.019 202.218 160.202 202.432 160.436C202.647 160.669 202.806 160.947 202.9 161.25C203.01 161.57 203.07 161.92 203.07 162.32C203.07 162.72 203.01 163.08 202.9 163.4C202.805 163.701 202.645 163.977 202.43 164.209C202.216 164.441 201.953 164.622 201.66 164.74C201.36 164.87 201.03 164.93 200.66 164.93C200.315 164.935 199.972 164.874 199.65 164.75C199.358 164.629 199.095 164.446 198.881 164.212C198.666 163.979 198.506 163.702 198.41 163.4C198.294 163.052 198.237 162.687 198.24 162.32C198.24 161.92 198.29 161.57 198.4 161.25C198.52 160.92 198.68 160.65 198.89 160.42C199.1 160.19 199.35 160.02 199.65 159.9C199.95 159.77 200.29 159.71 200.66 159.71ZM200.66 164.23C201.16 164.23 201.53 164.06 201.78 163.73C202.03 163.39 202.15 162.93 202.15 162.33C202.15 161.73 202.03 161.25 201.78 160.92C201.53 160.58 201.16 160.42 200.66 160.42C200.41 160.42 200.19 160.45 200 160.54C199.8 160.63 199.65 160.75 199.53 160.92C199.398 161.1 199.303 161.304 199.25 161.52C199.19 161.76 199.15 162.02 199.15 162.32C199.15 162.92 199.28 163.39 199.53 163.73C199.78 164.06 200.15 164.23 200.66 164.23ZM190.3 164.86V159.79H190.84C190.96 159.79 191.04 159.85 191.07 159.98L191.14 160.5C191.32 160.27 191.54 160.08 191.77 159.93C192 159.78 192.27 159.71 192.57 159.71C192.92 159.71 193.19 159.81 193.4 160C193.62 160.19 193.77 160.44 193.86 160.77C193.955 160.525 194.108 160.307 194.304 160.133C194.501 159.959 194.736 159.835 194.99 159.77C195.388 159.674 195.806 159.698 196.19 159.84C196.4 159.92 196.58 160.04 196.72 160.21C196.87 160.37 196.98 160.58 197.06 160.81C197.13 161.05 197.17 161.32 197.17 161.63V164.86H196.27V161.63C196.27 161.23 196.19 160.93 196.02 160.73C195.925 160.628 195.808 160.549 195.678 160.497C195.549 160.445 195.41 160.422 195.27 160.43C195.12 160.43 194.98 160.45 194.85 160.5C194.718 160.551 194.599 160.629 194.5 160.73C194.4 160.83 194.32 160.95 194.26 161.11C194.21 161.26 194.18 161.43 194.18 161.63V164.86H193.28V161.63C193.28 161.23 193.2 160.93 193.04 160.73C192.87 160.53 192.64 160.43 192.32 160.43C192.1 160.43 191.9 160.48 191.72 160.6C191.52 160.72 191.35 160.88 191.2 161.08V164.86H190.3ZM186.37 160.63C186.351 160.663 186.323 160.69 186.29 160.708C186.256 160.725 186.218 160.733 186.18 160.73C186.12 160.728 186.062 160.711 186.01 160.68C185.833 160.579 185.646 160.498 185.45 160.44C185.173 160.358 184.878 160.358 184.6 160.44C184.489 160.471 184.384 160.522 184.29 160.59C184.208 160.649 184.142 160.728 184.097 160.818C184.051 160.909 184.029 161.009 184.03 161.11C184.03 161.24 184.06 161.35 184.13 161.44C184.216 161.531 184.317 161.606 184.43 161.66C184.56 161.72 184.7 161.78 184.86 161.83C185.185 161.929 185.506 162.042 185.82 162.17C185.98 162.23 186.12 162.32 186.24 162.42C186.373 162.527 186.479 162.662 186.55 162.817C186.621 162.971 186.655 163.14 186.65 163.31C186.65 163.54 186.61 163.76 186.53 163.96C186.44 164.16 186.33 164.32 186.16 164.47C185.984 164.621 185.78 164.736 185.56 164.81C185.32 164.89 185.05 164.94 184.74 164.94C184.119 164.951 183.517 164.73 183.05 164.32L183.25 163.98C183.276 163.94 183.31 163.905 183.35 163.88C183.393 163.857 183.442 163.847 183.49 163.85C183.55 163.85 183.62 163.87 183.69 163.92L183.92 164.07C184.02 164.13 184.14 164.17 184.27 164.23C184.587 164.319 184.923 164.319 185.24 164.23C185.358 164.193 185.467 164.131 185.56 164.05C185.64 163.976 185.703 163.886 185.746 163.786C185.789 163.686 185.811 163.579 185.81 163.47C185.821 163.345 185.785 163.22 185.71 163.12C185.629 163.019 185.527 162.937 185.41 162.88C185.273 162.808 185.129 162.751 184.98 162.71L184.5 162.56C184.334 162.507 184.171 162.447 184.01 162.38C183.86 162.31 183.71 162.22 183.59 162.12C183.47 162.02 183.37 161.89 183.29 161.74C183.215 161.563 183.181 161.372 183.19 161.18C183.188 160.987 183.228 160.795 183.308 160.619C183.387 160.443 183.504 160.286 183.65 160.16C183.81 160.02 183.99 159.91 184.22 159.83C184.44 159.75 184.7 159.71 184.98 159.71C185.566 159.706 186.133 159.919 186.57 160.31L186.37 160.63ZM182 159.8V164.86H181.48C181.35 164.86 181.27 164.79 181.24 164.67L181.17 164.13C180.95 164.37 180.7 164.57 180.43 164.72C180.171 164.848 179.888 164.922 179.599 164.936C179.309 164.949 179.021 164.903 178.75 164.8C178.55 164.7 178.36 164.58 178.22 164.41C178.074 164.234 177.965 164.03 177.9 163.81C177.829 163.553 177.796 163.287 177.8 163.02V159.79H178.68V163.02C178.68 163.4 178.77 163.7 178.94 163.92C179.12 164.12 179.39 164.22 179.74 164.22C180.01 164.22 180.25 164.16 180.48 164.04C180.71 163.91 180.92 163.74 181.12 163.52V159.79H182.01L182 159.8ZM174.3 159.71C174.67 159.71 175 159.77 175.3 159.9C175.594 160.018 175.858 160.201 176.073 160.435C176.287 160.668 176.447 160.947 176.54 161.25C176.66 161.57 176.71 161.92 176.71 162.32C176.71 162.72 176.66 163.08 176.54 163.4C176.446 163.701 176.286 163.978 176.071 164.21C175.857 164.441 175.593 164.623 175.3 164.74C175 164.87 174.67 164.93 174.3 164.93C173.959 164.934 173.619 164.873 173.3 164.75C173.005 164.632 172.739 164.45 172.523 164.216C172.307 163.983 172.145 163.704 172.05 163.4C171.934 163.052 171.877 162.687 171.88 162.32C171.88 161.92 171.94 161.57 172.05 161.25C172.145 160.946 172.307 160.667 172.523 160.434C172.739 160.2 173.005 160.018 173.3 159.9C173.6 159.77 173.93 159.71 174.3 159.71ZM174.3 164.23C174.8 164.23 175.18 164.06 175.42 163.73C175.67 163.39 175.79 162.93 175.79 162.33C175.79 161.73 175.67 161.25 175.42 160.92C175.18 160.58 174.8 160.42 174.3 160.42C174.05 160.42 173.83 160.45 173.64 160.54C173.45 160.63 173.29 160.75 173.17 160.92C173.04 161.08 172.95 161.28 172.89 161.52C172.83 161.76 172.79 162.02 172.79 162.32C172.79 162.92 172.92 163.39 173.17 163.73C173.42 164.06 173.8 164.23 174.3 164.23ZM170.7 159.8V164.86H169.82V159.79H170.71L170.7 159.8ZM170.9 158.2C170.89 158.366 170.819 158.523 170.7 158.64C170.643 158.699 170.576 158.747 170.5 158.78C170.386 158.832 170.258 158.847 170.135 158.824C170.011 158.801 169.898 158.74 169.81 158.65C169.72 158.562 169.659 158.449 169.636 158.326C169.613 158.202 169.628 158.074 169.68 157.96C169.71 157.886 169.754 157.818 169.81 157.76C169.862 157.693 169.931 157.641 170.01 157.61C170.087 157.576 170.171 157.559 170.255 157.559C170.34 157.559 170.423 157.576 170.5 157.61C170.57 157.64 170.64 157.69 170.7 157.75C170.76 157.81 170.8 157.88 170.84 157.95C170.88 158.03 170.9 158.11 170.9 158.2ZM168.95 159.8L166.88 164.86H166.08L164.02 159.79H164.74C164.82 159.79 164.88 159.81 164.92 159.85C164.97 159.88 165 159.93 165.02 159.98L166.3 163.24C166.381 163.469 166.448 163.703 166.5 163.94C166.556 163.705 166.619 163.471 166.69 163.24L167.99 159.98C168.01 159.92 168.04 159.88 168.09 159.85C168.13 159.81 168.19 159.79 168.25 159.79H168.95V159.8ZM162.82 161.77C162.82 161.57 162.79 161.37 162.73 161.21C162.679 161.047 162.594 160.896 162.48 160.769C162.366 160.641 162.227 160.539 162.07 160.47C161.91 160.4 161.73 160.37 161.53 160.37C161.1 160.37 160.76 160.49 160.51 160.74C160.27 160.99 160.11 161.34 160.05 161.77H162.82ZM163.54 164.15C163.44 164.28 163.3 164.4 163.14 164.5C162.661 164.79 162.11 164.939 161.55 164.93C161.21 164.93 160.88 164.87 160.59 164.75C160.29 164.63 160.021 164.445 159.801 164.208C159.581 163.971 159.417 163.688 159.32 163.38C159.085 162.684 159.078 161.93 159.3 161.23C159.41 160.93 159.57 160.66 159.77 160.43C160.099 160.095 160.518 159.863 160.976 159.762C161.434 159.661 161.911 159.695 162.35 159.86C162.605 159.964 162.835 160.12 163.026 160.318C163.218 160.516 163.365 160.752 163.46 161.01C163.56 161.3 163.62 161.61 163.62 161.98C163.62 162.12 163.61 162.21 163.58 162.26C163.55 162.3 163.49 162.33 163.41 162.33H160.02C160.03 162.65 160.08 162.93 160.15 163.16C160.23 163.4 160.35 163.6 160.48 163.76C160.62 163.91 160.78 164.03 160.98 164.11C161.246 164.21 161.531 164.25 161.815 164.227C162.098 164.205 162.373 164.12 162.62 163.98L162.92 163.82C162.978 163.776 163.047 163.748 163.12 163.74C163.153 163.738 163.186 163.745 163.215 163.759C163.245 163.773 163.271 163.794 163.29 163.82L163.54 164.15ZM156.84 160.8C157 160.46 157.2 160.19 157.43 160C157.66 159.8 157.95 159.7 158.28 159.7C158.39 159.7 158.49 159.71 158.59 159.74C158.69 159.76 158.78 159.8 158.85 159.84L158.79 160.51C158.77 160.59 158.72 160.64 158.64 160.64L158.44 160.61C158.194 160.557 157.939 160.571 157.7 160.65C157.578 160.693 157.465 160.761 157.37 160.85C157.27 160.95 157.18 161.05 157.1 161.2C157.017 161.347 156.947 161.501 156.89 161.66V164.86H155.99V159.79H156.5C156.6 159.79 156.67 159.81 156.7 159.85C156.74 159.88 156.77 159.95 156.78 160.04L156.84 160.81V160.8ZM151.28 163.64C151.413 163.831 151.591 163.986 151.799 164.091C152.007 164.195 152.238 164.247 152.47 164.24C152.94 164.24 153.31 164.07 153.56 163.74C153.81 163.39 153.94 162.91 153.94 162.29C153.94 161.96 153.91 161.68 153.85 161.44C153.806 161.232 153.721 161.035 153.6 160.86C153.499 160.716 153.361 160.602 153.2 160.53C153.04 160.46 152.85 160.43 152.65 160.43C152.36 160.43 152.1 160.49 151.88 160.63C151.647 160.777 151.443 160.967 151.28 161.19V163.64ZM151.24 160.58C151.45 160.31 151.7 160.1 151.98 159.94C152.26 159.78 152.58 159.7 152.94 159.7C153.21 159.691 153.479 159.747 153.722 159.864C153.966 159.98 154.178 160.154 154.34 160.37C154.51 160.58 154.64 160.85 154.72 161.17C154.908 161.882 154.905 162.63 154.71 163.34C154.61 163.66 154.46 163.94 154.27 164.17C154.08 164.411 153.836 164.605 153.559 164.737C153.281 164.869 152.977 164.935 152.67 164.93C152.395 164.935 152.122 164.881 151.87 164.77C151.647 164.663 151.446 164.514 151.28 164.33V166.57H150.39V159.79H150.93C151.05 159.79 151.13 159.85 151.16 159.98L151.24 160.58ZM145.32 164.3C145.32 164.22 145.33 164.14 145.36 164.06C145.392 163.986 145.436 163.919 145.49 163.86C145.61 163.741 145.771 163.674 145.94 163.674C146.109 163.674 146.271 163.741 146.39 163.86C146.51 163.979 146.577 164.141 146.577 164.31C146.577 164.479 146.51 164.641 146.39 164.76C146.333 164.813 146.264 164.854 146.19 164.88C146.112 164.915 146.026 164.934 145.94 164.934C145.854 164.934 145.769 164.915 145.69 164.88C145.616 164.852 145.548 164.81 145.492 164.755C145.435 164.7 145.39 164.633 145.36 164.56C145.331 164.48 145.318 164.395 145.32 164.31V164.3ZM144.1 160.63C144.081 160.665 144.051 160.693 144.016 160.711C143.98 160.728 143.94 160.735 143.9 160.73C143.844 160.727 143.789 160.71 143.74 160.68C143.563 160.58 143.375 160.499 143.18 160.44C142.9 160.356 142.601 160.356 142.32 160.44C142.212 160.472 142.111 160.523 142.02 160.59C141.938 160.649 141.872 160.728 141.827 160.818C141.781 160.909 141.759 161.009 141.76 161.11C141.76 161.24 141.79 161.35 141.86 161.44C141.946 161.531 142.047 161.606 142.16 161.66L142.58 161.83C142.909 161.928 143.232 162.042 143.55 162.17C143.7 162.23 143.85 162.32 143.97 162.42C144.101 162.528 144.205 162.664 144.274 162.818C144.344 162.973 144.377 163.141 144.37 163.31C144.37 163.54 144.34 163.76 144.25 163.96C144.17 164.16 144.05 164.32 143.88 164.47C143.704 164.621 143.5 164.736 143.28 164.81C143.04 164.89 142.78 164.94 142.46 164.94C141.839 164.953 141.236 164.732 140.77 164.32L140.98 163.98C141.005 163.939 141.039 163.905 141.08 163.88C141.123 163.857 141.172 163.847 141.22 163.85C141.28 163.85 141.34 163.87 141.41 163.92C141.47 163.96 141.55 164.02 141.65 164.07C141.75 164.13 141.86 164.17 142 164.23C142.314 164.321 142.647 164.321 142.96 164.23C143.081 164.191 143.193 164.13 143.29 164.05C143.369 163.975 143.432 163.885 143.475 163.786C143.518 163.686 143.54 163.579 143.54 163.47C143.548 163.344 143.509 163.219 143.43 163.12C143.349 163.019 143.247 162.937 143.13 162.88C142.997 162.809 142.856 162.752 142.71 162.71L142.22 162.56C142.058 162.507 141.898 162.446 141.74 162.38C141.58 162.31 141.44 162.22 141.32 162.12C141.19 162.02 141.09 161.89 141.02 161.74C140.942 161.564 140.904 161.373 140.91 161.18C140.909 160.986 140.951 160.794 141.032 160.618C141.113 160.442 141.232 160.285 141.38 160.16C141.53 160.02 141.72 159.91 141.94 159.83C142.16 159.75 142.42 159.71 142.71 159.71C143.293 159.708 143.856 159.922 144.29 160.31L144.09 160.63H144.1ZM140.42 159.8L138.36 164.86H137.56L135.49 159.79H136.22C136.29 159.79 136.35 159.81 136.4 159.85C136.44 159.88 136.48 159.93 136.5 159.98L137.78 163.24C137.858 163.469 137.921 163.703 137.97 163.94C138.031 163.705 138.098 163.472 138.17 163.24L139.47 159.98C139.48 159.92 139.52 159.88 139.57 159.85C139.61 159.81 139.67 159.79 139.73 159.79H140.43L140.42 159.8Z" fill="#92999E" fill-opacity="0.7"/>
<defs>
<linearGradient id="paint0_linear_2220_3643" x1="99.1503" y1="32.93" x2="99.1503" y2="113.96" gradientUnits="userSpaceOnUse">
<stop stop-color="#B7BCBF" stop-opacity="0.7"/>
<stop offset="1" stop-color="#B7BCBF"/>
</linearGradient>
</defs>
</svg>
