<svg xmlns="http://www.w3.org/2000/svg" width="320" height="200" fill="none"><g clip-path="url(#a)"><path fill="url(#b)" fill-opacity=".15" d="M161 0h79v99h-79z"/><path fill="#f3f3f4" d="M241 0h71a8 8 0 0 1 8 8v41h-79z"/><path fill="url(#c)" fill-opacity=".05" d="M241 0h71a8 8 0 0 1 8 8v41h-79z"/><path fill="#f3f3f4" d="M241 50h79v49h-79zM161 100h118v100H161z"/><path fill="url(#d)" fill-opacity=".05" d="M161 100h118v100H161z"/><path fill="url(#e)" fill-opacity=".15" d="M280 100h40v92a8 8 0 0 1-8 8h-32z"/><path fill="#f3f3f4" d="M0 8a8 8 0 0 1 8-8h152v200H8a8 8 0 0 1-8-8z"/></g><defs><linearGradient id="b" x1="200.5" x2="200.5" y1="3.328" y2="99" gradientUnits="userSpaceOnUse"><stop stop-color="#2f3c45"/><stop offset="1" stop-color="#2f3c45"/></linearGradient><linearGradient id="c" x1="280.5" x2="280.5" y1="1.647" y2="49" gradientUnits="userSpaceOnUse"><stop stop-color="#2f3c45" stop-opacity=".5"/><stop offset="1" stop-color="#2f3c45"/></linearGradient><linearGradient id="d" x1="220" x2="220" y1="103.361" y2="200" gradientUnits="userSpaceOnUse"><stop stop-color="#2f3c45" stop-opacity=".5"/><stop offset="1" stop-color="#2f3c45"/></linearGradient><linearGradient id="e" x1="300" x2="300" y1="103.361" y2="200" gradientUnits="userSpaceOnUse"><stop stop-color="#2f3c45"/><stop offset="1" stop-color="#2f3c45"/></linearGradient><clipPath id="a"><path fill="#fff" d="M0 0h320v200H0z"/></clipPath></defs></svg>