<svg width="320" height="200" viewBox="0 0 320 200" fill="none" xmlns="http://www.w3.org/2000/svg">
<g clip-path="url(#clip0_2220_3654)">
<mask id="mask0_2220_3654" style="mask-type:luminance" maskUnits="userSpaceOnUse" x="0" y="0" width="320" height="200">
<path d="M0 0H320V200H0V0Z" fill="white"/>
</mask>
<g mask="url(#mask0_2220_3654)">
<path fill-rule="evenodd" clip-rule="evenodd" d="M210 7H258V89H210V7ZM202 48H154V128H202V48ZM42 88H90V167H42V88ZM98 88H146V128H98V88ZM314 65H266V167H314V65Z" fill="url(#paint0_linear_2220_3654)" fill-opacity="0.4"/>
<path fill-rule="evenodd" clip-rule="evenodd" d="M258 7H210V89H258V7ZM146 88H98V128H146V88Z" fill="#AFAFAF" fill-opacity="0.5"/>
<mask id="mask1_2220_3654" style="mask-type:luminance" maskUnits="userSpaceOnUse" x="33" y="127" width="322" height="1">
<path d="M33 127H355V128H33V127Z" fill="white"/>
</mask>
<g mask="url(#mask1_2220_3654)">
<path fill-rule="evenodd" clip-rule="evenodd" d="M34 128V127H33V128H34ZM130 128V127H129V128H130ZM226 127V128H225V127H226ZM37 128V127H36V128H37ZM133 127V128H132V127H133ZM229 128V127H228V128H229ZM40 127V128H39V127H40ZM136 128V127H135V128H136ZM232 127V128H231V127H232ZM43 128V127H42V128H43ZM139 127V128H138V127H139ZM235 128V127H234V128H235ZM46 127V128H45V127H46ZM142 128V127H141V128H142ZM238 127V128H237V127H238ZM49 128V127H48V128H49ZM145 127V128H144V127H145ZM241 128V127H240V128H241ZM52 127V128H51V127H52ZM148 128V127H147V128H148ZM244 127V128H243V127H244ZM55 128V127H54V128H55ZM151 127V128H150V127H151ZM247 128V127H246V128H247ZM58 127V128H57V127H58ZM154 128V127H153V128H154ZM250 127V128H249V127H250ZM61 128V127H60V128H61ZM157 127V128H156V127H157ZM253 128V127H252V128H253ZM64 127V128H63V127H64ZM160 128V127H159V128H160ZM256 127V128H255V127H256ZM67 128V127H66V128H67ZM163 127V128H162V127H163ZM259 128V127H258V128H259ZM70 127V128H69V127H70ZM166 128V127H165V128H166ZM262 127V128H261V127H262ZM73 128V127H72V128H73ZM169 127V128H168V127H169ZM265 128V127H264V128H265ZM76 127V128H75V127H76ZM172 128V127H171V128H172ZM268 127V128H267V127H268ZM79 128V127H78V128H79ZM175 127V128H174V127H175ZM271 128V127H270V128H271ZM82 127V128H81V127H82ZM178 128V127H177V128H178ZM274 127V128H273V127H274ZM85 128V127H84V128H85ZM181 127V128H180V127H181ZM277 128V127H276V128H277ZM88 127V128H87V127H88ZM184 128V127H183V128H184ZM280 127V128H279V127H280ZM91 128V127H90V128H91ZM187 127V128H186V127H187ZM283 128V127H282V128H283ZM322 127V128H321V127H322ZM94 128V127H93V128H94ZM190 127V128H189V127H190ZM286 128V127H285V128H286ZM325 127V128H324V127H325ZM97 128V127H96V128H97ZM193 127V128H192V127H193ZM289 128V127H288V128H289ZM328 127V128H327V127H328ZM100 128V127H99V128H100ZM196 127V128H195V127H196ZM292 128V127H291V128H292ZM331 127V128H330V127H331ZM103 128V127H102V128H103ZM199 127V128H198V127H199ZM295 128V127H294V128H295ZM334 127V128H333V127H334ZM106 128V127H105V128H106ZM202 127V128H201V127H202ZM298 128V127H297V128H298ZM337 127V128H336V127H337ZM109 128V127H108V128H109ZM205 127V128H204V127H205ZM301 128V127H300V128H301ZM340 127V128H339V127H340ZM112 128V127H111V128H112ZM208 127V128H207V127H208ZM304 128V127H303V128H304ZM343 127V128H342V127H343ZM115 128V127H114V128H115ZM211 127V128H210V127H211ZM307 128V127H306V128H307ZM346 127V128H345V127H346ZM118 128V127H117V128H118ZM214 127V128H213V127H214ZM310 128V127H309V128H310ZM349 127V128H348V127H349ZM121 128V127H120V128H121ZM217 127V128H216V127H217ZM313 128V127H312V128H313ZM352 127V128H351V127H352ZM124 128V127H123V128H124ZM220 127V128H219V127H220ZM316 128V127H315V128H316ZM355 127V128H354V127H355ZM127 128V127H126V128H127ZM223 127V128H222V127H223ZM319 128V127H318V128H319Z" fill="#A6ADB0" fill-opacity="0.4"/>
</g>
<mask id="mask2_2220_3654" style="mask-type:luminance" maskUnits="userSpaceOnUse" x="33" y="88" width="322" height="1">
<path d="M33 88H355V89H33V88Z" fill="white"/>
</mask>
<g mask="url(#mask2_2220_3654)">
<path fill-rule="evenodd" clip-rule="evenodd" d="M34 89V88H33V89H34ZM130 89V88H129V89H130ZM226 88V89H225V88H226ZM37 89V88H36V89H37ZM133 88V89H132V88H133ZM229 89V88H228V89H229ZM40 88V89H39V88H40ZM136 89V88H135V89H136ZM232 88V89H231V88H232ZM43 89V88H42V89H43ZM139 88V89H138V88H139ZM235 89V88H234V89H235ZM46 88V89H45V88H46ZM142 89V88H141V89H142ZM238 88V89H237V88H238ZM49 89V88H48V89H49ZM145 88V89H144V88H145ZM241 89V88H240V89H241ZM52 88V89H51V88H52ZM148 89V88H147V89H148ZM244 88V89H243V88H244ZM55 89V88H54V89H55ZM151 88V89H150V88H151ZM247 89V88H246V89H247ZM58 88V89H57V88H58ZM154 89V88H153V89H154ZM250 88V89H249V88H250ZM61 89V88H60V89H61ZM157 88V89H156V88H157ZM253 89V88H252V89H253ZM64 88V89H63V88H64ZM160 89V88H159V89H160ZM256 88V89H255V88H256ZM67 89V88H66V89H67ZM163 88V89H162V88H163ZM259 89V88H258V89H259ZM70 88V89H69V88H70ZM166 89V88H165V89H166ZM262 88V89H261V88H262ZM73 89V88H72V89H73ZM169 88V89H168V88H169ZM265 89V88H264V89H265ZM76 88V89H75V88H76ZM172 89V88H171V89H172ZM268 88V89H267V88H268ZM79 89V88H78V89H79ZM175 88V89H174V88H175ZM271 89V88H270V89H271ZM82 88V89H81V88H82ZM178 89V88H177V89H178ZM274 88V89H273V88H274ZM85 89V88H84V89H85ZM181 88V89H180V88H181ZM277 89V88H276V89H277ZM88 88V89H87V88H88ZM184 89V88H183V89H184ZM280 88V89H279V88H280ZM91 89V88H90V89H91ZM187 88V89H186V88H187ZM283 89V88H282V89H283ZM322 88V89H321V88H322ZM94 89V88H93V89H94ZM190 88V89H189V88H190ZM286 89V88H285V89H286ZM325 88V89H324V88H325ZM97 89V88H96V89H97ZM193 88V89H192V88H193ZM289 89V88H288V89H289ZM328 88V89H327V88H328ZM100 89V88H99V89H100ZM196 88V89H195V88H196ZM292 89V88H291V89H292ZM331 88V89H330V88H331ZM103 89V88H102V89H103ZM199 88V89H198V88H199ZM295 89V88H294V89H295ZM334 88V89H333V88H334ZM106 89V88H105V89H106ZM202 88V89H201V88H202ZM298 89V88H297V89H298ZM337 88V89H336V88H337ZM109 89V88H108V89H109ZM205 88V89H204V88H205ZM301 89V88H300V89H301ZM340 88V89H339V88H340ZM112 89V88H111V89H112ZM208 88V89H207V88H208ZM304 89V88H303V89H304ZM343 88V89H342V88H343ZM115 89V88H114V89H115ZM211 88V89H210V88H211ZM307 89V88H306V89H307ZM346 88V89H345V88H346ZM118 89V88H117V89H118ZM214 88V89H213V88H214ZM310 89V88H309V89H310ZM349 88V89H348V88H349ZM121 89V88H120V89H121ZM217 88V89H216V88H217ZM313 89V88H312V89H313ZM352 88V89H351V88H352ZM124 89V88H123V89H124ZM220 88V89H219V88H220ZM316 89V88H315V89H316ZM355 88V89H354V88H355ZM127 89V88H126V89H127ZM223 88V89H222V88H223ZM319 89V88H318V89H319Z" fill="#A6ADB0" fill-opacity="0.4"/>
</g>
<mask id="mask3_2220_3654" style="mask-type:luminance" maskUnits="userSpaceOnUse" x="33" y="48" width="322" height="1">
<path d="M33 48H355V49H33V48Z" fill="white"/>
</mask>
<g mask="url(#mask3_2220_3654)">
<path fill-rule="evenodd" clip-rule="evenodd" d="M34 49V48H33V49H34ZM130 49V48H129V49H130ZM226 48V49H225V48H226ZM37 49V48H36V49H37ZM133 48V49H132V48H133ZM229 49V48H228V49H229ZM40 48V49H39V48H40ZM136 49V48H135V49H136ZM232 48V49H231V48H232ZM43 49V48H42V49H43ZM139 48V49H138V48H139ZM235 49V48H234V49H235ZM46 48V49H45V48H46ZM142 49V48H141V49H142ZM238 48V49H237V48H238ZM49 49V48H48V49H49ZM145 48V49H144V48H145ZM241 49V48H240V49H241ZM52 48V49H51V48H52ZM148 49V48H147V49H148ZM244 48V49H243V48H244ZM55 49V48H54V49H55ZM151 48V49H150V48H151ZM247 49V48H246V49H247ZM58 48V49H57V48H58ZM154 49V48H153V49H154ZM250 48V49H249V48H250ZM61 49V48H60V49H61ZM157 48V49H156V48H157ZM253 49V48H252V49H253ZM64 48V49H63V48H64ZM160 49V48H159V49H160ZM256 48V49H255V48H256ZM67 49V48H66V49H67ZM163 48V49H162V48H163ZM259 49V48H258V49H259ZM70 48V49H69V48H70ZM166 49V48H165V49H166ZM262 48V49H261V48H262ZM73 49V48H72V49H73ZM169 48V49H168V48H169ZM265 49V48H264V49H265ZM76 48V49H75V48H76ZM172 49V48H171V49H172ZM268 48V49H267V48H268ZM79 49V48H78V49H79ZM175 48V49H174V48H175ZM271 49V48H270V49H271ZM82 48V49H81V48H82ZM178 49V48H177V49H178ZM274 48V49H273V48H274ZM85 49V48H84V49H85ZM181 48V49H180V48H181ZM277 49V48H276V49H277ZM88 48V49H87V48H88ZM184 49V48H183V49H184ZM280 48V49H279V48H280ZM91 49V48H90V49H91ZM187 48V49H186V48H187ZM283 49V48H282V49H283ZM322 48V49H321V48H322ZM94 49V48H93V49H94ZM190 48V49H189V48H190ZM286 49V48H285V49H286ZM325 48V49H324V48H325ZM97 49V48H96V49H97ZM193 48V49H192V48H193ZM289 49V48H288V49H289ZM328 48V49H327V48H328ZM100 49V48H99V49H100ZM196 48V49H195V48H196ZM292 49V48H291V49H292ZM331 48V49H330V48H331ZM103 49V48H102V49H103ZM199 48V49H198V48H199ZM295 49V48H294V49H295ZM334 48V49H333V48H334ZM106 49V48H105V49H106ZM202 48V49H201V48H202ZM298 49V48H297V49H298ZM337 48V49H336V48H337ZM109 49V48H108V49H109ZM205 48V49H204V48H205ZM301 49V48H300V49H301ZM340 48V49H339V48H340ZM112 49V48H111V49H112ZM208 48V49H207V48H208ZM304 49V48H303V49H304ZM343 48V49H342V48H343ZM115 49V48H114V49H115ZM211 48V49H210V48H211ZM307 49V48H306V49H307ZM346 48V49H345V48H346ZM118 49V48H117V49H118ZM214 48V49H213V48H214ZM310 49V48H309V49H310ZM349 48V49H348V48H349ZM121 49V48H120V49H121ZM217 48V49H216V48H217ZM313 49V48H312V49H313ZM352 48V49H351V48H352ZM124 49V48H123V49H124ZM220 48V49H219V48H220ZM316 49V48H315V49H316ZM355 48V49H354V48H355ZM127 49V48H126V49H127ZM223 48V49H222V48H223ZM319 49V48H318V49H319Z" fill="#A6ADB0" fill-opacity="0.4"/>
</g>
<mask id="mask4_2220_3654" style="mask-type:luminance" maskUnits="userSpaceOnUse" x="33" y="7" width="322" height="1">
<path d="M33 7H355V8H33V7Z" fill="white"/>
</mask>
<g mask="url(#mask4_2220_3654)">
<path fill-rule="evenodd" clip-rule="evenodd" d="M34 8V7H33V8H34ZM130 8V7H129V8H130ZM226 7V8H225V7H226ZM37 8V7H36V8H37ZM133 7V8H132V7H133ZM229 8V7H228V8H229ZM40 7V8H39V7H40ZM136 8V7H135V8H136ZM232 7V8H231V7H232ZM43 8V7H42V8H43ZM139 7V8H138V7H139ZM235 8V7H234V8H235ZM46 7V8H45V7H46ZM142 8V7H141V8H142ZM238 7V8H237V7H238ZM49 8V7H48V8H49ZM145 7V8H144V7H145ZM241 8V7H240V8H241ZM52 7V8H51V7H52ZM148 8V7H147V8H148ZM244 7V8H243V7H244ZM55 8V7H54V8H55ZM151 7V8H150V7H151ZM247 8V7H246V8H247ZM58 7V8H57V7H58ZM154 8V7H153V8H154ZM250 7V8H249V7H250ZM61 8V7H60V8H61ZM157 7V8H156V7H157ZM253 8V7H252V8H253ZM64 7V8H63V7H64ZM160 8V7H159V8H160ZM256 7V8H255V7H256ZM67 8V7H66V8H67ZM163 7V8H162V7H163ZM259 8V7H258V8H259ZM70 7V8H69V7H70ZM166 8V7H165V8H166ZM262 7V8H261V7H262ZM73 8V7H72V8H73ZM169 7V8H168V7H169ZM265 8V7H264V8H265ZM76 7V8H75V7H76ZM172 8V7H171V8H172ZM268 7V8H267V7H268ZM79 8V7H78V8H79ZM175 7V8H174V7H175ZM271 8V7H270V8H271ZM82 7V8H81V7H82ZM178 8V7H177V8H178ZM274 7V8H273V7H274ZM85 8V7H84V8H85ZM181 7V8H180V7H181ZM277 8V7H276V8H277ZM88 7V8H87V7H88ZM184 8V7H183V8H184ZM280 7V8H279V7H280ZM91 8V7H90V8H91ZM187 7V8H186V7H187ZM283 8V7H282V8H283ZM322 7V8H321V7H322ZM94 8V7H93V8H94ZM190 7V8H189V7H190ZM286 8V7H285V8H286ZM325 7V8H324V7H325ZM97 8V7H96V8H97ZM193 7V8H192V7H193ZM289 8V7H288V8H289ZM328 7V8H327V7H328ZM100 8V7H99V8H100ZM196 7V8H195V7H196ZM292 8V7H291V8H292ZM331 7V8H330V7H331ZM103 8V7H102V8H103ZM199 7V8H198V7H199ZM295 8V7H294V8H295ZM334 7V8H333V7H334ZM106 8V7H105V8H106ZM202 7V8H201V7H202ZM298 8V7H297V8H298ZM337 7V8H336V7H337ZM109 8V7H108V8H109ZM205 7V8H204V7H205ZM301 8V7H300V8H301ZM340 7V8H339V7H340ZM112 8V7H111V8H112ZM208 7V8H207V7H208ZM304 8V7H303V8H304ZM343 7V8H342V7H343ZM115 8V7H114V8H115ZM211 7V8H210V7H211ZM307 8V7H306V8H307ZM346 7V8H345V7H346ZM118 8V7H117V8H118ZM214 7V8H213V7H214ZM310 8V7H309V8H310ZM349 7V8H348V7H349ZM121 8V7H120V8H121ZM217 7V8H216V7H217ZM313 8V7H312V8H313ZM352 7V8H351V7H352ZM124 8V7H123V8H124ZM220 7V8H219V7H220ZM316 8V7H315V8H316ZM355 7V8H354V7H355ZM127 8V7H126V8H127ZM223 7V8H222V7H223ZM319 8V7H318V8H319Z" fill="#A6ADB0" fill-opacity="0.4"/>
</g>
<mask id="mask5_2220_3654" style="mask-type:luminance" maskUnits="userSpaceOnUse" x="33" y="175" width="322" height="1">
<path d="M33 175H355V176H33V175Z" fill="white"/>
</mask>
<g mask="url(#mask5_2220_3654)">
<path fill-rule="evenodd" clip-rule="evenodd" d="M34 176V175H33V176H34ZM130 176V175H129V176H130ZM226 175V176H225V175H226ZM37 176V175H36V176H37ZM133 175V176H132V175H133ZM229 176V175H228V176H229ZM40 175V176H39V175H40ZM136 176V175H135V176H136ZM232 175V176H231V175H232ZM43 176V175H42V176H43ZM139 175V176H138V175H139ZM235 176V175H234V176H235ZM46 175V176H45V175H46ZM142 176V175H141V176H142ZM238 175V176H237V175H238ZM49 176V175H48V176H49ZM145 175V176H144V175H145ZM241 176V175H240V176H241ZM52 175V176H51V175H52ZM148 176V175H147V176H148ZM244 175V176H243V175H244ZM55 176V175H54V176H55ZM151 175V176H150V175H151ZM247 176V175H246V176H247ZM58 175V176H57V175H58ZM154 176V175H153V176H154ZM250 175V176H249V175H250ZM61 176V175H60V176H61ZM157 175V176H156V175H157ZM253 176V175H252V176H253ZM64 175V176H63V175H64ZM160 176V175H159V176H160ZM256 175V176H255V175H256ZM67 176V175H66V176H67ZM163 175V176H162V175H163ZM259 176V175H258V176H259ZM70 175V176H69V175H70ZM166 176V175H165V176H166ZM262 175V176H261V175H262ZM73 176V175H72V176H73ZM169 175V176H168V175H169ZM265 176V175H264V176H265ZM76 175V176H75V175H76ZM172 176V175H171V176H172ZM268 175V176H267V175H268ZM79 176V175H78V176H79ZM175 175V176H174V175H175ZM271 176V175H270V176H271ZM82 175V176H81V175H82ZM178 176V175H177V176H178ZM274 175V176H273V175H274ZM85 176V175H84V176H85ZM181 175V176H180V175H181ZM277 176V175H276V176H277ZM88 175V176H87V175H88ZM184 176V175H183V176H184ZM280 175V176H279V175H280ZM91 176V175H90V176H91ZM187 175V176H186V175H187ZM283 176V175H282V176H283ZM322 175V176H321V175H322ZM94 176V175H93V176H94ZM190 175V176H189V175H190ZM286 176V175H285V176H286ZM325 175V176H324V175H325ZM97 176V175H96V176H97ZM193 175V176H192V175H193ZM289 176V175H288V176H289ZM328 175V176H327V175H328ZM100 176V175H99V176H100ZM196 175V176H195V175H196ZM292 176V175H291V176H292ZM331 175V176H330V175H331ZM103 176V175H102V176H103ZM199 175V176H198V175H199ZM295 176V175H294V176H295ZM334 175V176H333V175H334ZM106 176V175H105V176H106ZM202 175V176H201V175H202ZM298 176V175H297V176H298ZM337 175V176H336V175H337ZM109 176V175H108V176H109ZM205 175V176H204V175H205ZM301 176V175H300V176H301ZM340 175V176H339V175H340ZM112 176V175H111V176H112ZM208 175V176H207V175H208ZM304 176V175H303V176H304ZM343 175V176H342V175H343ZM115 176V175H114V176H115ZM211 175V176H210V175H211ZM307 176V175H306V176H307ZM346 175V176H345V175H346ZM118 176V175H117V176H118ZM214 175V176H213V175H214ZM310 176V175H309V176H310ZM349 175V176H348V175H349ZM121 176V175H120V176H121ZM217 175V176H216V175H217ZM313 176V175H312V176H313ZM352 175V176H351V175H352ZM124 176V175H123V176H124ZM220 175V176H219V175H220ZM316 176V175H315V176H316ZM355 175V176H354V175H355ZM127 176V175H126V176H127ZM223 175V176H222V175H223ZM319 176V175H318V176H319Z" fill="#92999E"/>
</g>
<mask id="mask6_2220_3654" style="mask-type:luminance" maskUnits="userSpaceOnUse" x="33" y="-146" width="1" height="322">
<path d="M33 176L33 -146H34L34 176H33Z" fill="white"/>
</mask>
<g mask="url(#mask6_2220_3654)">
<path fill-rule="evenodd" clip-rule="evenodd" d="M34 175H33V176H34V175ZM34 79H33V80H34V79ZM33 -17H34V-16H33V-17ZM34 172H33V173H34V172ZM33 76H34V77H33V76ZM34 -20H33V-19H34V-20ZM33 169H34V170H33V169ZM34 73H33V74H34V73ZM33 -23H34V-22H33V-23ZM34 166H33V167H34V166ZM33 70H34V71H33V70ZM34 -26H33V-25H34V-26ZM33 163H34V164H33V163ZM34 67H33V68H34V67ZM33 -29H34V-28H33V-29ZM34 160H33V161H34V160ZM33 64H34V65H33V64ZM34 -32H33V-31H34V-32ZM33 157H34V158H33V157ZM34 61H33V62H34V61ZM33 -35H34V-34H33V-35ZM34 154H33V155H34V154ZM33 58H34V59H33V58ZM34 -38H33V-37H34V-38ZM33 151H34V152H33V151ZM34 55H33V56H34V55ZM33 -41H34V-40H33V-41ZM34 148H33V149H34V148ZM33 52H34V53H33V52ZM34 -44H33V-43H34V-44ZM33 145H34V146H33V145ZM34 49H33V50H34V49ZM33 -47H34V-46H33V-47ZM34 142H33V143H34V142ZM33 46H34V47H33V46ZM34 -50H33V-49H34V-50ZM33 139H34V140H33V139ZM34 43H33V44H34V43ZM33 -53H34V-52H33V-53ZM34 136H33V137H34V136ZM33 40H34V41H33V40ZM34 -56H33V-55H34V-56ZM33 133H34V134H33V133ZM34 37H33V38H34V37ZM33 -59H34V-58H33V-59ZM34 130H33V131H34V130ZM33 34H34V35H33V34ZM34 -62H33V-61H34V-62ZM33 127H34V128H33V127ZM34 31H33V32H34V31ZM33 -65H34V-64H33V-65ZM34 124H33V125H34V124ZM33 28H34V29H33V28ZM34 -68H33V-67H34V-68ZM33 121H34V122H33V121ZM34 25H33V26H34V25ZM33 -71H34V-70H33V-71ZM34 118H33V119H34V118ZM33 22H34V23H33V22ZM34 -74H33V-73H34V-74ZM33 -113H34V-112H33V-113ZM34 115H33V116H34V115ZM33 19H34V20H33V19ZM34 -77H33V-76H34V-77ZM33 -116H34V-115H33V-116ZM34 112H33V113H34V112ZM33 16H34V17H33V16ZM34 -80H33V-79H34V-80ZM33 -119H34V-118H33V-119ZM34 109H33V110H34V109ZM33 13H34V14H33V13ZM34 -83H33V-82H34V-83ZM33 -122H34V-121H33V-122ZM34 106H33V107H34V106ZM33 10H34V11H33V10ZM34 -86H33V-85H34V-86ZM33 -125H34V-124H33V-125ZM34 103H33V104H34V103ZM33 7H34V8H33V7ZM34 -89H33V-88H34V-89ZM33 -128H34V-127H33V-128ZM34 100H33V101H34V100ZM33 4H34V5H33V4ZM34 -92H33V-91H34V-92ZM33 -131H34V-130H33V-131ZM34 97H33V98H34V97ZM33 1H34V2H33V1ZM34 -95H33V-94H34V-95ZM33 -134H34V-133H33V-134ZM34 94H33V95H34V94ZM33 -2H34V-1H33V-2ZM34 -98H33V-97H34V-98ZM33 -137H34V-136H33V-137ZM34 91H33V92H34V91ZM33 -5H34V-4H33V-5ZM34 -101H33V-100H34V-101ZM33 -140H34V-139H33V-140ZM34 88H33V89H34V88ZM33 -8H34V-7H33V-8ZM34 -104H33V-103H34V-104ZM33 -143H34V-142H33V-143ZM34 85H33V86H34V85ZM33 -11H34V-10H33V-11ZM34 -107H33V-106H34V-107ZM33 -146H34V-145H33V-146ZM34 82H33V83H34V82ZM33 -14H34V-13H33V-14ZM34 -110H33V-109H34V-110Z" fill="#92999E"/>
</g>
<path fill-rule="evenodd" clip-rule="evenodd" d="M12.1897 8.66001C12.1897 9.29001 12.1197 9.84001 11.9897 10.29C11.8497 10.75 11.6597 11.13 11.4297 11.43C11.1997 11.73 10.9297 11.95 10.5997 12.1C10.28 12.2473 9.93174 12.3224 9.57972 12.32C9.22273 12.3299 8.86857 12.2542 8.54675 12.0994C8.22494 11.9446 7.94481 11.7151 7.72972 11.43C7.4813 11.09 7.29819 10.7069 7.18972 10.3C7.04972 9.84001 6.98972 9.30001 6.98972 8.66001C6.98972 8.04001 7.04972 7.49001 7.18972 7.03001C7.31972 6.57001 7.49972 6.20001 7.73972 5.89001C7.95268 5.6051 8.23099 5.37554 8.5512 5.22065C8.87141 5.06577 9.22415 4.9901 9.57972 5.00001C9.93972 5.00001 10.2797 5.07001 10.5997 5.22001C10.9197 5.37001 11.1997 5.59001 11.4297 5.89001C11.6597 6.19001 11.8497 6.58001 11.9797 7.04001C12.1197 7.50001 12.1797 8.04001 12.1797 8.66001H12.1897ZM11.2597 8.66001C11.2597 8.12001 11.2097 7.66001 11.1197 7.29001C11.0521 6.97001 10.9267 6.66502 10.7497 6.39001C10.6249 6.19369 10.4517 6.03268 10.2469 5.92238C10.0421 5.81208 9.81234 5.75617 9.57972 5.76001C9.34709 5.75617 9.11738 5.81208 8.91253 5.92238C8.70769 6.03268 8.53456 6.19369 8.40972 6.39001C8.23657 6.66703 8.11148 6.97131 8.03972 7.29001C7.94972 7.66001 7.90972 8.12001 7.90972 8.66001C7.90972 9.21001 7.94972 9.67001 8.03972 10.04C8.13972 10.41 8.25972 10.71 8.40972 10.94C8.55972 11.16 8.73972 11.32 8.94972 11.43C9.14774 11.5257 9.36481 11.5753 9.58472 11.5753C9.80463 11.5753 10.0217 11.5257 10.2197 11.43C10.4197 11.33 10.5997 11.16 10.7497 10.93C10.9097 10.71 11.0297 10.41 11.1197 10.04C11.2197 9.67001 11.2597 9.21001 11.2597 8.66001ZM17.9897 8.66001C17.9897 9.29001 17.9197 9.84001 17.7897 10.29C17.6497 10.75 17.4697 11.13 17.2297 11.43C16.9997 11.73 16.7297 11.95 16.3997 12.1C16.08 12.2473 15.7317 12.3224 15.3797 12.32C15.0227 12.3299 14.6686 12.2542 14.3468 12.0994C14.0249 11.9446 13.7448 11.7151 13.5297 11.43C13.2813 11.09 13.0982 10.7069 12.9897 10.3C12.8497 9.84001 12.7897 9.30001 12.7897 8.66001C12.7897 8.04001 12.8497 7.49001 12.9897 7.03001C13.1197 6.57001 13.2997 6.20001 13.5397 5.89001C13.7527 5.6051 14.031 5.37554 14.3512 5.22065C14.6714 5.06577 15.0242 4.9901 15.3797 5.00001C15.7397 5.00001 16.0797 5.07001 16.3997 5.22001C16.7197 5.37001 16.9997 5.59001 17.2297 5.89001C17.4597 6.19001 17.6497 6.58001 17.7797 7.04001C17.9197 7.50001 17.9797 8.04001 17.9797 8.66001H17.9897ZM17.0597 8.66001C17.0597 8.12001 17.0197 7.66001 16.9197 7.29001C16.8521 6.97001 16.7267 6.66502 16.5497 6.39001C16.4249 6.19369 16.2517 6.03268 16.0469 5.92238C15.8421 5.81208 15.6123 5.75617 15.3797 5.76001C15.1471 5.75617 14.9174 5.81208 14.7125 5.92238C14.5077 6.03268 14.3346 6.19369 14.2097 6.39001C14.0366 6.66703 13.9115 6.97131 13.8397 7.29001C13.7497 7.66001 13.7097 8.12001 13.7097 8.66001C13.7097 9.21001 13.7497 9.67001 13.8397 10.04C13.9397 10.41 14.0597 10.71 14.2097 10.94C14.3597 11.16 14.5397 11.32 14.7497 11.43C14.9477 11.5257 15.1648 11.5753 15.3847 11.5753C15.6046 11.5753 15.8217 11.5257 16.0197 11.43C16.2197 11.33 16.3997 11.16 16.5497 10.93C16.7097 10.71 16.8297 10.41 16.9197 10.04C17.0197 9.67001 17.0597 9.21001 17.0597 8.66001ZM4.53972 6.70001V9.66001H1.95972L4.57972 6.11001C4.55502 6.30909 4.54166 6.50941 4.53972 6.71001V6.70001ZM6.39972 10.17V9.66001H5.31972V5.08001H4.48972L0.999716 9.71001L1.08972 10.16C1.09972 10.22 1.12972 10.26 1.17972 10.3C1.22972 10.34 1.27972 10.36 1.35972 10.36H4.52972V12.24H5.31972V10.36H6.19972C6.26972 10.36 6.31972 10.34 6.34972 10.31C6.38375 10.2715 6.40166 10.2214 6.39972 10.17ZM1.48972 45.97C1.34922 46.2419 1.25782 46.5364 1.21972 46.84L1.68972 46.92C1.80972 46.94 1.89972 46.92 1.96972 46.89C2.04519 46.8314 2.10101 46.7512 2.12972 46.66C2.19345 46.357 2.35939 46.0852 2.59972 45.89C2.70972 45.79 2.84972 45.72 2.99972 45.66C3.15972 45.61 3.32972 45.59 3.50972 45.59C3.68972 45.59 3.85972 45.61 4.00972 45.66C4.16972 45.71 4.30972 45.79 4.40972 45.89C4.52972 45.99 4.60972 46.11 4.67972 46.27C4.74972 46.42 4.77972 46.6 4.77972 46.8C4.77972 47 4.74972 47.16 4.67972 47.32C4.61891 47.4732 4.5189 47.6077 4.38972 47.71C4.25972 47.82 4.08972 47.91 3.86972 47.97C3.64972 48.03 3.38972 48.07 3.07972 48.07V48.72C3.45972 48.72 3.75972 48.75 3.99972 48.82C4.23972 48.88 4.42972 48.97 4.56972 49.09C4.69972 49.21 4.78972 49.34 4.83972 49.5C4.88972 49.66 4.91972 49.84 4.91972 50.03C4.91969 50.1993 4.8861 50.3669 4.82087 50.5231C4.75564 50.6793 4.66008 50.821 4.53972 50.94C4.41972 51.08 4.25972 51.18 4.06972 51.27C3.87972 51.34 3.66972 51.38 3.40972 51.38C3.13972 51.38 2.91972 51.34 2.73972 51.26C2.43435 51.1217 2.18679 50.8812 2.03972 50.58L1.87972 50.24C1.86085 50.1998 1.83301 50.1645 1.79834 50.1367C1.76366 50.109 1.72308 50.0896 1.67972 50.08C1.57804 50.0599 1.47257 50.074 1.37972 50.12L0.999716 50.28C1.07972 50.54 1.18972 50.79 1.29972 51.02C1.54429 51.4812 1.95559 51.8317 2.44972 52C2.71972 52.1 3.04972 52.15 3.41972 52.15C3.74972 52.15 4.05972 52.1 4.34972 52C4.63972 51.9 4.88972 51.76 5.10972 51.58C5.33577 51.3868 5.5159 51.1456 5.63699 50.8741C5.75809 50.6025 5.81709 50.3073 5.80972 50.01C5.80972 49.57 5.68972 49.21 5.45972 48.92C5.18734 48.6036 4.81833 48.3857 4.40972 48.3C4.58972 48.24 4.76972 48.16 4.91972 48.07C5.22149 47.888 5.44843 47.6044 5.55972 47.27C5.69691 46.8192 5.67214 46.3345 5.48972 45.9C5.38972 45.67 5.24972 45.48 5.05972 45.32C4.87972 45.16 4.65972 45.04 4.39972 44.95C3.84818 44.7648 3.25125 44.7648 2.69972 44.95C2.17774 45.1173 1.7429 45.4839 1.48972 45.97ZM11.8697 48.49C11.8768 49.0399 11.8095 49.5882 11.6697 50.12C11.5541 50.526 11.3679 50.9085 11.1197 51.25C10.8797 51.55 10.6097 51.77 10.2897 51.92C9.96996 52.0673 9.62174 52.1424 9.26972 52.14C8.91273 52.1499 8.55857 52.0742 8.23675 51.9194C7.91494 51.7646 7.63481 51.5351 7.41972 51.25C7.16776 50.9108 6.98124 50.5276 6.86972 50.12C6.72866 49.5884 6.66136 49.0399 6.66972 48.49C6.66972 47.86 6.73972 47.31 6.86972 46.85C6.99972 46.4 7.18972 46.01 7.41972 45.72C7.63258 45.4319 7.91202 45.1995 8.23417 45.0428C8.55632 44.886 8.91162 44.8096 9.26972 44.82C9.62972 44.82 9.96972 44.89 10.2897 45.04C10.6097 45.19 10.8897 45.41 11.1197 45.72C11.3497 46.02 11.5297 46.4 11.6697 46.85C11.8108 47.3816 11.8781 47.9301 11.8697 48.48V48.49ZM10.9497 48.49C10.9497 47.94 10.8997 47.48 10.8097 47.11C10.7419 46.7901 10.6165 46.4851 10.4397 46.21C10.3149 46.0137 10.1417 45.8527 9.9369 45.7424C9.73205 45.6321 9.50234 45.5762 9.26972 45.58C9.03709 45.5762 8.80738 45.6321 8.60253 45.7424C8.39769 45.8527 8.22457 46.0137 8.09972 46.21C7.93972 46.44 7.81972 46.74 7.72972 47.11C7.62972 47.48 7.58972 47.94 7.58972 48.49C7.58972 49.03 7.63972 49.49 7.72972 49.86C7.81972 50.23 7.93972 50.53 8.09972 50.76C8.24972 50.98 8.42972 51.15 8.62972 51.24C8.82774 51.3357 9.04481 51.3853 9.26472 51.3853C9.48463 51.3853 9.70169 51.3357 9.89972 51.24C10.0997 51.14 10.2797 50.98 10.4397 50.76C10.5897 50.53 10.7197 50.23 10.8097 49.86C10.8997 49.49 10.9497 49.03 10.9497 48.48V48.49ZM17.6697 48.49C17.6768 49.0399 17.6095 49.5882 17.4697 50.12C17.3541 50.526 17.1679 50.9085 16.9197 51.25C16.6797 51.55 16.4097 51.77 16.0897 51.92C15.77 52.0673 15.4217 52.1424 15.0697 52.14C14.7127 52.1499 14.3586 52.0742 14.0368 51.9194C13.7149 51.7646 13.4348 51.5351 13.2197 51.25C12.9715 50.9085 12.7854 50.526 12.6697 50.12C12.5287 49.5884 12.4614 49.0399 12.4697 48.49C12.4697 47.86 12.5397 47.31 12.6697 46.85C12.7997 46.4 12.9897 46.01 13.2197 45.72C13.4326 45.4319 13.712 45.1995 14.0342 45.0428C14.3563 44.886 14.7116 44.8096 15.0697 44.82C15.4297 44.82 15.7697 44.89 16.0897 45.04C16.4097 45.19 16.6897 45.41 16.9197 45.72C17.1497 46.02 17.3297 46.4 17.4697 46.85C17.6108 47.3816 17.6781 47.9301 17.6697 48.48V48.49ZM16.7497 48.49C16.7497 47.94 16.6997 47.48 16.6097 47.11C16.5419 46.7901 16.4165 46.4851 16.2397 46.21C16.1149 46.0137 15.9417 45.8527 15.7369 45.7424C15.5321 45.6321 15.3023 45.5762 15.0697 45.58C14.8371 45.5762 14.6074 45.6321 14.4025 45.7424C14.1977 45.8527 14.0246 46.0137 13.8997 46.21C13.7397 46.44 13.6197 46.74 13.5297 47.11C13.4297 47.48 13.3897 47.94 13.3897 48.49C13.3897 49.03 13.4397 49.49 13.5297 49.86C13.6197 50.23 13.7397 50.53 13.8997 50.76C14.0497 50.98 14.2297 51.15 14.4297 51.24C14.6277 51.3357 14.8448 51.3853 15.0647 51.3853C15.2846 51.3853 15.5017 51.3357 15.6997 51.24C15.8997 51.14 16.0797 50.98 16.2397 50.76C16.3897 50.53 16.5197 50.23 16.6097 49.86C16.6997 49.49 16.7497 49.03 16.7497 48.48V48.49ZM5.45972 91.03C5.55972 91.03 5.63972 91.06 5.69972 91.12C5.72712 91.1494 5.74832 91.1841 5.76206 91.2219C5.7758 91.2597 5.78181 91.2998 5.77972 91.34V91.88H0.999716V91.58C1.00441 91.436 1.06545 91.2995 1.16972 91.2L3.45972 88.89L3.97972 88.33C4.13972 88.16 4.26972 87.97 4.37972 87.8C4.59125 87.4522 4.71163 87.0567 4.72972 86.65C4.72972 86.45 4.68972 86.26 4.62972 86.1C4.56923 85.9511 4.47568 85.8179 4.35614 85.7105C4.2366 85.6031 4.0942 85.5243 3.93972 85.48C3.77852 85.4263 3.60963 85.3993 3.43972 85.4C3.25972 85.4 3.08972 85.43 2.93972 85.48C2.6461 85.5802 2.39558 85.7778 2.22972 86.04C2.14972 86.17 2.08972 86.31 2.05972 86.47C2.01972 86.59 1.95972 86.67 1.88972 86.7C1.82972 86.74 1.72972 86.75 1.60972 86.74L1.13972 86.66C1.18972 86.33 1.27972 86.04 1.41972 85.79C1.54972 85.54 1.71972 85.32 1.91972 85.16C2.12972 84.99 2.36972 84.86 2.62972 84.77C3.1805 84.5803 3.77893 84.5803 4.32972 84.77C4.59972 84.86 4.82972 84.99 5.01972 85.17C5.21972 85.33 5.36972 85.54 5.47972 85.79C5.68618 86.2975 5.7004 86.8628 5.51972 87.38C5.43972 87.6 5.32972 87.82 5.19972 88.02C5.05972 88.23 4.89972 88.43 4.71972 88.63L4.15972 89.23L2.25972 91.16C2.52016 91.0846 2.78878 91.0409 3.05972 91.03H5.45972ZM11.6297 89.93C11.7708 89.3984 11.8381 88.8499 11.8297 88.3C11.8381 87.7501 11.7708 87.2016 11.6297 86.67C11.52 86.2587 11.3334 85.8719 11.0797 85.53C10.8634 85.2383 10.5783 85.0047 10.2497 84.85C9.92997 84.7028 9.58174 84.6276 9.22972 84.63C8.87162 84.6196 8.51632 84.6961 8.19417 84.8528C7.87202 85.0095 7.59258 85.2419 7.37972 85.53C7.14972 85.83 6.95972 86.21 6.82972 86.67C6.68866 87.2016 6.62136 87.7501 6.62972 88.3C6.62136 88.8499 6.68866 89.3984 6.82972 89.93C6.95972 90.39 7.14972 90.77 7.37972 91.07C7.59481 91.3551 7.87494 91.5846 8.19675 91.7394C8.51857 91.8942 8.87273 91.9699 9.22972 91.96C9.58569 91.9635 9.93771 91.8851 10.2585 91.7308C10.5793 91.5764 10.8603 91.3503 11.0797 91.07C11.3097 90.77 11.4897 90.39 11.6297 89.93ZM10.7697 86.93C10.8597 87.3 10.9097 87.75 10.9097 88.3C10.9097 88.85 10.8597 89.3 10.7697 89.68C10.7008 89.9965 10.5754 90.2979 10.3997 90.57C10.2662 90.7782 10.0798 90.9472 9.85972 91.06C9.66169 91.1556 9.44463 91.2053 9.22472 91.2053C9.00481 91.2053 8.78774 91.1556 8.58972 91.06C8.37326 90.9458 8.19052 90.7769 8.05972 90.57C7.88552 90.2935 7.76035 89.9891 7.68972 89.67C7.59 89.2203 7.54302 88.7606 7.54972 88.3C7.54972 87.75 7.59972 87.3 7.68972 86.92C7.77972 86.55 7.89972 86.25 8.05972 86.02C8.18457 85.8237 8.35769 85.6627 8.56253 85.5524C8.76738 85.4421 8.99709 85.3862 9.22972 85.39C9.46234 85.3862 9.69205 85.4421 9.8969 85.5524C10.1017 85.6627 10.2749 85.8237 10.3997 86.02C10.5497 86.25 10.6797 86.55 10.7697 86.92V86.93ZM17.4297 89.93C17.5708 89.3984 17.6381 88.8499 17.6297 88.3C17.6381 87.7501 17.5708 87.2016 17.4297 86.67C17.3203 86.2586 17.1336 85.8717 16.8797 85.53C16.6634 85.2383 16.3783 85.0047 16.0497 84.85C15.73 84.7028 15.3817 84.6276 15.0297 84.63C14.6716 84.6196 14.3163 84.6961 13.9942 84.8528C13.672 85.0095 13.3926 85.2419 13.1797 85.53C12.9497 85.83 12.7697 86.21 12.6297 86.67C12.4887 87.2016 12.4214 87.7501 12.4297 88.3C12.4214 88.8499 12.4887 89.3984 12.6297 89.93C12.7597 90.39 12.9497 90.77 13.1797 91.07C13.3948 91.3551 13.6749 91.5846 13.9968 91.7394C14.3186 91.8942 14.6727 91.9699 15.0297 91.96C15.3857 91.9635 15.7377 91.8851 16.0585 91.7308C16.3793 91.5764 16.6603 91.3503 16.8797 91.07C17.1097 90.77 17.2897 90.39 17.4297 89.93ZM16.5697 86.93C16.6597 87.3 16.7097 87.75 16.7097 88.3C16.7097 88.85 16.6597 89.3 16.5697 89.68C16.4697 90.05 16.3497 90.34 16.1997 90.57C16.0662 90.7782 15.8798 90.9472 15.6597 91.06C15.4617 91.1556 15.2446 91.2053 15.0247 91.2053C14.8048 91.2053 14.5877 91.1556 14.3897 91.06C14.1733 90.9458 13.9905 90.7769 13.8597 90.57C13.6855 90.2935 13.5604 89.9891 13.4897 89.67C13.39 89.2203 13.343 88.7606 13.3497 88.3C13.3497 87.75 13.3997 87.3 13.4897 86.92C13.5797 86.55 13.6997 86.25 13.8597 86.02C13.9846 85.8237 14.1577 85.6627 14.3625 85.5524C14.5674 85.4421 14.7971 85.3862 15.0297 85.39C15.2623 85.3862 15.4921 85.4421 15.6969 85.5524C15.9017 85.6627 16.0749 85.8237 16.1997 86.02C16.3497 86.25 16.4797 86.55 16.5697 86.92V86.93ZM11.4797 128.12C11.4881 128.67 11.4208 129.218 11.2797 129.75C11.1397 130.21 10.9597 130.59 10.7297 130.89C10.4897 131.19 10.2197 131.41 9.89972 131.55C9.57996 131.697 9.23174 131.772 8.87972 131.77C8.52441 131.778 8.17223 131.702 7.85229 131.547C7.53234 131.392 7.25382 131.164 7.03972 130.88C6.79972 130.58 6.60972 130.21 6.47972 129.75C6.33866 129.218 6.27136 128.67 6.27972 128.12C6.27136 127.57 6.33866 127.022 6.47972 126.49C6.60972 126.03 6.79972 125.65 7.02972 125.35C7.24316 125.062 7.52271 124.831 7.84473 124.674C8.16674 124.517 8.52175 124.44 8.87972 124.45C9.23576 124.452 9.58681 124.534 9.90699 124.69C10.2272 124.846 10.5083 125.071 10.7297 125.35C10.9597 125.65 11.1397 126.03 11.2797 126.49C11.4208 127.022 11.4881 127.57 11.4797 128.12ZM10.5597 128.12C10.5597 127.57 10.5097 127.12 10.4197 126.74C10.3519 126.42 10.2265 126.115 10.0497 125.84C9.92487 125.644 9.75174 125.483 9.5469 125.372C9.34205 125.262 9.11234 125.206 8.87972 125.21C8.64615 125.207 8.41581 125.265 8.21089 125.377C8.00596 125.489 7.83336 125.652 7.70972 125.85C7.54972 126.07 7.42972 126.37 7.33972 126.75C7.23972 127.11 7.19972 127.57 7.19972 128.12C7.19972 128.67 7.24972 129.12 7.33972 129.5C7.42972 129.87 7.54972 130.16 7.70972 130.39C7.85972 130.62 8.03972 130.78 8.23972 130.88C8.43774 130.976 8.65481 131.025 8.87472 131.025C9.09463 131.025 9.3117 130.976 9.50972 130.88C9.70972 130.78 9.88972 130.62 10.0497 130.39C10.1997 130.16 10.3297 129.86 10.4197 129.49C10.5097 129.12 10.5597 128.67 10.5597 128.12ZM17.2797 128.12C17.2881 128.67 17.2208 129.218 17.0797 129.75C16.9397 130.21 16.7597 130.59 16.5297 130.89C16.2897 131.19 16.0197 131.41 15.6997 131.55C15.38 131.697 15.0317 131.772 14.6797 131.77C14.3227 131.78 13.9686 131.704 13.6468 131.549C13.3249 131.395 13.0448 131.165 12.8297 130.88C12.5997 130.58 12.4097 130.21 12.2797 129.75C12.1387 129.218 12.0714 128.67 12.0797 128.12C12.0714 127.57 12.1387 127.022 12.2797 126.49C12.4097 126.03 12.5997 125.65 12.8297 125.35C13.0432 125.062 13.3227 124.831 13.6447 124.674C13.9667 124.517 14.3217 124.44 14.6797 124.45C15.0358 124.452 15.3868 124.534 15.707 124.69C16.0272 124.846 16.3083 125.071 16.5297 125.35C16.7597 125.65 16.9397 126.03 17.0797 126.49C17.2208 127.022 17.2881 127.57 17.2797 128.12ZM16.3597 128.12C16.3597 127.57 16.3097 127.12 16.2197 126.74C16.1519 126.42 16.0265 126.115 15.8497 125.84C15.7249 125.644 15.5517 125.483 15.3469 125.372C15.1421 125.262 14.9123 125.206 14.6797 125.21C14.4462 125.207 14.2158 125.265 14.0109 125.377C13.806 125.489 13.6334 125.652 13.5097 125.85C13.3497 126.07 13.2297 126.37 13.1397 126.75C13.0397 127.11 12.9997 127.57 12.9997 128.12C12.9997 128.67 13.0497 129.12 13.1397 129.5C13.2297 129.87 13.3497 130.16 13.5097 130.39C13.6597 130.62 13.8397 130.78 14.0397 130.88C14.2377 130.976 14.4548 131.025 14.6747 131.025C14.8946 131.025 15.1117 130.976 15.3097 130.88C15.5097 130.78 15.6897 130.62 15.8497 130.39C15.9997 130.16 16.1297 129.86 16.2197 129.49C16.3097 129.12 16.3597 128.67 16.3597 128.12ZM5.26972 131.7V131.02H3.85972V124.52H3.12972L0.999716 126.37L1.27972 126.76C1.32415 126.816 1.38886 126.852 1.45972 126.86H1.56972C1.62077 126.852 1.66899 126.832 1.70972 126.8L2.97972 125.7L2.95972 126.14V131.03H1.42972V131.71H5.26972V131.7ZM5.99972 169.58C6.14078 169.048 6.20807 168.5 6.19972 167.95C6.20807 167.4 6.14078 166.852 5.99972 166.32C5.89026 165.909 5.70361 165.522 5.44972 165.18C5.23341 164.888 4.94826 164.655 4.61972 164.5C4.29997 164.353 3.95174 164.278 3.59972 164.28C3.24175 164.27 2.88674 164.347 2.56473 164.504C2.24271 164.661 1.96316 164.892 1.74972 165.18C1.51972 165.48 1.32972 165.86 1.19972 166.32C1.05866 166.852 0.99136 167.4 0.999716 167.95C0.99136 168.5 1.05866 169.048 1.19972 169.58C1.32972 170.04 1.51972 170.41 1.74972 170.71C1.96374 170.997 2.2434 171.228 2.56528 171.385C2.88716 171.542 3.24188 171.619 3.59972 171.61C3.95495 171.609 4.30549 171.529 4.62561 171.375C4.94573 171.221 5.22732 170.997 5.44972 170.72C5.67972 170.42 5.85972 170.04 5.98972 169.58H5.99972ZM5.12972 166.58C5.22972 166.94 5.27972 167.4 5.27972 167.95C5.27972 168.5 5.22972 168.95 5.12972 169.33C5.06076 169.646 4.93543 169.948 4.75972 170.22C4.62892 170.427 4.44617 170.596 4.22972 170.71C4.0317 170.806 3.81463 170.855 3.59472 170.855C3.37481 170.855 3.15774 170.806 2.95972 170.71C2.73959 170.597 2.55327 170.428 2.41972 170.22C2.24903 169.943 2.12725 169.638 2.05972 169.32C1.96 168.87 1.91302 168.411 1.91972 167.95C1.91972 167.4 1.96972 166.95 2.05972 166.57C2.14972 166.2 2.26972 165.9 2.41972 165.67C2.54545 165.472 2.72016 165.31 2.92691 165.2C3.13365 165.09 3.36542 165.034 3.59972 165.04C3.83328 165.037 4.06362 165.095 4.26855 165.207C4.47347 165.319 4.64607 165.482 4.76972 165.68C4.91972 165.9 5.03972 166.2 5.12972 166.58ZM68.2197 188.96C68.1937 189.003 68.1598 189.04 68.1197 189.07C68.0834 189.091 68.0418 189.102 67.9997 189.1C67.9254 189.099 67.8542 189.071 67.7997 189.02C67.5843 188.863 67.3489 188.735 67.0997 188.64C66.9059 188.579 66.7028 188.552 66.4997 188.56C66.2897 188.56 66.0997 188.59 65.9297 188.65C65.7697 188.71 65.6297 188.78 65.5197 188.88C65.4147 188.983 65.3314 189.106 65.2747 189.242C65.218 189.377 65.1891 189.523 65.1897 189.67C65.1897 189.87 65.2297 190.04 65.3297 190.17C65.4297 190.31 65.5597 190.42 65.7197 190.51C65.8797 190.61 66.0597 190.69 66.2697 190.76L66.8997 190.96L67.5297 191.21C67.7297 191.31 67.9197 191.42 68.0797 191.56C68.2397 191.7 68.3697 191.87 68.4697 192.07C68.5697 192.27 68.6197 192.53 68.6197 192.82C68.6197 193.14 68.5597 193.43 68.4597 193.71C68.3497 193.977 68.1902 194.222 67.9897 194.43C67.7897 194.63 67.5297 194.79 67.2297 194.9C66.4881 195.165 65.6736 195.14 64.9497 194.83C64.58 194.668 64.2466 194.434 63.9697 194.14L64.2497 193.69C64.2757 193.65 64.3097 193.616 64.3497 193.59C64.3891 193.567 64.4344 193.557 64.4797 193.56C64.5197 193.56 64.5697 193.57 64.6197 193.61L64.8197 193.74C64.9949 193.864 65.175 193.981 65.3597 194.09C65.8348 194.29 66.3641 194.322 66.8597 194.18C67.0255 194.126 67.178 194.037 67.3073 193.92C67.4365 193.803 67.5396 193.66 67.6097 193.5C67.6697 193.34 67.7097 193.16 67.7097 192.97C67.7097 192.75 67.6597 192.57 67.5597 192.44C67.4598 192.294 67.326 192.174 67.1697 192.09C66.9963 191.989 66.8117 191.909 66.6197 191.85L65.9897 191.65C65.7761 191.58 65.5658 191.5 65.3597 191.41C65.1597 191.32 64.9697 191.21 64.8097 191.06C64.6252 190.892 64.4815 190.684 64.3897 190.451C64.2978 190.219 64.2602 189.969 64.2797 189.72C64.2822 189.209 64.4872 188.72 64.8497 188.36C65.0497 188.18 65.2697 188.03 65.5497 187.92C66.2122 187.691 66.9343 187.701 67.5897 187.95C67.9197 188.07 68.2097 188.25 68.4597 188.5L68.2197 188.96ZM73.6597 192.34L72.5397 189.43C72.4568 189.208 72.3867 188.98 72.3297 188.75C72.2597 189.03 72.1897 189.25 72.1097 189.43L70.9997 192.34H73.6697H73.6597ZM75.6797 195H74.9297C74.8582 195.003 74.7878 194.982 74.7297 194.94C74.6718 194.896 74.6268 194.837 74.5997 194.77L73.9297 193.04H70.7197L70.0497 194.77C70.0261 194.834 69.9844 194.889 69.9297 194.93C69.8729 194.975 69.8024 195 69.7297 195H68.9697L71.8397 187.84H72.8197L75.6797 195ZM60.7597 194.08C60.5061 194.184 60.2338 194.235 59.9597 194.23C59.6697 194.23 59.3997 194.18 59.1597 194.08C58.9327 193.98 58.7296 193.833 58.5641 193.649C58.3985 193.464 58.2743 193.246 58.1997 193.01C58.1161 192.745 58.0756 192.468 58.0797 192.19V187.84H57.1097V192.19C57.1097 192.6 57.1797 192.99 57.3097 193.34C57.4351 193.683 57.6305 193.996 57.8836 194.26C58.1367 194.523 58.4419 194.731 58.7797 194.87C59.5441 195.173 60.3953 195.173 61.1597 194.87C61.4974 194.733 61.802 194.525 62.0537 194.261C62.3053 193.998 62.4983 193.684 62.6197 193.34C62.7497 192.99 62.8197 192.6 62.8197 192.19V187.84H61.8497V192.19C61.8497 192.49 61.8097 192.76 61.7197 193.01C61.6495 193.249 61.5268 193.468 61.3607 193.654C61.1947 193.839 60.9893 193.984 60.7597 194.08ZM109.23 191.13V188.63H112.68V187.83H108.26V195H109.23V191.92H112.18V191.13H109.23ZM114.13 190.95C114.28 190.6 114.48 190.33 114.71 190.14C114.867 190.005 115.055 189.911 115.257 189.866C115.46 189.821 115.67 189.825 115.87 189.88C115.97 189.9 116.06 189.94 116.14 189.99L116.07 190.65C116.05 190.74 116 190.78 115.92 190.78L115.72 190.75C115.474 190.697 115.218 190.71 114.98 190.79C114.86 190.84 114.75 190.91 114.65 191C114.55 191.09 114.46 191.2 114.38 191.34C114.301 191.488 114.234 191.642 114.18 191.8V195H113.28V189.94H113.78C113.88 189.94 113.95 189.95 113.98 189.99C114.02 190.03 114.05 190.09 114.06 190.18L114.12 190.95H114.13ZM118.53 192.82C118.88 192.761 119.234 192.727 119.59 192.72V193.77C119.403 193.969 119.188 194.137 118.95 194.27C118.602 194.451 118.201 194.501 117.82 194.41C117.726 194.383 117.638 194.339 117.56 194.28C117.482 194.215 117.421 194.133 117.38 194.04C117.337 193.932 117.316 193.816 117.32 193.7C117.32 193.56 117.36 193.43 117.44 193.32C117.546 193.188 117.683 193.085 117.84 193.02C118.01 192.94 118.24 192.87 118.54 192.82H118.53ZM117.62 190.04C117.29 190.18 116.99 190.38 116.72 190.65L116.87 190.93C116.9 190.98 116.94 191.03 116.98 191.06C117.02 191.09 117.08 191.1 117.14 191.1C117.223 191.098 117.303 191.07 117.37 191.02L117.65 190.83C117.75 190.76 117.88 190.7 118.03 190.65C118.18 190.59 118.37 190.56 118.59 190.56C118.91 190.56 119.16 190.66 119.33 190.87C119.5 191.07 119.59 191.37 119.59 191.76V192.16C118.754 192.154 117.926 192.325 117.16 192.66C116.91 192.81 116.74 192.97 116.63 193.16C116.52 193.334 116.461 193.535 116.46 193.74C116.46 193.96 116.5 194.16 116.57 194.34C116.641 194.498 116.746 194.64 116.877 194.754C117.008 194.867 117.163 194.952 117.33 195C117.658 195.086 118.001 195.099 118.335 195.036C118.669 194.974 118.985 194.839 119.26 194.64C119.39 194.54 119.52 194.44 119.66 194.31L119.76 194.79C119.78 194.87 119.81 194.93 119.86 194.96C119.922 194.99 119.991 195.004 120.06 195H120.46V191.76C120.46 191.48 120.42 191.22 120.34 190.98C120.275 190.756 120.161 190.55 120.005 190.377C119.849 190.203 119.656 190.068 119.44 189.98C118.844 189.785 118.198 189.81 117.62 190.05V190.04ZM122.65 190.67C122.863 190.435 123.113 190.236 123.39 190.08C123.681 189.922 124.008 189.843 124.34 189.85C124.575 189.846 124.808 189.892 125.025 189.983C125.242 190.074 125.438 190.209 125.6 190.38C125.74 190.55 125.85 190.75 125.92 190.99C126 191.23 126.03 191.49 126.03 191.77V195H125.13V191.78C125.13 191.39 125.05 191.09 124.87 190.88C124.7 190.68 124.43 190.57 124.07 190.57C123.81 190.57 123.57 190.63 123.34 190.76C123.11 190.88 122.9 191.06 122.71 191.27V195H121.81V189.94H122.35C122.47 189.94 122.55 190 122.58 190.12L122.65 190.67ZM130.83 190.92C130.86 190.897 130.887 190.87 130.91 190.84L131.15 190.51C130.933 190.289 130.672 190.116 130.385 190.003C130.097 189.889 129.789 189.837 129.48 189.85C129.1 189.85 128.76 189.92 128.46 190.05C128.16 190.18 127.92 190.36 127.72 190.59C127.52 190.82 127.36 191.1 127.26 191.42C127.037 192.12 127.041 192.872 127.27 193.57C127.39 193.89 127.54 194.17 127.74 194.39C127.94 194.614 128.187 194.791 128.464 194.909C128.74 195.027 129.039 195.082 129.34 195.07C129.694 195.064 130.046 195 130.38 194.88C130.704 194.76 130.99 194.557 131.21 194.29L130.96 193.97C130.941 193.942 130.916 193.919 130.886 193.903C130.857 193.887 130.823 193.88 130.79 193.88C130.719 193.883 130.652 193.912 130.6 193.96L130.37 194.13C130.28 194.19 130.17 194.25 130.03 194.31C129.89 194.35 129.71 194.38 129.49 194.38C129.283 194.385 129.079 194.342 128.892 194.255C128.704 194.169 128.54 194.04 128.41 193.88C128.273 193.701 128.171 193.497 128.11 193.28C127.975 192.752 127.975 192.198 128.11 191.67C128.17 191.43 128.27 191.23 128.4 191.07C128.53 190.9 128.69 190.77 128.88 190.69C129.07 190.59 129.28 190.55 129.54 190.55C129.909 190.542 130.269 190.662 130.56 190.89C130.606 190.925 130.662 190.946 130.72 190.95C130.77 190.95 130.81 190.94 130.83 190.92ZM135.37 191.35C135.43 191.52 135.47 191.71 135.47 191.91H132.69C132.75 191.47 132.91 191.13 133.16 190.88C133.41 190.63 133.74 190.51 134.17 190.51C134.37 190.51 134.56 190.54 134.72 190.61C134.88 190.68 135.01 190.78 135.12 190.91C135.23 191.03 135.32 191.18 135.37 191.35ZM135.79 194.64C135.94 194.54 136.07 194.42 136.19 194.29L135.94 193.97C135.92 193.94 135.893 193.917 135.862 193.901C135.83 193.885 135.795 193.878 135.76 193.88C135.687 193.888 135.618 193.916 135.56 193.96C135.337 194.098 135.099 194.208 134.85 194.29C134.69 194.35 134.5 194.37 134.28 194.37C134.03 194.37 133.82 194.33 133.62 194.25C133.43 194.18 133.26 194.05 133.12 193.9C132.971 193.724 132.859 193.52 132.79 193.3C132.708 193.031 132.664 192.751 132.66 192.47H136.05C136.13 192.47 136.19 192.45 136.22 192.4C136.25 192.35 136.26 192.26 136.26 192.12C136.26 191.76 136.21 191.44 136.1 191.16C136.005 190.902 135.857 190.666 135.666 190.468C135.475 190.27 135.244 190.114 134.99 190.01C134.398 189.783 133.741 189.798 133.16 190.05C132.86 190.18 132.62 190.35 132.41 190.58C132.21 190.8 132.06 191.07 131.94 191.38C131.717 192.081 131.724 192.834 131.96 193.53C132.09 193.86 132.26 194.15 132.46 194.37C132.68 194.6 132.94 194.77 133.23 194.9C133.53 195.01 133.85 195.07 134.2 195.07C134.758 195.068 135.306 194.92 135.79 194.64ZM164.75 194.3V191.55H162.55V192.1C162.55 192.16 162.57 192.2 162.6 192.24C162.65 192.28 162.7 192.29 162.76 192.29H163.88V193.87C163.377 194.154 162.807 194.299 162.23 194.29C161.81 194.29 161.43 194.23 161.08 194.1C160.749 193.976 160.45 193.779 160.204 193.525C159.958 193.271 159.772 192.965 159.66 192.63C159.528 192.24 159.463 191.831 159.47 191.42C159.47 190.99 159.54 190.6 159.66 190.25C159.77 189.922 159.949 189.622 160.185 189.37C160.422 189.118 160.71 188.92 161.03 188.79C161.789 188.526 162.617 188.537 163.37 188.82C163.51 188.88 163.64 188.94 163.74 189.01L164.01 189.18C164.1 189.23 164.17 189.25 164.24 189.23C164.31 189.209 164.371 189.163 164.41 189.1L164.69 188.66C164.202 188.213 163.593 187.921 162.94 187.82C162.165 187.686 161.369 187.755 160.63 188.02C160.198 188.184 159.806 188.438 159.48 188.766C159.154 189.094 158.902 189.487 158.74 189.92C158.566 190.401 158.481 190.909 158.49 191.42C158.49 191.96 158.57 192.46 158.75 192.91C158.92 193.346 159.181 193.741 159.516 194.068C159.85 194.396 160.25 194.648 160.69 194.81C161.16 194.99 161.68 195.08 162.25 195.08C163.146 195.103 164.025 194.829 164.75 194.3ZM172.68 190.14C172.45 190.34 172.25 190.6 172.09 190.95L172.03 190.18C172.031 190.145 172.026 190.111 172.014 190.078C172.002 190.045 171.984 190.015 171.96 189.99C171.92 189.95 171.86 189.93 171.76 189.93H171.25V195H172.15V191.8C172.21 191.63 172.28 191.47 172.35 191.34C172.43 191.2 172.52 191.09 172.62 191C172.721 190.904 172.84 190.83 172.971 190.782C173.102 190.734 173.241 190.713 173.38 190.72C173.5 190.72 173.6 190.73 173.68 190.75L173.89 190.78C173.97 190.78 174.02 190.74 174.04 190.65L174.11 189.99C174.027 189.938 173.936 189.9 173.84 189.88L173.54 189.85C173.2 189.85 172.92 189.95 172.68 190.14ZM184.81 192.82C185.157 192.761 185.508 192.728 185.86 192.72V193.77C185.673 193.969 185.458 194.137 185.22 194.27C184.872 194.451 184.471 194.501 184.09 194.41C183.996 194.383 183.908 194.339 183.83 194.28C183.753 194.214 183.691 194.132 183.65 194.04C183.607 193.932 183.586 193.816 183.59 193.7C183.59 193.56 183.63 193.43 183.71 193.32C183.815 193.188 183.953 193.085 184.11 193.02C184.334 192.925 184.569 192.858 184.81 192.82ZM183.89 190.04C183.57 190.18 183.26 190.38 182.99 190.65L183.14 190.93C183.17 190.98 183.21 191.03 183.25 191.06C183.3 191.09 183.35 191.1 183.41 191.1C183.493 191.098 183.573 191.07 183.64 191.02L183.92 190.83C184.199 190.649 184.527 190.555 184.86 190.56C185.19 190.56 185.43 190.66 185.6 190.87C185.77 191.07 185.86 191.37 185.86 191.76V192.16C185.024 192.156 184.196 192.326 183.43 192.66C183.19 192.81 183.01 192.97 182.9 193.16C182.79 193.334 182.731 193.535 182.73 193.74C182.73 193.96 182.77 194.16 182.84 194.34C182.912 194.498 183.017 194.638 183.148 194.752C183.28 194.866 183.433 194.95 183.6 195C183.928 195.088 184.272 195.101 184.605 195.038C184.939 194.976 185.255 194.84 185.53 194.64C185.66 194.54 185.79 194.44 185.93 194.31L186.03 194.79C186.043 194.856 186.078 194.916 186.13 194.96C186.192 194.99 186.261 195.004 186.33 195H186.73V191.76C186.73 191.48 186.69 191.22 186.61 190.98C186.545 190.756 186.431 190.55 186.275 190.377C186.119 190.203 185.926 190.068 185.71 189.98C185.114 189.788 184.469 189.812 183.89 190.05V190.04ZM188.93 190.67C189.141 190.437 189.387 190.238 189.66 190.08C189.951 189.923 190.279 189.844 190.61 189.85C190.845 189.844 191.079 189.889 191.296 189.98C191.514 190.072 191.709 190.208 191.87 190.38C192.01 190.55 192.12 190.75 192.19 190.99C192.27 191.23 192.31 191.49 192.31 191.77V195H191.41V191.78C191.41 191.39 191.32 191.09 191.15 190.88C190.97 190.68 190.71 190.57 190.35 190.57C190.09 190.57 189.84 190.63 189.61 190.76C189.38 190.88 189.17 191.06 188.98 191.27V195H188.08V189.94H188.62C188.75 189.94 188.82 190 188.85 190.12L188.93 190.67ZM197.9 189.94L195.08 196.5C195.053 196.562 195.011 196.617 194.96 196.66C194.902 196.702 194.831 196.723 194.76 196.72H194.1L195.02 194.71L192.93 189.93H193.7C193.76 189.93 193.819 189.948 193.869 189.982C193.919 190.016 193.958 190.064 193.98 190.12L195.33 193.31C195.39 193.45 195.43 193.6 195.47 193.75L195.62 193.31L196.93 190.12C196.95 190.07 196.99 190.02 197.03 189.99C197.08 189.95 197.13 189.93 197.2 189.93H197.9V189.94ZM174.9 195V189.94H175.43C175.55 189.94 175.63 190 175.66 190.12L175.73 190.64C175.91 190.41 176.13 190.22 176.36 190.08C176.59 189.93 176.86 189.85 177.16 189.85C177.51 189.85 177.78 189.95 177.99 190.14C178.21 190.33 178.36 190.59 178.45 190.91C178.545 190.665 178.697 190.447 178.894 190.273C179.09 190.099 179.325 189.975 179.58 189.91C179.979 189.817 180.396 189.845 180.78 189.99C180.99 190.07 181.17 190.19 181.31 190.35C181.46 190.52 181.57 190.72 181.65 190.96C181.72 191.2 181.76 191.46 181.76 191.77V195H180.86V191.78C180.86 191.38 180.78 191.08 180.61 190.88C180.516 190.775 180.4 190.693 180.27 190.639C180.14 190.585 180 190.562 179.86 190.57C179.716 190.565 179.572 190.593 179.44 190.65C179.309 190.698 179.189 190.773 179.09 190.87C178.99 190.97 178.91 191.1 178.85 191.25C178.79 191.4 178.77 191.57 178.77 191.78V195H177.87V191.78C177.87 191.37 177.79 191.06 177.63 190.87C177.46 190.67 177.23 190.57 176.91 190.57C176.69 190.57 176.49 190.63 176.31 190.75C176.11 190.86 175.94 191.02 175.79 191.22V195H174.89H174.9ZM169.36 191.91C169.36 191.71 169.33 191.52 169.26 191.35C169.209 191.19 169.124 191.042 169.012 190.916C168.9 190.79 168.763 190.689 168.61 190.62C168.437 190.541 168.249 190.504 168.06 190.51C167.63 190.51 167.3 190.64 167.05 190.89C166.8 191.13 166.65 191.48 166.59 191.92H169.36V191.91ZM170.08 194.29C169.97 194.42 169.83 194.54 169.68 194.64C169.201 194.93 168.65 195.079 168.09 195.07C167.74 195.07 167.42 195.01 167.12 194.9C166.821 194.778 166.552 194.591 166.334 194.352C166.116 194.113 165.954 193.829 165.86 193.52C165.624 192.824 165.617 192.07 165.84 191.37C165.94 191.07 166.1 190.8 166.31 190.58C166.51 190.35 166.76 190.18 167.05 190.05C167.631 189.798 168.288 189.783 168.88 190.01C169.136 190.113 169.369 190.268 169.561 190.466C169.754 190.664 169.904 190.901 170 191.16C170.1 191.44 170.16 191.76 170.16 192.12C170.16 192.26 170.14 192.35 170.11 192.4C170.08 192.45 170.02 192.47 169.94 192.47H166.56C166.56 192.79 166.61 193.07 166.69 193.31C166.77 193.54 166.88 193.74 167.02 193.9C167.16 194.06 167.32 194.18 167.52 194.25C167.787 194.351 168.074 194.392 168.359 194.37C168.645 194.347 168.921 194.262 169.17 194.12L169.45 193.96C169.508 193.916 169.577 193.888 169.65 193.88C169.685 193.878 169.72 193.885 169.752 193.901C169.783 193.917 169.81 193.94 169.83 193.97L170.08 194.29ZM239.43 189.94V195H238.53V189.94H239.43ZM239.62 188.34C239.62 188.44 239.6 188.51 239.56 188.59C239.525 188.665 239.478 188.732 239.42 188.79C239.363 188.85 239.295 188.897 239.22 188.93C239.141 188.965 239.056 188.984 238.97 188.984C238.884 188.984 238.798 188.965 238.72 188.93C238.575 188.859 238.461 188.739 238.4 188.59C238.366 188.513 238.348 188.429 238.348 188.345C238.348 188.261 238.366 188.177 238.4 188.1C238.463 187.949 238.581 187.828 238.73 187.76C238.807 187.727 238.89 187.71 238.975 187.71C239.059 187.71 239.142 187.727 239.22 187.76C239.3 187.79 239.37 187.84 239.42 187.9C239.48 187.95 239.52 188.02 239.56 188.1C239.6 188.18 239.62 188.26 239.62 188.35V188.34ZM244.33 190.92C244.36 190.897 244.387 190.87 244.41 190.84L244.65 190.51C244.433 190.289 244.172 190.116 243.885 190.003C243.597 189.889 243.289 189.837 242.98 189.85C242.6 189.85 242.26 189.92 241.96 190.05C241.67 190.175 241.413 190.363 241.205 190.6C240.998 190.837 240.845 191.117 240.76 191.42C240.537 192.12 240.541 192.872 240.77 193.57C240.89 193.89 241.04 194.17 241.24 194.39C241.44 194.614 241.687 194.791 241.964 194.909C242.24 195.027 242.539 195.082 242.84 195.07C243.194 195.064 243.546 195 243.88 194.88C244.204 194.76 244.49 194.557 244.71 194.29L244.46 193.97C244.441 193.942 244.416 193.919 244.386 193.903C244.357 193.887 244.323 193.88 244.29 193.88C244.219 193.883 244.152 193.912 244.1 193.96L243.87 194.13C243.78 194.19 243.67 194.25 243.53 194.31C243.39 194.35 243.21 194.38 242.99 194.38C242.783 194.385 242.579 194.342 242.392 194.255C242.204 194.169 242.04 194.04 241.91 193.88C241.773 193.701 241.671 193.497 241.61 193.28C241.475 192.752 241.475 192.198 241.61 191.67C241.67 191.43 241.77 191.23 241.9 191.07C242.03 190.9 242.19 190.77 242.38 190.69C242.57 190.59 242.78 190.55 243.04 190.55C243.409 190.542 243.769 190.662 244.06 190.89C244.106 190.925 244.162 190.946 244.22 190.95C244.27 190.95 244.31 190.94 244.33 190.92ZM248.71 190.04C248.068 189.78 247.351 189.78 246.71 190.04C246.414 190.157 246.148 190.339 245.931 190.573C245.715 190.807 245.554 191.086 245.46 191.39C245.343 191.738 245.286 192.103 245.29 192.47C245.29 192.87 245.35 193.22 245.46 193.54C245.555 193.842 245.717 194.119 245.933 194.351C246.149 194.583 246.415 194.764 246.71 194.88C247.01 195.01 247.34 195.07 247.71 195.07C248.08 195.07 248.41 195.01 248.71 194.89C249.003 194.773 249.266 194.591 249.481 194.36C249.695 194.128 249.855 193.851 249.95 193.55C250.184 192.849 250.184 192.091 249.95 191.39C249.857 191.087 249.697 190.808 249.482 190.575C249.268 190.341 249.004 190.159 248.71 190.04ZM248.83 193.88C248.58 194.21 248.21 194.38 247.71 194.38C247.21 194.38 246.83 194.21 246.58 193.88C246.309 193.461 246.18 192.967 246.21 192.47C246.21 192.17 246.24 191.9 246.3 191.67C246.36 191.43 246.45 191.22 246.58 191.06C246.7 190.9 246.86 190.77 247.05 190.68C247.24 190.6 247.45 190.55 247.71 190.55C248.21 190.55 248.58 190.72 248.83 191.06C249.08 191.4 249.2 191.86 249.2 192.47C249.2 193.07 249.08 193.54 248.83 193.87V193.88ZM236.81 195H237.67L235.89 192.35L237.59 189.94H236.78C236.733 189.938 236.687 189.952 236.65 189.98C236.611 190.011 236.577 190.048 236.55 190.09L235.46 191.69C235.401 191.774 235.361 191.87 235.34 191.97L234.09 190.07C234.067 190.031 234.036 189.997 234 189.97C233.95 189.945 233.895 189.935 233.84 189.94H233L234.7 192.4L232.93 195H233.73C233.79 195 233.83 194.98 233.88 194.94C233.917 194.9 233.95 194.856 233.98 194.81L235.17 193.09C235.196 193.054 235.217 193.013 235.23 192.97L235.27 192.83L236.55 194.81C236.57 194.86 236.61 194.91 236.65 194.94C236.69 194.98 236.75 195 236.82 195H236.81ZM231.68 191.91C231.68 191.71 231.65 191.52 231.59 191.35C231.538 191.189 231.452 191.04 231.338 190.914C231.224 190.788 231.085 190.688 230.93 190.62C230.761 190.542 230.576 190.504 230.39 190.51C229.96 190.51 229.62 190.64 229.37 190.89C229.12 191.13 228.97 191.48 228.91 191.92H231.68V191.91ZM232.4 194.29C232.3 194.42 232.16 194.54 232 194.64C231.683 194.83 231.334 194.959 230.97 195.02C230.462 195.125 229.935 195.083 229.45 194.9C229.149 194.778 228.88 194.591 228.66 194.352C228.441 194.114 228.277 193.829 228.18 193.52C227.944 192.824 227.937 192.07 228.16 191.37C228.27 191.07 228.43 190.8 228.63 190.58C228.83 190.35 229.08 190.18 229.38 190.05C229.961 189.798 230.618 189.783 231.21 190.01C231.466 190.113 231.699 190.268 231.891 190.466C232.084 190.664 232.234 190.901 232.33 191.16C232.43 191.44 232.48 191.76 232.48 192.12C232.48 192.26 232.47 192.35 232.44 192.4C232.41 192.45 232.34 192.47 232.27 192.47H228.88C228.89 192.79 228.93 193.07 229.01 193.31C229.09 193.54 229.21 193.74 229.34 193.9C229.48 194.06 229.64 194.18 229.84 194.25C230.106 194.35 230.391 194.39 230.674 194.367C230.958 194.345 231.233 194.26 231.48 194.12L231.78 193.96C231.838 193.916 231.907 193.888 231.98 193.88C232.013 193.88 232.047 193.887 232.076 193.903C232.106 193.919 232.131 193.942 232.15 193.97L232.4 194.29ZM226.82 195V187.84H226.11C226.02 187.84 225.95 187.84 225.91 187.86C225.879 187.873 225.852 187.892 225.829 187.916C225.807 187.94 225.79 187.969 225.78 188L223.34 192.4C223.248 192.568 223.174 192.746 223.12 192.93C223.06 192.751 222.987 192.577 222.9 192.41L220.42 188C220.393 187.94 220.347 187.891 220.29 187.86C220.225 187.839 220.158 187.829 220.09 187.83H219.37V195H220.22V189.74L220.19 189.24L222.7 193.74C222.78 193.9 222.9 193.97 223.05 193.97H223.19C223.35 193.97 223.46 193.9 223.54 193.75L226 189.26L225.98 189.51V195H226.82ZM299.78 190.68C299.98 190.76 300.15 190.92 300.32 191.14V193.59C300.157 193.813 299.953 194.003 299.72 194.15C299.5 194.28 299.24 194.35 298.95 194.35C298.75 194.35 298.57 194.32 298.41 194.25C298.248 194.175 298.11 194.057 298.01 193.91C297.884 193.74 297.795 193.546 297.75 193.34C297.69 193.061 297.663 192.775 297.67 192.49C297.67 191.86 297.79 191.39 298.05 191.04C298.3 190.71 298.66 190.54 299.13 190.54C299.37 190.54 299.59 190.59 299.78 190.68ZM301.21 195V187.63H300.32V190.44C300.146 190.245 299.931 190.09 299.691 189.987C299.451 189.883 299.191 189.833 298.93 189.84C298.623 189.837 298.319 189.904 298.042 190.035C297.765 190.167 297.521 190.36 297.33 190.6C297.13 190.84 297 191.12 296.9 191.44C296.703 192.146 296.697 192.891 296.88 193.6C296.98 193.92 297.1 194.2 297.27 194.41C297.431 194.626 297.643 194.799 297.888 194.914C298.132 195.029 298.4 195.083 298.67 195.07C299.02 195.07 299.34 194.99 299.62 194.83C299.9 194.67 300.14 194.46 300.36 194.2L300.44 194.82C300.47 194.94 300.55 195 300.68 195H301.21ZM304.31 192.82C304.657 192.761 305.008 192.728 305.36 192.72V193.77C305.173 193.969 304.958 194.137 304.72 194.27C304.375 194.449 303.978 194.498 303.6 194.41C303.502 194.384 303.411 194.34 303.33 194.28C303.256 194.213 303.198 194.131 303.16 194.04C303.113 193.933 303.089 193.817 303.09 193.7C303.09 193.56 303.13 193.43 303.21 193.32C303.315 193.188 303.453 193.085 303.61 193.02C303.834 192.925 304.069 192.858 304.31 192.82ZM303.39 190.04C303.07 190.18 302.77 190.38 302.49 190.65L302.65 190.93C302.68 190.98 302.71 191.03 302.75 191.06C302.8 191.09 302.85 191.1 302.91 191.1C302.993 191.098 303.073 191.07 303.14 191.02L303.42 190.83C303.701 190.653 304.027 190.559 304.36 190.56C304.69 190.56 304.94 190.66 305.11 190.87C305.28 191.07 305.36 191.37 305.36 191.76V192.16C304.79 192.16 304.3 192.22 303.9 192.32C303.5 192.41 303.18 192.52 302.94 192.66C302.69 192.81 302.51 192.97 302.4 193.16C302.294 193.335 302.238 193.536 302.24 193.74C302.24 193.96 302.27 194.16 302.34 194.34C302.413 194.499 302.52 194.64 302.653 194.754C302.786 194.868 302.942 194.952 303.11 195C303.438 195.088 303.782 195.101 304.115 195.038C304.449 194.976 304.765 194.84 305.04 194.64L305.43 194.31L305.53 194.79C305.543 194.856 305.578 194.916 305.63 194.96C305.692 194.99 305.761 195.004 305.83 195H306.23V191.76C306.23 191.48 306.19 191.22 306.12 190.98C306.055 190.756 305.941 190.55 305.785 190.377C305.629 190.203 305.436 190.068 305.22 189.98C304.621 189.787 303.972 189.812 303.39 190.05V190.04ZM294.79 192.72C294.438 192.728 294.087 192.761 293.74 192.82C293.46 192.87 293.22 192.94 293.04 193.02C292.883 193.085 292.746 193.188 292.64 193.32C292.56 193.431 292.518 193.564 292.52 193.7C292.52 193.83 292.55 193.94 292.59 194.04C292.63 194.14 292.69 194.22 292.77 194.28C292.84 194.34 292.93 194.38 293.03 194.41C293.13 194.44 293.24 194.46 293.36 194.46C293.638 194.466 293.914 194.401 294.16 194.27C294.398 194.137 294.613 193.969 294.8 193.77V192.72H294.79ZM291.92 190.65C292.179 190.39 292.488 190.186 292.828 190.048C293.168 189.911 293.533 189.843 293.9 189.85C294.18 189.85 294.44 189.89 294.65 189.99C294.865 190.077 295.057 190.211 295.213 190.382C295.369 190.554 295.484 190.758 295.55 190.98C295.63 191.22 295.67 191.48 295.67 191.76V195H295.27C295.201 195.004 295.132 194.99 295.07 194.96C295.02 194.93 294.99 194.87 294.96 194.79L294.86 194.31L294.47 194.64C294.218 194.831 293.928 194.964 293.62 195.03C293.262 195.106 292.892 195.096 292.54 195C292.373 194.952 292.218 194.867 292.087 194.754C291.956 194.64 291.851 194.498 291.78 194.34C291.703 194.15 291.665 193.945 291.67 193.74C291.67 193.54 291.73 193.34 291.83 193.16C291.95 192.97 292.13 192.81 292.37 192.66C292.62 192.52 292.94 192.41 293.33 192.32C293.73 192.22 294.22 192.17 294.8 192.16V191.76C294.8 191.36 294.71 191.07 294.54 190.87C294.37 190.67 294.12 190.57 293.79 190.57C293.57 190.57 293.39 190.59 293.24 190.65C293.008 190.758 292.785 190.882 292.57 191.02C292.506 191.068 292.429 191.096 292.35 191.1C292.293 191.104 292.237 191.09 292.19 191.06C292.145 191.024 292.108 190.98 292.08 190.93L291.92 190.65ZM287.66 190.34C287.54 190.44 287.42 190.54 287.31 190.67L287.24 190.12C287.21 190 287.14 189.93 287.01 189.93H286.47V195H287.37V191.27C287.57 191.05 287.77 190.88 288 190.75C288.23 190.63 288.48 190.56 288.74 190.56C289.1 190.56 289.36 190.67 289.54 190.88C289.71 191.1 289.8 191.39 289.8 191.78V195H290.7V191.78C290.7 191.48 290.66 191.23 290.58 190.99C290.515 190.77 290.406 190.566 290.26 190.39C290.12 190.22 289.94 190.09 289.73 189.99C289.388 189.855 289.015 189.815 288.653 189.875C288.29 189.935 287.95 190.092 287.67 190.33L287.66 190.34ZM284.25 192.72C283.898 192.728 283.547 192.761 283.2 192.82C282.91 192.87 282.68 192.94 282.5 193.02C282.343 193.085 282.206 193.188 282.1 193.32C282.02 193.431 281.978 193.564 281.98 193.7C281.98 193.83 282 193.94 282.04 194.04C282.078 194.132 282.139 194.214 282.215 194.278C282.292 194.342 282.382 194.388 282.48 194.41C282.58 194.44 282.7 194.46 282.81 194.46C283.088 194.466 283.364 194.401 283.61 194.27C283.848 194.137 284.063 193.969 284.25 193.77V192.72ZM281.37 190.65C281.629 190.39 281.938 190.186 282.278 190.048C282.618 189.911 282.983 189.843 283.35 189.85C283.64 189.85 283.89 189.89 284.11 189.99C284.325 190.077 284.517 190.211 284.673 190.382C284.829 190.554 284.944 190.758 285.01 190.98C285.08 191.22 285.11 191.48 285.11 191.76V195H284.72C284.651 195.004 284.582 194.99 284.52 194.96C284.468 194.916 284.433 194.856 284.42 194.79L284.32 194.31L283.92 194.64C283.668 194.831 283.378 194.964 283.07 195.03C282.716 195.104 282.349 195.094 282 195C281.833 194.952 281.678 194.867 281.547 194.754C281.416 194.64 281.311 194.498 281.24 194.34C281.166 194.149 281.132 193.945 281.14 193.74C281.14 193.54 281.19 193.34 281.3 193.16C281.4 192.97 281.59 192.81 281.83 192.66C282.08 192.52 282.4 192.41 282.8 192.32C283.2 192.22 283.68 192.17 284.26 192.16V191.76C284.26 191.36 284.17 191.07 284 190.87C283.83 190.67 283.58 190.57 283.26 190.57C283.04 190.57 282.86 190.59 282.7 190.65C282.472 190.759 282.251 190.882 282.04 191.02C281.973 191.07 281.893 191.098 281.81 191.1C281.753 191.104 281.697 191.09 281.65 191.06C281.609 191.023 281.575 190.979 281.55 190.93L281.38 190.65H281.37ZM280.2 193.59C280.183 193.569 280.161 193.552 280.137 193.54C280.113 193.528 280.087 193.521 280.06 193.52C279.996 193.522 279.936 193.547 279.89 193.59C279.673 193.817 279.406 193.988 279.11 194.09C278.97 194.14 278.81 194.19 278.64 194.21C278.447 194.233 278.254 194.243 278.06 194.24C277.71 194.24 277.39 194.18 277.08 194.05C276.78 193.93 276.52 193.75 276.3 193.5C276.08 193.26 275.9 192.97 275.77 192.62C275.637 192.234 275.573 191.828 275.58 191.42C275.58 190.98 275.64 190.59 275.77 190.24C275.864 189.915 276.03 189.615 276.257 189.364C276.484 189.113 276.766 188.916 277.08 188.79C277.38 188.66 277.72 188.59 278.09 188.59C278.682 188.576 279.261 188.767 279.73 189.13C279.82 189.19 279.89 189.23 279.95 189.23C280.01 189.23 280.05 189.22 280.08 189.2C280.113 189.176 280.14 189.146 280.16 189.11L280.48 188.66C279.834 188.061 278.98 187.739 278.1 187.76C277.58 187.76 277.1 187.85 276.67 188.03C276.249 188.2 275.87 188.457 275.556 188.785C275.242 189.112 275.002 189.503 274.85 189.93C274.496 190.888 274.493 191.94 274.84 192.9C274.979 193.326 275.209 193.717 275.512 194.046C275.816 194.376 276.187 194.636 276.6 194.81C277.02 194.99 277.49 195.08 278 195.08C278.6 195.08 279.1 194.98 279.52 194.79C279.94 194.6 280.3 194.34 280.59 194L280.2 193.59Z" fill="#92999E"/>
</g>
</g>
<defs>
<linearGradient id="paint0_linear_2220_3654" x1="178" y1="7" x2="178" y2="167" gradientUnits="userSpaceOnUse">
<stop stop-color="#B7BCBF" stop-opacity="0.8"/>
<stop offset="1" stop-color="#B7BCBF"/>
</linearGradient>
<clipPath id="clip0_2220_3654">
<rect width="320" height="200" fill="white"/>
</clipPath>
</defs>
</svg>
